<svg width="1276" height="1331" viewBox="0 0 1276 1331" fill="none" xmlns="http://www.w3.org/2000/svg">
<path d="M1267.17 121.979C302.132 131.054 453.259 129.633 436.875 129.793C437.379 114.394 438.158 98.9951 439.189 83.5959C442.214 39.2316 454.863 23.397 489.282 20.8304C552.254 16.2244 987.35 12.1455 1154.24 7.9978C1193.36 6.98952 1235.62 9.85395 1252.23 38.4066C1265.09 60.4055 1267.88 90.5394 1267.17 121.979ZM1260.94 218.133C1260.94 395.43 1254.29 441.536 1249.87 499.512C1246.11 537.597 1241.41 585.032 1202.27 597.017C1166.25 608.016 1126.7 605.541 1088.25 604.121C1040.9 602.471 1022.02 603.594 721.233 613.035C681.841 614.272 641.602 616.77 601.087 617.503C606.93 594.428 609.726 568.877 607.251 544.586C612.636 541.264 613.072 524.214 614.722 517.569C622.398 487.091 624.071 453.772 610.001 425.816C606.22 430.857 602.325 435.875 598.498 440.917C595.954 444.217 594.419 445.844 589.125 444.056C582.434 441.742 576.545 437.182 572.328 431.338C569.67 427.855 567.401 426.938 565.637 431.017C562.452 438.098 560.412 445.637 559.587 453.36C551.956 455.537 545.082 448.02 537.244 446.6C530.828 445.477 524.503 448.616 518.683 451.802C509.31 456.774 500.007 461.655 490.726 466.628C500.098 453.956 509.471 441.238 518.912 428.474C522.166 424.028 526.978 419.101 532.112 420.843C534.816 421.805 536.626 424.509 538.711 426.618C540.774 428.749 544.051 430.353 546.48 428.68C548.198 427.534 548.381 426.274 557.043 409.523C558.029 407.735 558.968 405.948 560.527 404.756C565.224 401.502 571.251 406.154 574.963 410.554C577.942 410.92 580.463 417.314 584.45 417.635C590.065 418.116 591.233 414.61 594.144 410.646C594.969 409.523 595.862 408.01 596.779 406.383C583.396 391.396 565.201 381.589 545.815 381.909C549.733 378.083 552.781 373.912 554.867 369.421C563.712 350.355 546.525 337.385 531.012 343.251C535.824 322.833 511.006 316.165 496.272 333.672C491.024 339.997 488.137 347.857 486.235 354.021C483.691 362.225 481.766 370.795 480.025 378.976C467.811 380.535 452.87 382.62 442.947 387.134C441.618 329.868 433.506 244.279 436.623 137.562L1266.94 129.748C1265.82 157.911 1261.49 194.85 1260.94 218.133ZM549.252 696.401C531.63 712.076 509.883 719.844 489.557 717.644C487.449 717.415 485.501 718.95 485.272 721.081C485.043 723.235 486.578 725.137 488.71 725.366C497.051 726.26 505.048 725.642 513.138 723.831C511.992 746.357 509.517 752.453 508.05 769.8C507.638 774.703 507.111 780.959 505.025 785.428C502.321 791.157 492.857 799.865 483.599 802.019C455.963 808.527 426.104 797.069 407.474 772.847C407.451 772.801 407.406 772.802 407.383 772.756H407.406C407.085 772.343 406.764 771.953 406.466 771.541C416.778 693.926 417.465 690.81 419.23 677.198C419.482 675.205 418.68 673.807 417.351 673.05C412.516 667.161 408.483 660.837 405.114 653.847C407.726 649.723 405.526 647.248 404.243 636.225L412.791 627.586C417.236 623.164 414.739 615.418 408.597 614.547L396.91 612.806L391.571 601.669C390.288 598.988 387.698 597.338 384.788 597.338H384.765C381.878 597.338 379.242 598.988 377.982 601.669L372.872 612.76C366.272 613.791 362.125 614.295 360.268 614.754C349.796 607.008 348.398 594.29 350.804 581.526C353.371 567.96 360.681 555.104 374.384 555.104C374.911 555.242 385.086 554.715 394.115 564.592C394.871 565.417 395.879 565.829 396.91 565.852C397.529 566.631 398.125 567.387 398.698 568.029C405.756 583.497 407.703 586.774 407.245 588.446C413.363 561.727 436.898 539.316 472.004 533.335C499.297 528.706 538.894 535.054 559.175 508.655C562.864 521.327 571.755 531.937 582.755 538.422C586.536 540.668 593.319 544.632 599.437 545.663C600.629 557.511 600.629 565.989 600.033 575.018C597.145 571.672 593.204 570.045 589.698 568.831C579.707 565.348 571.411 563.835 563.62 563.996C561.466 564.042 559.77 565.829 559.816 567.96C559.862 570.114 561.718 571.856 563.804 571.764C570.632 571.558 578.057 573.002 587.131 576.164C589.881 577.126 592.7 578.226 594.327 580.243C595.473 581.686 597.627 582.236 599.46 580.999C595.564 622.041 579.936 668.742 549.252 696.401ZM637.545 883.781C645.52 905.276 652.555 927.641 658.696 950.855C631.06 949.984 608.191 949.228 592.677 948.723C587.704 948.586 582.938 949.801 578.767 952.069L577.346 932.614C577.186 930.483 575.307 928.924 573.176 929.016C571.045 929.177 569.441 931.056 569.601 933.187L571.411 957.821C568.295 961.212 565.912 965.383 564.651 970.104C543.34 1049.28 545.082 1034.43 506.927 1179.67L213.334 1141.37L217.345 1123.04C244.27 1131.73 243.01 1131.57 244.156 1131.57C245.485 1131.57 246.791 1130.86 247.501 1129.66C274.702 1083.9 292.943 1034.11 301.697 981.699C302.063 979.568 300.619 977.574 298.511 977.23C296.403 976.841 294.409 978.307 294.043 980.415C285.61 1030.85 268.24 1078.81 242.391 1123.02L218.376 1115.23C217.963 1114.1 217.138 1113.19 215.924 1112.8C46.7391 1061.06 185.126 1103.56 55.2866 1062.25C85.2371 970.768 113.217 867.282 188.769 807.404C228.459 775.964 277.406 762.742 320.189 772.114C364.37 776.078 401.86 778.92 402.387 778.966C423.011 804.769 455.734 816.593 485.364 809.604C497.463 806.808 509.494 795.877 512.954 786.597C590.065 794.365 614.63 822.23 637.545 883.781ZM746.898 1114.77L781.523 1112.29C785.236 1112 788.833 1110 791.24 1106.93L813.949 1077.62C820.021 1069.83 831.548 1070.66 833.473 1079.04L840.622 1110.39C841.424 1113.69 843.922 1116.19 847.314 1116.95L879.487 1124.14C888.034 1126.09 888.837 1137.29 880.724 1143.14L850.499 1165.02C847.314 1167.34 845.228 1170.87 844.908 1174.44L842.089 1208.1C841.356 1217.11 830.287 1223.23 823.39 1218.44L797.518 1200.63C794.792 1198.73 790.965 1198.48 787.436 1199.95L753.498 1213.53C744.446 1217.16 736.838 1209.73 740.642 1200.98L754.896 1168.05C756.408 1164.59 756.156 1160.9 754.208 1158.19L736.105 1132.92C731.247 1126.13 737.617 1115.41 746.898 1114.77ZM155.106 1302.88C131.045 1303.45 105.54 1292.46 83.1058 1271.81C53.9802 1244.97 40.5976 1213.01 50.9783 1152.85C55.378 1127.42 62.6422 1102.39 72.6334 1078.42C81.7996 1081.34 135.995 1097.01 150.248 1101.25L201.946 1118.05L207.949 1121.74L198.141 1142.06C196.973 1144.44 198.485 1147.26 201.12 1147.61C201.648 1147.68 208.637 1148.62 208.11 1148.55L504.957 1187.23C499.434 1208.26 494.69 1226.67 491.276 1239.89C487.976 1252.65 476.816 1261.54 464.03 1261.54H305.569C290.009 1261.54 277.36 1274.65 277.36 1290.78C277.406 1300.71 277.246 1301.58 277.544 1304.44C156.687 1302.9 157.031 1302.88 155.106 1302.88ZM398.629 630.863C396.933 632.628 396.154 635.125 396.567 637.531L398.95 649.585C398.927 649.585 398.904 649.585 398.858 649.608C398.835 649.608 398.835 649.631 398.812 649.631L388.386 643.948C386.14 642.71 383.459 642.71 381.236 643.948L371.016 649.768L373.032 637.555C373.445 635.08 372.62 632.536 370.901 630.817L362.17 622.224L374.155 620.437C376.63 619.978 378.715 618.351 379.701 616.151L384.559 605.015L389.875 616.105C390.883 618.351 392.992 619.978 395.581 620.437L407.291 622.109C405.114 624.286 400.783 628.663 398.629 630.863ZM441.389 396.828C446.476 393.39 452.48 391.717 457.682 390.503C481.102 385.278 486.028 388.28 487.06 383.307C489.741 370.544 493.957 348.613 502.23 338.668C509.471 330.075 518.821 330.098 522.029 333.466C525.97 337.499 522.304 346.826 519.256 351.546C516.712 355.488 522.143 359.704 525.351 356.313C529.476 351.959 534.403 349.438 538.963 349.53C543.18 349.553 548.221 352.394 549.321 357C551.017 364.585 543.5 374.118 537.13 379.251C528.285 386.241 514.535 391.969 503.421 396.805C502.551 397.194 501.382 397.423 500.076 397.446C498.059 397.515 496.432 399.119 496.318 401.136C496.249 402.396 495.905 403.794 495.309 404.917C492.399 410.531 489.397 416.328 486.258 421.897C480.368 432.278 472.852 443.46 461.784 447.677C459.607 448.502 456.536 449.189 453.809 448.502C453.374 448.364 452.939 448.227 452.526 448.066C448.928 446.394 446.499 441.627 446.912 436.792C447.301 432.048 450.166 427.099 454.772 423.203C458.347 420.201 454.474 414.587 450.395 416.833C445.514 419.537 436.623 422.286 433.117 417.955C432.888 417.428 431.513 416.145 431.581 412.525C431.65 406.04 436.462 399.623 441.389 396.828ZM1154.04 0.229492C996.081 4.17095 550.971 8.50199 488.71 13.0851C444.758 16.362 434.217 42.2794 431.444 83.069C430.298 99.8889 429.473 116.777 428.946 133.574C428.946 133.643 428.9 133.689 428.923 133.758C428.923 133.781 428.923 133.827 428.923 133.849C425.463 244.921 433.712 321.573 435.271 391.557C431.008 394.765 427.8 398.844 425.875 403.267C423.905 404.206 421.957 405.398 420.399 406.062C407.795 411.196 395.283 416.443 384.696 425.059C338.82 462.503 334.855 498.228 319.089 522.931C294.18 564.294 271.883 606.687 233.66 636.913C197.431 665.488 149.492 682.858 104.509 686.708C67.1567 689.848 27.3525 703.23 10.0513 740.903C-17.1493 800.231 10.6242 882.91 96.2135 923.379C96.2135 923.402 96.1907 923.471 96.1907 923.471C76.025 969.347 61.6569 1018.18 46.0973 1065.23C45.4557 1067.22 46.4868 1069.37 48.4576 1070.11C53.7052 1072.05 59.2968 1074 65.2548 1076C55.1949 1100.33 47.7932 1125.72 43.3246 1151.55C34.4563 1202.88 39.8185 1242.5 77.8352 1277.54C101.759 1299.56 129.235 1311.38 155.198 1310.65C156.527 1310.63 157.902 1310.65 159.346 1310.72C199.379 1311.2 239.412 1311.73 279.445 1312.23C283.639 1322.93 293.745 1330.45 305.569 1330.45H972.065C984.096 1330.45 994.866 1322.5 998.739 1310.58L1098.77 1002.6C1104.77 984.036 1091.82 964.696 1072.92 964.054C989.435 961.419 787.688 955.002 666.809 951.13C660.438 926.862 653.151 903.488 644.833 881.077C620.634 816.089 593.433 787.101 514.764 778.989C515.773 772.687 515.727 770.029 516.277 765.285C518.225 749.336 520.104 742.347 521.02 721.654C562.383 708.042 586.902 666.84 598.91 625.295C640.868 624.607 681.406 622.064 721.485 620.803C1141.57 607.627 1020.14 611.591 1098.81 612.279C1133.92 613.608 1170.24 614.96 1204.57 604.442C1247.78 591.197 1253.49 541.791 1257.84 497.724C1267.17 405.306 1268.71 310.826 1268.71 218.224C1269.97 165.244 1287.2 82.8398 1258.94 34.4882C1237.79 -1.87868 1181.24 -0.457972 1154.04 0.229492Z" fill="#040606"/>
<path d="M487.716 71.2867C478.475 68.2962 468.649 73.6478 465.771 83.2264C462.87 92.8049 468.019 102.99 477.26 105.981C486.502 108.971 496.327 103.643 499.206 94.0639C502.106 84.4629 496.957 74.2772 487.716 71.2867Z" fill="#040606"/>
<path d="M565.149 71.4475C555.975 68.1871 546.014 73.2238 542.866 82.7127C539.718 92.2016 544.575 102.545 553.727 105.828C562.878 109.088 572.862 104.052 576.01 94.5627C579.158 85.0513 574.301 74.7304 565.149 71.4475Z" fill="#040606"/>
<path d="M634.477 72.3587C625.328 69.0991 615.347 74.1346 612.2 83.6437C609.053 93.1302 613.908 103.471 623.058 106.731C632.229 109.99 642.188 104.955 645.335 95.4681C648.483 85.9815 643.627 75.6407 634.477 72.3587Z" fill="#040606"/>
<path d="M369.038 576.609C367.191 580.361 366.569 584.405 366.161 588.196C365.927 590.334 367.502 592.239 369.621 592.472C371.701 592.706 373.665 591.189 373.898 589.012C374.209 585.921 374.695 582.694 376.017 580.05C377.183 577.659 379.088 575.909 380.974 575.52C382.588 575.132 384.493 576.045 384.979 577.348C385.698 579.37 387.914 580.4 389.956 579.681C391.958 578.961 393.008 576.726 392.288 574.704C388.886 565.353 374.967 564.576 369.038 576.609Z" fill="#040606"/>
<path d="M546.107 622.072C543.213 613.74 543.699 604.028 547.467 595.443C548.322 593.481 547.428 591.189 545.466 590.335C543.505 589.461 541.213 590.354 540.358 592.316C535.793 602.688 535.23 614.458 538.785 624.636C540.921 630.832 544.825 637.98 542.203 642.564C540.241 646.002 535.094 647.07 526.451 645.788C524.314 645.497 522.353 646.954 522.042 649.071C521.731 651.207 523.188 653.169 525.324 653.48C534.473 654.82 544.379 654.451 548.963 646.41C552.867 639.553 549.992 632.192 547.467 625.685C547.001 624.481 546.535 623.257 546.107 622.072Z" fill="#040606"/>
<path d="M522.014 681.969C516.184 683.578 509.275 680.512 506.303 675.041C505.281 673.149 502.934 672.448 501.041 673.47C499.148 674.492 498.448 676.859 499.47 678.732C504.183 687.421 514.764 692.02 524.058 689.465C526.14 688.897 527.352 686.739 526.784 684.676C526.216 682.613 524.058 681.42 522.014 681.969Z" fill="#040606"/>
<path d="M496.522 584.103C494.833 592.351 496.755 599.785 500.83 600.677C504.886 601.57 509.564 595.592 511.252 587.325C512.921 579.076 511.019 571.643 506.944 570.75C502.868 569.858 498.21 575.835 496.522 584.103Z" fill="#040606"/>
<path d="M578.331 583.482C574.252 582.593 569.594 588.566 567.912 596.819C566.211 605.093 568.144 612.515 572.203 613.404C576.282 614.294 580.94 608.321 582.641 600.067C584.323 591.794 582.39 584.39 578.331 583.482Z" fill="#040606"/>
<path d="M525.292 566.191C525.878 566.523 526.523 566.68 527.187 566.68C528.534 566.68 529.863 565.957 530.566 564.688C531.62 562.813 530.937 560.449 529.081 559.395C512.285 550.04 490.84 549.864 474.474 558.965C472.599 560 471.935 562.363 472.97 564.238C474.005 566.113 476.388 566.797 478.243 565.762C492.325 557.93 510.781 558.106 525.292 566.191Z" fill="#040606"/>
<path d="M427.355 971.247C413.239 981.743 406.016 999.532 409.793 1014.5C414.022 1031.31 431.863 1042.68 448.729 1039.32C464.968 1036.07 477.622 1019.81 477.535 1002.33C477.518 1000.19 475.795 998.47 473.654 998.47C473.636 998.47 473.636 998.47 473.636 998.47C471.478 998.487 469.755 1000.23 469.755 1002.37C469.842 1016.03 459.712 1029.19 447.197 1031.7C434.491 1034.26 420.532 1025.31 417.329 1012.59C414.318 1000.59 420.34 986.164 432.002 977.479C453.22 961.692 482.357 967.975 494.575 990.341C503.522 1006.74 500.545 1030.41 487.456 1046.65C475.864 1061.03 456.77 1070.55 435.048 1072.79C417.364 1074.64 394.545 1070.58 383.475 1053.78C366.54 1028.02 379.089 973.997 419.888 953.407C421.803 952.432 422.568 950.1 421.611 948.168C420.636 946.253 418.304 945.487 416.372 946.462C352.406 978.767 345.879 1089.74 435.849 1080.52C459.608 1078.07 480.616 1067.5 493.514 1051.52C508.709 1032.65 511.963 1005.97 501.398 986.617C486.969 960.195 452.436 952.571 427.355 971.247Z" fill="#040606"/>
<path d="M704.428 838.099C702.475 837.225 700.168 838.081 699.275 840.034C692.596 854.694 684.243 868.535 674.495 881.204C673.192 882.897 673.509 885.334 675.202 886.655C676.913 887.957 679.35 887.641 680.671 885.948C690.792 872.814 699.424 858.452 706.363 843.253C707.237 841.299 706.381 838.992 704.428 838.099Z" fill="#040606"/>
<path d="M710.963 891.649L747.072 842.699C748.335 840.964 747.958 838.532 746.242 837.25C744.508 835.987 742.075 836.345 740.793 838.08L704.703 887.029C703.421 888.764 703.798 891.196 705.514 892.478C707.286 893.761 709.7 893.365 710.963 891.649Z" fill="#040606"/>
<path d="M732.163 913.023C737.345 913.023 742.033 909.994 744.586 908.336C756.38 900.733 767.889 892.312 778.788 883.318C780.427 881.965 780.674 879.507 779.302 877.849C777.95 876.192 775.492 875.963 773.834 877.335C763.164 886.119 751.922 894.369 740.375 901.819C737.04 903.954 733.287 905.973 730.562 904.963C728.561 904.201 726.313 905.211 725.532 907.231C724.541 909.879 726.199 913.023 732.163 913.023Z" fill="#040606"/>
<g clip-path="url(#clip0_9_1562)">
<path d="M845 420.291C878.313 420.291 905.319 393.285 905.319 359.972C905.319 326.658 878.313 299.652 845 299.652C811.687 299.652 784.681 326.658 784.681 359.972C784.681 393.285 811.687 420.291 845 420.291Z" fill="white"/>
<path d="M845 299.679H949.459C938.874 281.339 923.647 266.109 905.308 255.52C886.97 244.932 866.167 239.358 844.992 239.359C823.816 239.361 803.014 244.938 784.677 255.529C766.341 266.12 751.116 281.352 740.533 299.694L792.763 390.158L792.809 390.146C787.496 380.984 784.692 370.583 784.681 359.992C784.669 349.4 787.449 338.993 792.742 329.819C798.034 320.645 805.652 313.028 814.826 307.737C824.001 302.445 834.409 299.666 845 299.679Z" fill="url(#paint0_linear_9_1562)"/>
<path d="M845.001 407.75C871.374 407.75 892.754 386.37 892.754 359.997C892.754 333.624 871.374 312.244 845.001 312.244C818.628 312.244 797.248 333.624 797.248 359.997C797.248 386.37 818.628 407.75 845.001 407.75Z" fill="#1A73E8"/>
<path d="M897.233 390.171L845.003 480.636C866.179 480.639 886.982 475.066 905.321 464.479C923.659 453.892 938.888 438.663 949.474 420.324C960.06 401.985 965.632 381.181 965.628 360.006C965.624 338.83 960.045 318.029 949.453 299.693H844.994L844.981 299.74C855.573 299.72 865.982 302.492 875.16 307.777C884.339 313.062 891.962 320.674 897.26 329.844C902.559 339.015 905.346 349.42 905.342 360.012C905.337 370.603 902.54 381.006 897.233 390.171Z" fill="url(#paint1_linear_9_1562)"/>
<path d="M792.767 390.171L740.537 299.707C729.947 318.044 724.371 338.846 724.37 360.022C724.369 381.197 729.944 402 740.533 420.338C751.122 438.676 766.352 453.902 784.693 464.487C803.033 475.072 823.837 480.641 845.013 480.635L897.242 390.17L897.209 390.136C891.931 399.319 884.325 406.947 875.159 412.253C865.992 417.559 855.589 420.355 844.998 420.358C834.407 420.362 824.002 417.573 814.832 412.274C805.662 406.974 798.051 399.35 792.767 390.171Z" fill="url(#paint2_linear_9_1562)"/>
</g>
<defs>
<linearGradient id="paint0_linear_9_1562" x1="740.533" y1="314.759" x2="949.459" y2="314.759" gradientUnits="userSpaceOnUse">
<stop stop-color="#D93025"/>
<stop offset="1" stop-color="#EA4335"/>
</linearGradient>
<linearGradient id="paint1_linear_9_1562" x1="828.522" y1="479.023" x2="932.985" y2="298.088" gradientUnits="userSpaceOnUse">
<stop stop-color="#FCC934"/>
<stop offset="1" stop-color="#FBBC04"/>
</linearGradient>
<linearGradient id="paint2_linear_9_1562" x1="858.06" y1="473.102" x2="753.597" y2="292.167" gradientUnits="userSpaceOnUse">
<stop stop-color="#1E8E3E"/>
<stop offset="1" stop-color="#34A853"/>
</linearGradient>
<clipPath id="clip0_9_1562">
<rect width="296" height="241.277" fill="white" transform="translate(697 239.359)"/>
</clipPath>
</defs>
</svg>
