<svg xmlns="http://www.w3.org/2000/svg" xmlns:xlink="http://www.w3.org/1999/xlink" width="1280" zoomAndPan="magnify" viewBox="0 0 960 314.999992" height="420" preserveAspectRatio="xMidYMid meet" version="1.0"><defs><g/><clipPath id="12dbd1881d"><path d="M 0 0 L 299.847656 0 L 299.847656 315 L 0 315 Z M 0 0 " clip-rule="nonzero"/></clipPath><clipPath id="69598770d9"><path d="M 330.074219 0 L 629.921875 0 L 629.921875 315 L 330.074219 315 Z M 330.074219 0 " clip-rule="nonzero"/></clipPath><clipPath id="2ef060b409"><path d="M 660.148438 0 L 959.996094 0 L 959.996094 315 L 660.148438 315 Z M 660.148438 0 " clip-rule="nonzero"/></clipPath><clipPath id="6b8cf64268"><path d="M 97.863281 129 L 202.113281 129 L 202.113281 245 L 97.863281 245 Z M 97.863281 129 " clip-rule="nonzero"/></clipPath><clipPath id="eb0e5dba20"><path d="M 746.082031 125.621094 L 874.332031 125.621094 L 874.332031 253.871094 L 746.082031 253.871094 Z M 746.082031 125.621094 " clip-rule="nonzero"/></clipPath><clipPath id="2e413c8851"><path d="M 748 126.28125 L 873 126.28125 L 873 219.28125 L 748 219.28125 Z M 748 126.28125 " clip-rule="nonzero"/></clipPath><clipPath id="f2782b2428"><path d="M 748.03125 170.46875 L 829.664062 170.46875 L 829.664062 219.28125 L 748.03125 219.28125 Z M 748.03125 170.46875 " clip-rule="nonzero"/></clipPath><clipPath id="291203c6ec"><path d="M 751.285156 214.265625 L 758.136719 214.265625 L 758.136719 221.785156 L 751.285156 221.785156 Z M 751.285156 214.265625 " clip-rule="nonzero"/></clipPath><clipPath id="9519a73e4f"><path d="M 753.570312 221.566406 C 753.921875 221.6875 754.320312 221.765625 754.714844 221.765625 C 755.105469 221.765625 755.480469 221.699219 755.828125 221.578125 C 755.835938 221.574219 755.84375 221.574219 755.851562 221.570312 C 757.15625 221.09375 758.117188 219.832031 758.136719 218.378906 L 758.136719 214.265625 L 751.285156 214.265625 L 751.285156 218.375 C 751.304688 219.839844 752.25 221.101562 753.570312 221.566406 Z M 753.570312 221.566406 " clip-rule="nonzero"/></clipPath><clipPath id="349f883d93"><path d="M 862.414062 214.265625 L 869.261719 214.265625 L 869.261719 221.785156 L 862.414062 221.785156 Z M 862.414062 214.265625 " clip-rule="nonzero"/></clipPath><clipPath id="f01e4edf5b"><path d="M 864.699219 221.566406 C 865.050781 221.6875 865.449219 221.765625 865.839844 221.765625 C 866.230469 221.765625 866.609375 221.699219 866.957031 221.578125 C 866.964844 221.574219 866.972656 221.574219 866.980469 221.570312 C 868.285156 221.09375 869.246094 219.832031 869.261719 218.378906 L 869.261719 214.265625 L 862.414062 214.265625 L 862.414062 218.375 C 862.433594 219.839844 863.378906 221.101562 864.699219 221.566406 Z M 864.699219 221.566406 " clip-rule="nonzero"/></clipPath><clipPath id="8482ef174c"><path d="M 754.710938 214.265625 L 865.839844 214.265625 L 865.839844 221.765625 L 754.710938 221.765625 Z M 754.710938 214.265625 " clip-rule="nonzero"/></clipPath><clipPath id="21004a1e22"><path d="M 432.75 125.621094 L 527.25 125.621094 L 527.25 251.621094 L 432.75 251.621094 Z M 432.75 125.621094 " clip-rule="nonzero"/></clipPath><clipPath id="0768a95d11"><path d="M 447.75 125.621094 L 512.25 125.621094 C 520.535156 125.621094 527.25 132.335938 527.25 140.621094 L 527.25 236.621094 C 527.25 244.90625 520.535156 251.621094 512.25 251.621094 L 447.75 251.621094 C 439.464844 251.621094 432.75 244.90625 432.75 236.621094 L 432.75 140.621094 C 432.75 132.335938 439.464844 125.621094 447.75 125.621094 Z M 447.75 125.621094 " clip-rule="nonzero"/></clipPath></defs><rect x="-96" width="1152" fill="#ffffff" y="-31.499999" height="377.99999" fill-opacity="1"/><rect x="-96" width="1152" fill="#ffffff" y="-31.499999" height="377.99999" fill-opacity="1"/><g clip-path="url(#12dbd1881d)"><path stroke-linecap="butt" transform="matrix(0.75, 0, 0, 0.75, 0.0000121905, 0.00123285)" fill="none" stroke-linejoin="miter" d="M -0.000016254 -0.0016438 L 399.796886 -0.0016438 L 399.796886 419.998384 L -0.000016254 419.998384 Z M -0.000016254 -0.0016438 " stroke="#000000" stroke-width="2" stroke-opacity="1" stroke-miterlimit="4"/></g><g clip-path="url(#69598770d9)"><path stroke-linecap="butt" transform="matrix(0.75, 0, 0, 0.75, 330.07499, 0.00123285)" fill="none" stroke-linejoin="miter" d="M -0.00102841 -0.0016438 L 399.795873 -0.0016438 L 399.795873 419.998384 L -0.00102841 419.998384 Z M -0.00102841 -0.0016438 " stroke="#000000" stroke-width="2" stroke-opacity="1" stroke-miterlimit="4"/></g><g clip-path="url(#2ef060b409)"><path stroke-linecap="butt" transform="matrix(0.75, 0, 0, 0.75, 660.149968, 0.00123285)" fill="none" stroke-linejoin="miter" d="M -0.00204056 -0.0016438 L 399.794861 -0.0016438 L 399.794861 419.998384 L -0.00204056 419.998384 Z M -0.00204056 -0.0016438 " stroke="#000000" stroke-width="2" stroke-opacity="1" stroke-miterlimit="4"/></g><g clip-path="url(#6b8cf64268)"><path fill="#000000" d="M 117.21875 151.617188 L 122.894531 160.425781 C 113.960938 168.070312 108.289062 179.429688 108.289062 192.089844 C 108.289062 215.074219 126.964844 233.730469 149.988281 233.730469 C 173.007812 233.730469 191.6875 215.074219 191.6875 192.089844 C 191.6875 179.429688 186.015625 168.070312 177.078125 160.425781 L 182.757812 151.617188 C 194.566406 161.160156 202.113281 175.742188 202.113281 192.089844 C 202.113281 220.828125 178.769531 244.140625 149.988281 244.140625 C 121.210938 244.140625 97.863281 220.828125 97.863281 192.089844 C 97.863281 175.742188 105.410156 161.160156 117.21875 151.617188 Z M 144.777344 129.632812 L 155.199219 129.632812 L 155.199219 186.886719 L 144.777344 186.886719 Z M 144.777344 129.632812 " fill-opacity="1" fill-rule="nonzero"/></g><g fill="#000000" fill-opacity="1"><g transform="translate(64.511223, 74.417573)"><g><path d="M 9.078125 -17.296875 C 9.535156 -17.296875 9.914062 -17.191406 10.21875 -16.984375 C 10.53125 -16.785156 10.6875 -16.453125 10.6875 -15.984375 L 10.6875 -1.265625 C 10.6875 -0.804688 10.53125 -0.472656 10.21875 -0.265625 C 9.914062 -0.0546875 9.554688 0.046875 9.140625 0.046875 C 8.722656 0.046875 8.363281 -0.0546875 8.0625 -0.265625 C 7.757812 -0.472656 7.609375 -0.804688 7.609375 -1.265625 L 7.609375 -13.703125 L 4.515625 -11.921875 C 4.109375 -11.703125 3.726562 -11.660156 3.375 -11.796875 C 3.03125 -11.929688 2.757812 -12.175781 2.5625 -12.53125 C 2.382812 -12.851562 2.328125 -13.195312 2.390625 -13.5625 C 2.460938 -13.925781 2.679688 -14.210938 3.046875 -14.421875 L 7.109375 -16.6875 C 7.523438 -16.90625 7.882812 -17.0625 8.1875 -17.15625 C 8.488281 -17.25 8.785156 -17.296875 9.078125 -17.296875 Z M 9.078125 -17.296875 "/></g></g></g><g fill="#000000" fill-opacity="1"><g transform="translate(79.391253, 74.417573)"><g><path d="M 3.21875 -2.6875 C 3.757812 -2.6875 4.207031 -2.503906 4.5625 -2.140625 C 4.925781 -1.785156 5.109375 -1.335938 5.109375 -0.796875 C 5.109375 -0.242188 4.925781 0.207031 4.5625 0.5625 C 4.207031 0.925781 3.757812 1.109375 3.21875 1.109375 C 2.675781 1.109375 2.222656 0.925781 1.859375 0.5625 C 1.492188 0.207031 1.3125 -0.242188 1.3125 -0.796875 C 1.3125 -1.335938 1.492188 -1.785156 1.859375 -2.140625 C 2.222656 -2.503906 2.675781 -2.6875 3.21875 -2.6875 Z M 3.21875 -2.6875 "/></g></g></g><g fill="#000000" fill-opacity="1"><g transform="translate(85.823268, 74.417573)"><g/></g></g><g fill="#000000" fill-opacity="1"><g transform="translate(91.823279, 74.417573)"><g><path d="M 3.078125 -15.09375 C 2.703125 -15.09375 2.429688 -15.21875 2.265625 -15.46875 C 2.097656 -15.726562 2.015625 -16.019531 2.015625 -16.34375 C 2.015625 -16.675781 2.097656 -16.96875 2.265625 -17.21875 C 2.429688 -17.476562 2.703125 -17.609375 3.078125 -17.609375 L 10.078125 -17.609375 C 10.847656 -17.609375 11.378906 -17.460938 11.671875 -17.171875 C 11.972656 -16.890625 12.125 -16.375 12.125 -15.625 L 12.125 -13.15625 C 12.125 -12.625 12.085938 -12.144531 12.015625 -11.71875 C 11.953125 -11.300781 11.816406 -10.90625 11.609375 -10.53125 C 11.398438 -10.164062 11.109375 -9.804688 10.734375 -9.453125 C 10.359375 -9.097656 9.859375 -8.738281 9.234375 -8.375 C 8.609375 -8.007812 7.835938 -7.613281 6.921875 -7.1875 C 6.015625 -6.757812 4.929688 -6.285156 3.671875 -5.765625 C 3.304688 -5.597656 2.960938 -5.585938 2.640625 -5.734375 C 2.316406 -5.878906 2.078125 -6.117188 1.921875 -6.453125 C 1.859375 -6.597656 1.8125 -6.753906 1.78125 -6.921875 C 1.75 -7.085938 1.75 -7.253906 1.78125 -7.421875 C 1.8125 -7.597656 1.878906 -7.753906 1.984375 -7.890625 C 2.097656 -8.035156 2.257812 -8.148438 2.46875 -8.234375 C 3.539062 -8.660156 4.445312 -9.03125 5.1875 -9.34375 C 5.9375 -9.65625 6.554688 -9.925781 7.046875 -10.15625 C 7.546875 -10.394531 7.9375 -10.601562 8.21875 -10.78125 C 8.5 -10.957031 8.710938 -11.125 8.859375 -11.28125 L 2.59375 -10.828125 C 2.226562 -10.796875 1.953125 -10.898438 1.765625 -11.140625 C 1.578125 -11.390625 1.46875 -11.703125 1.4375 -12.078125 C 1.40625 -12.390625 1.46875 -12.675781 1.625 -12.9375 C 1.789062 -13.207031 2.054688 -13.351562 2.421875 -13.375 L 9.171875 -13.578125 L 9.171875 -14.546875 C 9.171875 -14.910156 8.984375 -15.09375 8.609375 -15.09375 Z M 16.25 -11.1875 L 10.9375 -11.1875 L 10.9375 -13.78125 L 16.25 -13.78125 L 16.25 -17.5 C 16.25 -17.945312 16.40625 -18.273438 16.71875 -18.484375 C 17.03125 -18.691406 17.382812 -18.796875 17.78125 -18.796875 C 18.164062 -18.796875 18.515625 -18.691406 18.828125 -18.484375 C 19.140625 -18.273438 19.296875 -17.945312 19.296875 -17.5 L 19.296875 -7.296875 C 19.296875 -6.847656 19.140625 -6.519531 18.828125 -6.3125 C 18.515625 -6.101562 18.164062 -6 17.78125 -6 C 17.382812 -6 17.03125 -6.101562 16.71875 -6.3125 C 16.40625 -6.519531 16.25 -6.847656 16.25 -7.296875 Z M 6.796875 3.453125 C 6.023438 3.453125 5.488281 3.304688 5.1875 3.015625 C 4.894531 2.734375 4.75 2.21875 4.75 1.46875 L 4.75 -3.125 C 4.75 -3.875 4.894531 -4.390625 5.1875 -4.671875 C 5.488281 -4.960938 6.023438 -5.109375 6.796875 -5.109375 L 17.25 -5.109375 C 18.019531 -5.109375 18.550781 -4.960938 18.84375 -4.671875 C 19.144531 -4.390625 19.296875 -3.875 19.296875 -3.125 L 19.296875 1.46875 C 19.296875 2.21875 19.144531 2.734375 18.84375 3.015625 C 18.550781 3.304688 18.019531 3.453125 17.25 3.453125 Z M 15.703125 0.90625 C 16.066406 0.90625 16.25 0.722656 16.25 0.359375 L 16.25 -2.015625 C 16.25 -2.378906 16.066406 -2.5625 15.703125 -2.5625 L 8.359375 -2.5625 C 7.984375 -2.5625 7.796875 -2.378906 7.796875 -2.015625 L 7.796875 0.359375 C 7.796875 0.722656 7.984375 0.90625 8.359375 0.90625 Z M 15.703125 0.90625 "/></g></g></g><g fill="#000000" fill-opacity="1"><g transform="translate(113.663319, 74.417573)"><g><path d="M 3.84375 -8.1875 C 3.488281 -8.1875 3.226562 -8.304688 3.0625 -8.546875 C 2.894531 -8.796875 2.8125 -9.097656 2.8125 -9.453125 C 2.8125 -9.804688 2.894531 -10.109375 3.0625 -10.359375 C 3.226562 -10.609375 3.488281 -10.734375 3.84375 -10.734375 L 5.90625 -10.734375 L 5.90625 -15.171875 L 3.9375 -15.171875 C 3.582031 -15.171875 3.320312 -15.289062 3.15625 -15.53125 C 2.988281 -15.78125 2.90625 -16.082031 2.90625 -16.4375 C 2.90625 -16.789062 2.988281 -17.09375 3.15625 -17.34375 C 3.320312 -17.59375 3.582031 -17.71875 3.9375 -17.71875 L 17.90625 -17.71875 C 18.257812 -17.71875 18.519531 -17.59375 18.6875 -17.34375 C 18.851562 -17.09375 18.9375 -16.789062 18.9375 -16.4375 C 18.9375 -16.082031 18.851562 -15.78125 18.6875 -15.53125 C 18.519531 -15.289062 18.257812 -15.171875 17.90625 -15.171875 L 15.9375 -15.171875 L 15.9375 -10.734375 L 18 -10.734375 C 18.351562 -10.734375 18.613281 -10.609375 18.78125 -10.359375 C 18.945312 -10.109375 19.03125 -9.804688 19.03125 -9.453125 C 19.03125 -9.097656 18.945312 -8.796875 18.78125 -8.546875 C 18.613281 -8.304688 18.351562 -8.1875 18 -8.1875 Z M 8.859375 -10.734375 L 12.984375 -10.734375 L 12.984375 -15.171875 L 8.859375 -15.171875 Z M 9.03125 -3.53125 L 9.03125 2.46875 C 9.03125 2.914062 8.875 3.238281 8.5625 3.4375 C 8.257812 3.644531 7.925781 3.75 7.5625 3.75 C 7.175781 3.75 6.832031 3.644531 6.53125 3.4375 C 6.226562 3.238281 6.078125 2.914062 6.078125 2.46875 L 6.078125 -3.53125 L 1.84375 -3.53125 C 1.476562 -3.53125 1.207031 -3.65625 1.03125 -3.90625 C 0.851562 -4.164062 0.765625 -4.460938 0.765625 -4.796875 C 0.765625 -5.148438 0.851562 -5.453125 1.03125 -5.703125 C 1.207031 -5.960938 1.476562 -6.09375 1.84375 -6.09375 L 19.984375 -6.09375 C 20.359375 -6.09375 20.632812 -5.960938 20.8125 -5.703125 C 20.988281 -5.453125 21.078125 -5.148438 21.078125 -4.796875 C 21.078125 -4.460938 20.988281 -4.164062 20.8125 -3.90625 C 20.632812 -3.65625 20.359375 -3.53125 19.984375 -3.53125 L 15.765625 -3.53125 L 15.765625 2.46875 C 15.765625 2.914062 15.613281 3.238281 15.3125 3.4375 C 15.007812 3.644531 14.671875 3.75 14.296875 3.75 C 13.921875 3.75 13.578125 3.644531 13.265625 3.4375 C 12.960938 3.238281 12.8125 2.914062 12.8125 2.46875 L 12.8125 -3.53125 Z M 9.03125 -3.53125 "/></g></g></g><g fill="#000000" fill-opacity="1"><g transform="translate(135.50336, 74.417573)"><g><path d="M 11.375 -17.296875 C 11.757812 -17.296875 12.039062 -17.164062 12.21875 -16.90625 C 12.394531 -16.65625 12.484375 -16.359375 12.484375 -16.015625 C 12.484375 -15.660156 12.394531 -15.351562 12.21875 -15.09375 C 12.039062 -14.84375 11.757812 -14.71875 11.375 -14.71875 L 5.453125 -14.71875 C 5.078125 -14.71875 4.890625 -14.53125 4.890625 -14.15625 L 4.890625 -11.515625 L 10.4375 -11.515625 C 10.800781 -11.515625 11.066406 -11.390625 11.234375 -11.140625 C 11.410156 -10.898438 11.5 -10.601562 11.5 -10.25 C 11.5 -9.894531 11.410156 -9.59375 11.234375 -9.34375 C 11.066406 -9.09375 10.800781 -8.96875 10.4375 -8.96875 L 4.890625 -8.96875 L 4.890625 -6.265625 C 4.890625 -5.898438 5.078125 -5.71875 5.453125 -5.71875 C 6.835938 -5.71875 8.148438 -5.75 9.390625 -5.8125 C 10.628906 -5.882812 11.835938 -6.003906 13.015625 -6.171875 C 13.378906 -6.210938 13.664062 -6.125 13.875 -5.90625 C 14.09375 -5.695312 14.21875 -5.410156 14.25 -5.046875 C 14.28125 -4.691406 14.234375 -4.375 14.109375 -4.09375 C 13.984375 -3.8125 13.742188 -3.644531 13.390625 -3.59375 C 12.890625 -3.53125 12.335938 -3.472656 11.734375 -3.421875 C 11.140625 -3.367188 10.457031 -3.316406 9.6875 -3.265625 C 8.925781 -3.210938 8.066406 -3.175781 7.109375 -3.15625 C 6.160156 -3.132812 5.09375 -3.125 3.90625 -3.125 C 3.144531 -3.125 2.613281 -3.265625 2.3125 -3.546875 C 2.019531 -3.835938 1.875 -4.359375 1.875 -5.109375 L 1.875 -15.3125 C 1.875 -16.0625 2.019531 -16.578125 2.3125 -16.859375 C 2.613281 -17.148438 3.144531 -17.296875 3.90625 -17.296875 Z M 16.25 -9.125 L 13.703125 -9.125 C 13.316406 -9.125 13.035156 -9.25 12.859375 -9.5 C 12.679688 -9.757812 12.59375 -10.070312 12.59375 -10.4375 C 12.59375 -10.800781 12.679688 -11.113281 12.859375 -11.375 C 13.035156 -11.632812 13.316406 -11.765625 13.703125 -11.765625 L 16.25 -11.765625 L 16.25 -17.5 C 16.25 -17.945312 16.40625 -18.273438 16.71875 -18.484375 C 17.03125 -18.691406 17.382812 -18.796875 17.78125 -18.796875 C 18.164062 -18.796875 18.515625 -18.691406 18.828125 -18.484375 C 19.140625 -18.273438 19.296875 -17.945312 19.296875 -17.5 L 19.296875 0.890625 C 19.296875 1.335938 19.140625 1.664062 18.828125 1.875 C 18.515625 2.082031 18.164062 2.1875 17.78125 2.1875 C 17.382812 2.1875 17.03125 2.082031 16.71875 1.875 C 16.40625 1.664062 16.25 1.335938 16.25 0.890625 Z M 16.25 -9.125 "/></g></g></g><g fill="#000000" fill-opacity="1"><g transform="translate(157.3434, 74.417573)"><g><path d="M 5.515625 -9.578125 C 4.753906 -9.578125 4.222656 -9.71875 3.921875 -10 C 3.628906 -10.289062 3.484375 -10.8125 3.484375 -11.5625 L 3.484375 -13.109375 C 3.484375 -13.859375 3.628906 -14.375 3.921875 -14.65625 C 4.222656 -14.945312 4.753906 -15.09375 5.515625 -15.09375 L 15 -15.09375 C 15.238281 -15.09375 15.359375 -15.210938 15.359375 -15.453125 L 15.359375 -15.71875 C 15.359375 -15.957031 15.238281 -16.078125 15 -16.078125 L 4.421875 -16.078125 C 4.078125 -16.078125 3.828125 -16.191406 3.671875 -16.421875 C 3.515625 -16.660156 3.4375 -16.929688 3.4375 -17.234375 C 3.4375 -17.535156 3.515625 -17.800781 3.671875 -18.03125 C 3.828125 -18.269531 4.078125 -18.390625 4.421875 -18.390625 L 16.265625 -18.390625 C 17.035156 -18.390625 17.566406 -18.242188 17.859375 -17.953125 C 18.160156 -17.660156 18.3125 -17.140625 18.3125 -16.390625 L 18.3125 -14.875 C 18.3125 -14.125 18.160156 -13.601562 17.859375 -13.3125 C 17.566406 -13.03125 17.035156 -12.890625 16.265625 -12.890625 L 6.796875 -12.890625 C 6.554688 -12.890625 6.4375 -12.769531 6.4375 -12.53125 L 6.4375 -12.234375 C 6.4375 -11.992188 6.554688 -11.875 6.796875 -11.875 L 17.8125 -11.875 C 18.144531 -11.875 18.390625 -11.757812 18.546875 -11.53125 C 18.710938 -11.300781 18.796875 -11.035156 18.796875 -10.734375 C 18.796875 -10.421875 18.710938 -10.148438 18.546875 -9.921875 C 18.390625 -9.691406 18.144531 -9.578125 17.8125 -9.578125 Z M 1.796875 -6.140625 C 1.441406 -6.140625 1.179688 -6.253906 1.015625 -6.484375 C 0.847656 -6.722656 0.765625 -7.007812 0.765625 -7.34375 C 0.765625 -7.675781 0.847656 -7.957031 1.015625 -8.1875 C 1.179688 -8.425781 1.441406 -8.546875 1.796875 -8.546875 L 20.046875 -8.546875 C 20.390625 -8.546875 20.644531 -8.425781 20.8125 -8.1875 C 20.988281 -7.957031 21.078125 -7.675781 21.078125 -7.34375 C 21.078125 -7.007812 20.988281 -6.722656 20.8125 -6.484375 C 20.644531 -6.253906 20.390625 -6.140625 20.046875 -6.140625 Z M 5.375 3.703125 C 4.601562 3.703125 4.070312 3.554688 3.78125 3.265625 C 3.488281 2.972656 3.34375 2.453125 3.34375 1.703125 L 3.34375 0.171875 C 3.34375 -0.578125 3.488281 -1.097656 3.78125 -1.390625 C 4.070312 -1.679688 4.601562 -1.828125 5.375 -1.828125 L 15.140625 -1.828125 C 15.378906 -1.828125 15.5 -1.945312 15.5 -2.1875 L 15.5 -2.453125 C 15.5 -2.691406 15.378906 -2.8125 15.140625 -2.8125 L 4.265625 -2.8125 C 3.929688 -2.8125 3.679688 -2.925781 3.515625 -3.15625 C 3.359375 -3.382812 3.28125 -3.648438 3.28125 -3.953125 C 3.28125 -4.265625 3.359375 -4.535156 3.515625 -4.765625 C 3.679688 -4.992188 3.929688 -5.109375 4.265625 -5.109375 L 16.421875 -5.109375 C 17.179688 -5.109375 17.707031 -4.960938 18 -4.671875 C 18.300781 -4.390625 18.453125 -3.875 18.453125 -3.125 L 18.453125 -1.609375 C 18.453125 -0.859375 18.300781 -0.335938 18 -0.046875 C 17.707031 0.242188 17.179688 0.390625 16.421875 0.390625 L 6.640625 0.390625 C 6.398438 0.390625 6.28125 0.507812 6.28125 0.75 L 6.28125 1.03125 C 6.28125 1.269531 6.398438 1.390625 6.640625 1.390625 L 17.953125 1.390625 C 18.285156 1.390625 18.53125 1.503906 18.6875 1.734375 C 18.851562 1.972656 18.9375 2.242188 18.9375 2.546875 C 18.9375 2.847656 18.851562 3.113281 18.6875 3.34375 C 18.53125 3.582031 18.285156 3.703125 17.953125 3.703125 Z M 5.375 3.703125 "/></g></g></g><g fill="#000000" fill-opacity="1"><g transform="translate(179.183441, 74.417573)"><g/></g></g><g fill="#000000" fill-opacity="1"><g transform="translate(185.183452, 74.417573)"><g><path d="M 3.09375 -14.828125 C 2.726562 -14.828125 2.457031 -14.953125 2.28125 -15.203125 C 2.101562 -15.460938 2.015625 -15.769531 2.015625 -16.125 C 2.015625 -16.476562 2.101562 -16.78125 2.28125 -17.03125 C 2.457031 -17.289062 2.726562 -17.421875 3.09375 -17.421875 L 9.9375 -17.421875 C 10.707031 -17.421875 11.238281 -17.273438 11.53125 -16.984375 C 11.820312 -16.703125 11.96875 -16.1875 11.96875 -15.4375 L 11.96875 -12.671875 C 11.96875 -12.078125 11.929688 -11.546875 11.859375 -11.078125 C 11.796875 -10.617188 11.65625 -10.1875 11.4375 -9.78125 C 11.21875 -9.382812 10.914062 -9.003906 10.53125 -8.640625 C 10.144531 -8.273438 9.644531 -7.898438 9.03125 -7.515625 C 8.414062 -7.128906 7.671875 -6.71875 6.796875 -6.28125 C 5.929688 -5.851562 4.898438 -5.375 3.703125 -4.84375 C 3.316406 -4.664062 2.96875 -4.660156 2.65625 -4.828125 C 2.34375 -5.003906 2.097656 -5.25 1.921875 -5.5625 C 1.835938 -5.707031 1.785156 -5.867188 1.765625 -6.046875 C 1.742188 -6.222656 1.75 -6.394531 1.78125 -6.5625 C 1.8125 -6.726562 1.878906 -6.882812 1.984375 -7.03125 C 2.097656 -7.1875 2.253906 -7.304688 2.453125 -7.390625 C 3.503906 -7.859375 4.398438 -8.253906 5.140625 -8.578125 C 5.890625 -8.910156 6.507812 -9.203125 7 -9.453125 C 7.488281 -9.710938 7.867188 -9.9375 8.140625 -10.125 C 8.410156 -10.320312 8.609375 -10.515625 8.734375 -10.703125 L 2.59375 -10.25 C 2.226562 -10.21875 1.953125 -10.328125 1.765625 -10.578125 C 1.578125 -10.835938 1.46875 -11.148438 1.4375 -11.515625 C 1.40625 -11.835938 1.46875 -12.140625 1.625 -12.421875 C 1.789062 -12.703125 2.054688 -12.847656 2.421875 -12.859375 L 9.03125 -13.078125 L 9.03125 -14.28125 C 9.03125 -14.644531 8.84375 -14.828125 8.46875 -14.828125 Z M 19.296875 -3.71875 C 19.296875 -3.269531 19.140625 -2.941406 18.828125 -2.734375 C 18.515625 -2.523438 18.164062 -2.421875 17.78125 -2.421875 C 17.394531 -2.421875 17.046875 -2.523438 16.734375 -2.734375 C 16.421875 -2.941406 16.265625 -3.269531 16.265625 -3.71875 L 16.265625 -7.796875 L 13.734375 -7.796875 C 13.359375 -7.796875 13.085938 -7.921875 12.921875 -8.171875 C 12.753906 -8.429688 12.671875 -8.75 12.671875 -9.125 C 12.671875 -9.46875 12.753906 -9.769531 12.921875 -10.03125 C 13.085938 -10.289062 13.359375 -10.421875 13.734375 -10.421875 L 16.265625 -10.421875 L 16.265625 -12.796875 L 13.921875 -12.796875 C 13.554688 -12.796875 13.285156 -12.921875 13.109375 -13.171875 C 12.941406 -13.429688 12.859375 -13.742188 12.859375 -14.109375 C 12.859375 -14.460938 12.941406 -14.765625 13.109375 -15.015625 C 13.285156 -15.273438 13.554688 -15.40625 13.921875 -15.40625 L 16.265625 -15.40625 L 16.265625 -17.5 C 16.265625 -17.945312 16.421875 -18.273438 16.734375 -18.484375 C 17.046875 -18.691406 17.394531 -18.796875 17.78125 -18.796875 C 18.164062 -18.796875 18.515625 -18.691406 18.828125 -18.484375 C 19.140625 -18.273438 19.296875 -17.945312 19.296875 -17.5 Z M 6.796875 3.28125 C 6.023438 3.28125 5.488281 3.132812 5.1875 2.84375 C 4.894531 2.5625 4.75 2.046875 4.75 1.296875 L 4.75 -3.09375 C 4.75 -3.539062 4.90625 -3.867188 5.21875 -4.078125 C 5.53125 -4.285156 5.894531 -4.390625 6.3125 -4.390625 C 6.707031 -4.390625 7.0625 -4.285156 7.375 -4.078125 C 7.6875 -3.867188 7.84375 -3.539062 7.84375 -3.09375 L 7.84375 0.125 C 7.84375 0.488281 8.03125 0.671875 8.40625 0.671875 L 18.75 0.671875 C 19.113281 0.671875 19.382812 0.796875 19.5625 1.046875 C 19.738281 1.304688 19.828125 1.617188 19.828125 1.984375 C 19.828125 2.335938 19.738281 2.640625 19.5625 2.890625 C 19.382812 3.148438 19.113281 3.28125 18.75 3.28125 Z M 6.796875 3.28125 "/></g></g></g><g fill="#000000" fill-opacity="1"><g transform="translate(207.023492, 74.417573)"><g><path d="M 5.15625 -14.5625 C 4.789062 -14.5625 4.609375 -14.378906 4.609375 -14.015625 L 4.609375 -6.484375 C 4.609375 -6.109375 4.789062 -5.921875 5.15625 -5.921875 C 6.519531 -5.921875 7.820312 -5.957031 9.0625 -6.03125 C 10.300781 -6.101562 11.503906 -6.222656 12.671875 -6.390625 C 13.035156 -6.429688 13.328125 -6.335938 13.546875 -6.109375 C 13.765625 -5.890625 13.890625 -5.601562 13.921875 -5.25 C 13.953125 -4.882812 13.898438 -4.5625 13.765625 -4.28125 C 13.640625 -4 13.40625 -3.835938 13.0625 -3.796875 C 12.5625 -3.734375 12.007812 -3.671875 11.40625 -3.609375 C 10.8125 -3.554688 10.128906 -3.503906 9.359375 -3.453125 C 8.585938 -3.410156 7.726562 -3.375 6.78125 -3.34375 C 5.832031 -3.320312 4.765625 -3.3125 3.578125 -3.3125 C 2.804688 -3.3125 2.269531 -3.453125 1.96875 -3.734375 C 1.675781 -4.023438 1.53125 -4.546875 1.53125 -5.296875 L 1.53125 -15.1875 C 1.53125 -15.9375 1.675781 -16.457031 1.96875 -16.75 C 2.269531 -17.039062 2.804688 -17.1875 3.578125 -17.1875 L 11.15625 -17.1875 C 11.53125 -17.1875 11.800781 -17.054688 11.96875 -16.796875 C 12.144531 -16.546875 12.234375 -16.234375 12.234375 -15.859375 C 12.234375 -15.515625 12.144531 -15.210938 11.96875 -14.953125 C 11.800781 -14.691406 11.53125 -14.5625 11.15625 -14.5625 Z M 20.375 -11.71875 C 20.757812 -11.71875 21.039062 -11.585938 21.21875 -11.328125 C 21.394531 -11.066406 21.484375 -10.753906 21.484375 -10.390625 C 21.484375 -10.023438 21.394531 -9.707031 21.21875 -9.4375 C 21.039062 -9.175781 20.757812 -9.046875 20.375 -9.046875 L 18.125 -9.046875 L 18.125 0.890625 C 18.125 1.335938 17.96875 1.664062 17.65625 1.875 C 17.34375 2.082031 16.984375 2.1875 16.578125 2.1875 C 16.179688 2.1875 15.828125 2.082031 15.515625 1.875 C 15.203125 1.664062 15.046875 1.335938 15.046875 0.890625 L 15.046875 -17.5 C 15.046875 -17.945312 15.203125 -18.273438 15.515625 -18.484375 C 15.828125 -18.691406 16.179688 -18.796875 16.578125 -18.796875 C 16.984375 -18.796875 17.34375 -18.691406 17.65625 -18.484375 C 17.96875 -18.273438 18.125 -17.945312 18.125 -17.5 L 18.125 -11.71875 Z M 20.375 -11.71875 "/></g></g></g><g fill="#000000" fill-opacity="1"><g transform="translate(228.863533, 74.417573)"><g><path d="M 3.21875 -2.6875 C 3.757812 -2.6875 4.207031 -2.503906 4.5625 -2.140625 C 4.925781 -1.785156 5.109375 -1.335938 5.109375 -0.796875 C 5.109375 -0.242188 4.925781 0.207031 4.5625 0.5625 C 4.207031 0.925781 3.757812 1.109375 3.21875 1.109375 C 2.675781 1.109375 2.222656 0.925781 1.859375 0.5625 C 1.492188 0.207031 1.3125 -0.242188 1.3125 -0.796875 C 1.3125 -1.335938 1.492188 -1.785156 1.859375 -2.140625 C 2.222656 -2.503906 2.675781 -2.6875 3.21875 -2.6875 Z M 3.21875 -2.6875 "/></g></g></g><g fill="#000000" fill-opacity="1"><g transform="translate(405.516959, 74.417573)"><g><path d="M 7.203125 -17.421875 C 8.171875 -17.421875 9.007812 -17.300781 9.71875 -17.0625 C 10.4375 -16.820312 11.023438 -16.5 11.484375 -16.09375 C 11.941406 -15.695312 12.273438 -15.226562 12.484375 -14.6875 C 12.703125 -14.15625 12.8125 -13.601562 12.8125 -13.03125 L 12.8125 -12.765625 C 12.8125 -11.859375 12.597656 -10.984375 12.171875 -10.140625 C 11.753906 -9.296875 11.132812 -8.46875 10.3125 -7.65625 L 5.25 -2.640625 L 12.53125 -2.640625 C 12.894531 -2.640625 13.164062 -2.515625 13.34375 -2.265625 C 13.519531 -2.015625 13.609375 -1.71875 13.609375 -1.375 C 13.609375 -1.019531 13.519531 -0.71875 13.34375 -0.46875 C 13.164062 -0.21875 12.894531 -0.09375 12.53125 -0.09375 L 3.390625 -0.09375 C 2.617188 -0.09375 2.0625 -0.226562 1.71875 -0.5 C 1.382812 -0.769531 1.21875 -1.1875 1.21875 -1.75 C 1.21875 -2.007812 1.285156 -2.25 1.421875 -2.46875 C 1.554688 -2.695312 1.753906 -2.945312 2.015625 -3.21875 L 7.578125 -8.828125 C 8.023438 -9.273438 8.382812 -9.671875 8.65625 -10.015625 C 8.9375 -10.359375 9.15625 -10.679688 9.3125 -10.984375 C 9.46875 -11.296875 9.570312 -11.585938 9.625 -11.859375 C 9.6875 -12.140625 9.71875 -12.4375 9.71875 -12.75 L 9.71875 -12.859375 C 9.71875 -13.390625 9.515625 -13.828125 9.109375 -14.171875 C 8.703125 -14.515625 8.082031 -14.6875 7.25 -14.6875 C 6.53125 -14.6875 5.929688 -14.550781 5.453125 -14.28125 C 4.972656 -14.007812 4.523438 -13.601562 4.109375 -13.0625 C 3.878906 -12.75 3.597656 -12.566406 3.265625 -12.515625 C 2.929688 -12.472656 2.601562 -12.566406 2.28125 -12.796875 C 1.957031 -13.015625 1.75 -13.289062 1.65625 -13.625 C 1.5625 -13.96875 1.632812 -14.320312 1.875 -14.6875 C 2.394531 -15.46875 3.09375 -16.117188 3.96875 -16.640625 C 4.851562 -17.160156 5.929688 -17.421875 7.203125 -17.421875 Z M 7.203125 -17.421875 "/></g></g></g><g fill="#000000" fill-opacity="1"><g transform="translate(420.396989, 74.417573)"><g><path d="M 3.21875 -2.6875 C 3.757812 -2.6875 4.207031 -2.503906 4.5625 -2.140625 C 4.925781 -1.785156 5.109375 -1.335938 5.109375 -0.796875 C 5.109375 -0.242188 4.925781 0.207031 4.5625 0.5625 C 4.207031 0.925781 3.757812 1.109375 3.21875 1.109375 C 2.675781 1.109375 2.222656 0.925781 1.859375 0.5625 C 1.492188 0.207031 1.3125 -0.242188 1.3125 -0.796875 C 1.3125 -1.335938 1.492188 -1.785156 1.859375 -2.140625 C 2.222656 -2.503906 2.675781 -2.6875 3.21875 -2.6875 Z M 3.21875 -2.6875 "/></g></g></g><g fill="#000000" fill-opacity="1"><g transform="translate(426.829003, 74.417573)"><g/></g></g><g fill="#000000" fill-opacity="1"><g transform="translate(432.829014, 74.417573)"><g><path d="M 1.875 -3.21875 C 1.5 -3.21875 1.222656 -3.34375 1.046875 -3.59375 C 0.878906 -3.851562 0.796875 -4.148438 0.796875 -4.484375 C 0.796875 -4.816406 0.878906 -5.113281 1.046875 -5.375 C 1.222656 -5.632812 1.5 -5.765625 1.875 -5.765625 L 3.140625 -5.765625 L 3.140625 -14.546875 L 2.015625 -14.546875 C 1.648438 -14.546875 1.378906 -14.671875 1.203125 -14.921875 C 1.023438 -15.179688 0.9375 -15.476562 0.9375 -15.8125 C 0.9375 -16.144531 1.023438 -16.441406 1.203125 -16.703125 C 1.378906 -16.960938 1.648438 -17.09375 2.015625 -17.09375 L 12.484375 -17.09375 C 12.847656 -17.09375 13.117188 -16.960938 13.296875 -16.703125 C 13.472656 -16.441406 13.5625 -16.144531 13.5625 -15.8125 C 13.5625 -15.476562 13.472656 -15.179688 13.296875 -14.921875 C 13.117188 -14.671875 12.847656 -14.546875 12.484375 -14.546875 L 11.515625 -14.546875 L 11.515625 -6.078125 C 11.710938 -6.085938 11.90625 -6.101562 12.09375 -6.125 C 12.289062 -6.15625 12.484375 -6.1875 12.671875 -6.21875 C 13.035156 -6.257812 13.328125 -6.171875 13.546875 -5.953125 C 13.765625 -5.742188 13.890625 -5.472656 13.921875 -5.140625 C 13.953125 -4.785156 13.898438 -4.46875 13.765625 -4.1875 C 13.640625 -3.90625 13.40625 -3.742188 13.0625 -3.703125 C 12.332031 -3.597656 11.582031 -3.515625 10.8125 -3.453125 C 10.050781 -3.390625 9.222656 -3.34375 8.328125 -3.3125 C 7.429688 -3.28125 6.453125 -3.253906 5.390625 -3.234375 C 4.335938 -3.222656 3.164062 -3.21875 1.875 -3.21875 Z M 6.078125 -5.78125 C 6.941406 -5.78125 7.78125 -5.804688 8.59375 -5.859375 L 8.59375 -14.546875 L 6.078125 -14.546875 Z M 20.375 -11.71875 C 20.757812 -11.71875 21.039062 -11.585938 21.21875 -11.328125 C 21.394531 -11.066406 21.484375 -10.753906 21.484375 -10.390625 C 21.484375 -10.023438 21.394531 -9.707031 21.21875 -9.4375 C 21.039062 -9.175781 20.757812 -9.046875 20.375 -9.046875 L 18.125 -9.046875 L 18.125 0.890625 C 18.125 1.335938 17.96875 1.664062 17.65625 1.875 C 17.34375 2.082031 16.984375 2.1875 16.578125 2.1875 C 16.179688 2.1875 15.828125 2.082031 15.515625 1.875 C 15.203125 1.664062 15.046875 1.335938 15.046875 0.890625 L 15.046875 -17.5 C 15.046875 -17.945312 15.203125 -18.273438 15.515625 -18.484375 C 15.828125 -18.691406 16.179688 -18.796875 16.578125 -18.796875 C 16.984375 -18.796875 17.34375 -18.691406 17.65625 -18.484375 C 17.96875 -18.273438 18.125 -17.945312 18.125 -17.5 L 18.125 -11.71875 Z M 20.375 -11.71875 "/></g></g></g><g fill="#000000" fill-opacity="1"><g transform="translate(454.669055, 74.417573)"><g><path d="M 1.484375 -13.078125 C 1.484375 -13.816406 1.609375 -14.5 1.859375 -15.125 C 2.109375 -15.75 2.476562 -16.285156 2.96875 -16.734375 C 3.457031 -17.179688 4.054688 -17.523438 4.765625 -17.765625 C 5.472656 -18.015625 6.300781 -18.140625 7.25 -18.140625 C 8.175781 -18.140625 9 -18.015625 9.71875 -17.765625 C 10.4375 -17.523438 11.039062 -17.179688 11.53125 -16.734375 C 12.019531 -16.285156 12.390625 -15.75 12.640625 -15.125 C 12.890625 -14.5 13.015625 -13.816406 13.015625 -13.078125 C 13.015625 -12.335938 12.890625 -11.65625 12.640625 -11.03125 C 12.390625 -10.414062 12.019531 -9.882812 11.53125 -9.4375 C 11.039062 -8.988281 10.4375 -8.640625 9.71875 -8.390625 C 9 -8.140625 8.175781 -8.015625 7.25 -8.015625 C 6.300781 -8.015625 5.472656 -8.140625 4.765625 -8.390625 C 4.054688 -8.640625 3.457031 -8.988281 2.96875 -9.4375 C 2.476562 -9.882812 2.109375 -10.414062 1.859375 -11.03125 C 1.609375 -11.65625 1.484375 -12.335938 1.484375 -13.078125 Z M 10.078125 -13.078125 C 10.078125 -13.429688 10.023438 -13.765625 9.921875 -14.078125 C 9.816406 -14.390625 9.648438 -14.664062 9.421875 -14.90625 C 9.191406 -15.144531 8.894531 -15.332031 8.53125 -15.46875 C 8.164062 -15.601562 7.738281 -15.671875 7.25 -15.671875 C 6.738281 -15.671875 6.304688 -15.601562 5.953125 -15.46875 C 5.597656 -15.332031 5.304688 -15.144531 5.078125 -14.90625 C 4.847656 -14.664062 4.679688 -14.390625 4.578125 -14.078125 C 4.472656 -13.765625 4.421875 -13.429688 4.421875 -13.078125 C 4.421875 -12.722656 4.472656 -12.390625 4.578125 -12.078125 C 4.679688 -11.765625 4.847656 -11.488281 5.078125 -11.25 C 5.304688 -11.007812 5.597656 -10.820312 5.953125 -10.6875 C 6.304688 -10.550781 6.738281 -10.484375 7.25 -10.484375 C 7.738281 -10.484375 8.164062 -10.550781 8.53125 -10.6875 C 8.894531 -10.820312 9.191406 -11.007812 9.421875 -11.25 C 9.648438 -11.488281 9.816406 -11.765625 9.921875 -12.078125 C 10.023438 -12.390625 10.078125 -12.722656 10.078125 -13.078125 Z M 19.15625 -8.640625 C 19.15625 -8.191406 19 -7.863281 18.6875 -7.65625 C 18.375 -7.445312 18.015625 -7.34375 17.609375 -7.34375 C 17.210938 -7.34375 16.859375 -7.445312 16.546875 -7.65625 C 16.234375 -7.863281 16.078125 -8.191406 16.078125 -8.640625 L 16.078125 -17.5 C 16.078125 -17.945312 16.234375 -18.273438 16.546875 -18.484375 C 16.859375 -18.691406 17.210938 -18.796875 17.609375 -18.796875 C 18.015625 -18.796875 18.375 -18.691406 18.6875 -18.484375 C 19 -18.273438 19.15625 -17.945312 19.15625 -17.5 Z M 15.59375 -2.59375 C 15.96875 -2.59375 16.15625 -2.773438 16.15625 -3.140625 L 16.15625 -3.484375 C 16.15625 -3.847656 15.96875 -4.03125 15.59375 -4.03125 L 5.71875 -4.03125 C 5.363281 -4.03125 5.101562 -4.15625 4.9375 -4.40625 C 4.78125 -4.65625 4.703125 -4.9375 4.703125 -5.25 C 4.703125 -5.570312 4.78125 -5.851562 4.9375 -6.09375 C 5.101562 -6.332031 5.363281 -6.453125 5.71875 -6.453125 L 17.109375 -6.453125 C 17.878906 -6.453125 18.410156 -6.304688 18.703125 -6.015625 C 19.003906 -5.734375 19.15625 -5.21875 19.15625 -4.46875 L 19.15625 -2.25 C 19.15625 -1.5 19.003906 -0.976562 18.703125 -0.6875 C 18.410156 -0.40625 17.878906 -0.265625 17.109375 -0.265625 L 8.296875 -0.265625 C 7.929688 -0.265625 7.75 -0.0820312 7.75 0.28125 L 7.75 0.625 C 7.75 0.988281 7.929688 1.171875 8.296875 1.171875 L 18.625 1.171875 C 18.976562 1.171875 19.234375 1.296875 19.390625 1.546875 C 19.546875 1.796875 19.625 2.082031 19.625 2.40625 C 19.625 2.71875 19.546875 2.992188 19.390625 3.234375 C 19.234375 3.472656 18.976562 3.59375 18.625 3.59375 L 6.796875 3.59375 C 6.023438 3.59375 5.488281 3.445312 5.1875 3.15625 C 4.894531 2.875 4.75 2.359375 4.75 1.609375 L 4.75 -0.59375 C 4.75 -1.351562 4.894531 -1.875 5.1875 -2.15625 C 5.488281 -2.445312 6.023438 -2.59375 6.796875 -2.59375 Z M 15.59375 -2.59375 "/></g></g></g><g fill="#000000" fill-opacity="1"><g transform="translate(476.509095, 74.417573)"><g><path d="M 3.40625 -14.59375 C 3.40625 -15.289062 3.578125 -15.890625 3.921875 -16.390625 C 4.265625 -16.898438 4.757812 -17.316406 5.40625 -17.640625 C 6.0625 -17.960938 6.851562 -18.195312 7.78125 -18.34375 C 8.707031 -18.5 9.753906 -18.578125 10.921875 -18.578125 C 12.085938 -18.578125 13.132812 -18.5 14.0625 -18.34375 C 14.988281 -18.195312 15.773438 -17.960938 16.421875 -17.640625 C 17.078125 -17.316406 17.578125 -16.898438 17.921875 -16.390625 C 18.265625 -15.890625 18.4375 -15.289062 18.4375 -14.59375 C 18.4375 -13.882812 18.265625 -13.28125 17.921875 -12.78125 C 17.578125 -12.28125 17.078125 -11.867188 16.421875 -11.546875 C 15.773438 -11.222656 14.988281 -10.984375 14.0625 -10.828125 C 13.132812 -10.679688 12.085938 -10.609375 10.921875 -10.609375 C 9.753906 -10.609375 8.707031 -10.679688 7.78125 -10.828125 C 6.851562 -10.984375 6.0625 -11.222656 5.40625 -11.546875 C 4.757812 -11.867188 4.265625 -12.28125 3.921875 -12.78125 C 3.578125 -13.28125 3.40625 -13.882812 3.40625 -14.59375 Z M 15.390625 -14.59375 C 15.390625 -15.09375 15.039062 -15.476562 14.34375 -15.75 C 13.65625 -16.03125 12.515625 -16.171875 10.921875 -16.171875 C 9.316406 -16.171875 8.171875 -16.03125 7.484375 -15.75 C 6.796875 -15.476562 6.453125 -15.09375 6.453125 -14.59375 C 6.453125 -14.09375 6.796875 -13.703125 7.484375 -13.421875 C 8.171875 -13.148438 9.316406 -13.015625 10.921875 -13.015625 C 12.515625 -13.015625 13.65625 -13.148438 14.34375 -13.421875 C 15.039062 -13.703125 15.390625 -14.09375 15.390625 -14.59375 Z M 1.828125 -6.984375 C 1.453125 -6.984375 1.179688 -7.101562 1.015625 -7.34375 C 0.847656 -7.582031 0.765625 -7.882812 0.765625 -8.25 C 0.765625 -8.59375 0.847656 -8.882812 1.015625 -9.125 C 1.179688 -9.363281 1.453125 -9.484375 1.828125 -9.484375 L 20.015625 -9.484375 C 20.378906 -9.484375 20.644531 -9.363281 20.8125 -9.125 C 20.988281 -8.882812 21.078125 -8.59375 21.078125 -8.25 C 21.078125 -7.882812 20.988281 -7.582031 20.8125 -7.34375 C 20.644531 -7.101562 20.378906 -6.984375 20.015625 -6.984375 Z M 16.421875 -5.546875 C 17.179688 -5.546875 17.707031 -5.398438 18 -5.109375 C 18.300781 -4.828125 18.453125 -4.304688 18.453125 -3.546875 L 18.453125 -1.796875 C 18.453125 -1.046875 18.300781 -0.523438 18 -0.234375 C 17.707031 0.046875 17.179688 0.1875 16.421875 0.1875 L 6.671875 0.1875 C 6.429688 0.1875 6.3125 0.304688 6.3125 0.546875 L 6.3125 0.984375 C 6.3125 1.222656 6.429688 1.34375 6.671875 1.34375 L 17.953125 1.34375 C 18.285156 1.34375 18.53125 1.460938 18.6875 1.703125 C 18.851562 1.941406 18.9375 2.210938 18.9375 2.515625 C 18.9375 2.835938 18.851562 3.113281 18.6875 3.34375 C 18.53125 3.582031 18.285156 3.703125 17.953125 3.703125 L 5.375 3.703125 C 4.601562 3.703125 4.070312 3.554688 3.78125 3.265625 C 3.488281 2.972656 3.34375 2.453125 3.34375 1.703125 L 3.34375 -0.078125 C 3.34375 -0.828125 3.488281 -1.34375 3.78125 -1.625 C 4.070312 -1.914062 4.601562 -2.0625 5.375 -2.0625 L 15.125 -2.0625 C 15.363281 -2.0625 15.484375 -2.179688 15.484375 -2.421875 L 15.484375 -2.828125 C 15.484375 -3.066406 15.363281 -3.1875 15.125 -3.1875 L 4.265625 -3.1875 C 3.929688 -3.1875 3.679688 -3.300781 3.515625 -3.53125 C 3.359375 -3.769531 3.28125 -4.050781 3.28125 -4.375 C 3.28125 -4.675781 3.359375 -4.945312 3.515625 -5.1875 C 3.679688 -5.425781 3.929688 -5.546875 4.265625 -5.546875 Z M 16.421875 -5.546875 "/></g></g></g><g fill="#000000" fill-opacity="1"><g transform="translate(498.349136, 74.417573)"><g/></g></g><g fill="#000000" fill-opacity="1"><g transform="translate(504.349147, 74.417573)"><g><path d="M 1.34375 -12 C 1.34375 -12.8125 1.460938 -13.570312 1.703125 -14.28125 C 1.941406 -14.988281 2.289062 -15.59375 2.75 -16.09375 C 3.21875 -16.59375 3.800781 -16.988281 4.5 -17.28125 C 5.207031 -17.570312 6.023438 -17.71875 6.953125 -17.71875 C 7.890625 -17.71875 8.707031 -17.570312 9.40625 -17.28125 C 10.113281 -16.988281 10.695312 -16.59375 11.15625 -16.09375 C 11.625 -15.59375 11.976562 -14.988281 12.21875 -14.28125 C 12.457031 -13.570312 12.578125 -12.8125 12.578125 -12 C 12.578125 -11.1875 12.457031 -10.425781 12.21875 -9.71875 C 11.976562 -9.007812 11.625 -8.40625 11.15625 -7.90625 C 10.695312 -7.40625 10.113281 -7.007812 9.40625 -6.71875 C 8.707031 -6.425781 7.890625 -6.28125 6.953125 -6.28125 C 6.023438 -6.28125 5.207031 -6.425781 4.5 -6.71875 C 3.800781 -7.007812 3.21875 -7.40625 2.75 -7.90625 C 2.289062 -8.40625 1.941406 -9.007812 1.703125 -9.71875 C 1.460938 -10.425781 1.34375 -11.1875 1.34375 -12 Z M 9.640625 -12 C 9.640625 -12.425781 9.59375 -12.832031 9.5 -13.21875 C 9.40625 -13.601562 9.25 -13.9375 9.03125 -14.21875 C 8.820312 -14.5 8.546875 -14.722656 8.203125 -14.890625 C 7.867188 -15.054688 7.453125 -15.140625 6.953125 -15.140625 C 6.460938 -15.140625 6.046875 -15.054688 5.703125 -14.890625 C 5.367188 -14.722656 5.09375 -14.5 4.875 -14.21875 C 4.664062 -13.9375 4.507812 -13.601562 4.40625 -13.21875 C 4.3125 -12.832031 4.265625 -12.425781 4.265625 -12 C 4.265625 -11.570312 4.3125 -11.164062 4.40625 -10.78125 C 4.507812 -10.394531 4.664062 -10.0625 4.875 -9.78125 C 5.09375 -9.5 5.367188 -9.273438 5.703125 -9.109375 C 6.046875 -8.941406 6.460938 -8.859375 6.953125 -8.859375 C 7.453125 -8.859375 7.867188 -8.941406 8.203125 -9.109375 C 8.546875 -9.273438 8.820312 -9.5 9.03125 -9.78125 C 9.25 -10.0625 9.40625 -10.394531 9.5 -10.78125 C 9.59375 -11.164062 9.640625 -11.570312 9.640625 -12 Z M 19.296875 -3.71875 C 19.296875 -3.269531 19.140625 -2.941406 18.828125 -2.734375 C 18.515625 -2.523438 18.164062 -2.421875 17.78125 -2.421875 C 17.394531 -2.421875 17.046875 -2.523438 16.734375 -2.734375 C 16.421875 -2.941406 16.265625 -3.269531 16.265625 -3.71875 L 16.265625 -8.234375 L 14.15625 -8.234375 C 13.789062 -8.234375 13.523438 -8.359375 13.359375 -8.609375 C 13.191406 -8.867188 13.109375 -9.179688 13.109375 -9.546875 C 13.109375 -9.898438 13.191406 -10.203125 13.359375 -10.453125 C 13.523438 -10.710938 13.789062 -10.84375 14.15625 -10.84375 L 16.265625 -10.84375 L 16.265625 -13.03125 L 14.15625 -13.03125 C 13.789062 -13.03125 13.523438 -13.15625 13.359375 -13.40625 C 13.191406 -13.664062 13.109375 -13.984375 13.109375 -14.359375 C 13.109375 -14.703125 13.191406 -15 13.359375 -15.25 C 13.523438 -15.507812 13.789062 -15.640625 14.15625 -15.640625 L 16.265625 -15.640625 L 16.265625 -17.5 C 16.265625 -17.945312 16.421875 -18.273438 16.734375 -18.484375 C 17.046875 -18.691406 17.394531 -18.796875 17.78125 -18.796875 C 18.164062 -18.796875 18.515625 -18.691406 18.828125 -18.484375 C 19.140625 -18.273438 19.296875 -17.945312 19.296875 -17.5 Z M 6.796875 3.28125 C 6.023438 3.28125 5.488281 3.132812 5.1875 2.84375 C 4.894531 2.5625 4.75 2.046875 4.75 1.296875 L 4.75 -3.234375 C 4.75 -3.679688 4.90625 -4.007812 5.21875 -4.21875 C 5.53125 -4.425781 5.894531 -4.53125 6.3125 -4.53125 C 6.707031 -4.53125 7.0625 -4.425781 7.375 -4.21875 C 7.6875 -4.007812 7.84375 -3.679688 7.84375 -3.234375 L 7.84375 0.125 C 7.84375 0.488281 8.03125 0.671875 8.40625 0.671875 L 18.75 0.671875 C 19.113281 0.671875 19.382812 0.796875 19.5625 1.046875 C 19.738281 1.304688 19.828125 1.617188 19.828125 1.984375 C 19.828125 2.335938 19.738281 2.640625 19.5625 2.890625 C 19.382812 3.148438 19.113281 3.28125 18.75 3.28125 Z M 6.796875 3.28125 "/></g></g></g><g fill="#000000" fill-opacity="1"><g transform="translate(526.189187, 74.417573)"><g><path d="M 5.15625 -14.5625 C 4.789062 -14.5625 4.609375 -14.378906 4.609375 -14.015625 L 4.609375 -6.484375 C 4.609375 -6.109375 4.789062 -5.921875 5.15625 -5.921875 C 6.519531 -5.921875 7.820312 -5.957031 9.0625 -6.03125 C 10.300781 -6.101562 11.503906 -6.222656 12.671875 -6.390625 C 13.035156 -6.429688 13.328125 -6.335938 13.546875 -6.109375 C 13.765625 -5.890625 13.890625 -5.601562 13.921875 -5.25 C 13.953125 -4.882812 13.898438 -4.5625 13.765625 -4.28125 C 13.640625 -4 13.40625 -3.835938 13.0625 -3.796875 C 12.5625 -3.734375 12.007812 -3.671875 11.40625 -3.609375 C 10.8125 -3.554688 10.128906 -3.503906 9.359375 -3.453125 C 8.585938 -3.410156 7.726562 -3.375 6.78125 -3.34375 C 5.832031 -3.320312 4.765625 -3.3125 3.578125 -3.3125 C 2.804688 -3.3125 2.269531 -3.453125 1.96875 -3.734375 C 1.675781 -4.023438 1.53125 -4.546875 1.53125 -5.296875 L 1.53125 -15.1875 C 1.53125 -15.9375 1.675781 -16.457031 1.96875 -16.75 C 2.269531 -17.039062 2.804688 -17.1875 3.578125 -17.1875 L 11.15625 -17.1875 C 11.53125 -17.1875 11.800781 -17.054688 11.96875 -16.796875 C 12.144531 -16.546875 12.234375 -16.234375 12.234375 -15.859375 C 12.234375 -15.515625 12.144531 -15.210938 11.96875 -14.953125 C 11.800781 -14.691406 11.53125 -14.5625 11.15625 -14.5625 Z M 20.375 -11.71875 C 20.757812 -11.71875 21.039062 -11.585938 21.21875 -11.328125 C 21.394531 -11.066406 21.484375 -10.753906 21.484375 -10.390625 C 21.484375 -10.023438 21.394531 -9.707031 21.21875 -9.4375 C 21.039062 -9.175781 20.757812 -9.046875 20.375 -9.046875 L 18.125 -9.046875 L 18.125 0.890625 C 18.125 1.335938 17.96875 1.664062 17.65625 1.875 C 17.34375 2.082031 16.984375 2.1875 16.578125 2.1875 C 16.179688 2.1875 15.828125 2.082031 15.515625 1.875 C 15.203125 1.664062 15.046875 1.335938 15.046875 0.890625 L 15.046875 -17.5 C 15.046875 -17.945312 15.203125 -18.273438 15.515625 -18.484375 C 15.828125 -18.691406 16.179688 -18.796875 16.578125 -18.796875 C 16.984375 -18.796875 17.34375 -18.691406 17.65625 -18.484375 C 17.96875 -18.273438 18.125 -17.945312 18.125 -17.5 L 18.125 -11.71875 Z M 20.375 -11.71875 "/></g></g></g><g fill="#000000" fill-opacity="1"><g transform="translate(548.029228, 74.417573)"><g><path d="M 3.21875 -2.6875 C 3.757812 -2.6875 4.207031 -2.503906 4.5625 -2.140625 C 4.925781 -1.785156 5.109375 -1.335938 5.109375 -0.796875 C 5.109375 -0.242188 4.925781 0.207031 4.5625 0.5625 C 4.207031 0.925781 3.757812 1.109375 3.21875 1.109375 C 2.675781 1.109375 2.222656 0.925781 1.859375 0.5625 C 1.492188 0.207031 1.3125 -0.242188 1.3125 -0.796875 C 1.3125 -1.335938 1.492188 -1.785156 1.859375 -2.140625 C 2.222656 -2.503906 2.675781 -2.6875 3.21875 -2.6875 Z M 3.21875 -2.6875 "/></g></g></g><g fill="#000000" fill-opacity="1"><g transform="translate(735.355908, 74.417573)"><g><path d="M 6.859375 -17.421875 C 7.835938 -17.421875 8.6875 -17.300781 9.40625 -17.0625 C 10.125 -16.820312 10.71875 -16.5 11.1875 -16.09375 C 11.664062 -15.695312 12.015625 -15.234375 12.234375 -14.703125 C 12.460938 -14.179688 12.578125 -13.632812 12.578125 -13.0625 L 12.578125 -12.9375 C 12.578125 -12.5 12.507812 -12.066406 12.375 -11.640625 C 12.25 -11.222656 12.0625 -10.832031 11.8125 -10.46875 C 11.570312 -10.113281 11.273438 -9.800781 10.921875 -9.53125 C 10.566406 -9.269531 10.164062 -9.066406 9.71875 -8.921875 C 10.164062 -8.859375 10.601562 -8.738281 11.03125 -8.5625 C 11.46875 -8.382812 11.851562 -8.140625 12.1875 -7.828125 C 12.53125 -7.523438 12.800781 -7.144531 13 -6.6875 C 13.195312 -6.226562 13.296875 -5.6875 13.296875 -5.0625 L 13.296875 -4.828125 C 13.296875 -4.148438 13.160156 -3.507812 12.890625 -2.90625 C 12.617188 -2.3125 12.21875 -1.785156 11.6875 -1.328125 C 11.15625 -0.867188 10.5 -0.503906 9.71875 -0.234375 C 8.9375 0.0351562 8.035156 0.171875 7.015625 0.171875 C 6.066406 0.171875 5.195312 0.0703125 4.40625 -0.125 C 3.625 -0.332031 2.882812 -0.660156 2.1875 -1.109375 C 1.8125 -1.347656 1.597656 -1.65625 1.546875 -2.03125 C 1.492188 -2.40625 1.570312 -2.757812 1.78125 -3.09375 C 2 -3.457031 2.269531 -3.679688 2.59375 -3.765625 C 2.914062 -3.847656 3.257812 -3.773438 3.625 -3.546875 C 4.1875 -3.179688 4.707031 -2.925781 5.1875 -2.78125 C 5.664062 -2.632812 6.203125 -2.5625 6.796875 -2.5625 C 7.429688 -2.5625 7.960938 -2.617188 8.390625 -2.734375 C 8.828125 -2.859375 9.175781 -3.03125 9.4375 -3.25 C 9.707031 -3.46875 9.898438 -3.722656 10.015625 -4.015625 C 10.140625 -4.316406 10.203125 -4.632812 10.203125 -4.96875 L 10.203125 -5.15625 C 10.203125 -5.976562 9.925781 -6.582031 9.375 -6.96875 C 8.832031 -7.363281 7.945312 -7.5625 6.71875 -7.5625 L 5.453125 -7.5625 C 5.066406 -7.5625 4.785156 -7.6875 4.609375 -7.9375 C 4.429688 -8.195312 4.34375 -8.507812 4.34375 -8.875 C 4.34375 -9.25 4.429688 -9.5625 4.609375 -9.8125 C 4.785156 -10.070312 5.066406 -10.203125 5.453125 -10.203125 L 6.453125 -10.203125 C 7.523438 -10.203125 8.3125 -10.40625 8.8125 -10.8125 C 9.320312 -11.21875 9.578125 -11.835938 9.578125 -12.671875 L 9.578125 -12.75 C 9.578125 -13.351562 9.359375 -13.832031 8.921875 -14.1875 C 8.492188 -14.550781 7.800781 -14.734375 6.84375 -14.734375 C 6.257812 -14.734375 5.765625 -14.632812 5.359375 -14.4375 C 4.953125 -14.25 4.539062 -13.972656 4.125 -13.609375 C 3.820312 -13.335938 3.492188 -13.21875 3.140625 -13.25 C 2.785156 -13.289062 2.5 -13.457031 2.28125 -13.75 C 2.039062 -14.039062 1.929688 -14.351562 1.953125 -14.6875 C 1.972656 -15.019531 2.097656 -15.320312 2.328125 -15.59375 C 2.835938 -16.15625 3.46875 -16.597656 4.21875 -16.921875 C 4.976562 -17.253906 5.859375 -17.421875 6.859375 -17.421875 Z M 6.859375 -17.421875 "/></g></g></g><g fill="#000000" fill-opacity="1"><g transform="translate(750.235939, 74.417573)"><g><path d="M 3.21875 -2.6875 C 3.757812 -2.6875 4.207031 -2.503906 4.5625 -2.140625 C 4.925781 -1.785156 5.109375 -1.335938 5.109375 -0.796875 C 5.109375 -0.242188 4.925781 0.207031 4.5625 0.5625 C 4.207031 0.925781 3.757812 1.109375 3.21875 1.109375 C 2.675781 1.109375 2.222656 0.925781 1.859375 0.5625 C 1.492188 0.207031 1.3125 -0.242188 1.3125 -0.796875 C 1.3125 -1.335938 1.492188 -1.785156 1.859375 -2.140625 C 2.222656 -2.503906 2.675781 -2.6875 3.21875 -2.6875 Z M 3.21875 -2.6875 "/></g></g></g><g fill="#000000" fill-opacity="1"><g transform="translate(756.667953, 74.417573)"><g/></g></g><g fill="#000000" fill-opacity="1"><g transform="translate(762.667964, 74.417573)"><g><path d="M 8.90625 -13.03125 C 8.90625 -12.550781 8.9375 -12.109375 9 -11.703125 C 9.0625 -11.304688 9.164062 -10.925781 9.3125 -10.5625 C 9.457031 -10.195312 9.644531 -9.835938 9.875 -9.484375 C 10.101562 -9.140625 10.390625 -8.785156 10.734375 -8.421875 C 11.160156 -7.960938 11.59375 -7.507812 12.03125 -7.0625 C 12.476562 -6.613281 12.882812 -6.226562 13.25 -5.90625 C 13.550781 -5.632812 13.671875 -5.3125 13.609375 -4.9375 C 13.546875 -4.5625 13.394531 -4.242188 13.15625 -3.984375 C 13.039062 -3.867188 12.898438 -3.769531 12.734375 -3.6875 C 12.578125 -3.613281 12.414062 -3.5625 12.25 -3.53125 C 12.082031 -3.507812 11.914062 -3.519531 11.75 -3.5625 C 11.582031 -3.613281 11.425781 -3.707031 11.28125 -3.84375 C 10.957031 -4.125 10.609375 -4.453125 10.234375 -4.828125 C 9.859375 -5.210938 9.476562 -5.613281 9.09375 -6.03125 C 8.457031 -6.695312 8.019531 -7.195312 7.78125 -7.53125 C 7.550781 -7.875 7.414062 -8.164062 7.375 -8.40625 L 7.34375 -8.40625 C 7.3125 -8.257812 7.265625 -8.113281 7.203125 -7.96875 C 7.140625 -7.820312 7.039062 -7.648438 6.90625 -7.453125 C 6.769531 -7.265625 6.597656 -7.050781 6.390625 -6.8125 C 6.179688 -6.570312 5.914062 -6.285156 5.59375 -5.953125 C 5.207031 -5.535156 4.8125 -5.125 4.40625 -4.71875 C 4 -4.320312 3.554688 -3.898438 3.078125 -3.453125 C 2.765625 -3.179688 2.421875 -3.097656 2.046875 -3.203125 C 1.671875 -3.304688 1.375 -3.476562 1.15625 -3.71875 C 0.914062 -3.988281 0.785156 -4.304688 0.765625 -4.671875 C 0.753906 -5.046875 0.890625 -5.367188 1.171875 -5.640625 C 2.160156 -6.554688 3.085938 -7.484375 3.953125 -8.421875 C 4.296875 -8.785156 4.582031 -9.140625 4.8125 -9.484375 C 5.039062 -9.835938 5.226562 -10.195312 5.375 -10.5625 C 5.519531 -10.925781 5.625 -11.304688 5.6875 -11.703125 C 5.75 -12.109375 5.78125 -12.550781 5.78125 -13.03125 L 5.78125 -16.34375 C 5.78125 -16.8125 5.9375 -17.144531 6.25 -17.34375 C 6.5625 -17.550781 6.925781 -17.65625 7.34375 -17.65625 C 7.757812 -17.65625 8.125 -17.550781 8.4375 -17.34375 C 8.75 -17.144531 8.90625 -16.8125 8.90625 -16.34375 Z M 20.375 -11.71875 C 20.757812 -11.71875 21.039062 -11.585938 21.21875 -11.328125 C 21.394531 -11.066406 21.484375 -10.753906 21.484375 -10.390625 C 21.484375 -10.023438 21.394531 -9.707031 21.21875 -9.4375 C 21.039062 -9.175781 20.757812 -9.046875 20.375 -9.046875 L 18.125 -9.046875 L 18.125 0.890625 C 18.125 1.335938 17.96875 1.664062 17.65625 1.875 C 17.34375 2.082031 16.984375 2.1875 16.578125 2.1875 C 16.179688 2.1875 15.828125 2.082031 15.515625 1.875 C 15.203125 1.664062 15.046875 1.335938 15.046875 0.890625 L 15.046875 -17.5 C 15.046875 -17.945312 15.203125 -18.273438 15.515625 -18.484375 C 15.828125 -18.691406 16.179688 -18.796875 16.578125 -18.796875 C 16.984375 -18.796875 17.34375 -18.691406 17.65625 -18.484375 C 17.96875 -18.273438 18.125 -17.945312 18.125 -17.5 L 18.125 -11.71875 Z M 20.375 -11.71875 "/></g></g></g><g fill="#000000" fill-opacity="1"><g transform="translate(784.508005, 74.417573)"><g><path d="M 9.4375 -14.765625 L 9.4375 -13.84375 C 9.4375 -13.113281 9.554688 -12.488281 9.796875 -11.96875 C 10.046875 -11.445312 10.425781 -10.960938 10.9375 -10.515625 C 11.46875 -10.066406 11.957031 -9.664062 12.40625 -9.3125 C 12.851562 -8.957031 13.257812 -8.644531 13.625 -8.375 C 13.96875 -8.132812 14.140625 -7.84375 14.140625 -7.5 C 14.148438 -7.15625 14.046875 -6.832031 13.828125 -6.53125 C 13.648438 -6.269531 13.382812 -6.078125 13.03125 -5.953125 C 12.675781 -5.828125 12.316406 -5.890625 11.953125 -6.140625 C 11.660156 -6.347656 11.300781 -6.613281 10.875 -6.9375 C 10.457031 -7.269531 10.015625 -7.640625 9.546875 -8.046875 C 8.992188 -8.503906 8.601562 -8.859375 8.375 -9.109375 C 8.15625 -9.367188 8.007812 -9.617188 7.9375 -9.859375 L 7.921875 -9.859375 C 7.859375 -9.585938 7.703125 -9.300781 7.453125 -9 C 7.203125 -8.707031 6.796875 -8.332031 6.234375 -7.875 C 5.304688 -7.09375 4.390625 -6.375 3.484375 -5.71875 C 3.128906 -5.457031 2.769531 -5.390625 2.40625 -5.515625 C 2.050781 -5.648438 1.785156 -5.84375 1.609375 -6.09375 C 1.398438 -6.382812 1.289062 -6.710938 1.28125 -7.078125 C 1.269531 -7.441406 1.453125 -7.765625 1.828125 -8.046875 C 2.347656 -8.421875 2.847656 -8.796875 3.328125 -9.171875 C 3.816406 -9.554688 4.320312 -9.972656 4.84375 -10.421875 C 5.351562 -10.867188 5.734375 -11.347656 5.984375 -11.859375 C 6.234375 -12.378906 6.359375 -13.007812 6.359375 -13.75 L 6.359375 -14.765625 L 2.765625 -14.765625 C 2.390625 -14.765625 2.113281 -14.890625 1.9375 -15.140625 C 1.769531 -15.398438 1.6875 -15.707031 1.6875 -16.0625 C 1.6875 -16.425781 1.769531 -16.734375 1.9375 -16.984375 C 2.113281 -17.242188 2.390625 -17.375 2.765625 -17.375 L 12.796875 -17.375 C 13.160156 -17.375 13.429688 -17.242188 13.609375 -16.984375 C 13.785156 -16.734375 13.875 -16.425781 13.875 -16.0625 C 13.875 -15.707031 13.785156 -15.398438 13.609375 -15.140625 C 13.429688 -14.890625 13.160156 -14.765625 12.796875 -14.765625 Z M 19.15625 -3.71875 C 19.15625 -3.269531 19 -2.941406 18.6875 -2.734375 C 18.375 -2.523438 18.015625 -2.421875 17.609375 -2.421875 C 17.210938 -2.421875 16.859375 -2.523438 16.546875 -2.734375 C 16.234375 -2.941406 16.078125 -3.269531 16.078125 -3.71875 L 16.078125 -17.5 C 16.078125 -17.945312 16.234375 -18.273438 16.546875 -18.484375 C 16.859375 -18.691406 17.210938 -18.796875 17.609375 -18.796875 C 18.015625 -18.796875 18.375 -18.691406 18.6875 -18.484375 C 19 -18.273438 19.15625 -17.945312 19.15625 -17.5 Z M 6.75 3.28125 C 5.976562 3.28125 5.441406 3.132812 5.140625 2.84375 C 4.847656 2.5625 4.703125 2.046875 4.703125 1.296875 L 4.703125 -3.234375 C 4.703125 -3.679688 4.859375 -4.007812 5.171875 -4.21875 C 5.484375 -4.425781 5.847656 -4.53125 6.265625 -4.53125 C 6.660156 -4.53125 7.015625 -4.425781 7.328125 -4.21875 C 7.640625 -4.007812 7.796875 -3.679688 7.796875 -3.234375 L 7.796875 0.125 C 7.796875 0.488281 7.984375 0.671875 8.359375 0.671875 L 18.59375 0.671875 C 18.96875 0.671875 19.242188 0.796875 19.421875 1.046875 C 19.597656 1.304688 19.6875 1.617188 19.6875 1.984375 C 19.6875 2.335938 19.597656 2.640625 19.421875 2.890625 C 19.242188 3.148438 18.96875 3.28125 18.59375 3.28125 Z M 6.75 3.28125 "/></g></g></g><g fill="#000000" fill-opacity="1"><g transform="translate(806.348045, 74.417573)"><g><path d="M 3.40625 -14.59375 C 3.40625 -15.289062 3.578125 -15.890625 3.921875 -16.390625 C 4.265625 -16.898438 4.757812 -17.316406 5.40625 -17.640625 C 6.0625 -17.960938 6.851562 -18.195312 7.78125 -18.34375 C 8.707031 -18.5 9.753906 -18.578125 10.921875 -18.578125 C 12.085938 -18.578125 13.132812 -18.5 14.0625 -18.34375 C 14.988281 -18.195312 15.773438 -17.960938 16.421875 -17.640625 C 17.078125 -17.316406 17.578125 -16.898438 17.921875 -16.390625 C 18.265625 -15.890625 18.4375 -15.289062 18.4375 -14.59375 C 18.4375 -13.882812 18.265625 -13.28125 17.921875 -12.78125 C 17.578125 -12.28125 17.078125 -11.867188 16.421875 -11.546875 C 15.773438 -11.222656 14.988281 -10.984375 14.0625 -10.828125 C 13.132812 -10.679688 12.085938 -10.609375 10.921875 -10.609375 C 9.753906 -10.609375 8.707031 -10.679688 7.78125 -10.828125 C 6.851562 -10.984375 6.0625 -11.222656 5.40625 -11.546875 C 4.757812 -11.867188 4.265625 -12.28125 3.921875 -12.78125 C 3.578125 -13.28125 3.40625 -13.882812 3.40625 -14.59375 Z M 15.390625 -14.59375 C 15.390625 -15.09375 15.039062 -15.476562 14.34375 -15.75 C 13.65625 -16.03125 12.515625 -16.171875 10.921875 -16.171875 C 9.316406 -16.171875 8.171875 -16.03125 7.484375 -15.75 C 6.796875 -15.476562 6.453125 -15.09375 6.453125 -14.59375 C 6.453125 -14.09375 6.796875 -13.703125 7.484375 -13.421875 C 8.171875 -13.148438 9.316406 -13.015625 10.921875 -13.015625 C 12.515625 -13.015625 13.65625 -13.148438 14.34375 -13.421875 C 15.039062 -13.703125 15.390625 -14.09375 15.390625 -14.59375 Z M 1.828125 -6.984375 C 1.453125 -6.984375 1.179688 -7.101562 1.015625 -7.34375 C 0.847656 -7.582031 0.765625 -7.882812 0.765625 -8.25 C 0.765625 -8.59375 0.847656 -8.882812 1.015625 -9.125 C 1.179688 -9.363281 1.453125 -9.484375 1.828125 -9.484375 L 20.015625 -9.484375 C 20.378906 -9.484375 20.644531 -9.363281 20.8125 -9.125 C 20.988281 -8.882812 21.078125 -8.59375 21.078125 -8.25 C 21.078125 -7.882812 20.988281 -7.582031 20.8125 -7.34375 C 20.644531 -7.101562 20.378906 -6.984375 20.015625 -6.984375 Z M 16.421875 -5.546875 C 17.179688 -5.546875 17.707031 -5.398438 18 -5.109375 C 18.300781 -4.828125 18.453125 -4.304688 18.453125 -3.546875 L 18.453125 -1.796875 C 18.453125 -1.046875 18.300781 -0.523438 18 -0.234375 C 17.707031 0.046875 17.179688 0.1875 16.421875 0.1875 L 6.671875 0.1875 C 6.429688 0.1875 6.3125 0.304688 6.3125 0.546875 L 6.3125 0.984375 C 6.3125 1.222656 6.429688 1.34375 6.671875 1.34375 L 17.953125 1.34375 C 18.285156 1.34375 18.53125 1.460938 18.6875 1.703125 C 18.851562 1.941406 18.9375 2.210938 18.9375 2.515625 C 18.9375 2.835938 18.851562 3.113281 18.6875 3.34375 C 18.53125 3.582031 18.285156 3.703125 17.953125 3.703125 L 5.375 3.703125 C 4.601562 3.703125 4.070312 3.554688 3.78125 3.265625 C 3.488281 2.972656 3.34375 2.453125 3.34375 1.703125 L 3.34375 -0.078125 C 3.34375 -0.828125 3.488281 -1.34375 3.78125 -1.625 C 4.070312 -1.914062 4.601562 -2.0625 5.375 -2.0625 L 15.125 -2.0625 C 15.363281 -2.0625 15.484375 -2.179688 15.484375 -2.421875 L 15.484375 -2.828125 C 15.484375 -3.066406 15.363281 -3.1875 15.125 -3.1875 L 4.265625 -3.1875 C 3.929688 -3.1875 3.679688 -3.300781 3.515625 -3.53125 C 3.359375 -3.769531 3.28125 -4.050781 3.28125 -4.375 C 3.28125 -4.675781 3.359375 -4.945312 3.515625 -5.1875 C 3.679688 -5.425781 3.929688 -5.546875 4.265625 -5.546875 Z M 16.421875 -5.546875 "/></g></g></g><g fill="#000000" fill-opacity="1"><g transform="translate(828.188086, 74.417573)"><g/></g></g><g fill="#000000" fill-opacity="1"><g transform="translate(834.188097, 74.417573)"><g><path d="M 18.4375 -11.1875 C 18.4375 -10.4375 18.285156 -9.914062 17.984375 -9.625 C 17.691406 -9.332031 17.160156 -9.1875 16.390625 -9.1875 L 5.453125 -9.1875 C 4.679688 -9.1875 4.144531 -9.332031 3.84375 -9.625 C 3.550781 -9.914062 3.40625 -10.4375 3.40625 -11.1875 L 3.40625 -17.046875 C 3.40625 -17.453125 3.5625 -17.757812 3.875 -17.96875 C 4.1875 -18.175781 4.523438 -18.28125 4.890625 -18.28125 C 5.273438 -18.28125 5.625 -18.175781 5.9375 -17.96875 C 6.25 -17.757812 6.40625 -17.453125 6.40625 -17.046875 L 6.40625 -15.71875 L 15.4375 -15.71875 L 15.4375 -17.046875 C 15.4375 -17.453125 15.59375 -17.757812 15.90625 -17.96875 C 16.21875 -18.175781 16.554688 -18.28125 16.921875 -18.28125 C 17.304688 -18.28125 17.65625 -18.175781 17.96875 -17.96875 C 18.28125 -17.757812 18.4375 -17.453125 18.4375 -17.046875 Z M 15.078125 -11.6875 C 15.316406 -11.6875 15.4375 -11.804688 15.4375 -12.046875 L 15.4375 -13.21875 L 6.40625 -13.21875 L 6.40625 -12.046875 C 6.40625 -11.804688 6.523438 -11.6875 6.765625 -11.6875 Z M 1.84375 -4.484375 C 1.476562 -4.484375 1.207031 -4.609375 1.03125 -4.859375 C 0.851562 -5.117188 0.765625 -5.425781 0.765625 -5.78125 C 0.765625 -6.113281 0.851562 -6.410156 1.03125 -6.671875 C 1.207031 -6.929688 1.476562 -7.0625 1.84375 -7.0625 L 9.40625 -7.0625 L 9.40625 -10.203125 L 12.4375 -10.203125 L 12.4375 -7.0625 L 19.984375 -7.0625 C 20.359375 -7.0625 20.632812 -6.929688 20.8125 -6.671875 C 20.988281 -6.410156 21.078125 -6.113281 21.078125 -5.78125 C 21.078125 -5.425781 20.988281 -5.117188 20.8125 -4.859375 C 20.632812 -4.609375 20.359375 -4.484375 19.984375 -4.484375 Z M 17.78125 0.796875 C 18.15625 0.796875 18.425781 0.921875 18.59375 1.171875 C 18.769531 1.429688 18.859375 1.738281 18.859375 2.09375 C 18.859375 2.4375 18.769531 2.738281 18.59375 3 C 18.425781 3.257812 18.15625 3.390625 17.78125 3.390625 L 5.40625 3.390625 C 4.632812 3.390625 4.097656 3.242188 3.796875 2.953125 C 3.503906 2.660156 3.359375 2.140625 3.359375 1.390625 L 3.359375 -2.140625 C 3.359375 -2.585938 3.515625 -2.914062 3.828125 -3.125 C 4.140625 -3.332031 4.503906 -3.4375 4.921875 -3.4375 C 5.316406 -3.4375 5.671875 -3.332031 5.984375 -3.125 C 6.296875 -2.914062 6.453125 -2.585938 6.453125 -2.140625 L 6.453125 0.234375 C 6.453125 0.609375 6.640625 0.796875 7.015625 0.796875 Z M 17.78125 0.796875 "/></g></g></g><g fill="#000000" fill-opacity="1"><g transform="translate(856.028137, 74.417573)"><g><path d="M 5.15625 -14.5625 C 4.789062 -14.5625 4.609375 -14.378906 4.609375 -14.015625 L 4.609375 -6.484375 C 4.609375 -6.109375 4.789062 -5.921875 5.15625 -5.921875 C 6.519531 -5.921875 7.820312 -5.957031 9.0625 -6.03125 C 10.300781 -6.101562 11.503906 -6.222656 12.671875 -6.390625 C 13.035156 -6.429688 13.328125 -6.335938 13.546875 -6.109375 C 13.765625 -5.890625 13.890625 -5.601562 13.921875 -5.25 C 13.953125 -4.882812 13.898438 -4.5625 13.765625 -4.28125 C 13.640625 -4 13.40625 -3.835938 13.0625 -3.796875 C 12.5625 -3.734375 12.007812 -3.671875 11.40625 -3.609375 C 10.8125 -3.554688 10.128906 -3.503906 9.359375 -3.453125 C 8.585938 -3.410156 7.726562 -3.375 6.78125 -3.34375 C 5.832031 -3.320312 4.765625 -3.3125 3.578125 -3.3125 C 2.804688 -3.3125 2.269531 -3.453125 1.96875 -3.734375 C 1.675781 -4.023438 1.53125 -4.546875 1.53125 -5.296875 L 1.53125 -15.1875 C 1.53125 -15.9375 1.675781 -16.457031 1.96875 -16.75 C 2.269531 -17.039062 2.804688 -17.1875 3.578125 -17.1875 L 11.15625 -17.1875 C 11.53125 -17.1875 11.800781 -17.054688 11.96875 -16.796875 C 12.144531 -16.546875 12.234375 -16.234375 12.234375 -15.859375 C 12.234375 -15.515625 12.144531 -15.210938 11.96875 -14.953125 C 11.800781 -14.691406 11.53125 -14.5625 11.15625 -14.5625 Z M 20.375 -11.71875 C 20.757812 -11.71875 21.039062 -11.585938 21.21875 -11.328125 C 21.394531 -11.066406 21.484375 -10.753906 21.484375 -10.390625 C 21.484375 -10.023438 21.394531 -9.707031 21.21875 -9.4375 C 21.039062 -9.175781 20.757812 -9.046875 20.375 -9.046875 L 18.125 -9.046875 L 18.125 0.890625 C 18.125 1.335938 17.96875 1.664062 17.65625 1.875 C 17.34375 2.082031 16.984375 2.1875 16.578125 2.1875 C 16.179688 2.1875 15.828125 2.082031 15.515625 1.875 C 15.203125 1.664062 15.046875 1.335938 15.046875 0.890625 L 15.046875 -17.5 C 15.046875 -17.945312 15.203125 -18.273438 15.515625 -18.484375 C 15.828125 -18.691406 16.179688 -18.796875 16.578125 -18.796875 C 16.984375 -18.796875 17.34375 -18.691406 17.65625 -18.484375 C 17.96875 -18.273438 18.125 -17.945312 18.125 -17.5 L 18.125 -11.71875 Z M 20.375 -11.71875 "/></g></g></g><g fill="#000000" fill-opacity="1"><g transform="translate(877.868178, 74.417573)"><g><path d="M 3.21875 -2.6875 C 3.757812 -2.6875 4.207031 -2.503906 4.5625 -2.140625 C 4.925781 -1.785156 5.109375 -1.335938 5.109375 -0.796875 C 5.109375 -0.242188 4.925781 0.207031 4.5625 0.5625 C 4.207031 0.925781 3.757812 1.109375 3.21875 1.109375 C 2.675781 1.109375 2.222656 0.925781 1.859375 0.5625 C 1.492188 0.207031 1.3125 -0.242188 1.3125 -0.796875 C 1.3125 -1.335938 1.492188 -1.785156 1.859375 -2.140625 C 2.222656 -2.503906 2.675781 -2.6875 3.21875 -2.6875 Z M 3.21875 -2.6875 "/></g></g></g><g clip-path="url(#eb0e5dba20)"><path fill="#000000" d="M 864.78125 125.621094 L 755.632812 125.621094 C 755.007812 125.621094 754.386719 125.679688 753.769531 125.804688 C 753.15625 125.925781 752.558594 126.105469 751.980469 126.347656 C 751.398438 126.585938 750.847656 126.882812 750.328125 127.230469 C 749.804688 127.578125 749.324219 127.972656 748.878906 128.417969 C 748.4375 128.859375 748.042969 129.34375 747.691406 129.863281 C 747.34375 130.386719 747.050781 130.9375 746.808594 131.515625 C 746.570312 132.09375 746.390625 132.691406 746.265625 133.308594 C 746.144531 133.921875 746.082031 134.542969 746.082031 135.171875 L 746.082031 218.398438 C 746.082031 219.023438 746.144531 219.644531 746.265625 220.261719 C 746.390625 220.875 746.570312 221.472656 746.808594 222.050781 C 747.050781 222.632812 747.34375 223.179688 747.691406 223.703125 C 748.042969 224.222656 748.4375 224.707031 748.878906 225.148438 C 749.324219 225.59375 749.804688 225.988281 750.328125 226.335938 C 750.847656 226.6875 751.398438 226.980469 751.980469 227.21875 C 752.558594 227.460938 753.15625 227.640625 753.769531 227.765625 C 754.386719 227.886719 755.007812 227.949219 755.632812 227.949219 L 791.109375 227.949219 L 791.109375 236.597656 L 789.117188 236.597656 C 788.488281 236.597656 787.867188 236.660156 787.253906 236.78125 C 786.636719 236.902344 786.039062 237.085938 785.460938 237.324219 C 784.882812 237.5625 784.332031 237.859375 783.808594 238.207031 C 783.289062 238.554688 782.804688 238.953125 782.363281 239.394531 C 781.917969 239.839844 781.523438 240.320312 781.175781 240.84375 C 780.824219 241.363281 780.53125 241.914062 780.292969 242.492188 C 780.050781 243.074219 779.871094 243.667969 779.75 244.285156 C 779.625 244.898438 779.566406 245.519531 779.566406 246.148438 L 779.566406 253.871094 L 840.851562 253.871094 L 840.851562 246.175781 C 840.851562 245.546875 840.789062 244.925781 840.667969 244.3125 C 840.546875 243.695312 840.363281 243.101562 840.125 242.519531 C 839.886719 241.941406 839.589844 241.390625 839.242188 240.871094 C 838.894531 240.347656 838.5 239.867188 838.054688 239.421875 C 837.613281 238.976562 837.128906 238.582031 836.609375 238.234375 C 836.085938 237.886719 835.535156 237.589844 834.957031 237.351562 C 834.378906 237.113281 833.78125 236.929688 833.164062 236.808594 C 832.550781 236.6875 831.929688 236.625 831.300781 236.625 L 829.308594 236.625 L 829.308594 227.949219 L 864.78125 227.949219 C 865.410156 227.949219 866.03125 227.886719 866.644531 227.765625 C 867.261719 227.640625 867.859375 227.460938 868.4375 227.21875 C 869.015625 226.980469 869.566406 226.6875 870.089844 226.335938 C 870.609375 225.988281 871.09375 225.59375 871.535156 225.148438 C 871.980469 224.707031 872.375 224.222656 872.722656 223.703125 C 873.074219 223.179688 873.367188 222.632812 873.605469 222.050781 C 873.847656 221.472656 874.027344 220.875 874.148438 220.261719 C 874.273438 219.644531 874.332031 219.023438 874.332031 218.398438 L 874.332031 135.171875 C 874.332031 134.542969 874.273438 133.921875 874.148438 133.308594 C 874.027344 132.691406 873.847656 132.09375 873.605469 131.515625 C 873.367188 130.9375 873.074219 130.386719 872.722656 129.863281 C 872.375 129.34375 871.980469 128.859375 871.535156 128.417969 C 871.09375 127.972656 870.609375 127.578125 870.089844 127.230469 C 869.566406 126.882812 869.015625 126.585938 868.4375 126.347656 C 867.859375 126.105469 867.261719 125.925781 866.644531 125.804688 C 866.03125 125.679688 865.410156 125.621094 864.78125 125.621094 Z M 755.632812 131.078125 L 864.78125 131.078125 C 865.050781 131.078125 865.316406 131.105469 865.582031 131.15625 C 865.84375 131.207031 866.101562 131.285156 866.347656 131.390625 C 866.597656 131.492188 866.832031 131.617188 867.058594 131.765625 C 867.28125 131.917969 867.488281 132.085938 867.675781 132.277344 C 867.867188 132.464844 868.035156 132.671875 868.1875 132.898438 C 868.335938 133.121094 868.460938 133.355469 868.566406 133.605469 C 868.667969 133.851562 868.746094 134.109375 868.796875 134.371094 C 868.851562 134.636719 868.875 134.902344 868.875 135.171875 L 868.875 209.242188 L 751.539062 209.242188 L 751.539062 135.171875 C 751.539062 134.902344 751.566406 134.636719 751.621094 134.371094 C 751.671875 134.109375 751.75 133.851562 751.851562 133.605469 C 751.957031 133.355469 752.082031 133.121094 752.230469 132.898438 C 752.378906 132.671875 752.550781 132.464844 752.738281 132.277344 C 752.929688 132.085938 753.136719 131.917969 753.359375 131.765625 C 753.582031 131.617188 753.820312 131.492188 754.066406 131.390625 C 754.316406 131.285156 754.570312 131.207031 754.835938 131.15625 C 755.097656 131.105469 755.367188 131.078125 755.632812 131.078125 Z M 831.300781 242.082031 C 831.570312 242.082031 831.835938 242.109375 832.101562 242.160156 C 832.363281 242.214844 832.621094 242.289062 832.867188 242.394531 C 833.117188 242.496094 833.351562 242.621094 833.574219 242.773438 C 833.800781 242.921875 834.003906 243.089844 834.195312 243.28125 C 834.386719 243.472656 834.554688 243.675781 834.703125 243.902344 C 834.855469 244.125 834.980469 244.359375 835.082031 244.609375 C 835.1875 244.855469 835.261719 245.113281 835.316406 245.375 C 835.367188 245.640625 835.394531 245.90625 835.394531 246.175781 L 835.394531 248.414062 L 785.023438 248.414062 L 785.023438 246.175781 C 785.023438 245.90625 785.046875 245.640625 785.101562 245.375 C 785.152344 245.113281 785.230469 244.855469 785.332031 244.609375 C 785.4375 244.359375 785.5625 244.125 785.710938 243.902344 C 785.863281 243.675781 786.03125 243.472656 786.222656 243.28125 C 786.410156 243.089844 786.617188 242.921875 786.839844 242.773438 C 787.066406 242.621094 787.300781 242.496094 787.550781 242.394531 C 787.796875 242.289062 788.054688 242.214844 788.316406 242.160156 C 788.582031 242.109375 788.847656 242.082031 789.117188 242.082031 Z M 823.859375 236.625 L 796.566406 236.625 L 796.566406 227.949219 L 823.851562 227.949219 Z M 864.78125 222.488281 L 755.632812 222.488281 C 755.367188 222.488281 755.097656 222.464844 754.835938 222.410156 C 754.570312 222.359375 754.316406 222.28125 754.066406 222.179688 C 753.820312 222.074219 753.582031 221.949219 753.359375 221.800781 C 753.136719 221.652344 752.929688 221.480469 752.738281 221.289062 C 752.550781 221.101562 752.378906 220.894531 752.230469 220.671875 C 752.082031 220.449219 751.957031 220.210938 751.851562 219.964844 C 751.75 219.714844 751.671875 219.457031 751.621094 219.195312 C 751.566406 218.933594 751.539062 218.664062 751.539062 218.398438 L 751.539062 214.671875 L 868.875 214.671875 L 868.875 218.398438 C 868.875 218.664062 868.851562 218.933594 868.796875 219.195312 C 868.746094 219.457031 868.667969 219.714844 868.566406 219.964844 C 868.460938 220.210938 868.335938 220.449219 868.1875 220.671875 C 868.035156 220.894531 867.867188 221.101562 867.675781 221.289062 C 867.488281 221.480469 867.28125 221.652344 867.058594 221.800781 C 866.832031 221.949219 866.597656 222.074219 866.347656 222.179688 C 866.101562 222.28125 865.84375 222.359375 865.582031 222.410156 C 865.316406 222.464844 865.050781 222.488281 864.78125 222.488281 Z M 864.78125 222.488281 " fill-opacity="1" fill-rule="nonzero"/></g><g clip-path="url(#2e413c8851)"><path fill="#000000" d="M 753.011719 129.695312 C 752.15625 129.695312 751.460938 130.386719 751.460938 131.238281 L 751.460938 214.332031 C 751.460938 215.183594 752.15625 215.875 753.011719 215.875 L 867.949219 215.875 C 868.804688 215.875 869.5 215.183594 869.5 214.332031 L 869.5 131.238281 C 869.5 130.386719 868.804688 129.695312 867.949219 129.695312 Z M 867.949219 219.285156 L 753.011719 219.285156 C 750.265625 219.285156 748.03125 217.0625 748.03125 214.332031 L 748.03125 131.238281 C 748.03125 128.503906 750.265625 126.285156 753.011719 126.285156 L 867.949219 126.285156 C 870.695312 126.285156 872.929688 128.503906 872.929688 131.238281 L 872.929688 214.332031 C 872.929688 217.0625 870.695312 219.285156 867.949219 219.285156 " fill-opacity="1" fill-rule="nonzero"/></g><path fill="#000000" d="M 871.214844 202.574219 C 870.769531 202.574219 870.324219 202.402344 869.988281 202.058594 L 837.222656 168.613281 L 808.46875 197.960938 C 807.808594 198.636719 806.722656 198.648438 806.046875 197.992188 C 805.367188 197.335938 805.355469 196.253906 806.015625 195.582031 L 835.992188 164.980469 C 836.316406 164.652344 836.761719 164.464844 837.222656 164.464844 C 837.683594 164.464844 838.128906 164.652344 838.449219 164.980469 L 872.445312 199.679688 C 873.105469 200.351562 873.089844 201.433594 872.414062 202.089844 C 872.078125 202.414062 871.648438 202.574219 871.214844 202.574219 " fill-opacity="1" fill-rule="nonzero"/><g clip-path="url(#f2782b2428)"><path fill="#000000" d="M 827.902344 219.285156 C 827.460938 219.285156 827.019531 219.117188 826.683594 218.78125 L 806.023438 197.96875 L 782.839844 174.617188 L 750.972656 207.144531 C 750.3125 207.820312 749.226562 207.835938 748.546875 207.175781 C 747.871094 206.519531 747.855469 205.441406 748.515625 204.765625 L 781.605469 170.992188 C 781.925781 170.664062 782.367188 170.480469 782.824219 170.476562 C 782.828125 170.476562 782.828125 170.476562 782.832031 170.476562 C 783.289062 170.476562 783.730469 170.660156 784.050781 170.984375 L 808.460938 195.570312 L 829.125 216.382812 C 829.789062 217.054688 829.78125 218.132812 829.109375 218.792969 C 828.773438 219.121094 828.339844 219.285156 827.902344 219.285156 " fill-opacity="1" fill-rule="nonzero"/></g><path fill="#000000" d="M 800.207031 144.753906 C 795.769531 144.753906 792.160156 148.34375 792.160156 152.757812 C 792.160156 157.175781 795.769531 160.765625 800.207031 160.765625 C 804.644531 160.765625 808.253906 157.175781 808.253906 152.757812 C 808.253906 148.34375 804.644531 144.753906 800.207031 144.753906 Z M 800.207031 164.175781 C 793.878906 164.175781 788.730469 159.054688 788.730469 152.757812 C 788.730469 146.464844 793.878906 141.34375 800.207031 141.34375 C 806.535156 141.34375 811.683594 146.464844 811.683594 152.757812 C 811.683594 159.054688 806.535156 164.175781 800.207031 164.175781 " fill-opacity="1" fill-rule="nonzero"/><g clip-path="url(#291203c6ec)"><g clip-path="url(#9519a73e4f)"><path fill="#ffffff" d="M 751.285156 214.265625 L 758.136719 214.265625 L 758.136719 221.757812 L 751.285156 221.757812 Z M 751.285156 214.265625 " fill-opacity="1" fill-rule="nonzero"/></g></g><g clip-path="url(#349f883d93)"><g clip-path="url(#f01e4edf5b)"><path fill="#ffffff" d="M 862.414062 214.265625 L 869.261719 214.265625 L 869.261719 221.757812 L 862.414062 221.757812 Z M 862.414062 214.265625 " fill-opacity="1" fill-rule="nonzero"/></g></g><g clip-path="url(#8482ef174c)"><path fill="#ffffff" d="M 754.710938 214.265625 L 865.835938 214.265625 L 865.835938 221.765625 L 754.710938 221.765625 Z M 754.710938 214.265625 " fill-opacity="1" fill-rule="nonzero"/></g><g clip-path="url(#21004a1e22)"><g clip-path="url(#0768a95d11)"><path stroke-linecap="butt" transform="matrix(0.75, 0, 0, 0.75, 432.749983, 125.620187)" fill="none" stroke-linejoin="miter" d="M 20.000023 0.0012093 L 106.000023 0.0012093 C 117.046898 0.0012093 126.000023 8.954334 126.000023 20.001209 L 126.000023 148.00121 C 126.000023 159.048085 117.046898 168.00121 106.000023 168.00121 L 20.000023 168.00121 C 8.953147 168.00121 0.0000224417 159.048085 0.0000224417 148.00121 L 0.0000224417 20.001209 C 0.0000224417 8.954334 8.953147 0.0012093 20.000023 0.0012093 Z M 20.000023 0.0012093 " stroke="#000000" stroke-width="16" stroke-opacity="1" stroke-miterlimit="4"/></g></g><path stroke-linecap="round" transform="matrix(0.75, 0.000000000000000601, -0.000000000000000601, 0.75, 453.401814, 155.24999)" fill="none" stroke-linejoin="miter" d="M 4.000707 4.000014 L 66.927794 4.000014 " stroke="#000000" stroke-width="8" stroke-opacity="1" stroke-miterlimit="4"/><path stroke-linecap="round" transform="matrix(0.75, 0, 0, 0.75, 453.401814, 176.911745)" fill="none" stroke-linejoin="miter" d="M 4.000707 3.997882 L 66.927794 3.997882 " stroke="#000000" stroke-width="8" stroke-opacity="1" stroke-miterlimit="4"/><path stroke-linecap="round" transform="matrix(0.75, 0, 0, 0.75, 453.401814, 198.573503)" fill="none" stroke-linejoin="miter" d="M 4.000707 4.000955 L 66.927794 4.000955 " stroke="#000000" stroke-width="8" stroke-opacity="1" stroke-miterlimit="4"/></svg>