<svg width="3776" height="3132" viewBox="0 0 3776 3132" fill="none" xmlns="http://www.w3.org/2000/svg">
<path d="M753.318 1173.03C750.745 1166.76 748.533 1160.14 748.831 1153.38C749.129 1146.61 752.414 1139.62 758.445 1136.56C764.231 1133.59 771.168 1134.7 777.558 1135.88C793.083 1138.73 808.613 1141.6 824.146 1144.45C828.21 1145.21 832.662 1146.18 835.191 1149.45C837.394 1152.3 837.57 1156.17 837.65 1159.77C838.695 1203.99 839.731 1248.23 840.775 1292.48C840.547 1282.94 811.617 1248.51 803.285 1239.39C783.591 1217.87 764.784 1200.91 753.318 1173.03Z" fill="#C2C3C1"/>
<path d="M182.378 1769.57C215.066 1788.45 240.675 1819.27 253.241 1854.86C255.33 1860.78 259.946 1868.31 265.747 1865.92C269.59 1864.34 270.428 1859.37 270.647 1855.21C272.258 1824.83 270.821 1794.28 266.372 1764.2C230.303 1769.13 193.498 1768.65 157.568 1762.79L182.378 1769.57Z" fill="#C2C3C1"/>
<path d="M1104.43 1263.69C1060.73 1263.69 1024.84 1260.97 1017.11 1252.74C1013.47 1248.86 1010.02 1245.29 1006.72 1241.88C984.527 1218.99 968.486 1202.44 947.959 1146.11C943.139 1132.85 938.52 1119.07 934.068 1105.74C912.839 1042.24 890.888 976.61 839.842 953.189L638.489 891.533C632.67 889.741 629.394 883.567 631.176 877.747C632.968 871.927 639.114 868.645 644.951 870.437L846.98 932.306C847.418 932.448 847.849 932.608 848.278 932.785C908.572 959.932 932.163 1030.51 954.982 1098.73C959.389 1111.93 963.956 1125.58 968.679 1138.55C987.591 1190.48 1001.51 1204.82 1022.56 1226.53C1025.73 1229.82 1029.04 1233.24 1032.52 1236.91C1055.3 1247.37 1268.74 1237.75 1293.74 1232.2C1299.71 1230.86 1305.58 1234.61 1306.9 1240.55C1308.22 1246.5 1304.47 1252.39 1298.53 1253.72C1297.01 1254.04 1186.84 1263.69 1104.43 1263.69Z" fill="#040606"/>
<path d="M869.816 1752.62C868.947 1752.62 868.06 1752.52 867.182 1752.3C861.264 1750.85 857.646 1744.88 859.105 1738.97C868.85 1699.28 868.498 1628.97 858.024 1524.05C857.419 1517.99 861.834 1512.58 867.902 1511.98C873.977 1511.34 879.369 1515.8 879.966 1521.86C890.696 1629.33 890.879 1702.06 880.518 1744.23C879.282 1749.26 874.777 1752.62 869.816 1752.62Z" fill="#040606"/>
<path d="M861.995 1470.59C856.49 1470.59 851.732 1466.47 851.065 1460.88C844.637 1407.09 837.017 1352.61 830.281 1304.54C822.538 1249.25 815.847 1201.49 812.951 1169.08C812.406 1163.02 816.884 1157.66 822.95 1157.11C828.992 1156.63 834.374 1161.04 834.918 1167.11C837.763 1198.97 844.419 1246.48 852.117 1301.49C858.87 1349.65 866.509 1404.24 872.953 1458.26C873.682 1464.31 869.362 1469.79 863.312 1470.51C862.874 1470.58 862.435 1470.59 861.995 1470.59Z" fill="#040606"/>
<path d="M241.414 1782.08C213.676 1781.09 193.735 1780.01 170.25 1774.21C164.63 1772.87 158.689 1771.2 152.16 1769.1C147.427 1767.59 144.292 1763.08 144.504 1758.12L144.706 1753.42C150.172 1625.54 157.659 1450.42 200.304 1288.65C201.861 1282.76 207.887 1279.24 213.777 1280.81C219.667 1282.36 223.18 1288.39 221.626 1294.28C180.012 1452.14 172.315 1624.01 166.903 1750.54C169.862 1751.38 172.701 1752.12 175.458 1752.78C197.008 1758.09 215.048 1759.08 242.204 1760.04C248.288 1760.27 253.047 1765.37 252.829 1771.46C252.605 1777.73 247.21 1782.39 241.414 1782.08Z" fill="#040606"/>
<path d="M218.461 1264.26C212.636 1262.48 209.344 1256.32 211.117 1250.5C242.959 1145.7 284.261 1070.72 327.423 1015.85C331.181 1011.04 338.112 1010.21 342.907 1013.99C347.691 1017.74 348.525 1024.67 344.758 1029.47C292.298 1096.19 256.794 1176 232.214 1256.92C230.435 1262.77 224.247 1265.99 218.461 1264.26Z" fill="#040606"/>
<path d="M236.673 1779.56C230.83 1594.02 282.952 1261.44 312.159 1124.6C313.428 1118.64 319.269 1114.84 325.241 1116.11C331.196 1117.39 334.993 1123.25 333.722 1129.21C305.299 1262.4 255.003 1582.06 258.435 1767.64C433.1 1758.96 694.534 1741.66 866.49 1733.3C872.556 1733.22 877.735 1737.68 878.036 1743.77C878.333 1749.87 873.645 1755.03 867.561 1755.32C692.128 1763.85 424.071 1781.67 248.226 1790.22C241.813 1790.48 236.854 1785.52 236.673 1779.56Z" fill="#040606"/>
<path d="M741.06 863.203C710.374 861.25 689.567 852.735 665.949 839.669C660.619 836.72 658.695 830.002 661.646 824.67C664.588 819.338 671.304 817.404 676.634 820.354C698.117 832.267 715.784 839.493 742.475 841.192C749.543 841.661 757.146 839.63 762.694 835.782C765.399 833.732 768.024 824.631 770.483 808.733L770.887 806.155C771.914 799.73 773.59 772.817 772.116 767.133C769.526 757.173 775.848 752.974 781.422 749.263C782.695 748.404 784.074 747.681 785.453 746.978C785.717 746.822 785.988 746.705 786.252 746.568C785.453 740.299 784.76 747.662 774.6 684.891C769.157 651.221 762.985 613.059 754.968 594.075C752.597 588.47 755.232 582.006 760.833 579.642C766.444 577.279 772.914 579.896 775.285 585.501C790.326 621.144 797.437 702.234 806.823 737.486C808.018 741.959 810.801 752.447 803.645 760.708C800.651 764.165 797.28 765.63 794.443 767.133C794.452 767.172 794.452 767.212 794.46 767.251C795.286 777.114 794.118 800.569 792.662 809.632L792.283 812.112C789.65 829.084 786.181 846.309 775.278 853.887C765.751 860.508 753.345 863.984 741.06 863.203Z" fill="#040606"/>
<path d="M749.535 667.693C767.011 662.429 769.504 688.762 757.884 692.187C738.498 697.898 735.933 671.799 749.535 667.693Z" fill="#231F20"/>
<path d="M190.863 1998.68C183.11 1998.68 175.411 1994.4 170.533 1987.01C166.381 1980.71 165.002 1973.67 163.951 1966.99C152.776 1896.34 156.8 1827.29 161.875 1762.62C162.353 1756.55 167.658 1751.89 173.731 1752.49C179.804 1752.97 184.337 1758.28 183.863 1764.35C178.889 1827.69 174.933 1895.27 185.73 1963.55C186.347 1967.45 187.347 1974.41 190.475 1976.37C191.081 1975.32 192.301 1972.39 192.567 1965.58L196.041 1876.43C196.283 1870.36 201.561 1865.72 207.488 1865.85C213.575 1866.08 218.316 1871.2 218.079 1877.3L214.605 1966.44C213.746 1988.44 204.286 1995.68 196.501 1997.9C194.645 1998.43 192.751 1998.68 190.863 1998.68Z" fill="#040606"/>
<path d="M222.109 2022.19C221.334 2022.19 220.563 2022.15 219.782 2022.06C212.964 2021.28 200.972 2016.57 197.173 1993.9C194.439 1977.53 193.38 1960.79 194.033 1944.17C194.27 1938.09 199.375 1933.1 205.486 1933.58C211.571 1933.83 216.308 1938.96 216.073 1945.03C215.475 1960.15 216.438 1975.37 218.926 1990.26C219.826 1995.64 221.351 1998.72 222.266 1999.87C222.729 1999.48 223.339 1998.8 223.756 1997.88C225.159 1994.76 225.253 1990.13 225.341 1985.67L227.402 1880.9C227.517 1874.88 232.432 1870.09 238.423 1870.09C238.493 1870.09 238.569 1870.09 238.641 1870.09C244.731 1870.21 249.57 1875.24 249.447 1881.32L247.388 1986.11C247.269 1992.18 247.118 1999.7 243.86 2006.94C239.635 2016.3 231.096 2022.19 222.109 2022.19Z" fill="#040606"/>
<path d="M257.49 2038.7C256.708 2038.7 255.925 2038.65 255.139 2038.55C248.335 2037.77 236.331 2033.08 232.545 2010.39L232.103 2007.76C229.407 1991.7 226.048 1971.69 226.688 1955.55C226.932 1949.47 232.065 1944.59 238.141 1944.97C244.228 1945.21 248.966 1950.34 248.726 1956.43C248.175 1970.29 251.325 1989.04 253.855 2004.11L254.296 2006.76C255.196 2012.14 256.723 2015.23 257.634 2016.36C258.097 2015.99 258.706 2015.29 259.12 2014.37C260.53 2011.24 260.624 2006.63 260.713 2002.16C261.115 1981.66 262.282 1958.77 263.409 1936.66C264.22 1920.81 265.017 1905.2 265.515 1890.82C265.727 1884.74 270.836 1879.77 276.918 1880.18C283.003 1880.39 287.765 1885.49 287.554 1891.58C287.052 1906.06 286.247 1921.81 285.433 1937.78C284.313 1959.73 283.156 1982.43 282.758 2002.6C282.639 2008.66 282.488 2016.21 279.223 2023.44C275.006 2032.79 266.474 2038.7 257.49 2038.7Z" fill="#040606"/>
<path d="M745.587 796.153C741.407 791.722 741.601 784.746 746.027 780.554C750.459 776.379 757.431 776.581 761.611 780.993C768.354 788.115 771.54 789.781 772.736 790.166C778.126 788.353 784.069 790.916 786.379 796.208C788.811 801.792 786.264 808.291 780.68 810.727C767.756 816.347 755.289 806.406 745.587 796.153Z" fill="#040606"/>
<path d="M642.416 3040.36C629.421 3034.71 627.648 3034.33 625.198 3033.78C615.961 3031.76 604.907 3027.23 600.983 3025.9C587.488 3020.99 576.829 3017.1 565.936 3003.29C562.164 2998.51 562.986 2991.58 567.766 2987.81C572.544 2984.03 579.489 2984.86 583.247 2989.64C590.262 2998.52 595.987 3000.6 608.525 3005.17C612.318 3006.48 622.696 3010.68 629.922 3012.24C634.066 3013.16 636.902 3013.91 651.196 3020.13C656.78 3022.55 659.343 3029.05 656.92 3034.63C654.488 3040.23 648 3042.76 642.416 3040.36Z" fill="#040606"/>
<path d="M464.887 3127.51C460.832 3127.51 456.665 3127.51 452.365 3127.49C432.011 3127.45 416.789 3107.95 418.511 3086.2L419.904 3068.14C424.13 3012.73 424.329 3017.95 426.63 2996.21C427.273 2990.15 432.674 2985.69 438.755 2986.4C444.809 2987.04 449.199 2992.47 448.561 2998.52C446.189 3020.94 446.088 3014.8 441.892 3069.82L440.491 3087.94C439.842 3096.19 444.833 3105.43 452.419 3105.44C527.58 3105.72 571.447 3103.69 655.041 3103.86C661.126 3103.87 666.051 3108.82 666.034 3114.92C666.025 3120.99 661.091 3125.91 655.006 3125.91C655.006 3125.91 654.988 3125.91 654.98 3125.91C566.019 3125.8 542.989 3127.51 464.887 3127.51Z" fill="#040606"/>
<path d="M671.53 3131.41C650.335 3131.38 631.695 3101.68 633.354 3080.71L634.751 3062.6C638.877 3008.54 639.342 3013.66 639.571 3001.57C639.641 2997.81 639.711 2993.92 640.466 2986.82C641.098 2980.76 646.568 2976.5 652.583 2977C658.641 2977.64 663.031 2983.07 662.39 2989.13C661.74 2995.29 661.679 2998.54 661.617 3001.98C661.371 3015.08 661.503 3001.9 655.331 3082.45C654.839 3088.68 658.948 3098.44 664.682 3104.66C667.86 3108.11 670.555 3109.37 671.583 3109.37C689.301 3109.4 919.337 3108.28 918.538 3108.28C926.887 3108.28 937.581 3087.28 931.172 3075.64C923.481 3061.68 911.979 3050.08 901.162 3045.39C876.42 3034.64 847.841 3032.22 820.263 3022.03C802.791 3015.76 790.358 3012.05 778.874 2997.48C775.099 2992.7 775.924 2985.77 780.709 2982C785.486 2978.24 792.422 2979.06 796.188 2983.83C802.914 2992.36 810.131 2994.95 822.089 2999.23C830.79 3001.96 829.754 3003.31 863.812 3011.32C879.124 3014.93 894.955 3018.65 909.951 3025.16C925.246 3031.81 940.4 3046.7 950.488 3064.99C963.869 3089.27 946.098 3130.33 918.546 3130.33C918.511 3130.33 918.494 3130.33 918.467 3130.33C838.727 3130.09 756.687 3131.63 671.53 3131.41Z" fill="#040606"/>
<path d="M721.716 484.455C719.038 484.455 716.459 482.998 715.168 480.454C711.478 473.231 705.482 467.239 698.265 463.545C694.648 461.698 693.217 457.287 695.06 453.655C696.913 450.063 701.329 448.627 704.955 450.453C714.903 455.542 723.175 463.812 728.258 473.764C730.769 478.689 727.152 484.455 721.716 484.455ZM764.492 506.248C764.063 467.629 735.756 430.836 698.212 423.531C659.106 415.918 623.03 437.731 589.446 460.713C524.009 505.489 436.938 574.744 436.285 658.795C436.174 673.426 437.549 688.119 438.881 702.319C441.271 727.846 443.529 751.978 437.656 775.043C424.244 827.718 370.587 862.767 327.474 890.921C274.152 925.744 223.525 966.128 214.211 1025.21C204.111 1089.27 256.509 1155.22 321.097 1159.98C333.803 1160.93 346.252 1159.74 358.29 1158.61C369.884 1157.52 380.821 1156.49 391.612 1157.25C415.424 1158.96 437.553 1169.22 460.983 1180.07C471.559 1184.98 482.501 1190.04 493.656 1194.29C517.785 1203.46 542.085 1208.08 565.111 1208.08C582.623 1208.08 599.403 1205.41 614.785 1200.04C657.58 1185.1 689.24 1147.77 693.587 1107.16C696.835 1076.69 685.807 1048.35 675.139 1020.98C673.497 1016.75 671.856 1012.52 670.276 1008.34C632.951 908.958 638.087 806.254 648.036 718.899C648.676 713.297 644.997 708.126 639.51 706.895C621.975 702.935 608.938 674.986 619.527 658.939C624.522 651.367 633.749 645.293 640.203 645.293C640.273 645.293 640.343 645.293 640.406 645.314C647.147 645.437 662.486 657.236 664.901 664.151C666.455 668.563 670.635 671.539 675.315 671.539C675.332 671.539 675.358 671.539 675.385 671.539C680.09 671.498 684.26 668.481 685.762 664.008C690.933 648.617 697.529 648.105 715.87 648.864C726.782 649.315 739.154 649.849 751.288 644.165C781.333 630.129 802.317 602.529 806.048 572.159C809.456 544.477 791.817 509.511 764.492 506.248Z" fill="#040606"/>
<path d="M770.795 1228.22C765.554 1228.22 760.91 1224.47 759.952 1219.13C755.448 1193.82 755.448 1168.19 759.952 1142.89C761.024 1136.9 766.721 1132.95 772.744 1133.96C778.741 1135.03 782.736 1140.75 781.666 1146.75C777.618 1169.48 777.618 1192.53 781.666 1215.26C782.736 1221.26 778.741 1226.98 772.744 1228.05C772.095 1228.16 771.437 1228.22 770.795 1228.22Z" fill="#040606"/>
<path d="M726.74 1483.12C721.165 1483.12 716.37 1478.9 715.782 1473.23L706.344 1381.98C705.72 1375.92 710.119 1370.49 716.176 1369.86C722.183 1369.26 727.653 1373.64 728.285 1379.7L737.723 1470.96C738.347 1477.02 733.948 1482.43 727.89 1483.06C727.503 1483.09 727.117 1483.12 726.74 1483.12Z" fill="#040606"/>
<path d="M764.501 1451.65C758.908 1451.65 754.115 1447.41 753.544 1441.73L750.4 1410.25C749.794 1404.19 754.219 1398.78 760.278 1398.19C766.379 1397.48 771.736 1402 772.342 1408.06L775.485 1439.52C776.09 1445.59 771.674 1450.99 765.608 1451.6C765.238 1451.63 764.87 1451.65 764.501 1451.65Z" fill="#040606"/>
<path d="M349.4 1659.23C342.58 1639.45 336.68 1618.5 345.754 1598.92C346.949 1596.34 348.427 1593.77 349.925 1591.23C352.328 1587.09 354.82 1582.83 354.277 1580.5C353.743 1578.2 349.595 1575.17 345.933 1572.49C339.343 1567.7 330.315 1561.11 328.999 1549.46C327.811 1538.92 333.799 1530.9 338.17 1525.03C339.53 1523.21 340.916 1521.39 342.002 1519.49C346.027 1512.47 345.255 1501.79 340.029 1492.31C334.479 1482.23 325.065 1473.86 315.962 1465.78C311.412 1461.74 310.995 1454.77 315.039 1450.22C319.082 1445.65 326.055 1445.25 330.607 1449.3C340.617 1458.18 351.967 1468.26 359.345 1481.67C368.337 1498 369.024 1516.69 361.137 1530.45C359.5 1533.31 357.641 1535.81 355.847 1538.21C353.435 1541.45 350.703 1545.1 350.915 1546.99C351.142 1549.01 355.28 1552.02 358.931 1554.69C365.361 1559.38 373.365 1565.22 375.76 1575.51C379.011 1589.53 369.478 1600.19 365.761 1608.2C360.132 1620.35 364.672 1635.86 370.245 1652.04C372.231 1657.79 369.174 1664.07 363.415 1666.06C357.722 1668.02 351.402 1665.05 349.4 1659.23Z" fill="#040606"/>
<path d="M802.272 1712.84C800.781 1712.84 799.26 1712.55 797.804 1711.9C792.237 1709.43 789.734 1702.91 792.203 1697.35L804.792 1669.03C807.268 1663.47 813.793 1660.97 819.35 1663.43C824.907 1665.9 827.419 1672.42 824.943 1677.98L812.352 1706.3C810.526 1710.41 806.496 1712.84 802.272 1712.84Z" fill="#040606"/>
<path d="M238.975 1448.51C235.881 1448.51 232.801 1447.21 230.62 1444.68L221.934 1434.64C219.185 1431.46 218.485 1426.98 220.136 1423.1L223.898 1414.28L219.756 1362.5C219.268 1356.42 223.796 1351.11 229.867 1350.62C235.939 1350.15 241.254 1354.68 241.736 1360.73L246.093 1415.22C246.236 1417 245.945 1418.77 245.246 1420.43L243.118 1425.43L247.323 1430.29C251.297 1434.89 250.785 1441.86 246.173 1445.84C244.091 1447.62 241.528 1448.51 238.975 1448.51Z" fill="#040606"/>
<path d="M220.469 1610.43L196.777 1595.33C180.676 1599.18 161.687 1589.12 157.539 1571.82C156.121 1565.89 159.775 1559.93 165.697 1558.51C171.595 1557.07 177.567 1560.76 178.988 1566.66C180.267 1572.05 188.264 1575.79 193.235 1573.3C196.712 1571.56 200.839 1571.78 204.11 1573.86L232.314 1591.81C237.45 1595.08 238.965 1601.9 235.691 1607.05C232.424 1612.18 225.596 1613.69 220.469 1610.43Z" fill="#040606"/>
<path d="M64.2653 1517.87C63.9662 1517.87 63.6637 1517.85 63.3548 1517.84C57.2853 1517.35 52.7704 1512.02 53.2657 1505.95C64.6543 1366.81 99.3794 1231.66 156.478 1104.25C158.969 1098.69 165.493 1096.22 171.045 1098.69C176.606 1101.19 179.089 1107.72 176.599 1113.27C120.53 1238.39 86.4297 1371.11 75.2453 1507.75C74.7713 1513.5 69.9474 1517.87 64.2653 1517.87Z" fill="#040606"/>
<path d="M800.71 2644.16C800.131 2647.78 797.013 2650.35 793.457 2650.35C793.071 2650.35 792.686 2650.32 792.299 2650.26C788.286 2649.62 785.556 2645.85 786.188 2641.84C797.058 2573.63 800.746 2420.25 796.039 2347.2C795.389 2337.22 794.591 2327.23 793.792 2317.27C792.351 2299.36 790.859 2280.86 790.342 2262.5C789.955 2249.29 790.078 2221.5 790.2 2189.3C790.429 2133.05 790.709 2063.04 788.445 2040.25C784.371 1999.26 772.096 1966.91 751.947 1944.11C749.26 1941.07 749.54 1936.42 752.587 1933.74C755.624 1931.05 760.269 1931.34 762.965 1934.37C785.196 1959.54 798.69 1994.68 803.072 2038.8C805.417 2062.34 805.126 2132.78 804.907 2189.38C804.775 2221.42 804.661 2249.11 805.03 2262.09C805.547 2280.05 807.023 2298.38 808.446 2316.09C809.252 2326.14 810.06 2336.19 810.71 2346.26C815.47 2420.03 811.711 2575.09 800.71 2644.16ZM714.06 2906.98C699.775 2893.99 689.986 2876.38 686.517 2857.39C685.841 2853.71 688.036 2850.11 691.618 2849.03C695.21 2847.94 699.02 2849.73 700.495 2853.17C705.07 2863.83 720.628 2886.67 725.765 2898.64C728.881 2905.92 719.837 2912.21 714.06 2906.98ZM678.58 2019.57C675.138 2019.57 672.075 2017.16 671.381 2013.67L666.324 1988.4C665.524 1984.42 668.106 1980.54 672.092 1979.75C676.043 1978.93 679.941 1981.53 680.74 1985.52L685.789 2010.78C686.701 2015.33 683.216 2019.57 678.58 2019.57ZM480.687 2907.93L453.79 2898.36C449.963 2897 447.968 2892.79 449.333 2888.96C450.689 2885.14 454.885 2883.14 458.721 2884.51L470.088 2888.56L452.286 2845.21C450.045 2839.77 454.829 2834.02 460.557 2835.22L469.375 2837.01C467.943 2819.99 459.013 2803.48 445.287 2793.32C442.025 2790.91 441.339 2786.3 443.754 2783.04C446.17 2779.77 450.767 2779.07 454.037 2781.5C473.969 2796.26 485.777 2821.78 484.118 2846.52C483.979 2848.64 482.932 2850.59 481.244 2851.88C477.527 2854.7 473.658 2852.61 471.123 2852.38L489.948 2898.21C492.36 2904.09 486.647 2910.06 480.687 2907.93ZM429.77 2634.49C429.199 2638.58 425.39 2641.32 421.472 2640.75C417.452 2640.19 414.65 2636.48 415.213 2632.46C422.919 2577.48 394.47 2439.59 379.485 2381.42C371.547 2350.62 373.183 2326.48 384.326 2309.56C368.972 2298.32 342.354 2275.23 349.965 2246.4C352.346 2236.04 357.406 2118.01 362.257 2107.71C367.917 2095.71 367.017 2080.51 359.848 2067.06C352.677 2053.62 340.563 2044.39 327.44 2042.4C323.428 2041.8 320.669 2038.05 321.278 2034.04C321.888 2030.03 325.639 2027.29 329.653 2027.87C347.341 2030.56 363.476 2042.63 372.82 2060.15C382.163 2077.68 383.186 2097.8 375.555 2113.98C372.403 2123.88 366.625 2240.89 364.177 2250.15C360.01 2265.94 371.406 2282.88 399.019 2301.94C402.685 2304.46 403.279 2309.68 400.255 2312.96C388.218 2326.06 386.018 2347.86 393.72 2377.74C405.827 2424.72 438.428 2572.74 429.77 2634.49ZM308.855 1803.06C311.452 1799.95 316.088 1799.53 319.207 1802.12L369.558 1844.08C372.676 1846.68 373.096 1851.32 370.497 1854.44C367.901 1857.56 363.266 1857.97 360.146 1855.38L309.796 1813.42C306.676 1810.81 306.257 1806.19 308.855 1803.06ZM358.215 1793.6C361.407 1791.07 366.025 1791.65 368.535 1794.84L391.613 1824.2C394.123 1827.41 393.57 1832.03 390.378 1834.53C387.192 1837.04 382.564 1836.49 380.055 1833.3L356.977 1803.93C354.468 1800.73 355.022 1796.11 358.215 1793.6ZM939.766 2337.58C933.569 2299.4 925.316 2238.88 915.754 2168.8C894.26 2011.15 867.5 1814.94 846.305 1742.8C844.882 1737.95 840.379 1734.77 835.295 1734.88C646.832 1742.25 453.979 1763 265.94 1770.34C259.723 1770.58 254.915 1775.95 255.371 1782.18C270.576 1987.41 384.029 2859.12 390.835 2993.2C391.093 2998.33 394.859 3002.59 399.911 3003.49C476.163 3017.09 552.662 3013.27 622.143 2995.5C602.229 2816.05 582.738 2533.65 577.716 2351.33C577.233 2333.98 576.872 2314.53 576.496 2293.56C574.046 2160.17 570.351 1958.59 525.115 1857.14C523.464 1853.42 525.131 1849.08 528.837 1847.43C532.534 1845.75 536.891 1847.44 538.547 1851.14C584.995 1955.34 588.726 2158.72 591.193 2293.29C591.571 2314.22 591.93 2333.62 592.405 2350.92C597.445 2533.55 617.015 2816.83 636.963 2995.84C637.042 2996.52 636.901 2997.15 636.797 2997.79C702.154 3006.72 777.153 2997.63 837.797 2990.22C842.529 2989.64 846.357 2986.1 847.279 2981.42C855.314 2940.85 948.355 2390.48 939.766 2337.58Z" fill="#040606"/>
<path d="M1030.85 1484.93C1018.51 1484.93 1006.88 1483.34 996.612 1479.44C916.528 1449.07 862.383 1397.95 835.674 1327.47C833.522 1321.79 836.384 1315.42 842.083 1313.25C847.781 1311.09 854.147 1313.97 856.298 1319.67C881.005 1384.87 929.463 1430.4 1004.43 1458.83C1035.35 1470.56 1087.87 1454.75 1126.22 1443.2C1134.22 1440.77 1141.63 1438.55 1148.19 1436.76C1194.71 1424.07 1243.32 1407.82 1296.83 1387.08C1319.9 1378.12 1319.9 1378.12 1312.5 1353.28C1311.4 1349.64 1310.23 1345.63 1309.01 1341.24C1301.22 1313.18 1292.04 1285.14 1281.68 1257.92C1279.54 1252.24 1282.39 1245.85 1288.08 1243.71C1293.79 1241.54 1300.15 1244.4 1302.3 1250.09C1312.89 1277.94 1322.28 1306.62 1330.26 1335.35C1331.43 1339.61 1332.59 1343.45 1333.63 1346.99C1342.33 1376.13 1344.99 1392.04 1304.8 1407.64C1250.59 1428.66 1201.26 1445.15 1153.99 1458.04C1147.61 1459.78 1140.38 1461.96 1132.58 1464.31C1102.4 1473.4 1064.09 1484.93 1030.85 1484.93Z" fill="#040606"/>
<path d="M1022.23 1319.72C1018.86 1319.72 1015.53 1318.17 1013.36 1315.27C997.094 1293.31 996.461 1260.98 1011.85 1238.41C1015.29 1233.37 1022.14 1232.07 1027.17 1235.51C1032.21 1238.94 1033.51 1245.8 1030.07 1250.82C1019.97 1265.65 1020.4 1287.71 1031.08 1302.13C1034.71 1307.01 1033.68 1313.93 1028.79 1317.55C1026.81 1319 1024.51 1319.72 1022.23 1319.72Z" fill="#040606"/>
<path d="M998.777 1430.55C995.378 1430.55 992.033 1428.99 989.873 1426.04C978.802 1410.94 962.962 1399.21 945.28 1393.05C941.442 1391.72 938.651 1388.37 938.018 1384.36C935.112 1365.89 923.944 1348.85 908.157 1338.82C903.013 1335.56 901.494 1328.75 904.76 1323.61C908.034 1318.46 914.848 1316.94 919.985 1320.22C939.195 1332.44 953.279 1352.39 958.537 1374.52C977.958 1382.57 995.229 1396.07 1007.65 1412.99C1011.26 1417.91 1010.2 1424.81 1005.28 1428.42C1003.31 1429.84 1001.03 1430.55 998.777 1430.55Z" fill="#040606"/>
<path d="M1199.82 1346.91C1194.22 1346.91 1189.44 1342.66 1188.87 1336.98C1188.26 1330.91 1192.68 1325.51 1198.74 1324.91L1232.33 1321.57C1238.34 1320.9 1243.8 1325.37 1244.4 1331.44C1245.01 1337.5 1240.6 1342.89 1234.53 1343.5L1200.93 1346.85C1200.56 1346.9 1200.2 1346.91 1199.82 1346.91Z" fill="#040606"/>
<path d="M1212.91 1386.87C1210.02 1386.87 1207.13 1385.72 1204.96 1383.47C1200.74 1379.09 1200.88 1372.1 1205.27 1367.89L1212.1 1361.3C1216.48 1357.08 1223.47 1357.2 1227.7 1361.59C1231.92 1365.97 1231.78 1372.95 1227.4 1377.18L1220.56 1383.78C1218.41 1385.83 1215.65 1386.87 1212.91 1386.87Z" fill="#040606"/>
<path d="M2241.95 871.565H1075.27C1037.85 871.565 1007.41 841.123 1007.41 803.702V603.085C1007.41 597 1012.34 592.063 1018.44 592.063C1024.52 592.063 1029.46 597 1029.46 603.085V803.702C1029.46 828.973 1050.01 849.521 1075.27 849.521H2241.95C2248.06 849.521 2252.98 854.459 2252.98 860.543C2252.98 866.628 2248.06 871.565 2241.95 871.565Z" fill="#040606"/>
<path d="M3157.44 707.26C3155.84 653.084 3154.25 598.929 3152.65 544.753C3151.87 517.814 3150.93 490.173 3140.49 465.339C3130.07 440.484 3103.47 415.777 3076.6 413.842C3046.74 411.695 3017.04 407.591 2987.1 407.591C2986.34 407.591 1195.93 407.591 1195.12 407.591C1157.9 407.889 1119.98 401.786 1083.99 414.926C1052.62 426.387 1035.26 446.713 1021.73 472.738C1012.79 484.22 1007.41 498.615 1007.41 514.285V554.449C1007.41 560.53 1012.34 565.484 1018.44 565.484C1024.52 565.484 1029.45 560.53 1029.45 554.449V514.285C1029.45 489.025 1050.01 468.465 1075.27 468.465H1346.9C1348.44 462.618 1350.76 456.941 1353.53 451.71C1359.21 440.994 1373.18 438.613 1383.23 443.928C1392.15 448.627 1395.25 459.237 1392.9 468.465H3040.75C3066.01 468.465 3086.55 489.025 3086.55 514.285V803.705C3086.55 828.965 3066.01 849.525 3040.75 849.525H2302.57C2296.47 849.525 2291.53 854.458 2291.53 860.539C2291.53 866.642 2296.47 871.574 2302.57 871.574H3040.75C3048.36 871.574 3055.65 870.256 3062.5 867.938C3087.74 864.09 3125.03 838.214 3140.57 805.81C3155.25 775.278 3158.44 741.11 3157.44 707.26Z" fill="#040606"/>
<path d="M1338.39 1386.83C1333.26 1386.83 1328.66 1383.22 1327.61 1378C1326.39 1372.03 1330.24 1366.2 1336.19 1364.99C1362.24 1359.69 1386.94 1355.81 1414.23 1351.66L1423.49 1350.26C1451.11 1346.08 1479.63 1341.77 1508.56 1335.89C1510.53 1335.52 1512.33 1335.11 1514.19 1334.69C1552.27 1326.48 1579.57 1315.42 1595.47 1301.85C1610.68 1288.9 1625.63 1269.69 1624.79 1255.93C1624.59 1252.42 1623.37 1247.17 1615.39 1241.92C1610.29 1238.57 1608.89 1231.73 1612.24 1226.65C1615.61 1221.55 1622.45 1220.16 1627.52 1223.5C1642.49 1233.36 1646.27 1245.85 1646.8 1254.58C1648.56 1283.29 1618.91 1310.86 1609.78 1318.62C1590.83 1334.81 1561.1 1347.13 1518.93 1356.23C1516.9 1356.68 1514.86 1357.13 1512.8 1357.52C1483.5 1363.49 1454.66 1367.86 1426.8 1372.06L1417.55 1373.45C1390.56 1377.58 1366.13 1381.4 1340.6 1386.61C1339.86 1386.75 1339.12 1386.83 1338.39 1386.83Z" fill="#040606"/>
<path d="M1542.97 1302.69C1537.01 1302.69 1532.1 1297.93 1531.95 1291.95C1531.79 1285.86 1536.59 1280.8 1542.69 1280.64C1555.88 1280.29 1577.57 1270.01 1587.32 1259.48C1599.21 1246.64 1607.26 1237.22 1610.91 1223.67C1613.51 1214.08 1609.8 1203.02 1601.46 1195.5C1596.92 1191.42 1596.56 1184.44 1600.63 1179.92C1604.73 1175.39 1611.71 1175.04 1616.21 1179.11C1630.66 1192.14 1636.96 1211.89 1632.22 1229.43C1626.85 1249.23 1614.47 1262.63 1603.5 1274.45C1589.58 1289.52 1562.55 1302.18 1543.26 1302.69C1543.16 1302.69 1543.07 1302.69 1542.97 1302.69Z" fill="#040606"/>
<path d="M1536.48 1274.66C1531.64 1274.66 1527.21 1271.46 1525.85 1266.56C1524.24 1260.7 1527.67 1254.62 1533.55 1253C1554.03 1247.34 1572.29 1233.41 1583.68 1214.77C1592.85 1199.78 1597.41 1181.75 1596.5 1164.06C1596.39 1161.97 1595.49 1159.97 1594.07 1158.75C1592.69 1157.54 1591.45 1157.67 1591.01 1157.68C1585.12 1158.13 1579.61 1153.88 1578.96 1147.89C1578.32 1141.91 1582.51 1136.53 1588.47 1135.78C1596.1 1135.05 1603.04 1137.34 1608.54 1142.09C1614.47 1147.25 1618.12 1154.85 1618.52 1162.95C1619.65 1185.02 1613.97 1207.51 1602.51 1226.27C1588.24 1249.65 1565.25 1267.12 1539.43 1274.26C1538.45 1274.53 1537.45 1274.66 1536.48 1274.66Z" fill="#040606"/>
<path d="M1298.53 1250.84C1292.74 1250.84 1287.89 1246.35 1287.53 1240.49C1287.16 1234.41 1291.79 1229.2 1297.86 1228.82C1327.53 1226.99 1352.38 1203.92 1374.79 1179.24C1379.97 1173.52 1385.47 1165.85 1391.31 1157.73C1410.87 1130.48 1435.23 1096.58 1473.72 1100.67C1478.51 1101.18 1482.41 1104.75 1483.36 1109.48C1486.07 1123.16 1479.72 1138.72 1473.55 1153.76C1468.62 1165.83 1463.03 1179.51 1465.1 1186.64C1466.74 1192.3 1469.73 1195.71 1474.24 1197.13C1481.27 1199.32 1491.75 1196.54 1499.18 1190.51C1511.2 1180.74 1520.38 1168.2 1525.76 1154.23L1527.2 1150.37C1531.14 1139.7 1536.06 1126.43 1549.23 1120.74C1556.36 1117.7 1564.09 1118.01 1571.05 1121.59C1576.7 1124.27 1582.07 1129.5 1585.84 1136.2C1591.87 1146.94 1592.26 1161.76 1586.85 1174.92C1580.12 1191.48 1570.13 1206.42 1557.19 1219.3C1548.3 1228.17 1538.07 1236 1525.91 1243.22C1520.66 1246.35 1513.89 1244.63 1510.79 1239.37C1507.68 1234.14 1509.4 1227.37 1514.64 1224.26C1525.2 1217.99 1534.03 1211.25 1541.61 1203.67C1552.47 1192.88 1560.82 1180.41 1566.44 1166.57C1569.27 1159.69 1569.35 1151.84 1566.64 1147.02C1565.13 1144.36 1563.14 1142.23 1561.31 1141.37C1559.64 1140.53 1558.81 1140.63 1557.89 1141.01C1553.46 1142.92 1550.62 1150.6 1547.89 1158.02L1546.34 1162.14C1539.6 1179.71 1528.1 1195.43 1513.09 1207.63C1499.72 1218.5 1481.89 1222.61 1467.65 1218.18C1456.05 1214.56 1447.63 1205.53 1443.92 1192.79C1439.71 1178.27 1446.54 1161.57 1453.16 1145.4C1456.21 1137.93 1459.53 1129.81 1461.07 1123.06C1440.36 1127.23 1423.95 1150.09 1409.22 1170.59C1403.01 1179.25 1397.16 1187.41 1391.11 1194.06C1365.57 1222.19 1336.75 1248.54 1299.21 1250.82C1298.98 1250.84 1298.75 1250.84 1298.53 1250.84Z" fill="#040606"/>
<path d="M1563.91 1046.28C1556.3 1046.28 1548.91 1045.66 1541.92 1044.42C1493.17 1035.77 1459.76 1004.13 1452.5 959.771C1451.52 953.745 1455.59 948.081 1461.6 947.097C1467.63 946.112 1473.28 950.205 1474.26 956.214C1479.92 990.922 1506.66 1015.77 1545.75 1022.69C1581.67 1029.03 1629.91 1015.82 1648.53 982.702C1651.53 977.401 1658.25 975.502 1663.55 978.489C1668.85 981.476 1670.75 988.211 1667.76 993.512C1647.4 1029.69 1602.99 1046.28 1563.91 1046.28Z" fill="#040606"/>
<path d="M1452.77 1464.77C1450.69 1464.77 1448.6 1464.66 1446.55 1464.47C1431.97 1463.11 1417.09 1454.86 1404.71 1441.28C1394.9 1430.54 1391.19 1415.44 1394.82 1400.91L1405.2 1359.85C1406.71 1353.94 1412.73 1350.39 1418.59 1351.87C1424.51 1353.36 1428.08 1359.34 1426.59 1365.24L1416.22 1406.28C1414.38 1413.6 1416.18 1421.13 1421.01 1426.4C1429.69 1435.95 1439.49 1441.67 1448.62 1442.52C1462.76 1443.86 1479.62 1438.45 1483.15 1425.82C1492.51 1392.48 1499.76 1366.04 1505.95 1342.62C1507.52 1336.74 1513.53 1333.22 1519.43 1334.79C1525.31 1336.33 1528.83 1342.38 1527.28 1348.26C1521.05 1371.79 1513.77 1398.33 1504.37 1431.78C1498.13 1454.08 1474.74 1464.77 1452.77 1464.77Z" fill="#040606"/>
<path d="M1566.04 1142.44C1565.33 1142.44 1564.61 1142.37 1563.9 1142.22C1557.93 1141.06 1554.03 1135.27 1555.2 1129.29C1556.16 1124.42 1560.7 1104.72 1565.52 1083.88C1570.42 1062.57 1576 1038.42 1577 1033.16C1578.16 1027.16 1583.97 1023.25 1589.9 1024.39C1595.9 1025.53 1599.81 1031.33 1598.67 1037.31C1597.58 1042.98 1592.44 1065.25 1587 1088.83C1582.43 1108.58 1577.73 1129.02 1576.84 1133.52C1575.81 1138.8 1571.19 1142.44 1566.04 1142.44Z" fill="#040606"/>
<path d="M1470.44 1139.86C1469.39 1139.86 1468.35 1139.72 1467.3 1139.42C1461.46 1137.69 1458.12 1131.54 1459.86 1125.71L1492.69 1015.09L1503.37 1017.82L1513.93 1021.02L1481 1131.98C1479.58 1136.76 1475.19 1139.86 1470.44 1139.86Z" fill="#040606"/>
<path d="M1495.99 1404.29C1497.83 1424.17 1484.63 1444.47 1465.72 1450.88C1446.81 1457.27 1424.01 1449.16 1413.39 1432.23C1401.93 1413.94 1402.03 1381.97 1428.32 1393.55C1451.3 1403.68 1470.07 1413.08 1495.99 1404.29Z" fill="#151516"/>
<path d="M1418.36 1402.13C1418.04 1402.13 1417.9 1402.16 1417.9 1402.16C1416.4 1403.99 1416.21 1415.97 1422.73 1426.38C1430.69 1439.05 1447.98 1445.21 1462.18 1440.43C1472.16 1437.06 1480.07 1428.43 1483.41 1418.4C1462.5 1420.74 1445.29 1413.14 1427.31 1405.16L1423.87 1403.65C1420.85 1402.32 1419.13 1402.13 1418.36 1402.13ZM1452.12 1464.1C1433.14 1464.1 1414.28 1454.43 1404.05 1438.1C1394.5 1422.87 1390.96 1399.77 1401.57 1387.51C1404.92 1383.63 1414.65 1375.47 1432.76 1383.47L1436.25 1385.01C1456.94 1394.18 1471.89 1400.83 1492.44 1393.85C1495.63 1392.78 1499.16 1393.2 1501.98 1395.05C1504.82 1396.89 1506.65 1399.92 1506.96 1403.29C1509.27 1428.31 1493.05 1453.26 1469.26 1461.32C1463.68 1463.21 1457.9 1464.1 1452.12 1464.1Z" fill="#040606"/>
<path d="M1742.16 876.056C1679.86 907.813 1608.94 913.412 1542.47 891.816C1476.01 870.22 1421.93 824.044 1390.18 761.785C1324.68 633.245 1375.94 475.348 1504.46 409.803C1633.52 343.998 1790.88 395.448 1856.43 524.075C1921.98 652.614 1870.7 810.511 1742.16 876.056ZM1340.85 737.789C1339.8 738.308 1338.69 738.567 1337.58 738.567C1334.87 738.567 1332.28 737.075 1330.99 734.503C1289.09 650.582 1302.23 555.442 1370.05 451.741C1372.26 448.347 1376.82 447.375 1380.21 449.601C1383.62 451.828 1384.57 456.389 1382.35 459.783C1317.6 558.815 1304.74 649.026 1344.15 727.931C1345.96 731.563 1344.48 735.973 1340.85 737.789ZM1685.06 331.135C1723.6 336.972 1759.59 357.855 1783.81 388.401C1786.34 391.579 1785.8 396.205 1782.62 398.713C1781.27 399.794 1779.66 400.312 1778.06 400.312C1775.89 400.312 1773.75 399.361 1772.29 397.524C1750.36 369.853 1717.76 350.959 1682.86 345.684C1678.85 345.057 1676.08 341.317 1676.7 337.296C1677.3 333.297 1681.04 330.53 1685.06 331.135ZM1940.16 481.379C1851.07 306.686 1636.48 237.011 1461.78 326.077C1286.71 415.315 1217.15 629.332 1306.47 804.436C1369.28 927.55 1494.39 998.5 1623.94 998.5C1678.21 998.5 1733.27 986.048 1784.84 959.761C1959.53 870.695 2029.2 656.095 1940.16 481.379Z" fill="#040606"/>
<path d="M2674.58 859.73C2668.48 859.73 2663.54 854.792 2663.54 848.695V459.105C2663.54 453.029 2668.48 448.09 2674.58 448.09C2680.65 448.09 2685.59 453.029 2685.59 459.105V848.695C2685.59 854.792 2680.65 859.73 2674.58 859.73Z" fill="#040606"/>
<path d="M2852.62 552.429C2807.76 552.429 2771.26 588.926 2771.26 633.792C2771.26 678.638 2807.76 715.155 2852.62 715.155C2897.49 715.155 2933.99 678.638 2933.99 633.792C2933.99 588.926 2897.49 552.429 2852.62 552.429ZM2852.62 737.197C2795.61 737.197 2749.2 690.81 2749.2 633.792C2749.2 576.774 2795.61 530.386 2852.62 530.386C2909.64 530.386 2956.03 576.774 2956.03 633.792C2956.03 690.81 2909.64 737.197 2852.62 737.197Z" fill="#040606"/>
<path d="M2986.98 779.189C2984.21 779.189 2981.43 778.155 2979.3 776.066L2912.11 710.545C2907.75 706.286 2907.65 699.328 2911.91 694.946C2916.17 690.585 2923.15 690.524 2927.49 694.764L2994.69 760.264C2999.05 764.524 2999.13 771.501 2994.87 775.863C2992.72 778.074 2989.84 779.189 2986.98 779.189Z" fill="#040606"/>
<path d="M3332.04 1266.62C3398.01 1317.77 3491.98 1330.09 3568.9 1297.66C3645.82 1265.24 3702.64 1189.36 3712.06 1106.41C3721.5 1023.46 3687.02 953.412 3619.35 904.548C3677.78 961.47 3702.52 1031.42 3687.37 1111.57C3672.19 1191.7 3613.02 1262.57 3536.13 1289.83C3459.26 1317.1 3367.56 1298.76 3308.44 1242.57" fill="#C2C3C1"/>
<path d="M3234.29 1142.3C3232.52 1136.49 3235.79 1130.31 3241.6 1128.54C3247.4 1126.77 3253.59 1130 3255.38 1135.82C3295.64 1266.92 3446.93 1329.6 3567.99 1264.92C3573.37 1262.08 3580.06 1264.08 3582.92 1269.46C3585.79 1274.83 3583.76 1281.49 3578.38 1284.38C3545.02 1302.2 3508.74 1311.68 3470.55 1312.57C3360.44 1314.72 3265.26 1243.06 3234.29 1142.3Z" fill="#040606"/>
<path d="M3594.42 1262.14C3590.77 1257.27 3591.76 1250.35 3596.62 1246.72C3645.27 1210.18 3678.96 1153.49 3683.83 1087.55C3693.56 958.075 3588.74 848.238 3459.98 851.87C3429.52 852.562 3400.22 859.355 3372.9 872.053C3367.39 874.598 3360.82 872.227 3358.25 866.693C3355.71 861.184 3358.1 854.637 3363.61 852.043C3530.49 774.495 3719.53 906.121 3705.82 1089.18C3700.51 1161.37 3663.7 1223.94 3609.86 1264.34C3605 1267.99 3598.08 1267.03 3594.42 1262.14Z" fill="#040606"/>
<path d="M3223.69 1078.62L3223.67 1076.7C3221.9 1000.12 3257.14 926.52 3317.89 879.814C3322.72 876.102 3329.65 876.996 3333.36 881.826C3337.07 886.655 3336.18 893.586 3331.35 897.298C3276.12 939.756 3244.13 1006.61 3245.72 1076.21L3245.76 1078.09C3245.89 1084.19 3241.09 1089.24 3234.98 1089.38C3228.43 1089.38 3223.85 1084.37 3223.69 1078.62Z" fill="#040606"/>
<path d="M3494.33 1308.69C3488.85 1306.04 3486.56 1299.44 3489.23 1293.98C3556.42 1155.39 3551.44 985.835 3476.26 851.424C3473.25 846.13 3475.16 839.406 3480.48 836.425C3485.8 833.469 3492.52 835.352 3495.48 840.67C3574.16 981.257 3579.36 1158.64 3509.07 1303.59C3506.4 1309.1 3499.77 1311.34 3494.33 1308.69Z" fill="#040606"/>
<path d="M3444.35 1308.47C3440.19 1308.47 3436.18 1306.09 3434.33 1302.04C3365.66 1151.84 3369.87 961.713 3444.61 839.652C3447.8 834.442 3454.61 832.845 3459.77 836.017C3464.98 839.189 3466.6 845.972 3463.43 851.159C3392.3 967.339 3388.58 1148.97 3454.4 1292.87C3456.92 1298.4 3454.47 1304.93 3448.94 1307.48C3447.45 1308.15 3445.9 1308.47 3444.35 1308.47Z" fill="#040606"/>
<path d="M3270.13 960.285C3264.51 957.915 3261.89 951.465 3264.24 945.845C3266.61 940.225 3273.06 937.586 3278.68 939.956C3390.13 986.772 3536.1 990.755 3658.98 942.131C3664.6 939.858 3671.02 942.644 3673.27 948.313C3675.52 953.981 3672.73 960.383 3667.09 962.631C3543.21 1011.67 3390.98 1011.06 3270.13 960.285Z" fill="#040606"/>
<path d="M3293.53 1233.16C3288.99 1233.16 3284.72 1230.32 3283.12 1225.79C3281.11 1220.04 3284.17 1213.73 3289.92 1211.74C3405.21 1171.51 3525.79 1170.52 3638.61 1208.8C3644.39 1210.77 3647.47 1217.03 3645.53 1222.8C3643.56 1228.55 3637.3 1231.61 3631.53 1229.69C3523.39 1192.98 3407.78 1193.98 3297.17 1232.56C3295.98 1232.99 3294.74 1233.16 3293.53 1233.16Z" fill="#040606"/>
<path d="M3269.09 1109.21C3263.1 1109.21 3258.2 1104.46 3258.06 1098.45C3257.93 1092.37 3262.74 1087.32 3268.84 1087.17L3694.76 1077.32C3701.09 1077.22 3705.92 1082 3706.04 1088.11C3706.19 1094.19 3701.36 1099.24 3695.28 1099.38L3269.33 1109.21C3269.26 1109.21 3269.16 1109.21 3269.09 1109.21Z" fill="#040606"/>
<path d="M3633.09 1051.29L3629.37 1012.2C3628.81 1006.14 3633.26 1000.77 3639.31 1000.19C3645.27 999.53 3650.76 1004.05 3651.32 1010.13L3655.04 1049.22C3655.6 1055.28 3651.15 1060.65 3645.07 1061.23C3639.16 1061.84 3633.67 1057.44 3633.09 1051.29Z" fill="#040606"/>
<path d="M3604.54 1316.65C3610.08 1339.6 3634.27 1353.19 3657.4 1357.88C3718.94 1370.36 3767.96 1335.35 3774.05 1289.96C3777.43 1264.94 3765.38 1237.81 3743.15 1225.83C3755.4 1240.57 3757.31 1262.16 3750.94 1280.22C3737.69 1317.72 3685.54 1351.81 3642.91 1341.17C3618.13 1334.99 3597.23 1310.81 3600.49 1285.49C3602.24 1306.93 3610.53 1327.79 3623.97 1344.6L3604.54 1316.65Z" fill="#C2C3C1"/>
<path d="M3724.55 1237.99L3667 1295.56C3664.11 1298.43 3659.46 1298.43 3656.6 1295.56L3629.75 1268.71C3626.87 1265.84 3626.87 1261.2 3629.75 1258.32C3632.61 1255.45 3637.26 1255.45 3640.14 1258.32L3661.79 1279.97L3714.16 1227.59C3717.01 1224.74 3721.67 1224.74 3724.55 1227.59C3727.41 1230.47 3727.41 1235.13 3724.55 1237.99ZM3675.36 1161.29C3620.21 1161.29 3575.35 1206.18 3575.35 1261.32C3575.35 1316.47 3620.21 1361.35 3675.36 1361.35C3730.51 1361.35 3775.4 1316.47 3775.4 1261.32C3775.4 1206.18 3730.51 1161.29 3675.36 1161.29Z" fill="#040606"/>
<path d="M2780.35 2181.65H1830.27C1785.92 2181.65 1749.84 2145.56 1749.84 2101.22V1503.93C1749.84 1497.85 1754.78 1492.91 1760.87 1492.91C1766.95 1492.91 1771.89 1497.85 1771.89 1503.93V2101.22C1771.89 2133.41 1798.07 2159.59 1830.27 2159.59H2780.35C2786.43 2159.59 2791.38 2164.54 2791.38 2170.62C2791.38 2176.72 2786.43 2181.65 2780.35 2181.65Z" fill="#040606"/>
<path d="M3030.93 2181.64H2863.17C2857.08 2181.64 2852.13 2176.71 2852.13 2170.62C2852.13 2164.53 2857.08 2159.59 2863.17 2159.59H3030.93C3063.13 2159.59 3089.3 2133.41 3089.3 2101.21V1280.57C3089.3 1248.38 3063.13 1222.19 3030.93 1222.19H1830.29C1798.09 1222.19 1771.9 1248.38 1771.9 1280.57V1420.05C1771.9 1426.13 1766.96 1431.08 1760.88 1431.08C1754.78 1431.08 1749.85 1426.13 1749.85 1420.05V1280.57C1749.85 1236.22 1785.93 1200.14 1830.29 1200.14H3030.93C3075.27 1200.14 3111.36 1236.22 3111.36 1280.57V2101.21C3111.36 2145.56 3075.27 2181.64 3030.93 2181.64Z" fill="#040606"/>
<path d="M1895.02 1581.2H2022.97V1462.26H1895.02V1581.2ZM2034 1603.25H1884C1877.91 1603.25 1872.97 1598.32 1872.97 1592.23V1451.23C1872.97 1445.14 1877.91 1440.21 1884 1440.21H2034C2040.09 1440.21 2045.02 1445.14 2045.02 1451.23V1592.23C2045.02 1598.32 2040.09 1603.25 2034 1603.25Z" fill="#040606"/>
<path d="M1895.02 1814.54H2022.97V1695.6H1895.02V1814.54ZM2034 1836.59H1884C1877.91 1836.59 1872.97 1831.66 1872.97 1825.57V1684.57C1872.97 1678.48 1877.91 1673.55 1884 1673.55H2034C2040.09 1673.55 2045.02 1678.48 2045.02 1684.57V1825.57C2045.02 1831.66 2040.09 1836.59 2034 1836.59Z" fill="#040606"/>
<path d="M1895.02 2047.21H2022.97V1928.26H1895.02V2047.21ZM2034 2069.26H1884C1877.91 2069.26 1872.97 2064.32 1872.97 2058.23V1917.24C1872.97 1911.15 1877.91 1906.21 1884 1906.21H2034C2040.09 1906.21 2045.02 1911.15 2045.02 1917.24V2058.23C2045.02 2064.32 2040.09 2069.26 2034 2069.26Z" fill="#040606"/>
<path d="M3086.65 1367.5H1866.79C1860.69 1367.5 1855.77 1362.57 1855.77 1356.47C1855.77 1350.39 1860.69 1345.46 1866.79 1345.46H3086.65C3092.72 1345.46 3097.65 1350.39 3097.65 1356.47C3097.65 1362.57 3092.72 1367.5 3086.65 1367.5Z" fill="#040606"/>
<path d="M1938.07 1281.78C1938.07 1297.87 1924.56 1310.94 1907.91 1310.94C1891.26 1310.94 1877.75 1297.87 1877.75 1281.78C1877.75 1265.68 1891.26 1252.63 1907.91 1252.63C1924.56 1252.63 1938.07 1265.68 1938.07 1281.78Z" fill="#040606"/>
<path d="M2032.64 1281.78C2032.64 1297.87 2019.14 1310.94 2002.48 1310.94C1985.83 1310.94 1972.34 1297.87 1972.34 1281.78C1972.34 1265.68 1985.83 1252.63 2002.48 1252.63C2019.14 1252.63 2032.64 1265.68 2032.64 1281.78Z" fill="#040606"/>
<path d="M2135.42 1281.78C2135.42 1297.87 2121.93 1310.94 2105.28 1310.94C2088.62 1310.94 2075.12 1297.87 2075.12 1281.78C2075.12 1265.68 2088.62 1252.63 2105.28 1252.63C2121.93 1252.63 2135.42 1265.68 2135.42 1281.78Z" fill="#040606"/>
<path d="M1964.38 1559.18C1961.14 1559.18 1957.95 1557.77 1955.78 1555.07L1928.28 1520.86C1924.46 1516.11 1925.21 1509.17 1929.97 1505.37C1934.73 1501.55 1941.66 1502.3 1945.47 1507.05L1966.66 1533.41C1999.3 1512.29 2034.83 1495.93 2069.3 1480.07C2074.82 1477.53 2081.43 1479.91 2083.98 1485.44C2086.53 1490.98 2084.16 1497.5 2078.62 1500.04C2041.87 1516.96 2003.99 1534.41 1970.59 1557.26C1968.7 1558.56 1966.53 1559.18 1964.38 1559.18Z" fill="#040606"/>
<path d="M1969.86 1790.8C1966.62 1790.8 1963.43 1789.38 1961.26 1786.68L1933.77 1752.49C1929.96 1747.74 1930.71 1740.8 1935.46 1736.99C1940.21 1733.18 1947.15 1733.93 1950.96 1738.69L1972.14 1765.02C2004.71 1743.97 2040.14 1727.63 2074.52 1711.81C2080.07 1709.23 2086.79 1711.6 2089.33 1717.12C2091.88 1722.66 2089.64 1729.12 2084.12 1731.66C2047.19 1748.66 2009.39 1766.08 1976.08 1788.88C1974.19 1790.19 1972.01 1790.8 1969.86 1790.8Z" fill="#040606"/>
<path d="M1964.38 2019.71C1961.14 2019.71 1957.95 2018.28 1955.78 2015.59L1928.28 1981.37C1924.46 1976.63 1925.21 1969.7 1929.97 1965.88C1934.73 1962.08 1941.66 1962.83 1945.47 1967.57L1966.66 1993.92C1999.29 1972.81 2034.83 1956.44 2069.3 1940.59C2074.82 1938.07 2081.43 1940.43 2083.98 1945.97C2086.53 1951.49 2084.16 1958.02 2078.62 1960.56C2041.87 1977.48 2003.99 1994.93 1970.59 2017.78C1968.7 2019.09 1966.53 2019.71 1964.38 2019.71Z" fill="#040606"/>
<path d="M2970.33 1502.58H2162.06V1472.36H2970.33V1502.58Z" fill="#040606"/>
<path d="M2658.8 1574.05H2266.12V1543.83H2658.8V1574.05Z" fill="#040606"/>
<path d="M2967.58 1739.02H2175.8V1708.78H2967.58V1739.02Z" fill="#040606"/>
<path d="M2656.05 1810.49H2230.38V1780.26H2656.05V1810.49Z" fill="#040606"/>
<path d="M2970.33 1969.95H2162.06V1939.71H2970.33V1969.95Z" fill="#040606"/>
<path d="M2658.8 2041.43H2233.13V2011.19H2658.8V2041.43Z" fill="#040606"/>
<path d="M2611.08 360.559H2549.96C2547.66 360.559 2545.8 358.699 2545.8 356.419V156.428C2545.8 154.147 2547.66 152.288 2549.96 152.288H2611.08C2613.36 152.288 2615.22 154.147 2615.22 156.428V356.419C2615.22 358.699 2613.36 360.559 2611.08 360.559Z" fill="#040606"/>
<path d="M2743.78 360.567H2682.64C2680.35 360.567 2678.48 358.699 2678.48 356.414V4.1526C2678.48 1.84541 2680.35 -0.000341921 2682.64 -0.000341921H2743.78C2746.06 -0.000341921 2747.93 1.84541 2747.93 4.1526V356.414C2747.93 358.699 2746.06 360.567 2743.78 360.567Z" fill="#040606"/>
<path d="M2884.85 360.566H2823.71C2821.43 360.566 2819.58 358.715 2819.58 356.435V84.7854C2819.58 82.4825 2821.43 80.6311 2823.71 80.6311H2884.85C2887.15 80.6311 2889.01 82.4825 2889.01 84.7854V356.435C2889.01 358.715 2887.15 360.566 2884.85 360.566Z" fill="#040606"/>
<path d="M612.793 266.848C645.351 264.989 678.978 259.345 709.882 269.736C721.341 273.586 731.983 279.536 743.378 283.54C754.784 287.565 767.542 289.534 778.841 285.246C790.133 280.958 799.061 268.905 796.561 257.07C743.538 253.22 690.515 249.348 637.493 245.476C621.74 244.338 605.34 242.982 591.775 234.888C578.218 226.772 568.608 209.709 574.25 194.964C569.218 208.068 559.32 234.472 565.44 248.495C573.003 265.798 596.824 267.767 612.793 266.848Z" fill="#C2C3C1"/>
<path d="M855.692 273.029C870.311 271.047 885.202 271.787 899.794 269.631C914.386 267.453 929.349 261.789 938.173 249.961C946.995 238.133 947.119 219.16 935.476 210.12C936.406 225.499 924.809 239.723 910.524 245.517C896.248 251.311 879.995 250.07 865.087 246.149C855.692 243.688 845.165 240.355 836.798 245.278C833.469 247.238 830.969 250.288 828.527 253.272C813.434 271.809 798.342 290.368 783.258 308.884C791.019 308.884 810.238 293.309 817.808 288.909C830.529 281.524 840.653 275.055 855.692 273.029Z" fill="#C2C3C1"/>
<path d="M851.932 98.5949H627.365C623.31 98.5949 620.017 95.3039 620.017 91.2532C620.017 87.1796 623.31 83.9114 627.365 83.9114H851.932C855.987 83.9114 859.281 87.1796 859.281 91.2532C859.281 95.3039 855.987 98.5949 851.932 98.5949ZM811.34 173.555H796.353C792.298 173.555 789.004 170.264 789.004 166.213C789.004 162.14 792.298 158.848 796.353 158.848H811.34C815.407 158.848 818.698 162.14 818.698 166.213C818.698 170.264 815.407 173.555 811.34 173.555ZM752.753 169.458H647.805C643.75 169.458 640.456 166.19 640.456 162.116C640.456 158.066 643.75 154.775 647.805 154.775H752.753C756.809 154.775 760.102 158.066 760.102 162.116C760.102 166.19 756.809 169.458 752.753 169.458ZM945.5 49.5039C945.219 27.3174 926.938 9.27371 904.752 9.27371H593.439C570.972 9.27371 552.698 27.5476 552.698 50.0103V221.012C552.891 235.189 557.124 244.855 566.854 253.302C574.265 259.723 583.95 262.991 593.72 263.221L745.158 262.094L753.228 342.554C753.658 346.835 756.537 350.471 760.602 351.875C761.778 352.289 763 352.474 764.192 352.474C767.152 352.474 770.04 351.277 772.164 349.067L850.51 267.249L908.738 264.694C930.828 263.705 947.923 245.592 947.642 223.474L945.5 49.5039Z" fill="#040606"/>
<path d="M3303.81 593.939C3298.41 593.939 3293.67 589.916 3292.9 584.404C3270.98 425.508 3176.23 280.637 3039.45 196.844C3034.27 193.666 3032.63 186.864 3035.8 181.685C3039 176.485 3045.81 174.862 3050.98 178.041C3193.32 265.234 3291.94 416.017 3314.74 581.381C3315.59 587.427 3311.37 592.983 3305.34 593.828C3304.83 593.895 3304.32 593.939 3303.81 593.939Z" fill="#040606"/>
<path d="M3333.11 352.526C3328.86 352.526 3324.8 350.039 3322.99 345.871C3302.68 298.875 3271.75 256.026 3233.52 221.984C3228.97 217.928 3228.57 210.958 3232.63 206.431C3236.64 201.882 3243.65 201.456 3248.18 205.512C3288.79 241.683 3321.66 287.199 3343.22 337.13C3345.64 342.711 3343.07 349.21 3337.48 351.608C3336.07 352.235 3334.57 352.526 3333.11 352.526Z" fill="#040606"/>
<path d="M12.0244 1303.47C6.37932 1303.47 1.56591 1299.15 1.05626 1293.43C-3.94322 1237.19 8.91626 1179.33 37.2676 1130.51C40.3223 1125.24 47.0741 1123.46 52.3389 1126.52C57.6053 1129.58 59.3964 1136.32 56.3336 1141.58C30.2522 1186.49 18.4201 1239.73 23.0232 1291.47C23.562 1297.53 19.0819 1302.89 13.0145 1303.42C12.6861 1303.46 12.3544 1303.47 12.0244 1303.47Z" fill="#040606"/>
<path d="M1574.3 2670.66C1585.24 2716.02 1633.02 2742.88 1678.75 2752.17C1727.65 2762.08 1780.33 2757.71 1824.4 2734.32C1868.47 2710.93 1902.71 2667.36 1909.36 2617.91C1916.02 2568.46 1892.19 2514.83 1848.26 2491.17C1872.47 2520.28 1876.25 2562.97 1863.64 2598.66C1837.45 2672.78 1734.39 2740.16 1650.11 2719.13C1601.14 2706.92 1559.81 2659.12 1566.25 2609.07C1569.74 2651.45 1586.14 2692.69 1612.69 2725.91L1574.3 2670.66Z" fill="#C2C3C1"/>
<path d="M1838.08 2532.94C1834.79 2532.94 1831.8 2530.7 1830.94 2527.37C1822.04 2491.65 1796.92 2460.77 1763.76 2444.76C1760.11 2442.99 1758.57 2438.6 1760.34 2434.95C1762.1 2431.3 1766.51 2429.77 1770.16 2431.53C1807.2 2449.4 1835.26 2483.91 1845.22 2523.81C1846.36 2528.45 1842.88 2532.94 1838.08 2532.94ZM1799.17 2570.49C1757.69 2592.8 1732.45 2604.81 1686.63 2626.57C1675.86 2631.47 1675.15 2632.58 1672.33 2632.58C1668.24 2632.58 1664.98 2629.25 1664.98 2625.23V2483.48C1664.98 2477.79 1671.22 2474.23 1676.15 2477.2C1721.37 2504.64 1760.84 2535.36 1799.37 2557.65C1804.33 2560.51 1804.24 2567.75 1799.17 2570.49ZM1714.3 2374.35C1611.23 2374.35 1527.35 2458.22 1527.35 2561.3C1527.35 2664.39 1611.23 2748.25 1714.3 2748.25C1817.38 2748.25 1901.25 2664.39 1901.25 2561.3C1901.25 2458.22 1817.38 2374.35 1714.3 2374.35Z" fill="#040606"/>
<path d="M1874.83 2540.04C1870.53 2535.73 1870.53 2528.75 1874.83 2524.45L2099.07 2300.2L2095.6 2170.59C2095.44 2164.5 2100.25 2159.43 2106.34 2159.29C2106.43 2159.27 2106.54 2159.27 2106.64 2159.27C2112.58 2159.27 2117.49 2164.01 2117.65 2170L2121.24 2304.34C2121.33 2307.37 2120.15 2310.3 2118.02 2312.44L1890.43 2540.04C1886.11 2544.34 1879.14 2544.34 1874.83 2540.04Z" fill="#040606"/>
<path d="M3344.03 2556.73L3306.57 2495.45C3303.39 2490.26 3305.02 2483.48 3310.22 2480.3C3315.41 2477.14 3322.21 2478.75 3325.39 2483.95L3362.84 2545.22C3366.02 2550.42 3364.4 2557.21 3359.19 2560.38C3353.99 2563.57 3347.2 2561.91 3344.03 2556.73Z" fill="#040606"/>
<path d="M3342.85 2556.45C3340.92 2550.67 3344.04 2544.43 3349.82 2542.51L3413.71 2521.21C3419.49 2519.27 3425.73 2522.41 3427.65 2528.2C3429.58 2533.97 3426.46 2540.21 3420.68 2542.13L3356.81 2563.42C3351.1 2565.33 3344.8 2562.28 3342.85 2556.45Z" fill="#040606"/>
<path d="M3418.48 2538.55C3412.67 2536.73 3409.44 2530.55 3411.26 2524.73L3427.67 2472.2C3429.52 2466.4 3435.65 2463.14 3441.51 2464.97C3447.32 2466.79 3450.54 2472.98 3448.75 2478.79L3432.31 2531.32C3430.46 2537.18 3424.24 2540.36 3418.48 2538.55Z" fill="#040606"/>
<path d="M3509.09 2497.02L3437.29 2486.2C3431.27 2485.3 3427.11 2479.68 3428.03 2473.65C3428.95 2467.64 3434.52 2463.43 3440.58 2464.39L3512.36 2475.21C3518.4 2476.11 3522.53 2481.73 3521.64 2487.75C3520.7 2493.86 3514.99 2497.92 3509.09 2497.02Z" fill="#040606"/>
<path d="M3500.69 2556.31C3494.67 2555.36 3490.56 2549.71 3491.52 2543.7L3500.95 2484C3501.89 2477.99 3507.6 2473.85 3513.55 2474.83C3519.59 2475.78 3523.68 2481.43 3522.71 2487.45L3513.29 2547.14C3512.35 2553.18 3506.66 2557.26 3500.69 2556.31Z" fill="#040606"/>
<path d="M3545.63 2594.52C3532.06 2578.56 3514.88 2564.95 3495.92 2555.15C3490.52 2552.36 3488.41 2545.7 3491.19 2540.3C3493.99 2534.89 3500.67 2532.78 3506.04 2535.57C3527.53 2546.67 3547.04 2562.11 3562.44 2580.23C3566.38 2584.87 3565.81 2591.83 3561.18 2595.77C3556.52 2599.73 3549.58 2599.14 3545.63 2594.52Z" fill="#040606"/>
<path d="M3556.61 2598.28C3545.82 2598.28 3541.4 2584.26 3550.38 2578.14C3569.5 2565.1 3590.17 2554.12 3611.8 2545.47C3617.45 2543.25 3623.88 2545.97 3626.15 2551.63C3628.39 2557.28 3625.64 2563.7 3619.99 2565.96C3599.83 2574 3580.58 2584.23 3562.79 2596.36C3560.91 2597.66 3558.73 2598.28 3556.61 2598.28Z" fill="#040606"/>
<path d="M3654.9 2623.46C3642.51 2602.15 3627.3 2582.37 3609.7 2564.7C3605.4 2560.38 3605.4 2553.4 3609.73 2549.1C3614.06 2544.81 3621.02 2544.82 3625.32 2549.13C3644.24 2568.16 3660.62 2589.43 3673.97 2612.38C3677.02 2617.64 3675.24 2624.39 3669.98 2627.46C3664.73 2630.51 3657.96 2628.75 3654.9 2623.46Z" fill="#040606"/>
<path d="M3605.58 2669.31C3602.24 2664.24 3603.63 2657.39 3608.71 2654.04C3625.24 2643.11 3639.69 2629.77 3651.71 2614.38C3655.44 2609.57 3662.35 2608.71 3667.16 2612.44C3671.97 2616.18 3672.83 2623.11 3669.09 2627.92C3655.64 2645.21 3639.4 2660.18 3620.87 2672.44C3615.81 2675.76 3608.98 2674.42 3605.58 2669.31Z" fill="#040606"/>
<path d="M3606.37 2714.6L3602.36 2668.81C3601.83 2662.75 3606.32 2657.39 3612.36 2656.85C3618.54 2656.32 3623.78 2660.81 3624.34 2666.87L3628.35 2712.66C3628.88 2718.74 3624.41 2724.08 3618.33 2724.61C3612.24 2725.15 3606.9 2720.63 3606.37 2714.6Z" fill="#040606"/>
<path d="M3674.68 2741.43C3658.71 2733.96 3635.18 2729.77 3617.42 2725.6C3611.48 2724.2 3607.8 2718.27 3609.2 2712.34C3610.6 2706.41 3616.51 2702.7 3622.45 2704.13C3641.98 2708.68 3665.75 2712.92 3684.01 2721.46C3689.53 2724.04 3691.91 2730.61 3689.33 2736.12C3686.73 2741.69 3680.13 2744 3674.68 2741.43Z" fill="#040606"/>
<path d="M3662.99 2820.34C3657 2819.22 3653.08 2813.45 3654.21 2807.46C3658.84 2782.86 3661.25 2760.07 3667.57 2732.86C3668.95 2726.93 3674.86 2723.24 3680.82 2724.61C3686.75 2725.99 3690.43 2731.92 3689.06 2737.85C3683 2763.92 3680.48 2786.92 3675.86 2811.54C3674.74 2817.54 3668.95 2821.46 3662.99 2820.34Z" fill="#040606"/>
<path d="M3661.1 2823.43C3639.51 2821.69 3620.68 2818.61 3596.12 2812.8C3590.21 2811.4 3586.52 2805.46 3587.93 2799.53C3589.33 2793.6 3595.28 2789.94 3601.19 2791.34C3624.59 2796.87 3642.47 2799.8 3662.86 2801.44C3668.94 2801.93 3673.46 2807.25 3672.97 2813.31C3672.48 2819.21 3667.43 2823.88 3661.1 2823.43Z" fill="#040606"/>
<path d="M3547.74 2848.76C3544.33 2843.72 3545.65 2836.86 3550.67 2833.45C3570.15 2820.23 3582.97 2807.71 3589.87 2795.16C3592.8 2789.82 3599.51 2787.87 3604.85 2790.8C3610.19 2793.74 3612.14 2800.44 3609.2 2805.78C3600.59 2821.46 3585.49 2836.48 3563.06 2851.69C3558.06 2855.09 3551.18 2853.84 3547.74 2848.76Z" fill="#040606"/>
<path d="M3575.58 2911.76C3568.49 2889.78 3559.33 2868.26 3548.38 2847.78C3545.48 2842.42 3547.52 2835.74 3552.89 2832.87C3558.26 2829.99 3564.94 2832.01 3567.82 2837.38C3579.39 2859.01 3589.07 2881.76 3596.57 2904.98C3598.44 2910.77 3595.25 2916.99 3589.48 2918.87C3583.58 2920.74 3577.42 2917.47 3575.58 2911.76Z" fill="#040606"/>
<path d="M3513.51 2946.49C3511.31 2940.82 3514.14 2934.44 3519.84 2932.25C3541.43 2923.92 3561.68 2912.75 3579.99 2899.05C3584.88 2895.41 3591.78 2896.41 3595.43 2901.27C3599.07 2906.16 3598.09 2913.07 3593.2 2916.71C3573.26 2931.62 3551.26 2943.77 3527.75 2952.82C3522.12 2955 3515.69 2952.21 3513.51 2946.49Z" fill="#040606"/>
<path d="M3515.36 2949.62L3479.16 2903.99C3475.36 2899.23 3476.16 2892.28 3480.93 2888.5C3485.69 2884.72 3492.65 2885.51 3496.42 2890.28L3532.64 2935.91C3536.41 2940.67 3535.61 2947.62 3530.85 2951.4C3526.11 2955.17 3519.15 2954.4 3515.36 2949.62Z" fill="#040606"/>
<path d="M3412.75 2909.1C3412.17 2903.04 3416.61 2897.64 3422.65 2897.04C3443.94 2894.96 3457.99 2891.54 3483.64 2887C3489.62 2885.96 3495.36 2889.94 3496.44 2895.94C3497.49 2901.94 3493.47 2907.66 3487.5 2908.72C3462.01 2913.21 3447.46 2916.77 3424.8 2918.99C3418.8 2919.58 3413.36 2915.2 3412.75 2909.1Z" fill="#040606"/>
<path d="M3395.28 2976.91C3389.66 2974.6 3386.95 2968.15 3389.27 2962.52L3413.7 2902.99C3416.02 2897.36 3422.45 2894.67 3428.11 2896.97C3433.73 2899.28 3436.42 2905.72 3434.1 2911.35L3409.66 2970.89C3407.37 2976.51 3400.96 2979.22 3395.28 2976.91Z" fill="#040606"/>
<path d="M3398.74 2978.72C3370.88 2975.67 3358.1 2970.67 3325.39 2962.4C3319.48 2960.91 3315.9 2954.91 3317.4 2949.01C3318.89 2943.11 3324.86 2939.53 3330.8 2941.02C3364.08 2949.42 3375.26 2953.95 3401.13 2956.8C3407.2 2957.46 3411.56 2962.9 3410.9 2968.96C3410.26 2974.92 3404.92 2979.37 3398.74 2978.72Z" fill="#040606"/>
<path d="M3326.33 2962.73C3320.28 2962.06 3315.93 2956.61 3316.6 2950.55L3323.51 2888.91C3324.2 2882.85 3329.65 2878.44 3335.7 2879.18C3341.75 2879.86 3346.1 2885.31 3345.43 2891.36L3338.52 2953.01C3337.83 2959.13 3332.25 2963.44 3326.33 2962.73Z" fill="#040606"/>
<path d="M3328.73 2900.18C3313.81 2887.79 3297.46 2873.87 3282.39 2861.33C3277.73 2857.44 3277.08 2850.49 3280.98 2845.81C3284.86 2841.13 3291.81 2840.48 3296.5 2844.38C3311.41 2856.79 3327.76 2870.69 3342.83 2883.23C3347.5 2887.13 3348.15 2894.07 3344.25 2898.75C3340.34 2903.44 3333.39 2904.08 3328.73 2900.18Z" fill="#040606"/>
<path d="M3216.53 2892.62C3213.81 2887.18 3216 2880.55 3221.45 2877.82C3242.46 2867.23 3263.29 2855.79 3283.38 2843.79C3288.58 2840.67 3295.38 2842.36 3298.48 2847.59C3301.62 2852.83 3299.92 2859.6 3294.69 2862.71C3274.17 2874.99 3252.84 2886.7 3231.35 2897.52C3226.01 2900.22 3219.32 2898.14 3216.53 2892.62Z" fill="#040606"/>
<path d="M3215.85 2895.99C3195.36 2877.86 3178.41 2856.65 3165.47 2832.97C3162.54 2827.63 3164.52 2820.93 3169.86 2818.01C3175.19 2815.08 3181.9 2817.06 3184.82 2822.39C3196.53 2843.83 3211.9 2863.04 3230.48 2879.47C3235.02 2883.51 3235.46 2890.48 3231.42 2895.04C3227.4 2899.6 3220.42 2900.03 3215.85 2895.99Z" fill="#040606"/>
<path d="M3166.57 2835.26C3162.97 2830.36 3164.04 2823.45 3168.95 2819.85L3228.78 2775.94C3233.68 2772.35 3240.6 2773.39 3244.2 2778.3C3247.8 2783.21 3246.75 2790.12 3241.84 2793.72L3181.99 2837.63C3177.06 2841.25 3170.17 2840.15 3166.57 2835.26Z" fill="#040606"/>
<path d="M3223.27 2788.49C3218.43 2769.99 3211.2 2749.67 3206.14 2730.41C3204.59 2724.52 3208.12 2718.49 3214.01 2716.94C3219.92 2715.42 3225.93 2718.92 3227.48 2724.81C3232.32 2743.31 3239.58 2763.63 3244.62 2782.88C3246.16 2788.78 3242.65 2794.81 3236.75 2796.35C3230.84 2797.88 3224.82 2794.36 3223.27 2788.49Z" fill="#040606"/>
<path d="M3214.53 2738.38L3152.96 2720.76C3147.11 2719.07 3143.72 2712.97 3145.39 2707.11C3147.06 2701.26 3153.14 2697.89 3159.04 2699.54L3220.6 2717.17C3226.46 2718.85 3229.85 2724.95 3228.18 2730.81C3226.53 2736.57 3220.5 2740.05 3214.53 2738.38Z" fill="#040606"/>
<path d="M3151.13 2718.98C3145.32 2717.19 3142.04 2711.03 3143.84 2705.21L3165.52 2634.79C3167.32 2628.97 3173.5 2625.74 3179.31 2627.49C3185.14 2629.29 3188.4 2635.46 3186.6 2641.28L3164.92 2711.69C3163.16 2717.42 3157.07 2720.79 3151.13 2718.98Z" fill="#040606"/>
<path d="M3173.25 2649.84C3167.32 2648.48 3163.62 2642.56 3165 2636.63C3166.35 2630.69 3172.27 2626.97 3178.2 2628.35C3200.68 2633.51 3224.7 2634.44 3247.57 2631.06C3253.55 2630.07 3259.2 2634.33 3260.09 2640.35C3260.99 2646.37 3256.83 2651.97 3250.81 2652.87C3225.05 2656.68 3198.25 2655.58 3173.25 2649.84Z" fill="#040606"/>
<path d="M3249.12 2652.19C3240.44 2652.19 3235.1 2642.55 3239.85 2635.18L3269.97 2588.51C3273.28 2583.39 3280.1 2581.94 3285.22 2585.22C3290.32 2588.52 3291.8 2595.35 3288.49 2600.47L3258.4 2647.14C3256.28 2650.4 3252.74 2652.19 3249.12 2652.19Z" fill="#040606"/>
<path d="M3269.84 2598.55L3234.71 2539.09C3231.59 2533.85 3233.34 2527.09 3238.57 2523.99C3243.85 2520.89 3250.58 2522.63 3253.67 2527.87L3288.83 2587.33C3291.92 2592.58 3290.17 2599.34 3284.94 2602.44C3279.68 2605.54 3272.93 2603.8 3269.84 2598.55Z" fill="#040606"/>
<path d="M3234.49 2537.66C3231.74 2532.22 3233.91 2525.59 3239.35 2522.84C3262.82 2510.97 3286.15 2493.8 3310.91 2481.26C3316.37 2478.5 3322.97 2480.68 3325.72 2486.12C3328.48 2491.55 3326.3 2498.18 3320.88 2500.93C3297.41 2512.81 3274.08 2529.97 3249.32 2542.51C3243.92 2545.24 3237.25 2543.13 3234.49 2537.66Z" fill="#040606"/>
<path d="M3518.59 2787.27C3486.49 2827.2 3425.52 2842.93 3377 2824C3328.6 2804.94 3297.19 2752.71 3304.37 2703.13C3311.64 2653.41 3356.87 2610.68 3408.96 2604.83C3448.21 2600.34 3474.7 2607.97 3509.38 2636.32L3522.67 2649.02C3554.03 2688.89 3550.83 2747.46 3518.59 2787.27Z" fill="#040606"/>
<path d="M3410.2 2615.77C3363.51 2621.02 3321.82 2660.1 3315.29 2704.73C3308.8 2749.55 3337.07 2796.42 3381.02 2813.75C3425.33 2831.03 3480.81 2816.68 3510.01 2780.36C3510.01 2780.35 3510.01 2780.34 3510.03 2780.33C3539.8 2743.56 3541.63 2691.59 3514.47 2656.43L3502.05 2644.59C3470.21 2618.65 3447 2611.6 3410.2 2615.77ZM3372.99 2834.27C3319.73 2813.29 3285.54 2756.24 3293.45 2701.55C3301.51 2646.57 3350.64 2600.29 3407.73 2593.87C3450.71 2588.95 3480.1 2598.16 3516.35 2627.79C3516.99 2628.33 3530.68 2641.35 3531.34 2642.2C3565.29 2685.37 3563.54 2749.28 3527.16 2794.19C3492 2837.93 3425.62 2854.81 3372.99 2834.27Z" fill="#040606"/>
<path d="M3292.38 2491.63L3268.52 2319.84L3066.4 2167.05C3061.53 2163.38 3060.57 2156.47 3064.24 2151.61C3067.93 2146.76 3074.84 2145.79 3079.69 2149.47L3285.45 2305.01C3287.78 2306.76 3289.32 2309.38 3289.72 2312.29L3314.23 2488.6C3315.07 2494.63 3310.87 2500.2 3304.83 2501.04C3298.85 2501.87 3293.23 2497.71 3292.38 2491.63Z" fill="#040606"/>
<path d="M1533.12 771.931C1531.85 771.931 1530.58 771.713 1529.35 771.258C1525.32 769.794 1522.52 766.114 1522.14 761.861L1504.66 560.924C1504.13 554.851 1508.62 549.509 1514.68 548.975C1520.66 548.401 1526.1 552.952 1526.63 559.025L1542.06 736.361L1633.65 644.765C1637.96 640.452 1644.95 640.452 1649.25 644.765L1740.09 735.589L1761.97 546.463C1762.67 540.409 1768.15 536.077 1774.18 536.769C1780.23 537.481 1784.57 542.941 1783.87 548.995L1759.38 760.793C1758.89 764.987 1756.04 768.548 1752.04 769.932C1748.05 771.317 1743.61 770.308 1740.63 767.321L1641.45 668.148L1540.92 768.686C1538.81 770.783 1535.99 771.931 1533.12 771.931Z" fill="#040606"/>
</svg>
