<svg width="2676" height="2451" viewBox="0 0 2676 2451" fill="none" xmlns="http://www.w3.org/2000/svg">
<path d="M36.9871 1048.46C41.394 997.477 45.1179 945.415 54.9986 900.997C58.0376 888.714 53.6207 880.242 48.1908 872.704C31.6584 851.058 24.3444 828.199 25.8234 802.874C29.4232 749.961 71.9011 764.84 81.1825 762.803C75.8604 777.748 76.6483 806.06 88.0405 824.875C77.9455 824.962 66.2036 822.647 60.3877 814.498C53.9044 805.42 52.6483 793.3 57.1461 782.888C59.4151 777.649 57.0043 771.524 51.7365 769.257C26.8006 758.484 17.526 845.954 87.9423 845.954C96.1218 845.954 102.727 843.843 108.331 840.606C111.274 841.416 114.065 842.672 117.218 842.672C135.693 842.672 148.551 830.745 160.016 816.066C171.95 816.894 182.615 816.464 193.194 810.688C194.856 809.778 195.57 808.097 196.484 806.586C205.814 824.893 202.724 840.308 185.355 856.654C178.892 863.826 171.029 871.614 161.872 875.138C150.364 879.638 138.026 890.097 144.428 914.008C148.946 931.196 151.033 948.582 153.261 967.028C158.686 1011.85 168.363 1062.8 169.409 1117.53C172.42 1228.68 210.056 1335.1 244.766 1441.23C231.858 1483.78 202.657 1530.54 175.285 1565.31V1565.27C174.523 1566.05 168.148 1575.11 122.342 1626.21C99.5304 1559.11 84.5182 1511.99 61.2386 1437.1C4.06138 1256.78 18.3336 1253.26 36.9871 1048.46ZM119.26 760.537C107.461 772.838 113.328 803.285 135.954 812.163C133.492 814.634 130.955 816.994 128.139 818.674C122.385 822.161 115.901 822.933 111.444 820.66C98.7233 814.206 97.276 783.529 100.706 768.338C101.942 762.918 98.5839 757.712 93.3086 756.234C100.363 754.707 109.951 759.552 119.26 760.537ZM136.202 656.583C135.554 636.843 139.484 625.939 143.78 623.869C144.732 623.377 146.028 623.295 146.049 623.213C152.202 626.004 155.858 644.709 159.238 663.957C165.838 696.013 159.886 695.356 168.316 734.36C170.483 744.377 172.53 753.82 172.712 763.181C172.712 771.015 176.196 778.585 183.369 786.403C184.702 787.848 185.903 790.311 187.202 792.035C185.851 792.167 184.488 791.773 183.226 792.446C175.547 796.617 165.214 796.01 153.484 794.844C149.412 794.433 145.563 794.023 142.726 792.742C136.268 789.802 132.822 779.686 134.338 774.118C138.532 770.768 139.484 764.676 136.385 760.176C135.466 758.846 133.925 758.484 132.591 757.729C132.991 757.45 133.536 757.417 133.913 757.105C143.476 749.009 139.533 741.372 136.202 656.583ZM340.57 1524.85C349.314 1535.16 364.728 1553.2 406.669 1593.2C392.655 1669.26 385.463 1794.32 380.603 1899.76C356.997 1922.99 345.175 1951.45 334.673 1983.45C292.727 2107.16 259.574 2164.68 235.634 2344.22C225.915 2343.86 215.881 2343.08 204.256 2341.37C204.202 2334.88 211.572 2235.95 192.81 1971.74C191.331 1950.94 189.852 1930.11 189.021 1915.85C189.51 1913.8 188.972 1888.11 188.88 1886.01C183.201 1808.49 168.421 1720.49 117.76 1661.25C137.41 1637.76 217.462 1569 266.011 1448.17C270.122 1452.33 335.27 1518.66 340.57 1524.85ZM303.817 1323.56C287.972 1324.7 282.524 1320.04 278.897 1311.93C273.875 1300.37 275.057 1286.32 286.053 1274.54C296.086 1279.01 305.217 1280.6 316.885 1276.7C334.187 1272.98 333.964 1257.54 333.863 1249.75C333.652 1230.36 333.525 1212.52 332.566 1191.91C390.524 1171.18 449.697 1166.33 523.045 1155.36C534.102 1209.94 538.111 1214.68 537.44 1238.85C537.44 1253.04 541.912 1262.42 555.917 1264.22C556.384 1264.3 558.551 1264.59 559.017 1264.59C564.243 1264.59 571.783 1257.01 581.303 1271.03C585.923 1277.48 584.707 1293.2 579.015 1300.58C578.993 1300.62 578.974 1300.66 578.933 1300.66C578.102 1301.8 576.785 1302.93 575.267 1304.19C575.083 1304.35 574.901 1304.51 574.699 1304.67C573.321 1304.92 571.213 1304.84 568.762 1305.45C566.068 1306.46 564.934 1306.5 565.055 1306.58C558.526 1304.42 553.061 1309.47 548.888 1315.01C543.012 1323.32 542.748 1333.74 543.294 1343.02C544.191 1354.67 541.561 1362.03 543.255 1377.84C468.645 1405.88 433.191 1477.12 414.725 1554.84C390.273 1543.01 368.681 1526.04 352.28 1504.95C351.399 1503.83 350.018 1503.67 348.856 1503.02C342.2 1496.04 342.881 1496.89 337.562 1491.43C329.334 1441.27 320.672 1375.13 315.143 1348.37C314.312 1345.09 313.967 1341.8 314.068 1338.28C315.345 1335.56 315.386 1332.36 314.089 1329.52C312.245 1325.59 308.133 1322.91 303.817 1323.56ZM617.124 1085.14C622.233 1084.53 643.896 1082.82 667.072 1077.9C698.698 1071.14 731.327 1054.84 751.509 1040.36C760.034 1056.59 824.022 1204.36 860.391 1283.07L860.509 1282.99C905.392 1384.74 961.033 1457.21 963.616 1461.36C1080.19 1624.45 1112.56 1631.82 1129.17 1649.13C1151.85 1669.84 1180.41 1675.01 1209.87 1680.95C1191.57 1719.29 1195.03 1758.09 1208.1 1798.37C1212.43 1811.63 1218.47 1826.63 1230.63 1837.25C1236.94 1842.69 1243.35 1843.25 1250.97 1838.95C1279.16 1822.52 1290.1 1787.29 1301.12 1754.11L1319.77 1754.24C1371.82 1809.17 1369.77 1807.94 1376.06 1810.33C1398.2 1818.97 1423.96 1787.75 1435.77 1766.8C1449.45 1742.45 1457.96 1715.09 1461.4 1687.42C1471.34 1689.14 1477.71 1687.75 1485.55 1685.04C1529.14 1672.46 1548.81 1641.12 1572.2 1601.62C1684.06 1417.59 1709.88 1349.48 1856.98 1053.16C1892.53 1075.05 1927.72 1095.37 1965.99 1108.09C1971.1 1109.79 1976.35 1111.88 1981.29 1113.11C1938.51 1287.68 1838.68 1451.85 1789.67 1545.32C1789.67 1545.33 1789.69 1545.34 1789.67 1545.34C1721.24 1663.98 1709.93 1720.15 1660.93 1821.81C1644.38 1855.85 1643.9 1857.85 1641.77 1865.57C1640.07 1864.55 1638.33 1863.52 1636.06 1863.39C1635.51 1863.15 1589.65 1865.02 1574.45 1798.1C1573.17 1792.54 1567.6 1789.01 1562.05 1790.27C1556.46 1791.56 1552.95 1797.12 1554.23 1802.71C1572.76 1884.27 1632.65 1883.97 1637.15 1884.15C1637.76 1884.12 1638.09 1883.56 1638.66 1883.42C1637.45 1904.24 1641.7 1928.29 1640.76 1943.21C1641.37 1959.25 1639.36 2153.87 1640.54 2199.58C1644.25 2347.01 1627.1 2399.04 1481.88 2416.07C1313.82 2435.5 1115.16 2420.81 1086.84 2420.81C1059.51 2420.81 1030.29 2426.68 1005.31 2419.64C967.344 2409.21 974.712 2377.65 975.204 2335.61C976.212 2275.19 983.021 2146.7 982.622 2092.33C987.164 2040.93 1002.23 1992.01 999.681 1939.11C999.108 1923.01 1002.21 1907.05 1002.31 1889.53C1016.79 1882.7 1051.94 1863.53 1071.53 1830.2C1074.42 1825.25 1072.76 1818.89 1067.82 1815.97C1062.93 1813.05 1056.55 1814.71 1053.62 1819.66C1039.55 1843.66 1014.87 1859.46 1000.11 1867.34C998.218 1859.83 995.132 1850.05 987.726 1839.92C922.108 1750.6 891.867 1734.28 820.904 1625.87C692.824 1410.43 723.031 1487.73 617.124 1085.14ZM564.873 912.309C549.901 909.837 538.715 907.359 530.449 897.151C528.965 895.587 528.181 893.907 527.056 892.276C527.933 892.781 528.422 893.745 529.458 893.988C547.014 897.941 577.825 894.585 586.856 889.729C603.563 880.802 608.434 856.393 597.936 843.732C606.185 832.464 606.853 816.209 591.628 804.812C598.009 800.871 602.472 795.73 618.122 777.157C625.699 825.179 625.886 833.379 621.805 860.422C620.486 868.333 621.832 873.046 624.902 877.286C642.713 898.831 667.582 944.145 701.206 990.58C672.399 999.637 627.752 1014.27 624.579 1015.39C586.076 938.778 596.78 918.111 564.873 912.309ZM529.898 857.894C531.832 859.338 534.117 860.471 536.791 860.502C547.712 860.502 558.713 859.693 569.491 858.075C574.62 857.302 581.141 853.636 582.559 858.56C583.147 863.907 580.798 869.423 577.069 871.408C573.464 873.376 547.773 876.838 534.035 873.717C528.731 872.647 523.718 875.865 522.105 880.889C520.387 871.11 523.988 864.375 529.898 857.894ZM519.186 803.186C525.835 797.044 527.005 791.214 526.851 787.174C535.266 788.242 547.481 789.293 555.256 789.802C555.343 790.196 555.124 790.722 555.228 791.116C555.881 793.53 557.341 795.435 558.569 797.488L532.942 796.387C518.691 796.387 518.81 816.571 532.091 817.131C572.937 818.886 580.349 817.18 582.641 825C583.329 827.309 582.783 830.067 581.262 831.929C579.983 833.473 577.859 834.505 575.526 835.353C575.142 835.402 574.782 835.309 574.395 835.378C573.911 835.445 573.691 835.944 573.234 836.074C566.421 837.948 560.337 838.889 536 839.752C535.687 839.752 535.504 840.058 535.199 840.083C533.216 834.481 528.493 830.932 524.209 828.809C508.424 821.762 507.569 813.726 519.186 803.186ZM520.218 759.338C534.534 741.536 549.429 742.801 572.226 745.806C572.103 745.905 571.923 745.839 571.801 745.954C565.049 752.194 560.255 760.389 557.267 769.126C521.821 766.876 521.628 763.181 515.746 769.57C515.681 769.405 515.257 769.142 515.234 768.978C515.112 768.091 515.355 765.332 520.218 759.338ZM575.286 785.795C574.04 780.917 577.018 769.422 585.862 761.194C589.952 757.417 590.152 751.193 586.611 746.956C590.769 748.105 603.153 744.837 611.424 757.203C605.369 758.172 606.908 759.108 587.786 780.605C583.502 785.483 576.94 792.068 575.286 785.795ZM612.828 398.011C625.226 325.26 651.769 282.775 691.722 271.755C764.989 251.145 856.818 260.555 933.309 257.205C1277.44 243.065 1674.67 234.427 2030.53 248.928C2038.33 249.289 2046.37 249.618 2050.98 252.952C2057.42 257.977 2059.31 268.914 2060.31 279.129C2077.05 423.548 2073.43 567.343 2048.95 712.501C2018.08 718.479 1996.73 740.42 1992.75 755.693C1990.9 762.771 1991.91 770.161 1995.36 775.794C1965.8 797.126 1968.49 824.202 1984.28 832.819C1981.93 838.713 1981.98 845.349 1985.18 850.939C1976.47 865.887 1984.66 883.834 1999.78 889.729C2002.09 890.613 2004.98 890.296 2007.66 890.532C1994.72 921.223 1976.04 925.873 1942.5 930.549C1927.97 931.981 1841.88 944.063 1704.58 949.872C1693.24 946.541 1688.8 948.964 1683.96 950.594V950.369C1457.55 958.544 1087.8 946.815 1058.11 950.775C1049.34 932.392 1028.56 927.194 1013.84 938.941C1013.8 938.977 1013.75 939.021 1013.68 939.102C1013.64 939.059 1013.6 939.021 1013.56 938.977C1002.77 930.674 987.452 930.23 976.487 941.045C961.563 927.611 940.751 930.063 932.736 953.289C812.272 956.602 749.847 966.78 706.452 961.638C662.349 896.939 662.087 890.135 642.147 865.613C642.228 864.679 642.31 863.503 642.31 863.503C648.67 821.55 642.963 809.368 640.361 786.37C636.13 749.485 628.127 728.809 591.198 726.674C586.708 618.089 593.821 507.582 612.828 398.011ZM2091.68 763.099L2091.63 766.581C2091.35 786.797 2090.01 807.752 2090.07 828.081C2090.14 848.263 2085.39 866.666 2076.35 881.42C2074.71 884.097 2072.29 886.243 2068.88 888.839C2064.73 891.978 2069.5 886.99 2043.83 900.754C2039.21 903.132 2033.66 904.702 2028.69 909.065C1992.42 941.573 1983.26 983.687 1973.2 1015.1C1971.61 1020.06 1970.06 1025.05 1969.44 1030.01C1951.32 1019.53 1932.78 1009.61 1913.75 1000.42C1917.89 976.87 1920.11 962.821 1921.12 953.918L1945.08 951.141C1992.03 944.654 2016.11 933.799 2031.73 885.241C2031.89 885.036 2031.78 885.353 2032.76 882.172C2033.73 880.516 2034.21 879.01 2034.17 877.105C2035.11 875.138 2037.98 871.533 2038.62 871.085C2038.64 871.085 2039.25 870.761 2041.64 870.842C2047.06 871.004 2052.59 873.108 2056.81 876.595C2061.24 880.204 2067.78 879.595 2071.42 875.181C2084.33 859.543 2044.79 842.94 2027.85 853.375C2022.47 856.581 2016.77 864.647 2014.67 870.021C2011.91 870.768 2009.05 871.11 2007.25 870.356C2004.62 869.343 2002.5 866.708 2002.34 864.237C2002.22 862.245 2003.65 859.898 2005.31 859.414C2011.5 857.576 2015.65 849.782 2010.07 843.047C2014.78 839.89 2014.11 836.255 2023.85 832.215C2029.79 829.774 2048.49 825.522 2054.07 828.685C2066.12 835.271 2076.14 817.211 2064.17 810.525C2050.69 803.104 2025.87 808.877 2015.9 813.041C2013.54 814.019 2011.65 815.462 2009.55 816.707C2007.79 815.556 2005.67 814.933 2003.28 815.226C1996.76 815.636 1994.57 815.027 1993.88 814.335C1993.38 813.813 1993.06 811.012 1994.41 807.686C2001.54 789.835 2047.93 767.977 2068.4 770.965C2073.98 772.016 2079.34 767.845 2080.12 762.163C2080.95 756.497 2076.99 751.226 2071.31 750.454C2052.49 747.498 2028.41 756.53 2013.45 764.889C2013.44 764.889 2013.44 764.938 2013.4 764.938C2013.31 764.988 2013.22 765.02 2013.13 765.086C2006.67 756.481 2046.17 721.665 2075.95 734.409C2084.38 738.055 2091.73 750.618 2091.68 763.099ZM1760.76 1201.91C1757.15 1167.57 1757.84 1163.84 1755.41 1144.49C1752.72 1122.55 1751.09 1107.83 1762.47 1090.45C1769.02 1080.58 1770.66 1076.83 1771.92 1064.1C1773.16 1050.6 1775.68 1037.95 1767.41 1021.95C1758.69 1005.15 1741.9 1007.47 1734.03 1006.22C1740.14 993.411 1736.13 981.34 1728.98 969.245C1788.56 966.301 1845 962.036 1899.55 956.122C1897.86 967.72 1895.41 983.736 1894.1 991.999C1864.85 982.106 1860.86 999.563 1848.15 1024.51C1846.06 1028.66 1831.47 1057.81 1833.55 1053.65C1816.14 1088.2 1803.71 1113.81 1760.76 1201.91ZM1663.78 971.641C1664.13 971.635 1664.47 971.63 1664.8 971.617C1664.79 971.691 1664.75 971.735 1664.74 971.81C1664.42 971.722 1664.1 971.728 1663.78 971.641ZM1672.21 1380.59C1661.93 1378.39 1651.55 1377.76 1641.05 1378.51C1638.53 1348.8 1639.41 1330.27 1635.57 1306.95C1634.53 1301.8 1637.13 1296.23 1634.1 1287.45C1633.61 1246.77 1631.71 1207.37 1634.1 1168.6C1635.92 1142.94 1627.31 1125.92 1604.23 1109.87C1591.53 1101.28 1582.63 1089.44 1578.48 1075.62C1576.42 1068.8 1570.41 1046.15 1580.16 1040.6C1584.97 1037.63 1590.47 1036.99 1593.31 1038.97C1603.15 1045.85 1614.69 1033.32 1607.43 1024.06C1603.93 1019.72 1618.27 1009.45 1623.87 1014.05C1632.35 1020.96 1644.48 1011.53 1639.77 1001.56C1636.56 994.713 1647.91 984.329 1667.56 995.485C1667.72 995.566 1667.89 995.684 1668.05 995.764C1676.1 999.773 1684.91 992.371 1682.78 983.975C1683.62 980.406 1686.41 973.029 1687.26 971.324C1690.12 966.742 1705.73 968.703 1711.97 980.731C1716.22 989.241 1717.55 993.536 1714.81 998.236C1713.69 1000.15 1713.74 1001.56 1713.2 1003.24C1708.01 1002.35 1702.81 1001.51 1697.47 1001.48C1683.19 1001.88 1684.86 1023.68 1698.03 1022.23C1703.17 1022.2 1708.39 1022.68 1713.45 1023.94C1716.5 1024.81 1717.39 1024.01 1719.9 1022.93C1722 1024.19 1724.12 1025.5 1727.43 1026.01C1737.79 1028.6 1746.1 1025.95 1748.99 1031.52C1754.78 1042.67 1751.91 1054.99 1751.29 1062.12C1749.76 1077.56 1745.8 1075.15 1739.78 1088.1C1726.96 1113.73 1735.36 1141.39 1736.63 1165.04C1737.83 1189.69 1742.54 1215.13 1742.36 1239.56C1719.5 1286.42 1696.18 1333.88 1672.21 1380.59ZM737.656 984.024C755.964 983.912 774.373 982.529 792.576 981.055C838.249 977.637 883.908 975.552 928.816 974.262C925.574 1015.08 939.794 1029.43 932.132 1040.92C917.445 1062.94 916.767 1084.6 903.057 1130.38C891.147 1169.08 879.546 1209.3 868.269 1249.95C778.947 1053.42 759.405 994.644 737.656 984.024ZM723.734 983.562L722.209 984.042C722.017 983.781 721.843 983.513 721.649 983.252C722.733 983.301 723.81 983.426 724.891 983.457C724.494 983.557 724.151 983.464 723.734 983.562ZM881.687 1278.96C909.188 1177.68 920.949 1148.49 936.284 1085.79C939.203 1074.48 942.606 1062.57 949.397 1052.43C955.433 1043.35 956.852 1032.9 953.647 1020.17C944.903 989.253 951.544 958.855 951.544 963.013C951.83 960.193 953.765 955.326 956.205 953.936C956.709 953.613 959.465 953.856 961.936 955.879C963.368 957.056 964.643 958.861 965.85 961.121C965.751 970.889 967.456 983.861 961.856 1003.27C960.275 1008.78 963.435 1014.53 968.943 1016.11C974.27 1017.7 980.164 1014.63 981.788 1009.02C985.26 996.991 986.419 984.03 986.275 970.695C991.521 964.19 986.475 962.428 989.872 957.262C994.708 950.115 1003.2 954.828 1003.92 960.38C1004.05 961.507 1004.88 962.143 1005.28 963.089C1006.08 974.96 1005.39 986.888 1003 998.522C1000.29 1011.99 1020.57 1016.11 1023.35 1002.66C1026.18 988.675 1027.05 974.363 1025.94 960.093C1025.89 959.372 1025.23 958.973 1025.04 958.295C1026.91 950.458 1038.9 951.721 1040.35 964.345C1040.07 965.591 1039.26 966.662 1039.47 968.001C1041.3 979.429 1039.9 991.55 1035.52 1002.21C1030.33 1014.93 1049.48 1022.76 1054.73 1010.08C1059.7 997.975 1061.08 984.896 1060.13 971.884C1065.93 969.388 1073.38 975.726 1071.57 987.497C1069.72 1000.58 1058.08 1015.06 1050.27 1024.63C1032.2 1046.63 1040.73 1040.97 1020.02 1058.96C1008.67 1069.48 1009.35 1080.73 1003.16 1142.21C994.858 1225.57 1001.96 1160.05 965.223 1427.4C929.755 1376.59 903.095 1324.28 881.687 1278.96ZM1429.27 1625.31C1451.81 1607.4 1450.76 1590.3 1453.31 1584.24C1458.15 1565.18 1463.16 1545.49 1463.16 1524.81C1463.16 1516.14 1465.29 1513.79 1470.41 1511.44C1499.69 1497.98 1512.41 1478 1510.45 1448.77C1509.02 1421.5 1492.86 1414.14 1476.94 1411.25C1478.32 1403.95 1482.67 1404.71 1482.67 1363.52L1482.25 1359.38C1482.25 1348.93 1489.25 1332.21 1480.59 1316.62C1478.52 1312.89 1478.93 1307.91 1478.93 1302.51C1478.93 1295.45 1479.34 1287.57 1475.61 1279.27C1470.49 1269.03 1470.12 1246.9 1451.96 1232.36C1398.44 1190.44 1339.1 1194.18 1288.06 1203.73C1270.9 1207.41 1258.89 1214.35 1242.42 1212.44C1216.28 1213.69 1191.38 1227.39 1173.54 1249.79C1135.97 1297.33 1146.88 1359.2 1142.01 1406.27C1141.27 1419.2 1141.99 1434.66 1150.54 1448.47C1146.02 1450.58 1141.89 1453.58 1139.05 1457.81C1127.89 1475.33 1136.75 1517.55 1157.99 1524.94C1157.8 1531.25 1157.6 1552.5 1157.98 1564.86C1158.58 1583.83 1156.85 1604.96 1169.1 1620.88C1179.5 1634.18 1197.22 1640.54 1211.48 1645.64L1219.49 1648.61C1220.54 1649.01 1231.47 1652.51 1232.28 1651.71C1232.31 1651.74 1232.36 1651.75 1232.39 1651.78C1232.49 1652.6 1231.51 1658.18 1231.4 1659.28C1230.06 1659.76 1223.26 1662.75 1224.57 1662.75C1224.08 1662.95 1222.99 1662.75 1220.54 1662.02C1191.55 1656.17 1162.82 1651.76 1143.08 1633.73C1126.98 1617.02 1093.89 1607.84 982.728 1452.37L983.108 1449.59C1055.11 925.556 984.309 1462.6 1029.91 1087.29C1030.68 1080.73 1031.27 1076.84 1033.86 1074.4C1055.3 1055.85 1050.39 1057.26 1066.32 1037.76C1082.25 1018.33 1098.55 995.16 1090.28 971.53C1291.58 970.708 1441.76 977.182 1638.52 972.264C1628.02 976.261 1622.17 983.14 1619.71 992.242C1603.88 992.621 1589.59 1004.42 1586.81 1017.17C1581.05 1017.53 1575.12 1019.4 1569.65 1022.68C1560.45 1027.91 1546.77 1042.54 1558.63 1081.62C1564.15 1100.06 1575.93 1115.79 1592.5 1126.97C1609.64 1138.89 1614.71 1148.66 1613.39 1167.23C1611.54 1197.46 1612.17 1227.86 1612.8 1257.29C1613.54 1293.04 1612.98 1290.95 1614.34 1293.85C1614.99 1295.23 1614.87 1297.86 1614.75 1300.62C1614.63 1303.74 1614.46 1307.27 1615.17 1310.67C1618.53 1331.33 1617.87 1351.86 1620.46 1381.44C1603.45 1385.81 1587.65 1393.61 1575.85 1405.08C1556.34 1424.01 1549.77 1449.54 1557.35 1477.06C1560.17 1486.75 1562.8 1494.86 1565.33 1501.55C1512.17 1502.3 1499.41 1573.52 1549.9 1598.45C1518.77 1650.53 1506.22 1655.43 1475.18 1666.69C1469.64 1668.02 1465.45 1668.06 1462.96 1667.13C1451.35 1661.21 1447.03 1633.68 1429.27 1625.31ZM1346.56 1750.22C1351.69 1750.22 1355.68 1746.86 1359.89 1743.33C1364.56 1738.91 1376.31 1731.29 1390.16 1712.81C1404.76 1693.14 1414.86 1668.65 1419.03 1644.87L1419.26 1643.38C1422.13 1644.26 1425.52 1649.27 1427.26 1651.73C1432.1 1660.01 1434.56 1667.41 1443.5 1677.26C1442.96 1678.33 1441.93 1679.08 1441.81 1680.34C1438.2 1716.21 1418.95 1771.16 1389.53 1788.81C1385.17 1791.45 1383.67 1791 1383.62 1791C1382.95 1790.72 1381.37 1789.06 1380.52 1788.12L1344.44 1750.07L1346.56 1750.22ZM1290.82 1725.5C1281.86 1719.65 1268.84 1723.34 1261.33 1686.34C1260.02 1679.46 1258.18 1671.33 1251.78 1664.84C1252.1 1659.71 1251.75 1663.57 1252.77 1656.55C1277.68 1660.3 1291.19 1662.67 1309.16 1662.67C1337.53 1662.67 1368 1656.48 1397.6 1645.33C1389.47 1684.69 1371.5 1707.54 1344.35 1729.27L1290.82 1725.5ZM1396.67 1235.11C1402.48 1241.25 1408.13 1243.3 1412.44 1253.38C1414.1 1256.28 1414.51 1257.52 1416.59 1257.94C1420.9 1259.17 1424.05 1262.55 1422.81 1268.73C1424.06 1269.15 1425.72 1269.15 1426.96 1268.73C1434.8 1268.73 1437.33 1269.46 1437.33 1278.69C1437.33 1279.11 1437.75 1279.94 1437.75 1280.77C1442.9 1291.08 1426.35 1296.39 1424.47 1283.27C1424.06 1281.19 1422.81 1279.52 1420.74 1276.62C1418.38 1278.98 1417.14 1280.12 1411.61 1278.28C1407.88 1276.41 1405.28 1278.73 1402.48 1275.37C1400.82 1272.89 1401.24 1269.98 1402.06 1267.9V1265.82C1402.48 1264.59 1402.48 1263.34 1402.48 1262.09C1403.72 1249.74 1398.53 1241.94 1396.67 1235.11ZM1381.11 1314.81V1311.07C1381.11 1304.84 1382.35 1297.78 1391.9 1293.23L1396.05 1291.15L1396.46 1295.7C1397.3 1304.01 1396.05 1311.9 1384.84 1313.97L1381.11 1314.81ZM1358.93 1274C1362.25 1267.78 1365.99 1263.21 1369.72 1259.88C1374.31 1255.28 1381.76 1266.51 1377.19 1271.09C1376.36 1271.92 1375.94 1273.17 1375.53 1274.83C1374.28 1278.56 1373.04 1283.13 1367.23 1283.96L1365.99 1284.38L1363.49 1282.72C1361.42 1281.88 1356.44 1278.98 1358.93 1274ZM1319.6 1241.13C1315.96 1228.4 1337.08 1227.64 1332.46 1241.54C1330.31 1250.76 1329.72 1254.07 1336.61 1256.9C1339.83 1258.51 1341.29 1264.21 1339.51 1266.86C1333.38 1275.63 1347.11 1285.84 1342.42 1297.57C1340.76 1300.9 1338.27 1302.97 1334.95 1302.97C1334.12 1302.97 1332.87 1302.97 1332.05 1302.56L1329.56 1301.72L1329.97 1299.23C1331.63 1286.78 1324.58 1276.82 1317.52 1266.44L1316.69 1266.03C1316.28 1265.21 1315.45 1264.37 1314.62 1263.54C1313.38 1261.88 1311.3 1260.22 1311.71 1257.31C1312.13 1254.41 1315.03 1252.75 1317.94 1251.09C1320.43 1250.26 1320.84 1245.69 1319.6 1241.13ZM1292.29 1275.17L1294.36 1280.56C1295.85 1286.5 1303.63 1295.89 1295.19 1305.47C1294.36 1307.13 1292.29 1307.13 1291.04 1307.13H1289.8C1288.14 1307.13 1286.9 1306.3 1286.48 1305.05C1277.41 1290.66 1290.25 1279.32 1292.29 1275.17ZM1272.85 1271.12C1270.72 1272.53 1268.63 1271.93 1266.21 1271.12C1264.96 1270.29 1263.72 1268.63 1263.72 1266.97C1261.52 1252.33 1274.54 1241.66 1280.74 1232.93L1279.9 1242.89V1247.46C1279.9 1253.45 1277.97 1252.73 1279.07 1258.25C1279.49 1261.98 1279.9 1268.21 1272.85 1271.12ZM1211.71 1301.94C1210.34 1289.14 1218.7 1284.7 1237.86 1271.64L1229.14 1284.93C1225.92 1289.72 1230.11 1303.27 1215.04 1304.43L1212.13 1304.85L1211.71 1301.94ZM1164.42 1505.2C1160.76 1502.67 1155.29 1492.93 1155.26 1478.81C1154.74 1472.15 1155.19 1467.75 1160.85 1466.6C1161.16 1466.85 1161.33 1467.12 1161.67 1467.36C1161.02 1471.83 1160.3 1476.29 1159.9 1480.79C1159.39 1486.51 1163.61 1491.54 1169.3 1492.06C1169.63 1492.11 1169.93 1492.11 1170.25 1492.11C1175.56 1492.11 1180.08 1488.05 1180.57 1482.66C1180.96 1478.29 1181.64 1473.98 1182.26 1469.66C1185.89 1467.91 1189.17 1465.78 1190.14 1461.89C1202.17 1424.13 1209.64 1385.93 1211.71 1348.17C1212.13 1343.18 1215.86 1337.79 1217.53 1337.38C1227.22 1338.26 1245.37 1338.17 1254.87 1340.28C1263.58 1341.94 1269.81 1340.7 1273.95 1337.38C1276.03 1338.62 1278.52 1340.28 1281.84 1341.12C1296.36 1344.43 1309.64 1344.85 1322.92 1341.94C1324.16 1341.53 1325.41 1340.7 1326.65 1339.46C1331.47 1341.31 1337.18 1341.41 1349.89 1341.12C1383.95 1342.67 1386.82 1336.83 1390.97 1336.13C1391.38 1336.13 1393.87 1335.3 1393.87 1335.3C1394.7 1334.88 1395.95 1334.47 1397.61 1334.88L1401.34 1335.71C1404.75 1340.83 1406.86 1338.6 1413.79 1355.22C1421.08 1372.42 1422.23 1394.01 1424.16 1413.34C1423.75 1428.27 1432.46 1438.65 1447.39 1440.31C1449.03 1440.55 1450.38 1440.52 1451.64 1440.19C1441.94 1450.59 1441.63 1463.85 1445.17 1477.71C1446.36 1482.42 1450.57 1485.54 1455.22 1485.54C1461.92 1485.54 1466.95 1479.2 1465.27 1472.61C1463.59 1466 1463.42 1460.97 1464.74 1457.24C1465.67 1454.65 1467.88 1452.38 1469.8 1451.85C1483.45 1457.16 1491.95 1434.24 1472.86 1431.59C1484.57 1433.59 1489.07 1437.12 1489.74 1449.99C1491.12 1470.46 1482.99 1482.78 1461.74 1492.55C1444.42 1500.53 1442.41 1514.8 1442.41 1524.81C1442.41 1545.43 1436.45 1566.42 1430.64 1589.34C1427.27 1604.2 1413.98 1608.67 1404.95 1620.07C1326.98 1654.91 1279.81 1638.29 1241.17 1633.95C1236.54 1631.83 1228.04 1629.67 1227.08 1629.27L1218.47 1626.11C1179.18 1612.04 1178.52 1608.11 1178.52 1555.13C1178.52 1529.67 1179.46 1515.01 1179.19 1513.46C1178.01 1506.78 1169.2 1504.26 1164.42 1505.2ZM1242.36 1819.82C1227.16 1804.23 1217.99 1759.83 1217.97 1736.32C1217.95 1716.74 1222.39 1698.58 1230.83 1683.83C1231.14 1683.28 1230.85 1682.67 1231.05 1682.09C1235.52 1680.27 1234.45 1680.64 1237.11 1679.25C1243.19 1685.58 1240.96 1731.25 1277.43 1741.75L1281.95 1744.35C1282.41 1744.65 1282.99 1744.64 1283.49 1744.86C1270.78 1772.58 1265.64 1804.46 1242.36 1819.82ZM1949.3 1488.86C1934.96 1486.37 1920.5 1487.98 1906.5 1490.97C1900.37 1461.68 1885.97 1451.35 1867.03 1445.93C1868.92 1442.34 1870.82 1438.7 1872.74 1435.06C1908.27 1460.23 1899.22 1451.62 1949.3 1488.86ZM2065.38 1570.49C2094.57 1570.07 2123.2 1572.02 2152.59 1576.18C2151.7 1584.89 2148.62 1553.45 2171.39 1692.3C2172.24 1697.36 2176.62 1700.93 2181.62 1700.93C2189.59 1700.93 2184.29 1700.91 2313.12 1577.82C2319.82 1583.34 2326.56 1588.9 2333.75 1595.72C2334.02 1596.07 2334.11 1596.43 2334.11 1596.8C2335.33 1600.06 2337.78 1602.48 2340.63 1603.36C2340.75 1603.4 2340.76 1603.57 2340.88 1603.61C2340.99 1603.65 2341.11 1603.52 2341.24 1603.55C2354.24 1608.23 2364.08 1583.38 2369.38 1570.64C2387.03 1530.92 2408.37 1473.9 2422.08 1443.22C2422.9 1443.63 2423.74 1444.47 2424.15 1444.88C2424.36 1445.03 2424.61 1445.01 2424.82 1445.15C2438.27 1455.37 2515 1493.01 2545.27 1498.55C2559.36 1500.86 2574.31 1501.18 2585.82 1501.18C2573.44 1537.88 2473.99 1759.36 2473.99 1763.52C2457.24 1801.92 2447.59 1826.05 2441.02 1863.77C2426.69 1860.96 2388.18 1851.51 2357.25 1826.15C2346.53 1817.46 2333.56 1833.49 2344.08 1842.19C2380.07 1871.69 2423.74 1881.72 2438.74 1884.48C2439.35 1890.32 2432.52 1899.93 2450.63 1968.29C2481.16 2083.21 2506.2 2201 2525.05 2318.54C2430.86 2355.52 2327.48 2365.3 2233 2368.94C2236.07 2366.25 2239.54 2364.12 2242.03 2360.7C2249.89 2350.13 2253.74 2336.22 2253.19 2320.53C2252.03 2291.37 2244.99 2280.58 2145.02 2085.07C2123.22 2041.8 2088.28 2005.08 2046.21 1979.04C2068.07 1973.4 2085.66 1957.5 2087.92 1932.78C2103.37 1929.8 2116.69 1921.11 2121.91 1906.4C2122.45 1902.23 2125.58 1902.87 2121.79 1876.73C2118.11 1852.81 2104.42 1837.51 2086.17 1830.28C2105.16 1794.17 2082.49 1748.32 2039.15 1743.37C2039.15 1743.37 2039.15 1743.37 2039.11 1743.37C2077.12 1700.74 2069.72 1638.78 2011.2 1630.65C2027.26 1606.61 2018.2 1583.49 1999.6 1575.2C2005.31 1560.6 2005.13 1544.56 2000.57 1531.48C2001.86 1530.63 2003.18 1529.63 2004.47 1528.78C2005.23 1528.34 2005.92 1527.89 2006.53 1527.41C2012.06 1532.53 2058.26 1572.87 2065.38 1570.49ZM2079.3 1288.34L2079.65 1285.28C2079.66 1285.2 2079.75 1285.16 2079.76 1285.08C2089.01 1210.97 2102.3 1205.18 2134.94 1163.47C2141.16 1154.76 2147.8 1146.05 2154.84 1138.16C2164.82 1187.7 2213.3 1212.7 2217.45 1216.56L2217.47 1216.56C2217.49 1216.57 2217.5 1216.59 2217.5 1216.59C2265.16 1246.52 2292.71 1249.42 2300.87 1264.83C2308.29 1278.92 2322.05 1279.18 2330.8 1263.91L2332.44 1260.59C2333.2 1259.2 2333.56 1258.86 2334.1 1257.89C2339.32 1248.83 2353.6 1251.15 2358.45 1255.23C2358.59 1255.36 2358.89 1255.46 2359 1255.61C2367.44 1264.45 2366.42 1284.52 2363.04 1297.38C2360.09 1309.47 2347.27 1319.83 2335.97 1313.26C2327.12 1308.24 2309.88 1315.04 2312.53 1333.64C2308.52 1362.97 2300.16 1446.02 2293.45 1486.39C2289.74 1514.86 2285.8 1523.95 2290.05 1571.25L2188.53 1669.44L2172.49 1575.5C2173.44 1574.55 2174.74 1574.01 2175.28 1572.68L2176.61 1569.4C2190.84 1534.17 2188.77 1515.21 2187.53 1464.07C2220.59 1453.73 2258.63 1437.55 2287.93 1404.8C2291.76 1400.54 2291.4 1393.97 2287.15 1390.12C2282.91 1386.39 2276.33 1386.72 2272.5 1390.93C2242.84 1424.02 2201.69 1438.95 2168.84 1448.26C2165.44 1448.15 2159.65 1448.18 2151.18 1449.34C2133.4 1447.81 2124.55 1444.14 2117 1439.41C2115.8 1438.67 2114.52 1438.13 2113.4 1437.26C2103.39 1426.51 2102.27 1422.53 2093.73 1402.6C2076.15 1364.3 2076.2 1326.49 2079.3 1288.34ZM2228.72 1116.97C2236.19 1107.43 2246.15 1112 2250.29 1114.06C2304.55 1133.58 2314.87 1175.66 2328.71 1194.59C2299.9 1169.82 2304.78 1166.77 2260.66 1139.8C2260.66 1139.8 2260.66 1139.39 2260.25 1139.39C2261.91 1142.71 2262.73 1146.86 2259.42 1151.43L2257.35 1154.75L2253.19 1153.51C2244.77 1149.57 2240.88 1142.55 2236.6 1136.9C2234.94 1131.51 2233.69 1126.94 2229.96 1124.86L2225.4 1121.55L2228.72 1116.97ZM2370.22 1369.75L2376.44 1392.58C2384.02 1418.82 2367.75 1436.89 2366.47 1462.31L2363.99 1504.65L2356.1 1462.73C2352.78 1445.3 2356.93 1429.52 2361.09 1414.16C2368.51 1388.87 2365.8 1393.09 2370.22 1369.75ZM2470.08 1358.14C2529.48 1229.53 2479.54 1072.73 2467.26 941.169C2466.9 937.054 2457.26 829.245 2455.47 825.522C2448.44 810.893 2435.7 803.695 2427.92 795.845C2398.55 765.103 2397.8 761.309 2407.91 735.181C2416.66 712.222 2412.85 723.734 2413.64 717.494C2413.9 717.247 2414.3 717.33 2414.54 717.05C2423.87 706.639 2434.42 694.88 2447.25 689.904C2457.49 685.963 2471.74 687.506 2476.99 696.67C2479.42 700.825 2479.9 704.734 2480.87 708.905L2437.58 736.79C2428.92 742.325 2432.86 755.889 2443.19 755.889C2465.42 755.889 2487.19 770.111 2496.09 790.508C2498.35 795.681 2504.39 798.128 2509.75 795.845C2515 793.546 2517.4 787.421 2515.1 782.149C2506.71 762.984 2489.96 747.826 2470.43 740.321L2488.08 728.924C2489.54 732.488 2490.36 736.297 2492.1 739.713C2497.81 750.881 2505.95 759.782 2518.48 759.782C2521.02 759.782 2523.21 758.402 2525.54 757.548C2502.92 806.06 2531.38 791.723 2578.78 993.859C2592.92 1053.29 2606.72 1117.08 2611.73 1181.08C2618.94 1275.61 2601.76 1389.02 2577.86 1480.24C2568.63 1480.08 2558.51 1479.68 2548.84 1478.08C2523.21 1473.4 2464.66 1444.4 2442.85 1431.95C2457.88 1385.43 2459.15 1383.13 2470.08 1358.14ZM2383.15 578.79C2384.09 578.264 2386.12 578.018 2388.54 578.872C2395.48 581.844 2399 596.427 2402.92 606.889C2408.75 623.147 2414.28 638.453 2417.12 656.172C2421.83 672.693 2420.93 674.007 2425.1 678.688C2418.55 683.319 2412.65 688.656 2407.47 694.075C2405 686.603 2402.57 679 2398.83 671.495C2385.16 646.319 2377.49 582.501 2383.15 578.79ZM2503.56 673.12C2505.35 675.764 2507.58 678.211 2509.68 680.724C2506.1 683.943 2504.66 688.984 2507.19 693.304C2515.72 707.936 2523.73 723.34 2519.68 736.593C2516.39 746.759 2505 720.154 2501.49 705.949C2499.21 696.161 2498.02 691.563 2494.99 686.291C2489.59 676.881 2480.84 671.478 2471.26 668.965C2472.28 668.621 2473.22 668.358 2474.3 668.013C2500.68 659.276 2496.96 665.977 2503.56 673.12ZM2040.54 2374.65C2034.96 2361.03 1987.66 2245.6 1981.69 2231.64C1976.2 2219.05 1957.21 2227.2 1962.59 2239.83C1967.91 2252.24 2005.72 2344.43 2017.99 2374.33C2017.35 2375.07 2016.79 2375.87 2016.39 2376.71C2011.71 2377.6 2007.49 2378.78 2004.03 2379.8C1868.16 2416.31 1723 2386.29 1649.01 2337.15C1668.1 2278.83 1660.25 2216.05 1660.68 2157.47C1660.76 2146.98 1661.85 1968.67 1661.54 1952.94C1688.79 1951.82 1691.33 1954.8 1724.58 1953.18C1730.68 1953.18 1732.87 1953.38 1738.93 1952.65C1743.15 1971.75 1756.3 1982.19 1774.8 1989C1778.24 1990.77 1781.41 1993.1 1785.11 1994.23C1804.28 1999.99 1826.51 1999.14 1850.99 1991.84C1870.62 1986.41 1908.25 1968.26 1922.73 1958.36C1923.7 1957.59 1925.05 1956.91 1928.81 1955.12V1955.04C1937.8 1960.47 1938.38 1946.62 1994.26 1974.13C1994.28 1974.13 1994.28 1974.13 1994.3 1974.13C2020.17 1986.94 2010.33 1982.24 2022.57 1988.48C2067.22 2012.39 2104.14 2050.05 2126.52 2094.44C2228.45 2294.09 2231.56 2298.31 2232.44 2321.3C2233.41 2346.96 2220.49 2357.36 2197.46 2366.95C2144.56 2388.21 2095.26 2388 2040.54 2374.65ZM1759.58 1649.4C1766.62 1649.95 1764.29 1649.74 1764.83 1649.78C1774.45 1649.78 1780.1 1636.39 1768.9 1630.78C1776.98 1614.79 1784.25 1599.05 1802.87 1564.61C1803.25 1564.9 1814.03 1574.59 1814.38 1574.91C1818.96 1581.93 1822.21 1586.1 1827.3 1588.53C1838.02 1592.39 1852.53 1596.32 1869.89 1592.59C1881.23 1589.45 1886.73 1600.3 1886.02 1611.8C1885.01 1622.38 1882.33 1649.74 1909.76 1657.6C1909.39 1661.87 1908.35 1669.29 1908.45 1679.33C1907.1 1692.12 1914.85 1698.79 1926.82 1697.41C1932.63 1696.6 1938.25 1698.54 1942.42 1702.92C1947.69 1708.48 1949.94 1716.74 1948.41 1724.89C1944.67 1743.37 1940.09 1747.75 1921.73 1750.71C1908.63 1752.21 1905.22 1759.95 1902.84 1767.93C1899.32 1784.11 1897.22 1799.59 1896.35 1815.48C1895.97 1827.79 1892.02 1843.12 1894.87 1857.64C1905.95 1914.33 1906.76 1919.33 1911.55 1940.67C1874.01 1965.01 1824.3 1984.79 1782.27 1969.84C1777.67 1967.22 1773.73 1964.02 1770.27 1960.12C1783.79 1933.97 1786.8 1909.13 1788.93 1877.5C1789.21 1867.5 1789.49 1856.36 1789.13 1849.15C1793.33 1848.67 1797.14 1848.6 1809.22 1846.53C1837.87 1843.12 1861.68 1830.42 1867.57 1824.52C1873.01 1822.7 1875.94 1816.82 1874.14 1811.39C1871.77 1804.25 1862.68 1801.24 1854.72 1808.63C1852.75 1809.72 1851.33 1810.66 1850.14 1811.43C1850.14 1811.47 1847.74 1812.93 1847.72 1812.93C1842.58 1816.41 1826.41 1823.57 1806.29 1825.98C1783.76 1829.74 1784.81 1827.8 1782.04 1829.3C1781.17 1829.3 1776.41 1829.91 1774.06 1830.64C1773.34 1830.72 1772.5 1830.27 1771.83 1830.48C1760.04 1834.71 1711.1 1817.14 1698.26 1790.45C1705.99 1772.8 1713.43 1754.98 1720.82 1737.09C1752.03 1661.58 1752.01 1664.86 1759.58 1649.4ZM909.437 2279.89C927.944 2263.61 934.112 2262.82 957.311 2249.12C954.978 2306.62 953.672 2361.48 953.634 2364.64C939.607 2337.65 922.275 2304.34 909.437 2279.89ZM720.846 1766.56C716.286 1752.03 713.38 1737.08 712.551 1722.14C712.551 1707.54 733.299 1707.32 733.299 1720.89C734.128 1734.18 736.617 1747.46 740.767 1760.33C744.545 1772.63 725.913 1780.48 720.846 1766.56ZM978.957 1939.96C980.45 1971.42 975.397 2002.31 968.296 2045.67C967.393 2043.8 966.405 2042.05 965.54 2040.12C864.306 1817.49 853.614 1860.17 782.78 1826.96C808.072 1788.22 813.505 1744.66 808.813 1725.88C804.663 1708.03 791.388 1695.16 779.769 1684.38C759.829 1664.41 747.644 1653.7 759.019 1616.72C762.369 1605.57 767.098 1595.66 772.562 1586.26C824.831 1671.72 829.641 1681.61 903.405 1768.62C926.214 1795.54 949.82 1823.39 970.99 1852.2C989.599 1877.68 977.805 1906.79 978.957 1939.96ZM650.418 1474.11C655.061 1482.57 658.783 1491.71 662.342 1500.5C669.605 1517.93 671.746 1522.91 676.748 1552.25C678.293 1558.42 681.161 1565.18 680.601 1568.57C679.767 1573.96 681.429 1579.36 685.581 1582.68C698.269 1591.75 707.25 1578.19 723.386 1581.35C741.795 1585.22 735.807 1602.9 725.333 1618.61C720.585 1624.3 706.69 1638.79 699.931 1635.63C698.312 1634.57 696.421 1634.26 694.523 1634.08C694.168 1634.04 693.888 1633.8 693.533 1633.79C686.089 1633.73 679.767 1639.48 679.767 1645.61C679.767 1645.61 679.767 1645.58 679.767 1645.77C681.148 1651.28 679.207 1652.69 673.96 1658.64C663.444 1669.16 663.874 1677.29 665.248 1692.68C669.112 1750.65 672.374 1768.84 672.941 1773.5C676.855 1802.91 675.617 1807.31 681.56 1814.47C683.277 1816.59 685.498 1818.52 688.442 1820.06C689.164 1820.51 689.961 1820.6 690.721 1820.98C692.275 1821.83 693.812 1822.7 695.469 1823.33C669.692 1838.79 641.215 1843.49 611.307 1842.77C588.594 1842 567.341 1835.73 546.164 1828.88C558.585 1810.96 560.628 1795.09 564.834 1771.95C565.249 1771.53 565.249 1769.46 565.249 1768.62C566.319 1758.81 567.754 1745.9 564.735 1732.08C569.031 1732.4 573.65 1733.11 577.696 1733.11C602.496 1733.11 622.918 1727.08 641.719 1714.55C646.48 1711.39 647.78 1704.95 644.6 1700.16C641.395 1695.38 634.935 1694.08 630.212 1697.28C580.763 1730.33 507.437 1715.03 486.726 1638.65C486.638 1638.34 486.507 1638.05 486.423 1637.74L485.489 1634.28C481.428 1621.94 484.819 1614.06 466.178 1610.63C463.022 1609.97 462.456 1610.02 460.364 1609.43C460.098 1609.36 459.772 1609.34 459.519 1609.24C448.291 1605.34 455.311 1566.48 460.271 1564.83C461.515 1564.42 464.418 1565.24 468.154 1568.15C468.985 1568.57 469.813 1569.4 470.643 1569.81C475.756 1571.51 486.12 1571.42 490.258 1565.45C490.334 1565.34 490.483 1565.36 490.559 1565.24V1565.24C490.577 1565.21 490.62 1565.21 490.638 1565.18C493.724 1560.2 490.979 1558.03 491.836 1550.25C493.483 1537.22 503.455 1524.51 510.808 1512.11C511.337 1511.81 511.975 1511.91 512.458 1511.52C522.244 1503.66 535.13 1499.84 547.448 1501.1C560.985 1502.76 563.274 1481.8 549.515 1480.43C541.955 1479.8 534.457 1480.61 527.196 1482.28C541.567 1457.8 553.713 1449.43 571.918 1443.21C572.995 1442.86 573.907 1442.05 574.994 1441.74C575.868 1441.49 576.79 1441.66 577.67 1441.43C609.475 1433.53 635.258 1446.7 650.418 1474.11ZM881.103 2277.33C866.739 2166.74 851.977 2046.18 852.755 2030.8C855.848 2020.52 843.077 2012.85 835.473 2020.46C830.874 2025.08 826.537 2029.46 873.111 2375.1C873.167 2375.5 873.559 2375.71 873.659 2376.1C873.733 2376.73 873.305 2377.27 873.497 2377.89C875.158 2383.2 872.993 2388.55 872.203 2389.32C810.126 2414 741.708 2420.73 676.855 2425.56C547.251 2436.16 511.021 2427.3 451.494 2412.22C438.411 2408.93 424.077 2405.25 413.086 2401.36L405.969 2020.1C405.723 2006.29 384.98 2006.71 385.223 2020.5L389.685 2259.57C383.243 2257.64 377.507 2255.85 371.771 2252.2C347.462 2237.91 326.799 2229.85 311.82 2222.03C302.498 2217.15 301.159 2216.23 281.491 2210.24C294.186 2147.84 326.763 2071.38 354.347 1990.02C371.235 1938.54 386.182 1915.4 432.055 1883.6L435.159 1881.11C454.894 1866.39 469.217 1860.73 492.304 1848.8C497.479 1846.17 503.602 1843.22 505.643 1842.97C508.669 1844.6 511.755 1844.74 515.014 1844.33C516.549 1847.54 517.997 1850.76 519.606 1853.98C532.741 1853.98 543.693 1863.81 556.95 1866.02C588.07 1870.16 617.53 1877.63 650.313 1871.41C682.2 1865.26 709.303 1853.7 732.933 1832.96C734.674 1835.19 737.612 1836.73 739.933 1837.11C741.179 1837.11 743.668 1837.53 744.502 1837.95C745.472 1838.72 746.692 1838.45 747.8 1838.72C749.169 1839.11 750.432 1839.97 751.857 1839.72C752.53 1839.64 753.145 1839.95 753.805 1839.93C764.752 1839.71 771.592 1845.44 782.856 1849.61L790.554 1852.49C834.453 1869.16 845.3 1859.05 887.619 1930.23C893.375 1941.01 900.798 1947.88 936.166 2025.77L946.658 2048.75C951.823 2060.29 957.922 2070.74 963.243 2081.86C960.206 2109.72 963.461 2094.02 958.127 2223.61C950.983 2228.98 942.923 2233.63 934.242 2238.37C907.538 2252.93 904.944 2256.16 889.037 2269.99C886.268 2272.78 883.716 2274.97 881.103 2277.33ZM276.974 2230.58C291.73 2235 292.27 2235.2 302.196 2240.4C316.458 2247.98 337.933 2256.39 360.952 2269.91C369.466 2275.31 383.864 2279.93 388.932 2280.85C389.303 2281.03 389.708 2280.98 390.087 2281.12L392.243 2396.68L252.295 2377.2C258.476 2327.06 266.321 2272.88 276.974 2230.58ZM85.0571 1580.1C80.77 1605.31 80.8227 1630.67 85.8547 1655.86C87.5805 1664.87 91.0818 1670.65 100.03 1672.86C130.814 1707.68 151.38 1765 157.962 1804.5C167.372 1853.01 167.808 1888.04 168.477 1911.31C165.868 1922.18 191.045 2153.38 183.51 2340.84C183.51 2353.31 188.3 2359.86 200.651 2361.88C212.095 2363.58 222.535 2363.99 233.067 2364.43C232.208 2371.23 231.277 2378.18 230.474 2384.82C229.785 2390.45 233.737 2395.56 239.328 2396.37L398.17 2418.49C399.663 2419.33 401.041 2420.41 402.87 2420.41C402.93 2420.41 402.991 2420.41 403.073 2420.41C403.462 2420.4 403.686 2420.02 404.065 2419.97C416.404 2424.56 431.984 2428.71 446.43 2432.37C509.432 2448.09 545.58 2457.09 678.472 2446.23C744.843 2441.33 815.048 2434.35 879.919 2408.57C891.364 2403.98 897.364 2387.65 893.468 2373.07C893.448 2372.8 893.691 2372.61 893.66 2372.34C890.779 2350.98 887.624 2327.23 884.394 2302.58C886.386 2301.56 888.128 2300.11 889.142 2298C890.71 2296.67 891.956 2295.38 893.444 2294.07C918.554 2341.98 958.513 2419.11 958.513 2419.11C960.373 2422.72 964.083 2424.7 967.73 2424.7C968.9 2424.7 970.013 2424.25 971.128 2423.86C993.562 2446.31 1031.99 2444.55 1061.8 2442.7C1125.44 2438.23 1292.4 2458.97 1484.27 2436.66C1549.02 2429.11 1611.74 2413.4 1640.84 2356.43C1807.37 2462.83 2024.72 2396.26 2028.87 2396.05C2030.69 2395.92 2032.43 2395.36 2033.94 2394.39C2084.54 2407.09 2133.15 2409.81 2189.89 2391.05C2299.74 2388.37 2426.41 2381.57 2540.54 2334.68C2544.98 2332.86 2547.6 2328.19 2546.85 2323.45C2527.74 2202.5 2502.11 2081.22 2470.69 1962.95C2450.41 1886.65 2462.92 1885.93 2459.08 1876.24C2464.99 1862.6 2456.93 1854.82 2492.26 1773.65C2495.92 1772.43 2499.42 1770.96 2502.6 1769.19C2510.09 1774.9 2516.23 1779.16 2527.33 1781.19C2538.33 1783.2 2550.33 1781.86 2560.87 1776.81C2571.66 1772.41 2578.91 1764.46 2586.2 1759.06C2594.59 1753.06 2600.58 1744.18 2603.37 1734.25C2633.6 1746.1 2655.12 1710.56 2660.93 1678.07C2664.31 1658.21 2661.26 1641.14 2651.05 1623.23C2680.04 1603.84 2686.82 1551.28 2655.01 1530.57C2647.32 1525.74 2644.97 1521.16 2644.2 1515.57C2645.2 1511.12 2645.71 1505.89 2645.71 1500.13C2646.29 1472.45 2636.67 1449.59 2618.95 1437.22C2616.41 1435.6 2613.32 1434.91 2610.51 1433.7C2647.7 1253.61 2639.18 1157.84 2598.96 989.116C2550.28 781.377 2525.56 805.173 2545.47 763.625C2561.43 729.942 2551.05 723.143 2548.46 710.169C2547.14 702.944 2546.34 693.928 2539.15 684.025C2532.83 675.419 2526.08 669.245 2520.2 660.803C2514.05 652.149 2511.06 648.29 2505.12 645.761C2490.23 639.175 2473.87 646.729 2460.84 650.457C2453.44 652.855 2446.95 654.875 2439.78 660.311C2433.13 634.725 2436.64 639.306 2422.42 599.876C2417.65 586.328 2413.02 566.801 2396.25 559.625C2379.77 553.351 2363.07 561.579 2361.12 580.169C2359.28 603.604 2365.44 653.463 2380.43 681.052C2385.37 690.939 2388.19 701.745 2392.89 715.441C2375.31 762.064 2374.57 770.013 2413.08 810.364C2421.09 818.375 2431.21 824.476 2436 833.024C2450.14 971.965 2445.11 946.292 2460.1 1042.75C2476.17 1146.34 2492.43 1253.24 2453.34 1343.8C2452.42 1307.2 2436.62 1271.86 2427.87 1238.59C2400.57 1133.86 2336.99 1080.66 2269.79 1065.92C2227.06 1057.21 2188.05 1068.83 2152.79 1082.53C2065.23 1116.39 2030.07 1204.16 2058.91 1284.17C2049.31 1371.2 2076.14 1411.44 2077.94 1418.29C2082.5 1429.04 2087.5 1439.79 2095.16 1447.59C2097.79 1472.66 2116.65 1507.4 2147.09 1528.22C2152.28 1531.99 2158.76 1534.71 2165.12 1537.57C2163.93 1543.87 2161.88 1549.99 2159.45 1556.16C2155.25 1555.73 2125.67 1550.01 2068.52 1549.7C2062.67 1545.14 2047.19 1537.39 2016.48 1508.28C2013.57 1505.41 2010.07 1504.37 2006.35 1504.31C1970.7 1480.08 1939.86 1454.5 1905.77 1432.72C1897.66 1427.43 1890.03 1422.01 1882.43 1416.54C1984.2 1219.28 1999.93 1119.35 2003.97 1107.52C2004.65 1105.1 2009.86 1083.6 2010.01 1081.09C2011.39 1074.08 2012.96 1064.8 2007.63 1056.08C2003.01 1048.75 1995.18 1045.26 1988.93 1041.4C1990.62 1031.71 1988.63 1034.92 1992.95 1021.46C2002.49 991.88 2009.79 953.613 2042.43 924.629C2043.55 923.658 2046.09 922.525 2048.34 921.51C2056.8 917.836 2062.3 913.585 2070.78 910.602C2100.05 900.343 2110.92 859.008 2110.82 828.001C2110.79 820.119 2112.37 763.395 2112.45 761.44C2112.53 744.788 2101.94 722.979 2084.16 715.359C2079.63 713.405 2074.77 712.616 2069.91 712.025C2094.1 566.654 2097.89 422.99 2080.95 276.945C2079.52 262.51 2076.36 246.416 2063.41 236.332C2049.9 226.61 2038.11 227.875 1938.97 225.263C1400.34 209.974 988.584 238.204 861.586 237.137C801.98 236.89 740.468 236.48 686.152 251.769C637.81 265.055 606.264 313.091 592.387 394.48C573.277 504.593 566.086 615.675 570.437 724.868C564.668 724.276 558.925 723.652 552.92 723.34C534.117 722.404 516.917 730.32 504.07 746.282C489.868 763.838 492.626 778.372 504.558 788.439C484.283 807.259 485.002 831.485 512.438 846.277C495.42 865.569 496.494 891.516 514.85 910.808C528.12 927.261 547.408 930.469 561.307 932.778C577.329 935.697 566.515 945.328 605.786 1023.57C586.604 1034.89 589.819 1055.74 594.099 1077.8C607.101 1127.85 662.217 1340.06 676.487 1390.09C642.06 1369.11 598.704 1365.56 563.583 1372.72C563.545 1368.56 563.029 1370.81 563.778 1358.38C564.123 1352.71 564.426 1347.03 563.982 1341.6C563.798 1338.28 563.353 1330.5 565.622 1327.25C569.777 1326.64 567.672 1327.56 575.712 1325.47C575.935 1325.51 578.325 1325.59 578.527 1325.59C583.254 1325.59 585.087 1323.1 588.678 1320.04C590.825 1318.21 593.257 1316.15 595.486 1313.18C606.75 1298.51 608.027 1272.69 598.302 1259.16C588.233 1244.32 574.091 1238.81 558.349 1243.39C557.602 1237.6 560.183 1222.32 552.453 1193.01C548.41 1177.95 546.095 1163.97 541.922 1144.34C542.56 1141.45 543.396 1138.48 544.329 1135.48C556.505 1095.56 536.585 1113.95 548.461 1070.88C549.602 1064.61 551.262 1065.36 550.933 1052.88C550.204 1029.45 529.376 1023.98 522.528 1022.2C505.52 1017.75 494.291 1025.1 485.493 1040.19C475.706 1011.67 433.099 1012.84 422.319 1044.81C421.874 1046.11 421.469 1047.41 421.044 1048.7C412.298 1035.16 396.191 1028.04 380.503 1033.18C363.991 1038.45 360.587 1053.12 358.358 1062.81C356.421 1071.13 356.332 1069.3 355.115 1075.86C353.782 1074.14 351.773 1071.93 349.808 1071C323.619 1057.69 298.103 1071.6 294.375 1101.84C294.152 1103.59 293.97 1104.64 294.052 1105.04C293.585 1105.12 292.876 1105.21 291.883 1105.25C255.264 1107.29 230.995 1149.65 248.262 1181.58C264.589 1211.74 261.713 1234.07 271.705 1259.39C240.166 1295.77 258.144 1341.22 293.503 1344.36C293.686 1346.6 291.175 1325.29 312.725 1466.2C298.407 1451.52 284.139 1436.87 269.677 1422.42C267.165 1419.91 263.217 1419.75 259.753 1420.52L254.24 1403.74C169.593 1144.49 205.015 1181.55 176.764 987.049C173.091 962.011 171.435 935.174 164.486 908.697C159.052 888.509 171.153 903.412 200.144 871.203C224.436 848.387 229.136 821.793 213.841 794.433C209.201 785.68 204.074 778.257 198.625 772.345C189.965 762.902 196.804 768.108 188.596 729.991C186.672 721.074 184.848 712.6 184.321 704.044C182.058 663.99 179.504 662.019 178 651.64C176.135 641.507 174.007 629.946 169.146 619.534C161.148 603.538 147.206 598.924 134.602 605.263C103.238 620.388 119.994 683.007 119.203 739.631C104.293 736.1 89.8029 730.271 75.6035 742.062C-4.15623 731.765 -13.2889 826.399 31.5167 885.029C35.1431 890.097 35.7916 892.245 34.7987 896.216C24.5491 942.376 21.0201 992.273 16.3212 1046.56C-4.93001 1282.14 -23.7206 1256.24 85.0571 1580.1Z" fill="#040606"/>
<path d="M582.057 1633.78C568.159 1640.14 554.889 1639.6 542.053 1630.71C539.374 1628.86 535.664 1627.02 532.729 1631.08C530.383 1666.24 579.038 1671.22 590.144 1644.06C593.53 1635.78 590.627 1632.58 582.057 1633.78Z" fill="#040606"/>
<path d="M760.706 2144.99C657.991 2149.16 557.132 2150.86 460.53 2150.94H460.51C454.797 2150.94 450.157 2155.56 450.137 2161.28C450.117 2167.03 454.756 2171.69 460.49 2171.69C465.495 2171.69 470.499 2171.69 475.523 2171.69C567.708 2171.69 663.866 2169.71 761.558 2165.73C775.075 2165.16 774.727 2144.7 760.706 2144.99Z" fill="#040606"/>
<path d="M556.585 1607.75C569.424 1613.05 576.951 1593.63 564.365 1588.53L556.788 1585.42C559.148 1572.32 567.496 1557.49 571.517 1542.45C575.006 1529.16 555.005 1523.88 551.459 1537.1C549.838 1543.26 547.407 1549.18 545.016 1555.09C541.106 1564.74 537.074 1574.71 535.758 1585.9C533.508 1603.53 550.99 1604.36 556.585 1607.75Z" fill="#040606"/>
<path d="M624.541 1505.07C633.111 1506.94 640.809 1512.66 645.121 1520.32C647.891 1525.15 654.039 1527.12 659.267 1524.25C664.252 1521.41 666.013 1515.09 663.194 1510.1C656.006 1497.37 643.217 1487.93 628.897 1484.77C625.493 1484.08 622.006 1483.67 618.562 1483.35C618.129 1487.51 615.982 1508.14 616.414 1503.98C619.149 1504.26 621.925 1504.51 624.541 1505.07Z" fill="#040606"/>
<path d="M617.427 1493.64L617.789 1490.36L618.501 1483.31L617.427 1493.64Z" fill="#040606"/>
<path d="M635.034 1527.48C635.108 1519.55 632.588 1512.83 625.941 1512.62C617.698 1512.38 614.366 1520.19 614.132 1529.68C613.739 1545.71 634.866 1546.46 635.034 1527.48Z" fill="#040606"/>
<path d="M543.515 1523.01C543.585 1515.08 541.068 1508.36 534.418 1508.16C526.177 1507.91 522.841 1515.72 522.609 1525.22C522.213 1541.3 543.345 1541.95 543.515 1523.01Z" fill="#040606"/>
<path d="M474.895 1575.12C469.405 1573.7 463.671 1576.9 462.151 1582.42C461.219 1585.82 460.632 1589.39 460.085 1592.91L480.568 1596.15C481.014 1593.36 481.439 1590.56 482.169 1587.84C483.668 1582.33 480.426 1576.62 474.895 1575.12Z" fill="#040606"/>
<path d="M695.225 1624.12C710.659 1617.77 730.878 1598.71 716.969 1589.51C712.227 1586.34 705.804 1587.6 702.581 1592.39C698.915 1597.94 693.507 1602.4 687.328 1604.91C682.038 1607.1 679.505 1613.18 681.671 1618.45C683.88 1623.78 689.929 1626.27 695.225 1624.12Z" fill="#040606"/>
<path d="M1626.72 1075.58C1623.79 1075.29 1620.02 1071.93 1616.98 1069.25C1614.38 1067.01 1614.07 1066.48 1612.76 1063.58L1609.82 1057.29C1607.4 1052.11 1601.15 1050 1596.03 1052.31C1590.84 1054.79 1588.61 1060.94 1591.06 1066.13C1595.18 1074.08 1594.78 1077.29 1603.24 1084.82C1636.75 1114.43 1644.32 1077.59 1626.72 1075.58Z" fill="#040606"/>
<path d="M1663.58 1068.85C1660.41 1069.06 1655.68 1069.54 1653.84 1068.36C1650.9 1066.51 1647.39 1056.2 1646.44 1052.89C1642.63 1039.6 1622.72 1045.46 1626.5 1058.63C1634.65 1086.84 1645.95 1091.08 1665.4 1089.52C1671.11 1089.04 1675.33 1083.97 1674.81 1078.29C1674.31 1072.54 1668.97 1067.84 1663.58 1068.85Z" fill="#040606"/>
<path d="M1705.92 1042.62C1704.02 1044.93 1700.49 1047.04 1697.87 1046.15C1690.22 1045.84 1688.57 1039.03 1684.95 1028.88C1680.16 1015.99 1660.76 1023.22 1665.5 1036.1C1667.78 1042.25 1669.87 1048.72 1672.99 1053.37C1678.25 1061.23 1687.36 1066.41 1696.77 1066.9C1719.21 1066.9 1730.6 1049.74 1720.53 1041.29C1716.15 1037.68 1709.62 1038.21 1705.92 1042.62Z" fill="#040606"/>
<path d="M2158.98 1341.32C2161.34 1341.32 2163.69 1341.15 2166.01 1340.87C2171.68 1340.14 2175.72 1334.95 2175.01 1329.28C2174.27 1323.61 2168.87 1319.8 2163.42 1320.28C2159.47 1320.81 2155.4 1320.6 2151.01 1319.59C2154.87 1305.91 2163.17 1295.35 2164.57 1281.21C2165.96 1267.7 2145.28 1265.14 2143.95 1279.1C2142.45 1293.58 2105.13 1341.32 2158.98 1341.32Z" fill="#040606"/>
<path d="M2176.91 1352.79C2150.48 1363.58 2135.32 1361.49 2131.15 1362.27C2118.33 1362.27 2116.07 1382.18 2131.84 1383.03C2150.52 1383.03 2167.83 1378.75 2184.65 1372.08C2189.96 1369.93 2192.55 1363.9 2190.4 1358.59C2188.28 1353.28 2182.28 1350.8 2176.91 1352.79Z" fill="#040606"/>
<path d="M2190.64 1257.62C2194.66 1252.15 2210.06 1249.82 2217.33 1255.67C2221.79 1259.2 2228.35 1258.47 2231.9 1253.97C2235.46 1249.47 2234.72 1242.95 2230.21 1239.38C2213.29 1225.96 2184.6 1230.9 2173.95 1245.29C2165.81 1256.34 2182.46 1268.65 2190.64 1257.62Z" fill="#040606"/>
<path d="M2109.5 1270.34C2114.99 1262.93 2124.21 1256.4 2132.62 1259.16C2138.02 1260.61 2143.89 1257.74 2145.56 1252.27C2150.8 1235.23 2114.52 1228.6 2092.85 1258.02C2087.78 1264.8 2092.65 1274.56 2101.18 1274.56C2104.34 1274.56 2107.48 1273.1 2109.5 1270.34Z" fill="#040606"/>
<path d="M2190.4 1272.62C2188.77 1279.87 2192.44 1285.26 2199.01 1288.44C2209.01 1293.31 2212.19 1285.46 2216.07 1279.03C2214.8 1273.19 2211.57 1268.53 2207.3 1264.5C2200.04 1263.85 2192.45 1263.38 2190.4 1272.62Z" fill="#040606"/>
<path d="M2120.88 1268.76C2115.5 1267.72 2116.56 1272.9 2115.74 1276.61C2116.25 1282.03 2115.26 1289.47 2122.32 1291.46C2132.39 1294.29 2133.7 1271.26 2120.88 1268.76Z" fill="#040606"/>
<path d="M2341.49 1288.96C2340.79 1291.44 2339.15 1293.78 2339.42 1296.33C2339.72 1299.12 2342.46 1301.27 2345.26 1301.43C2352.05 1301.85 2356.41 1294.28 2357.14 1287.49C2357.48 1284.22 2356.99 1274.73 2355.65 1272.07C2350.98 1265.65 2330.18 1265.7 2337.9 1277.4C2340.59 1281.47 2342.92 1283.8 2341.49 1288.96Z" fill="#040606"/>
<path d="M1756.54 1713.87C1793.01 1726.52 1808.94 1691.48 1789.09 1677.26C1790.94 1675.48 1792.87 1673.73 1794.88 1672.08C1799.28 1668.42 1799.9 1661.9 1796.24 1657.48C1792.57 1653.07 1786.03 1652.38 1781.63 1656.1C1774.54 1661.98 1768.09 1668.71 1762.52 1676.13C1757.63 1682.6 1761.77 1691.92 1769.83 1692.71C1775.4 1693.23 1776.83 1694 1776.58 1694.33C1775.82 1695.22 1774.1 1695.87 1772.19 1695.95C1770.1 1696.39 1767.13 1695.59 1763.23 1694.25C1757.88 1692.26 1751.92 1695.3 1750.07 1700.69C1748.22 1706.12 1751.11 1712.05 1756.54 1713.87Z" fill="#040606"/>
<path d="M1819.61 1646.87C1834.56 1647.12 1837.69 1648.49 1841.84 1648.49C1854.68 1648.49 1855.97 1629.46 1843.14 1627.81C1835.44 1626.84 1827.67 1626.23 1819.93 1626.11C1819.9 1626.11 1819.84 1626.11 1819.77 1626.11C1814.12 1626.11 1809.5 1630.65 1809.4 1636.33C1809.3 1642.04 1813.89 1646.79 1819.61 1646.87Z" fill="#040606"/>
<path d="M1831.87 1739.69C1834.61 1734.66 1832.75 1728.34 1827.7 1725.62C1822.68 1722.95 1816.37 1724.73 1813.64 1729.79C1802.55 1750.28 1782.76 1756.08 1769.37 1749.7C1761.9 1746.32 1760.46 1740.01 1758.49 1728.98C1757.47 1723.35 1751.9 1719.5 1746.46 1720.59C1740.83 1721.61 1737.06 1727 1738.07 1732.63C1739.61 1741.23 1741.72 1752.98 1750.36 1761.62C1769.87 1780.55 1811.66 1777.03 1831.87 1739.69Z" fill="#040606"/>
<path d="M1935.36 1719.72C1934.44 1718.55 1932.99 1717.96 1931.61 1717.41C1927.38 1715.76 1918.21 1711.9 1915.2 1717.43C1915.1 1717.6 1915.02 1717.78 1914.95 1717.95C1913.73 1720.77 1913.83 1726.95 1916.76 1732.19C1924.15 1745.36 1941.04 1726.91 1935.36 1719.72Z" fill="#040606"/>
<path d="M1829.57 1671.63C1828.45 1674.4 1828.35 1677.49 1828.6 1680.46C1828.78 1682.86 1829.21 1684.02 1831.93 1685.36C1841.07 1689.88 1846.26 1687.27 1848.08 1678.67C1851.55 1662.2 1833.64 1661.52 1829.57 1671.63Z" fill="#040606"/>
<path d="M389.659 1236.82C395.878 1230.06 404.691 1225.6 413.808 1224.62C427.451 1223.07 425.245 1202.52 411.58 1203.96C397.519 1205.5 383.966 1212.35 374.382 1222.8C370.512 1227.02 370.776 1233.58 375.01 1237.48C379.165 1241.3 385.741 1241.1 389.659 1236.82Z" fill="#040606"/>
<path d="M496.211 1214.25C503.241 1212.46 510.454 1211.93 517.607 1212.62C523.117 1213.19 528.405 1209.05 528.972 1203.34C529.56 1197.62 525.407 1192.56 519.713 1191.94C510.129 1191.02 500.445 1191.7 491.024 1194.13C485.473 1195.55 482.151 1201.24 483.569 1206.79C484.91 1211.93 490.111 1215.66 496.211 1214.25Z" fill="#040606"/>
<path d="M469.365 1271.27C473.7 1269.73 477.591 1268.48 481.156 1268.48C484.033 1267.51 485.856 1269.37 486.545 1270.3C487.032 1270.99 487.659 1272.53 488.025 1277.8C487.964 1277.85 487.518 1278.41 485.755 1279.38C482.514 1281.09 479.495 1281.98 477.408 1281.53C471.897 1280.76 466.407 1284.45 465.495 1290.08C463.606 1301.58 478.162 1307.21 495.704 1297.59C505.777 1292.04 509.128 1284.92 508.568 1274.85C507.509 1255.23 493.864 1245.18 474.409 1248.34L471.958 1231.96C471.107 1226.28 465.799 1222.43 460.166 1223.24C454.514 1224.1 450.603 1229.36 451.454 1235.04L455.648 1263.04C456.531 1269.15 462.899 1273.58 469.365 1271.27Z" fill="#040606"/>
<path d="M521.816 1324.91C526.011 1321.02 526.233 1314.45 522.344 1310.23C518.433 1306.06 511.869 1305.81 507.675 1309.75C483.222 1332.52 453.69 1331.79 438.506 1315.99C434.575 1311.81 428.011 1311.81 423.838 1315.67C406.259 1332.56 469.251 1373.94 521.816 1324.91Z" fill="#040606"/>
<path d="M326.549 1291.54C317.351 1286.27 309.085 1282.99 301.285 1281.49C295.651 1280.43 290.202 1284.16 289.169 1289.76C288.095 1295.39 291.802 1300.83 297.435 1301.92C302.925 1302.93 309.085 1305.45 316.257 1309.54C328.165 1316.39 338.465 1298.32 326.549 1291.54Z" fill="#040606"/>
<path d="M561.994 1297.35C564.506 1293.69 567.91 1290.73 571.84 1288.83C576.986 1286.28 579.093 1280.08 576.561 1274.93C574.028 1269.74 567.748 1267.67 562.682 1270.18C550.127 1276.43 535.382 1291.5 547.569 1299.97C552.463 1303.28 558.806 1301.91 561.994 1297.35Z" fill="#040606"/>
<path d="M242.711 1902.55C241.576 1908.15 245.183 1913.62 250.795 1914.79C257.071 1915.86 261.983 1911.86 263.053 1906.68C270.448 1870.42 313.834 1804.48 286.676 1800.6C281.307 1800.32 275.756 1803.81 274.986 1809.48C272.757 1825.49 266.112 1840.61 259.082 1856.63C252.679 1871.17 246.054 1886.26 242.711 1902.55Z" fill="#040606"/>
<path d="M315.952 1892.82C322.152 1877.34 327.926 1861.65 333.255 1845.84C335.078 1840.41 332.161 1834.53 326.731 1832.67C321.301 1830.88 315.446 1833.77 313.602 1839.19C308.395 1854.68 302.743 1869.96 296.705 1885.12C291.601 1897.86 310.855 1905.57 315.952 1892.82Z" fill="#040606"/>
<path d="M555.503 180.404C558.382 177.993 561.092 175.057 559.39 171.299C555.447 162.562 551.302 153.868 546.399 145.656C544.058 141.742 539.76 139.203 534.543 141.969C530.139 144.309 527.179 147.443 527.832 153.074C529.823 163.711 533.64 173.554 542.822 180.205C546.611 182.943 551.187 184.035 555.503 180.404Z" fill="#040606"/>
<path d="M572.685 227.976C592.386 228.378 578.534 188.853 564.294 190.352C557.88 191.032 552.685 194.446 552.41 201.94C552.064 211.266 565.064 227.823 572.685 227.976Z" fill="#040606"/>
<path d="M647.281 215.07C655.627 215.723 655.57 208.223 655.913 202.014C655.029 194.973 654.314 187.098 644.724 187.375C638.009 187.584 635.345 193.445 636.179 199.292C637.15 206.084 638.762 214.417 647.281 215.07Z" fill="#040606"/>
<path d="M518.149 109.329C511.863 110.651 506.608 113.582 507.588 120.176C508.656 127.345 512.809 133.795 520.902 134.585C533.982 135.864 535.233 113.596 518.149 109.329Z" fill="#040606"/>
<path d="M504.498 99.4416C510.044 100.04 512.673 96.7129 512.656 89.5481C511.648 77.9911 491.65 72.4752 492.324 86.5275C492.677 93.9111 497.05 98.6536 504.498 99.4416Z" fill="#040606"/>
<path d="M645.514 127.146C638.694 126.59 635.651 130.911 635.507 137.328C635.396 142.419 637.729 146.269 642.97 146.854C650.35 147.666 651.67 141.777 653.231 136.601C653.306 131.125 650.599 127.56 645.514 127.146Z" fill="#040606"/>
<path d="M638.115 167.288C637.966 172.691 640.815 175.589 645.689 176.954C651.7 176.349 654.892 172.705 655.104 167.077C655.278 162.321 653.754 157.65 647.686 157.918C642.066 158.171 638.289 160.999 638.115 167.288Z" fill="#040606"/>
<path d="M1417.42 108.21C1417.41 99.1904 1411.89 95.938 1403.94 94.8395C1394.91 95.9814 1390.59 101.619 1390.44 110.205C1390.29 119.008 1397.34 121.263 1403.96 121.249C1411.7 121.249 1417.42 117.302 1417.42 108.21Z" fill="#040606"/>
<path d="M1202.05 135.011C1201.98 127.468 1198.77 122.583 1191.5 122.525C1183.26 122.44 1178.43 128.026 1177.41 135.54C1175.54 149.183 1196.92 157.025 1202.05 135.011Z" fill="#040606"/>
<path d="M1372.08 143.283C1372.02 150.332 1376.61 154.12 1386.96 153.807C1393.5 153.194 1398.42 147.726 1398.76 138.398C1399.06 130.395 1392.27 129.725 1387.17 129.882C1379.1 130.152 1372.14 133.983 1372.08 143.283Z" fill="#040606"/>
<path d="M1285.39 13.5223C1285.47 6.01894 1281.56 1.35748 1274.26 0.00416973C1266.62 0.756009 1263.26 5.0565 1263.52 12.1539C1263.76 18.8001 1266.55 24.3638 1273.79 24.6194C1280.62 24.86 1285.3 20.8452 1285.39 13.5223Z" fill="#040606"/>
<path d="M1223.09 156.802C1222.6 150.446 1220.54 144.798 1211.88 143.708C1206.84 146.652 1200.07 149.073 1200.8 157.34C1202.16 172.542 1224.16 170.914 1223.09 156.802Z" fill="#040606"/>
<path d="M1280.54 54.3746C1287.26 55.5022 1289.39 51.0509 1290.32 45.1603C1288.26 40.2192 1289.56 32.4144 1279.98 33.5272C1274.19 34.195 1268.36 34.5362 1267.88 42.1333C1267.32 50.9322 1273.71 53.2024 1280.54 54.3746Z" fill="#040606"/>
<path d="M1278.21 63.9488C1270.82 63.3628 1268.35 67.8012 1268.55 74.3196C1268.81 82.6397 1273.69 85.7011 1281.52 85.4521C1287.49 85.2617 1291.2 82.9767 1290.97 75.4036C1289.93 69.0024 1285.83 64.5493 1278.21 63.9488Z" fill="#040606"/>
<path d="M1279.93 97.8723C1271.18 97.1936 1272.64 104.313 1272.26 108.645C1272.13 117.136 1273.93 122.97 1283.05 122.84C1290.35 122.739 1291.14 117.8 1290.6 112.313C1289.93 105.497 1288.37 98.5221 1279.93 97.8723Z" fill="#040606"/>
<path d="M1161.52 114.175C1161.22 119.354 1163.41 123.293 1169.17 123.163C1175.77 123.019 1179.09 118.258 1180.18 112.559C1182.19 101.954 1162.37 99.3142 1161.52 114.175Z" fill="#040606"/>
<path d="M1416.31 70.4965C1406.86 73.0231 1408.37 87.9049 1418.22 89.044C1426.45 90.0079 1429.69 75.4182 1416.31 70.4965Z" fill="#040606"/>
<path d="M419.186 237.091C413.61 241.515 411.766 240.603 409.403 234.804C408.814 233.361 406.226 232.735 405.534 232.313C401.973 232.368 400.459 233.647 399.783 235.703C398.712 238.956 399.506 242.998 402.421 243.543C409.761 244.904 412.631 250.621 417.019 255.262C421.068 259.564 426.846 260.843 432.126 256.406C437.51 251.9 436.434 246.456 433.405 241.229C430.056 235.471 424.02 233.266 419.186 237.091Z" fill="#040606"/>
<path d="M473.507 262.09C468.085 243.891 446.534 244.609 448.166 259.612C449.111 268.291 454.574 272.597 463.129 273.518C470.712 274.33 472.557 269.645 473.507 262.09Z" fill="#040606"/>
<path d="M514.748 279.211C510.674 270.127 502.751 265.659 493.666 264.519C488.978 263.942 485.271 269.282 486.836 274.059C489.725 282.887 496.468 287.932 506.111 287.785C511.288 287.704 514.3 284.752 514.748 279.211Z" fill="#040606"/>
<path d="M499.881 387.551C497.695 382.928 494.798 377.619 488.303 376.46C482.749 375.479 479.945 379.427 479.672 384.482C479.309 391.116 481.725 396.527 489.152 397.457C495.304 398.234 498.058 394.134 499.881 387.551Z" fill="#040606"/>
<path d="M473.809 416.378C478.894 415.231 482.733 412.196 481.946 407.018C480.946 400.443 475.088 398.541 469.298 398.226C459.982 397.722 457.506 413.002 473.809 416.378Z" fill="#040606"/>
<path d="M509.336 377.896C521.983 377.576 522.056 362.248 510.613 361.004C504.494 360.35 502.893 364.865 502.576 369.79C502.28 374.407 504.129 378.037 509.336 377.896Z" fill="#040606"/>
<path d="M2077.76 136.76C2077.76 129.884 2075.05 125.819 2067.98 126.09C2061 126.361 2052.06 125.933 2051.49 134.92C2050.99 143.122 2056.54 151.895 2064.91 152.565C2073.74 153.264 2075.51 143.621 2077.76 136.76Z" fill="#040606"/>
<path d="M1960.42 216.18C1965.12 216.973 1967.94 211.911 1967.55 207.614C1964.75 197.852 1965.73 186.073 1952.93 184.891C1946.53 184.307 1944.56 190.064 1945.78 195.613C1947.72 204.457 1949.62 214.386 1960.42 216.18Z" fill="#040606"/>
<path d="M2087.7 108.063C2087.67 101.247 2085.58 97.1024 2082.33 97.2324C2073.71 97.6078 2065.92 99.1674 2065.77 110.186C2065.68 117.406 2070.04 122.374 2076.71 121.623C2083.34 120.887 2088.74 116.381 2087.7 108.063Z" fill="#040606"/>
<path d="M1955.86 161.955C1956.93 153.355 1950.26 150.671 1942.79 149.781C1935.57 148.934 1932.17 154.894 1932.71 160.275C1934.4 177.152 1958.13 179.383 1955.86 161.955Z" fill="#040606"/>
<path d="M2122.24 364.182C2122.41 371.387 2128.14 374.561 2134.74 374.759C2140.86 374.943 2145.37 372.045 2146.38 365.367C2144.02 349.178 2121.86 347.835 2122.24 364.182Z" fill="#040606"/>
<path d="M2059.53 167.549C2060.66 160.517 2055.91 158.675 2050.47 158.717C2043.27 158.774 2037.76 161.333 2037.57 169.996C2037.43 177.084 2040.64 181.275 2047.21 183.061C2055.53 181.036 2058.35 174.862 2059.53 167.549Z" fill="#040606"/>
<path d="M2145.85 220.493C2140.85 213.947 2133.93 215.772 2128.17 218.476C2121.14 221.77 2122.05 227.438 2126.38 232.886C2124.88 238.129 2121.76 234.327 2119.61 233.833C2112.73 232.228 2107.26 234.3 2104.79 240.695C2102.5 246.624 2108.08 249.849 2111.84 252.553C2117.8 256.863 2124.38 252.526 2125.48 248.052C2127.99 237.745 2137.29 240.16 2142.99 236.18C2151.29 232.296 2150.44 226.505 2145.85 220.493Z" fill="#040606"/>
<path d="M2162.5 196.774C2156.1 196.968 2150.28 200.412 2149.78 207.522C2149.31 214.175 2154.03 217.218 2160.43 217.688C2176.08 218.823 2176.92 196.331 2162.5 196.774Z" fill="#040606"/>
<path d="M2167.69 373.725C2182.63 373.189 2178.48 351.798 2163.19 352.561C2149.43 353.245 2150.5 374.341 2167.69 373.725Z" fill="#040606"/>
<path d="M2027.47 197.358C2028.61 202.747 2029.25 210.707 2037.14 210.221C2043.37 209.832 2045.64 203.914 2045.98 197.899C2045.76 190.996 2041.18 188.009 2035.26 187.44C2028.29 186.773 2026.38 192.204 2027.47 197.358Z" fill="#040606"/>
<path d="M2094.96 269.448C2101.11 268.272 2107.7 266.352 2107.58 259.121C2107.42 247.849 2085.66 248.295 2084.28 259.243C2083.4 266.055 2089.11 268.299 2094.96 269.448Z" fill="#040606"/>
<path d="M2106.01 375.162C2110.78 375.137 2115.39 372.968 2114.91 367.127C2113.82 354.222 2093.54 355.092 2093.69 364.712C2093.81 372.151 2099.31 375.201 2106.01 375.162Z" fill="#040606"/>
<path d="M2185.75 361.808C2185.7 368.811 2190.71 371.276 2196.9 371.506C2201.77 371.696 2205.97 370.409 2207.01 363.948C2205.91 357.853 2201.5 355.551 2195.31 355.05C2190.06 354.63 2185.79 355.876 2185.75 361.808Z" fill="#040606"/>
<path d="M1947.06 128.936C1946.71 124.13 1944.4 119.639 1938.91 119.653C1931.65 119.653 1930.53 126.247 1929.32 131.353C1928.43 135.086 1930.98 138.033 1935.94 137.975C1939.83 135.53 1947.69 137.318 1947.06 128.936Z" fill="#040606"/>
<path d="M2091.43 69.6516C2080.1 69.5932 2080.62 86.7013 2089.88 85.6932C2094.45 85.1965 2103.22 70.5136 2091.43 69.6516Z" fill="#040606"/>
<path d="M514.902 1225.15C506.19 1226.4 502.87 1229.31 502.87 1235.53C503.286 1244.66 509.512 1246.74 515.318 1246.74H515.733C523.878 1246.74 527.34 1242.49 526.522 1235.94C526.522 1228.48 522.787 1225.15 514.902 1225.15Z" fill="#040606"/>
<path d="M415.871 1236.77H415.456C405.914 1236.77 403.839 1244.24 403.424 1250.89C403.424 1257.44 408.506 1259.6 415.041 1259.6C421.681 1258.35 424.586 1254.62 424.586 1248.39C425.001 1243.42 423.34 1236.77 415.871 1236.77Z" fill="#040606"/>
<path d="M1339.71 1499.64C1366.47 1485.92 1363.99 1454.67 1336.89 1448.41C1336.79 1435.89 1336.08 1423.31 1334.76 1411C1334.16 1405.23 1328.63 1401.31 1323.36 1401.75C1317.67 1402.36 1313.53 1407.51 1314.14 1413.18C1318.63 1455.44 1313.01 1459.5 1319.37 1465.43C1321.48 1467.42 1324.13 1468.63 1327.29 1468.23C1332.35 1467.74 1337.27 1470.09 1337.76 1472.29C1339.23 1478.44 1319.33 1490.67 1300.51 1481.45C1295.42 1479.01 1289.14 1481.12 1286.67 1486.31C1284.18 1491.46 1286.35 1497.66 1291.51 1500.17C1306.66 1507.43 1325.2 1507.01 1339.71 1499.64Z" fill="#040606"/>
<path d="M1376.75 1399.89C1385.36 1399.41 1394.03 1398.59 1402.58 1399.19C1408.34 1399.6 1414.12 1399.54 1414.27 1393.26C1414.44 1385.69 1408.01 1383.71 1398.04 1384.36C1392.12 1385.43 1383.07 1386.75 1374.2 1388.86C1370.57 1389.72 1368.04 1393.21 1368.49 1397.06C1369.17 1402.84 1373.43 1400.08 1376.75 1399.89Z" fill="#040606"/>
<path d="M1236.38 1413.73C1251.46 1407.14 1261.41 1412.14 1266.59 1411.44C1272.1 1410.71 1274.46 1405.56 1268.96 1400.59C1250.6 1383.97 1223.82 1409.51 1231.45 1414.29C1232.91 1415.2 1234.8 1414.42 1236.38 1413.73Z" fill="#040606"/>
<path d="M1242.17 1448.2C1245.77 1459.06 1259.78 1453.88 1263.21 1448.74C1265.56 1444.38 1264.36 1439.37 1261.19 1436.55C1252.79 1429.08 1238.06 1435.8 1242.17 1448.2Z" fill="#040606"/>
<path d="M1377.91 1437.83C1377.03 1447.11 1386.5 1449.91 1393.05 1447.14C1400.51 1443.97 1403.07 1434.62 1398.5 1429.96C1396.33 1428.11 1378.95 1427.15 1377.91 1437.83Z" fill="#040606"/>
<path d="M1353.3 1570.96C1359.03 1563.76 1369.93 1538.06 1363.32 1532.15C1361.71 1530.71 1359.34 1530.63 1357.18 1530.64C1333.83 1530.74 1310.62 1532.38 1290.28 1534.99C1279.18 1536.44 1276.62 1543.72 1280.57 1554.3C1292.97 1587.41 1333.79 1595.52 1353.3 1570.96Z" fill="#040606"/>
<path d="M816.707 870.116C830.405 871.943 849.243 868.3 861.241 861.035C891.113 842.587 913.037 780.76 888.287 760.749C873.619 748.387 856.58 749.631 837.941 754.111C825.943 756.83 822.868 757.722 819.44 761.046C812.252 766.516 810.87 775.553 816.365 783.412C825.32 796.401 843.971 788.421 855.746 787.023L860.55 786.417L859.859 792.493C857.469 808.784 846.834 827.837 837.592 832.053C832.446 834.167 820.822 835.047 814.641 832.945C808.822 831.161 801.977 823.589 798.897 815.718C796.488 809.4 796.488 806.968 796.488 790.677C796.488 769.224 797.864 761.97 806.091 741.706C812.936 724.799 819.788 713.616 830.405 703.963C839.64 695.498 843.753 693.065 852.323 692.504C869.362 691.051 867.154 701.255 880.06 702.146C894.099 703.368 902.669 690.677 896.166 678.877C891.019 669.84 874.932 661.046 859.859 659.262C838.283 656.83 819.097 664.084 799.569 682.201C784.839 696.39 776.979 709.081 766.685 735.663C758.476 758.041 757.101 766.516 757.101 791.888C757.101 811.833 757.444 813.616 760.524 822.081C768.782 848.421 787.532 866.418 816.707 870.116Z" fill="#040606"/>
<path d="M1012.57 742.634C1008.8 785.837 998.53 815.142 981.385 829.612C976.263 833.879 974.882 834.484 970.768 834.484C960.842 834.484 954.339 829.327 948.507 817.539C944.736 809.072 944.07 790.664 947.144 771.608C951.93 743.843 968.036 708.172 981.385 698.529C986.88 694.592 993.726 691.557 997.148 692.173C1009.49 695.208 1014.96 712.714 1012.57 742.634ZM1012.57 660.141C1007.77 658.646 1005.38 658.646 995.773 659.537C965.989 662.253 944.394 678.868 926.925 711.504C920.77 724.182 913.576 742.634 911.161 753.212C906.04 776.15 904.316 802.419 907.738 815.713C918.729 864.063 963.307 879.875 995.101 864.679C1029.03 848.207 1045.45 798.318 1049.91 760.469C1055.38 714.539 1051.96 694.592 1034.84 674.051C1029.69 667.685 1021.12 662.572 1012.57 660.141Z" fill="#040606"/>
<path d="M1072.09 695.206C1074.48 695.492 1079.95 695.822 1086.48 695.206C1112.17 693.061 1120.02 692.775 1119.36 694.271C1113.17 707.008 1084.61 834.573 1089.56 856.209C1090.25 860.466 1095.03 865.57 1099.83 867.396C1104.97 869.508 1114.91 868.617 1119.36 865.889C1132.05 857.925 1124.59 846.321 1138.87 779.475L1148.13 734.486C1153.6 704.852 1156.01 694.601 1156.68 693.666C1157.37 693.38 1165.25 693.996 1174.16 695.206C1193.68 697.318 1197.79 696.988 1203.95 691.565C1212.86 683.7 1211.14 671.006 1200.53 664.967C1191.97 660.468 1163.88 658.037 1136.82 659.247C1115.25 660.468 1080.99 663.471 1074.48 664.967C1052.84 670.467 1056.73 691.312 1072.09 695.206Z" fill="#040606"/>
<path d="M1297.73 695.206C1300.12 695.492 1305.6 695.822 1312.12 695.206C1337.81 693.061 1345.67 692.775 1345.01 694.271C1338.81 707.008 1310.26 834.573 1315.21 856.209C1315.89 860.466 1320.67 865.57 1325.47 867.396C1330.61 869.508 1340.54 868.617 1345.01 865.889C1350.81 862.248 1352.87 857.43 1354.24 844.132C1358.22 803.564 1365.48 776.615 1373.77 734.486C1379.24 704.852 1381.66 694.601 1382.32 693.666C1383.01 693.38 1390.89 693.996 1399.81 695.206C1419.32 697.318 1423.43 696.988 1429.59 691.565C1438.51 683.7 1436.78 671.006 1426.16 664.967C1417.61 660.468 1389.51 658.037 1362.47 659.247C1340.89 660.468 1306.63 663.471 1300.12 664.967C1290.52 667.398 1285.05 672.832 1285.05 680.697C1285.05 687.022 1290.52 693.38 1297.73 695.206Z" fill="#040606"/>
<path d="M1573.39 667.126C1567.92 656.829 1551.14 655.937 1543.93 665.298C1535.68 676.762 1520.66 762.363 1518.26 776.481C1513.47 776.558 1492.51 776.107 1475.09 777.66C1468.58 778.265 1462.77 778.585 1462.43 778.265C1467.66 746.549 1469.86 717.795 1480.58 686.739C1484.01 676.762 1484.35 672.555 1481.61 667.687C1476.13 657.721 1460.36 656.829 1452.83 665.903C1450.09 669.229 1441.87 689.173 1437.43 703.644C1423.57 748.069 1412.66 848.02 1419.95 859.858C1423.71 866.51 1433.31 870.397 1441.53 868.294C1447.7 867.071 1454.2 861.642 1455.58 856.532C1456.24 854.704 1456.94 845.344 1457.28 836.269C1457.62 826.292 1458.31 814.541 1459.01 814.222C1462.09 812.394 1509.69 807.57 1512.08 808.782C1512.43 809.068 1511.08 820.587 1509.69 831.446C1507.62 847.733 1507.3 852.281 1508.32 856.213C1509.69 861.642 1515.16 867.072 1521 868.613C1531.8 871.366 1541.94 865.937 1544.97 858.316C1545.66 856.213 1547.71 845.96 1549.08 835.663C1550.33 823.571 1569.23 706.265 1573.07 688.237C1575.8 676.167 1575.8 671.619 1573.39 667.126Z" fill="#040606"/>
<path d="M1566.83 856.217C1566.83 862.575 1569.56 867.072 1575.4 869.507C1578.13 870.719 1584.29 871.005 1609.98 871.005C1640.81 870.719 1641.51 870.719 1645.6 868.295C1657.59 861.65 1656.9 845.958 1644.24 840.206C1641.83 839.313 1638.4 838.376 1636.71 838.376C1631.15 838.376 1628.56 840.349 1656.24 694.89C1656.56 693.072 1657.25 692.785 1667.2 693.072C1676.44 693.072 1678.48 692.785 1681.23 690.956C1687.05 687.033 1688.77 684.024 1688.77 677.38C1688.77 671.947 1688.43 670.404 1686.02 667.407C1674.42 654.8 1635.86 658.966 1618.89 662.261C1598.68 665.908 1593.9 669.225 1593.9 679.484C1593.9 689.182 1600.74 694.603 1613.05 694.603C1618.55 694.603 1619.23 694.89 1618.89 696.388C1617.17 700.929 1605.52 752.291 1602.79 765.581C1602.74 765.867 1592.06 838.795 1591.83 838.982C1591.48 838.982 1588.75 839.919 1585.33 840.206C1572.29 842.63 1566.83 847.17 1566.83 856.217Z" fill="#040606"/>
<path d="M1697.29 691.885C1689.75 704.245 1688.05 721.191 1693.52 734.479C1709.79 778.114 1774.04 783.673 1765.46 815.429C1762.39 825.686 1752.09 830.552 1734.63 829.937C1704.07 828.471 1704.75 814.825 1688.4 814.825C1678.12 814.825 1669.21 822.688 1669.21 831.447C1669.21 838.695 1678.12 848.348 1690.79 854.701C1697.63 858.035 1712.02 862.576 1720.59 863.75C1723.67 864.354 1731.21 864.679 1737.36 864.679C1780.86 865.294 1811.7 835.977 1804.51 800.63C1801.08 781.906 1791.49 770.72 1764.43 752.891C1744.22 739.591 1737.71 734.77 1734.29 730.229C1727.43 720.262 1728.47 710.9 1737.36 703.037C1748.17 693.563 1764.31 690.308 1777.44 692.176C1782.93 693.059 1784.64 693.999 1789.78 697.925C1798.35 705.464 1806.9 706.068 1814.77 700.028C1822.66 693.999 1822.66 685.844 1814.77 676.482C1789.74 646.997 1719.35 655.979 1697.29 691.885Z" fill="#040606"/>
<path d="M1827.71 852.606C1827.71 860.757 1831.49 865.895 1839.72 869.831C1859.41 878.375 1881.22 853.68 1861.29 838.695C1848.26 828.731 1827.71 837.205 1827.71 852.606Z" fill="#040606"/>
<path d="M1841.42 810.609C1850.2 824.451 1872.38 821.638 1877.07 806.069C1880.15 795.811 1901.72 676.477 1901.03 673.443C1897.26 656.824 1872.6 653.824 1864.38 668.623C1863 671.611 1858.89 687.343 1855.81 704.242C1840.18 797.316 1836.02 801.097 1841.42 810.609Z" fill="#040606"/>
<path d="M815.676 466.756C824.593 484.157 835.498 496.115 838.627 500.28L833.83 515.406C823.555 547.103 820.823 563.724 825.26 569.755C827.669 573.408 833.487 577.624 837.252 578.519C841.023 579.451 843.756 579.119 848.211 577.624C856.438 575.184 860.21 570.087 862.599 558.576C868.412 528.693 892.053 464.048 908.508 433.526C931.497 392.043 941.155 391.762 935.555 380.06C933.165 374.63 928.36 371.308 921.515 370.695C910.898 369.763 904.737 374.911 888.632 397.575C878.363 411.757 862.941 438.062 858.485 449.215C856.78 453.751 855.063 457.404 854.714 457.404C853.706 457.404 846.17 441.997 842.398 432.019C837.942 420.84 835.877 413.302 833.83 396.681C831.091 377.632 828.34 372.803 818.066 370.376C809.515 368.549 799.57 374.017 797.522 382.168C796.489 386.103 798.898 413.302 800.945 423.842C802.992 434.421 810.529 455.858 815.676 466.756Z" fill="#040606"/>
<path d="M952.636 482.446C957.416 454.684 973.521 419.018 986.877 409.363C992.366 405.43 999.212 402.391 1002.63 403.004C1014.97 406.043 1020.45 423.551 1018.06 453.471C1014.28 496.672 1004.02 525.979 986.877 540.448C981.749 544.713 980.374 545.313 976.26 545.313C966.328 545.313 959.825 540.167 953.993 528.38C950.222 519.901 949.538 501.499 952.636 482.446ZM916.672 464.045C911.526 486.992 909.801 513.26 913.232 526.554C919.752 555.248 938.92 575.195 964.262 579.729L972.489 581.235C978.326 582.168 992.366 579.448 1000.59 575.514C1034.52 559.054 1050.94 509.148 1055.39 471.298C1060.86 425.377 1057.44 405.43 1040.32 384.883C1035.18 378.524 1026.61 373.416 1018.06 370.977C1013.25 369.483 1010.86 369.483 1001.26 370.376C971.456 373.084 949.88 389.71 932.417 422.338C926.257 435.031 919.062 453.471 916.672 464.045Z" fill="#040606"/>
<path d="M1109.76 578.511C1125.86 582.437 1148.11 577.616 1161.14 567.642C1173.45 558.001 1187.86 536.52 1195.38 516.01C1202.91 495.461 1212.52 461.001 1214.56 444.992C1218.33 419.623 1221.41 386.71 1220.74 383.386C1218.33 373.08 1204.98 366.763 1193.67 370.983C1171.87 379.435 1188.77 411.951 1161.14 495.743C1153.26 519.897 1140.59 540.164 1130.99 543.488C1120.03 547.427 1113.18 544.102 1110.45 533.809C1107.02 523.221 1108.38 498.454 1114.21 459.786C1117.29 440.453 1121.75 407.22 1123.46 399.996C1126.53 385.496 1126.19 381.238 1122.09 376.404C1114.21 368.259 1101.87 368.873 1094.34 377.951C1090.57 382.171 1083.03 419.01 1074.83 461.334C1070.03 486.702 1069.34 494.247 1069.34 514.181C1069.34 536.52 1071.06 543.77 1078.25 556.173C1085.44 568.256 1095.03 575.187 1109.76 578.511Z" fill="#040606"/>
<path d="M1319.97 579.125C1326.13 577.898 1332.64 572.476 1334.02 567.361C1334.69 565.546 1335.38 556.173 1335.72 547.094C1336.07 537.121 1336.76 525.37 1337.45 525.05C1340.53 523.222 1388.14 518.401 1390.52 519.616C1390.87 519.897 1389.51 531.405 1388.14 542.274C1386.07 558.564 1385.75 563.103 1386.75 567.042C1391.16 584.419 1417.54 583.907 1423.41 569.151C1426.45 559.83 1429.09 529.832 1431.28 520.23L1435.74 493.352C1453.08 380.598 1456.3 386.301 1451.83 377.952C1446.37 367.658 1429.58 366.763 1422.37 376.123C1413.4 388.616 1397.61 483.097 1396.71 487.316H1381.28C1372.71 487.316 1360.38 487.879 1353.53 488.48C1347.02 489.094 1341.22 489.413 1340.86 489.094C1346.1 457.383 1348.3 428.625 1359.02 397.566C1362.45 387.593 1362.79 383.386 1360.05 378.514C1354.56 368.541 1338.8 367.658 1331.26 376.737C1328.52 380.061 1320.3 399.996 1315.87 414.47C1302 458.904 1291.1 558.845 1298.38 570.686C1302.15 577.335 1311.75 581.222 1319.97 579.125Z" fill="#040606"/>
<path d="M1508.64 497.571C1512.76 489.094 1539.46 444.391 1540.5 444.391C1540.52 448.56 1540.86 505.358 1540.83 501.177H1506.92L1508.64 497.571ZM1466.15 572.182C1473.9 561.262 1482.15 537.005 1489.11 535.624C1543.07 532.198 1534.61 533.476 1540.83 533.195L1541.18 551.032C1541.52 567.361 1541.52 569.151 1543.91 571.862C1548.37 577.335 1551.8 578.511 1560.02 578.511C1568.91 578.511 1573.38 576.401 1577.49 569.752C1579.88 565.545 1579.88 565.545 1580.92 480.335C1581.59 399.062 1581.26 389.101 1578.53 382.452C1574.07 372.197 1559.33 366.763 1549.06 371.302C1525.38 382.056 1441.39 537.057 1435 560.392C1431.3 574.688 1453.26 587.104 1466.15 572.182Z" fill="#040606"/>
<path d="M1629.47 579.12C1639.41 582.161 1646.59 580.334 1654.82 572.794C1667.78 560.884 1670.45 548.015 1690.09 495.748C1692.48 489.422 1697.63 470.982 1701.4 460.119C1723.46 393.514 1731.55 383.904 1718.53 374.025C1709.97 367.981 1700.02 368.262 1692.16 375.201C1686.79 379.942 1686.99 381.821 1664.74 446.216C1662.36 453.755 1655.84 476.119 1650.36 490.636C1641.11 514.789 1640.43 516.898 1639.74 512.974C1638.63 506.137 1636.06 388.108 1633.24 383.06C1629.13 376.134 1621.26 372.479 1613.36 374.307C1608.21 375.521 1602.41 380.338 1600.7 385.488C1600.01 387.878 1599.32 406.932 1599.32 446.216C1598.99 506.035 1599.67 522.329 1604.47 544.105C1609.25 564.321 1616.79 575.184 1629.47 579.12Z" fill="#040606"/>
<path d="M1718.14 533.81C1720.87 548.645 1725.33 557.066 1734.91 565.537C1743.48 573.076 1751.02 577.011 1760.94 579.452C1768.48 581.228 1782.17 581.228 1790.74 579.452C1806.48 576.117 1829.45 566.764 1835.6 561.333C1850.06 547.802 1833.87 523.857 1809.6 535.919C1775.13 551.137 1756.14 552.414 1756.14 514.797V505.112C1760.3 504.818 1761.38 503.259 1785.94 504.499C1808.21 505.112 1811.3 504.499 1815.74 500.563C1825.33 493.025 1823.64 479.736 1812.32 474.012C1801.46 468.364 1774.11 471.609 1760.94 471.865C1759.56 470.37 1773.95 407.824 1776.36 404.221C1777.73 402.394 1816.78 402.394 1831.17 404.221C1836.98 404.821 1843.83 405.115 1845.9 404.821C1851.37 403.889 1858.56 398.177 1860.28 393.641C1863.36 385.77 1858.56 376.736 1849.67 373.082C1838.36 368.265 1787.98 368.878 1759.22 374.015C1754.44 374.909 1748.6 379.739 1745.87 385.489C1730.7 417.446 1710.71 497.957 1718.14 533.81Z" fill="#040606"/>
</svg>
