<svg width="1600" height="900" viewBox="0 0 1600 900" fill="none" xmlns="http://www.w3.org/2000/svg">
<g clip-path="url(#clip0_2_852)">
<rect width="1600" height="900" fill="white"/>
<path d="M403.289 608.428C403.289 611.361 402.016 611.892 399.014 611.225C390.656 609.368 384.584 596.024 382.492 589.003C379.631 579.397 376.188 565.546 381.648 556.382C387.847 545.975 404.965 539.256 416.063 536.429C428.701 533.21 441.236 532.783 451.693 541.497C458.853 547.463 465.832 560.316 464.995 569.948C464.383 576.983 461.36 583.15 458.397 589.425C456.729 592.956 456.19 599.079 452.696 600.827" stroke="#1E1E1E" stroke-width="7.60101" stroke-linecap="round" stroke-linejoin="round"/>
<path d="M358.634 678.737C354.899 682.472 357.61 666.447 358.211 663.957C360.544 654.294 366.817 644.211 372.885 636.456C378.861 628.821 385.382 623.266 392.838 617.19C402.255 609.517 413.368 607.165 424.931 604.627C436.058 602.185 449.87 599.36 461.194 602.357C473.023 605.488 481.666 616.112 485.898 626.955C489.988 637.436 490.44 649.62 491.862 660.685C492.391 664.795 496.519 671.819 491.651 673.036" stroke="#1E1E1E" stroke-width="7.60101" stroke-linecap="round" stroke-linejoin="round"/>
<path d="M335.83 690.139C335.83 680.205 339.757 709.678 340.37 719.592C341.277 734.272 340.299 749.353 342.059 763.932C342.565 768.126 345.519 773.844 339.631 770.899" stroke="#1E1E1E" stroke-width="7.60101" stroke-linecap="round" stroke-linejoin="round"/>
<path d="M341.531 685.388C342.712 684.206 344.451 683.362 345.859 682.537C356.487 676.316 371.906 676.092 383.812 674.409C423.337 668.821 463.924 663.292 503.844 667.863C512.505 668.855 521.043 670.662 529.762 671.136C533.212 671.323 541.286 671.636 542.008 676.203C543.488 685.58 540.484 697.464 539.896 706.818C539.026 720.673 538.141 734.333 540.107 748.096" stroke="#1E1E1E" stroke-width="7.60101" stroke-linecap="round" stroke-linejoin="round"/>
<path d="M541.057 749.997C542.287 753.072 542.007 755.364 542.007 758.548" stroke="#1E1E1E" stroke-width="7.60101" stroke-linecap="round" stroke-linejoin="round"/>
<path d="M308.276 775.65C307.272 775.65 305.471 776.552 304.634 777.075C303.979 777.485 311.503 779.336 312.077 779.45" stroke="#1E1E1E" stroke-width="7.60101" stroke-linecap="round" stroke-linejoin="round"/>
<path d="M312.077 779.451C380.921 779.451 449.392 770.456 517.938 765.674C547.797 763.591 577.427 762.348 607.355 762.348C608.991 762.348 629.35 760.494 623.718 764.249" stroke="#1E1E1E" stroke-width="7.60101" stroke-linecap="round" stroke-linejoin="round"/>
<path d="M297.825 775.65C292.916 775.65 292.959 775.259 289.063 778.289C288.438 778.775 279.051 776.905 277.873 776.811C273.706 776.48 266.253 776.182 262.671 778.711C260.419 780.301 260.243 785.114 259.82 787.474C258.692 793.766 257.008 799.951 256.02 806.265C255.533 809.375 252.432 823.379 256.02 825.268C260.382 827.563 268.387 826.006 273.122 826.006C292.035 826.006 310.723 825.365 329.602 824.106C362.118 821.938 394.716 821.642 427.254 819.883C464.818 817.853 502.325 814.754 539.896 812.705C574.112 810.838 608.599 808.151 642.721 812.494C646.368 812.958 653.825 811.096 656.762 808.693C660.142 805.928 657.046 795.28 656.762 791.591C656.06 782.472 655.157 774.277 653.384 765.41C652.64 761.693 654.342 757.525 650.322 762.348" stroke="#1E1E1E" stroke-width="7.60101" stroke-linecap="round" stroke-linejoin="round"/>
<path d="M619.918 765.199C625.517 765.199 631.427 764.248 637.231 764.248C641.38 764.248 654.123 761.528 654.123 767.099" stroke="#1E1E1E" stroke-width="7.60101" stroke-linecap="round" stroke-linejoin="round"/>
<path d="M588.564 809.854C593.984 809.854 593.314 864.13 593.314 872.563" stroke="#1E1E1E" stroke-width="7.60101" stroke-linecap="round" stroke-linejoin="round"/>
<path d="M288.324 768.999C288.324 765.757 286.813 763.445 287.902 759.867C289.344 755.128 293.055 745.92 298.986 746.196C307.424 746.588 310.579 754.19 313.977 760.501C316.055 764.359 318.728 769.296 318.728 773.75" stroke="#1E1E1E" stroke-width="7.60101" stroke-linecap="round" stroke-linejoin="round"/>
<path d="M593.315 706.29C593.315 702.955 592.514 707.702 592.417 708.719C591.928 713.854 593.8 719.614 594.212 724.765C594.775 731.801 596.384 738.23 599.754 744.296C606.009 755.554 623.932 754.221 629.419 742.923C632.703 736.162 633.78 728.701 635.595 721.44C636.513 717.77 637.749 712.915 637.971 709.141C638.218 704.929 639.95 705.438 635.859 704.179C627.959 701.748 619.316 704.72 611.367 705.288C607.285 705.579 603.108 705.34 599.015 705.34C596.938 705.34 592.347 705.344 597.115 704.39" stroke="#1E1E1E" stroke-width="7.60101" stroke-linecap="round" stroke-linejoin="round"/>
<path d="M601.866 625.53C601.866 628.615 598.733 633.236 598.276 636.72C597.314 644.059 604.913 645.849 600.916 653.559C597.386 660.366 600.81 665.272 600.81 672.086C600.81 674.88 596.798 679.265 600.916 680.637" stroke="#1E1E1E" stroke-width="7.60101" stroke-linecap="round" stroke-linejoin="round"/>
<path d="M626.569 624.58C626.569 621.38 625.88 630.955 625.197 634.081C624.494 637.293 623.924 642.114 625.091 645.272C625.877 647.399 628.364 649.23 628.364 651.658C628.364 655.476 622.446 659.966 625.619 663.535C627.584 665.746 626.569 670.194 626.569 673.036" stroke="#1E1E1E" stroke-width="7.60101" stroke-linecap="round" stroke-linejoin="round"/>
<path d="M310.177 825.057C303.411 825.057 307 861.445 305.479 868.287C304.338 873.42 303.646 897.801 308.277 900.117" stroke="#1E1E1E" stroke-width="7.60101" stroke-linecap="round" stroke-linejoin="round"/>
<path d="M423.242 723.393C423.242 720.841 418.671 724.164 418.016 724.818C415.936 726.898 414.451 730 413.741 732.841C411.963 739.952 410.162 746.006 411.788 753.322C413.229 759.809 418.893 763.13 424.931 764.987C432.634 767.357 440.06 764.358 447.206 761.609C457.576 757.621 460.412 744.859 459.294 734.795C458.734 729.757 456.585 724.879 452.696 721.546C450.88 719.989 446.304 716.529 444.092 715.792C441.085 714.79 438.76 713.892 435.594 713.892C433.189 713.892 427.263 714.16 425.142 715.053C422.243 716.274 418.491 724.725 418.491 728.144" stroke="#1E1E1E" stroke-width="7.60101" stroke-linecap="round" stroke-linejoin="round"/>
<path d="M428.943 729.094C424.796 733.24 431.314 739.828 434.643 741.445C438.327 743.235 441.662 741.921 445.042 740.02C449.132 737.72 450.618 735.745 445.095 735.745" stroke="#1E1E1E" stroke-width="7.60101" stroke-linecap="round" stroke-linejoin="round"/>
<path d="M438.444 727.193C434.905 727.193 442.211 715.752 445.623 714.842C450.323 713.588 454.405 712.942 459.294 712.942C461.273 712.942 464.07 714.801 462.197 711.991" stroke="#1E1E1E" stroke-width="7.60101" stroke-linecap="round" stroke-linejoin="round"/>
<path d="M1104.96 608.773C1104.96 611.706 1103.69 612.238 1100.68 611.571C1092.33 609.713 1086.25 596.37 1084.16 589.348C1081.3 579.743 1077.86 565.891 1083.32 556.727C1089.52 546.32 1106.64 539.601 1117.73 536.774C1130.37 533.555 1142.91 533.128 1153.36 541.842C1160.52 547.808 1167.5 560.661 1166.67 570.293C1166.05 577.328 1163.03 583.496 1160.07 589.77C1158.4 593.301 1157.86 599.425 1154.37 601.172" stroke="#1E1E1E" stroke-width="7.60101" stroke-linecap="round" stroke-linejoin="round"/>
<path d="M1060.3 679.082C1056.57 682.817 1059.28 666.792 1059.88 664.302C1062.21 654.639 1068.49 644.556 1074.56 636.802C1080.53 629.166 1087.05 623.611 1094.51 617.535C1103.92 609.862 1115.04 607.511 1126.6 604.972C1137.73 602.53 1151.54 599.705 1162.86 602.703C1174.69 605.834 1183.34 616.457 1187.57 627.3C1191.66 637.781 1192.11 649.965 1193.53 661.03C1194.06 665.14 1198.19 672.164 1193.32 673.381" stroke="#1E1E1E" stroke-width="7.60101" stroke-linecap="round" stroke-linejoin="round"/>
<path d="M1037.5 690.484C1037.5 680.55 1041.43 710.023 1042.04 719.938C1042.95 734.617 1041.97 749.699 1043.73 764.277C1044.24 768.471 1047.19 774.189 1041.3 771.245" stroke="#1E1E1E" stroke-width="7.60101" stroke-linecap="round" stroke-linejoin="round"/>
<path d="M1043.2 685.733C1044.38 684.552 1046.12 683.707 1047.53 682.883C1058.16 676.662 1073.58 676.437 1085.48 674.754C1125.01 669.167 1165.6 663.638 1205.52 668.209C1214.18 669.2 1222.71 671.007 1231.43 671.481C1234.88 671.669 1242.96 671.982 1243.68 676.549C1245.16 685.926 1242.16 697.81 1241.57 707.164C1240.7 721.019 1239.81 734.678 1241.78 748.442" stroke="#1E1E1E" stroke-width="7.60101" stroke-linecap="round" stroke-linejoin="round"/>
<path d="M1242.73 750.342C1243.96 753.417 1243.68 755.709 1243.68 758.893" stroke="#1E1E1E" stroke-width="7.60101" stroke-linecap="round" stroke-linejoin="round"/>
<path d="M1009.95 775.995C1008.94 775.995 1007.14 776.897 1006.31 777.42C1005.65 777.83 1013.17 779.681 1013.75 779.796" stroke="#1E1E1E" stroke-width="7.60101" stroke-linecap="round" stroke-linejoin="round"/>
<path d="M1013.75 779.796C1082.59 779.796 1151.06 770.801 1219.61 766.019C1249.47 763.936 1279.1 762.693 1309.03 762.693C1310.66 762.693 1331.02 760.839 1325.39 764.594" stroke="#1E1E1E" stroke-width="7.60101" stroke-linecap="round" stroke-linejoin="round"/>
<path d="M999.496 775.995C994.587 775.995 994.629 775.605 990.734 778.634C990.109 779.121 980.722 777.25 979.544 777.157C975.376 776.825 967.924 776.528 964.341 779.057C962.09 780.646 961.914 785.46 961.491 787.819C960.363 794.111 958.679 800.296 957.691 806.61C957.204 809.721 954.103 823.725 957.691 825.613C962.053 827.909 970.058 826.352 974.793 826.352C993.706 826.352 1012.39 825.71 1031.27 824.452C1063.79 822.284 1096.39 821.988 1128.92 820.229C1166.49 818.198 1204 815.1 1241.57 813.05C1275.78 811.184 1310.27 808.496 1344.39 812.839C1348.04 813.303 1355.5 811.442 1358.43 809.039C1361.81 806.273 1358.72 795.625 1358.43 791.936C1357.73 782.817 1356.83 774.622 1355.05 765.755C1354.31 762.038 1356.01 757.87 1351.99 762.693" stroke="#1E1E1E" stroke-width="7.60101" stroke-linecap="round" stroke-linejoin="round"/>
<path d="M1321.59 765.544C1327.19 765.544 1333.1 764.594 1338.9 764.594C1343.05 764.594 1355.79 761.873 1355.79 767.444" stroke="#1E1E1E" stroke-width="7.60101" stroke-linecap="round" stroke-linejoin="round"/>
<path d="M1290.24 810.2C1295.66 810.2 1294.99 864.476 1294.99 872.908" stroke="#1E1E1E" stroke-width="7.60101" stroke-linecap="round" stroke-linejoin="round"/>
<path d="M989.995 769.344C989.995 766.102 988.483 763.79 989.572 760.212C991.015 755.473 994.726 746.265 1000.66 746.541C1009.09 746.934 1012.25 754.535 1015.65 760.846C1017.73 764.704 1020.4 769.641 1020.4 774.095" stroke="#1E1E1E" stroke-width="7.60101" stroke-linecap="round" stroke-linejoin="round"/>
<path d="M1294.99 706.636C1294.99 703.3 1294.18 708.048 1294.09 709.064C1293.6 714.199 1295.47 719.959 1295.88 725.111C1296.45 732.146 1298.06 738.575 1301.43 744.641C1307.68 755.899 1325.6 754.567 1331.09 743.269C1334.37 736.508 1335.45 729.047 1337.27 721.785C1338.18 718.116 1339.42 713.261 1339.64 709.486C1339.89 705.275 1341.62 705.783 1337.53 704.525C1329.63 702.094 1320.99 705.065 1313.04 705.633C1308.96 705.925 1304.78 705.686 1300.69 705.686C1298.61 705.686 1294.02 705.689 1298.79 704.736" stroke="#1E1E1E" stroke-width="7.60101" stroke-linecap="round" stroke-linejoin="round"/>
<path d="M1303.54 625.875C1303.54 628.96 1300.4 633.581 1299.95 637.065C1298.98 644.404 1306.58 646.194 1302.59 653.904C1299.06 660.711 1302.48 665.617 1302.48 672.431C1302.48 675.225 1298.47 679.61 1302.59 680.982" stroke="#1E1E1E" stroke-width="7.60101" stroke-linecap="round" stroke-linejoin="round"/>
<path d="M1328.24 624.925C1328.24 621.725 1327.55 631.3 1326.87 634.426C1326.17 637.638 1325.6 642.459 1326.76 645.617C1327.55 647.744 1330.04 649.575 1330.04 652.004C1330.04 655.821 1324.12 660.311 1327.29 663.88C1329.26 666.091 1328.24 670.539 1328.24 673.381" stroke="#1E1E1E" stroke-width="7.60101" stroke-linecap="round" stroke-linejoin="round"/>
<path d="M1011.85 825.402C1005.08 825.402 1008.67 861.79 1007.15 868.632C1006.01 873.765 1005.32 898.146 1009.95 900.462" stroke="#1E1E1E" stroke-width="7.60101" stroke-linecap="round" stroke-linejoin="round"/>
<path d="M1124.91 723.738C1124.91 721.186 1120.34 724.509 1119.69 725.163C1117.61 727.243 1116.12 730.345 1115.41 733.187C1113.63 740.297 1111.83 746.351 1113.46 753.667C1114.9 760.154 1120.56 763.475 1126.6 765.333C1134.3 767.702 1141.73 764.703 1148.88 761.954C1159.25 757.966 1162.08 745.204 1160.96 735.14C1160.41 730.102 1158.26 725.224 1154.37 721.891C1152.55 720.334 1147.97 716.874 1145.76 716.137C1142.76 715.135 1140.43 714.237 1137.26 714.237C1134.86 714.237 1128.93 714.505 1126.81 715.398C1123.91 716.619 1120.16 725.07 1120.16 728.489" stroke="#1E1E1E" stroke-width="7.60101" stroke-linecap="round" stroke-linejoin="round"/>
<path d="M1130.61 729.439C1126.47 733.585 1132.99 740.173 1136.31 741.791C1140 743.58 1143.33 742.267 1146.71 740.365C1150.8 738.065 1152.29 736.09 1146.77 736.09" stroke="#1E1E1E" stroke-width="7.60101" stroke-linecap="round" stroke-linejoin="round"/>
<path d="M1140.11 727.539C1136.58 727.539 1143.88 716.097 1147.29 715.187C1151.99 713.934 1156.08 713.287 1160.96 713.287C1162.94 713.287 1165.74 715.146 1163.87 712.337" stroke="#1E1E1E" stroke-width="7.60101" stroke-linecap="round" stroke-linejoin="round"/>
<path d="M246.257 88.7781C246.257 88.0551 244.932 86.3976 244.356 87.4057C242.025 91.4859 242.456 96.7492 242.456 101.235C242.456 124.066 244.192 147.169 247.418 169.75C250.146 188.845 250.494 207.456 251.588 226.652C252.774 247.466 255.845 268.605 259.347 289.149C263.486 313.429 273.5 343.341 293.763 358.825C318.703 377.883 347.412 386.933 376.635 397.358C393.041 403.211 411.099 404.442 428.364 405.593C438.039 406.238 447.71 406.028 457.396 406.12C468.742 406.229 479.866 408.202 491.178 408.76C536.184 410.98 580.85 417.011 625.779 420.372C651.926 422.328 677.492 424.173 703.743 424.173C731.914 424.173 759.955 422.156 788.093 421.322C832.523 420.006 876.998 422.603 921.269 426.548C952.649 429.344 984.471 432.695 1015.96 433.621C1040.86 434.353 1066.45 433.786 1091.18 437.052C1106.72 439.104 1119.06 442.951 1131.72 452.202C1135.96 455.3 1138.68 458.665 1140.54 463.55C1143.34 470.916 1147.72 478.672 1148.88 486.512C1149.65 491.702 1153.4 495.193 1154.79 500.183C1155.06 501.167 1158.38 508.114 1158.38 504.458C1158.38 497.925 1165.1 495.352 1168.94 490.998C1174.68 484.474 1182.16 480.278 1188.78 474.741C1194.38 470.058 1200.15 465.512 1205.88 461.017C1227.87 443.784 1247.33 417.98 1255.08 391.13C1258.97 377.66 1266.87 364.873 1274.08 352.913C1285.4 334.13 1284.88 307.428 1284.75 286.404C1284.64 270.134 1281.23 253.764 1279.52 237.578C1277.95 222.738 1276.22 207.764 1273.55 193.081C1269.91 173.058 1265.47 152.908 1265.74 132.484C1265.96 116.302 1269.24 100.143 1269.54 84.0275C1269.76 72.0577 1259.96 64.4045 1249.43 61.6467C1238.36 58.7457 1227.12 56.7082 1215.91 54.3624C1200.47 51.1291 1184.52 51.0586 1168.88 48.9256C1149.19 46.2397 1129.1 46.5648 1109.39 48.6617C1083.17 51.4517 1056.85 51.9811 1030.53 53.2012C919.601 58.3437 808.422 50.5842 697.514 56.0515C669.64 57.4256 641.829 56.7272 613.956 57.6351C581.137 58.7041 548.438 61.4145 515.565 62.1746C462.436 63.403 409.533 65.9751 356.366 65.9751C334.273 65.9751 312.874 66.9723 291.018 70.2506C281.199 71.7235 271.148 72.5902 261.248 73.365C255.693 73.7996 250.3 73.3448 244.779 72.8371C243.828 72.7497 237.043 72.626 241.506 72.626" stroke="#1E1E1E" stroke-width="7.60101" stroke-linecap="round" stroke-linejoin="round"/>
<path d="M558.498 131.111H562.754V179.264H558.498V131.111ZM550.463 150.691H559.721V154.363H550.463V150.691ZM547.59 132.175H551.74V176.763H547.59V132.175ZM524.339 136.911H528.755V164.685H524.339V136.911ZM524.339 162.929H527.371C529.89 162.929 532.533 162.84 535.299 162.663C538.066 162.45 541.01 162.025 544.132 161.386L544.664 165.27C541.4 165.909 538.35 166.334 535.512 166.547C532.674 166.725 529.961 166.813 527.371 166.813H524.339V162.929ZM616.629 131.111H621.045V179.317H616.629V131.111ZM595.666 134.836C598.042 134.836 600.135 135.527 601.944 136.911C603.789 138.259 605.225 140.192 606.254 142.71C607.318 145.229 607.85 148.191 607.85 151.596C607.85 155.001 607.318 157.963 606.254 160.482C605.225 163 603.789 164.951 601.944 166.334C600.135 167.718 598.042 168.409 595.666 168.409C593.289 168.409 591.179 167.718 589.334 166.334C587.489 164.951 586.035 163 584.971 160.482C583.942 157.963 583.428 155.001 583.428 151.596C583.428 148.191 583.942 145.229 584.971 142.71C586.035 140.192 587.489 138.259 589.334 136.911C591.179 135.527 593.289 134.836 595.666 134.836ZM595.666 138.773C594.069 138.773 592.668 139.305 591.462 140.369C590.292 141.398 589.369 142.888 588.696 144.839C588.022 146.754 587.685 149.007 587.685 151.596C587.685 154.185 588.022 156.456 588.696 158.406C589.369 160.322 590.292 161.812 591.462 162.876C592.668 163.94 594.069 164.472 595.666 164.472C597.226 164.472 598.592 163.94 599.763 162.876C600.969 161.812 601.909 160.322 602.583 158.406C603.257 156.456 603.593 154.185 603.593 151.596C603.593 149.007 603.257 146.754 602.583 144.839C601.909 142.888 600.969 141.398 599.763 140.369C598.592 139.305 597.226 138.773 595.666 138.773ZM629.98 155.959H673.61V159.524H629.98V155.959ZM635.514 132.282H668.023V143.721H639.983V150.053H635.62V140.423H663.66V135.793H635.514V132.282ZM635.62 148.404H669.034V151.862H635.62V148.404ZM635.886 163.887H668.076V178.625H635.886V163.887ZM663.713 167.452H640.196V175.007H663.713V167.452ZM713.351 131.111H717.768V179.317H713.351V131.111ZM692.388 134.836C694.764 134.836 696.857 135.527 698.666 136.911C700.511 138.259 701.947 140.192 702.976 142.71C704.04 145.229 704.572 148.191 704.572 151.596C704.572 155.001 704.04 157.963 702.976 160.482C701.947 163 700.511 164.951 698.666 166.334C696.857 167.718 694.764 168.409 692.388 168.409C690.011 168.409 687.901 167.718 686.056 166.334C684.212 164.951 682.757 163 681.693 160.482C680.665 157.963 680.15 155.001 680.15 151.596C680.15 148.191 680.665 145.229 681.693 142.71C682.757 140.192 684.212 138.259 686.056 136.911C687.901 135.527 690.011 134.836 692.388 134.836ZM692.388 138.773C690.792 138.773 689.39 139.305 688.184 140.369C687.014 141.398 686.092 142.888 685.418 144.839C684.744 146.754 684.407 149.007 684.407 151.596C684.407 154.185 684.744 156.456 685.418 158.406C686.092 160.322 687.014 161.812 688.184 162.876C689.39 163.94 690.792 164.472 692.388 164.472C693.949 164.472 695.314 163.94 696.485 162.876C697.691 161.812 698.631 160.322 699.305 158.406C699.979 156.456 700.316 154.185 700.316 151.596C700.316 149.007 699.979 146.754 699.305 144.839C698.631 142.888 697.691 141.398 696.485 140.369C695.314 139.305 693.949 138.773 692.388 138.773ZM740.783 175.114V136.113H751.903C754.812 136.113 757.365 136.485 759.565 137.23C761.764 137.94 763.467 139.128 764.673 140.795C765.879 142.462 766.482 144.715 766.482 147.552C766.482 150.284 765.879 152.536 764.673 154.31C763.467 156.083 761.782 157.413 759.618 158.3C757.454 159.151 754.953 159.577 752.116 159.577H745.678V175.114H740.783ZM745.678 155.587H751.477C754.882 155.587 757.419 154.948 759.086 153.671C760.753 152.394 761.587 150.354 761.587 147.552C761.587 144.715 760.718 142.764 758.979 141.699C757.277 140.635 754.705 140.103 751.264 140.103H745.678V155.587ZM783.483 175.805C780.894 175.805 778.553 175.202 776.46 173.996C774.367 172.79 772.7 171.07 771.459 168.835C770.253 166.565 769.65 163.851 769.65 160.694C769.65 158.318 770.004 156.207 770.714 154.363C771.423 152.483 772.381 150.887 773.587 149.574C774.828 148.226 776.229 147.215 777.79 146.541C779.351 145.832 780.947 145.477 782.579 145.477C785.062 145.477 787.155 146.027 788.857 147.127C790.56 148.226 791.855 149.805 792.741 151.862C793.664 153.884 794.125 156.278 794.125 159.045C794.125 159.577 794.107 160.074 794.072 160.535C794.036 160.996 793.983 161.422 793.912 161.812H774.438C774.545 163.869 775.006 165.66 775.822 167.186C776.673 168.675 777.79 169.846 779.174 170.697C780.557 171.513 782.171 171.921 784.015 171.921C785.434 171.921 786.711 171.726 787.846 171.336C789.017 170.91 790.152 170.343 791.252 169.633L792.954 172.879C791.713 173.695 790.312 174.386 788.751 174.954C787.19 175.521 785.434 175.805 783.483 175.805ZM774.385 158.353H789.868C789.868 155.445 789.23 153.228 787.953 151.702C786.711 150.142 784.955 149.361 782.685 149.361C781.337 149.361 780.06 149.716 778.854 150.425C777.684 151.135 776.691 152.146 775.875 153.458C775.094 154.771 774.598 156.402 774.385 158.353ZM808.972 175.805C806.95 175.805 805.336 175.415 804.13 174.635C802.924 173.819 802.055 172.684 801.523 171.229C801.026 169.775 800.778 168.09 800.778 166.175V150.159H796.468V146.488L801.044 146.222L801.576 138.081H805.62V146.222H813.494V150.159H805.62V166.334C805.62 168.072 805.939 169.438 806.577 170.431C807.251 171.389 808.422 171.868 810.089 171.868C810.621 171.868 811.189 171.797 811.792 171.655C812.395 171.478 812.927 171.283 813.388 171.07L814.346 174.741C813.53 175.025 812.661 175.273 811.738 175.486C810.816 175.699 809.894 175.805 808.972 175.805ZM830.168 175.805C827.579 175.805 825.237 175.202 823.145 173.996C821.052 172.79 819.385 171.07 818.143 168.835C816.937 166.565 816.334 163.851 816.334 160.694C816.334 158.318 816.689 156.207 817.398 154.363C818.108 152.483 819.065 150.887 820.271 149.574C821.513 148.226 822.914 147.215 824.475 146.541C826.036 145.832 827.632 145.477 829.263 145.477C831.746 145.477 833.839 146.027 835.542 147.127C837.245 148.226 838.539 149.805 839.426 151.862C840.348 153.884 840.809 156.278 840.809 159.045C840.809 159.577 840.792 160.074 840.756 160.535C840.721 160.996 840.668 161.422 840.597 161.812H821.123C821.229 163.869 821.69 165.66 822.506 167.186C823.357 168.675 824.475 169.846 825.858 170.697C827.242 171.513 828.856 171.921 830.7 171.921C832.119 171.921 833.396 171.726 834.531 171.336C835.702 170.91 836.837 170.343 837.936 169.633L839.639 172.879C838.397 173.695 836.996 174.386 835.435 174.954C833.875 175.521 832.119 175.805 830.168 175.805ZM821.07 158.353H836.553C836.553 155.445 835.914 153.228 834.637 151.702C833.396 150.142 831.64 149.361 829.37 149.361C828.022 149.361 826.745 149.716 825.539 150.425C824.368 151.135 823.375 152.146 822.559 153.458C821.779 154.771 821.282 156.402 821.07 158.353ZM847.339 175.114V146.222H851.329L851.808 151.49H851.914C852.908 149.645 854.114 148.191 855.532 147.127C856.987 146.027 858.512 145.477 860.108 145.477C860.782 145.477 861.35 145.53 861.811 145.637C862.307 145.708 862.769 145.867 863.194 146.116L862.29 150.319C861.793 150.177 861.35 150.071 860.96 150C860.569 149.893 860.073 149.84 859.47 149.84C858.299 149.84 857.04 150.354 855.692 151.383C854.344 152.376 853.191 154.097 852.234 156.544V175.114H847.339ZM900.157 131.111H904.52V179.264H900.157V131.111ZM868.179 135.847H872.542V165.643H868.179V135.847ZM868.179 163.036H872.117C875.806 163.036 879.548 162.876 883.344 162.557C887.174 162.202 891.112 161.617 895.155 160.801L895.741 164.525C891.555 165.412 887.529 166.033 883.663 166.388C879.796 166.707 875.948 166.866 872.117 166.866H868.179V163.036ZM946.869 131.111H951.285V179.264H946.869V131.111ZM949.848 150.958H958.468V154.629H949.848V150.958ZM923.83 136.326H927.927C927.927 139.199 927.75 142.054 927.395 144.892C927.04 147.73 926.437 150.514 925.586 153.245C924.77 155.977 923.635 158.619 922.181 161.173C920.762 163.692 918.97 166.104 916.807 168.409L913.295 165.909C915.246 163.851 916.895 161.688 918.243 159.417C919.627 157.147 920.726 154.788 921.542 152.341C922.358 149.893 922.943 147.375 923.298 144.785C923.653 142.161 923.83 139.5 923.83 136.804V136.326ZM914.838 136.326H925.479V139.997H914.838V136.326ZM936.972 136.326H941.069C941.069 139.234 940.927 142.214 940.643 145.264C940.395 148.315 939.881 151.365 939.1 154.416C938.355 157.467 937.291 160.446 935.908 163.355C934.56 166.263 932.769 169.012 930.534 171.602L926.969 169.154C929.027 166.813 930.694 164.33 931.971 161.705C933.283 159.08 934.294 156.385 935.003 153.618C935.713 150.816 936.209 147.996 936.493 145.158C936.812 142.32 936.972 139.518 936.972 136.751V136.326ZM929.47 136.326H938.728V139.997H929.47V136.326ZM966.604 175.805C965.647 175.805 964.813 175.468 964.104 174.794C963.43 174.085 963.093 173.198 963.093 172.134C963.093 170.999 963.43 170.094 964.104 169.42C964.813 168.746 965.647 168.409 966.604 168.409C967.562 168.409 968.378 168.746 969.052 169.42C969.761 170.094 970.116 170.999 970.116 172.134C970.116 173.198 969.761 174.085 969.052 174.794C968.378 175.468 967.562 175.805 966.604 175.805ZM980.828 175.805C979.87 175.805 979.036 175.468 978.327 174.794C977.653 174.085 977.316 173.198 977.316 172.134C977.316 170.999 977.653 170.094 978.327 169.42C979.036 168.746 979.87 168.409 980.828 168.409C981.785 168.409 982.601 168.746 983.275 169.42C983.985 170.094 984.339 170.999 984.339 172.134C984.339 173.198 983.985 174.085 983.275 174.794C982.601 175.468 981.785 175.805 980.828 175.805ZM995.051 175.805C994.093 175.805 993.26 175.468 992.55 174.794C991.876 174.085 991.539 173.198 991.539 172.134C991.539 170.999 991.876 170.094 992.55 169.42C993.26 168.746 994.093 168.409 995.051 168.409C996.009 168.409 996.825 168.746 997.498 169.42C998.208 170.094 998.563 170.999 998.563 172.134C998.563 173.198 998.208 174.085 997.498 174.794C996.825 175.468 996.009 175.805 995.051 175.805ZM556.955 211.111H561.371V259.317H556.955V211.111ZM535.991 214.836C538.368 214.836 540.46 215.527 542.269 216.911C544.114 218.259 545.551 220.192 546.579 222.71C547.643 225.229 548.175 228.191 548.175 231.596C548.175 235.001 547.643 237.963 546.579 240.482C545.551 243 544.114 244.951 542.269 246.334C540.46 247.718 538.368 248.409 535.991 248.409C533.614 248.409 531.504 247.718 529.659 246.334C527.815 244.951 526.36 243 525.296 240.482C524.268 237.963 523.753 235.001 523.753 231.596C523.753 228.191 524.268 225.229 525.296 222.71C526.36 220.192 527.815 218.259 529.659 216.911C531.504 215.527 533.614 214.836 535.991 214.836ZM535.991 218.773C534.395 218.773 532.994 219.305 531.788 220.369C530.617 221.398 529.695 222.888 529.021 224.839C528.347 226.754 528.01 229.007 528.01 231.596C528.01 234.185 528.347 236.456 529.021 238.406C529.695 240.322 530.617 241.812 531.788 242.876C532.994 243.94 534.395 244.472 535.991 244.472C537.552 244.472 538.917 243.94 540.088 242.876C541.294 241.812 542.234 240.322 542.908 238.406C543.582 236.456 543.919 234.185 543.919 231.596C543.919 229.007 543.582 226.754 542.908 224.839C542.234 222.888 541.294 221.398 540.088 220.369C538.917 219.305 537.552 218.773 535.991 218.773ZM604.658 219.944H618.491V223.562H604.658V219.944ZM604.658 230.319H618.598V233.937H604.658V230.319ZM616.842 211.164H621.258V246.76H616.842V211.164ZM590.345 254.581H622.376V258.2H590.345V254.581ZM590.345 243.302H594.761V256.39H590.345V243.302ZM584.013 214.357H588.429V222.817H601.412V214.357H605.775V238.566H584.013V214.357ZM588.429 226.275V235.001H601.412V226.275H588.429ZM649.507 212.814H653.391V215.527C653.391 217.372 653.036 219.11 652.327 220.742C651.618 222.338 650.642 223.81 649.401 225.158C648.195 226.506 646.776 227.712 645.144 228.776C643.512 229.84 641.739 230.727 639.823 231.436C637.943 232.146 636.01 232.66 634.024 232.979L632.215 229.414C633.988 229.166 635.709 228.741 637.376 228.138C639.078 227.535 640.657 226.807 642.111 225.956C643.566 225.069 644.843 224.076 645.942 222.976C647.077 221.877 647.946 220.706 648.549 219.465C649.188 218.188 649.507 216.875 649.507 215.527V212.814ZM650.252 212.814H654.083V215.527C654.083 216.875 654.402 218.17 655.041 219.412C655.679 220.653 656.548 221.824 657.648 222.923C658.783 224.023 660.078 225.016 661.532 225.903C662.986 226.79 664.547 227.535 666.214 228.138C667.917 228.741 669.637 229.166 671.375 229.414L669.619 232.979C667.633 232.66 665.7 232.146 663.82 231.436C661.94 230.691 660.166 229.787 658.499 228.723C656.867 227.659 655.431 226.453 654.189 225.105C652.983 223.757 652.026 222.285 651.316 220.689C650.607 219.057 650.252 217.336 650.252 215.527V212.814ZM649.507 240.96H653.87V259.264H649.507V240.96ZM630.033 238.194H673.503V241.865H630.033V238.194ZM722.643 211.164H727.059V238.353H722.643V211.164ZM725.676 222.87H734.136V226.488H725.676V222.87ZM696.359 240.96H728.283V244.525H696.359V240.96ZM695.986 254.901H728.868V258.519H695.986V254.901ZM703.063 241.812H707.373V256.657H703.063V241.812ZM717.376 241.812H721.685V256.657H717.376V241.812ZM703.116 213.878C705.564 213.878 707.727 214.375 709.607 215.368C711.487 216.326 712.959 217.656 714.024 219.358C715.123 221.026 715.673 222.976 715.673 225.211C715.673 227.41 715.123 229.361 714.024 231.064C712.959 232.767 711.487 234.097 709.607 235.054C707.727 235.977 705.564 236.438 703.116 236.438C700.704 236.438 698.54 235.977 696.625 235.054C694.745 234.097 693.255 232.767 692.155 231.064C691.091 229.361 690.559 227.41 690.559 225.211C690.559 222.976 691.091 221.026 692.155 219.358C693.255 217.656 694.745 216.326 696.625 215.368C698.54 214.375 700.704 213.878 703.116 213.878ZM703.116 217.603C701.555 217.603 700.154 217.922 698.913 218.56C697.671 219.199 696.678 220.086 695.933 221.221C695.224 222.356 694.869 223.668 694.869 225.158C694.869 226.683 695.224 228.013 695.933 229.148C696.678 230.284 697.671 231.17 698.913 231.809C700.154 232.447 701.555 232.767 703.116 232.767C704.712 232.767 706.131 232.447 707.373 231.809C708.614 231.17 709.59 230.284 710.299 229.148C711.044 228.013 711.416 226.683 711.416 225.158C711.416 223.668 711.044 222.356 710.299 221.221C709.59 220.086 708.614 219.199 707.373 218.56C706.131 217.922 704.712 217.603 703.116 217.603ZM757.596 229.84H766.641V233.458H757.596V229.84ZM774.729 211.111H778.985V259.264H774.729V211.111ZM765.151 212.122H769.355V256.816H765.151V212.122ZM748.87 215.155C750.963 215.155 752.772 215.829 754.297 217.177C755.858 218.525 757.064 220.458 757.915 222.976C758.767 225.495 759.192 228.457 759.192 231.862C759.192 235.303 758.767 238.282 757.915 240.801C757.064 243.319 755.858 245.27 754.297 246.654C752.772 248.002 750.963 248.675 748.87 248.675C746.848 248.675 745.057 248.002 743.496 246.654C741.971 245.27 740.783 243.319 739.931 240.801C739.08 238.282 738.654 235.303 738.654 231.862C738.654 228.457 739.08 225.495 739.931 222.976C740.783 220.458 741.971 218.525 743.496 217.177C745.057 215.829 746.848 215.155 748.87 215.155ZM748.87 219.252C747.629 219.252 746.547 219.766 745.624 220.795C744.702 221.824 743.993 223.278 743.496 225.158C743 227.038 742.751 229.273 742.751 231.862C742.751 234.451 743 236.704 743.496 238.619C743.993 240.499 744.702 241.954 745.624 242.982C746.547 244.011 747.629 244.525 748.87 244.525C750.147 244.525 751.247 244.011 752.169 242.982C753.127 241.954 753.854 240.499 754.35 238.619C754.847 236.704 755.095 234.451 755.095 231.862C755.095 229.273 754.847 227.038 754.35 225.158C753.854 223.278 753.127 221.824 752.169 220.795C751.247 219.766 750.147 219.252 748.87 219.252ZM803.171 240.748H836.053V243.993H807.534V257.295H803.171V240.748ZM803.171 255.38H836.638V258.732H803.171V255.38ZM805.938 248.037H834.989V251.176H805.938V248.037ZM817.217 234.31H821.634V241.705H817.217V234.31ZM797.744 232.181H841.214V235.746H797.744V232.181ZM803.49 211.963H807.853V216.645H831.158V211.963H835.521V228.191H803.49V211.963ZM807.853 219.997V224.732H831.158V219.997H807.853ZM881.062 211.111H885.478V259.317H881.062V211.111ZM860.098 214.836C862.475 214.836 864.568 215.527 866.377 216.911C868.221 218.259 869.658 220.192 870.686 222.71C871.751 225.229 872.283 228.191 872.283 231.596C872.283 235.001 871.751 237.963 870.686 240.482C869.658 243 868.221 244.951 866.377 246.334C864.568 247.718 862.475 248.409 860.098 248.409C857.722 248.409 855.611 247.718 853.767 246.334C851.922 244.951 850.468 243 849.404 240.482C848.375 237.963 847.861 235.001 847.861 231.596C847.861 228.191 848.375 225.229 849.404 222.71C850.468 220.192 851.922 218.259 853.767 216.911C855.611 215.527 857.722 214.836 860.098 214.836ZM860.098 218.773C858.502 218.773 857.101 219.305 855.895 220.369C854.724 221.398 853.802 222.888 853.128 224.839C852.454 226.754 852.117 229.007 852.117 231.596C852.117 234.185 852.454 236.456 853.128 238.406C853.802 240.322 854.724 241.812 855.895 242.876C857.101 243.94 858.502 244.472 860.098 244.472C861.659 244.472 863.025 243.94 864.195 242.876C865.401 241.812 866.341 240.322 867.015 238.406C867.689 236.456 868.026 234.185 868.026 231.596C868.026 229.007 867.689 226.754 867.015 224.839C866.341 222.888 865.401 221.398 864.195 220.369C863.025 219.305 861.659 218.773 860.098 218.773ZM917.558 219.571H930.966V223.242H917.558V219.571ZM917.558 229.893H931.072V233.511H917.558V229.893ZM896.701 215.315H918.622V237.821H896.701V215.315ZM914.312 218.879H901.01V234.31H914.312V218.879ZM929.636 211.164H934.052V246.281H929.636V211.164ZM903.139 254.581H935.169V258.2H903.139V254.581ZM903.139 243.142H907.555V256.231H903.139V243.142ZM947.562 255.805C946.605 255.805 945.771 255.468 945.062 254.794C944.388 254.085 944.051 253.198 944.051 252.134C944.051 250.999 944.388 250.094 945.062 249.42C945.771 248.746 946.605 248.409 947.562 248.409C948.52 248.409 949.336 248.746 950.01 249.42C950.719 250.094 951.074 250.999 951.074 252.134C951.074 253.198 950.719 254.085 950.01 254.794C949.336 255.468 948.52 255.805 947.562 255.805ZM961.786 255.805C960.828 255.805 959.994 255.468 959.285 254.794C958.611 254.085 958.274 253.198 958.274 252.134C958.274 250.999 958.611 250.094 959.285 249.42C959.994 248.746 960.828 248.409 961.786 248.409C962.743 248.409 963.559 248.746 964.233 249.42C964.943 250.094 965.297 250.999 965.297 252.134C965.297 253.198 964.943 254.085 964.233 254.794C963.559 255.468 962.743 255.805 961.786 255.805ZM976.009 255.805C975.051 255.805 974.218 255.468 973.508 254.794C972.834 254.085 972.497 253.198 972.497 252.134C972.497 250.999 972.834 250.094 973.508 249.42C974.218 248.746 975.051 248.409 976.009 248.409C976.967 248.409 977.783 248.746 978.457 249.42C979.166 250.094 979.521 250.999 979.521 252.134C979.521 253.198 979.166 254.085 978.457 254.794C977.783 255.468 976.967 255.805 976.009 255.805ZM529.34 335.805C528.134 335.805 527.159 335.557 526.414 335.06C525.669 334.564 525.119 333.837 524.764 332.879C524.41 331.886 524.232 330.715 524.232 329.367V292.761H529.127V329.686C529.127 330.431 529.251 330.963 529.5 331.283C529.783 331.602 530.103 331.761 530.457 331.761C530.599 331.761 530.741 331.761 530.883 331.761C531.025 331.726 531.22 331.691 531.468 331.655L532.16 335.38C531.805 335.486 531.415 335.575 530.99 335.646C530.564 335.752 530.014 335.805 529.34 335.805ZM550.473 335.805C547.883 335.805 545.542 335.202 543.45 333.996C541.357 332.79 539.69 331.07 538.448 328.835C537.242 326.565 536.639 323.851 536.639 320.694C536.639 318.318 536.994 316.207 537.703 314.363C538.413 312.483 539.37 310.887 540.576 309.574C541.818 308.226 543.219 307.215 544.78 306.541C546.34 305.832 547.937 305.477 549.568 305.477C552.051 305.477 554.144 306.027 555.847 307.127C557.549 308.226 558.844 309.805 559.731 311.862C560.653 313.884 561.114 316.278 561.114 319.045C561.114 319.577 561.097 320.074 561.061 320.535C561.026 320.996 560.972 321.422 560.901 321.812H541.428C541.534 323.869 541.995 325.66 542.811 327.186C543.662 328.675 544.78 329.846 546.163 330.697C547.546 331.513 549.16 331.921 551.005 331.921C552.424 331.921 553.701 331.726 554.836 331.336C556.006 330.91 557.141 330.343 558.241 329.633L559.944 332.879C558.702 333.695 557.301 334.386 555.74 334.954C554.18 335.521 552.424 335.805 550.473 335.805ZM541.374 318.353H556.858C556.858 315.445 556.219 313.228 554.942 311.702C553.701 310.142 551.945 309.361 549.675 309.361C548.327 309.361 547.05 309.716 545.844 310.425C544.673 311.135 543.68 312.146 542.864 313.458C542.084 314.771 541.587 316.402 541.374 318.353ZM575.961 335.805C573.939 335.805 572.325 335.415 571.119 334.635C569.913 333.819 569.044 332.684 568.512 331.229C568.016 329.775 567.767 328.09 567.767 326.175V310.159H563.457V306.488L568.033 306.222L568.565 298.081H572.609V306.222H580.484V310.159H572.609V326.334C572.609 328.072 572.928 329.438 573.567 330.431C574.241 331.389 575.411 331.868 577.078 331.868C577.611 331.868 578.178 331.797 578.781 331.655C579.384 331.478 579.916 331.283 580.377 331.07L581.335 334.741C580.519 335.025 579.65 335.273 578.728 335.486C577.806 335.699 576.883 335.805 575.961 335.805ZM597.701 347.298V306.222H601.691L602.17 309.574H602.277C603.589 308.475 605.026 307.517 606.586 306.701C608.183 305.885 609.814 305.477 611.481 305.477C613.964 305.477 616.057 306.098 617.76 307.339C619.498 308.545 620.793 310.248 621.644 312.447C622.531 314.647 622.974 317.236 622.974 320.216C622.974 323.514 622.371 326.334 621.165 328.675C619.995 330.981 618.452 332.755 616.536 333.996C614.656 335.202 612.617 335.805 610.417 335.805C609.105 335.805 607.775 335.521 606.427 334.954C605.079 334.351 603.749 333.517 602.436 332.453L602.596 337.508V347.298H597.701ZM609.619 331.708C611.215 331.708 612.634 331.265 613.876 330.378C615.153 329.456 616.146 328.143 616.855 326.441C617.565 324.703 617.92 322.645 617.92 320.269C617.92 318.14 617.653 316.278 617.121 314.682C616.625 313.05 615.827 311.791 614.727 310.904C613.627 310.018 612.138 309.574 610.258 309.574C609.052 309.574 607.81 309.911 606.533 310.585C605.292 311.259 603.979 312.234 602.596 313.511V328.729C603.873 329.828 605.132 330.609 606.374 331.07C607.615 331.495 608.697 331.708 609.619 331.708ZM641.816 335.805C639.226 335.805 636.885 335.202 634.792 333.996C632.7 332.79 631.032 331.07 629.791 328.835C628.585 326.565 627.982 323.851 627.982 320.694C627.982 318.318 628.337 316.207 629.046 314.363C629.755 312.483 630.713 310.887 631.919 309.574C633.161 308.226 634.562 307.215 636.123 306.541C637.683 305.832 639.28 305.477 640.911 305.477C643.394 305.477 645.487 306.027 647.19 307.127C648.892 308.226 650.187 309.805 651.074 311.862C651.996 313.884 652.457 316.278 652.457 319.045C652.457 319.577 652.439 320.074 652.404 320.535C652.368 320.996 652.315 321.422 652.244 321.812H632.771C632.877 323.869 633.338 325.66 634.154 327.186C635.005 328.675 636.123 329.846 637.506 330.697C638.889 331.513 640.503 331.921 642.348 331.921C643.767 331.921 645.044 331.726 646.179 331.336C647.349 330.91 648.484 330.343 649.584 329.633L651.287 332.879C650.045 333.695 648.644 334.386 647.083 334.954C645.522 335.521 643.767 335.805 641.816 335.805ZM632.717 318.353H648.201C648.201 315.445 647.562 313.228 646.285 311.702C645.044 310.142 643.288 309.361 641.018 309.361C639.67 309.361 638.393 309.716 637.187 310.425C636.016 311.135 635.023 312.146 634.207 313.458C633.427 314.771 632.93 316.402 632.717 318.353ZM667.304 335.805C665.282 335.805 663.668 335.415 662.462 334.635C661.256 333.819 660.387 332.684 659.855 331.229C659.358 329.775 659.11 328.09 659.11 326.175V310.159H654.8V306.488L659.376 306.222L659.908 298.081H663.952V306.222H671.827V310.159H663.952V326.334C663.952 328.072 664.271 329.438 664.91 330.431C665.584 331.389 666.754 331.868 668.421 331.868C668.953 331.868 669.521 331.797 670.124 331.655C670.727 331.478 671.259 331.283 671.72 331.07L672.678 334.741C671.862 335.025 670.993 335.273 670.071 335.486C669.149 335.699 668.226 335.805 667.304 335.805ZM688.5 335.805C685.911 335.805 683.57 335.202 681.477 333.996C679.384 332.79 677.717 331.07 676.476 328.835C675.27 326.565 674.667 323.851 674.667 320.694C674.667 318.318 675.021 316.207 675.731 314.363C676.44 312.483 677.398 310.887 678.604 309.574C679.845 308.226 681.246 307.215 682.807 306.541C684.368 305.832 685.964 305.477 687.596 305.477C690.079 305.477 692.172 306.027 693.874 307.127C695.577 308.226 696.872 309.805 697.758 311.862C698.681 313.884 699.142 316.278 699.142 319.045C699.142 319.577 699.124 320.074 699.089 320.535C699.053 320.996 699 321.422 698.929 321.812H679.455C679.562 323.869 680.023 325.66 680.839 327.186C681.69 328.675 682.807 329.846 684.191 330.697C685.574 331.513 687.188 331.921 689.032 331.921C690.451 331.921 691.728 331.726 692.863 331.336C694.034 330.91 695.169 330.343 696.269 329.633L697.971 332.879C696.73 333.695 695.329 334.386 693.768 334.954C692.207 335.521 690.451 335.805 688.5 335.805ZM679.402 318.353H694.885C694.885 315.445 694.247 313.228 692.97 311.702C691.728 310.142 689.972 309.361 687.702 309.361C686.354 309.361 685.077 309.716 683.871 310.425C682.701 311.135 681.708 312.146 680.892 313.458C680.111 314.771 679.615 316.402 679.402 318.353ZM705.671 335.114V306.222H709.661L710.14 311.49H710.247C711.24 309.645 712.446 308.191 713.865 307.127C715.319 306.027 716.844 305.477 718.441 305.477C719.115 305.477 719.682 305.53 720.143 305.637C720.64 305.708 721.101 305.867 721.527 306.116L720.622 310.319C720.125 310.177 719.682 310.071 719.292 310C718.902 309.893 718.405 309.84 717.802 309.84C716.632 309.84 715.372 310.354 714.024 311.383C712.676 312.376 711.524 314.097 710.566 316.544V335.114H705.671ZM726.193 335.114V296.113H732.099L739.548 316.97C740.044 318.282 740.523 319.63 740.984 321.014C741.445 322.397 741.906 323.763 742.368 325.111H742.58C743.077 323.763 743.538 322.397 743.964 321.014C744.425 319.63 744.868 318.282 745.294 316.97L752.743 296.113H758.649V335.114H754.073V313.511C754.073 312.376 754.109 311.153 754.18 309.84C754.25 308.492 754.339 307.144 754.446 305.796C754.552 304.413 754.641 303.154 754.712 302.019H754.499L751.36 310.904L744.017 331.176H740.718L733.322 310.904L730.183 302.019H729.97C730.112 303.154 730.219 304.413 730.29 305.796C730.396 307.144 730.467 308.492 730.502 309.84C730.573 311.153 730.609 312.376 730.609 313.511V335.114H726.193ZM780.013 335.805C777.423 335.805 775.082 335.202 772.989 333.996C770.897 332.79 769.23 331.07 767.988 328.835C766.782 326.565 766.179 323.851 766.179 320.694C766.179 318.318 766.534 316.207 767.243 314.363C767.953 312.483 768.91 310.887 770.116 309.574C771.358 308.226 772.759 307.215 774.32 306.541C775.88 305.832 777.477 305.477 779.108 305.477C781.591 305.477 783.684 306.027 785.387 307.127C787.089 308.226 788.384 309.805 789.271 311.862C790.193 313.884 790.654 316.278 790.654 319.045C790.654 319.577 790.637 320.074 790.601 320.535C790.566 320.996 790.512 321.422 790.441 321.812H770.968C771.074 323.869 771.535 325.66 772.351 327.186C773.202 328.675 774.32 329.846 775.703 330.697C777.086 331.513 778.7 331.921 780.545 331.921C781.964 331.921 783.241 331.726 784.376 331.336C785.546 330.91 786.681 330.343 787.781 329.633L789.484 332.879C788.242 333.695 786.841 334.386 785.28 334.954C783.72 335.521 781.964 335.805 780.013 335.805ZM770.914 318.353H786.398C786.398 315.445 785.759 313.228 784.482 311.702C783.241 310.142 781.485 309.361 779.215 309.361C777.867 309.361 776.59 309.716 775.384 310.425C774.213 311.135 773.22 312.146 772.404 313.458C771.624 314.771 771.127 316.402 770.914 318.353ZM797.183 335.114V306.222H801.174L801.653 310.425H801.759C803.036 309.042 804.42 307.871 805.909 306.914C807.435 305.956 809.049 305.477 810.751 305.477C812.986 305.477 814.724 305.974 815.965 306.967C817.207 307.96 818.129 309.308 818.732 311.011C820.257 309.379 821.783 308.049 823.308 307.02C824.869 305.992 826.536 305.477 828.31 305.477C831.254 305.477 833.435 306.453 834.854 308.404C836.308 310.319 837.035 313.121 837.035 316.81V335.114H832.194V317.449C832.194 314.717 831.75 312.749 830.863 311.543C830.012 310.337 828.664 309.734 826.82 309.734C825.72 309.734 824.567 310.106 823.361 310.851C822.191 311.561 820.914 312.66 819.53 314.15V335.114H814.688V317.449C814.688 314.717 814.245 312.749 813.358 311.543C812.507 310.337 811.159 309.734 809.315 309.734C808.215 309.734 807.062 310.106 805.856 310.851C804.65 311.561 803.391 312.66 802.078 314.15V335.114H797.183ZM858.573 335.805C857.26 335.805 855.877 335.486 854.423 334.847C852.968 334.209 851.62 333.304 850.379 332.134H850.166L849.74 335.114H845.856V292.761H850.751V304.36L850.538 309.521C851.851 308.386 853.287 307.428 854.848 306.648C856.409 305.867 858.005 305.477 859.637 305.477C862.12 305.477 864.213 306.098 865.915 307.339C867.618 308.545 868.913 310.248 869.799 312.447C870.686 314.647 871.13 317.236 871.13 320.216C871.13 323.479 870.527 326.281 869.321 328.622C868.15 330.963 866.607 332.755 864.692 333.996C862.812 335.202 860.772 335.805 858.573 335.805ZM857.775 331.708C859.371 331.708 860.79 331.265 862.031 330.378C863.308 329.456 864.301 328.143 865.011 326.441C865.72 324.703 866.075 322.645 866.075 320.269C866.075 318.14 865.809 316.278 865.277 314.682C864.78 313.05 863.982 311.791 862.882 310.904C861.783 310.018 860.293 309.574 858.413 309.574C857.207 309.574 855.966 309.911 854.689 310.585C853.412 311.259 852.099 312.234 850.751 313.511V328.729C851.993 329.828 853.234 330.609 854.476 331.07C855.753 331.495 856.852 331.708 857.775 331.708ZM889.867 335.805C887.278 335.805 884.937 335.202 882.844 333.996C880.751 332.79 879.084 331.07 877.842 328.835C876.636 326.565 876.033 323.851 876.033 320.694C876.033 318.318 876.388 316.207 877.097 314.363C877.807 312.483 878.765 310.887 879.971 309.574C881.212 308.226 882.613 307.215 884.174 306.541C885.735 305.832 887.331 305.477 888.963 305.477C891.446 305.477 893.538 306.027 895.241 307.127C896.944 308.226 898.238 309.805 899.125 311.862C900.047 313.884 900.509 316.278 900.509 319.045C900.509 319.577 900.491 320.074 900.455 320.535C900.42 320.996 900.367 321.422 900.296 321.812H880.822C880.928 323.869 881.39 325.66 882.205 327.186C883.057 328.675 884.174 329.846 885.557 330.697C886.941 331.513 888.555 331.921 890.399 331.921C891.818 331.921 893.095 331.726 894.23 331.336C895.401 330.91 896.536 330.343 897.635 329.633L899.338 332.879C898.097 333.695 896.695 334.386 895.135 334.954C893.574 335.521 891.818 335.805 889.867 335.805ZM880.769 318.353H896.252C896.252 315.445 895.614 313.228 894.337 311.702C893.095 310.142 891.339 309.361 889.069 309.361C887.721 309.361 886.444 309.716 885.238 310.425C884.068 311.135 883.074 312.146 882.259 313.458C881.478 314.771 880.982 316.402 880.769 318.353ZM907.038 335.114V306.222H911.028L911.507 311.49H911.614C912.607 309.645 913.813 308.191 915.232 307.127C916.686 306.027 918.211 305.477 919.807 305.477C920.481 305.477 921.049 305.53 921.51 305.637C922.007 305.708 922.468 305.867 922.893 306.116L921.989 310.319C921.492 310.177 921.049 310.071 920.659 310C920.269 309.893 919.772 309.84 919.169 309.84C917.998 309.84 916.739 310.354 915.391 311.383C914.043 312.376 912.89 314.097 911.933 316.544V335.114H907.038ZM934.272 335.805C932.25 335.805 930.282 335.433 928.366 334.688C926.486 333.907 924.872 332.95 923.524 331.815L925.866 328.569C927.143 329.598 928.455 330.431 929.803 331.07C931.151 331.708 932.694 332.028 934.432 332.028C936.347 332.028 937.766 331.602 938.688 330.751C939.646 329.864 940.125 328.782 940.125 327.505C940.125 326.512 939.788 325.696 939.114 325.057C938.476 324.383 937.642 323.816 936.613 323.355C935.62 322.858 934.592 322.415 933.527 322.025C932.179 321.493 930.849 320.907 929.537 320.269C928.26 319.595 927.196 318.743 926.344 317.715C925.529 316.651 925.121 315.303 925.121 313.671C925.121 312.11 925.511 310.727 926.291 309.521C927.072 308.279 928.207 307.304 929.696 306.595C931.186 305.85 932.978 305.477 935.07 305.477C936.844 305.477 938.493 305.796 940.019 306.435C941.579 307.073 942.91 307.854 944.009 308.776L941.668 311.809C940.675 311.099 939.646 310.496 938.582 310C937.553 309.503 936.401 309.255 935.124 309.255C933.279 309.255 931.913 309.681 931.027 310.532C930.175 311.348 929.75 312.323 929.75 313.458C929.75 314.345 930.033 315.09 930.601 315.693C931.204 316.296 931.984 316.81 932.942 317.236C933.9 317.626 934.911 318.034 935.975 318.46C937.039 318.85 938.085 319.276 939.114 319.737C940.178 320.198 941.118 320.748 941.934 321.386C942.785 322.025 943.459 322.823 943.956 323.78C944.488 324.703 944.754 325.855 944.754 327.239C944.754 328.8 944.346 330.236 943.53 331.549C942.75 332.861 941.579 333.907 940.019 334.688C938.493 335.433 936.578 335.805 934.272 335.805ZM964.835 335.805C963.877 335.805 963.043 335.468 962.334 334.794C961.66 334.085 961.323 333.198 961.323 332.134C961.323 330.999 961.66 330.094 962.334 329.42C963.043 328.746 963.877 328.409 964.835 328.409C965.792 328.409 966.608 328.746 967.282 329.42C967.992 330.094 968.346 330.999 968.346 332.134C968.346 333.198 967.992 334.085 967.282 334.794C966.608 335.468 965.792 335.805 964.835 335.805ZM979.058 335.805C978.1 335.805 977.267 335.468 976.557 334.794C975.883 334.085 975.546 333.198 975.546 332.134C975.546 330.999 975.883 330.094 976.557 329.42C977.267 328.746 978.1 328.409 979.058 328.409C980.016 328.409 980.832 328.746 981.506 329.42C982.215 330.094 982.57 330.999 982.57 332.134C982.57 333.198 982.215 334.085 981.506 334.794C980.832 335.468 980.016 335.805 979.058 335.805ZM993.281 335.805C992.324 335.805 991.49 335.468 990.781 334.794C990.107 334.085 989.77 333.198 989.77 332.134C989.77 330.999 990.107 330.094 990.781 329.42C991.49 328.746 992.324 328.409 993.281 328.409C994.239 328.409 995.055 328.746 995.729 329.42C996.438 330.094 996.793 330.999 996.793 332.134C996.793 333.198 996.438 334.085 995.729 334.794C995.055 335.468 994.239 335.805 993.281 335.805Z" fill="#1E1E1E"/>
<path d="M541.715 560.48C541.467 558.636 541.574 556.986 542.035 555.532C542.531 554.078 543.205 552.765 544.057 551.595C544.908 550.424 545.777 549.307 546.664 548.242C547.586 547.178 548.349 546.114 548.952 545.05C549.59 543.95 549.909 542.762 549.909 541.485C549.909 540.421 549.697 539.463 549.271 538.612C548.845 537.725 548.207 537.034 547.355 536.537C546.504 536.005 545.44 535.739 544.163 535.739C542.851 535.739 541.609 536.04 540.439 536.643C539.268 537.211 538.222 538.044 537.299 539.144L534.533 536.59C535.774 535.171 537.246 534.001 538.949 533.078C540.651 532.156 542.567 531.695 544.695 531.695C546.717 531.695 548.473 532.085 549.963 532.866C551.452 533.611 552.605 534.692 553.421 536.111C554.237 537.53 554.645 539.215 554.645 541.166C554.645 542.762 554.326 544.181 553.687 545.423C553.049 546.664 552.268 547.835 551.346 548.934C550.424 550.034 549.519 551.169 548.632 552.339C547.746 553.475 547.036 554.698 546.504 556.011C545.972 557.288 545.812 558.777 546.025 560.48H541.715ZM544.003 572.931C543.046 572.931 542.23 572.594 541.556 571.92C540.882 571.21 540.545 570.323 540.545 569.259C540.545 568.124 540.882 567.22 541.556 566.546C542.23 565.872 543.046 565.535 544.003 565.535C544.997 565.535 545.83 565.872 546.504 566.546C547.214 567.22 547.568 568.124 547.568 569.259C547.568 570.323 547.214 571.21 546.504 571.92C545.83 572.594 544.997 572.931 544.003 572.931Z" fill="#1E1E1E"/>
</g>
<defs>
<clipPath id="clip0_2_852">
<rect width="1600" height="900" fill="white"/>
</clipPath>
</defs>
</svg>
