<svg width="1600" height="900" viewBox="0 0 1600 900" fill="none" xmlns="http://www.w3.org/2000/svg">
<g clip-path="url(#clip0_2_893)">
<rect width="1600" height="900" fill="white"/>
<path d="M403.289 608.428C403.289 611.361 402.016 611.892 399.014 611.225C390.656 609.368 384.584 596.024 382.492 589.003C379.631 579.397 376.188 565.546 381.648 556.382C387.847 545.975 404.965 539.256 416.063 536.429C428.701 533.21 441.236 532.783 451.693 541.497C458.853 547.463 465.832 560.316 464.995 569.948C464.383 576.983 461.36 583.15 458.397 589.425C456.729 592.956 456.19 599.079 452.696 600.827" stroke="#1E1E1E" stroke-width="7.60101" stroke-linecap="round" stroke-linejoin="round"/>
<path d="M358.634 678.737C354.899 682.472 357.61 666.447 358.211 663.957C360.544 654.294 366.817 644.211 372.886 636.456C378.861 628.821 385.382 623.266 392.838 617.19C402.255 609.517 413.368 607.165 424.931 604.627C436.058 602.185 449.87 599.36 461.195 602.357C473.023 605.488 481.666 616.112 485.898 626.955C489.988 637.436 490.44 649.62 491.863 660.685C492.391 664.795 496.519 671.819 491.651 673.036" stroke="#1E1E1E" stroke-width="7.60101" stroke-linecap="round" stroke-linejoin="round"/>
<path d="M335.83 690.139C335.83 680.205 339.757 709.678 340.37 719.592C341.277 734.272 340.299 749.353 342.059 763.932C342.565 768.126 345.519 773.844 339.631 770.899" stroke="#1E1E1E" stroke-width="7.60101" stroke-linecap="round" stroke-linejoin="round"/>
<path d="M341.531 685.388C342.712 684.206 344.451 683.362 345.859 682.537C356.487 676.316 371.906 676.092 383.811 674.409C423.337 668.821 463.924 663.292 503.844 667.863C512.505 668.855 521.043 670.662 529.761 671.136C533.212 671.323 541.286 671.636 542.007 676.203C543.488 685.58 540.484 697.464 539.896 706.818C539.026 720.673 538.141 734.333 540.107 748.096" stroke="#1E1E1E" stroke-width="7.60101" stroke-linecap="round" stroke-linejoin="round"/>
<path d="M541.057 749.997C542.287 753.072 542.007 755.364 542.007 758.548" stroke="#1E1E1E" stroke-width="7.60101" stroke-linecap="round" stroke-linejoin="round"/>
<path d="M308.276 775.65C307.272 775.65 305.471 776.552 304.634 777.075C303.979 777.485 311.503 779.336 312.077 779.45" stroke="#1E1E1E" stroke-width="7.60101" stroke-linecap="round" stroke-linejoin="round"/>
<path d="M312.077 779.451C380.921 779.451 449.392 770.456 517.938 765.674C547.797 763.591 577.427 762.348 607.355 762.348C608.991 762.348 629.35 760.494 623.718 764.249" stroke="#1E1E1E" stroke-width="7.60101" stroke-linecap="round" stroke-linejoin="round"/>
<path d="M297.825 775.65C292.916 775.65 292.959 775.259 289.063 778.289C288.438 778.775 279.051 776.905 277.873 776.811C273.706 776.48 266.253 776.182 262.671 778.711C260.419 780.301 260.243 785.114 259.82 787.474C258.692 793.766 257.008 799.951 256.02 806.265C255.533 809.375 252.432 823.379 256.02 825.268C260.382 827.563 268.387 826.006 273.122 826.006C292.035 826.006 310.723 825.365 329.602 824.106C362.118 821.938 394.716 821.642 427.254 819.883C464.818 817.853 502.325 814.754 539.896 812.705C574.112 810.838 608.599 808.151 642.721 812.494C646.368 812.958 653.825 811.096 656.762 808.693C660.142 805.928 657.046 795.28 656.762 791.591C656.06 782.472 655.157 774.277 653.384 765.41C652.64 761.693 654.342 757.525 650.322 762.348" stroke="#1E1E1E" stroke-width="7.60101" stroke-linecap="round" stroke-linejoin="round"/>
<path d="M619.918 765.199C625.517 765.199 631.427 764.248 637.231 764.248C641.38 764.248 654.123 761.528 654.123 767.099" stroke="#1E1E1E" stroke-width="7.60101" stroke-linecap="round" stroke-linejoin="round"/>
<path d="M588.564 809.854C593.984 809.854 593.314 864.13 593.314 872.563" stroke="#1E1E1E" stroke-width="7.60101" stroke-linecap="round" stroke-linejoin="round"/>
<path d="M288.324 768.999C288.324 765.757 286.813 763.445 287.902 759.867C289.344 755.128 293.055 745.92 298.987 746.196C307.424 746.588 310.579 754.19 313.977 760.501C316.055 764.359 318.728 769.296 318.728 773.75" stroke="#1E1E1E" stroke-width="7.60101" stroke-linecap="round" stroke-linejoin="round"/>
<path d="M593.315 706.29C593.315 702.955 592.514 707.702 592.417 708.719C591.928 713.854 593.8 719.614 594.212 724.765C594.775 731.801 596.384 738.23 599.754 744.296C606.009 755.554 623.932 754.221 629.419 742.923C632.703 736.162 633.78 728.701 635.595 721.44C636.513 717.77 637.749 712.915 637.971 709.141C638.218 704.929 639.95 705.438 635.859 704.179C627.959 701.748 619.316 704.72 611.367 705.288C607.285 705.579 603.108 705.34 599.015 705.34C596.938 705.34 592.347 705.344 597.115 704.39" stroke="#1E1E1E" stroke-width="7.60101" stroke-linecap="round" stroke-linejoin="round"/>
<path d="M310.177 825.057C303.411 825.057 307 861.445 305.479 868.287C304.338 873.42 303.646 897.801 308.277 900.117" stroke="#1E1E1E" stroke-width="7.60101" stroke-linecap="round" stroke-linejoin="round"/>
<path d="M423.242 723.393C423.242 720.841 418.671 724.164 418.017 724.818C415.936 726.898 414.451 730 413.741 732.841C411.963 739.952 410.162 746.006 411.788 753.322C413.229 759.809 418.893 763.13 424.931 764.987C432.634 767.357 440.06 764.358 447.207 761.609C457.576 757.621 460.412 744.859 459.294 734.795C458.735 729.757 456.585 724.879 452.696 721.546C450.88 719.989 446.304 716.529 444.092 715.792C441.085 714.79 438.76 713.892 435.594 713.892C433.189 713.892 427.264 714.16 425.142 715.053C422.243 716.274 418.492 724.725 418.492 728.144" stroke="#1E1E1E" stroke-width="7.60101" stroke-linecap="round" stroke-linejoin="round"/>
<path d="M428.943 729.094C424.796 733.24 431.314 739.828 434.643 741.445C438.327 743.235 441.662 741.921 445.042 740.02C449.132 737.72 450.618 735.745 445.095 735.745" stroke="#1E1E1E" stroke-width="7.60101" stroke-linecap="round" stroke-linejoin="round"/>
<path d="M438.444 727.193C434.905 727.193 442.211 715.752 445.623 714.842C450.323 713.588 454.405 712.942 459.294 712.942C461.273 712.942 464.071 714.801 462.197 711.991" stroke="#1E1E1E" stroke-width="7.60101" stroke-linecap="round" stroke-linejoin="round"/>
<path d="M1104.96 608.773C1104.96 611.706 1103.69 612.238 1100.68 611.571C1092.33 609.713 1086.25 596.37 1084.16 589.348C1081.3 579.743 1077.86 565.891 1083.32 556.727C1089.52 546.32 1106.64 539.601 1117.73 536.774C1130.37 533.555 1142.91 533.128 1153.36 541.842C1160.52 547.808 1167.5 560.661 1166.67 570.293C1166.05 577.328 1163.03 583.496 1160.07 589.77C1158.4 593.301 1157.86 599.425 1154.37 601.172" stroke="#1E1E1E" stroke-width="7.60101" stroke-linecap="round" stroke-linejoin="round"/>
<path d="M1060.3 679.082C1056.57 682.817 1059.28 666.792 1059.88 664.302C1062.21 654.639 1068.49 644.556 1074.56 636.802C1080.53 629.166 1087.05 623.611 1094.51 617.535C1103.92 609.862 1115.04 607.511 1126.6 604.972C1137.73 602.53 1151.54 599.705 1162.86 602.703C1174.69 605.834 1183.34 616.457 1187.57 627.3C1191.66 637.781 1192.11 649.965 1193.53 661.03C1194.06 665.14 1198.19 672.164 1193.32 673.381" stroke="#1E1E1E" stroke-width="7.60101" stroke-linecap="round" stroke-linejoin="round"/>
<path d="M1037.5 690.484C1037.5 680.55 1041.43 710.023 1042.04 719.938C1042.95 734.617 1041.97 749.699 1043.73 764.277C1044.24 768.471 1047.19 774.189 1041.3 771.245" stroke="#1E1E1E" stroke-width="7.60101" stroke-linecap="round" stroke-linejoin="round"/>
<path d="M1043.2 685.733C1044.38 684.552 1046.12 683.707 1047.53 682.883C1058.16 676.662 1073.58 676.437 1085.48 674.754C1125.01 669.167 1165.6 663.638 1205.52 668.209C1214.18 669.2 1222.71 671.007 1231.43 671.481C1234.88 671.669 1242.96 671.982 1243.68 676.549C1245.16 685.926 1242.16 697.81 1241.57 707.164C1240.7 721.019 1239.81 734.678 1241.78 748.442" stroke="#1E1E1E" stroke-width="7.60101" stroke-linecap="round" stroke-linejoin="round"/>
<path d="M1242.73 750.342C1243.96 753.417 1243.68 755.709 1243.68 758.893" stroke="#1E1E1E" stroke-width="7.60101" stroke-linecap="round" stroke-linejoin="round"/>
<path d="M1009.95 775.995C1008.94 775.995 1007.14 776.897 1006.31 777.42C1005.65 777.83 1013.17 779.681 1013.75 779.796" stroke="#1E1E1E" stroke-width="7.60101" stroke-linecap="round" stroke-linejoin="round"/>
<path d="M1013.75 779.796C1082.59 779.796 1151.06 770.801 1219.61 766.019C1249.47 763.936 1279.1 762.693 1309.03 762.693C1310.66 762.693 1331.02 760.839 1325.39 764.594" stroke="#1E1E1E" stroke-width="7.60101" stroke-linecap="round" stroke-linejoin="round"/>
<path d="M999.496 775.995C994.587 775.995 994.629 775.605 990.734 778.634C990.109 779.121 980.722 777.25 979.544 777.157C975.376 776.825 967.924 776.528 964.341 779.057C962.09 780.646 961.914 785.46 961.491 787.819C960.363 794.111 958.679 800.296 957.691 806.61C957.204 809.721 954.103 823.725 957.691 825.613C962.053 827.909 970.058 826.352 974.793 826.352C993.706 826.352 1012.39 825.71 1031.27 824.452C1063.79 822.284 1096.39 821.988 1128.92 820.229C1166.49 818.198 1204 815.1 1241.57 813.05C1275.78 811.184 1310.27 808.496 1344.39 812.839C1348.04 813.303 1355.5 811.442 1358.43 809.039C1361.81 806.273 1358.72 795.625 1358.43 791.936C1357.73 782.817 1356.83 774.622 1355.05 765.755C1354.31 762.038 1356.01 757.87 1351.99 762.693" stroke="#1E1E1E" stroke-width="7.60101" stroke-linecap="round" stroke-linejoin="round"/>
<path d="M1321.59 765.544C1327.19 765.544 1333.1 764.594 1338.9 764.594C1343.05 764.594 1355.79 761.873 1355.79 767.444" stroke="#1E1E1E" stroke-width="7.60101" stroke-linecap="round" stroke-linejoin="round"/>
<path d="M1290.24 810.2C1295.66 810.2 1294.99 864.476 1294.99 872.908" stroke="#1E1E1E" stroke-width="7.60101" stroke-linecap="round" stroke-linejoin="round"/>
<path d="M989.995 769.344C989.995 766.102 988.483 763.79 989.572 760.212C991.015 755.473 994.726 746.265 1000.66 746.541C1009.09 746.934 1012.25 754.535 1015.65 760.846C1017.73 764.704 1020.4 769.641 1020.4 774.095" stroke="#1E1E1E" stroke-width="7.60101" stroke-linecap="round" stroke-linejoin="round"/>
<path d="M1294.99 706.636C1294.99 703.3 1294.18 708.048 1294.09 709.064C1293.6 714.199 1295.47 719.959 1295.88 725.111C1296.45 732.146 1298.06 738.575 1301.43 744.641C1307.68 755.899 1325.6 754.567 1331.09 743.269C1334.37 736.508 1335.45 729.047 1337.27 721.785C1338.18 718.116 1339.42 713.261 1339.64 709.486C1339.89 705.275 1341.62 705.783 1337.53 704.525C1329.63 702.094 1320.99 705.065 1313.04 705.633C1308.96 705.925 1304.78 705.686 1300.69 705.686C1298.61 705.686 1294.02 705.689 1298.79 704.736" stroke="#1E1E1E" stroke-width="7.60101" stroke-linecap="round" stroke-linejoin="round"/>
<path d="M1011.85 825.402C1005.08 825.402 1008.67 861.79 1007.15 868.632C1006.01 873.765 1005.32 898.146 1009.95 900.462" stroke="#1E1E1E" stroke-width="7.60101" stroke-linecap="round" stroke-linejoin="round"/>
<path d="M1124.91 723.738C1124.91 721.186 1120.34 724.509 1119.69 725.163C1117.61 727.243 1116.12 730.345 1115.41 733.187C1113.63 740.297 1111.83 746.351 1113.46 753.667C1114.9 760.154 1120.56 763.475 1126.6 765.333C1134.3 767.702 1141.73 764.703 1148.88 761.954C1159.25 757.966 1162.08 745.204 1160.96 735.14C1160.41 730.102 1158.26 725.224 1154.37 721.891C1152.55 720.334 1147.97 716.874 1145.76 716.137C1142.76 715.135 1140.43 714.237 1137.26 714.237C1134.86 714.237 1128.93 714.505 1126.81 715.398C1123.91 716.619 1120.16 725.07 1120.16 728.489" stroke="#1E1E1E" stroke-width="7.60101" stroke-linecap="round" stroke-linejoin="round"/>
<path d="M1130.61 729.439C1126.47 733.585 1132.99 740.173 1136.31 741.791C1140 743.58 1143.33 742.267 1146.71 740.365C1150.8 738.065 1152.29 736.09 1146.77 736.09" stroke="#1E1E1E" stroke-width="7.60101" stroke-linecap="round" stroke-linejoin="round"/>
<path d="M1140.11 727.539C1136.58 727.539 1143.88 716.097 1147.29 715.187C1151.99 713.934 1156.08 713.287 1160.96 713.287C1162.94 713.287 1165.74 715.146 1163.87 712.337" stroke="#1E1E1E" stroke-width="7.60101" stroke-linecap="round" stroke-linejoin="round"/>
<path d="M1278.53 88.7781C1278.53 88.0551 1279.86 86.3976 1280.43 87.4057C1282.77 91.4859 1282.33 96.7492 1282.33 101.235C1282.33 124.066 1280.6 147.169 1277.37 169.75C1274.64 188.845 1274.3 207.456 1273.2 226.652C1272.02 247.466 1268.94 268.605 1265.44 289.149C1261.3 313.429 1251.29 343.341 1231.03 358.825C1206.09 377.883 1177.38 386.933 1148.15 397.358C1131.75 403.211 1113.69 404.442 1096.43 405.593C1086.75 406.238 1077.08 406.028 1067.39 406.12C1056.05 406.229 1044.92 408.202 1033.61 408.76C988.606 410.98 943.94 417.011 899.011 420.372C872.864 422.328 847.298 424.173 821.047 424.173C792.876 424.173 764.835 422.156 736.697 421.322C692.267 420.006 647.792 422.603 603.521 426.548C572.141 429.344 540.319 432.695 508.825 433.621C483.933 434.353 458.338 433.786 433.607 437.052C418.075 439.104 405.727 442.951 393.068 452.202C388.828 455.3 386.111 458.665 384.253 463.55C381.452 470.916 377.075 478.672 375.913 486.512C375.144 491.702 371.387 495.193 370.001 500.183C369.728 501.167 366.412 508.114 366.412 504.458C366.412 497.925 359.686 495.352 355.855 490.998C350.114 484.474 342.628 480.278 336.008 474.741C330.409 470.058 324.64 465.512 318.905 461.017C296.919 443.784 277.461 417.98 269.71 391.13C265.822 377.66 257.916 364.873 250.707 352.913C239.386 334.13 239.914 307.428 240.045 286.404C240.147 270.134 243.557 253.764 245.271 237.578C246.842 222.738 248.566 207.764 251.235 193.081C254.876 173.058 259.32 152.908 259.048 132.484C258.832 116.302 255.545 100.143 255.247 84.0275C255.025 72.0577 264.828 64.4045 275.358 61.6467C286.435 58.7457 297.669 56.7082 308.876 54.3624C324.324 51.1291 340.266 51.0586 355.908 48.9256C375.604 46.2397 395.685 46.5648 415.396 48.6617C441.622 51.4517 467.939 51.9811 494.257 53.2012C605.189 58.3437 716.368 50.5842 827.276 56.0515C855.15 57.4256 882.961 56.7272 910.834 57.6351C943.653 58.7041 976.352 61.4145 1009.23 62.1746C1062.35 63.403 1115.26 65.9751 1168.42 65.9751C1190.52 65.9751 1211.92 66.9723 1233.77 70.2506C1243.59 71.7235 1253.64 72.5902 1263.54 73.365C1269.1 73.7996 1274.49 73.3448 1280.01 72.8371C1280.96 72.7497 1287.75 72.626 1283.28 72.626" stroke="#1E1E1E" stroke-width="7.60101" stroke-linecap="round" stroke-linejoin="round"/>
<path d="M371.231 265.069C369.863 265.069 368.672 264.588 367.659 263.625C366.696 262.611 366.215 261.345 366.215 259.824C366.215 258.203 366.696 256.911 367.659 255.948C368.672 254.985 369.863 254.504 371.231 254.504C372.6 254.504 373.765 254.985 374.728 255.948C375.741 256.911 376.248 258.203 376.248 259.824C376.248 261.345 375.741 262.611 374.728 263.625C373.765 264.588 372.6 265.069 371.231 265.069ZM391.55 265.069C390.182 265.069 388.991 264.588 387.978 263.625C387.015 262.611 386.534 261.345 386.534 259.824C386.534 258.203 387.015 256.911 387.978 255.948C388.991 254.985 390.182 254.504 391.55 254.504C392.919 254.504 394.084 254.985 395.047 255.948C396.06 256.911 396.567 258.203 396.567 259.824C396.567 261.345 396.06 262.611 395.047 263.625C394.084 264.588 392.919 265.069 391.55 265.069ZM411.87 265.069C410.501 265.069 409.311 264.588 408.297 263.625C407.334 262.611 406.853 261.345 406.853 259.824C406.853 258.203 407.334 256.911 408.297 255.948C409.311 254.985 410.501 254.504 411.87 254.504C413.238 254.504 414.403 254.985 415.366 255.948C416.379 256.911 416.886 258.203 416.886 259.824C416.886 261.345 416.379 262.611 415.366 263.625C414.403 264.588 413.238 265.069 411.87 265.069ZM493.729 201.221H499.81V270.01H493.729V201.221ZM482.251 229.192H495.477V234.437H482.251V229.192ZM478.147 202.741H484.076V266.437H478.147V202.741ZM444.93 209.506H451.239V249.183H444.93V209.506ZM444.93 246.675H449.263C452.861 246.675 456.636 246.548 460.588 246.295C464.541 245.991 468.747 245.382 473.206 244.47L473.966 250.019C469.304 250.931 464.946 251.539 460.892 251.843C456.839 252.097 452.962 252.223 449.263 252.223H444.93V246.675ZM576.774 201.221H583.083V270.086H576.774V201.221ZM546.826 206.541C550.221 206.541 553.211 207.529 555.795 209.506C558.43 211.431 560.483 214.193 561.952 217.791C563.472 221.389 564.232 225.62 564.232 230.484C564.232 235.349 563.472 239.58 561.952 243.178C560.483 246.776 558.43 249.563 555.795 251.539C553.211 253.516 550.221 254.504 546.826 254.504C543.431 254.504 540.416 253.516 537.781 251.539C535.146 249.563 533.068 246.776 531.548 243.178C530.079 239.58 529.344 235.349 529.344 230.484C529.344 225.62 530.079 221.389 531.548 217.791C533.068 214.193 535.146 211.431 537.781 209.506C540.416 207.529 543.431 206.541 546.826 206.541ZM546.826 212.166C544.546 212.166 542.544 212.926 540.821 214.446C539.149 215.916 537.832 218.044 536.869 220.831C535.906 223.568 535.425 226.785 535.425 230.484C535.425 234.184 535.906 237.427 536.869 240.214C537.832 242.95 539.149 245.078 540.821 246.599C542.544 248.119 544.546 248.879 546.826 248.879C549.056 248.879 551.007 248.119 552.679 246.599C554.402 245.078 555.745 242.95 556.707 240.214C557.67 237.427 558.152 234.184 558.152 230.484C558.152 226.785 557.67 223.568 556.707 220.831C555.745 218.044 554.402 215.916 552.679 214.446C551.007 212.926 549.056 212.166 546.826 212.166ZM595.847 236.717H658.175V241.81H595.847V236.717ZM603.752 202.893H650.194V219.235H610.137V228.28H603.904V214.522H643.961V207.909H603.752V202.893ZM603.904 225.924H651.638V230.865H603.904V225.924ZM604.284 248.043H650.27V269.098H604.284V248.043ZM644.037 253.135H610.441V263.929H644.037V253.135ZM672.915 233.373H720.117V238.466H672.915V233.373ZM665.01 256.1H727.338V261.345H665.01V256.1ZM692.906 235.577H699.138V258.152H692.906V235.577ZM672.915 206.693H719.433V211.938H679.224V235.653H672.915V206.693ZM754.136 264.081V208.366H770.022C774.177 208.366 777.826 208.898 780.968 209.962C784.109 210.975 786.542 212.673 788.264 215.054C789.987 217.436 790.849 220.654 790.849 224.708C790.849 228.61 789.987 231.827 788.264 234.361C786.542 236.895 784.135 238.795 781.044 240.062C777.952 241.278 774.38 241.886 770.326 241.886H761.129V264.081H754.136ZM761.129 236.185H769.414C774.279 236.185 777.902 235.273 780.283 233.449C782.665 231.625 783.856 228.711 783.856 224.708C783.856 220.654 782.614 217.867 780.131 216.347C777.699 214.826 774.025 214.066 769.11 214.066H761.129V236.185ZM815.137 265.069C811.438 265.069 808.093 264.208 805.104 262.485C802.114 260.762 799.732 258.304 797.959 255.112C796.236 251.869 795.374 247.992 795.374 243.482C795.374 240.087 795.881 237.072 796.895 234.437C797.908 231.751 799.276 229.471 800.999 227.596C802.773 225.67 804.774 224.226 807.004 223.263C809.234 222.25 811.514 221.743 813.845 221.743C817.392 221.743 820.382 222.529 822.814 224.1C825.246 225.67 827.096 227.925 828.363 230.865C829.68 233.753 830.339 237.173 830.339 241.126C830.339 241.886 830.314 242.595 830.263 243.254C830.212 243.913 830.136 244.521 830.035 245.078H802.215C802.367 248.017 803.026 250.576 804.192 252.755C805.408 254.884 807.004 256.556 808.98 257.772C810.956 258.938 813.262 259.52 815.897 259.52C817.924 259.52 819.748 259.242 821.37 258.684C823.042 258.076 824.664 257.265 826.235 256.252L828.667 260.889C826.893 262.054 824.892 263.042 822.662 263.853C820.432 264.664 817.924 265.069 815.137 265.069ZM802.139 240.138H824.258C824.258 235.983 823.346 232.815 821.522 230.636C819.748 228.407 817.24 227.292 813.997 227.292C812.071 227.292 810.247 227.799 808.524 228.812C806.852 229.826 805.433 231.27 804.268 233.145C803.153 235.02 802.443 237.351 802.139 240.138ZM851.549 265.069C848.66 265.069 846.355 264.512 844.632 263.397C842.909 262.231 841.668 260.61 840.907 258.532C840.198 256.455 839.843 254.048 839.843 251.311V228.432H833.686V223.187L840.223 222.807L840.983 211.178H846.76V222.807H858.01V228.432H846.76V251.539C846.76 254.022 847.216 255.973 848.128 257.392C849.091 258.76 850.763 259.444 853.145 259.444C853.905 259.444 854.716 259.343 855.577 259.14C856.439 258.887 857.199 258.608 857.858 258.304L859.226 263.549C858.06 263.954 856.819 264.309 855.501 264.613C854.184 264.917 852.866 265.069 851.549 265.069ZM881.829 265.069C878.13 265.069 874.786 264.208 871.796 262.485C868.806 260.762 866.425 258.304 864.651 255.112C862.928 251.869 862.067 247.992 862.067 243.482C862.067 240.087 862.573 237.072 863.587 234.437C864.6 231.751 865.969 229.471 867.692 227.596C869.465 225.67 871.467 224.226 873.696 223.263C875.926 222.25 878.206 221.743 880.537 221.743C884.084 221.743 887.074 222.529 889.506 224.1C891.939 225.67 893.788 227.925 895.055 230.865C896.373 233.753 897.031 237.173 897.031 241.126C897.031 241.886 897.006 242.595 896.955 243.254C896.905 243.913 896.829 244.521 896.727 245.078H868.908C869.06 248.017 869.718 250.576 870.884 252.755C872.1 254.884 873.696 256.556 875.673 257.772C877.649 258.938 879.954 259.52 882.589 259.52C884.616 259.52 886.441 259.242 888.062 258.684C889.734 258.076 891.356 257.265 892.927 256.252L895.359 260.889C893.586 262.054 891.584 263.042 889.354 263.853C887.125 264.664 884.616 265.069 881.829 265.069ZM868.832 240.138H890.951C890.951 235.983 890.038 232.815 888.214 230.636C886.441 228.407 883.932 227.292 880.689 227.292C878.764 227.292 876.939 227.799 875.217 228.812C873.544 229.826 872.125 231.27 870.96 233.145C869.845 235.02 869.136 237.351 868.832 240.138ZM906.359 264.081V222.807H912.059L912.744 230.332H912.896C914.314 227.697 916.037 225.62 918.064 224.1C920.142 222.529 922.321 221.743 924.601 221.743C925.564 221.743 926.375 221.819 927.033 221.971C927.743 222.073 928.402 222.301 929.01 222.655L927.717 228.66C927.008 228.458 926.375 228.306 925.817 228.204C925.26 228.052 924.55 227.976 923.689 227.976C922.017 227.976 920.218 228.711 918.292 230.18C916.367 231.599 914.72 234.057 913.352 237.553V264.081H906.359ZM981.814 201.297H988.122V251.463H981.814V201.297ZM943.961 263.321H990.251V268.49H943.961V263.321ZM943.961 246.371H950.269V265.069H943.961V246.371ZM951.258 206.085C954.703 206.085 957.769 206.795 960.455 208.213C963.14 209.632 965.269 211.634 966.84 214.218C968.41 216.752 969.196 219.666 969.196 222.959C969.196 226.253 968.41 229.192 966.84 231.777C965.269 234.31 963.14 236.312 960.455 237.781C957.769 239.2 954.703 239.91 951.258 239.91C947.862 239.91 944.797 239.2 942.06 237.781C939.375 236.312 937.246 234.31 935.675 231.777C934.105 229.192 933.319 226.253 933.319 222.959C933.319 219.666 934.105 216.752 935.675 214.218C937.246 211.634 939.375 209.632 942.06 208.213C944.797 206.795 947.862 206.085 951.258 206.085ZM951.258 211.558C949.028 211.558 947.026 212.039 945.253 213.002C943.479 213.965 942.06 215.308 940.996 217.031C939.983 218.754 939.476 220.73 939.476 222.959C939.476 225.24 939.983 227.241 940.996 228.964C942.06 230.636 943.479 231.954 945.253 232.917C947.026 233.88 949.028 234.361 951.258 234.361C953.487 234.361 955.489 233.88 957.262 232.917C959.087 231.954 960.505 230.636 961.519 228.964C962.532 227.241 963.039 225.24 963.039 222.959C963.039 220.73 962.532 218.754 961.519 217.031C960.505 215.308 959.087 213.965 957.262 213.002C955.489 212.039 953.487 211.558 951.258 211.558ZM1053.18 201.221H1059.26V270.01H1053.18V201.221ZM1024.6 227.444H1041.93V232.689H1024.6V227.444ZM1039.35 202.817H1045.28V266.437H1039.35V202.817ZM1003.47 248.195H1007.88C1011.43 248.195 1014.57 248.144 1017.3 248.043C1020.09 247.941 1022.7 247.739 1025.13 247.435C1027.62 247.131 1030.12 246.725 1032.66 246.219L1033.27 251.463C1030.68 252.021 1028.12 252.451 1025.59 252.755C1023.06 253.009 1020.37 253.186 1017.53 253.287C1014.75 253.389 1011.53 253.44 1007.88 253.44H1003.47V248.195ZM1003.47 209.658H1029.24V214.826H1009.63V250.247H1003.47V209.658ZM1079.7 247.283C1079.35 244.648 1079.5 242.291 1080.16 240.214C1080.87 238.136 1081.83 236.261 1083.05 234.589C1084.26 232.917 1085.5 231.321 1086.77 229.8C1088.09 228.28 1089.18 226.76 1090.04 225.24C1090.95 223.669 1091.41 221.971 1091.41 220.147C1091.41 218.627 1091.1 217.259 1090.5 216.043C1089.89 214.776 1088.98 213.788 1087.76 213.078C1086.54 212.318 1085.02 211.938 1083.2 211.938C1081.32 211.938 1079.55 212.369 1077.88 213.23C1076.21 214.041 1074.71 215.232 1073.39 216.803L1069.44 213.154C1071.21 211.127 1073.32 209.455 1075.75 208.137C1078.18 206.82 1080.92 206.161 1083.96 206.161C1086.85 206.161 1089.36 206.719 1091.48 207.833C1093.61 208.898 1095.26 210.443 1096.42 212.47C1097.59 214.497 1098.17 216.904 1098.17 219.691C1098.17 221.971 1097.72 223.998 1096.8 225.772C1095.89 227.545 1094.78 229.218 1093.46 230.788C1092.14 232.359 1090.85 233.981 1089.58 235.653C1088.32 237.275 1087.3 239.023 1086.54 240.898C1085.78 242.722 1085.56 244.85 1085.86 247.283H1079.7ZM1082.97 265.069C1081.6 265.069 1080.44 264.588 1079.47 263.625C1078.51 262.611 1078.03 261.345 1078.03 259.824C1078.03 258.203 1078.51 256.911 1079.47 255.948C1080.44 254.985 1081.6 254.504 1082.97 254.504C1084.39 254.504 1085.58 254.985 1086.54 255.948C1087.56 256.911 1088.06 258.203 1088.06 259.824C1088.06 261.345 1087.56 262.611 1086.54 263.625C1085.58 264.588 1084.39 265.069 1082.97 265.069Z" fill="#1E1E1E"/>
<path d="M1283.98 572.958C1283.03 572.958 1282.19 572.621 1281.48 571.947C1280.81 571.238 1280.47 570.351 1280.47 569.287C1280.47 568.152 1280.81 567.247 1281.48 566.573C1282.19 565.899 1283.03 565.563 1283.98 565.563C1284.94 565.563 1285.76 565.899 1286.43 566.573C1287.14 567.247 1287.5 568.152 1287.5 569.287C1287.5 570.351 1287.14 571.238 1286.43 571.947C1285.76 572.621 1284.94 572.958 1283.98 572.958ZM1298.21 572.958C1297.25 572.958 1296.42 572.621 1295.71 571.947C1295.03 571.238 1294.7 570.351 1294.7 569.287C1294.7 568.152 1295.03 567.247 1295.71 566.573C1296.42 565.899 1297.25 565.563 1298.21 565.563C1299.16 565.563 1299.98 565.899 1300.65 566.573C1301.36 567.247 1301.72 568.152 1301.72 569.287C1301.72 570.351 1301.36 571.238 1300.65 571.947C1299.98 572.621 1299.16 572.958 1298.21 572.958ZM1312.43 572.958C1311.47 572.958 1310.64 572.621 1309.93 571.947C1309.26 571.238 1308.92 570.351 1308.92 569.287C1308.92 568.152 1309.26 567.247 1309.93 566.573C1310.64 565.899 1311.47 565.563 1312.43 565.563C1313.39 565.563 1314.2 565.899 1314.88 566.573C1315.59 567.247 1315.94 568.152 1315.94 569.287C1315.94 570.351 1315.59 571.238 1314.88 571.947C1314.2 572.621 1313.39 572.958 1312.43 572.958ZM1328.73 560.508C1328.48 558.663 1328.59 557.014 1329.05 555.56C1329.54 554.105 1330.22 552.793 1331.07 551.622C1331.92 550.452 1332.79 549.334 1333.68 548.27C1334.6 547.206 1335.36 546.142 1335.97 545.078C1336.6 543.978 1336.92 542.79 1336.92 541.513C1336.92 540.449 1336.71 539.491 1336.28 538.64C1335.86 537.753 1335.22 537.061 1334.37 536.565C1333.52 536.033 1332.45 535.767 1331.18 535.767C1329.86 535.767 1328.62 536.068 1327.45 536.671C1326.28 537.239 1325.24 538.072 1324.31 539.172L1321.55 536.618C1322.79 535.199 1324.26 534.028 1325.96 533.106C1327.66 532.184 1329.58 531.723 1331.71 531.723C1333.73 531.723 1335.49 532.113 1336.98 532.893C1338.47 533.638 1339.62 534.72 1340.43 536.139C1341.25 537.558 1341.66 539.243 1341.66 541.194C1341.66 542.79 1341.34 544.209 1340.7 545.45C1340.06 546.692 1339.28 547.862 1338.36 548.962C1337.44 550.062 1336.53 551.197 1335.65 552.367C1334.76 553.502 1334.05 554.726 1333.52 556.038C1332.99 557.315 1332.83 558.805 1333.04 560.508H1328.73ZM1331.02 572.958C1330.06 572.958 1329.24 572.621 1328.57 571.947C1327.9 571.238 1327.56 570.351 1327.56 569.287C1327.56 568.152 1327.9 567.247 1328.57 566.573C1329.24 565.899 1330.06 565.563 1331.02 565.563C1332.01 565.563 1332.84 565.899 1333.52 566.573C1334.23 567.247 1334.58 568.152 1334.58 569.287C1334.58 570.351 1334.23 571.238 1333.52 571.947C1332.84 572.621 1332.01 572.958 1331.02 572.958ZM1350.79 560.508L1350.1 537.948L1349.99 532.414H1354.89L1354.78 537.948L1354.14 560.508H1350.79ZM1352.44 572.958C1351.48 572.958 1350.65 572.621 1349.94 571.947C1349.27 571.238 1348.93 570.351 1348.93 569.287C1348.93 568.152 1349.27 567.247 1349.94 566.573C1350.65 565.899 1351.48 565.563 1352.44 565.563C1353.43 565.563 1354.27 565.899 1354.94 566.573C1355.61 567.247 1355.95 568.152 1355.95 569.287C1355.95 570.351 1355.61 571.238 1354.94 571.947C1354.27 572.621 1353.43 572.958 1352.44 572.958Z" fill="#1E1E1E"/>
</g>
<defs>
<clipPath id="clip0_2_893">
<rect width="1600" height="900" fill="white"/>
</clipPath>
</defs>
</svg>
