<svg width="1600" height="900" viewBox="0 0 1600 900" fill="none" xmlns="http://www.w3.org/2000/svg">
<g clip-path="url(#clip0_2_811)">
<rect width="1600" height="900" fill="white"/>
<path d="M403.289 608.428C403.289 611.361 402.016 611.892 399.014 611.225C390.656 609.368 384.584 596.024 382.492 589.003C379.631 579.397 376.188 565.546 381.648 556.382C387.847 545.975 404.965 539.256 416.063 536.429C428.701 533.21 441.236 532.783 451.693 541.497C458.853 547.463 465.832 560.316 464.995 569.948C464.383 576.983 461.36 583.15 458.397 589.425C456.729 592.956 456.19 599.079 452.696 600.827" stroke="#1E1E1E" stroke-width="7.60101" stroke-linecap="round" stroke-linejoin="round"/>
<path d="M358.633 678.737C354.898 682.472 357.61 666.447 358.211 663.957C360.543 654.294 366.816 644.211 372.885 636.456C378.861 628.821 385.381 623.266 392.838 617.19C402.254 609.517 413.368 607.165 424.931 604.627C436.058 602.185 449.869 599.36 461.194 602.357C473.023 605.488 481.666 616.112 485.898 626.955C489.988 637.436 490.44 649.62 491.862 660.685C492.391 664.795 496.519 671.819 491.651 673.036" stroke="#1E1E1E" stroke-width="7.60101" stroke-linecap="round" stroke-linejoin="round"/>
<path d="M335.83 690.139C335.83 680.205 339.757 709.678 340.37 719.592C341.277 734.272 340.299 749.353 342.059 763.932C342.565 768.126 345.519 773.844 339.631 770.899" stroke="#1E1E1E" stroke-width="7.60101" stroke-linecap="round" stroke-linejoin="round"/>
<path d="M341.531 685.388C342.713 684.206 344.451 683.362 345.859 682.537C356.487 676.316 371.906 676.092 383.812 674.409C423.337 668.821 463.924 663.292 503.844 667.863C512.506 668.855 521.043 670.662 529.762 671.136C533.212 671.323 541.287 671.636 542.008 676.203C543.488 685.58 540.484 697.464 539.896 706.818C539.026 720.673 538.141 734.333 540.108 748.096" stroke="#1E1E1E" stroke-width="7.60101" stroke-linecap="round" stroke-linejoin="round"/>
<path d="M541.058 749.997C542.288 753.072 542.008 755.364 542.008 758.548" stroke="#1E1E1E" stroke-width="7.60101" stroke-linecap="round" stroke-linejoin="round"/>
<path d="M317.222 775.677C316.218 775.677 314.417 776.579 313.58 777.102C312.924 777.512 320.448 779.363 321.022 779.478" stroke="#1E1E1E" stroke-width="7.60101" stroke-linecap="round" stroke-linejoin="round"/>
<path d="M312.077 779.451C380.922 779.451 449.392 770.456 517.938 765.674C547.797 763.591 577.427 762.348 607.355 762.348C608.991 762.348 629.35 760.494 623.719 764.249" stroke="#1E1E1E" stroke-width="7.60101" stroke-linecap="round" stroke-linejoin="round"/>
<path d="M297.825 775.65C292.916 775.65 292.959 775.259 289.063 778.289C288.438 778.775 279.051 776.905 277.873 776.811C273.706 776.48 266.253 776.182 262.671 778.711C260.419 780.301 260.243 785.114 259.82 787.474C258.692 793.766 257.008 799.951 256.02 806.265C255.533 809.375 252.432 823.379 256.02 825.268C260.382 827.563 268.387 826.006 273.122 826.006C292.035 826.006 310.723 825.365 329.602 824.106C362.118 821.938 394.716 821.642 427.254 819.883C464.818 817.853 502.325 814.754 539.896 812.705C574.112 810.838 608.599 808.151 642.721 812.494C646.368 812.958 653.825 811.096 656.762 808.693C660.142 805.928 657.046 795.28 656.762 791.591C656.06 782.472 655.157 774.277 653.384 765.41C652.64 761.693 654.342 757.525 650.322 762.348" stroke="#1E1E1E" stroke-width="7.60101" stroke-linecap="round" stroke-linejoin="round"/>
<path d="M619.918 765.199C625.517 765.199 631.427 764.248 637.232 764.248C641.381 764.248 654.123 761.528 654.123 767.099" stroke="#1E1E1E" stroke-width="7.60101" stroke-linecap="round" stroke-linejoin="round"/>
<path d="M588.564 809.854C593.984 809.854 593.315 864.13 593.315 872.563" stroke="#1E1E1E" stroke-width="7.60101" stroke-linecap="round" stroke-linejoin="round"/>
<path d="M297.269 769.026C297.269 765.784 295.758 763.472 296.847 759.895C298.289 755.155 302.001 745.947 307.932 746.223C316.369 746.616 319.525 754.218 322.923 760.528C325 764.386 327.673 769.323 327.673 773.777" stroke="#1E1E1E" stroke-width="7.60101" stroke-linecap="round" stroke-linejoin="round"/>
<path d="M593.315 706.29C593.315 702.955 592.514 707.702 592.417 708.719C591.928 713.854 593.8 719.614 594.212 724.765C594.775 731.801 596.385 738.23 599.754 744.296C606.009 755.554 623.932 754.221 629.419 742.923C632.703 736.162 633.78 728.701 635.595 721.44C636.513 717.77 637.749 712.915 637.971 709.141C638.218 704.929 639.95 705.438 635.859 704.179C627.959 701.748 619.316 704.72 611.367 705.288C607.285 705.579 603.108 705.34 599.015 705.34C596.938 705.34 592.347 705.344 597.115 704.39" stroke="#1E1E1E" stroke-width="7.60101" stroke-linecap="round" stroke-linejoin="round"/>
<path d="M601.866 625.53C601.866 628.615 598.733 633.236 598.276 636.72C597.314 644.059 604.913 645.849 600.916 653.559C597.386 660.366 600.81 665.272 600.81 672.086C600.81 674.88 596.798 679.265 600.916 680.637" stroke="#1E1E1E" stroke-width="7.60101" stroke-linecap="round" stroke-linejoin="round"/>
<path d="M626.569 624.58C626.569 621.38 625.881 630.955 625.197 634.081C624.494 637.293 623.924 642.114 625.091 645.272C625.877 647.399 628.364 649.23 628.364 651.658C628.364 655.476 622.446 659.966 625.619 663.535C627.584 665.746 626.569 670.194 626.569 673.036" stroke="#1E1E1E" stroke-width="7.60101" stroke-linecap="round" stroke-linejoin="round"/>
<path d="M319.122 825.084C312.356 825.084 315.945 861.472 314.424 868.315C313.284 873.448 312.591 897.829 317.222 900.144" stroke="#1E1E1E" stroke-width="7.60101" stroke-linecap="round" stroke-linejoin="round"/>
<path d="M423.242 723.393C423.242 720.841 418.671 724.164 418.016 724.818C415.936 726.898 414.451 730 413.741 732.841C411.963 739.952 410.162 746.006 411.788 753.322C413.229 759.809 418.893 763.13 424.931 764.987C432.634 767.357 440.06 764.358 447.206 761.609C457.576 757.621 460.412 744.859 459.294 734.795C458.734 729.757 456.585 724.879 452.696 721.546C450.88 719.989 446.304 716.529 444.092 715.792C441.085 714.79 438.76 713.892 435.594 713.892C433.189 713.892 427.263 714.16 425.142 715.053C422.243 716.274 418.491 724.725 418.491 728.144" stroke="#1E1E1E" stroke-width="7.60101" stroke-linecap="round" stroke-linejoin="round"/>
<path d="M428.943 729.094C424.797 733.24 431.314 739.828 434.644 741.445C438.327 743.235 441.662 741.921 445.042 740.02C449.132 737.72 450.619 735.745 445.095 735.745" stroke="#1E1E1E" stroke-width="7.60101" stroke-linecap="round" stroke-linejoin="round"/>
<path d="M438.444 727.193C434.905 727.193 442.211 715.752 445.623 714.842C450.323 713.588 454.405 712.942 459.294 712.942C461.273 712.942 464.07 714.801 462.197 711.991" stroke="#1E1E1E" stroke-width="7.60101" stroke-linecap="round" stroke-linejoin="round"/>
<path d="M1104.96 608.773C1104.96 611.706 1103.69 612.238 1100.68 611.571C1092.33 609.713 1086.25 596.37 1084.16 589.348C1081.3 579.743 1077.86 565.891 1083.32 556.727C1089.52 546.32 1106.64 539.601 1117.73 536.774C1130.37 533.555 1142.91 533.128 1153.36 541.842C1160.52 547.808 1167.5 560.661 1166.67 570.293C1166.05 577.328 1163.03 583.496 1160.07 589.77C1158.4 593.301 1157.86 599.425 1154.37 601.172" stroke="#1E1E1E" stroke-width="7.60101" stroke-linecap="round" stroke-linejoin="round"/>
<path d="M1060.3 679.082C1056.57 682.817 1059.28 666.792 1059.88 664.302C1062.21 654.639 1068.49 644.556 1074.56 636.802C1080.53 629.166 1087.05 623.611 1094.51 617.535C1103.92 609.862 1115.04 607.511 1126.6 604.972C1137.73 602.53 1151.54 599.705 1162.86 602.703C1174.69 605.834 1183.34 616.457 1187.57 627.3C1191.66 637.781 1192.11 649.965 1193.53 661.03C1194.06 665.14 1198.19 672.164 1193.32 673.381" stroke="#1E1E1E" stroke-width="7.60101" stroke-linecap="round" stroke-linejoin="round"/>
<path d="M1037.5 690.484C1037.5 680.55 1041.43 710.023 1042.04 719.938C1042.95 734.617 1041.97 749.699 1043.73 764.277C1044.24 768.471 1047.19 774.189 1041.3 771.245" stroke="#1E1E1E" stroke-width="7.60101" stroke-linecap="round" stroke-linejoin="round"/>
<path d="M1043.2 685.733C1044.38 684.552 1046.12 683.707 1047.53 682.883C1058.16 676.662 1073.58 676.437 1085.48 674.754C1125.01 669.167 1165.6 663.638 1205.52 668.209C1214.18 669.2 1222.71 671.007 1231.43 671.481C1234.88 671.669 1242.96 671.982 1243.68 676.549C1245.16 685.926 1242.16 697.81 1241.57 707.164C1240.7 721.019 1239.81 734.678 1241.78 748.442" stroke="#1E1E1E" stroke-width="7.60101" stroke-linecap="round" stroke-linejoin="round"/>
<path d="M1242.73 750.342C1243.96 753.417 1243.68 755.709 1243.68 758.893" stroke="#1E1E1E" stroke-width="7.60101" stroke-linecap="round" stroke-linejoin="round"/>
<path d="M1009.95 775.995C1008.94 775.995 1007.14 776.897 1006.31 777.42C1005.65 777.83 1013.17 779.681 1013.75 779.796" stroke="#1E1E1E" stroke-width="7.60101" stroke-linecap="round" stroke-linejoin="round"/>
<path d="M1013.75 779.796C1082.59 779.796 1151.06 770.801 1219.61 766.019C1249.47 763.936 1279.1 762.693 1309.03 762.693C1310.66 762.693 1331.02 760.839 1325.39 764.594" stroke="#1E1E1E" stroke-width="7.60101" stroke-linecap="round" stroke-linejoin="round"/>
<path d="M999.496 775.995C994.587 775.995 994.629 775.605 990.734 778.634C990.109 779.121 980.722 777.25 979.543 777.157C975.376 776.825 967.924 776.528 964.341 779.057C962.09 780.646 961.914 785.46 961.491 787.819C960.363 794.111 958.679 800.296 957.691 806.61C957.204 809.721 954.103 823.725 957.691 825.613C962.053 827.909 970.058 826.352 974.793 826.352C993.706 826.352 1012.39 825.71 1031.27 824.452C1063.79 822.284 1096.39 821.988 1128.92 820.229C1166.49 818.198 1204 815.1 1241.57 813.05C1275.78 811.184 1310.27 808.496 1344.39 812.839C1348.04 813.303 1355.5 811.442 1358.43 809.039C1361.81 806.273 1358.72 795.625 1358.43 791.936C1357.73 782.817 1356.83 774.622 1355.05 765.755C1354.31 762.038 1356.01 757.87 1351.99 762.693" stroke="#1E1E1E" stroke-width="7.60101" stroke-linecap="round" stroke-linejoin="round"/>
<path d="M1321.59 765.544C1327.19 765.544 1333.1 764.594 1338.9 764.594C1343.05 764.594 1355.79 761.873 1355.79 767.444" stroke="#1E1E1E" stroke-width="7.60101" stroke-linecap="round" stroke-linejoin="round"/>
<path d="M1290.24 810.2C1295.66 810.2 1294.99 864.476 1294.99 872.908" stroke="#1E1E1E" stroke-width="7.60101" stroke-linecap="round" stroke-linejoin="round"/>
<path d="M989.995 769.344C989.995 766.102 988.484 763.79 989.572 760.212C991.015 755.473 994.726 746.265 1000.66 746.541C1009.09 746.934 1012.25 754.535 1015.65 760.846C1017.73 764.704 1020.4 769.641 1020.4 774.095" stroke="#1E1E1E" stroke-width="7.60101" stroke-linecap="round" stroke-linejoin="round"/>
<path d="M1294.99 706.636C1294.99 703.3 1294.18 708.048 1294.09 709.064C1293.6 714.199 1295.47 719.959 1295.88 725.111C1296.45 732.146 1298.06 738.575 1301.43 744.641C1307.68 755.899 1325.6 754.567 1331.09 743.269C1334.37 736.508 1335.45 729.047 1337.27 721.785C1338.18 718.116 1339.42 713.261 1339.64 709.486C1339.89 705.275 1341.62 705.783 1337.53 704.525C1329.63 702.094 1320.99 705.065 1313.04 705.633C1308.96 705.925 1304.78 705.686 1300.69 705.686C1298.61 705.686 1294.02 705.689 1298.79 704.736" stroke="#1E1E1E" stroke-width="7.60101" stroke-linecap="round" stroke-linejoin="round"/>
<path d="M1303.54 625.875C1303.54 628.96 1300.4 633.581 1299.95 637.065C1298.98 644.404 1306.58 646.194 1302.59 653.904C1299.06 660.711 1302.48 665.617 1302.48 672.431C1302.48 675.225 1298.47 679.61 1302.59 680.982" stroke="#1E1E1E" stroke-width="7.60101" stroke-linecap="round" stroke-linejoin="round"/>
<path d="M1328.24 624.925C1328.24 621.725 1327.55 631.3 1326.87 634.426C1326.17 637.638 1325.6 642.459 1326.76 645.617C1327.55 647.744 1330.03 649.575 1330.03 652.004C1330.03 655.821 1324.12 660.311 1327.29 663.88C1329.26 666.091 1328.24 670.539 1328.24 673.381" stroke="#1E1E1E" stroke-width="7.60101" stroke-linecap="round" stroke-linejoin="round"/>
<path d="M1011.85 825.402C1005.08 825.402 1008.67 861.79 1007.15 868.632C1006.01 873.765 1005.32 898.146 1009.95 900.462" stroke="#1E1E1E" stroke-width="7.60101" stroke-linecap="round" stroke-linejoin="round"/>
<path d="M1124.91 723.738C1124.91 721.186 1120.34 724.509 1119.69 725.163C1117.61 727.243 1116.12 730.345 1115.41 733.187C1113.63 740.297 1111.83 746.351 1113.46 753.667C1114.9 760.154 1120.56 763.475 1126.6 765.333C1134.3 767.702 1141.73 764.703 1148.88 761.954C1159.25 757.966 1162.08 745.204 1160.96 735.14C1160.41 730.102 1158.26 725.224 1154.37 721.891C1152.55 720.334 1147.97 716.874 1145.76 716.137C1142.76 715.135 1140.43 714.237 1137.26 714.237C1134.86 714.237 1128.93 714.505 1126.81 715.398C1123.91 716.619 1120.16 725.07 1120.16 728.489" stroke="#1E1E1E" stroke-width="7.60101" stroke-linecap="round" stroke-linejoin="round"/>
<path d="M1130.61 729.439C1126.47 733.585 1132.99 740.173 1136.31 741.791C1140 743.58 1143.33 742.267 1146.71 740.365C1150.8 738.065 1152.29 736.09 1146.77 736.09" stroke="#1E1E1E" stroke-width="7.60101" stroke-linecap="round" stroke-linejoin="round"/>
<path d="M1140.11 727.539C1136.58 727.539 1143.88 716.097 1147.29 715.187C1151.99 713.934 1156.08 713.287 1160.96 713.287C1162.94 713.287 1165.74 715.146 1163.87 712.337" stroke="#1E1E1E" stroke-width="7.60101" stroke-linecap="round" stroke-linejoin="round"/>
<path d="M246.257 88.7781C246.257 88.0551 244.932 86.3976 244.356 87.4057C242.025 91.4859 242.456 96.7492 242.456 101.235C242.456 124.066 244.192 147.169 247.418 169.75C250.146 188.845 250.494 207.456 251.588 226.652C252.774 247.466 255.845 268.605 259.347 289.149C263.486 313.429 273.5 343.341 293.763 358.825C318.703 377.883 347.412 386.933 376.635 397.358C393.041 403.211 411.099 404.442 428.364 405.593C438.039 406.238 447.71 406.028 457.396 406.12C468.742 406.229 479.866 408.202 491.178 408.76C536.184 410.98 580.85 417.011 625.779 420.372C651.926 422.328 677.492 424.173 703.743 424.173C731.914 424.173 759.955 422.156 788.093 421.322C832.523 420.006 876.998 422.603 921.269 426.548C952.649 429.344 984.471 432.695 1015.96 433.621C1040.86 434.353 1066.45 433.786 1091.18 437.052C1106.72 439.104 1119.06 442.951 1131.72 452.202C1135.96 455.3 1138.68 458.665 1140.54 463.55C1143.34 470.916 1147.72 478.672 1148.88 486.512C1149.65 491.702 1153.4 495.193 1154.79 500.183C1155.06 501.167 1158.38 508.114 1158.38 504.458C1158.38 497.925 1165.1 495.352 1168.94 490.998C1174.68 484.474 1182.16 480.278 1188.78 474.741C1194.38 470.058 1200.15 465.512 1205.88 461.017C1227.87 443.784 1247.33 417.98 1255.08 391.13C1258.97 377.66 1266.87 364.873 1274.08 352.913C1285.4 334.13 1284.88 307.428 1284.75 286.404C1284.64 270.134 1281.23 253.764 1279.52 237.578C1277.95 222.738 1276.22 207.764 1273.55 193.081C1269.91 173.058 1265.47 152.908 1265.74 132.484C1265.96 116.302 1269.24 100.143 1269.54 84.0275C1269.76 72.0577 1259.96 64.4045 1249.43 61.6467C1238.36 58.7457 1227.12 56.7082 1215.91 54.3624C1200.47 51.1291 1184.52 51.0586 1168.88 48.9256C1149.19 46.2397 1129.1 46.5648 1109.39 48.6617C1083.17 51.4517 1056.85 51.9811 1030.53 53.2012C919.601 58.3437 808.422 50.5842 697.514 56.0515C669.64 57.4256 641.829 56.7272 613.956 57.6351C581.137 58.7041 548.438 61.4145 515.565 62.1746C462.436 63.403 409.533 65.9751 356.366 65.9751C334.273 65.9751 312.874 66.9723 291.018 70.2506C281.199 71.7235 271.148 72.5902 261.248 73.365C255.693 73.7996 250.3 73.3448 244.779 72.8371C243.828 72.7497 237.043 72.626 241.506 72.626" stroke="#1E1E1E" stroke-width="7.60101" stroke-linecap="round" stroke-linejoin="round"/>
<path d="M357.247 131.429H361.663V179.635H357.247V131.429ZM346.925 148.934H358.524V152.552H346.925V148.934ZM334.261 138.293H337.826V145.529C337.826 148.119 337.471 150.672 336.762 153.191C336.088 155.674 335.13 158.015 333.889 160.214C332.683 162.414 331.246 164.364 329.579 166.067C327.947 167.77 326.192 169.118 324.312 170.111L321.651 166.599C323.389 165.748 325.021 164.577 326.546 163.087C328.072 161.598 329.402 159.913 330.537 158.033C331.707 156.117 332.612 154.095 333.25 151.967C333.924 149.803 334.261 147.657 334.261 145.529V138.293ZM335.219 138.293H338.731V145.529C338.731 147.516 339.05 149.537 339.688 151.595C340.327 153.617 341.214 155.532 342.349 157.341C343.519 159.15 344.867 160.782 346.393 162.236C347.918 163.655 349.549 164.772 351.288 165.588L348.68 169.1C346.765 168.142 344.991 166.847 343.36 165.216C341.728 163.584 340.291 161.722 339.05 159.629C337.844 157.501 336.904 155.231 336.23 152.819C335.556 150.406 335.219 147.977 335.219 145.529V138.293ZM323.46 136.378H349.585V139.996H323.46V136.378ZM405.501 131.429H409.918V179.582H405.501V131.429ZM391.402 136.644H395.765C395.765 140.12 395.339 143.472 394.488 146.7C393.672 149.928 392.377 152.996 390.603 155.905C388.83 158.778 386.524 161.456 383.687 163.939C380.849 166.422 377.408 168.639 373.364 170.59L371.023 167.025C375.67 164.79 379.501 162.183 382.516 159.203C385.531 156.224 387.766 152.907 389.22 149.254C390.674 145.565 391.402 141.592 391.402 137.335V136.644ZM373.258 136.644H393.264V140.208H373.258V136.644ZM442.084 161.066H445.543V163.62C445.543 165.712 445.117 167.77 444.266 169.792C443.414 171.813 442.173 173.622 440.541 175.219C438.945 176.815 436.976 178.039 434.635 178.89L432.454 175.644C434.476 174.899 436.196 173.871 437.615 172.558C439.069 171.246 440.169 169.827 440.914 168.302C441.694 166.741 442.084 165.18 442.084 163.62V161.066ZM443.095 161.066H446.341V163.62C446.341 165.251 446.66 166.865 447.299 168.461C447.937 170.058 448.895 171.512 450.172 172.824C451.484 174.137 453.08 175.183 454.96 175.964L453.151 179.316C450.81 178.393 448.895 177.116 447.405 175.485C445.951 173.853 444.869 172.009 444.159 169.951C443.45 167.858 443.095 165.748 443.095 163.62V161.066ZM459.909 161.066H463.154V163.62C463.154 165.5 462.782 167.468 462.037 169.526C461.327 171.583 460.228 173.498 458.738 175.272C457.284 177.01 455.421 178.358 453.151 179.316L451.236 175.964C453.151 175.077 454.748 173.942 456.025 172.558C457.301 171.139 458.259 169.65 458.898 168.089C459.572 166.493 459.909 165.003 459.909 163.62V161.066ZM460.76 161.066H464.218V163.62C464.218 165.287 464.591 166.901 465.336 168.461C466.116 170.022 467.216 171.441 468.635 172.718C470.089 173.959 471.827 174.935 473.849 175.644L471.667 178.89C469.326 178.039 467.34 176.85 465.708 175.325C464.077 173.764 462.835 171.991 461.984 170.004C461.168 167.983 460.76 165.854 460.76 163.62V161.066ZM465.123 131.482H469.539V158.937H465.123V131.482ZM443.734 134.249C446.181 134.249 448.345 134.728 450.225 135.686C452.105 136.644 453.577 137.974 454.641 139.676C455.741 141.344 456.291 143.294 456.291 145.529C456.291 147.728 455.741 149.662 454.641 151.329C453.577 152.996 452.105 154.308 450.225 155.266C448.345 156.224 446.181 156.703 443.734 156.703C441.322 156.703 439.158 156.224 437.242 155.266C435.362 154.308 433.873 152.996 432.773 151.329C431.709 149.662 431.177 147.728 431.177 145.529C431.177 143.294 431.709 141.344 432.773 139.676C433.873 137.974 435.362 136.644 437.242 135.686C439.158 134.728 441.322 134.249 443.734 134.249ZM443.734 137.974C442.173 137.974 440.772 138.293 439.53 138.931C438.289 139.57 437.296 140.457 436.551 141.592C435.841 142.691 435.487 144.004 435.487 145.529C435.487 147.019 435.841 148.331 436.551 149.466C437.296 150.566 438.289 151.435 439.53 152.074C440.772 152.712 442.173 153.031 443.734 153.031C445.33 153.031 446.749 152.712 447.99 152.074C449.232 151.435 450.207 150.566 450.917 149.466C451.626 148.331 451.981 147.019 451.981 145.529C451.981 144.004 451.626 142.691 450.917 141.592C450.207 140.457 449.232 139.57 447.99 138.931C446.749 138.293 445.33 137.974 443.734 137.974ZM490.179 136.111H493.797V139.357C493.797 142.088 493.23 144.66 492.095 147.072C490.96 149.484 489.381 151.595 487.359 153.404C485.337 155.177 483.014 156.525 480.389 157.448L478.101 153.989C480.513 153.173 482.624 152.02 484.433 150.531C486.242 149.041 487.643 147.338 488.636 145.423C489.665 143.472 490.179 141.45 490.179 139.357V136.111ZM491.031 136.111H494.595V139.304C494.595 141.219 495.057 143.046 495.979 144.784C496.937 146.487 498.267 148.012 499.969 149.36C501.672 150.672 503.658 151.683 505.929 152.393L503.694 155.745C501.175 154.929 498.958 153.723 497.043 152.127C495.163 150.495 493.691 148.597 492.627 146.434C491.563 144.234 491.031 141.858 491.031 139.304V136.111ZM479.485 134.781H505.077V138.346H479.485V134.781ZM511.409 131.429H515.825V155.585H511.409V131.429ZM513.91 142.337H522.902V146.008H513.91V142.337ZM483.475 174.846H485.816C486.774 174.846 487.891 174.811 489.168 174.74C490.445 174.669 491.793 174.509 493.212 174.261C494.666 174.013 496.068 173.676 497.415 173.25L498.107 176.762C496.582 177.258 495.074 177.631 493.585 177.879C492.13 178.127 490.747 178.287 489.434 178.358C488.122 178.464 486.916 178.518 485.816 178.518H483.475V174.846ZM483.475 160.587H487.785V176.283H483.475V160.587ZM496.405 161.332H520.507V164.684H496.405V161.332ZM508.483 166.067C511.107 166.067 513.236 166.688 514.867 167.929C516.535 169.135 517.368 170.749 517.368 172.771C517.368 174.864 516.535 176.513 514.867 177.719C513.236 178.925 511.107 179.528 508.483 179.528C505.858 179.528 503.712 178.925 502.044 177.719C500.377 176.513 499.544 174.864 499.544 172.771C499.544 170.749 500.377 169.135 502.044 167.929C503.712 166.688 505.858 166.067 508.483 166.067ZM508.483 169.206C507.028 169.206 505.822 169.526 504.864 170.164C503.942 170.803 503.481 171.672 503.481 172.771C503.481 173.871 503.942 174.758 504.864 175.432C505.822 176.07 507.028 176.389 508.483 176.389C509.937 176.389 511.125 176.07 512.047 175.432C512.97 174.758 513.431 173.871 513.431 172.771C513.431 171.672 512.97 170.803 512.047 170.164C511.125 169.526 509.937 169.206 508.483 169.206ZM506.354 157.075H510.664V163.992H506.354V157.075ZM539.605 135.154C541.981 135.154 544.074 135.845 545.883 137.229C547.692 138.577 549.111 140.51 550.14 143.028C551.168 145.547 551.683 148.509 551.683 151.914C551.683 155.319 551.168 158.281 550.14 160.8C549.111 163.318 547.692 165.269 545.883 166.652C544.074 168.036 541.981 168.727 539.605 168.727C537.263 168.727 535.171 168.036 533.326 166.652C531.517 165.269 530.098 163.318 529.07 160.8C528.041 158.281 527.527 155.319 527.527 151.914C527.527 148.509 528.041 145.547 529.07 143.028C530.098 140.51 531.517 138.577 533.326 137.229C535.171 135.845 537.263 135.154 539.605 135.154ZM539.605 139.091C538.079 139.091 536.714 139.623 535.508 140.687C534.337 141.716 533.415 143.206 532.741 145.157C532.067 147.072 531.73 149.325 531.73 151.914C531.73 154.503 532.067 156.774 532.741 158.724C533.415 160.64 534.337 162.13 535.508 163.194C536.714 164.258 538.097 164.79 539.658 164.79C541.183 164.79 542.531 164.258 543.701 163.194C544.908 162.13 545.83 160.64 546.468 158.724C547.142 156.774 547.479 154.503 547.479 151.914C547.479 149.325 547.142 147.072 546.468 145.157C545.83 143.206 544.908 141.716 543.701 140.687C542.531 139.623 541.165 139.091 539.605 139.091ZM559.398 131.429H563.814V179.582H559.398V131.429ZM562.803 150.637H571.688V154.362H562.803V150.637ZM576.526 185.541L575.356 182.668C577.023 181.923 578.335 180.912 579.293 179.635C580.251 178.358 580.712 176.904 580.676 175.272L580.144 170.909L582.539 174.474C582.184 174.864 581.794 175.148 581.368 175.325C580.978 175.467 580.552 175.538 580.091 175.538C579.133 175.538 578.3 175.236 577.59 174.633C576.881 174.03 576.526 173.197 576.526 172.133C576.526 171.069 576.881 170.235 577.59 169.632C578.335 169.029 579.204 168.727 580.197 168.727C581.474 168.727 582.468 169.242 583.177 170.27C583.922 171.264 584.294 172.647 584.294 174.421C584.294 176.975 583.585 179.209 582.166 181.125C580.783 183.04 578.903 184.512 576.526 185.541ZM333.942 218.346H337.507V226.114C337.507 228.633 337.152 231.134 336.443 233.617C335.733 236.064 334.74 238.388 333.463 240.587C332.222 242.75 330.785 244.684 329.153 246.386C327.522 248.053 325.766 249.366 323.886 250.324L321.279 246.812C323.017 245.961 324.631 244.808 326.121 243.354C327.646 241.864 328.994 240.179 330.164 238.299C331.335 236.383 332.257 234.397 332.931 232.34C333.605 230.247 333.942 228.172 333.942 226.114V218.346ZM334.793 218.346H338.305V226.114C338.305 228.03 338.607 229.963 339.21 231.914C339.848 233.865 340.735 235.727 341.87 237.501C343.005 239.274 344.317 240.871 345.807 242.289C347.333 243.673 348.946 244.79 350.649 245.641L348.148 249.153C346.268 248.195 344.513 246.918 342.881 245.322C341.249 243.69 339.83 241.846 338.624 239.789C337.418 237.731 336.478 235.532 335.804 233.191C335.13 230.85 334.793 228.491 334.793 226.114V218.346ZM322.981 216.378H348.946V220.049H322.981V216.378ZM354.64 211.429H359.056V259.582H354.64V211.429ZM358.045 230.85H366.93V234.574H358.045V230.85ZM403.001 211.429H407.417V259.582H403.001V211.429ZM406.406 230.371H415.292V234.149H406.406V230.371ZM372.353 215.526H376.716V228.189H390.391V215.526H394.754V248.036H372.353V215.526ZM376.716 231.701V244.364H390.391V231.701H376.716ZM438.06 214.728H441.944V218.453C441.944 220.545 441.572 222.532 440.827 224.412C440.117 226.292 439.124 228.048 437.847 229.679C436.606 231.275 435.151 232.712 433.484 233.989C431.853 235.266 430.097 236.348 428.217 237.235C426.372 238.121 424.492 238.795 422.577 239.257L420.608 235.585C422.275 235.231 423.942 234.681 425.61 233.936C427.312 233.191 428.908 232.286 430.398 231.222C431.888 230.123 433.2 228.899 434.336 227.551C435.506 226.203 436.411 224.766 437.049 223.241C437.723 221.68 438.06 220.084 438.06 218.453V214.728ZM438.911 214.728H442.689V218.453C442.689 220.084 443.026 221.68 443.7 223.241C444.374 224.766 445.278 226.203 446.414 227.551C447.584 228.899 448.914 230.123 450.404 231.222C451.894 232.286 453.472 233.209 455.14 233.989C456.842 234.734 458.545 235.266 460.247 235.585L458.226 239.257C456.31 238.795 454.43 238.121 452.586 237.235C450.741 236.348 448.985 235.266 447.318 233.989C445.686 232.712 444.232 231.275 442.955 229.679C441.678 228.048 440.685 226.292 439.975 224.412C439.266 222.532 438.911 220.545 438.911 218.453V214.728ZM418.799 249.419H462.429V253.09H418.799V249.419ZM472.374 216.324H502.862V219.942H472.374V216.324ZM467.16 249.206H510.63V252.878H467.16V249.206ZM501 216.324H505.31V222.23C505.31 224.571 505.274 226.93 505.203 229.307C505.168 231.648 505.008 234.149 504.724 236.809C504.441 239.434 503.962 242.396 503.288 245.695L498.872 245.269C499.581 242.183 500.078 239.345 500.361 236.756C500.681 234.131 500.858 231.63 500.893 229.254C500.964 226.877 501 224.536 501 222.23V216.324ZM502.064 229.626V232.978L471.683 234.574L471.044 230.956L502.064 229.626ZM550.532 211.482H554.948V237.926H550.532V211.482ZM518.022 233.244H521.906C524.815 233.244 527.511 233.209 529.994 233.138C532.512 233.067 534.96 232.925 537.336 232.712C539.713 232.464 542.178 232.145 544.732 231.754L545.264 235.372C542.604 235.798 540.05 236.117 537.602 236.33C535.19 236.543 532.707 236.703 530.153 236.809C527.635 236.88 524.886 236.915 521.906 236.915H518.022V233.244ZM517.916 213.77H539.73V226.859H522.332V235.638H518.022V223.401H535.421V217.388H517.916V213.77ZM523.875 240.321H528.238V245.961H550.585V240.321H554.948V258.943H523.875V240.321ZM528.238 249.472V255.325H550.585V249.472H528.238ZM569.469 237.394H602.511V240.959H569.469V237.394ZM563.882 249.685H607.512V253.356H563.882V249.685ZM569.469 215.579H602.032V219.197H573.938V238.458H569.469V215.579ZM572.555 226.274H600.968V229.839H572.555V226.274ZM646.542 220.262H660.376V223.88H646.542V220.262ZM646.542 230.637H660.483V234.255H646.542V230.637ZM658.727 211.482H663.143V247.078H658.727V211.482ZM632.23 254.899H664.26V258.518H632.23V254.899ZM632.23 243.62H636.646V256.708H632.23V243.62ZM625.898 214.675H630.314V223.135H643.297V214.675H647.66V238.884H625.898V214.675ZM630.314 226.593V235.319H643.297V226.593H630.314ZM691.392 213.132H695.276V215.845C695.276 217.69 694.921 219.428 694.212 221.06C693.502 222.656 692.527 224.128 691.285 225.476C690.079 226.824 688.661 228.03 687.029 229.094C685.397 230.158 683.624 231.045 681.708 231.754C679.828 232.464 677.895 232.978 675.909 233.297L674.1 229.732C675.873 229.484 677.594 229.059 679.261 228.456C680.963 227.853 682.542 227.125 683.996 226.274C685.45 225.387 686.727 224.394 687.827 223.294C688.962 222.195 689.831 221.024 690.434 219.783C691.073 218.506 691.392 217.193 691.392 215.845V213.132ZM692.137 213.132H695.968V215.845C695.968 217.193 696.287 218.488 696.925 219.73C697.564 220.971 698.433 222.142 699.533 223.241C700.668 224.341 701.962 225.334 703.417 226.221C704.871 227.108 706.432 227.853 708.099 228.456C709.802 229.059 711.522 229.484 713.26 229.732L711.504 233.297C709.518 232.978 707.585 232.464 705.705 231.754C703.825 231.009 702.051 230.105 700.384 229.041C698.752 227.977 697.316 226.771 696.074 225.423C694.868 224.075 693.91 222.603 693.201 221.007C692.492 219.375 692.137 217.654 692.137 215.845V213.132ZM691.392 241.278H695.755V259.582H691.392V241.278ZM671.918 238.512H715.388V242.183H671.918V238.512ZM743.211 219.251H757.099V222.816H743.211V219.251ZM743.211 228.775H757.205V232.393H743.211V228.775ZM755.449 211.429H759.865V239.895H755.449V211.429ZM722.514 215.101H744.435V236.49H722.514V215.101ZM740.125 218.665H726.824V232.925H740.125V218.665ZM744.01 241.332C748.976 241.332 752.877 242.13 755.715 243.726C758.588 245.322 760.025 247.557 760.025 250.43C760.025 253.303 758.588 255.52 755.715 257.081C752.877 258.677 748.976 259.475 744.01 259.475C739.044 259.475 735.124 258.677 732.251 257.081C729.413 255.52 727.994 253.303 727.994 250.43C727.994 247.557 729.413 245.322 732.251 243.726C735.124 242.13 739.044 241.332 744.01 241.332ZM744.01 244.79C741.597 244.79 739.522 245.021 737.784 245.482C736.046 245.907 734.698 246.546 733.741 247.397C732.818 248.213 732.357 249.224 732.357 250.43C732.357 251.565 732.818 252.558 733.741 253.41C734.698 254.225 736.046 254.864 737.784 255.325C739.522 255.786 741.597 256.017 744.01 256.017C746.457 256.017 748.532 255.786 750.235 255.325C751.973 254.864 753.303 254.225 754.225 253.41C755.183 252.558 755.662 251.565 755.662 250.43C755.662 249.224 755.183 248.213 754.225 247.397C753.303 246.546 751.973 245.907 750.235 245.482C748.532 245.021 746.457 244.79 744.01 244.79ZM803.597 211.429H808.014V259.635H803.597V211.429ZM782.634 215.154C785.01 215.154 787.103 215.845 788.912 217.229C790.757 218.577 792.193 220.51 793.222 223.028C794.286 225.547 794.818 228.509 794.818 231.914C794.818 235.319 794.286 238.281 793.222 240.8C792.193 243.318 790.757 245.269 788.912 246.652C787.103 248.036 785.01 248.727 782.634 248.727C780.257 248.727 778.147 248.036 776.302 246.652C774.458 245.269 773.003 243.318 771.939 240.8C770.91 238.281 770.396 235.319 770.396 231.914C770.396 228.509 770.91 225.547 771.939 223.028C773.003 220.51 774.458 218.577 776.302 217.229C778.147 215.845 780.257 215.154 782.634 215.154ZM782.634 219.091C781.038 219.091 779.636 219.623 778.43 220.687C777.26 221.716 776.338 223.206 775.664 225.157C774.99 227.072 774.653 229.325 774.653 231.914C774.653 234.503 774.99 236.774 775.664 238.724C776.338 240.64 777.26 242.13 778.43 243.194C779.636 244.258 781.038 244.79 782.634 244.79C784.194 244.79 785.56 244.258 786.731 243.194C787.937 242.13 788.877 240.64 789.551 238.724C790.225 236.774 790.562 234.503 790.562 231.914C790.562 229.325 790.225 227.072 789.551 225.157C788.877 223.206 787.937 221.716 786.731 220.687C785.56 219.623 784.194 219.091 782.634 219.091ZM851.46 218.985H864.336V222.603H851.46V218.985ZM851.034 228.775H864.017V232.446H851.034V228.775ZM848.427 214.409H853.109C853.109 218.453 852.205 222.053 850.396 225.21C848.622 228.367 846.068 231.045 842.734 233.244C839.4 235.443 835.374 237.164 830.656 238.405L828.953 234.84C833.139 233.776 836.668 232.357 839.542 230.584C842.45 228.81 844.65 226.735 846.139 224.359C847.665 221.947 848.427 219.304 848.427 216.431V214.409ZM831.401 214.409H851.407V218.027H831.401V214.409ZM863.485 211.429H867.848V237.341H863.485V211.429ZM836.775 239.735H841.191V245.748H863.485V239.735H867.848V258.943H836.775V239.735ZM841.191 249.259V255.378H863.485V249.259H841.191ZM911.686 211.429H916.102V236.915H911.686V211.429ZM884.976 239.203H916.102V250.43H889.393V257.081H885.136V247.238H911.739V242.662H884.976V239.203ZM885.136 255.538H917.752V259.05H885.136V255.538ZM889.712 218.719H893.277V219.57C893.277 222.23 892.691 224.696 891.521 226.966C890.386 229.236 888.789 231.187 886.732 232.819C884.675 234.45 882.28 235.692 879.549 236.543L877.527 233.085C879.301 232.588 880.933 231.896 882.422 231.009C883.948 230.087 885.242 229.041 886.306 227.87C887.406 226.664 888.24 225.37 888.807 223.986C889.41 222.567 889.712 221.095 889.712 219.57V218.719ZM890.51 218.719H894.075V219.57C894.075 221.024 894.376 222.425 894.979 223.773C895.582 225.086 896.434 226.31 897.533 227.445C898.668 228.544 899.981 229.52 901.471 230.371C902.96 231.222 904.61 231.879 906.419 232.34L904.45 235.745C902.393 235.177 900.513 234.379 898.81 233.351C897.108 232.322 895.635 231.098 894.394 229.679C893.152 228.26 892.195 226.7 891.521 224.997C890.847 223.294 890.51 221.485 890.51 219.57V218.719ZM878.804 216.537H904.929V220.102H878.804V216.537ZM889.712 211.11H894.128V218.24H889.712V211.11ZM955.824 213.132H959.709V215.845C959.709 217.69 959.354 219.428 958.644 221.06C957.935 222.656 956.96 224.128 955.718 225.476C954.512 226.824 953.093 228.03 951.462 229.094C949.83 230.158 948.056 231.045 946.141 231.754C944.261 232.464 942.328 232.978 940.341 233.297L938.532 229.732C940.306 229.484 942.026 229.059 943.693 228.456C945.396 227.853 946.974 227.125 948.429 226.274C949.883 225.387 951.16 224.394 952.26 223.294C953.395 222.195 954.264 221.024 954.867 219.783C955.505 218.506 955.824 217.193 955.824 215.845V213.132ZM956.569 213.132H960.4V215.845C960.4 217.193 960.72 218.488 961.358 219.73C961.997 220.971 962.866 222.142 963.965 223.241C965.1 224.341 966.395 225.334 967.849 226.221C969.304 227.108 970.864 227.853 972.532 228.456C974.234 229.059 975.955 229.484 977.693 229.732L975.937 233.297C973.95 232.978 972.017 232.464 970.137 231.754C968.257 231.009 966.484 230.105 964.816 229.041C963.185 227.977 961.748 226.771 960.507 225.423C959.301 224.075 958.343 222.603 957.634 221.007C956.924 219.375 956.569 217.654 956.569 215.845V213.132ZM955.824 241.278H960.187V259.582H955.824V241.278ZM936.351 238.512H979.821V242.183H936.351V238.512ZM1008 241.066H1011.46V243.62C1011.46 245.712 1011.03 247.77 1010.18 249.792C1009.33 251.813 1008.09 253.622 1006.45 255.219C1004.86 256.815 1002.89 258.039 1000.55 258.89L998.366 255.644C1000.39 254.899 1002.11 253.871 1003.53 252.558C1004.98 251.246 1006.08 249.827 1006.83 248.302C1007.61 246.741 1008 245.18 1008 243.62V241.066ZM1009.01 241.066H1012.25V243.62C1012.25 245.251 1012.57 246.865 1013.21 248.461C1013.85 250.058 1014.81 251.512 1016.08 252.824C1017.4 254.137 1018.99 255.183 1020.87 255.964L1019.06 259.316C1016.72 258.393 1014.81 257.116 1013.32 255.485C1011.86 253.853 1010.78 252.009 1010.07 249.951C1009.36 247.858 1009.01 245.748 1009.01 243.62V241.066ZM1025.82 241.066H1029.07V243.62C1029.07 245.5 1028.69 247.468 1027.95 249.526C1027.24 251.583 1026.14 253.498 1024.65 255.272C1023.2 257.01 1021.33 258.358 1019.06 259.316L1017.15 255.964C1019.06 255.077 1020.66 253.942 1021.94 252.558C1023.21 251.139 1024.17 249.65 1024.81 248.089C1025.48 246.493 1025.82 245.003 1025.82 243.62V241.066ZM1026.67 241.066H1030.13V243.62C1030.13 245.287 1030.5 246.901 1031.25 248.461C1032.03 250.022 1033.13 251.441 1034.55 252.718C1036 253.959 1037.74 254.935 1039.76 255.644L1037.58 258.89C1035.24 258.039 1033.25 256.85 1031.62 255.325C1029.99 253.764 1028.75 251.991 1027.9 250.004C1027.08 247.983 1026.67 245.854 1026.67 243.62V241.066ZM1031.04 211.482H1035.45V238.937H1031.04V211.482ZM1009.65 214.249C1012.09 214.249 1014.26 214.728 1016.14 215.686C1018.02 216.644 1019.49 217.974 1020.55 219.676C1021.65 221.344 1022.2 223.294 1022.2 225.529C1022.2 227.728 1021.65 229.662 1020.55 231.329C1019.49 232.996 1018.02 234.308 1016.14 235.266C1014.26 236.224 1012.09 236.703 1009.65 236.703C1007.23 236.703 1005.07 236.224 1003.16 235.266C1001.28 234.308 999.785 232.996 998.686 231.329C997.622 229.662 997.09 227.728 997.09 225.529C997.09 223.294 997.622 221.344 998.686 219.676C999.785 217.974 1001.28 216.644 1003.16 215.686C1005.07 214.728 1007.23 214.249 1009.65 214.249ZM1009.65 217.974C1008.09 217.974 1006.68 218.293 1005.44 218.931C1004.2 219.57 1003.21 220.457 1002.46 221.592C1001.75 222.691 1001.4 224.004 1001.4 225.529C1001.4 227.019 1001.75 228.331 1002.46 229.466C1003.21 230.566 1004.2 231.435 1005.44 232.074C1006.68 232.712 1008.09 233.031 1009.65 233.031C1011.24 233.031 1012.66 232.712 1013.9 232.074C1015.14 231.435 1016.12 230.566 1016.83 229.466C1017.54 228.331 1017.89 227.019 1017.89 225.529C1017.89 224.004 1017.54 222.691 1016.83 221.592C1016.12 220.457 1015.14 219.57 1013.9 218.931C1012.66 218.293 1011.24 217.974 1009.65 217.974ZM1066.09 214.515C1069.46 214.515 1072.46 215.065 1075.09 216.165C1077.71 217.264 1079.79 218.807 1081.31 220.794C1082.84 222.78 1083.6 225.103 1083.6 227.764C1083.6 230.46 1082.84 232.801 1081.31 234.787C1079.79 236.774 1077.71 238.317 1075.09 239.416C1072.46 240.516 1069.46 241.066 1066.09 241.066C1062.8 241.066 1059.82 240.516 1057.16 239.416C1054.53 238.317 1052.46 236.774 1050.93 234.787C1049.41 232.801 1048.64 230.46 1048.64 227.764C1048.64 225.103 1049.41 222.78 1050.93 220.794C1052.46 218.807 1054.53 217.264 1057.16 216.165C1059.82 215.065 1062.8 214.515 1066.09 214.515ZM1066.09 218.08C1063.58 218.08 1061.32 218.488 1059.34 219.304C1057.35 220.12 1055.77 221.255 1054.6 222.709C1053.43 224.128 1052.85 225.813 1052.85 227.764C1052.85 229.679 1053.43 231.364 1054.6 232.819C1055.77 234.273 1057.35 235.408 1059.34 236.224C1061.32 237.04 1063.58 237.448 1066.09 237.448C1068.65 237.448 1070.92 237.04 1072.91 236.224C1074.89 235.408 1076.45 234.273 1077.59 232.819C1078.76 231.364 1079.34 229.679 1079.34 227.764C1079.34 225.813 1078.76 224.128 1077.59 222.709C1076.45 221.255 1074.89 220.12 1072.91 219.304C1070.92 218.488 1068.65 218.08 1066.09 218.08ZM1044.39 249.526H1088.02V253.197H1044.39V249.526ZM1127.76 211.429H1132.12V259.582H1127.76V211.429ZM1095.78 216.165H1100.14V245.961H1095.78V216.165ZM1095.78 243.354H1099.72C1103.41 243.354 1107.15 243.194 1110.94 242.875C1114.78 242.52 1118.71 241.935 1122.76 241.119L1123.34 244.843C1119.16 245.73 1115.13 246.351 1111.26 246.706C1107.4 247.025 1103.55 247.184 1099.72 247.184H1095.78V243.354ZM1174.47 211.429H1178.89V259.582H1174.47V211.429ZM1177.45 231.275H1186.07V234.947H1177.45V231.275ZM1151.43 216.644H1155.53C1155.53 219.517 1155.35 222.372 1155 225.21C1154.64 228.048 1154.04 230.832 1153.19 233.563C1152.37 236.295 1151.24 238.937 1149.78 241.491C1148.36 244.01 1146.57 246.422 1144.41 248.727L1140.9 246.227C1142.85 244.169 1144.5 242.006 1145.84 239.735C1147.23 237.465 1148.33 235.106 1149.14 232.659C1149.96 230.211 1150.54 227.693 1150.9 225.103C1151.25 222.479 1151.43 219.818 1151.43 217.122V216.644ZM1142.44 216.644H1153.08V220.315H1142.44V216.644ZM1164.57 216.644H1168.67C1168.67 219.552 1168.53 222.532 1168.24 225.582C1168 228.633 1167.48 231.683 1166.7 234.734C1165.96 237.784 1164.89 240.764 1163.51 243.673C1162.16 246.581 1160.37 249.33 1158.13 251.92L1154.57 249.472C1156.63 247.131 1158.29 244.648 1159.57 242.023C1160.88 239.398 1161.89 236.703 1162.6 233.936C1163.31 231.134 1163.81 228.314 1164.09 225.476C1164.41 222.638 1164.57 219.836 1164.57 217.069V216.644ZM1157.07 216.644H1166.33V220.315H1157.07V216.644ZM345.062 300.262H358.896V303.88H345.062V300.262ZM345.062 310.637H359.003V314.255H345.062V310.637ZM357.247 291.482H361.663V327.078H357.247V291.482ZM330.75 334.899H362.78V338.518H330.75V334.899ZM330.75 323.62H335.166V336.708H330.75V323.62ZM324.418 294.675H328.834V303.135H341.817V294.675H346.18V318.884H324.418V294.675ZM328.834 306.593V315.319H341.817V306.593H328.834ZM389.912 293.132H393.796V295.845C393.796 297.69 393.441 299.428 392.732 301.06C392.022 302.656 391.047 304.128 389.805 305.476C388.599 306.824 387.18 308.03 385.549 309.094C383.917 310.158 382.144 311.045 380.228 311.754C378.348 312.464 376.415 312.978 374.429 313.297L372.619 309.732C374.393 309.484 376.113 309.059 377.781 308.456C379.483 307.853 381.062 307.125 382.516 306.274C383.97 305.387 385.247 304.394 386.347 303.294C387.482 302.195 388.351 301.024 388.954 299.783C389.593 298.506 389.912 297.193 389.912 295.845V293.132ZM390.657 293.132H394.488V295.845C394.488 297.193 394.807 298.488 395.445 299.73C396.084 300.971 396.953 302.142 398.052 303.241C399.188 304.341 400.482 305.334 401.937 306.221C403.391 307.108 404.952 307.853 406.619 308.456C408.321 309.059 410.042 309.484 411.78 309.732L410.024 313.297C408.038 312.978 406.104 312.464 404.224 311.754C402.345 311.009 400.571 310.105 398.904 309.041C397.272 307.977 395.836 306.771 394.594 305.423C393.388 304.075 392.43 302.603 391.721 301.007C391.011 299.375 390.657 297.654 390.657 295.845V293.132ZM389.912 321.278H394.275V339.582H389.912V321.278ZM370.438 318.512H413.908V322.183H370.438V318.512ZM441.731 299.251H455.618V302.816H441.731V299.251ZM441.731 308.775H455.725V312.393H441.731V308.775ZM453.969 291.429H458.385V319.895H453.969V291.429ZM421.034 295.101H442.955V316.49H421.034V295.101ZM438.645 298.665H425.344V312.925H438.645V298.665ZM442.529 321.332C447.495 321.332 451.397 322.13 454.235 323.726C457.108 325.322 458.545 327.557 458.545 330.43C458.545 333.303 457.108 335.52 454.235 337.081C451.397 338.677 447.495 339.475 442.529 339.475C437.563 339.475 433.644 338.677 430.771 337.081C427.933 335.52 426.514 333.303 426.514 330.43C426.514 327.557 427.933 325.322 430.771 323.726C433.644 322.13 437.563 321.332 442.529 321.332ZM442.529 324.79C440.117 324.79 438.042 325.021 436.304 325.482C434.566 325.907 433.218 326.546 432.26 327.397C431.338 328.213 430.877 329.224 430.877 330.43C430.877 331.565 431.338 332.558 432.26 333.41C433.218 334.225 434.566 334.864 436.304 335.325C438.042 335.786 440.117 336.017 442.529 336.017C444.977 336.017 447.052 335.786 448.755 335.325C450.493 334.864 451.823 334.225 452.745 333.41C453.703 332.558 454.182 331.565 454.182 330.43C454.182 329.224 453.703 328.213 452.745 327.397C451.823 326.546 450.493 325.907 448.755 325.482C447.052 325.021 444.977 324.79 442.529 324.79ZM511.409 291.482H515.825V318.671H511.409V291.482ZM514.442 303.188H522.902V306.806H514.442V303.188ZM485.125 321.278H517.049V324.843H485.125V321.278ZM484.752 335.219H517.634V338.837H484.752V335.219ZM491.829 322.13H496.138V336.975H491.829V322.13ZM506.141 322.13H510.451V336.975H506.141V322.13ZM491.882 294.196C494.329 294.196 496.493 294.693 498.373 295.686C500.253 296.644 501.725 297.974 502.789 299.676C503.889 301.344 504.439 303.294 504.439 305.529C504.439 307.728 503.889 309.679 502.789 311.382C501.725 313.085 500.253 314.415 498.373 315.372C496.493 316.295 494.329 316.756 491.882 316.756C489.47 316.756 487.306 316.295 485.391 315.372C483.511 314.415 482.021 313.085 480.921 311.382C479.857 309.679 479.325 307.728 479.325 305.529C479.325 303.294 479.857 301.344 480.921 299.676C482.021 297.974 483.511 296.644 485.391 295.686C487.306 294.693 489.47 294.196 491.882 294.196ZM491.882 297.921C490.321 297.921 488.92 298.24 487.679 298.878C486.437 299.517 485.444 300.404 484.699 301.539C483.99 302.674 483.635 303.986 483.635 305.476C483.635 307.001 483.99 308.331 484.699 309.466C485.444 310.602 486.437 311.488 487.679 312.127C488.92 312.765 490.321 313.085 491.882 313.085C493.478 313.085 494.897 312.765 496.138 312.127C497.38 311.488 498.355 310.602 499.065 309.466C499.81 308.331 500.182 307.001 500.182 305.476C500.182 303.986 499.81 302.674 499.065 301.539C498.355 300.404 497.38 299.517 496.138 298.878C494.897 298.24 493.478 297.921 491.882 297.921ZM546.362 310.158H555.407V313.776H546.362V310.158ZM563.495 291.429H567.751V339.582H563.495V291.429ZM553.917 292.44H558.121V337.134H553.917V292.44ZM537.636 295.473C539.729 295.473 541.538 296.147 543.063 297.495C544.624 298.843 545.83 300.776 546.681 303.294C547.532 305.813 547.958 308.775 547.958 312.18C547.958 315.621 547.532 318.6 546.681 321.119C545.83 323.637 544.624 325.588 543.063 326.972C541.538 328.32 539.729 328.993 537.636 328.993C535.614 328.993 533.823 328.32 532.262 326.972C530.737 325.588 529.548 323.637 528.697 321.119C527.846 318.6 527.42 315.621 527.42 312.18C527.42 308.775 527.846 305.813 528.697 303.294C529.548 300.776 530.737 298.843 532.262 297.495C533.823 296.147 535.614 295.473 537.636 295.473ZM537.636 299.57C536.394 299.57 535.312 300.084 534.39 301.113C533.468 302.142 532.759 303.596 532.262 305.476C531.765 307.356 531.517 309.591 531.517 312.18C531.517 314.769 531.765 317.022 532.262 318.937C532.759 320.817 533.468 322.272 534.39 323.3C535.312 324.329 536.394 324.843 537.636 324.843C538.913 324.843 540.012 324.329 540.935 323.3C541.892 322.272 542.62 320.817 543.116 318.937C543.613 317.022 543.861 314.769 543.861 312.18C543.861 309.591 543.613 307.356 543.116 305.476C542.62 303.596 541.892 302.142 540.935 301.113C540.012 300.084 538.913 299.57 537.636 299.57ZM598.375 298.346H601.94V306.114C601.94 308.633 601.585 311.134 600.875 313.617C600.166 316.064 599.173 318.388 597.896 320.587C596.654 322.75 595.218 324.684 593.586 326.386C591.954 328.053 590.199 329.366 588.319 330.324L585.711 326.812C587.449 325.961 589.063 324.808 590.553 323.354C592.079 321.864 593.426 320.179 594.597 318.299C595.768 316.383 596.69 314.397 597.364 312.34C598.038 310.247 598.375 308.172 598.375 306.114V298.346ZM599.226 298.346H602.738V306.114C602.738 308.03 603.039 309.963 603.642 311.914C604.281 313.865 605.167 315.727 606.303 317.501C607.438 319.274 608.75 320.871 610.24 322.289C611.765 323.673 613.379 324.79 615.082 325.641L612.581 329.153C610.701 328.195 608.945 326.918 607.313 325.322C605.682 323.69 604.263 321.846 603.057 319.789C601.851 317.731 600.911 315.532 600.237 313.191C599.563 310.85 599.226 308.491 599.226 306.114V298.346ZM587.414 296.378H613.379V300.049H587.414V296.378ZM619.072 291.429H623.488V339.582H619.072V291.429ZM622.478 310.85H631.363V314.574H622.478V310.85ZM669.881 291.482H674.297V326.759H669.881V291.482ZM643.384 334.899H675.787V338.518H643.384V334.899ZM643.384 323.513H647.8V336.602H643.384V323.513ZM647.374 294.143H651.046V298.985C651.046 302.142 650.496 305.103 649.396 307.87C648.297 310.602 646.736 313.014 644.714 315.106C642.728 317.164 640.386 318.742 637.691 319.842L635.349 316.33C637.797 315.372 639.908 314.007 641.681 312.233C643.49 310.46 644.891 308.438 645.884 306.168C646.878 303.862 647.374 301.468 647.374 298.985V294.143ZM648.172 294.143H651.844V298.985C651.844 300.794 652.127 302.55 652.695 304.252C653.263 305.919 654.078 307.48 655.142 308.934C656.207 310.389 657.466 311.683 658.92 312.819C660.41 313.918 662.042 314.787 663.815 315.426L661.527 318.937C658.867 317.909 656.526 316.419 654.504 314.468C652.518 312.482 650.957 310.176 649.822 307.551C648.722 304.891 648.172 302.035 648.172 298.985V294.143ZM698.821 294.941C701.34 294.941 703.557 295.42 705.472 296.378C707.423 297.3 708.948 298.612 710.048 300.315C711.148 302.017 711.697 304.004 711.697 306.274C711.697 308.509 711.148 310.495 710.048 312.233C708.948 313.936 707.423 315.266 705.472 316.224C703.557 317.146 701.34 317.607 698.821 317.607C696.338 317.607 694.121 317.146 692.17 316.224C690.22 315.266 688.677 313.936 687.541 312.233C686.442 310.495 685.892 308.509 685.892 306.274C685.892 304.004 686.442 302.017 687.541 300.315C688.677 298.612 690.22 297.3 692.17 296.378C694.121 295.42 696.338 294.941 698.821 294.941ZM698.821 298.772C697.19 298.772 695.718 299.091 694.405 299.73C693.128 300.333 692.117 301.202 691.372 302.337C690.627 303.472 690.255 304.784 690.255 306.274C690.255 307.764 690.627 309.076 691.372 310.211C692.117 311.346 693.128 312.233 694.405 312.872C695.718 313.475 697.19 313.776 698.821 313.776C700.489 313.776 701.961 313.475 703.238 312.872C704.515 312.233 705.525 311.346 706.27 310.211C707.015 309.076 707.388 307.764 707.388 306.274C707.388 304.784 707.015 303.472 706.27 302.337C705.525 301.202 704.515 300.333 703.238 299.73C701.961 299.091 700.489 298.772 698.821 298.772ZM718.029 291.429H722.445V339.635H718.029V291.429ZM684.083 329.1L683.498 325.375C686.442 325.375 689.67 325.358 693.181 325.322C696.693 325.251 700.311 325.109 704.036 324.897C707.796 324.648 711.414 324.258 714.89 323.726L715.262 326.972C711.644 327.646 707.973 328.142 704.248 328.461C700.559 328.745 696.995 328.923 693.554 328.993C690.113 329.064 686.956 329.1 684.083 329.1ZM777.863 291.429H782.28V339.635H777.863V291.429ZM756.9 295.154C759.276 295.154 761.369 295.845 763.178 297.229C765.023 298.577 766.459 300.51 767.488 303.028C768.552 305.547 769.084 308.509 769.084 311.914C769.084 315.319 768.552 318.281 767.488 320.8C766.459 323.318 765.023 325.269 763.178 326.652C761.369 328.036 759.276 328.727 756.9 328.727C754.523 328.727 752.413 328.036 750.568 326.652C748.724 325.269 747.269 323.318 746.205 320.8C745.176 318.281 744.662 315.319 744.662 311.914C744.662 308.509 745.176 305.547 746.205 303.028C747.269 300.51 748.724 298.577 750.568 297.229C752.413 295.845 754.523 295.154 756.9 295.154ZM756.9 299.091C755.304 299.091 753.902 299.623 752.696 300.687C751.526 301.716 750.604 303.206 749.93 305.157C749.256 307.072 748.919 309.325 748.919 311.914C748.919 314.503 749.256 316.774 749.93 318.724C750.604 320.64 751.526 322.13 752.696 323.194C753.902 324.258 755.304 324.79 756.9 324.79C758.461 324.79 759.826 324.258 760.997 323.194C762.203 322.13 763.143 320.64 763.817 318.724C764.491 316.774 764.828 314.503 764.828 311.914C764.828 309.325 764.491 307.072 763.817 305.157C763.143 303.206 762.203 301.716 760.997 300.687C759.826 299.623 758.461 299.091 756.9 299.091ZM791.214 316.277H834.844V319.842H791.214V316.277ZM796.748 292.6H829.257V304.039H801.217V310.371H796.854V300.74H824.894V296.111H796.748V292.6ZM796.854 308.722H830.268V312.18H796.854V308.722ZM797.12 324.205H829.311V338.943H797.12V324.205ZM824.948 327.77H801.43V335.325H824.948V327.77ZM861.337 292.281C866.658 292.281 870.808 293.008 873.787 294.462C876.767 295.881 878.257 297.921 878.257 300.581C878.257 303.277 876.767 305.352 873.787 306.806C870.808 308.225 866.658 308.934 861.337 308.934C856.052 308.934 851.902 308.225 848.887 306.806C845.907 305.352 844.417 303.277 844.417 300.581C844.417 297.921 845.907 295.881 848.887 294.462C851.902 293.008 856.052 292.281 861.337 292.281ZM861.337 295.579C858.748 295.579 856.531 295.774 854.686 296.165C852.842 296.555 851.423 297.122 850.43 297.867C849.472 298.612 848.993 299.517 848.993 300.581C848.993 301.645 849.472 302.567 850.43 303.348C851.423 304.093 852.842 304.66 854.686 305.05C856.531 305.405 858.748 305.582 861.337 305.582C863.962 305.582 866.197 305.405 868.041 305.05C869.886 304.66 871.287 304.093 872.244 303.348C873.238 302.567 873.734 301.645 873.734 300.581C873.734 299.517 873.238 298.612 872.244 297.867C871.287 297.122 869.886 296.555 868.041 296.165C866.197 295.774 863.962 295.579 861.337 295.579ZM839.629 312.18H883.099V315.745H839.629V312.18ZM844.896 319.842H877.512V330.696H849.312V336.496H845.002V327.45H873.202V323.247H844.896V319.842ZM845.002 335.591H878.949V339.05H845.002V335.591ZM904.73 321.066H937.612V324.311H909.093V337.613H904.73V321.066ZM904.73 335.698H938.198V339.05H904.73V335.698ZM907.497 328.355H936.548V331.494H907.497V328.355ZM918.777 314.628H923.193V322.023H918.777V314.628ZM899.303 312.499H942.773V316.064H899.303V312.499ZM905.05 292.281H909.413V296.963H932.717V292.281H937.08V308.509H905.05V292.281ZM909.413 300.315V305.05H932.717V300.315H909.413ZM982.621 291.429H987.038V339.635H982.621V291.429ZM961.658 295.154C964.034 295.154 966.127 295.845 967.936 297.229C969.781 298.577 971.217 300.51 972.246 303.028C973.31 305.547 973.842 308.509 973.842 311.914C973.842 315.319 973.31 318.281 972.246 320.8C971.217 323.318 969.781 325.269 967.936 326.652C966.127 328.036 964.034 328.727 961.658 328.727C959.281 328.727 957.171 328.036 955.326 326.652C953.482 325.269 952.027 323.318 950.963 320.8C949.934 318.281 949.42 315.319 949.42 311.914C949.42 308.509 949.934 305.547 950.963 303.028C952.027 300.51 953.482 298.577 955.326 297.229C957.171 295.845 959.281 295.154 961.658 295.154ZM961.658 299.091C960.062 299.091 958.66 299.623 957.454 300.687C956.284 301.716 955.362 303.206 954.688 305.157C954.014 307.072 953.677 309.325 953.677 311.914C953.677 314.503 954.014 316.774 954.688 318.724C955.362 320.64 956.284 322.13 957.454 323.194C958.66 324.258 960.062 324.79 961.658 324.79C963.218 324.79 964.584 324.258 965.755 323.194C966.961 322.13 967.901 320.64 968.575 318.724C969.249 316.774 969.586 314.503 969.586 311.914C969.586 309.325 969.249 307.072 968.575 305.157C967.901 303.206 966.961 301.716 965.755 300.687C964.584 299.623 963.218 299.091 961.658 299.091ZM1019.12 299.889H1032.53V303.56H1019.12V299.889ZM1019.12 310.211H1032.63V313.829H1019.12V310.211ZM998.26 295.633H1020.18V318.139H998.26V295.633ZM1015.87 299.197H1002.57V314.628H1015.87V299.197ZM1031.2 291.482H1035.61V326.599H1031.2V291.482ZM1004.7 334.899H1036.73V338.518H1004.7V334.899ZM1004.7 323.46H1009.11V336.549H1004.7V323.46ZM1068.52 295.154C1070.86 295.154 1072.94 295.845 1074.75 297.229C1076.56 298.577 1077.96 300.51 1078.95 303.028C1079.98 305.547 1080.49 308.509 1080.49 311.914C1080.49 315.319 1079.98 318.281 1078.95 320.8C1077.96 323.318 1076.56 325.269 1074.75 326.652C1072.94 328.036 1070.86 328.727 1068.52 328.727C1066.22 328.727 1064.14 328.036 1062.3 326.652C1060.49 325.269 1059.07 323.318 1058.04 320.8C1057.05 318.281 1056.55 315.319 1056.55 311.914C1056.55 308.509 1057.05 305.547 1058.04 303.028C1059.07 300.51 1060.49 298.577 1062.3 297.229C1064.14 295.845 1066.22 295.154 1068.52 295.154ZM1068.52 299.091C1067 299.091 1065.65 299.623 1064.48 300.687C1063.31 301.716 1062.39 303.206 1061.71 305.157C1061.07 307.072 1060.75 309.325 1060.75 311.914C1060.75 314.503 1061.07 316.774 1061.71 318.724C1062.39 320.64 1063.31 322.13 1064.48 323.194C1065.65 324.258 1067 324.79 1068.52 324.79C1070.08 324.79 1071.45 324.258 1072.62 323.194C1073.79 322.13 1074.69 320.64 1075.33 318.724C1076.01 316.774 1076.34 314.503 1076.34 311.914C1076.34 309.325 1076.01 307.072 1075.33 305.157C1074.69 303.206 1073.79 301.716 1072.62 300.687C1071.45 299.623 1070.08 299.091 1068.52 299.091ZM1090.92 291.429H1095.29V339.635H1090.92V291.429ZM1079.06 309.786H1092.89V313.351H1079.06V309.786ZM1105.28 310.797H1107.41C1108.37 310.797 1109.4 310.779 1110.5 310.743C1111.6 310.672 1112.77 310.566 1114.01 310.424C1115.29 310.282 1116.62 310.052 1118 309.732L1118.43 313.297C1116.94 313.581 1115.54 313.794 1114.22 313.936C1112.95 314.078 1111.74 314.166 1110.61 314.202C1109.51 314.237 1108.44 314.255 1107.41 314.255H1105.28V310.797ZM1105.28 294.249H1117.36V297.814H1109.65V312.978H1105.28V294.249ZM1120.08 310.797H1122.47C1124.21 310.797 1125.77 310.779 1127.15 310.743C1128.54 310.672 1129.87 310.566 1131.14 310.424C1132.46 310.247 1133.8 309.999 1135.19 309.679L1135.61 313.191C1134.16 313.51 1132.76 313.758 1131.41 313.936C1130.1 314.078 1128.71 314.166 1127.26 314.202C1125.84 314.237 1124.24 314.255 1122.47 314.255H1120.08V310.797ZM1120.08 294.249H1133.38V297.814H1124.44V312.978H1120.08V294.249ZM1111.94 318.671H1144.13V330.217H1116.46V337.187H1112.04V326.918H1139.76V322.183H1111.94V318.671ZM1112.04 335.378H1145.88V338.943H1112.04V335.378ZM1139.76 291.429H1144.13V316.277H1139.76V291.429ZM1130.88 301.964H1142.9V305.37H1130.88V301.964ZM1185.78 291.429H1190.2V339.582H1185.78V291.429ZM1188.76 311.275H1197.38V314.947H1188.76V311.275ZM1162.74 296.644H1166.84C1166.84 299.517 1166.66 302.372 1166.31 305.21C1165.95 308.048 1165.35 310.832 1164.5 313.563C1163.68 316.295 1162.55 318.937 1161.09 321.491C1159.68 324.01 1157.88 326.422 1155.72 328.727L1152.21 326.227C1154.16 324.169 1155.81 322.006 1157.16 319.735C1158.54 317.465 1159.64 315.106 1160.46 312.659C1161.27 310.211 1161.86 307.693 1162.21 305.103C1162.57 302.479 1162.74 299.818 1162.74 297.122V296.644ZM1153.75 296.644H1164.39V300.315H1153.75V296.644ZM1175.89 296.644H1179.98C1179.98 299.552 1179.84 302.532 1179.56 305.582C1179.31 308.633 1178.8 311.683 1178.01 314.734C1177.27 317.784 1176.21 320.764 1174.82 323.673C1173.47 326.581 1171.68 329.33 1169.45 331.92L1165.88 329.472C1167.94 327.131 1169.61 324.648 1170.89 322.023C1172.2 319.398 1173.21 316.703 1173.92 313.936C1174.63 311.134 1175.12 308.314 1175.41 305.476C1175.73 302.638 1175.89 299.836 1175.89 297.069V296.644ZM1168.38 296.644H1177.64V300.315H1168.38V296.644ZM1207.59 323.673C1207.35 321.828 1207.45 320.179 1207.91 318.724C1208.41 317.27 1209.08 315.958 1209.93 314.787C1210.79 313.617 1211.66 312.499 1212.54 311.435C1213.46 310.371 1214.23 309.307 1214.83 308.243C1215.47 307.143 1215.79 305.955 1215.79 304.678C1215.79 303.614 1215.57 302.656 1215.15 301.805C1214.72 300.918 1214.09 300.226 1213.23 299.73C1212.38 299.197 1211.32 298.931 1210.04 298.931C1208.73 298.931 1207.49 299.233 1206.32 299.836C1205.15 300.404 1204.1 301.237 1203.18 302.337L1200.41 299.783C1201.65 298.364 1203.12 297.193 1204.83 296.271C1206.53 295.349 1208.45 294.888 1210.57 294.888C1212.6 294.888 1214.35 295.278 1215.84 296.058C1217.33 296.803 1218.48 297.885 1219.3 299.304C1220.12 300.723 1220.52 302.408 1220.52 304.359C1220.52 305.955 1220.2 307.374 1219.57 308.615C1218.93 309.857 1218.15 311.027 1217.22 312.127C1216.3 313.226 1215.4 314.362 1214.51 315.532C1213.62 316.667 1212.91 317.891 1212.38 319.203C1211.85 320.48 1211.69 321.97 1211.9 323.673H1207.59ZM1209.88 336.123C1208.92 336.123 1208.11 335.786 1207.43 335.112C1206.76 334.403 1206.42 333.516 1206.42 332.452C1206.42 331.317 1206.76 330.412 1207.43 329.738C1208.11 329.064 1208.92 328.727 1209.88 328.727C1210.87 328.727 1211.71 329.064 1212.38 329.738C1213.09 330.412 1213.45 331.317 1213.45 332.452C1213.45 333.516 1213.09 334.403 1212.38 335.112C1211.71 335.786 1210.87 336.123 1209.88 336.123Z" fill="#1E1E1E"/>
<path d="M554.432 542.549H558.795V549.892H554.432V542.549ZM553.794 531.216H557.625V532.653C557.625 534.107 557.288 535.455 556.614 536.697C555.975 537.938 555.053 539.055 553.847 540.049C552.641 541.042 551.24 541.911 549.644 542.656C548.083 543.401 546.362 544.021 544.483 544.518C542.603 544.979 540.652 545.298 538.63 545.476L537.193 542.124C538.931 541.982 540.598 541.733 542.195 541.379C543.826 540.989 545.352 540.51 546.77 539.942C548.189 539.375 549.413 538.718 550.442 537.974C551.506 537.229 552.322 536.413 552.889 535.526C553.492 534.639 553.794 533.681 553.794 532.653V531.216ZM555.709 531.216H559.487V532.653C559.487 533.681 559.788 534.639 560.391 535.526C560.994 536.413 561.81 537.229 562.839 537.974C563.868 538.718 565.091 539.375 566.51 539.942C567.929 540.51 569.437 540.989 571.033 541.379C572.665 541.733 574.349 541.982 576.088 542.124L574.651 545.476C572.665 545.298 570.731 544.979 568.851 544.518C566.971 544.021 565.233 543.401 563.637 542.656C562.041 541.911 560.64 541.042 559.434 540.049C558.263 539.055 557.341 537.956 556.667 536.75C556.028 535.508 555.709 534.143 555.709 532.653V531.216ZM538.896 529.726H574.438V533.238H538.896V529.726ZM538.949 558.139H574.332V561.597H538.949V558.139ZM534.852 548.189H578.482V551.807H534.852V548.189ZM556.614 563.939C561.26 563.939 564.825 564.471 567.308 565.535C569.827 566.599 571.086 568.177 571.086 570.27C571.086 572.363 569.827 573.942 567.308 575.006C564.825 576.105 561.26 576.655 556.614 576.655C552.002 576.655 548.438 576.105 545.919 575.006C543.436 573.942 542.195 572.363 542.195 570.27C542.195 568.177 543.436 566.599 545.919 565.535C548.438 564.471 552.002 563.939 556.614 563.939ZM556.614 567.025C553.457 567.025 551.009 567.308 549.271 567.876C547.533 568.408 546.664 569.206 546.664 570.27C546.664 571.37 547.533 572.203 549.271 572.771C551.009 573.339 553.457 573.622 556.614 573.622C559.806 573.622 562.254 573.339 563.956 572.771C565.694 572.203 566.563 571.37 566.563 570.27C566.563 569.206 565.694 568.408 563.956 567.876C562.254 567.308 559.806 567.025 556.614 567.025ZM554.432 553.67H558.848V560.374H554.432V553.67ZM596.036 531.961C598.413 531.961 600.505 532.653 602.314 534.036C604.124 535.384 605.542 537.317 606.571 539.836C607.6 542.354 608.114 545.316 608.114 548.721C608.114 552.127 607.6 555.088 606.571 557.607C605.542 560.125 604.124 562.076 602.314 563.46C600.505 564.843 598.413 565.535 596.036 565.535C593.695 565.535 591.602 564.843 589.758 563.46C587.949 562.076 586.53 560.125 585.501 557.607C584.472 555.088 583.958 552.127 583.958 548.721C583.958 545.316 584.472 542.354 585.501 539.836C586.53 537.317 587.949 535.384 589.758 534.036C591.602 532.653 593.695 531.961 596.036 531.961ZM596.036 535.898C594.511 535.898 593.145 536.431 591.939 537.495C590.769 538.523 589.846 540.013 589.172 541.964C588.498 543.88 588.161 546.132 588.161 548.721C588.161 551.311 588.498 553.581 589.172 555.532C589.846 557.447 590.769 558.937 591.939 560.001C593.145 561.065 594.528 561.597 596.089 561.597C597.614 561.597 598.962 561.065 600.133 560.001C601.339 558.937 602.261 557.447 602.9 555.532C603.574 553.581 603.911 551.311 603.911 548.721C603.911 546.132 603.574 543.88 602.9 541.964C602.261 540.013 601.339 538.523 600.133 537.495C598.962 536.431 597.597 535.898 596.036 535.898ZM615.829 528.237H620.245V576.389H615.829V528.237ZM619.234 547.444H628.12V551.169H619.234V547.444ZM635.884 560.48L635.192 537.92L635.086 532.387H639.981L639.875 537.92L639.236 560.48H635.884ZM637.533 572.931C636.576 572.931 635.742 572.594 635.033 571.92C634.359 571.21 634.022 570.323 634.022 569.259C634.022 568.124 634.359 567.22 635.033 566.546C635.742 565.872 636.576 565.535 637.533 565.535C638.527 565.535 639.36 565.872 640.034 566.546C640.708 567.22 641.045 568.124 641.045 569.259C641.045 570.323 640.708 571.21 640.034 571.92C639.36 572.594 638.527 572.931 637.533 572.931Z" fill="#1E1E1E"/>
</g>
<defs>
<clipPath id="clip0_2_811">
<rect width="1600" height="900" fill="white"/>
</clipPath>
</defs>
</svg>
