<svg width="1600" height="900" viewBox="0 0 1600 900" fill="none" xmlns="http://www.w3.org/2000/svg">
<g clip-path="url(#clip0_2_720)">
<rect width="1600" height="900" fill="white"/>
<path d="M817.829 869.755C817.829 870.081 817.651 871.576 817.218 870.603C815.786 867.381 816.578 862.645 816.607 859.234C816.672 851.676 817.601 844.003 818.169 836.462C818.597 830.767 820.273 825.123 820.273 819.426C820.273 816.703 820.038 812.769 823.327 812.299C825.313 812.015 827.604 809.935 829.164 808.804C831.903 806.818 834.858 805.15 837.649 803.238C844.266 798.704 851.085 795.474 858.011 791.564C864.341 787.99 871.987 786.483 877.355 781.484C890.491 769.254 905.033 756.435 913.125 740.25C917.613 731.275 922.786 721.583 925.58 711.913C926.913 707.297 929.413 698.982 922.899 697.354C916.445 695.74 909.377 699.561 903.826 702.512C893.791 707.847 882.581 710.757 872.264 715.51C862.29 720.106 852.018 724.536 843.554 731.698C840.857 733.98 837.951 736.313 835.68 739.029C833.312 741.861 831.493 745.422 828.961 748.056C827.406 749.673 828.993 743.859 829.13 743.339C830.152 739.479 831.437 735.613 831.879 731.63C833.276 719.062 837.509 706.638 841.517 694.707C845.513 682.814 845.755 670.596 846.676 658.258C847.756 643.782 852.171 629.622 852.615 614.988C853.028 601.341 853.035 587.469 852.615 573.822C852.497 570.005 851.995 552.336 845.454 552.103C839.072 551.875 834.79 564.249 833.101 568.8C829.744 577.844 826.169 586.797 822.716 595.814C817.798 608.657 815.585 622.751 812.942 636.199C810.255 649.871 809.809 663.688 807.682 677.399C806.636 684.142 804.779 690.71 803.779 697.49C803.003 702.749 802.667 707.977 801.947 713.236C800.851 721.232 801.766 729.874 799.367 737.671C798.637 740.045 798.892 737.112 798.892 736.212C798.892 731.507 799.333 726.888 799.639 722.196C800.715 705.692 802.648 689.185 803.134 672.648C803.874 647.497 805.001 622.334 805.001 597.171C805.001 586.791 805.798 575.47 804.051 565.236C803.226 560.406 801.207 550.89 796.313 548.777C791.678 546.775 787.738 544.772 782.534 544.772C778.38 544.772 775.668 543.571 774.763 548.098C772.786 557.98 772.895 568.344 772.591 578.37C772.358 586.052 771.403 593.597 771.403 601.312C771.403 608.807 771.517 616.226 771.878 623.71C773.104 649.145 768.094 675.374 763.767 700.374C762.211 709.367 760.722 718.16 760.407 727.286C760.367 728.451 760.163 731.202 759.457 728.882C757.763 723.316 758.488 716.905 758.609 711.166C759.008 692.184 760.242 673.319 758.914 654.355C757.933 640.34 758.438 626.104 753.077 612.85C750.458 606.374 748.896 599.653 746.357 593.167C744.895 589.431 738.893 588.868 735.362 589.671C730.669 590.738 725.576 590.281 721.04 592.148C717.019 593.804 717.779 603.936 718.122 607.149C719.458 619.678 719.748 632.173 721.583 644.683C722.819 653.108 724.048 661.516 725.316 669.933C726.918 680.565 729.751 690.949 731.086 701.63C732.164 710.254 732.124 719.299 734.004 727.762C734.571 730.311 735.645 732.723 735.939 735.364C736.498 740.399 733.345 733.016 732.613 731.664C727.784 722.749 724.403 713.249 720.09 704.073C717.44 698.437 714.096 693.158 710.961 687.784C708.096 682.873 704.169 677.096 698.981 674.412C695.819 672.777 692.219 672.161 688.902 670.917C685.516 669.647 682.003 670.414 678.551 669.695C675.042 668.964 669.999 670.007 669.999 674.277C669.999 682.274 670.7 689.933 671.22 697.863C671.889 708.061 675.52 717.471 679.162 726.879C681.476 732.857 683.3 736.247 688.053 740.726C693.369 745.734 697.863 751.509 703.121 756.608C709.547 762.839 716.934 768.651 721.787 776.292C727.67 785.554 730.356 794.896 732.952 805.444C738.224 826.859 737.234 849.055 739.163 870.909C739.871 878.932 741.868 886.936 742.658 894.834C742.793 896.185 743.303 903.618 743.303 898.466" stroke="#1E1E1E" stroke-width="7.0273" stroke-linecap="round" stroke-linejoin="round"/>
<path d="M778.734 560.044C778.734 565.437 779.658 571.111 780.702 576.537C781.199 579.122 783.057 580.845 785.487 581.696C787.909 582.544 791.412 584.479 794.005 584.479C795.845 584.479 795.77 576.768 795.77 575.282C795.77 572.938 795.098 570.683 795.261 568.325C795.381 566.589 796.152 564.847 795.702 563.098C794.302 557.652 785.745 558.065 781.788 560.044" stroke="#1E1E1E" stroke-width="7.0273" stroke-linecap="round" stroke-linejoin="round"/>
<path d="M833.101 569.818C831.937 568.654 831.959 569.053 831.743 570.429C831.086 574.619 830.124 579.018 830.047 583.257C829.933 589.502 831.719 591.807 837.682 593.642C840.692 594.568 846.463 598.845 847.117 592.963C847.486 589.645 849.161 584.585 845.929 582.646" stroke="#1E1E1E" stroke-width="7.0273" stroke-linecap="round" stroke-linejoin="round"/>
<path d="M836.155 570.429C834.847 569.775 834.61 568.919 835.68 567.849C837.443 566.086 840.618 566.571 842.739 567.51C846.356 569.111 847.176 574.116 847.626 577.623C847.813 579.079 849.189 585.095 847.762 580.813" stroke="#1E1E1E" stroke-width="7.0273" stroke-linecap="round" stroke-linejoin="round"/>
<path d="M907.016 708.485C907.016 707.317 904.716 708.463 904.233 708.858C902.186 710.533 902.129 710.819 902.129 713.44C902.129 717.029 902.974 729.255 908.238 729.255C909.689 729.255 911.904 729.672 913.261 729.119C915.876 728.053 916.111 721.667 916.79 719.345C917.53 716.812 920.78 708.596 917.469 706.517C914.788 704.834 906.878 704.485 905.184 707.874" stroke="#1E1E1E" stroke-width="7.0273" stroke-linecap="round" stroke-linejoin="round"/>
<path d="M728.031 603.415C724.474 603.415 722.593 605.293 721.108 608.778C718.434 615.052 725.19 619.226 730.475 619.298C736.185 619.376 745.042 613.856 746.222 607.827C747.248 602.579 731.99 602.805 728.642 602.805" stroke="#1E1E1E" stroke-width="7.0273" stroke-linecap="round" stroke-linejoin="round"/>
<path d="M684.66 677.331C681.139 677.331 680.409 685.596 680.112 687.716C679.221 694.083 679.962 701.633 686.764 704.548C689.788 705.845 693.57 702.03 695.248 699.831C697.748 696.555 698.666 691.136 699.558 687.173C701.947 676.553 685.68 676.225 679.162 678.553" stroke="#1E1E1E" stroke-width="7.0273" stroke-linecap="round" stroke-linejoin="round"/>
<path d="M1199.38 869.445C1199.38 869.772 1199.56 871.267 1199.99 870.294C1201.42 867.071 1200.63 862.336 1200.6 858.925C1200.54 851.367 1199.61 843.693 1199.04 836.153C1198.61 830.458 1196.93 824.813 1196.93 819.117C1196.93 816.393 1197.17 812.46 1193.88 811.99C1191.89 811.706 1189.6 809.625 1188.04 808.494C1185.3 806.508 1182.35 804.841 1179.56 802.929C1172.94 798.394 1166.12 795.164 1159.2 791.254C1152.87 787.68 1145.22 786.173 1139.85 781.175C1126.72 768.945 1112.17 756.125 1104.08 739.941C1099.59 730.965 1094.42 721.273 1091.63 711.603C1090.29 706.987 1087.79 698.673 1094.31 697.044C1100.76 695.431 1107.83 699.252 1113.38 702.203C1123.42 707.538 1134.63 710.447 1144.94 715.201C1154.92 719.797 1165.19 724.227 1173.65 731.389C1176.35 733.67 1179.26 736.004 1181.53 738.719C1183.9 741.551 1185.71 745.113 1188.25 747.747C1189.8 749.364 1188.21 743.55 1188.08 743.029C1187.06 739.17 1185.77 735.303 1185.33 731.321C1183.93 718.753 1179.7 706.328 1175.69 694.397C1171.69 682.505 1171.45 670.286 1170.53 657.949C1169.45 643.473 1165.04 629.313 1164.59 614.679C1164.18 601.032 1164.17 587.16 1164.59 573.513C1164.71 569.696 1165.21 552.027 1171.75 551.793C1178.14 551.565 1182.42 563.939 1184.11 568.49C1187.46 577.535 1191.04 586.488 1194.49 595.504C1199.41 608.347 1201.62 622.442 1204.27 635.89C1206.95 649.561 1207.4 663.379 1209.53 677.089C1210.57 683.833 1212.43 690.4 1213.43 697.18C1214.2 702.44 1214.54 707.667 1215.26 712.927C1216.36 720.922 1215.44 729.565 1217.84 737.362C1218.57 739.735 1218.32 736.802 1218.32 735.903C1218.32 731.198 1217.87 726.578 1217.57 721.886C1216.49 705.382 1214.56 688.876 1214.07 672.338C1213.33 647.188 1212.21 622.024 1212.21 596.862C1212.21 586.482 1211.41 575.16 1213.16 564.927C1213.98 560.097 1216 550.58 1220.89 548.467C1225.53 546.466 1229.47 544.463 1234.67 544.463C1238.83 544.463 1241.54 543.261 1242.44 547.789C1244.42 557.671 1244.31 568.034 1244.62 578.061C1244.85 585.742 1245.8 593.288 1245.8 601.002C1245.8 608.498 1245.69 615.917 1245.33 623.401C1244.1 648.836 1249.11 675.064 1253.44 700.065C1255 709.058 1256.49 717.851 1256.8 726.977C1256.84 728.142 1257.04 730.893 1257.75 728.572C1259.44 723.007 1258.72 716.595 1258.6 710.857C1258.2 691.875 1256.97 673.01 1258.29 654.046C1259.27 640.03 1258.77 625.795 1264.13 612.541C1266.75 606.065 1268.31 599.344 1270.85 592.857C1272.31 589.121 1278.31 588.559 1281.85 589.362C1286.54 590.428 1291.63 589.972 1296.17 591.839C1300.19 593.495 1299.43 603.626 1299.09 606.839C1297.75 619.368 1297.46 631.863 1295.62 644.374C1294.39 652.798 1293.16 661.206 1291.89 669.623C1290.29 680.256 1287.46 690.64 1286.12 701.321C1285.04 709.944 1285.08 718.99 1283.2 727.452C1282.64 730.001 1281.56 732.414 1281.27 735.054C1280.71 740.09 1283.86 732.706 1284.59 731.355C1289.42 722.44 1292.8 712.939 1297.12 703.764C1299.77 698.127 1303.11 692.849 1306.25 687.474C1309.11 682.563 1313.04 676.786 1318.23 674.103C1321.39 672.467 1324.99 671.851 1328.31 670.607C1331.69 669.338 1335.2 670.105 1338.66 669.386C1342.16 668.655 1347.21 669.697 1347.21 673.967C1347.21 681.964 1346.51 689.624 1345.99 697.553C1345.32 707.752 1341.69 717.162 1338.05 726.57C1335.73 732.547 1333.91 735.937 1329.15 740.416C1323.84 745.425 1319.34 751.2 1314.09 756.299C1307.66 762.53 1300.27 768.342 1295.42 775.982C1289.54 785.245 1286.85 794.587 1284.26 805.134C1278.98 826.55 1279.97 848.746 1278.04 870.599C1277.34 878.622 1275.34 886.626 1274.55 894.525C1274.41 895.875 1273.9 903.309 1273.9 898.156" stroke="#1E1E1E" stroke-width="7.0273" stroke-linecap="round" stroke-linejoin="round"/>
<path d="M1238.47 559.734C1238.47 565.128 1237.55 570.802 1236.51 576.228C1236.01 578.813 1234.15 580.536 1231.72 581.386C1229.3 582.234 1225.8 584.169 1223.2 584.169C1221.36 584.169 1221.44 576.458 1221.44 574.972C1221.44 572.628 1222.11 570.374 1221.95 568.015C1221.83 566.28 1221.06 564.537 1221.51 562.789C1222.91 557.342 1231.46 557.756 1235.42 559.734" stroke="#1E1E1E" stroke-width="7.0273" stroke-linecap="round" stroke-linejoin="round"/>
<path d="M1184.11 569.508C1185.27 568.344 1185.25 568.744 1185.46 570.119C1186.12 574.309 1187.08 578.708 1187.16 582.947C1187.27 589.192 1185.49 591.497 1179.52 593.332C1176.52 594.258 1170.74 598.536 1170.09 592.654C1169.72 589.336 1168.05 584.276 1171.28 582.337" stroke="#1E1E1E" stroke-width="7.0273" stroke-linecap="round" stroke-linejoin="round"/>
<path d="M1181.05 570.119C1182.36 569.465 1182.6 568.61 1181.53 567.54C1179.76 565.777 1176.59 566.262 1174.47 567.201C1170.85 568.802 1170.03 573.807 1169.58 577.314C1169.39 578.77 1168.02 584.785 1169.45 580.504" stroke="#1E1E1E" stroke-width="7.0273" stroke-linecap="round" stroke-linejoin="round"/>
<path d="M1110.19 708.176C1110.19 707.008 1112.49 708.154 1112.97 708.549C1115.02 710.224 1115.08 710.51 1115.08 713.131C1115.08 716.72 1114.23 728.945 1108.97 728.945C1107.52 728.945 1105.3 729.362 1103.95 728.81C1101.33 727.744 1101.1 721.358 1100.42 719.036C1099.68 716.503 1096.43 708.286 1099.74 706.207C1102.42 704.524 1110.33 704.176 1112.02 707.565" stroke="#1E1E1E" stroke-width="7.0273" stroke-linecap="round" stroke-linejoin="round"/>
<path d="M1289.18 603.106C1292.73 603.106 1294.61 604.984 1296.1 608.468C1298.77 614.742 1292.02 618.916 1286.73 618.989C1281.02 619.067 1272.17 613.547 1270.99 607.518C1269.96 602.27 1285.22 602.495 1288.57 602.495" stroke="#1E1E1E" stroke-width="7.0273" stroke-linecap="round" stroke-linejoin="round"/>
<path d="M1332.55 677.021C1336.07 677.021 1336.8 685.287 1337.1 687.406C1337.99 693.773 1337.25 701.324 1330.44 704.239C1327.42 705.535 1323.64 701.72 1321.96 699.522C1319.46 696.246 1318.54 690.826 1317.65 686.863C1315.26 676.243 1331.53 675.915 1338.05 678.243" stroke="#1E1E1E" stroke-width="7.0273" stroke-linecap="round" stroke-linejoin="round"/>
<path d="M602.544 762.945H704.882" stroke="#1E1E1E" stroke-width="7.0273" stroke-linecap="round" stroke-linejoin="round"/>
<path d="M903.874 758.681H1115.66" stroke="#1E1E1E" stroke-width="7.0273" stroke-linecap="round" stroke-linejoin="round"/>
<path d="M1317.49 757.26H1468.16" stroke="#1E1E1E" stroke-width="7.0273" stroke-linecap="round" stroke-linejoin="round"/>
<path d="M1469.58 411.867V752.996" stroke="#1E1E1E" stroke-width="7.0273" stroke-linecap="round" stroke-linejoin="round"/>
<path d="M595.437 409.024H1471" stroke="#1E1E1E" stroke-width="7.0273" stroke-linecap="round" stroke-linejoin="round"/>
<path d="M595.437 414.71V765.788" stroke="#1E1E1E" stroke-width="7.0273" stroke-linecap="round" stroke-linejoin="round"/>
<path d="M626.707 453.087C626.707 449.77 626.707 446.454 626.707 443.137C626.707 433.464 627.585 462.465 628.207 472.117C628.347 474.277 629.155 486.819 632.393 487.2C639.263 488.008 645.834 488.621 653.002 488.621C658.189 488.621 664.998 491.387 669.98 489.964C671.981 489.392 669.348 458.461 669.348 453.403C669.348 442.053 654.002 445.98 646.054 445.98C641.681 445.98 626.707 445.143 626.707 448.823" stroke="#1E1E1E" stroke-width="7.0273" stroke-linecap="round" stroke-linejoin="round"/>
<path d="M690.669 443.137C693.017 443.137 692.09 443.368 692.09 446.849C692.09 457.665 693.165 468.243 693.511 478.987C693.646 483.148 692.891 492.27 698.644 491.385C706.762 490.136 713.003 489.354 721.228 489.964C725.564 490.285 736.152 494.352 736.152 487.989C736.152 473.519 737.574 459.159 737.574 444.717C737.574 436.892 723.353 440.24 718.148 440.295C710.287 440.376 703.345 441.813 695.801 443.769C690.617 445.113 690.418 443.974 694.933 441.716" stroke="#1E1E1E" stroke-width="7.0273" stroke-linecap="round" stroke-linejoin="round"/>
<path d="M761.737 440.295C761.737 434.83 760.316 449.094 760.316 450.56C760.316 462.29 761.358 473.657 764.264 484.989C766.211 492.583 766.793 494.307 774.845 494.307C786.58 494.307 798.278 495.728 809.906 495.728C817.97 495.728 813.194 486.642 812.985 480.488C812.649 470.555 813.34 460.598 814.328 450.718C814.572 448.271 814.762 443.832 816.46 441.795C817.105 441.021 790.631 438.873 787.401 438.873C783.655 438.873 759.193 437.347 768.844 443.137" stroke="#1E1E1E" stroke-width="7.0273" stroke-linecap="round" stroke-linejoin="round"/>
<path d="M845.598 436.03C841.372 431.805 841.492 444.305 841.413 446.217C840.973 456.768 837.858 475.353 842.755 485.147C844.799 489.235 857.456 487.343 861.312 487.91C868.88 489.023 879.763 490.233 887.37 488.542C889.007 488.179 887.291 484.948 887.133 484.041C885.951 477.243 887.309 469.765 888.239 463.036C889.447 454.296 893.924 443.938 893.924 435.32C893.924 428.604 869.497 431.766 865.497 431.766C863.152 431.766 835.287 431.766 848.44 431.766" stroke="#1E1E1E" stroke-width="7.0273" stroke-linecap="round" stroke-linejoin="round"/>
<path d="M930.88 431.766C930.88 429.783 930.527 425.17 927.405 428.292C925.469 430.228 926.651 435.977 926.537 438.32C926.092 447.449 925.687 456.782 924.879 465.879C924.214 473.352 920.422 485.178 931.67 484.278C942.303 483.427 951.522 482.345 962.15 482.936C963.211 482.995 966.334 484.386 966.414 482.936C966.708 477.638 966.297 472.29 966.493 466.985C966.918 455.501 971.284 444.696 970.678 433.188C970.32 426.376 953.457 429.24 949.91 429.634C947.44 429.909 922.049 430.974 932.301 428.924" stroke="#1E1E1E" stroke-width="7.0273" stroke-linecap="round" stroke-linejoin="round"/>
<path d="M921.187 518.218C921.187 516.235 920.834 511.621 917.712 514.743C915.776 516.679 916.958 522.428 916.844 524.772C916.398 533.9 915.994 543.234 915.185 552.331C914.521 559.804 910.729 571.629 921.976 570.73C932.61 569.879 941.829 568.797 952.457 569.387C953.518 569.446 956.64 570.837 956.721 569.387C957.015 564.09 956.603 558.742 956.8 553.436C957.225 541.952 961.591 531.148 960.985 519.639C960.627 512.828 943.763 515.692 940.217 516.086C937.747 516.36 912.356 517.426 922.608 515.375" stroke="#1E1E1E" stroke-width="7.0273" stroke-linecap="round" stroke-linejoin="round"/>
<path d="M1014.74 427.502C1013.03 427.502 1011.85 427.782 1010.79 429.24C1009.73 430.695 1010.48 434.77 1010.48 436.346C1010.48 445.205 1009.45 453.959 1009.13 462.8C1008.74 473.774 1008.39 479.854 1019.72 482.225C1028.09 483.978 1037.14 485.473 1045.69 485.778C1051.58 485.989 1049.78 482.864 1050.91 477.724C1053.94 463.886 1057.57 450.744 1065.2 438.873C1068.54 433.683 1066.77 432.36 1060.54 431.056C1045.92 427.996 1030.93 427.926 1016.16 426.081" stroke="#1E1E1E" stroke-width="7.0273" stroke-linecap="round" stroke-linejoin="round"/>
<path d="M1005.05 513.954C1003.33 513.954 1002.16 514.233 1001.1 515.691C1000.04 517.147 1000.78 521.222 1000.78 522.798C1000.78 531.656 999.757 540.41 999.441 549.251C999.049 560.225 998.693 566.305 1010.02 568.676C1018.4 570.429 1027.45 571.924 1036 572.23C1041.89 572.44 1040.09 569.315 1041.21 564.175C1044.25 550.337 1047.87 537.196 1055.51 525.325C1058.84 520.135 1057.08 518.812 1050.85 517.507C1036.23 514.448 1021.23 514.378 1006.47 512.532" stroke="#1E1E1E" stroke-width="7.0273" stroke-linecap="round" stroke-linejoin="round"/>
<path d="M1108.55 433.188C1101.32 425.96 1099.14 464.876 1099.47 467.853C1102.14 491.853 1117.45 481.514 1134.77 481.514C1138.34 481.514 1150.32 484.158 1149.69 478.514C1148.28 465.773 1146.57 451.811 1149.77 439.189C1152.26 429.392 1148.56 428.631 1138.16 429.003C1129.41 429.315 1120.68 430.5 1112.03 431.766C1108.15 432.333 1095.72 433.182 1105.71 434.609" stroke="#1E1E1E" stroke-width="7.0273" stroke-linecap="round" stroke-linejoin="round"/>
<path d="M1107.4 519.402C1100.17 512.174 1097.99 551.091 1098.32 554.068C1100.99 578.068 1116.3 567.729 1133.62 567.729C1137.19 567.729 1149.17 570.373 1148.54 564.728C1147.13 551.988 1145.41 538.025 1148.62 525.404C1151.11 515.606 1147.41 514.846 1137.01 515.217C1128.26 515.53 1119.53 516.714 1110.88 517.981C1107 518.548 1094.57 519.396 1104.56 520.824" stroke="#1E1E1E" stroke-width="7.0273" stroke-linecap="round" stroke-linejoin="round"/>
<path d="M1198.1 426.081C1198.1 425.101 1199.52 419.387 1199.52 422.133C1199.52 436.737 1197.45 450.947 1196.75 465.484C1196.21 476.826 1202.51 475.829 1212.31 475.829C1214.59 475.829 1231.59 477.412 1232.13 474.96C1234.64 463.692 1236.46 452.487 1242.08 442.111C1244.15 438.294 1252.59 429.598 1250.37 424.659C1246.2 415.384 1225.47 416.289 1217.44 416.289C1214.51 416.289 1191.06 418.274 1203.78 420.395" stroke="#1E1E1E" stroke-width="7.0273" stroke-linecap="round" stroke-linejoin="round"/>
<path d="M1280.54 420.395C1280.54 417.371 1281.96 421.211 1281.96 422.606C1281.96 429.319 1281.96 436.031 1281.96 442.743C1281.96 453.87 1283.08 464.757 1283.38 475.829C1283.48 479.692 1285.41 484.286 1289.38 485.463C1302.12 489.237 1317.9 487.2 1331.07 487.2C1339.34 487.2 1347.6 487.2 1355.87 487.2C1365.17 487.2 1376.91 488.215 1385.72 485.068C1393.76 482.194 1403.36 486.594 1411.3 483.252C1415.66 481.419 1422.86 481.514 1427.65 481.514C1436.54 481.514 1434.93 480.817 1432.31 472.67C1426.72 455.301 1429.78 434.337 1429.78 416.131C1429.78 407.693 1426.23 409.088 1419.2 410.367C1409.34 412.159 1399.33 411.909 1389.35 413.604C1383.32 414.629 1377.51 414.122 1371.5 414.789C1365.95 415.407 1360.66 418.049 1355.16 418.895C1344.06 420.602 1334.84 426.081 1323.49 426.081C1314.55 426.081 1305.31 427.502 1296.09 427.502C1292.37 427.502 1277.78 427.667 1276.27 424.66" stroke="#1E1E1E" stroke-width="7.0273" stroke-linecap="round" stroke-linejoin="round"/>
<path d="M1284.84 510.457C1284.84 507.433 1286.26 511.272 1286.26 512.668C1286.26 519.38 1286.26 526.092 1286.26 532.804C1286.26 543.931 1287.39 554.818 1287.68 565.89C1287.79 569.753 1289.72 574.348 1293.69 575.524C1306.43 579.299 1322.2 577.261 1335.38 577.261C1343.64 577.261 1351.91 577.261 1360.17 577.261C1369.48 577.261 1381.21 578.276 1390.02 575.129C1398.07 572.256 1407.67 576.656 1415.61 573.313C1419.96 571.48 1427.17 571.576 1431.95 571.576C1440.84 571.576 1439.23 570.879 1436.61 562.732C1431.03 545.363 1434.09 524.398 1434.09 506.193C1434.09 497.754 1430.54 499.149 1423.5 500.428C1413.65 502.22 1403.64 501.971 1393.66 503.666C1387.62 504.691 1381.82 504.183 1375.81 504.85C1370.25 505.468 1364.96 508.11 1359.46 508.957C1348.37 510.664 1339.15 516.142 1327.8 516.142C1318.85 516.142 1309.61 517.564 1300.4 517.564C1296.67 517.564 1282.08 517.728 1280.58 514.721" stroke="#1E1E1E" stroke-width="7.0273" stroke-linecap="round" stroke-linejoin="round"/>
<path d="M933.329 673.146C933.329 670.121 934.751 673.961 934.751 675.357C934.751 682.069 934.751 688.781 934.751 695.493C934.751 706.62 935.873 717.507 936.172 728.579C936.277 732.442 938.203 737.036 942.173 738.213C954.914 741.988 970.688 739.95 983.867 739.95C992.132 739.95 1000.4 739.95 1008.66 739.95C1017.96 739.95 1029.7 740.965 1038.51 737.818C1046.56 734.945 1056.16 739.344 1064.1 736.002C1068.45 734.169 1075.66 734.265 1080.44 734.265C1089.33 734.265 1087.72 733.568 1085.1 725.421C1079.52 708.051 1082.57 687.087 1082.57 668.882C1082.57 660.443 1079.03 661.838 1071.99 663.117C1062.14 664.909 1052.13 664.66 1042.14 666.355C1036.11 667.379 1030.3 666.872 1024.3 667.539C1018.74 668.157 1013.45 670.799 1007.95 671.645C996.855 673.352 987.634 678.831 976.286 678.831C967.339 678.831 958.098 680.253 948.886 680.253C945.16 680.253 930.569 680.417 929.065 677.41" stroke="#1E1E1E" stroke-width="7.0273" stroke-linecap="round" stroke-linejoin="round"/>
<path d="M629.822 526.39C629.822 523.073 629.822 519.757 629.822 516.44C629.822 506.767 630.7 535.768 631.323 545.42C631.462 547.58 632.27 560.122 635.508 560.503C642.378 561.311 648.949 561.924 656.118 561.924C661.305 561.924 668.113 564.69 673.095 563.267C675.096 562.695 672.463 531.764 672.463 526.706C672.463 515.356 657.117 519.283 649.169 519.283C644.796 519.283 629.822 518.446 629.822 522.126" stroke="#1E1E1E" stroke-width="7.0273" stroke-linecap="round" stroke-linejoin="round"/>
<path d="M635.049 595.647C635.049 592.331 635.049 589.014 635.049 585.698C635.049 576.025 635.927 605.025 636.55 614.678C636.689 616.837 637.497 629.379 640.735 629.76C647.605 630.568 654.176 631.181 661.345 631.181C666.531 631.181 673.34 633.947 678.322 632.524C680.323 631.952 677.69 601.021 677.69 595.963C677.69 584.613 662.344 588.54 654.396 588.54C650.023 588.54 635.049 587.703 635.049 591.383" stroke="#1E1E1E" stroke-width="7.0273" stroke-linecap="round" stroke-linejoin="round"/>
<path d="M691.239 514.826C693.587 514.826 692.66 515.057 692.66 518.537C692.66 529.354 693.735 539.932 694.082 550.676C694.216 554.837 693.462 563.959 699.214 563.074C707.333 561.825 713.573 561.043 721.798 561.652C726.134 561.973 736.723 566.04 736.723 559.678C736.723 545.208 738.144 530.848 738.144 516.405C738.144 508.581 723.923 511.929 718.719 511.983C710.858 512.065 703.915 513.502 696.372 515.458C691.188 516.802 690.988 515.662 695.503 513.405" stroke="#1E1E1E" stroke-width="7.0273" stroke-linecap="round" stroke-linejoin="round"/>
<path d="M847.719 517.848C847.719 524.598 849.38 531.265 849.38 538.058C849.38 541.657 849.38 552.454 849.38 548.855" stroke="#1E1E1E" stroke-width="7.0273" stroke-linecap="round" stroke-linejoin="round"/>
<path d="M846.612 518.401C855.525 518.401 864.273 516.187 873.189 516.187C875.696 516.187 876.53 517.057 878.726 518.155C882.115 519.85 881.495 528.808 881.495 531.721C881.495 538.992 880.946 546.157 882.848 553.223C883.539 555.788 883.727 557.873 881.064 558.699C876.801 560.022 871.953 560.295 867.529 560.483C862.764 560.686 858.065 561.037 853.256 561.037" stroke="#1E1E1E" stroke-width="7.0273" stroke-linecap="round" stroke-linejoin="round"/>
<path d="M847.719 548.302C850.168 548.574 849.38 554.216 849.38 556.053" stroke="#1E1E1E" stroke-width="7.0273" stroke-linecap="round" stroke-linejoin="round"/>
<path d="M771.862 512.311C771.862 521.769 770.754 531.175 770.754 540.673C770.754 547.522 769.647 554.21 769.647 561.037" stroke="#1E1E1E" stroke-width="7.0273" stroke-linecap="round" stroke-linejoin="round"/>
<path d="M775.184 517.294C784.837 517.294 794.4 516.427 803.73 519.786C805.888 520.563 808.668 521.724 810.867 521.724C813.363 521.724 817.986 520.588 819.265 522.862C822.831 529.202 823.561 536.805 824.894 543.872C825.702 548.153 826.125 552.712 826.125 557.069C826.125 560.574 825.567 559.307 822.802 560.36C819.747 561.524 816.052 560.096 812.805 561.314C810.929 562.017 806.334 561.448 805.084 562.698" stroke="#1E1E1E" stroke-width="7.0273" stroke-linecap="round" stroke-linejoin="round"/>
<path d="M696.558 588.168C698.689 588.968 696.182 599.652 696.004 601.057C695.532 604.775 694.897 608.099 694.897 611.854C694.897 615.804 694.311 620.229 696.004 623.913C696.787 625.618 697.921 628.45 699.665 629.388C701.315 630.277 704.382 629.696 706.217 629.696C708.742 629.696 711.821 629.215 714.245 629.973C717.52 630.996 715.064 628.107 714.276 626.374" stroke="#1E1E1E" stroke-width="7.0273" stroke-linecap="round" stroke-linejoin="round"/>
<path d="M699.88 584.292C700.164 586.846 705.143 587.426 706.893 587.645C714.596 588.608 722.519 590.937 730.303 590.937C733.266 590.937 736.23 590.937 739.193 590.937" stroke="#1E1E1E" stroke-width="7.0273" stroke-linecap="round" stroke-linejoin="round"/>
<path d="M807.299 603.118C809.739 603.118 812.179 603.118 814.62 603.118C817.182 603.118 819.184 604.226 821.695 604.226" stroke="#1E1E1E" stroke-width="7.0273" stroke-linecap="round" stroke-linejoin="round"/>
<path d="M858.239 599.796C859.624 600.142 858.77 609.028 858.793 610.316C858.86 614.006 859.832 617.665 859.9 621.391C859.93 622.969 859.852 628.202 861.439 628.712C864.288 629.628 867.568 629.734 870.513 630.25C875.207 631.071 880.006 633.115 884.694 633.541C889.112 633.943 888.651 628.085 889.308 624.836C890.865 617.138 894.784 608.884 894.784 600.934C894.784 596.625 869.313 596.006 869.313 598.689" stroke="#1E1E1E" stroke-width="7.0273" stroke-linecap="round" stroke-linejoin="round"/>
<path d="M914.164 598.135C916.096 600.792 914.717 608.019 914.717 610.932C914.717 615.726 913.692 621.837 914.748 626.589C915.172 628.496 935.429 628.131 937.665 628.312C941.884 628.654 946.596 628.571 950.647 629.973C952.181 630.504 953.699 631.11 955.322 631.326C959.232 631.848 962.487 602.348 959.444 601.334C957.224 600.594 954.724 600.308 952.431 599.919C943.471 598.398 934.56 596.624 925.607 595.059C920.545 594.174 914.493 592.29 909.303 592.29C908.572 592.29 912.501 594.259 912.502 594.259" stroke="#1E1E1E" stroke-width="7.0273" stroke-linecap="round" stroke-linejoin="round"/>
<path d="M998.88 598.689C1002.11 599.497 998.154 617.225 997.896 619.729C997.64 622.215 996.813 627.744 999.803 629.019C1004.65 631.087 1011.26 631.321 1016.41 631.665C1023.34 632.126 1030.59 632.294 1037.52 631.665C1041.21 631.329 1045.41 631.029 1049.02 630.127C1050.32 629.801 1050.25 626.438 1050.44 625.543C1051.68 619.681 1052.51 613.723 1054 607.917C1054.92 604.38 1056.62 600.775 1056.99 597.12C1057.04 596.615 1057.26 595.562 1056.62 595.366C1050.95 593.623 1043.34 595.18 1037.7 596.012C1029.2 597.268 1021.03 598.689 1012.42 598.689C1009.89 598.689 1007.25 598.479 1004.73 598.719C1003.89 598.799 999.891 600.025 1001.65 600.903" stroke="#1E1E1E" stroke-width="7.0273" stroke-linecap="round" stroke-linejoin="round"/>
<path d="M1101.32 593.705C1103.27 600.53 1102.42 608.305 1102.42 615.3C1102.42 618.437 1102.42 621.575 1102.42 624.713C1102.42 627.07 1102.81 626.9 1105.16 627.235C1115.36 628.692 1125.73 627.967 1135.77 630.557C1141.73 632.095 1140.79 628.396 1140.32 623.452C1139.67 616.61 1139.4 610.062 1141.46 603.426C1143.02 598.383 1141.08 598.679 1135.71 598.135C1127.7 597.325 1118.94 595.968 1110.85 596.535C1109.95 596.599 1104.44 596.744 1104.12 597.889C1103.76 599.14 1114.67 595.521 1115.16 595.366" stroke="#1E1E1E" stroke-width="7.0273" stroke-linecap="round" stroke-linejoin="round"/>
<path d="M1209.84 513.972C1208.34 516.68 1206.38 518.902 1205.75 522.062C1204.92 526.219 1205.41 530.787 1205.41 535.013C1205.41 539.592 1207.07 543.662 1207.07 548.301C1207.07 549.955 1207.04 554.666 1208.3 555.93C1209.02 556.645 1212.66 557.853 1212.06 556.053" stroke="#1E1E1E" stroke-width="7.0273" stroke-linecap="round" stroke-linejoin="round"/>
<path d="M1209.84 516.187C1216.67 516.187 1223.5 516.258 1230.33 516.187C1235.11 516.137 1239.53 514.526 1244.2 514.526C1247.64 514.526 1248.41 515.903 1250.82 518.401C1253.06 520.731 1257.99 525.478 1258.51 528.676C1258.99 531.677 1259.68 535.046 1259.68 538.089C1259.68 542.48 1257.5 546.753 1256.35 550.947C1255.33 554.683 1256.1 554.951 1251.95 555.469C1250.54 555.645 1249.14 554.997 1248.6 556.607" stroke="#1E1E1E" stroke-width="7.0273" stroke-linecap="round" stroke-linejoin="round"/>
<path d="M1301.76 602.565C1305.04 600.547 1312.48 602.011 1316.03 602.011C1327.9 602.011 1339.78 602.011 1351.65 602.011C1358.62 602.011 1366.45 601.533 1373.25 603.364C1381.72 605.646 1391.61 605.333 1400.32 605.333C1404.06 605.333 1407.93 605.627 1411.67 605.302C1416.66 604.868 1421.7 604.576 1426.77 604.779C1427.5 604.809 1428.49 605.561 1429.14 605.887C1430.44 606.536 1431.98 606.485 1433.26 607.056C1434.43 607.576 1434.68 609.468 1434.89 610.501C1435.8 614.892 1436.56 619.144 1436.98 623.605C1437.31 627.112 1437.97 630.461 1437.97 634.003C1437.97 634.744 1438.44 637.882 1437.84 638.432C1435.05 641.024 1426.06 639.663 1422.83 639.663C1413.24 639.663 1403.76 638.928 1394.19 638.586C1380.55 638.099 1367.45 639.951 1353.93 641.078C1346.65 641.684 1339.33 640.848 1332.18 642.708C1329.27 643.467 1326.56 643.788 1323.66 644.369C1317.48 645.605 1311.94 644.888 1306.06 642.862C1303.67 642.035 1301.47 641.659 1299.02 641.047C1297.4 640.643 1294.61 641.464 1294 639.663" stroke="#1E1E1E" stroke-width="7.0273" stroke-linecap="round" stroke-linejoin="round"/>
<path d="M1211.5 603.118C1209.7 603.118 1200.98 602.134 1200.98 604.226" stroke="#1E1E1E" stroke-width="7.0273" stroke-linecap="round" stroke-linejoin="round"/>
<path d="M1246.94 603.672C1249.97 603.672 1263.55 603.861 1263.55 608.102" stroke="#1E1E1E" stroke-width="7.0273" stroke-linecap="round" stroke-linejoin="round"/>
<path d="M1247.49 634.679C1250.19 636.835 1253.88 635.457 1256.78 636.464C1257.55 636.729 1260.55 637.53 1260.78 638.002" stroke="#1E1E1E" stroke-width="7.0273" stroke-linecap="round" stroke-linejoin="round"/>
<path d="M1119.03 665.687C1120.57 670.669 1117.87 675.499 1116.08 680.022C1114.35 684.406 1114.05 689.244 1114.05 693.926C1114.05 696.197 1114.75 697.544 1115.71 699.463" stroke="#1E1E1E" stroke-width="7.0273" stroke-linecap="round" stroke-linejoin="round"/>
<path d="M1124.02 664.026C1132.02 664.026 1140.17 663.581 1148.07 664.979C1151.6 665.603 1160.13 666.896 1162.1 670.916C1164.36 675.517 1163.65 682.648 1163.85 687.651C1164.03 691.946 1163.88 696.271 1163.88 700.57C1163.88 705.212 1163.61 709.87 1162.35 714.29C1161.56 717.034 1163.57 721.431 1161.12 723.272" stroke="#1E1E1E" stroke-width="7.0273" stroke-linecap="round" stroke-linejoin="round"/>
<path d="M1348.82 677.315C1351.84 677.315 1354.85 677.272 1357.87 677.315C1371.82 677.511 1385.51 681.272 1399.52 680.268C1405.33 679.851 1411.11 677.978 1416.93 677.868C1420.03 677.81 1419.43 679.748 1419.97 682.606C1421.63 691.268 1423.07 701.159 1421.79 709.983C1421.34 713.034 1421.61 716.7 1420.77 719.642C1420.59 720.289 1415.59 720.725 1415.05 720.842C1406.09 722.784 1396.87 723.944 1387.7 724.318C1383.16 724.503 1378.1 724.961 1373.71 723.549C1370.51 722.52 1367.33 721.954 1364.02 721.488C1360.17 720.946 1356.33 719.396 1352.42 719.396C1346.6 719.396 1342.39 718.748 1336.64 717.181" stroke="#1E1E1E" stroke-width="7.0273" stroke-linecap="round" stroke-linejoin="round"/>
<path d="M669.426 679.529C663.493 679.2 657.768 677.868 651.831 677.868C649.759 677.868 647.688 677.868 645.617 677.868C644.249 677.868 641.051 677.234 639.834 677.93C639.244 678.267 638.744 680.064 638.296 680.637C636.941 682.369 635.538 683.979 634.912 686.143C633.787 690.029 633.907 696.615 635.127 700.478C636.423 704.58 636.758 709.763 636.758 714.105C636.758 715.135 636.114 724.23 637.311 724.38C643.423 725.143 649.697 726.041 656.106 726.041C659.37 726.041 662.466 725.129 665.766 725.518C668.311 725.817 670.663 727.148 673.302 727.148" stroke="#1E1E1E" stroke-width="7.0273" stroke-linecap="round" stroke-linejoin="round"/>
<path d="M1068.65 409.119C1088.09 378.234 1105.78 342.53 1118.21 308.232C1127.2 283.431 1138.99 266.405 1129.35 240.926C1117.03 208.369 1128.05 183.325 1139.91 153.676C1145.14 140.592 1146.55 128.858 1149.15 114.817C1151.94 99.774 1156.97 79.7487 1149.15 65.8403C1143.16 55.193 1136.01 41.4033 1134.63 29.0343C1133.75 21.1166 1120.79 0 1113.52 0" stroke="#1E1E1E" stroke-width="7.44589" stroke-linecap="round" stroke-linejoin="round"/>
<rect x="81" y="83" width="749.015" height="210.819" rx="6" fill="white" stroke="#1E1E1E" stroke-width="4" stroke-linecap="round"/>
<path d="M167.012 210.203C164.088 210.203 161.39 209.659 158.916 208.572C156.48 207.485 154.381 206.005 152.62 204.131L155.712 200.533C157.174 202.07 158.898 203.307 160.884 204.243C162.87 205.18 164.932 205.649 167.068 205.649C169.804 205.649 171.922 205.031 173.421 203.794C174.957 202.557 175.726 200.945 175.726 198.959C175.726 197.497 175.407 196.335 174.77 195.473C174.17 194.611 173.346 193.899 172.296 193.337C171.284 192.737 170.123 192.157 168.811 191.594L162.908 189.008C161.634 188.446 160.341 187.734 159.029 186.872C157.754 186.01 156.686 184.886 155.824 183.499C154.962 182.112 154.531 180.426 154.531 178.439C154.531 176.303 155.093 174.429 156.218 172.817C157.342 171.168 158.879 169.875 160.828 168.938C162.777 168.001 165.007 167.533 167.518 167.533C169.991 167.533 172.259 168.001 174.32 168.938C176.419 169.875 178.18 171.093 179.605 172.593L176.906 175.909C175.632 174.748 174.226 173.829 172.69 173.155C171.191 172.443 169.467 172.087 167.518 172.087C165.194 172.087 163.32 172.63 161.896 173.717C160.509 174.766 159.816 176.209 159.816 178.046C159.816 179.395 160.153 180.501 160.828 181.363C161.54 182.225 162.421 182.918 163.47 183.443C164.519 183.967 165.588 184.473 166.674 184.961L172.521 187.49C174.095 188.165 175.519 188.971 176.794 189.908C178.106 190.845 179.136 192.007 179.886 193.393C180.635 194.78 181.01 196.485 181.01 198.509C181.01 200.683 180.448 202.669 179.324 204.468C178.199 206.23 176.588 207.635 174.489 208.685C172.39 209.697 169.898 210.203 167.012 210.203ZM188.471 209.472V168.264H193.643V209.472H188.471ZM227.913 193.506H232.58V201.882H227.913V193.506ZM250.176 162.979H254.842V213.857H250.176V162.979ZM214.365 204.187L213.69 200.252C216.913 200.215 220.399 200.177 224.147 200.14C227.895 200.102 231.718 199.971 235.615 199.746C239.513 199.521 243.28 199.165 246.915 198.678L247.253 202.163C243.505 202.763 239.701 203.213 235.84 203.513C231.98 203.775 228.213 203.962 224.54 204.075C220.867 204.15 217.476 204.187 214.365 204.187ZM214.758 169.219H245.622V172.986H214.758V169.219ZM230.162 175.853C232.598 175.853 234.735 176.247 236.571 177.034C238.408 177.821 239.832 178.926 240.844 180.351C241.893 181.737 242.418 183.386 242.418 185.298C242.418 187.172 241.893 188.821 240.844 190.245C239.832 191.669 238.408 192.775 236.571 193.562C234.735 194.312 232.598 194.686 230.162 194.686C227.764 194.686 225.646 194.312 223.809 193.562C221.973 192.775 220.549 191.669 219.537 190.245C218.525 188.821 218.019 187.172 218.019 185.298C218.019 183.386 218.525 181.737 219.537 180.351C220.549 178.926 221.973 177.821 223.809 177.034C225.646 176.247 227.764 175.853 230.162 175.853ZM230.162 179.507C227.913 179.507 226.058 180.032 224.597 181.082C223.135 182.131 222.404 183.536 222.404 185.298C222.404 187.022 223.135 188.409 224.597 189.458C226.058 190.507 227.913 191.032 230.162 191.032C232.486 191.032 234.36 190.507 235.784 189.458C237.246 188.409 237.977 187.022 237.977 185.298C237.977 183.536 237.246 182.131 235.784 181.082C234.36 180.032 232.486 179.507 230.162 179.507ZM227.913 163.035H232.58V171.243H227.913V163.035ZM276.931 167.364H280.754V176.472C280.754 179.283 280.398 182.037 279.686 184.736C279.012 187.434 278.037 189.964 276.763 192.325C275.489 194.686 273.989 196.785 272.265 198.622C270.541 200.458 268.667 201.92 266.644 203.007L263.776 199.24C265.65 198.303 267.374 197.048 268.948 195.473C270.56 193.862 271.966 192.025 273.165 189.964C274.364 187.903 275.282 185.729 275.92 183.443C276.594 181.119 276.931 178.795 276.931 176.472V167.364ZM277.775 167.364H281.541V176.472C281.541 178.72 281.86 180.95 282.497 183.162C283.172 185.373 284.109 187.453 285.308 189.402C286.507 191.351 287.875 193.094 289.412 194.63C290.986 196.167 292.673 197.385 294.472 198.284L291.604 201.995C289.618 200.983 287.782 199.596 286.095 197.835C284.446 196.073 282.984 194.068 281.71 191.819C280.473 189.533 279.499 187.097 278.787 184.511C278.112 181.887 277.775 179.208 277.775 176.472V167.364ZM298.913 162.979H303.579V213.857H298.913V162.979ZM302.511 183.555H311.899V187.547H302.511V183.555ZM341.052 166.914C343.563 166.914 345.774 167.645 347.685 169.107C349.597 170.531 351.096 172.574 352.183 175.235C353.27 177.896 353.813 181.025 353.813 184.623C353.813 188.221 353.27 191.351 352.183 194.012C351.096 196.673 349.597 198.734 347.685 200.196C345.774 201.657 343.563 202.388 341.052 202.388C338.578 202.388 336.367 201.657 334.418 200.196C332.506 198.734 331.007 196.673 329.92 194.012C328.833 191.351 328.29 188.221 328.29 184.623C328.29 181.025 328.833 177.896 329.92 175.235C331.007 172.574 332.506 170.531 334.418 169.107C336.367 167.645 338.578 166.914 341.052 166.914ZM341.052 171.075C339.44 171.075 337.997 171.637 336.723 172.761C335.486 173.848 334.512 175.422 333.799 177.484C333.087 179.507 332.731 181.887 332.731 184.623C332.731 187.359 333.087 189.758 333.799 191.819C334.512 193.843 335.486 195.417 336.723 196.542C337.997 197.666 339.459 198.228 341.108 198.228C342.719 198.228 344.144 197.666 345.38 196.542C346.655 195.417 347.629 193.843 348.304 191.819C349.016 189.758 349.372 187.359 349.372 184.623C349.372 181.887 349.016 179.507 348.304 177.484C347.629 175.422 346.655 173.848 345.38 172.761C344.144 171.637 342.701 171.075 341.052 171.075ZM361.965 162.979H366.631V213.857H361.965V162.979ZM365.563 183.274H374.951V187.209H365.563V183.274ZM384.504 186.76H419.416V190.526H384.504V186.76ZM378.657 203.569H424.756V207.448H378.657V203.569ZM399.289 188.39H403.899V205.087H399.289V188.39ZM384.504 167.027H418.91V170.906H389.17V188.446H384.504V167.027ZM429.755 203.344H475.855V207.279H429.755V203.344ZM450.275 191.032H454.885V204.637H450.275V191.032ZM450.107 166.352H454.21V170.288C454.21 172.499 453.817 174.579 453.03 176.528C452.28 178.439 451.231 180.238 449.882 181.925C448.532 183.574 446.977 185.054 445.216 186.366C443.491 187.678 441.636 188.783 439.65 189.683C437.664 190.582 435.64 191.238 433.578 191.651L431.554 187.772C433.353 187.472 435.134 186.947 436.895 186.197C438.694 185.41 440.381 184.473 441.955 183.386C443.529 182.262 444.934 181.025 446.171 179.676C447.408 178.289 448.364 176.809 449.038 175.235C449.75 173.623 450.107 171.974 450.107 170.288V166.352ZM450.95 166.352H454.998V170.288C454.998 172.012 455.354 173.661 456.066 175.235C456.778 176.809 457.752 178.289 458.989 179.676C460.226 181.025 461.631 182.262 463.205 183.386C464.817 184.511 466.504 185.448 468.265 186.197C470.064 186.947 471.863 187.472 473.662 187.772L471.638 191.651C469.577 191.238 467.553 190.582 465.567 189.683C463.58 188.783 461.706 187.678 459.945 186.366C458.183 185.054 456.628 183.574 455.279 181.925C453.929 180.238 452.861 178.421 452.074 176.472C451.325 174.523 450.95 172.461 450.95 170.288V166.352ZM480.854 203.4H526.953V207.336H480.854V203.4ZM484.901 168.095H522.624V171.918H484.901V168.095ZM485.014 189.514H522.511V193.337H485.014V189.514ZM492.772 171.581H497.438V189.964H492.772V171.581ZM510.087 171.581H514.697V189.964H510.087V171.581ZM537.855 190.414H572.766V194.18H537.855V190.414ZM531.952 203.4H578.051V207.279H531.952V203.4ZM537.855 167.364H572.26V171.187H542.577V191.538H537.855V167.364ZM541.115 178.664H571.136V182.431H541.115V178.664ZM633.57 162.979H638.067V213.857H633.57V162.979ZM625.362 183.443H635.144V187.266H625.362V183.443ZM612.263 169.557H616.704C616.704 172.817 616.385 176.003 615.748 179.114C615.111 182.225 614.062 185.223 612.6 188.109C611.176 190.957 609.246 193.637 606.81 196.148C604.373 198.622 601.338 200.889 597.702 202.95L595.004 199.634C599.276 197.235 602.668 194.518 605.179 191.482C607.69 188.446 609.489 185.167 610.576 181.644C611.701 178.083 612.263 174.335 612.263 170.4V169.557ZM596.971 169.557H613.781V173.38H596.971V169.557ZM622.326 164.328H626.711V211.327H622.326V164.328ZM648.182 165.115H652.792V172.368H667.128V165.115H671.737V187.266H648.182V165.115ZM652.792 176.022V183.499H667.128V176.022H652.792ZM680.901 162.979H685.567V189.233H680.901V162.979ZM683.487 173.942H693.044V177.765H683.487V173.942ZM653.242 191.651H685.567V204.019H657.964V211.608H653.41V200.533H680.957V195.361H653.242V191.651ZM653.41 209.528H687.366V213.295H653.41V209.528ZM700.123 186.478H704.227C707.9 186.478 711.086 186.46 713.784 186.422C716.52 186.347 719.05 186.197 721.374 185.973C723.698 185.748 726.04 185.448 728.401 185.073L728.907 188.783C726.434 189.196 724.016 189.514 721.655 189.739C719.294 189.927 716.726 190.058 713.953 190.133C711.18 190.208 707.938 190.245 704.227 190.245H700.123V186.478ZM700.123 166.071H724.297V169.894H704.789V188.39H700.123V166.071ZM703.272 176.134H722.892V179.845H703.272V176.134ZM734.192 163.035H738.858V193.337H734.192V163.035ZM706.026 195.867H738.858V213.182H706.026V195.867ZM734.304 199.577H710.58V209.359H734.304V199.577Z" fill="#1E1E1E"/>
<path d="M261.64 432.496C261.64 433.636 260.28 433.175 261.347 432.398C268.37 427.291 276.254 423.139 284.577 420.589C288.857 419.277 293.269 417.769 297.606 416.685C301.217 415.782 295.399 417.024 294.141 417.563" stroke="#1E1E1E" stroke-width="7.0273" stroke-linecap="round" stroke-linejoin="round"/>
<path d="M270.424 428.982C270.424 419.766 273.081 447.232 273.938 456.408C274.224 459.476 275.284 488.794 282.722 477.637C287.264 470.824 290.95 466.18 298.046 461.923C301.003 460.148 306.651 458.848 299.412 458.848" stroke="#1E1E1E" stroke-width="7.0273" stroke-linecap="round" stroke-linejoin="round"/>
<path d="M278.33 453.578C272.734 447.982 296.777 436.881 296.777 442.159" stroke="#1E1E1E" stroke-width="7.0273" stroke-linecap="round" stroke-linejoin="round"/>
<path d="M314.345 421.077C313.641 420.725 312.859 420.371 312.295 419.808C311.78 419.293 312.579 420.117 312.783 420.686C313.965 423.984 314.307 427.548 314.833 430.983C315.984 438.504 317.776 445.533 320.299 452.699C320.566 453.459 324.11 462.027 322.056 457.384C320.23 453.261 313.018 445.676 318.347 441.768C321.201 439.675 326.698 439.523 330.156 439.523" stroke="#1E1E1E" stroke-width="7.0273" stroke-linecap="round" stroke-linejoin="round"/>
<path d="M304.683 473.781C304.099 474.365 300.773 475.198 301.071 473.586C301.796 469.671 316.133 466.988 319.128 466.266C331.241 463.346 327.881 492.34 335.427 498.377" stroke="#1E1E1E" stroke-width="7.0273" stroke-linecap="round" stroke-linejoin="round"/>
<path d="M384.618 400.873C381.9 395.437 392.466 391.117 396.232 389.503C401.253 387.351 406.728 386.498 411.751 384.379C415.2 382.924 407.369 385.575 406.578 385.94" stroke="#1E1E1E" stroke-width="7.0273" stroke-linecap="round" stroke-linejoin="round"/>
<path d="M388.132 392.089C382.559 389.303 383.773 393.499 384.228 399.019C384.677 404.471 383.476 431.52 391.645 431.52C394.755 431.52 397.035 429.199 399.356 427.421C403.244 424.442 406.825 422.682 411.458 421.077C412.454 420.732 422.937 416.685 417.119 416.685" stroke="#1E1E1E" stroke-width="7.0273" stroke-linecap="round" stroke-linejoin="round"/>
<path d="M396.037 410.536C392.119 410.536 391.046 409.674 394.964 407.364C400.882 403.874 406.637 400.873 413.606 400.873" stroke="#1E1E1E" stroke-width="7.0273" stroke-linecap="round" stroke-linejoin="round"/>
<path d="M434.687 378.034C432.241 378.034 430.114 375.968 431.271 380.475C433.236 388.121 436.888 395.467 439.812 402.776C440.666 404.913 444.859 412.622 443.374 415.221C442.528 416.702 440.852 411.772 440.836 411.707C440.259 409.27 439.26 405.673 441.032 403.508C444.501 399.268 452.399 395.817 455.769 400.873" stroke="#1E1E1E" stroke-width="7.0273" stroke-linecap="round" stroke-linejoin="round"/>
<path d="M425.903 435.131C423.103 435.131 417.758 435.854 423.171 433.179C431.617 429.005 441 424.773 450.304 423.029C456.945 421.784 458.109 435.324 459.283 439.719C460.164 443.017 464.647 452.653 461.04 454.456" stroke="#1E1E1E" stroke-width="7.0273" stroke-linecap="round" stroke-linejoin="round"/>
<path d="M240.558 670.546C240.187 670.546 238.118 671.254 238.118 670.839C238.118 668.01 247.55 663.708 249.538 662.445C251.14 661.426 267.249 652.099 259.883 652.099" stroke="#1E1E1E" stroke-width="7.0273" stroke-linecap="round" stroke-linejoin="round"/>
<path d="M241.437 667.032C237.769 667.032 234.57 667.513 235.874 672.205C237.529 678.164 240.4 683.932 242.657 689.676C244.737 694.97 245.787 701.633 249.294 706.219C253.578 711.822 261.709 702.558 265.3 699.777C267.583 698.01 271.587 696.446 269.546 693.385" stroke="#1E1E1E" stroke-width="7.0273" stroke-linecap="round" stroke-linejoin="round"/>
<path d="M251.099 683.722C248.439 682.392 253.892 680.632 254.857 680.062C259.796 677.144 264.271 674.21 268.668 670.546" stroke="#1E1E1E" stroke-width="7.0273" stroke-linecap="round" stroke-linejoin="round"/>
<path d="M287.114 633.652C278.597 633.652 288.92 643.988 291.116 647.512C299.655 661.214 300.252 676.047 301.169 691.628" stroke="#1E1E1E" stroke-width="7.0273" stroke-linecap="round" stroke-linejoin="round"/>
<path d="M303.804 662.64C301.281 661.379 300.919 660.475 302.145 657.76C304.361 652.853 310.408 652.023 315.223 651.221" stroke="#1E1E1E" stroke-width="7.0273" stroke-linecap="round" stroke-linejoin="round"/>
<path d="M331.035 614.327C330.56 614.327 327.912 614.629 327.912 613.937C327.912 610.17 342.867 604.057 345.333 602.566C348.797 600.473 354.833 598.337 357.729 595.441C358.207 594.963 354.464 596.405 353.874 596.759" stroke="#1E1E1E" stroke-width="7.0273" stroke-linecap="round" stroke-linejoin="round"/>
<path d="M337.184 606.422C335.614 606.422 330.644 605.42 332.108 607.495C337.26 614.793 331.112 625.017 335.232 632.189C339.11 638.939 357.762 623.457 362.658 622.233" stroke="#1E1E1E" stroke-width="7.0273" stroke-linecap="round" stroke-linejoin="round"/>
<path d="M371.442 597.638C370.653 596.849 367.849 593.111 367.977 594.514C368.5 600.263 369.999 605.927 371.442 611.497C372.299 614.804 372.92 620.974 375.346 623.746C375.817 624.285 376.331 621.101 376.42 620.867C377.514 617.982 379.907 615.715 382.276 613.839C385.205 611.52 389.138 608.945 389.889 613.449" stroke="#1E1E1E" stroke-width="7.0273" stroke-linecap="round" stroke-linejoin="round"/>
<path d="M366.171 641.558C365.395 641.713 360.064 642.815 361.974 641.753C368.027 638.391 376.387 635.001 383.349 634.238C388.051 633.723 387.936 640.095 388.083 643.315C388.369 649.6 389.351 654.106 391.645 660.005" stroke="#1E1E1E" stroke-width="7.0273" stroke-linecap="round" stroke-linejoin="round"/>
<path d="M429.417 579.191C429.047 579.283 426.602 579.663 426.831 579.435C430.156 576.11 437.103 574.439 441.276 572.603C442.68 571.985 450.36 569.849 450.987 567.967C451.616 566.08 447.133 568.957 445.228 569.528" stroke="#1E1E1E" stroke-width="7.0273" stroke-linecap="round" stroke-linejoin="round"/>
<path d="M432.052 576.556C429.662 578.946 429.353 581.665 429.612 584.949C429.891 588.485 430.717 603.049 434.443 605.055C438.856 607.431 448.011 603 451.719 600.712C453.922 599.353 460.994 596.759 458.405 596.759" stroke="#1E1E1E" stroke-width="7.0273" stroke-linecap="round" stroke-linejoin="round"/>
<path d="M439.08 593.246C433.985 593.246 431.356 592.511 437.664 589.683C443.733 586.963 449.269 586.218 455.769 586.218" stroke="#1E1E1E" stroke-width="7.0273" stroke-linecap="round" stroke-linejoin="round"/>
<path d="M476.851 563.38C471.846 563.38 471.127 564.022 472.996 569.236C475.549 576.356 480.365 583.525 480.365 591.294C480.365 591.47 479.016 588.209 482.171 586.267C485.348 584.312 488.728 583.048 491.784 585.34" stroke="#1E1E1E" stroke-width="7.0273" stroke-linecap="round" stroke-linejoin="round"/>
<path d="M464.554 623.112C463.241 623.768 457.34 625.904 462.016 624.673C467.135 623.326 472.269 622.015 477.437 620.867C479.228 620.469 483.275 618.887 485.147 620.184C487.166 621.581 488.035 624.592 488.856 626.723C491.228 632.88 493.159 639.161 495.103 645.462C496.88 651.225 498.008 660.08 502.325 664.397" stroke="#1E1E1E" stroke-width="7.0273" stroke-linecap="round" stroke-linejoin="round"/>
</g>
<defs>
<clipPath id="clip0_2_720">
<rect width="1600" height="900" fill="white"/>
</clipPath>
</defs>
</svg>
