<svg width="973" height="288" viewBox="0 0 973 288" fill="none" xmlns="http://www.w3.org/2000/svg">
<rect width="973" height="288" fill="white"/>
<rect x="35" y="32" width="194.598" height="61.5472" fill="#E62727"/>
<path d="M76.2781 49.6673V74.5117H72.92V49.6673H76.2781ZM71.0089 50.1041V73.3924H67.76V61.5708H63.3098V58.7314H67.76V50.1041H71.0089ZM65.0025 52.4794V55.2641H58.9143V66.0756C61.5762 66.0619 63.5828 65.9254 65.9035 65.4476L66.1765 68.287C63.3644 68.8603 60.8527 68.9695 57.2216 68.9695H55.5016V52.4794H65.0025ZM99.7028 49.6673V74.5663H96.1809V49.6673H99.7028ZM86.2158 51.4146C89.9562 51.4146 92.7409 54.8546 92.7409 60.2603C92.7409 65.7206 89.9562 69.1333 86.2158 69.1333C82.3936 69.1333 79.6089 65.7206 79.6362 60.2603C79.6089 54.8546 82.3936 51.4146 86.2158 51.4146ZM86.2158 54.5543C84.2774 54.5543 82.9943 56.5746 82.9943 60.2603C82.9943 63.9733 84.2774 65.9664 86.2158 65.9664C88.0997 65.9664 89.3828 63.9733 89.3828 60.2603C89.3828 56.5746 88.0997 54.5543 86.2158 54.5543ZM124.029 49.6673V74.5663H120.589V61.2432H116.22V58.4311H120.589V49.6673H124.029ZM115.811 51.7422V54.5543H107.675V58.6768H114.91V61.407H107.675V66.1029C111.115 66.0756 113.872 65.9527 116.957 65.4749L117.312 68.2597C113.681 68.8057 110.432 68.9422 106.173 68.9422H104.208V51.7422H115.811ZM128.67 64.4648C128.67 59.3321 130.253 55.073 132.874 51.3873H136.724C134.84 54.1175 132.874 59.5778 132.874 64.4648C132.874 69.379 134.84 74.8394 136.724 77.5695H132.874C130.253 73.8838 128.67 69.5975 128.67 64.4648ZM146.006 72H139.044V52.2337H146.088C152.04 52.2337 155.671 55.9467 155.671 62.0895C155.671 68.287 152.04 72 146.006 72ZM143.14 68.4781H145.842C149.61 68.4781 151.576 66.5124 151.576 62.0895C151.576 57.694 149.61 55.7556 145.87 55.7556H143.14V68.4781ZM157.855 67.8502C157.855 64.5467 160.531 63.4546 163.37 63.2908C164.435 63.2225 166.428 63.127 167.056 63.0997V61.8984C167.028 60.6699 166.182 59.9327 164.681 59.9327C163.315 59.9327 162.442 60.5606 162.223 61.5708H158.374C158.62 59.0045 160.858 56.9841 164.79 56.9841C168.011 56.9841 171.069 58.4311 171.069 62.0076V72H167.247V69.9524H167.138C166.401 71.3175 165.008 72.273 162.797 72.273C159.957 72.273 157.855 70.7987 157.855 67.8502ZM161.732 67.741C161.732 68.8876 162.66 69.4883 163.943 69.4883C165.773 69.4883 167.083 68.2597 167.056 66.7035V65.6114C166.441 65.6387 164.721 65.7343 164.025 65.8025C162.633 65.9391 161.732 66.5943 161.732 67.741ZM181.962 57.1753V60.2057H179.178V67.4406C179.178 68.6146 179.751 68.9149 180.57 68.9422C180.98 68.9422 181.689 68.9149 182.181 68.8603V72.0546C181.744 72.1365 181.034 72.1911 180.024 72.1911C177.103 72.1911 175.11 70.8806 175.137 68.014V60.2057H173.089V57.1753H175.137V53.626H179.178V57.1753H181.962ZM183.792 67.8502C183.792 64.5467 186.467 63.4546 189.307 63.2908C190.371 63.2225 192.364 63.127 192.992 63.0997V61.8984C192.965 60.6699 192.119 59.9327 190.617 59.9327C189.252 59.9327 188.378 60.5606 188.16 61.5708H184.31C184.556 59.0045 186.795 56.9841 190.726 56.9841C193.948 56.9841 197.006 58.4311 197.006 62.0076V72H193.183V69.9524H193.074C192.337 71.3175 190.945 72.273 188.733 72.273C185.894 72.273 183.792 70.7987 183.792 67.8502ZM187.668 67.741C187.668 68.8876 188.597 69.4883 189.88 69.4883C191.709 69.4883 193.02 68.2597 192.992 66.7035V65.6114C192.378 65.6387 190.658 65.7343 189.962 65.8025C188.569 65.9391 187.668 66.5943 187.668 67.741ZM207.216 64.4648C207.216 69.5975 205.633 73.8838 203.012 77.5695H199.162C201.046 74.8394 203.012 69.379 203.012 64.4648C203.012 59.5778 201.046 54.1175 199.162 51.3873H203.012C205.633 55.073 207.216 59.3321 207.216 64.4648Z" fill="white"/>
<path d="M446.361 51.4419C449.665 51.4419 451.822 54.8546 451.849 60.4241C451.822 66.021 449.665 69.461 446.361 69.461C443.085 69.461 440.956 66.021 440.956 60.4241C440.956 54.8546 443.085 51.4419 446.361 51.4419ZM446.361 54.7181C444.969 54.7181 444.15 56.6292 444.177 60.4241C444.15 64.2464 444.969 66.1302 446.361 66.1029C447.781 66.1302 448.627 64.2464 448.627 60.4241C448.627 56.6292 447.781 54.7181 446.361 54.7181ZM462.278 49.6673V74.5117H458.947V61.9803H456.709V73.3651H453.405V50.0222H456.709V59.141H458.947V49.6673H462.278ZM485.539 50.3499V52.9435H482.29V56.2197H485.375V58.8133H467.056V56.2197H470.114V52.9435H466.892V50.3499H485.539ZM487.559 60.1238V62.854H464.899V60.1238H487.559ZM484.802 64.2737V70.4165H470.96V71.7816H485.457V74.3479H467.547V68.0413H481.362V66.7854H467.52V64.2737H484.802ZM473.608 56.2197H478.796V52.9435H473.608V56.2197ZM509.892 49.6673V74.5663H506.425V49.6673H509.892ZM502.193 51.7422V61.3251H494.002V65.8844C497.784 65.8708 501.005 65.6524 504.65 65.0654L504.95 67.8775C500.855 68.5873 497.169 68.7511 492.637 68.7511H490.399V58.5676H498.644V54.5543H490.371V51.7422H502.193ZM524.28 52.4521C524.266 54.7864 524.075 56.9978 523.543 59.0591H526.218V50.2134H529.467V73.4197H526.218V61.8711H522.56C521.195 64.8197 518.874 67.4133 515.079 69.5702L513.141 67.1949C516.294 65.3657 518.26 63.3045 519.448 60.8883L513.66 61.4889L513.277 58.5403L520.43 58.1581C520.649 57.2299 520.785 56.2606 520.867 55.2368H514.506V52.4521H524.28ZM534.764 49.6673V74.5117H531.488V49.6673H534.764ZM558.188 49.6673V74.5663H554.667V49.6673H558.188ZM544.701 51.4146C548.442 51.4146 551.227 54.8546 551.227 60.2603C551.227 65.7206 548.442 69.1333 544.701 69.1333C540.879 69.1333 538.095 65.7206 538.122 60.2603C538.095 54.8546 540.879 51.4146 544.701 51.4146ZM544.701 54.5543C542.763 54.5543 541.48 56.5746 541.48 60.2603C541.48 63.9733 542.763 65.9664 544.701 65.9664C546.585 65.9664 547.868 63.9733 547.868 60.2603C547.868 56.5746 546.585 54.5543 544.701 54.5543ZM570.856 53.9537C570.856 57.3937 572.549 60.8064 576.481 62.2533L574.542 64.9562C571.935 63.9324 570.147 61.9803 569.136 59.5232C568.044 62.1441 566.12 64.1918 563.294 65.2565L561.437 62.5264C565.505 61.0794 567.334 57.5848 567.334 53.9537V51.087H570.856V53.9537ZM582.487 49.6946V68.1232H579.02V60.5333H574.761V57.7213H579.02V55.7283H574.761V52.9162H579.02V49.6946H582.487ZM583.006 71.2902V74.0749H565.942V66.3486H569.464V71.2902H583.006ZM593.762 51.3327C597.694 51.3054 600.642 53.8718 600.642 57.421C600.642 60.9975 597.694 63.5365 593.762 63.5365C589.831 63.5365 586.855 60.9975 586.855 57.421C586.855 53.8718 589.831 51.3054 593.762 51.3327ZM593.762 54.3359C591.797 54.3359 590.295 55.4826 590.322 57.421C590.295 59.3867 591.797 60.506 593.762 60.506C595.728 60.506 597.23 59.3867 597.257 57.421C597.23 55.4826 595.755 54.3359 593.762 54.3359ZM606.594 49.6673V74.5663H603.127V49.6673H606.594ZM585.818 66.6489C590.24 66.6762 596.383 66.5943 601.707 65.8571L601.98 68.3689C596.465 69.4337 590.568 69.4883 586.227 69.4883L585.818 66.6489ZM639.056 68.833V71.6724H616.313V68.833H625.924V63.9733H629.391V68.833H639.056ZM637.063 53.08V55.8648H629.473C629.76 58.6222 632.572 61.4206 638.237 62.1168L636.981 64.8197C632.531 64.26 629.323 62.4172 627.671 59.8508C625.992 62.4172 622.811 64.26 618.361 64.8197L617.078 62.1168C622.743 61.4206 625.555 58.6222 625.869 55.8648H618.279V53.08H625.924V49.9676H629.391V53.08H637.063ZM661.361 49.6673V74.5117H657.839V49.6673H661.361ZM653.908 52.261C653.908 59.7962 651.259 66.0483 642.386 70.2527L640.557 67.4679C646.973 64.4375 649.799 60.506 650.359 54.9911H641.895V52.261H653.908ZM692.621 49.6673V74.5117H689.263V49.6673H692.621ZM687.352 50.1041V73.3924H684.103V61.5708H679.653V58.7314H684.103V50.1041H687.352ZM681.346 52.4794V55.2641H675.258V66.0756C677.919 66.0619 679.926 65.9254 682.247 65.4476L682.52 68.287C679.708 68.8603 677.196 68.9695 673.565 68.9695H671.845V52.4794H681.346ZM716.046 49.6673V74.5663H712.524V49.6673H716.046ZM702.559 51.4146C706.299 51.4146 709.084 54.8546 709.084 60.2603C709.084 65.7206 706.299 69.1333 702.559 69.1333C698.737 69.1333 695.952 65.7206 695.979 60.2603C695.952 54.8546 698.737 51.4146 702.559 51.4146ZM702.559 54.5543C700.621 54.5543 699.338 56.5746 699.338 60.2603C699.338 63.9733 700.621 65.9664 702.559 65.9664C704.443 65.9664 705.726 63.9733 705.726 60.2603C705.726 56.5746 704.443 54.5543 702.559 54.5543ZM740.372 49.6673V74.5663H736.932V61.2432H732.564V58.4311H736.932V49.6673H740.372ZM732.154 51.7422V54.5543H724.018V58.6768H731.253V61.407H724.018V66.1029C727.458 66.0756 730.216 65.9527 733.301 65.4749L733.656 68.2597C730.025 68.8057 726.776 68.9422 722.517 68.9422H720.551V51.7422H732.154ZM766.281 60.8064V63.4H743.539V60.8064H766.281ZM763.551 64.6286V70.4984H749.627V71.9181H764.288V74.2933H746.16V68.287H760.111V67.0311H746.132V64.6286H763.551ZM763.524 50.1041V55.9467H749.845V57.2845H763.96V59.6324H746.378V53.7353H760.029V52.4794H746.324V50.1041H763.524ZM795.111 49.6673V64.4102H791.644V58.5403H787.767V55.7283H791.644V49.6673H795.111ZM786.621 64.9562C791.917 64.9835 795.166 66.7308 795.193 69.7613C795.166 72.7644 791.917 74.539 786.621 74.539C781.324 74.539 778.075 72.7644 778.075 69.7613C778.075 66.7308 781.324 64.9835 786.621 64.9562ZM786.621 67.6317C783.317 67.6317 781.543 68.3143 781.543 69.7613C781.543 71.181 783.317 71.8908 786.621 71.8908C789.924 71.8908 791.726 71.181 791.726 69.7613C791.726 68.3143 789.924 67.6317 786.621 67.6317ZM788.504 51.1689V53.9537H783.563C783.645 56.8476 785.392 59.7689 789.269 61.0521L787.549 63.7822C784.805 62.8949 782.921 61.093 781.843 58.8406C780.737 61.3797 778.758 63.4273 775.809 64.4375L774.007 61.68C778.089 60.3149 779.918 57.066 780.014 53.9537H775.017V51.1689H788.504ZM806.387 51.3327C810.318 51.3054 813.267 53.8718 813.267 57.421C813.267 60.9975 810.318 63.5365 806.387 63.5365C802.456 63.5365 799.48 60.9975 799.48 57.421C799.48 53.8718 802.456 51.3054 806.387 51.3327ZM806.387 54.3359C804.421 54.3359 802.92 55.4826 802.947 57.421C802.92 59.3867 804.421 60.506 806.387 60.506C808.353 60.506 809.854 59.3867 809.882 57.421C809.854 55.4826 808.38 54.3359 806.387 54.3359ZM819.219 49.6673V74.5663H815.751V49.6673H819.219ZM798.442 66.6489C802.865 66.6762 809.008 66.5943 814.332 65.8571L814.605 68.3689C809.09 69.4337 803.193 69.4883 798.852 69.4883L798.442 66.6489Z" fill="black"/>
<rect x="35" y="113" width="252" height="61.4179" fill="#ED775A"/>
<path d="M65.3301 133.234V139.704H67.8146V131.022H71.0908V154.365H67.8146V142.489H65.3301V149.26H55.447V133.234H65.3301ZM58.6959 135.991V146.53H62.0813V135.991H58.6959ZM76.2781 130.667V155.512H72.9473V130.667H76.2781ZM88.2908 136.291C88.2908 140.96 90.1746 145.492 94.3244 147.294L92.1949 150.079C89.4374 148.727 87.5946 146.257 86.5708 143.199C85.4787 146.448 83.5676 149.11 80.7282 150.516L78.5441 147.676C82.8031 145.765 84.7416 140.96 84.7689 136.291V132.578H88.2908V136.291ZM99.8666 130.667V155.566H96.4266V141.288H91.5396V138.476H96.4266V130.667H99.8666ZM123.319 142.161V144.946H105.736V132.742H123.128V135.554H109.176V142.161H123.319ZM125.803 149.615V152.481H103.061V149.615H125.803ZM128.67 145.465C128.67 140.332 130.253 136.073 132.874 132.387H136.724C134.84 135.117 132.874 140.578 132.874 145.465C132.874 150.379 134.84 155.839 136.724 158.57H132.874C130.253 154.884 128.67 150.597 128.67 145.465ZM139.044 133.234H144.122L149.61 146.639H149.828L155.316 133.234H160.394V153H156.408V140.059H156.244L151.084 152.918H148.354L143.194 140.004H143.03V153H139.044V133.234ZM170.359 153.3C165.827 153.3 163.042 150.352 163.042 145.656C163.042 141.069 165.855 137.984 170.195 137.984C174.1 137.984 177.157 140.441 177.157 145.492V146.639H167.028C167.028 148.877 168.366 150.27 170.441 150.27C171.806 150.27 172.789 149.669 173.199 148.768H177.048C176.475 151.498 174.018 153.3 170.359 153.3ZM167.028 144.1H173.335C173.335 142.298 172.079 141.015 170.277 141.015C168.421 141.015 167.097 142.393 167.028 144.1ZM187.505 138.175V141.206H184.72V148.441C184.72 149.615 185.293 149.915 186.112 149.942C186.522 149.942 187.232 149.915 187.723 149.86V153.055C187.286 153.137 186.576 153.191 185.566 153.191C182.645 153.191 180.652 151.881 180.679 149.014V141.206H178.632V138.175H180.679V134.626H184.72V138.175H187.505ZM194.412 144.427V153H190.371V133.234H194.303V140.769H194.467C195.149 139.049 196.651 137.984 198.889 137.984C201.974 137.984 204.022 140.059 204.022 143.554V153H199.981V144.263C199.981 142.434 198.999 141.342 197.306 141.342C195.613 141.342 194.412 142.462 194.412 144.427ZM213.796 153.3C209.319 153.3 206.534 150.215 206.534 145.629C206.534 141.042 209.319 137.984 213.796 137.984C218.274 137.984 221.086 141.042 221.086 145.629C221.086 150.215 218.274 153.3 213.796 153.3ZM213.823 150.161C215.898 150.161 216.963 148.222 216.963 145.629C216.963 143.008 215.898 141.069 213.823 141.069C211.721 141.069 210.629 143.008 210.629 145.629C210.629 148.222 211.721 150.161 213.823 150.161ZM229.085 153.246C225.7 153.246 223.051 150.543 223.051 145.601C223.051 140.523 225.809 137.984 229.085 137.984C231.569 137.984 232.743 139.458 233.289 140.66H233.426V133.234H237.467V153H233.48V150.625H233.289C232.716 151.853 231.487 153.246 229.085 153.246ZM230.341 150.024C232.361 150.024 233.508 148.25 233.508 145.574C233.508 142.898 232.361 141.206 230.341 141.206C228.293 141.206 227.201 142.98 227.201 145.574C227.201 148.195 228.293 150.024 230.341 150.024ZM249.179 142.571C249.015 141.533 248.087 140.851 246.749 140.851C245.439 140.851 244.428 141.479 244.456 142.38C244.428 143.035 244.974 143.554 246.367 143.854L249.015 144.4C251.882 145.001 253.274 146.284 253.301 148.413C253.274 151.335 250.653 153.3 246.722 153.3C242.708 153.3 240.36 151.498 240.033 148.604H244.101C244.292 149.778 245.247 150.379 246.722 150.379C248.196 150.379 249.179 149.778 249.179 148.823C249.179 148.058 248.551 147.594 247.159 147.294L244.701 146.803C241.889 146.257 240.415 144.782 240.442 142.598C240.415 139.759 242.872 137.984 246.694 137.984C250.435 137.984 252.755 139.759 252.974 142.571H249.179ZM262.912 145.465C262.912 150.597 261.328 154.884 258.707 158.57H254.858C256.741 155.839 258.707 150.379 258.707 145.465C258.707 140.578 256.741 135.117 254.858 132.387H258.707C261.328 136.073 262.912 140.332 262.912 145.465Z" fill="white"/>
<path d="M446.361 132.442C449.665 132.442 451.822 135.855 451.849 141.424C451.822 147.021 449.665 150.461 446.361 150.461C443.085 150.461 440.956 147.021 440.956 141.424C440.956 135.855 443.085 132.442 446.361 132.442ZM446.361 135.718C444.969 135.718 444.15 137.629 444.177 141.424C444.15 145.246 444.969 147.13 446.361 147.103C447.781 147.13 448.627 145.246 448.627 141.424C448.627 137.629 447.781 135.718 446.361 135.718ZM462.278 130.667V155.512H458.947V142.98H456.709V154.365H453.405V131.022H456.709V140.141H458.947V130.667H462.278ZM485.539 131.35V133.944H482.29V137.22H485.375V139.813H467.056V137.22H470.114V133.944H466.892V131.35H485.539ZM487.559 141.124V143.854H464.899V141.124H487.559ZM484.802 145.274V151.417H470.96V152.782H485.457V155.348H467.547V149.041H481.362V147.785H467.52V145.274H484.802ZM473.608 137.22H478.796V133.944H473.608V137.22ZM509.892 130.667V155.566H506.425V130.667H509.892ZM502.193 132.742V142.325H494.002V146.884C497.784 146.871 501.005 146.652 504.65 146.065L504.95 148.877C500.855 149.587 497.169 149.751 492.637 149.751H490.399V139.568H498.644V135.554H490.371V132.742H502.193ZM524.28 133.452C524.266 135.786 524.075 137.998 523.543 140.059H526.218V131.213H529.467V154.42H526.218V142.871H522.56C521.195 145.82 518.874 148.413 515.079 150.57L513.141 148.195C516.294 146.366 518.26 144.304 519.448 141.888L513.66 142.489L513.277 139.54L520.43 139.158C520.649 138.23 520.785 137.261 520.867 136.237H514.506V133.452H524.28ZM534.764 130.667V155.512H531.488V130.667H534.764ZM558.188 130.667V155.566H554.667V130.667H558.188ZM544.701 132.415C548.442 132.415 551.227 135.855 551.227 141.26C551.227 146.721 548.442 150.133 544.701 150.133C540.879 150.133 538.095 146.721 538.122 141.26C538.095 135.855 540.879 132.415 544.701 132.415ZM544.701 135.554C542.763 135.554 541.48 137.575 541.48 141.26C541.48 144.973 542.763 146.966 544.701 146.966C546.585 146.966 547.868 144.973 547.868 141.26C547.868 137.575 546.585 135.554 544.701 135.554ZM570.856 134.954C570.856 138.394 572.549 141.806 576.481 143.253L574.542 145.956C571.935 144.932 570.147 142.98 569.136 140.523C568.044 143.144 566.12 145.192 563.294 146.257L561.437 143.526C565.505 142.079 567.334 138.585 567.334 134.954V132.087H570.856V134.954ZM582.487 130.695V149.123H579.02V141.533H574.761V138.721H579.02V136.728H574.761V133.916H579.02V130.695H582.487ZM583.006 152.29V155.075H565.942V147.349H569.464V152.29H583.006ZM607.249 130.667V155.512H603.919V130.667H607.249ZM602.062 131.022V154.365H598.786V142.625H596.793C596.465 147.512 594.39 150.461 591.333 150.461C588.056 150.461 585.927 147.021 585.927 141.424C585.927 135.855 588.056 132.442 591.333 132.442C594.322 132.442 596.37 135.227 596.766 139.868H598.786V131.022H602.062ZM591.333 135.718C589.94 135.718 589.121 137.629 589.148 141.424C589.121 145.246 589.94 147.13 591.333 147.103C592.752 147.13 593.599 145.246 593.599 141.424C593.599 137.629 592.752 135.718 591.333 135.718ZM619.262 136.291C619.262 140.96 621.146 145.492 625.296 147.294L623.166 150.079C620.409 148.727 618.566 146.257 617.542 143.199C616.45 146.448 614.539 149.11 611.7 150.516L609.515 147.676C613.774 145.765 615.713 140.96 615.74 136.291V132.578H619.262V136.291ZM630.838 130.667V155.566H627.398V141.288H622.511V138.476H627.398V130.667H630.838ZM649.621 136.291C649.594 140.742 651.505 145.246 655.491 147.157L653.389 149.942C650.727 148.632 648.939 146.175 647.901 143.171C646.823 146.393 644.898 149.028 642.086 150.406L639.929 147.594C644.134 145.656 646.127 140.905 646.127 136.291V132.578H649.621V136.291ZM660.078 130.667V140.25H663.736V143.199H660.078V155.512H656.583V130.667H660.078ZM687.298 142.434V145.219H664.637V142.434H669.743V139.458C667.927 138.653 666.903 137.424 666.903 135.827C666.903 132.824 670.425 131.022 675.967 131.022C681.455 131.022 684.977 132.824 685.004 135.827C684.991 137.438 683.926 138.694 682.083 139.486V142.434H687.298ZM675.94 146.53C681.319 146.53 684.567 148.113 684.595 150.98C684.567 153.901 681.319 155.484 675.94 155.484C670.48 155.484 667.231 153.901 667.231 150.98C667.231 148.113 670.48 146.53 675.94 146.53ZM675.94 149.15C672.5 149.15 670.753 149.751 670.78 150.98C670.753 152.263 672.5 152.891 675.94 152.891C679.298 152.891 681.073 152.263 681.1 150.98C681.073 149.751 679.298 149.15 675.94 149.15ZM675.967 133.698C672.446 133.698 670.507 134.435 670.534 135.827C670.507 137.192 672.446 137.875 675.967 137.875C679.435 137.875 681.4 137.192 681.4 135.827C681.4 134.435 679.435 133.698 675.967 133.698ZM673.265 142.434H678.616V140.359C677.797 140.455 676.909 140.496 675.967 140.496C674.998 140.496 674.097 140.455 673.265 140.332V142.434ZM708.511 130.613V136.018H711.869V138.803H708.511V144.072H705.016V130.613H708.511ZM708.511 145.083V151.362H695.488V152.782H709.221V155.348H692.075V148.987H705.044V147.594H692.021V145.083H708.511ZM703.542 132.524V135.172H688.799V132.524H694.451V130.504H697.918V132.524H703.542ZM696.171 135.773C699.884 135.773 702.286 137.356 702.286 139.841C702.286 142.38 699.884 143.909 696.171 143.909C692.458 143.909 690 142.38 690 139.841C690 137.356 692.458 135.773 696.171 135.773ZM696.171 138.23C694.451 138.23 693.386 138.803 693.413 139.841C693.386 140.905 694.451 141.424 696.171 141.424C697.891 141.424 698.983 140.905 698.983 139.841C698.983 138.803 697.891 138.23 696.171 138.23ZM729.997 133.234V139.704H732.482V131.022H735.758V154.365H732.482V142.489H729.997V149.26H720.114V133.234H729.997ZM723.363 135.991V146.53H726.748V135.991H723.363ZM740.945 130.667V155.512H737.614V130.667H740.945ZM752.958 136.291C752.958 140.96 754.842 145.492 758.991 147.294L756.862 150.079C754.104 148.727 752.262 146.257 751.238 143.199C750.146 146.448 748.235 149.11 745.395 150.516L743.211 147.676C747.47 145.765 749.409 140.96 749.436 136.291V132.578H752.958V136.291ZM764.534 130.667V155.566H761.094V141.288H756.207V138.476H761.094V130.667H764.534ZM787.986 142.161V144.946H770.404V132.742H787.795V135.554H773.844V142.161H787.986ZM790.47 149.615V152.481H767.728V149.615H790.47ZM814.605 141.806V144.4H791.863V141.806H814.605ZM811.875 145.629V151.498H797.951V152.918H812.612V155.293H794.483V149.287H808.435V148.031H794.456V145.629H811.875ZM811.847 131.104V136.947H798.169V138.284H812.284V140.632H794.702V134.735H808.353V133.479H794.647V131.104H811.847ZM843.435 130.667V145.41H839.968V139.54H836.091V136.728H839.968V130.667H843.435ZM834.944 145.956C840.241 145.983 843.49 147.731 843.517 150.761C843.49 153.764 840.241 155.539 834.944 155.539C829.648 155.539 826.399 153.764 826.399 150.761C826.399 147.731 829.648 145.983 834.944 145.956ZM834.944 148.632C831.641 148.632 829.866 149.314 829.866 150.761C829.866 152.181 831.641 152.891 834.944 152.891C838.248 152.891 840.05 152.181 840.05 150.761C840.05 149.314 838.248 148.632 834.944 148.632ZM836.828 132.169V134.954H831.887C831.969 137.848 833.716 140.769 837.593 142.052L835.873 144.782C833.129 143.895 831.245 142.093 830.167 139.841C829.061 142.38 827.082 144.427 824.133 145.437L822.331 142.68C826.413 141.315 828.242 138.066 828.337 134.954H823.341V132.169H836.828ZM854.711 132.333C858.642 132.305 861.591 134.872 861.591 138.421C861.591 141.997 858.642 144.537 854.711 144.537C850.779 144.537 847.803 141.997 847.803 138.421C847.803 134.872 850.779 132.305 854.711 132.333ZM854.711 135.336C852.745 135.336 851.243 136.483 851.271 138.421C851.243 140.387 852.745 141.506 854.711 141.506C856.676 141.506 858.178 140.387 858.205 138.421C858.178 136.483 856.704 135.336 854.711 135.336ZM867.542 130.667V155.566H864.075V130.667H867.542ZM846.766 147.649C851.189 147.676 857.332 147.594 862.655 146.857L862.928 149.369C857.414 150.434 851.516 150.488 847.175 150.488L846.766 147.649Z" fill="black"/>
<rect x="35" y="195" width="296" height="62" fill="#1E93AB"/>
<path d="M67.8965 213.896C67.8965 220.694 64.593 225.226 56.4844 227.683L55.1467 224.926C58.5457 223.957 60.8254 222.632 62.2451 220.994L55.6381 221.486L55.1467 218.756L63.7467 218.483C63.9378 217.909 64.0743 217.309 64.1562 216.681H56.4025V213.896H67.8965ZM75.6774 212.695V226.864H72.2101V221.704H67.7327V218.865H72.2101V212.695H75.6774ZM75.6774 227.956V237.239H59.2146V227.956H75.6774ZM62.6273 230.714V234.454H72.2374V230.714H62.6273ZM99.6209 213.814V216.599H96.3447V222.086H99.4025V224.871H81.0831V222.086H84.1682V216.599H80.9466V213.814H99.6209ZM101.614 226.973V229.785H96.3993V237.512H92.932V229.785H87.7447V237.512H84.1955V229.785H78.8717V226.973H101.614ZM87.6628 222.086H92.9047V216.599H87.6628V222.086ZM117.067 214.715V217.554H107.866V221.65H116.029V224.38H107.866V229.076C111.675 229.048 114.719 228.912 118.186 228.366L118.514 231.178C114.609 231.751 111.033 231.86 106.556 231.86H104.426V214.715H117.067ZM123.947 212.667V237.512H120.425V212.667H123.947ZM147.481 224.161V226.946H129.898V214.742H147.289V217.554H133.338V224.161H147.481ZM149.965 231.615V234.481H127.223V231.615H149.965ZM152.832 227.465C152.832 222.332 154.415 218.073 157.036 214.387H160.886C159.002 217.117 157.036 222.578 157.036 227.465C157.036 232.379 159.002 237.839 160.886 240.57H157.036C154.415 236.884 152.832 232.597 152.832 227.465ZM176.42 222.114C176.093 219.93 174.4 218.592 172.107 218.592C169.021 218.592 167.001 220.967 167.001 225.117C167.001 229.376 169.049 231.642 172.079 231.642C174.345 231.642 176.011 230.386 176.42 228.257L180.57 228.284C180.106 231.942 177.048 235.273 172.025 235.273C166.728 235.273 162.824 231.56 162.824 225.117C162.824 218.674 166.81 214.961 172.025 214.961C176.584 214.961 180.024 217.582 180.57 222.114H176.42ZM190.016 235.3C185.539 235.3 182.754 232.215 182.754 227.629C182.754 223.042 185.539 219.984 190.016 219.984C194.494 219.984 197.306 223.042 197.306 227.629C197.306 232.215 194.494 235.3 190.016 235.3ZM190.044 232.161C192.119 232.161 193.183 230.222 193.183 227.629C193.183 225.008 192.119 223.069 190.044 223.069C187.941 223.069 186.849 225.008 186.849 227.629C186.849 230.222 187.941 232.161 190.044 232.161ZM199.845 235V220.175H203.694V222.769H203.858C204.486 221.049 205.988 219.984 207.981 219.984C210.028 219.984 211.53 221.049 212.021 222.769H212.158C212.786 221.076 214.451 219.984 216.635 219.984C219.393 219.984 221.304 221.813 221.304 225.035V235H217.263V225.827C217.263 224.134 216.28 223.315 214.943 223.315C213.414 223.315 212.54 224.38 212.54 225.936V235H208.609V225.717C208.609 224.243 207.68 223.315 206.315 223.315C204.95 223.315 203.886 224.407 203.886 226.1V235H199.845ZM224.416 240.57V220.175H228.402V222.66H228.566C229.112 221.458 230.313 219.984 232.798 219.984C236.074 219.984 238.804 222.523 238.804 227.601C238.804 232.543 236.183 235.246 232.798 235.246C230.368 235.246 229.14 233.853 228.566 232.625H228.457V240.57H224.416ZM228.375 227.574C228.375 230.25 229.522 232.024 231.515 232.024C233.59 232.024 234.682 230.195 234.682 227.574C234.682 224.98 233.59 223.206 231.515 223.206C229.494 223.206 228.375 224.898 228.375 227.574ZM250.926 228.693V220.175H254.967V235H251.09V232.324H250.926C250.244 234.044 248.66 235.191 246.421 235.191C243.446 235.191 241.425 233.089 241.425 229.622V220.175H245.466V228.912C245.466 230.659 246.476 231.778 248.06 231.778C249.534 231.778 250.926 230.714 250.926 228.693ZM265.915 220.175V223.206H263.13V230.441C263.13 231.615 263.703 231.915 264.522 231.942C264.932 231.942 265.642 231.915 266.133 231.86V235.055C265.696 235.137 264.986 235.191 263.976 235.191C261.055 235.191 259.062 233.881 259.089 231.014V223.206H257.042V220.175H259.089V216.626H263.13V220.175H265.915ZM275.006 235.3C270.474 235.3 267.689 232.352 267.689 227.656C267.689 223.069 270.501 219.984 274.842 219.984C278.746 219.984 281.804 222.441 281.804 227.492V228.639H271.675C271.675 230.877 273.013 232.27 275.088 232.27C276.453 232.27 277.436 231.669 277.846 230.768H281.695C281.122 233.498 278.665 235.3 275.006 235.3ZM271.675 226.1H277.982C277.982 224.298 276.726 223.015 274.924 223.015C273.068 223.015 271.744 224.393 271.675 226.1ZM289.804 235.246C286.418 235.246 283.77 232.543 283.77 227.601C283.77 222.523 286.527 219.984 289.804 219.984C292.288 219.984 293.462 221.458 294.008 222.66H294.145V215.234H298.185V235H294.199V232.625H294.008C293.435 233.853 292.206 235.246 289.804 235.246ZM291.059 232.024C293.08 232.024 294.226 230.25 294.226 227.574C294.226 224.898 293.08 223.206 291.059 223.206C289.012 223.206 287.92 224.98 287.92 227.574C287.92 230.195 289.012 232.024 291.059 232.024ZM308.56 227.465C308.56 232.597 306.976 236.884 304.355 240.57H300.506C302.39 237.839 304.355 232.379 304.355 227.465C304.355 222.578 302.39 217.117 300.506 214.387H304.355C306.976 218.073 308.56 222.332 308.56 227.465Z" fill="white"/>
<path d="M446.361 215.442C449.665 215.442 451.822 218.855 451.849 224.424C451.822 230.021 449.665 233.461 446.361 233.461C443.085 233.461 440.956 230.021 440.956 224.424C440.956 218.855 443.085 215.442 446.361 215.442ZM446.361 218.718C444.969 218.718 444.15 220.629 444.177 224.424C444.15 228.246 444.969 230.13 446.361 230.103C447.781 230.13 448.627 228.246 448.627 224.424C448.627 220.629 447.781 218.718 446.361 218.718ZM462.278 213.667V238.512H458.947V225.98H456.709V237.365H453.405V214.022H456.709V223.141H458.947V213.667H462.278ZM485.539 214.35V216.944H482.29V220.22H485.375V222.813H467.056V220.22H470.114V216.944H466.892V214.35H485.539ZM487.559 224.124V226.854H464.899V224.124H487.559ZM484.802 228.274V234.417H470.96V235.782H485.457V238.348H467.547V232.041H481.362V230.785H467.52V228.274H484.802ZM473.608 220.22H478.796V216.944H473.608V220.22ZM509.892 213.667V238.566H506.425V213.667H509.892ZM502.193 215.742V225.325H494.002V229.884C497.784 229.871 501.005 229.652 504.65 229.065L504.95 231.877C500.855 232.587 497.169 232.751 492.637 232.751H490.399V222.568H498.644V218.554H490.371V215.742H502.193ZM524.28 216.452C524.266 218.786 524.075 220.998 523.543 223.059H526.218V214.213H529.467V237.42H526.218V225.871H522.56C521.195 228.82 518.874 231.413 515.079 233.57L513.141 231.195C516.294 229.366 518.26 227.304 519.448 224.888L513.66 225.489L513.277 222.54L520.43 222.158C520.649 221.23 520.785 220.261 520.867 219.237H514.506V216.452H524.28ZM534.764 213.667V238.512H531.488V213.667H534.764ZM558.188 213.667V238.566H554.667V213.667H558.188ZM544.701 215.415C548.442 215.415 551.227 218.855 551.227 224.26C551.227 229.721 548.442 233.133 544.701 233.133C540.879 233.133 538.095 229.721 538.122 224.26C538.095 218.855 540.879 215.415 544.701 215.415ZM544.701 218.554C542.763 218.554 541.48 220.575 541.48 224.26C541.48 227.973 542.763 229.966 544.701 229.966C546.585 229.966 547.868 227.973 547.868 224.26C547.868 220.575 546.585 218.554 544.701 218.554ZM570.856 217.954C570.856 221.394 572.549 224.806 576.481 226.253L574.542 228.956C571.935 227.932 570.147 225.98 569.136 223.523C568.044 226.144 566.12 228.192 563.294 229.257L561.437 226.526C565.505 225.079 567.334 221.585 567.334 217.954V215.087H570.856V217.954ZM582.487 213.695V232.123H579.02V224.533H574.761V221.721H579.02V219.728H574.761V216.916H579.02V213.695H582.487ZM583.006 235.29V238.075H565.942V230.349H569.464V235.29H583.006ZM607.249 213.667V238.512H603.919V213.667H607.249ZM602.062 214.022V237.365H598.786V225.625H596.793C596.465 230.512 594.39 233.461 591.333 233.461C588.056 233.461 585.927 230.021 585.927 224.424C585.927 218.855 588.056 215.442 591.333 215.442C594.322 215.442 596.37 218.227 596.766 222.868H598.786V214.022H602.062ZM591.333 218.718C589.94 218.718 589.121 220.629 589.148 224.424C589.121 228.246 589.94 230.13 591.333 230.103C592.752 230.13 593.599 228.246 593.599 224.424C593.599 220.629 592.752 218.718 591.333 218.718ZM619.262 219.291C619.262 223.96 621.146 228.492 625.296 230.294L623.166 233.079C620.409 231.727 618.566 229.257 617.542 226.199C616.45 229.448 614.539 232.11 611.7 233.516L609.515 230.676C613.774 228.765 615.713 223.96 615.74 219.291V215.578H619.262V219.291ZM630.838 213.667V238.566H627.398V224.288H622.511V221.476H627.398V213.667H630.838ZM649.621 219.291C649.594 223.742 651.505 228.246 655.491 230.157L653.389 232.942C650.727 231.632 648.939 229.175 647.901 226.171C646.823 229.393 644.898 232.028 642.086 233.406L639.929 230.594C644.134 228.656 646.127 223.905 646.127 219.291V215.578H649.621V219.291ZM660.078 213.667V223.25H663.736V226.199H660.078V238.512H656.583V213.667H660.078ZM687.298 225.434V228.219H664.637V225.434H669.743V222.458C667.927 221.653 666.903 220.424 666.903 218.827C666.903 215.824 670.425 214.022 675.967 214.022C681.455 214.022 684.977 215.824 685.004 218.827C684.991 220.438 683.926 221.694 682.083 222.486V225.434H687.298ZM675.94 229.53C681.319 229.53 684.567 231.113 684.595 233.98C684.567 236.901 681.319 238.484 675.94 238.484C670.48 238.484 667.231 236.901 667.231 233.98C667.231 231.113 670.48 229.53 675.94 229.53ZM675.94 232.15C672.5 232.15 670.753 232.751 670.78 233.98C670.753 235.263 672.5 235.891 675.94 235.891C679.298 235.891 681.073 235.263 681.1 233.98C681.073 232.751 679.298 232.15 675.94 232.15ZM675.967 216.698C672.446 216.698 670.507 217.435 670.534 218.827C670.507 220.192 672.446 220.875 675.967 220.875C679.435 220.875 681.4 220.192 681.4 218.827C681.4 217.435 679.435 216.698 675.967 216.698ZM673.265 225.434H678.616V223.359C677.797 223.455 676.909 223.496 675.967 223.496C674.998 223.496 674.097 223.455 673.265 223.332V225.434ZM708.511 213.613V219.018H711.869V221.803H708.511V227.072H705.016V213.613H708.511ZM708.511 228.083V234.362H695.488V235.782H709.221V238.348H692.075V231.987H705.044V230.594H692.021V228.083H708.511ZM703.542 215.524V218.172H688.799V215.524H694.451V213.504H697.918V215.524H703.542ZM696.171 218.773C699.884 218.773 702.286 220.356 702.286 222.841C702.286 225.38 699.884 226.909 696.171 226.909C692.458 226.909 690 225.38 690 222.841C690 220.356 692.458 218.773 696.171 218.773ZM696.171 221.23C694.451 221.23 693.386 221.803 693.413 222.841C693.386 223.905 694.451 224.424 696.171 224.424C697.891 224.424 698.983 223.905 698.983 222.841C698.983 221.803 697.891 221.23 696.171 221.23ZM740.945 213.667V238.512H737.669V213.667H740.945ZM735.758 214.213V237.42H732.454V229.229H728.932V226.417H732.454V223.032H729.397C728.236 227.127 725.725 230.594 721.07 233.352L719.022 230.895C724.059 227.919 726.271 224.301 726.748 219.428H720.469V216.616H730.216C730.216 217.858 730.134 219.059 729.997 220.22H732.454V214.213H735.758ZM752.739 217.926C752.712 221.093 754.514 224.178 758.555 225.489L756.725 228.219C754.009 227.304 752.139 225.516 751.074 223.25C749.955 225.748 747.975 227.7 745.095 228.683L743.157 225.926C747.388 224.615 749.217 221.284 749.245 217.899V215.196H752.739V217.926ZM763.278 213.667V220.848H766.636V223.796H763.278V231.877H759.783V213.667H763.278ZM764.206 235.29V238.075H747.143V230.076H750.692V235.29H764.206ZM782.225 221.284V224.069H777.775V226.581C779.741 226.485 781.693 226.363 783.536 226.171L783.781 228.656C778.512 229.393 772.888 229.53 768.301 229.53L767.837 226.772C769.83 226.758 772.028 226.745 774.28 226.69V224.069H769.939V215.169H782.007V217.954H773.434V221.284H782.225ZM788.614 213.64V232.369H785.064V213.64H788.614ZM789.269 235.29V238.075H771.687V230.949H775.209V235.29H789.269ZM808.926 216.234V222.704H811.41V214.022H814.687V237.365H811.41V225.489H808.926V232.26H799.043V216.234H808.926ZM802.292 218.991V229.53H805.677V218.991H802.292ZM819.874 213.667V238.512H816.543V213.667H819.874ZM831.887 219.291C831.887 223.96 833.77 228.492 837.92 230.294L835.791 233.079C833.033 231.727 831.19 229.257 830.167 226.199C829.075 229.448 827.163 232.11 824.324 233.516L822.14 230.676C826.399 228.765 828.337 223.96 828.365 219.291V215.578H831.887V219.291ZM843.462 213.667V238.566H840.022V224.288H835.136V221.476H840.022V213.667H843.462ZM866.915 225.161V227.946H849.332V215.742H866.723V218.554H852.772V225.161H866.915ZM869.399 232.615V235.481H846.657V232.615H869.399ZM893.534 224.806V227.4H870.791V224.806H893.534ZM890.803 228.629V234.498H876.88V235.918H891.541V238.293H873.412V232.287H887.363V231.031H873.385V228.629H890.803ZM890.776 214.104V219.947H877.098V221.284H891.213V223.632H873.631V217.735H887.281V216.479H873.576V214.104H890.776ZM922.364 213.667V228.41H918.897V222.54H915.02V219.728H918.897V213.667H922.364ZM913.873 228.956C919.17 228.983 922.419 230.731 922.446 233.761C922.419 236.764 919.17 238.539 913.873 238.539C908.577 238.539 905.328 236.764 905.328 233.761C905.328 230.731 908.577 228.983 913.873 228.956ZM913.873 231.632C910.57 231.632 908.795 232.314 908.795 233.761C908.795 235.181 910.57 235.891 913.873 235.891C917.177 235.891 918.979 235.181 918.979 233.761C918.979 232.314 917.177 231.632 913.873 231.632ZM915.757 215.169V217.954H910.815C910.897 220.848 912.645 223.769 916.521 225.052L914.801 227.782C912.058 226.895 910.174 225.093 909.095 222.841C907.99 225.38 906.01 227.427 903.062 228.437L901.26 225.68C905.341 224.315 907.171 221.066 907.266 217.954H902.27V215.169H915.757ZM933.64 215.333C937.571 215.305 940.52 217.872 940.52 221.421C940.52 224.997 937.571 227.537 933.64 227.537C929.708 227.537 926.732 224.997 926.732 221.421C926.732 217.872 929.708 215.305 933.64 215.333ZM933.64 218.336C931.674 218.336 930.172 219.483 930.2 221.421C930.172 223.387 931.674 224.506 933.64 224.506C935.605 224.506 937.107 223.387 937.134 221.421C937.107 219.483 935.633 218.336 933.64 218.336ZM946.471 213.667V238.566H943.004V213.667H946.471ZM925.695 230.649C930.118 230.676 936.261 230.594 941.584 229.857L941.857 232.369C936.342 233.434 930.445 233.488 926.104 233.488L925.695 230.649Z" fill="black"/>
<path d="M418.707 63.7071C419.098 63.3166 419.098 62.6834 418.707 62.2929L412.343 55.9289C411.953 55.5384 411.319 55.5384 410.929 55.9289C410.538 56.3195 410.538 56.9526 410.929 57.3431L416.586 63L410.929 68.6569C410.538 69.0474 410.538 69.6805 410.929 70.0711C411.319 70.4616 411.953 70.4616 412.343 70.0711L418.707 63.7071ZM250 63V64H252V63V62H250V63ZM256 63V64H260V63V62H256V63ZM264 63V64H268V63V62H264V63ZM272 63V64H276V63V62H272V63ZM280 63V64H284V63V62H280V63ZM288 63V64H292V63V62H288V63ZM296 63V64H300V63V62H296V63ZM304 63V64H308V63V62H304V63ZM312 63V64H316V63V62H312V63ZM320 63V64H324V63V62H320V63ZM328 63V64H332V63V62H328V63ZM336 63V64H340V63V62H336V63ZM344 63V64H348V63V62H344V63ZM352 63V64H356V63V62H352V63ZM360 63V64H364V63V62H360V63ZM368 63V64H372V63V62H368V63ZM376 63V64H380V63V62H376V63ZM384 63V64H388V63V62H384V63ZM392 63V64H396V63V62H392V63ZM400 63V64H404V63V62H400V63ZM408 63V64H412V63V62H408V63ZM416 63V64H418V63V62H416V63ZM418.707 63.7071C419.098 63.3166 419.098 62.6834 418.707 62.2929L412.343 55.9289C411.953 55.5384 411.319 55.5384 410.929 55.9289C410.538 56.3195 410.538 56.9526 410.929 57.3431L416.586 63L410.929 68.6569C410.538 69.0474 410.538 69.6805 410.929 70.0711C411.319 70.4616 411.953 70.4616 412.343 70.0711L418.707 63.7071ZM250 63V64H252V63V62H250V63ZM256 63V64H260V63V62H256V63ZM264 63V64H268V63V62H264V63ZM272 63V64H276V63V62H272V63ZM280 63V64H284V63V62H280V63ZM288 63V64H292V63V62H288V63ZM296 63V64H300V63V62H296V63ZM304 63V64H308V63V62H304V63ZM312 63V64H316V63V62H312V63ZM320 63V64H324V63V62H320V63ZM328 63V64H332V63V62H328V63ZM336 63V64H340V63V62H336V63ZM344 63V64H348V63V62H344V63ZM352 63V64H356V63V62H352V63ZM360 63V64H364V63V62H360V63ZM368 63V64H372V63V62H368V63ZM376 63V64H380V63V62H376V63ZM384 63V64H388V63V62H384V63ZM392 63V64H396V63V62H392V63ZM400 63V64H404V63V62H400V63ZM408 63V64H412V63V62H408V63ZM416 63V64H418V63V62H416V63Z" fill="black"/>
<path d="M418.707 144.707C419.098 144.317 419.098 143.683 418.707 143.293L412.343 136.929C411.953 136.538 411.319 136.538 410.929 136.929C410.538 137.319 410.538 137.953 410.929 138.343L416.586 144L410.929 149.657C410.538 150.047 410.538 150.681 410.929 151.071C411.319 151.462 411.953 151.462 412.343 151.071L418.707 144.707ZM309 144V145H310.946V144V143H309V144ZM314.839 144V145H318.732V144V143H314.839V144ZM322.625 144V145H326.518V144V143H322.625V144ZM330.411 144V145H334.304V144V143H330.411V144ZM338.196 144V145H342.089V144V143H338.196V144ZM345.982 144V145H349.875V144V143H345.982V144ZM353.768 144V145H357.661V144V143H353.768V144ZM361.554 144V145H365.446V144V143H361.554V144ZM369.339 144V145H373.232V144V143H369.339V144ZM377.125 144V145H381.018V144V143H377.125V144ZM384.911 144V145H388.804V144V143H384.911V144ZM392.696 144V145H396.589V144V143H392.696V144ZM400.482 144V145H404.375V144V143H400.482V144ZM408.268 144V145H412.161V144V143H408.268V144ZM416.054 144V145H418V144V143H416.054V144ZM418.707 144.707C419.098 144.317 419.098 143.683 418.707 143.293L412.343 136.929C411.953 136.538 411.319 136.538 410.929 136.929C410.538 137.319 410.538 137.953 410.929 138.343L416.586 144L410.929 149.657C410.538 150.047 410.538 150.681 410.929 151.071C411.319 151.462 411.953 151.462 412.343 151.071L418.707 144.707ZM309 144V145H310.946V144V143H309V144ZM314.839 144V145H318.732V144V143H314.839V144ZM322.625 144V145H326.518V144V143H322.625V144ZM330.411 144V145H334.304V144V143H330.411V144ZM338.196 144V145H342.089V144V143H338.196V144ZM345.982 144V145H349.875V144V143H345.982V144ZM353.768 144V145H357.661V144V143H353.768V144ZM361.554 144V145H365.446V144V143H361.554V144ZM369.339 144V145H373.232V144V143H369.339V144ZM377.125 144V145H381.018V144V143H377.125V144ZM384.911 144V145H388.804V144V143H384.911V144ZM392.696 144V145H396.589V144V143H392.696V144ZM400.482 144V145H404.375V144V143H400.482V144ZM408.268 144V145H412.161V144V143H408.268V144ZM416.054 144V145H418V144V143H416.054V144Z" fill="black"/>
<path d="M418.707 226.707C419.098 226.317 419.098 225.683 418.707 225.293L412.343 218.929C411.953 218.538 411.319 218.538 410.929 218.929C410.538 219.319 410.538 219.953 410.929 220.343L416.586 226L410.929 231.657C410.538 232.047 410.538 232.681 410.929 233.071C411.319 233.462 411.953 233.462 412.343 233.071L418.707 226.707ZM351 226V227H353.094V226V225H351V226ZM357.281 226V227H361.469V226V225H357.281V226ZM365.656 226V227H369.844V226V225H365.656V226ZM374.031 226V227H378.219V226V225H374.031V226ZM382.406 226V227H386.594V226V225H382.406V226ZM390.781 226V227H394.969V226V225H390.781V226ZM399.156 226V227H403.344V226V225H399.156V226ZM407.531 226V227H411.719V226V225H407.531V226ZM415.906 226V227H418V226V225H415.906V226ZM418.707 226.707C419.098 226.317 419.098 225.683 418.707 225.293L412.343 218.929C411.953 218.538 411.319 218.538 410.929 218.929C410.538 219.319 410.538 219.953 410.929 220.343L416.586 226L410.929 231.657C410.538 232.047 410.538 232.681 410.929 233.071C411.319 233.462 411.953 233.462 412.343 233.071L418.707 226.707ZM351 226V227H353.094V226V225H351V226ZM357.281 226V227H361.469V226V225H357.281V226ZM365.656 226V227H369.844V226V225H365.656V226ZM374.031 226V227H378.219V226V225H374.031V226ZM382.406 226V227H386.594V226V225H382.406V226ZM390.781 226V227H394.969V226V225H390.781V226ZM399.156 226V227H403.344V226V225H399.156V226ZM407.531 226V227H411.719V226V225H407.531V226ZM415.906 226V227H418V226V225H415.906V226Z" fill="black"/>
</svg>
