<svg width="741" height="336" viewBox="0 0 741 336" fill="none" xmlns="http://www.w3.org/2000/svg">
<rect width="741" height="336" fill="white"/>
<rect x="37" y="36" width="667.363" height="53.515" fill="#F7F7F7"/>
<line x1="37" y1="89.1215" x2="704.363" y2="89.1215" stroke="black" stroke-width="0.786985"/>
<line x1="37" y1="36.3935" x2="704.363" y2="36.3935" stroke="black" stroke-width="0.786985"/>
<line x1="37" y1="141.849" x2="704.363" y2="141.849" stroke="black" stroke-width="0.786985" stroke-dasharray="1.57 1.57"/>
<path d="M69.757 107.672C69.7355 112.485 66.9639 116.008 61.0123 117.856L60.3247 116.46C63.4831 115.525 65.5888 114.139 66.792 112.377L60.5181 112.871L60.2173 111.475L67.458 111.131C67.7266 110.476 67.8878 109.777 67.9737 109.047H61.1841V107.672H69.757ZM75.6442 106.555V117.555H73.9468V113.022H69.6926V111.604H73.9468V106.555H75.6442ZM75.6442 118.587V125.376H63.2468V118.587H75.6442ZM64.8797 119.962V124.001H73.9683V119.962H64.8797ZM96.3136 121.831V123.271H78.8241V121.831H86.6664V117.426H80.414V116.073H83.4006V109.799H80.3711V108.402H94.6377V109.799H91.6082V116.073H94.5947V117.426H88.3209V121.831H96.3136ZM85.0765 116.073H89.9538V109.799H85.0765V116.073ZM113.674 106.555V120.391H111.977V112.119H106.476V110.723H111.977V106.555H113.674ZM114.19 123.808V125.226H101.363V119.253H103.06V123.808H114.19ZM100.675 107.973V115.772C103.662 115.783 106.165 115.611 108.947 115.02L109.184 116.481C106.219 117.061 103.619 117.233 100.439 117.233H98.9779V107.973H100.675ZM132.324 116.868V118.243H119.11V108.187H132.109V109.606H120.829V112.442H131.701V113.795H120.829V116.868H132.324ZM134.344 121.745V123.142H116.854V121.745H134.344ZM147.085 110.336C147.085 112.442 148.567 114.59 151.017 115.514L150.136 116.803C148.299 116.094 146.977 114.73 146.29 113.086C145.581 114.913 144.216 116.535 142.336 117.34L141.413 116.03C143.926 114.934 145.473 112.463 145.473 110.336V107.736H147.085V110.336ZM157.613 106.555V118.35H156.001V113.086H153.466V117.749H151.876V106.92H153.466V111.69H156.001V106.555H157.613ZM151.296 118.78C155.249 118.78 157.72 120.026 157.72 122.196C157.72 124.345 155.249 125.591 151.296 125.591C147.321 125.591 144.872 124.345 144.893 122.196C144.872 120.026 147.321 118.78 151.296 118.78ZM151.296 120.069C148.374 120.069 146.548 120.864 146.569 122.196C146.548 123.507 148.374 124.28 151.296 124.28C154.197 124.28 156.023 123.507 156.044 122.196C156.023 120.864 154.197 120.069 151.296 120.069ZM166.981 109.541C166.959 112.27 168.893 114.676 171.708 115.622L170.762 116.932C168.657 116.137 167.002 114.59 166.186 112.571C165.359 114.859 163.608 116.642 161.309 117.512L160.385 116.137C163.328 115.106 165.283 112.571 165.305 109.606V107.629H166.981V109.541ZM176.241 106.533V117.856H174.544V112.033H170.29V110.637H174.544V106.533H176.241ZM169.903 118.415C173.878 118.415 176.306 119.725 176.306 122.024C176.306 124.302 173.878 125.591 169.903 125.591C165.928 125.591 163.5 124.302 163.5 122.024C163.5 119.725 165.928 118.415 169.903 118.415ZM169.903 119.747C166.981 119.747 165.154 120.606 165.176 122.024C165.154 123.4 166.981 124.237 169.903 124.237C172.825 124.237 174.63 123.4 174.63 122.024C174.63 120.606 172.825 119.747 169.903 119.747ZM201.337 108.187V109.541H185.845V108.187H192.807V106.254H194.483V108.187H201.337ZM193.645 110.315C197.577 110.315 199.833 111.281 199.833 113.086C199.833 114.934 197.577 115.879 193.645 115.879C189.691 115.879 187.435 114.934 187.435 113.086C187.435 111.281 189.691 110.315 193.645 110.315ZM193.645 111.518C190.787 111.518 189.154 112.098 189.176 113.086C189.154 114.118 190.787 114.655 193.645 114.633C196.502 114.655 198.092 114.118 198.114 113.086C198.092 112.098 196.502 111.518 193.645 111.518ZM202.347 116.997V118.329H194.483V120.306H200.026V125.634H198.35V121.638H186.812V120.306H192.807V118.329H184.943V116.997H202.347Z" fill="black"/>
<path d="M348.602 124.13C345.294 124.13 343.274 121.616 343.274 118.114C343.274 114.569 345.38 112.076 348.56 112.076C351.052 112.076 352.9 113.537 353.2 115.751H351.353C351.095 114.676 350.149 113.709 348.602 113.709C346.518 113.709 345.122 115.428 345.122 118.05C345.122 120.757 346.475 122.476 348.602 122.476C349.978 122.476 351.03 121.745 351.353 120.456H353.2C352.9 122.54 351.202 124.13 348.602 124.13ZM355.478 123.894V112.227H357.261V114.01H357.39C357.82 112.828 359.023 112.033 360.398 112.033C360.678 112.033 361.15 112.055 361.365 112.076V113.946C361.236 113.903 360.721 113.817 360.248 113.817C358.572 113.817 357.326 114.977 357.326 116.545V123.894H355.478ZM367.682 124.13C364.309 124.13 362.225 121.745 362.225 118.157C362.225 114.569 364.33 112.076 367.51 112.076C369.959 112.076 372.538 113.58 372.538 117.899V118.673H364.072C364.158 121.143 365.598 122.497 367.682 122.497C369.079 122.497 369.959 121.895 370.389 121.165H372.366C371.807 122.927 370.088 124.13 367.682 124.13ZM364.094 117.104H370.669C370.669 115.149 369.422 113.709 367.51 113.709C365.49 113.709 364.201 115.299 364.094 117.104ZM374.386 120.585C374.386 117.899 376.749 117.298 378.769 117.147C379.51 117.093 381.401 116.997 381.927 116.975V116.03C381.927 114.547 381.046 113.688 379.284 113.688C377.802 113.688 376.921 114.375 376.663 115.256H374.729C374.966 113.387 376.792 112.076 379.37 112.076C380.896 112.076 383.753 112.528 383.753 116.202V123.894H381.927V122.304H381.841C381.454 123.099 380.38 124.173 378.36 124.173C376.147 124.173 374.386 122.862 374.386 120.585ZM376.233 120.671C376.233 121.895 377.265 122.519 378.683 122.519C380.767 122.519 381.927 121.122 381.927 119.661V118.479L378.984 118.694C377.308 118.802 376.233 119.403 376.233 120.671ZM391.811 112.227V113.774H389.361V120.542C389.361 122.046 390.092 122.282 390.887 122.282C391.231 122.282 391.703 122.261 391.983 122.239V123.958C391.703 124.001 391.231 124.044 390.693 124.044C389.146 124.044 387.492 123.077 387.492 121.015V113.774H385.73V112.227H387.492V109.434H389.361V112.227H391.811ZM398.965 124.13C395.592 124.13 393.508 121.745 393.508 118.157C393.508 114.569 395.614 112.076 398.794 112.076C401.243 112.076 403.821 113.58 403.821 117.899V118.673H395.356C395.442 121.143 396.881 122.497 398.965 122.497C400.362 122.497 401.243 121.895 401.673 121.165H403.649C403.091 122.927 401.372 124.13 398.965 124.13ZM395.377 117.104H401.952C401.952 115.149 400.706 113.709 398.794 113.709C396.774 113.709 395.485 115.299 395.377 117.104ZM410.632 124.13C407.732 124.13 405.669 121.788 405.669 118.092C405.669 114.397 407.732 112.076 410.654 112.076C412.91 112.076 413.64 113.452 414.027 114.075H414.156V108.338H416.025V123.894H414.22V122.11H414.027C413.619 122.755 412.867 124.13 410.632 124.13ZM410.89 122.476C413.017 122.476 414.22 120.671 414.22 118.05C414.22 115.471 413.06 113.731 410.89 113.731C408.656 113.731 407.538 115.622 407.538 118.05C407.538 120.542 408.677 122.476 410.89 122.476Z" fill="black"/>
<path d="M544.199 117.964C544.221 113.903 545.317 110.529 547.293 107.672H548.926C547.465 109.799 546.112 114.139 546.112 117.964C546.112 121.788 547.465 126.15 548.926 128.277H547.293C545.317 125.398 544.221 122.024 544.199 117.964ZM566.738 106.533V119.575H565.127V106.533H566.738ZM562.978 106.963V117.835H561.345V112.334H558.337V110.938H561.345V106.963H562.978ZM561.281 119.253C561.281 121.724 564.504 123.743 567.877 124.237L567.189 125.548C564.31 125.075 561.582 123.636 560.421 121.509C559.261 123.636 556.532 125.075 553.653 125.548L553.009 124.237C556.361 123.743 559.583 121.724 559.583 119.253V118.63H561.281V119.253ZM556.167 110.229C556.167 112.42 557.607 114.612 559.992 115.6L559.089 116.911C557.284 116.148 556.017 114.708 555.372 113C554.674 114.827 553.32 116.46 551.462 117.276L550.538 115.987C553.009 114.891 554.534 112.399 554.534 110.229V107.715H556.167V110.229ZM574.795 107.435C577.363 107.414 579.307 108.907 579.673 111.11H583.669V106.533H585.366V116.782H583.669V112.506H579.694C579.35 114.762 577.384 116.266 574.795 116.266C571.895 116.266 569.832 114.461 569.832 111.84C569.832 109.24 571.895 107.414 574.795 107.435ZM574.795 108.875C572.84 108.854 571.444 110.078 571.444 111.84C571.444 113.58 572.84 114.848 574.795 114.848C576.729 114.848 578.104 113.58 578.104 111.84C578.104 110.078 576.729 108.854 574.795 108.875ZM574.752 117.749V120.177H583.669V117.749H585.366V125.376H573.055V117.749H574.752ZM574.752 124.001H583.669V121.53H574.752V124.001ZM610.462 108.187V109.541H594.971V108.187H601.932V106.254H603.608V108.187H610.462ZM602.77 110.315C606.702 110.315 608.958 111.281 608.958 113.086C608.958 114.934 606.702 115.879 602.77 115.879C598.817 115.879 596.561 114.934 596.561 113.086C596.561 111.281 598.817 110.315 602.77 110.315ZM602.77 111.518C599.912 111.518 598.28 112.098 598.301 113.086C598.28 114.118 599.912 114.655 602.77 114.633C605.628 114.655 607.218 114.118 607.239 113.086C607.218 112.098 605.628 111.518 602.77 111.518ZM611.472 116.997V118.329H603.608V120.306H609.151V125.634H607.476V121.638H595.938V120.306H601.932V118.329H594.068V116.997H611.472ZM629.456 106.533V125.634H627.823V106.533H629.456ZM625.61 106.941V124.667H623.998V115.385H621.549C621.366 119.102 619.787 121.423 617.423 121.423C614.931 121.423 613.32 118.844 613.32 114.784C613.32 110.723 614.931 108.145 617.423 108.145C619.744 108.145 621.312 110.39 621.527 113.989H623.998V106.941H625.61ZM617.423 109.734C615.876 109.734 614.888 111.668 614.91 114.784C614.888 117.878 615.876 119.833 617.423 119.811C618.97 119.833 619.959 117.878 619.959 114.784C619.959 111.668 618.97 109.734 617.423 109.734ZM655.11 121.831V123.271H637.62V121.831H645.463V117.426H639.21V116.073H642.197V109.799H639.167V108.402H653.434V109.799H650.404V116.073H653.391V117.426H647.117V121.831H655.11ZM643.873 116.073H648.75V109.799H643.873V116.073ZM671.568 106.533V111.625H674.447V113.065H671.568V118.05H669.892V106.533H671.568ZM671.568 119.145V125.376H659.514V119.145H671.568ZM661.169 120.499V124.001H669.892V120.499H661.169ZM668.066 108.574V109.971H656.678V108.574H661.534V106.383H663.21V108.574H668.066ZM662.372 110.916C665.122 110.916 666.949 112.27 666.97 114.311C666.949 116.395 665.122 117.727 662.372 117.727C659.6 117.727 657.753 116.395 657.774 114.311C657.753 112.27 659.6 110.916 662.372 110.916ZM662.372 112.227C660.567 112.227 659.364 113.065 659.385 114.311C659.364 115.622 660.567 116.417 662.372 116.438C664.155 116.417 665.359 115.622 665.38 114.311C665.359 113.065 664.155 112.227 662.372 112.227ZM680.42 117.964C680.399 122.024 679.303 125.398 677.326 128.277H675.693C677.154 126.15 678.508 121.788 678.508 117.964C678.508 114.139 677.154 109.799 675.693 107.672H677.326C679.303 110.529 680.399 113.903 680.42 117.964Z" fill="black"/>
<line x1="37" y1="194.577" x2="704.363" y2="194.577" stroke="black" stroke-width="0.786985" stroke-dasharray="1.57 1.57"/>
<path d="M343.833 176.622V164.955H345.616V166.781H345.766C346.261 165.535 347.378 164.804 348.903 164.804C350.429 164.804 351.46 165.535 352.019 166.781H352.148C352.749 165.578 353.974 164.804 355.65 164.804C357.734 164.804 359.217 166.072 359.217 168.822V176.622H357.369V168.844C357.369 167.125 356.273 166.459 355.005 166.459C353.372 166.459 352.448 167.555 352.448 169.037V176.622H350.579V168.65C350.579 167.34 349.634 166.459 348.302 166.459C346.905 166.459 345.68 167.641 345.68 169.338V176.622H343.833ZM366.951 176.858C363.772 176.858 361.623 174.473 361.623 170.842C361.623 167.211 363.772 164.804 366.951 164.804C370.11 164.804 372.237 167.211 372.237 170.842C372.237 174.473 370.11 176.858 366.951 176.858ZM366.951 175.225C369.293 175.225 370.389 173.162 370.389 170.842C370.389 168.522 369.293 166.437 366.951 166.437C364.567 166.437 363.471 168.522 363.471 170.842C363.471 173.162 364.567 175.225 366.951 175.225ZM382.035 171.83V164.955H383.861V176.622H382.035V174.645H381.906C381.347 175.827 380.208 176.772 378.446 176.772C376.233 176.772 374.665 175.333 374.665 172.367V164.955H376.513V172.239C376.513 173.914 377.566 174.989 379.048 174.989C380.359 174.989 382.035 174 382.035 171.83ZM388.674 169.617V176.622H386.826V164.955H388.609V166.781H388.76C389.318 165.599 390.393 164.804 392.176 164.804C394.539 164.804 396.108 166.244 396.108 169.209V176.622H394.26V169.338C394.26 167.533 393.272 166.459 391.617 166.459C389.92 166.459 388.674 167.598 388.674 169.617ZM404.165 164.955V166.502H401.716V173.27C401.716 174.774 402.446 175.01 403.241 175.01C403.585 175.01 404.058 174.989 404.337 174.967V176.686C404.058 176.729 403.585 176.772 403.048 176.772C401.501 176.772 399.846 175.805 399.846 173.743V166.502H398.085V164.955H399.846V162.162H401.716V164.955H404.165ZM411.32 176.858C407.947 176.858 405.862 174.473 405.862 170.885C405.862 167.297 407.968 164.804 411.148 164.804C413.597 164.804 416.176 166.308 416.176 170.627V171.401H407.71C407.796 173.872 409.236 175.225 411.32 175.225C412.716 175.225 413.597 174.624 414.027 173.893H416.004C415.445 175.655 413.726 176.858 411.32 176.858ZM407.732 169.832H414.306C414.306 167.877 413.06 166.437 411.148 166.437C409.128 166.437 407.839 168.027 407.732 169.832ZM422.987 176.858C420.086 176.858 418.023 174.516 418.023 170.821C418.023 167.125 420.086 164.804 423.008 164.804C425.264 164.804 425.995 166.18 426.382 166.803H426.51V161.066H428.38V176.622H426.575V174.838H426.382C425.973 175.483 425.221 176.858 422.987 176.858ZM423.245 175.204C425.372 175.204 426.575 173.399 426.575 170.778C426.575 168.199 425.415 166.459 423.245 166.459C421.01 166.459 419.893 168.35 419.893 170.778C419.893 173.27 421.032 175.204 423.245 175.204Z" fill="black"/>
<path d="M548.497 176.858C545.317 176.858 543.168 174.473 543.168 170.842C543.168 167.211 545.317 164.804 548.497 164.804C551.655 164.804 553.782 167.211 553.782 170.842C553.782 174.473 551.655 176.858 548.497 176.858ZM548.497 175.225C550.839 175.225 551.934 173.162 551.934 170.842C551.934 168.522 550.839 166.437 548.497 166.437C546.112 166.437 545.016 168.522 545.016 170.842C545.016 173.162 546.112 175.225 548.497 175.225ZM558.058 169.617V176.622H556.21V164.955H557.993V166.781H558.144C558.702 165.599 559.777 164.804 561.56 164.804C563.924 164.804 565.492 166.244 565.492 169.209V176.622H563.644V169.338C563.644 167.533 562.656 166.459 561.001 166.459C559.304 166.459 558.058 167.598 558.058 169.617ZM568.693 161.066H571.014L576.256 173.872H576.45L581.692 161.066H584.013V176.622H582.187V164.869H582.036L577.202 176.622H575.483L570.649 164.869H570.52V176.622H568.693V161.066ZM591.984 176.858C588.804 176.858 586.656 174.473 586.656 170.842C586.656 167.211 588.804 164.804 591.984 164.804C595.143 164.804 597.27 167.211 597.27 170.842C597.27 174.473 595.143 176.858 591.984 176.858ZM591.984 175.225C594.326 175.225 595.422 173.162 595.422 170.842C595.422 168.522 594.326 166.437 591.984 166.437C589.599 166.437 588.503 168.522 588.503 170.842C588.503 173.162 589.599 175.225 591.984 175.225ZM607.067 171.83V164.955H608.894V176.622H607.067V174.645H606.938C606.38 175.827 605.241 176.772 603.479 176.772C601.266 176.772 599.698 175.333 599.698 172.367V164.955H601.545V172.239C601.545 173.914 602.598 174.989 604.081 174.989C605.391 174.989 607.067 174 607.067 171.83ZM613.706 169.617V176.622H611.859V164.955H613.642V166.781H613.792C614.351 165.599 615.425 164.804 617.209 164.804C619.572 164.804 621.141 166.244 621.141 169.209V176.622H619.293V169.338C619.293 167.533 618.304 166.459 616.65 166.459C614.953 166.459 613.706 167.598 613.706 169.617ZM629.198 164.955V166.502H626.748V173.27C626.748 174.774 627.479 175.01 628.274 175.01C628.618 175.01 629.09 174.989 629.37 174.967V176.686C629.09 176.729 628.618 176.772 628.08 176.772C626.534 176.772 624.879 175.805 624.879 173.743V166.502H623.117V164.955H624.879V162.162H626.748V164.955H629.198ZM636.353 176.858C632.979 176.858 630.895 174.473 630.895 170.885C630.895 167.297 633.001 164.804 636.181 164.804C638.63 164.804 641.208 166.308 641.208 170.627V171.401H632.743C632.829 173.872 634.268 175.225 636.353 175.225C637.749 175.225 638.63 174.624 639.06 173.893H641.036C640.478 175.655 638.759 176.858 636.353 176.858ZM632.764 169.832H639.339C639.339 167.877 638.093 166.437 636.181 166.437C634.161 166.437 632.872 168.027 632.764 169.832ZM648.019 176.858C645.119 176.858 643.056 174.516 643.056 170.821C643.056 167.125 645.119 164.804 648.041 164.804C650.297 164.804 651.027 166.18 651.414 166.803H651.543V161.066H653.412V176.622H651.608V174.838H651.414C651.006 175.483 650.254 176.858 648.019 176.858ZM648.277 175.204C650.404 175.204 651.608 173.399 651.608 170.778C651.608 168.199 650.447 166.459 648.277 166.459C646.043 166.459 644.925 168.35 644.925 170.778C644.925 173.27 646.064 175.204 648.277 175.204Z" fill="black"/>
<path d="M69.757 160.4C69.7355 165.213 66.9639 168.736 61.0123 170.584L60.3247 169.188C63.4831 168.253 65.5888 166.867 66.792 165.105L60.5181 165.599L60.2173 164.203L67.458 163.859C67.7266 163.204 67.8878 162.505 67.9737 161.775H61.1841V160.4H69.757ZM75.6442 159.283V170.283H73.9468V165.75H69.6926V164.332H73.9468V159.283H75.6442ZM75.6442 171.315V178.104H63.2468V171.315H75.6442ZM64.8797 172.69V176.729H73.9683V172.69H64.8797ZM96.3136 174.559V175.999H78.8241V174.559H86.6664V170.154H80.414V168.801H83.4006V162.527H80.3711V161.13H94.6377V162.527H91.6082V168.801H94.5947V170.154H88.3209V174.559H96.3136ZM85.0765 168.801H89.9538V162.527H85.0765V168.801ZM113.674 159.283V173.119H111.977V164.847H106.476V163.451H111.977V159.283H113.674ZM114.19 176.536V177.954H101.363V171.981H103.06V176.536H114.19ZM100.675 160.701V168.5C103.662 168.511 106.165 168.339 108.947 167.748L109.184 169.209C106.219 169.789 103.619 169.961 100.439 169.961H98.9779V160.701H100.675ZM132.324 169.596V170.971H119.11V160.915H132.109V162.334H120.829V165.17H131.701V166.523H120.829V169.596H132.324ZM134.344 174.473V175.87H116.854V174.473H134.344ZM150.995 161.195V173.506H142.186V161.195H150.995ZM143.819 162.548V172.131H149.319V162.548H143.819ZM156.173 159.261V166.889H159.375V168.35H156.173V178.362H154.497V159.261H156.173ZM177.874 168.973V170.369H170.118V174.28H168.42V170.369H160.385V168.973H177.874ZM175.919 176.514V177.954H162.641V172.367H164.338V176.514H175.919ZM169.108 159.755C173.19 159.777 175.833 161.238 175.833 163.601C175.833 165.965 173.19 167.404 169.108 167.404C165.026 167.404 162.361 165.965 162.361 163.601C162.361 161.238 165.026 159.777 169.108 159.755ZM169.108 161.13C166.143 161.13 164.145 162.076 164.166 163.601C164.145 165.084 166.143 166.029 169.108 166.029C172.073 166.029 174.05 165.084 174.05 163.601C174.05 162.076 172.073 161.13 169.108 161.13ZM194.891 169.596V170.971H181.677V160.915H194.676V162.334H183.396V165.17H194.268V166.523H183.396V169.596H194.891ZM196.911 174.473V175.87H179.421V174.473H196.911ZM220.352 160.915V162.269H204.86V160.915H211.822V158.982H213.498V160.915H220.352ZM212.66 163.043C216.592 163.043 218.848 164.009 218.848 165.814C218.848 167.662 216.592 168.607 212.66 168.607C208.706 168.607 206.45 167.662 206.45 165.814C206.45 164.009 208.706 163.043 212.66 163.043ZM212.66 164.246C209.802 164.246 208.169 164.826 208.191 165.814C208.169 166.846 209.802 167.383 212.66 167.361C215.517 167.383 217.107 166.846 217.129 165.814C217.107 164.826 215.517 164.246 212.66 164.246ZM221.362 169.725V171.057H213.498V173.034H219.041V178.362H217.365V174.366H205.827V173.034H211.822V171.057H203.958V169.725H221.362Z" fill="black"/>
<line x1="37" y1="247.305" x2="704.363" y2="247.305" stroke="black" stroke-width="0.786985" stroke-dasharray="1.57 1.57"/>
<path d="M348.237 229.586C345.337 229.586 343.274 227.244 343.274 223.548C343.274 219.853 345.337 217.532 348.259 217.532C350.515 217.532 351.245 218.907 351.632 219.531H351.761V213.794H353.63V229.35H351.825V227.566H351.632C351.224 228.211 350.472 229.586 348.237 229.586ZM348.495 227.932C350.622 227.932 351.825 226.127 351.825 223.505C351.825 220.927 350.665 219.187 348.495 219.187C346.261 219.187 345.143 221.078 345.143 223.505C345.143 225.998 346.282 227.932 348.495 227.932ZM361.73 229.586C358.357 229.586 356.273 227.201 356.273 223.613C356.273 220.025 358.379 217.532 361.559 217.532C364.008 217.532 366.586 219.036 366.586 223.355V224.129H358.121C358.207 226.599 359.646 227.953 361.73 227.953C363.127 227.953 364.008 227.351 364.438 226.621H366.414C365.856 228.383 364.137 229.586 361.73 229.586ZM358.142 222.56H364.717C364.717 220.605 363.471 219.165 361.559 219.165C359.539 219.165 358.25 220.755 358.142 222.56ZM375.481 220.712C375.224 219.745 374.493 219.101 373.118 219.101C371.678 219.101 370.647 219.874 370.647 220.863C370.647 221.636 371.27 222.173 372.645 222.496L374.386 222.925C376.47 223.419 377.501 224.451 377.501 226.084C377.501 228.103 375.847 229.586 372.925 229.586C370.303 229.586 368.735 228.426 368.434 226.299H370.368C370.583 227.437 371.421 227.975 372.882 227.975C374.536 227.975 375.589 227.287 375.589 226.191C375.589 225.375 375.009 224.816 373.677 224.515L371.915 224.107C369.874 223.634 368.799 222.517 368.799 220.97C368.799 218.972 370.54 217.532 373.118 217.532C375.524 217.532 377.05 218.822 377.286 220.712H375.481ZM385 217.683V219.23H382.55V225.998C382.55 227.502 383.281 227.738 384.076 227.738C384.42 227.738 384.892 227.717 385.172 227.695V229.414C384.892 229.457 384.42 229.5 383.882 229.5C382.335 229.5 380.681 228.533 380.681 226.47V219.23H378.919V217.683H380.681V214.89H382.55V217.683H385ZM387.385 229.35V217.683H389.168V219.466H389.297C389.727 218.284 390.93 217.489 392.305 217.489C392.584 217.489 393.057 217.511 393.272 217.532V219.402C393.143 219.359 392.627 219.273 392.154 219.273C390.479 219.273 389.232 220.433 389.232 222.001V229.35H387.385ZM399.46 229.586C396.28 229.586 394.131 227.201 394.131 223.57C394.131 219.939 396.28 217.532 399.46 217.532C402.618 217.532 404.745 219.939 404.745 223.57C404.745 227.201 402.618 229.586 399.46 229.586ZM399.46 227.953C401.802 227.953 402.897 225.89 402.897 223.57C402.897 221.249 401.802 219.165 399.46 219.165C397.075 219.165 395.979 221.249 395.979 223.57C395.979 225.89 397.075 227.953 399.46 227.953ZM407.925 233.733C407.517 233.733 407.13 233.711 406.894 233.69V232.035C407.087 232.057 407.517 232.078 407.796 232.078C408.548 232.078 409.171 232.014 409.794 230.316L410.138 229.436L405.819 217.683H407.839L411.019 226.943H411.148L414.328 217.683H416.348L411.406 231.026C410.718 232.852 409.58 233.733 407.925 233.733ZM422.858 229.586C419.485 229.586 417.4 227.201 417.4 223.613C417.4 220.025 419.506 217.532 422.686 217.532C425.135 217.532 427.714 219.036 427.714 223.355V224.129H419.248C419.334 226.599 420.774 227.953 422.858 227.953C424.254 227.953 425.135 227.351 425.565 226.621H427.542C426.983 228.383 425.264 229.586 422.858 229.586ZM419.27 222.56H425.844C425.844 220.605 424.598 219.165 422.686 219.165C420.666 219.165 419.377 220.755 419.27 222.56ZM434.525 229.586C431.624 229.586 429.561 227.244 429.561 223.548C429.561 219.853 431.624 217.532 434.546 217.532C436.802 217.532 437.533 218.907 437.919 219.531H438.048V213.794H439.918V229.35H438.113V227.566H437.919C437.511 228.211 436.759 229.586 434.525 229.586ZM434.783 227.932C436.91 227.932 438.113 226.127 438.113 223.505C438.113 220.927 436.953 219.187 434.783 219.187C432.548 219.187 431.431 221.078 431.431 223.505C431.431 225.998 432.569 227.932 434.783 227.932Z" fill="black"/>
<path d="M548.497 229.586C545.317 229.586 543.168 227.201 543.168 223.57C543.168 219.939 545.317 217.532 548.497 217.532C551.655 217.532 553.782 219.939 553.782 223.57C553.782 227.201 551.655 229.586 548.497 229.586ZM548.497 227.953C550.839 227.953 551.934 225.89 551.934 223.57C551.934 221.249 550.839 219.165 548.497 219.165C546.112 219.165 545.016 221.249 545.016 223.57C545.016 225.89 546.112 227.953 548.497 227.953ZM558.058 222.345V229.35H556.21V217.683H557.993V219.509H558.144C558.702 218.327 559.777 217.532 561.56 217.532C563.924 217.532 565.492 218.972 565.492 221.937V229.35H563.644V222.066C563.644 220.261 562.656 219.187 561.001 219.187C559.304 219.187 558.058 220.326 558.058 222.345ZM578.878 213.794H580.811V224.086C580.811 227.287 578.427 229.629 574.752 229.629C571.078 229.629 568.693 227.287 568.693 224.086V213.794H570.627V223.935C570.627 226.191 572.196 227.824 574.752 227.824C577.331 227.824 578.878 226.191 578.878 223.935V213.794ZM585.861 222.345V229.35H584.013V217.683H585.796V219.509H585.947C586.505 218.327 587.58 217.532 589.363 217.532C591.726 217.532 593.295 218.972 593.295 221.937V229.35H591.447V222.066C591.447 220.261 590.459 219.187 588.804 219.187C587.107 219.187 585.861 220.326 585.861 222.345ZM596.26 229.35V217.683H598.043V219.509H598.194C598.688 218.263 599.805 217.532 601.331 217.532C602.856 217.532 603.887 218.263 604.446 219.509H604.575C605.177 218.306 606.401 217.532 608.077 217.532C610.161 217.532 611.644 218.8 611.644 221.55V229.35H609.796V221.572C609.796 219.853 608.7 219.187 607.433 219.187C605.8 219.187 604.876 220.283 604.876 221.765V229.35H603.006V221.378C603.006 220.068 602.061 219.187 600.729 219.187C599.332 219.187 598.108 220.368 598.108 222.066V229.35H596.26ZM619.379 229.586C616.199 229.586 614.05 227.201 614.05 223.57C614.05 219.939 616.199 217.532 619.379 217.532C622.537 217.532 624.664 219.939 624.664 223.57C624.664 227.201 622.537 229.586 619.379 229.586ZM619.379 227.953C621.721 227.953 622.816 225.89 622.816 223.57C622.816 221.249 621.721 219.165 619.379 219.165C616.994 219.165 615.898 221.249 615.898 223.57C615.898 225.89 616.994 227.953 619.379 227.953ZM634.462 224.558V217.683H636.288V229.35H634.462V227.373H634.333C633.774 228.555 632.636 229.5 630.874 229.5C628.661 229.5 627.092 228.06 627.092 225.095V217.683H628.94V224.966C628.94 226.642 629.993 227.717 631.475 227.717C632.786 227.717 634.462 226.728 634.462 224.558ZM641.101 222.345V229.35H639.253V217.683H641.037V219.509H641.187C641.746 218.327 642.82 217.532 644.603 217.532C646.967 217.532 648.535 218.972 648.535 221.937V229.35H646.687V222.066C646.687 220.261 645.699 219.187 644.045 219.187C642.347 219.187 641.101 220.326 641.101 222.345ZM656.592 217.683V219.23H654.143V225.998C654.143 227.502 654.873 227.738 655.668 227.738C656.012 227.738 656.485 227.717 656.764 227.695V229.414C656.485 229.457 656.012 229.5 655.475 229.5C653.928 229.5 652.274 228.533 652.274 226.47V219.23H650.512V217.683H652.274V214.89H654.143V217.683H656.592ZM663.747 229.586C660.374 229.586 658.29 227.201 658.29 223.613C658.29 220.025 660.395 217.532 663.575 217.532C666.025 217.532 668.603 219.036 668.603 223.355V224.129H660.137C660.223 226.599 661.663 227.953 663.747 227.953C665.144 227.953 666.025 227.351 666.454 226.621H668.431C667.872 228.383 666.154 229.586 663.747 229.586ZM660.159 222.56H666.734C666.734 220.605 665.487 219.165 663.575 219.165C661.556 219.165 660.266 220.755 660.159 222.56ZM675.414 229.586C672.513 229.586 670.451 227.244 670.451 223.548C670.451 219.853 672.513 217.532 675.435 217.532C677.691 217.532 678.422 218.907 678.809 219.531H678.938V213.794H680.807V229.35H679.002V227.566H678.809C678.401 228.211 677.649 229.586 675.414 229.586ZM675.672 227.932C677.799 227.932 679.002 226.127 679.002 223.505C679.002 220.927 677.842 219.187 675.672 219.187C673.437 219.187 672.32 221.078 672.32 223.505C672.32 225.998 673.459 227.932 675.672 227.932Z" fill="black"/>
<path d="M69.757 213.128C69.7355 217.941 66.9639 221.464 61.0123 223.312L60.3247 221.915C63.4831 220.981 65.5888 219.595 66.792 217.833L60.5181 218.327L60.2173 216.931L67.458 216.587C67.7266 215.932 67.8878 215.233 67.9737 214.503H61.1841V213.128H69.757ZM75.6442 212.01V223.011H73.9468V218.478H69.6926V217.06H73.9468V212.01H75.6442ZM75.6442 224.043V230.832H63.2468V224.043H75.6442ZM64.8797 225.418V229.457H73.9683V225.418H64.8797ZM96.3136 227.287V228.727H78.8241V227.287H86.6664V222.882H80.414V221.529H83.4006V215.255H80.3711V213.858H94.6377V215.255H91.6082V221.529H94.5947V222.882H88.3209V227.287H96.3136ZM85.0765 221.529H89.9538V215.255H85.0765V221.529ZM113.674 212.01V225.847H111.977V217.575H106.476V216.179H111.977V212.01H113.674ZM114.19 229.264V230.682H101.363V224.709H103.06V229.264H114.19ZM100.675 213.429V221.228C103.662 221.239 106.165 221.067 108.947 220.476L109.184 221.937C106.219 222.517 103.619 222.689 100.439 222.689H98.9779V213.429H100.675ZM132.324 222.324V223.699H119.11V213.643H132.109V215.061H120.829V217.898H131.701V219.251H120.829V222.324H132.324ZM134.344 227.201V228.598H116.854V227.201H134.344ZM158.881 227.201V228.598H141.391V227.201H149.212V222.517H150.866V227.201H158.881ZM150.909 214.761C150.909 217.962 154.691 220.755 158.021 221.335L157.269 222.732C154.358 222.141 151.285 220.164 150.05 217.403C148.793 220.154 145.742 222.141 142.831 222.732L142.079 221.335C145.409 220.755 149.147 217.962 149.147 214.761V213.3H150.909V214.761ZM170.182 213.02V214.567H174.544V211.989H176.22V221.808H174.544V219.337H170.182V220.82H161.309V213.02H170.182ZM162.984 214.374V219.466H168.528V214.374H162.984ZM176.22 222.775V227.351H165.563V229.479H176.95V230.832H163.887V226.062H174.544V224.129H163.844V222.775H176.22ZM170.182 217.984H174.544V215.878H170.182V217.984ZM201.337 213.643V214.997H185.845V213.643H192.807V211.71H194.483V213.643H201.337ZM193.645 215.771C197.577 215.771 199.833 216.737 199.833 218.542C199.833 220.39 197.577 221.335 193.645 221.335C189.691 221.335 187.435 220.39 187.435 218.542C187.435 216.737 189.691 215.771 193.645 215.771ZM193.645 216.974C190.787 216.974 189.154 217.554 189.176 218.542C189.154 219.574 190.787 220.111 193.645 220.089C196.502 220.111 198.092 219.574 198.114 218.542C198.092 217.554 196.502 216.974 193.645 216.974ZM202.347 222.453V223.785H194.483V225.761H200.026V231.09H198.35V227.094H186.812V225.761H192.807V223.785H184.943V222.453H202.347Z" fill="black"/>
<line x1="37" y1="300.033" x2="704.363" y2="300.033" stroke="black" stroke-width="0.786985"/>
<path d="M351.202 277.286V270.411H353.029V282.078H351.202V280.101H351.073C350.515 281.283 349.376 282.228 347.614 282.228C345.401 282.228 343.833 280.788 343.833 277.823V270.411H345.68V277.695C345.68 279.37 346.733 280.445 348.216 280.445C349.526 280.445 351.202 279.456 351.202 277.286ZM355.994 286.461V270.411H357.777V272.259H357.992C358.379 271.635 359.109 270.26 361.365 270.26C364.287 270.26 366.328 272.581 366.328 276.276C366.328 279.972 364.287 282.314 361.387 282.314C359.152 282.314 358.379 280.939 357.992 280.294H357.841V286.461H355.994ZM357.798 276.233C357.798 278.855 358.98 280.66 361.129 280.66C363.342 280.66 364.481 278.726 364.481 276.233C364.481 273.806 363.363 271.915 361.129 271.915C358.937 271.915 357.798 273.655 357.798 276.233ZM373.139 282.314C370.239 282.314 368.176 279.972 368.176 276.276C368.176 272.581 370.239 270.26 373.161 270.26C375.417 270.26 376.147 271.635 376.534 272.259H376.663V266.522H378.532V282.078H376.728V280.294H376.534C376.126 280.939 375.374 282.314 373.139 282.314ZM373.397 280.66C375.524 280.66 376.728 278.855 376.728 276.233C376.728 273.655 375.567 271.915 373.397 271.915C371.163 271.915 370.045 273.806 370.045 276.233C370.045 278.726 371.184 280.66 373.397 280.66ZM381.175 278.769C381.175 276.083 383.539 275.481 385.558 275.331C386.3 275.277 388.19 275.181 388.717 275.159V274.214C388.717 272.731 387.836 271.872 386.074 271.872C384.591 271.872 383.71 272.559 383.453 273.44H381.519C381.755 271.571 383.582 270.26 386.16 270.26C387.685 270.26 390.543 270.712 390.543 274.386V282.078H388.717V280.488H388.631C388.244 281.283 387.17 282.357 385.15 282.357C382.937 282.357 381.175 281.046 381.175 278.769ZM383.023 278.855C383.023 280.079 384.054 280.703 385.472 280.703C387.556 280.703 388.717 279.306 388.717 277.845V276.663L385.773 276.878C384.097 276.985 383.023 277.587 383.023 278.855ZM398.6 270.411V271.958H396.151V278.726C396.151 280.23 396.881 280.466 397.676 280.466C398.02 280.466 398.493 280.445 398.772 280.423V282.142C398.493 282.185 398.02 282.228 397.483 282.228C395.936 282.228 394.282 281.261 394.282 279.199V271.958H392.52V270.411H394.282V267.618H396.151V270.411H398.6ZM405.755 282.314C402.382 282.314 400.298 279.929 400.298 276.341C400.298 272.753 402.403 270.26 405.583 270.26C408.033 270.26 410.611 271.764 410.611 276.083V276.857H402.145C402.231 279.327 403.671 280.681 405.755 280.681C407.152 280.681 408.033 280.079 408.462 279.349H410.439C409.88 281.111 408.161 282.314 405.755 282.314ZM402.167 275.288H408.742C408.742 273.333 407.495 271.893 405.583 271.893C403.563 271.893 402.274 273.483 402.167 275.288ZM417.422 282.314C414.521 282.314 412.459 279.972 412.459 276.276C412.459 272.581 414.521 270.26 417.443 270.26C419.699 270.26 420.43 271.635 420.817 272.259H420.946V266.522H422.815V282.078H421.01V280.294H420.817C420.408 280.939 419.656 282.314 417.422 282.314ZM417.68 280.66C419.807 280.66 421.01 278.855 421.01 276.233C421.01 273.655 419.85 271.915 417.68 271.915C415.445 271.915 414.328 273.806 414.328 276.233C414.328 278.726 415.467 280.66 417.68 280.66Z" fill="black"/>
<path d="M548.497 282.314C545.317 282.314 543.168 279.929 543.168 276.298C543.168 272.667 545.317 270.26 548.497 270.26C551.655 270.26 553.782 272.667 553.782 276.298C553.782 279.929 551.655 282.314 548.497 282.314ZM548.497 280.681C550.839 280.681 551.934 278.618 551.934 276.298C551.934 273.977 550.839 271.893 548.497 271.893C546.112 271.893 545.016 273.977 545.016 276.298C545.016 278.618 546.112 280.681 548.497 280.681ZM558.058 275.073V282.078H556.21V270.411H557.993V272.237H558.144C558.702 271.055 559.777 270.26 561.56 270.26C563.924 270.26 565.492 271.7 565.492 274.665V282.078H563.644V274.794C563.644 272.989 562.656 271.915 561.001 271.915C559.304 271.915 558.058 273.054 558.058 275.073ZM578.878 266.522H580.811V276.814C580.811 280.015 578.427 282.357 574.752 282.357C571.078 282.357 568.693 280.015 568.693 276.814V266.522H570.627V276.663C570.627 278.919 572.196 280.552 574.752 280.552C577.331 280.552 578.878 278.919 578.878 276.663V266.522ZM584.013 286.461V270.411H585.796V272.259H586.011C586.398 271.635 587.128 270.26 589.384 270.26C592.306 270.26 594.348 272.581 594.348 276.276C594.348 279.972 592.306 282.314 589.406 282.314C587.171 282.314 586.398 280.939 586.011 280.294H585.861V286.461H584.013ZM585.818 276.233C585.818 278.855 586.999 280.66 589.148 280.66C591.361 280.66 592.5 278.726 592.5 276.233C592.5 273.806 591.383 271.915 589.148 271.915C586.956 271.915 585.818 273.655 585.818 276.233ZM601.159 282.314C598.258 282.314 596.195 279.972 596.195 276.276C596.195 272.581 598.258 270.26 601.18 270.26C603.436 270.26 604.167 271.635 604.553 272.259H604.682V266.522H606.552V282.078H604.747V280.294H604.553C604.145 280.939 603.393 282.314 601.159 282.314ZM601.416 280.66C603.544 280.66 604.747 278.855 604.747 276.233C604.747 273.655 603.587 271.915 601.416 271.915C599.182 271.915 598.065 273.806 598.065 276.233C598.065 278.726 599.203 280.66 601.416 280.66ZM609.194 278.769C609.194 276.083 611.558 275.481 613.577 275.331C614.319 275.277 616.21 275.181 616.736 275.159V274.214C616.736 272.731 615.855 271.872 614.093 271.872C612.611 271.872 611.73 272.559 611.472 273.44H609.538C609.774 271.571 611.601 270.26 614.179 270.26C615.705 270.26 618.562 270.712 618.562 274.386V282.078H616.736V280.488H616.65C616.263 281.283 615.189 282.357 613.169 282.357C610.956 282.357 609.194 281.046 609.194 278.769ZM611.042 278.855C611.042 280.079 612.073 280.703 613.492 280.703C615.576 280.703 616.736 279.306 616.736 277.845V276.663L613.792 276.878C612.116 276.985 611.042 277.587 611.042 278.855ZM626.619 270.411V271.958H624.17V278.726C624.17 280.23 624.901 280.466 625.696 280.466C626.039 280.466 626.512 280.445 626.791 280.423V282.142C626.512 282.185 626.039 282.228 625.502 282.228C623.955 282.228 622.301 281.261 622.301 279.199V271.958H620.539V270.411H622.301V267.618H624.17V270.411H626.619ZM633.774 282.314C630.401 282.314 628.317 279.929 628.317 276.341C628.317 272.753 630.422 270.26 633.602 270.26C636.052 270.26 638.63 271.764 638.63 276.083V276.857H630.165C630.251 279.327 631.69 280.681 633.774 280.681C635.171 280.681 636.052 280.079 636.481 279.349H638.458C637.9 281.111 636.181 282.314 633.774 282.314ZM630.186 275.288H636.761C636.761 273.333 635.515 271.893 633.602 271.893C631.583 271.893 630.294 273.483 630.186 275.288ZM645.441 282.314C642.541 282.314 640.478 279.972 640.478 276.276C640.478 272.581 642.541 270.26 645.463 270.26C647.719 270.26 648.449 271.635 648.836 272.259H648.965V266.522H650.834V282.078H649.029V280.294H648.836C648.428 280.939 647.676 282.314 645.441 282.314ZM645.699 280.66C647.826 280.66 649.029 278.855 649.029 276.233C649.029 273.655 647.869 271.915 645.699 271.915C643.464 271.915 642.347 273.806 642.347 276.233C642.347 278.726 643.486 280.66 645.699 280.66Z" fill="black"/>
<path d="M69.757 265.856C69.7355 270.669 66.9639 274.192 61.0123 276.04L60.3247 274.644C63.4831 273.709 65.5888 272.323 66.792 270.561L60.5181 271.055L60.2173 269.659L67.458 269.315C67.7266 268.66 67.8878 267.961 67.9737 267.231H61.1841V265.856H69.757ZM75.6442 264.739V275.739H73.9468V271.206H69.6926V269.788H73.9468V264.739H75.6442ZM75.6442 276.771V283.56H63.2468V276.771H75.6442ZM64.8797 278.146V282.185H73.9683V278.146H64.8797ZM96.3136 280.015V281.455H78.8241V280.015H86.6664V275.61H80.414V274.257H83.4006V267.983H80.3711V266.586H94.6377V267.983H91.6082V274.257H94.5947V275.61H88.3209V280.015H96.3136ZM85.0765 274.257H89.9538V267.983H85.0765V274.257ZM113.674 264.739V278.575H111.977V270.303H106.476V268.907H111.977V264.739H113.674ZM114.19 281.992V283.41H101.363V277.437H103.06V281.992H114.19ZM100.675 266.157V273.956C103.662 273.967 106.165 273.795 108.947 273.204L109.184 274.665C106.219 275.245 103.619 275.417 100.439 275.417H98.9779V266.157H100.675ZM132.324 275.052V276.427H119.11V266.371H132.109V267.79H120.829V270.626H131.701V271.979H120.829V275.052H132.324ZM134.344 279.929V281.326H116.854V279.929H134.344ZM146.655 265.619C149.223 265.598 151.167 267.091 151.532 269.294H155.529V264.717H157.226V274.966H155.529V270.69H151.554C151.21 272.946 149.244 274.45 146.655 274.45C143.755 274.45 141.692 272.645 141.692 270.024C141.692 267.424 143.755 265.598 146.655 265.619ZM146.655 267.059C144.7 267.037 143.303 268.262 143.303 270.024C143.303 271.764 144.7 273.032 146.655 273.032C148.589 273.032 149.964 271.764 149.964 270.024C149.964 268.262 148.589 267.037 146.655 267.059ZM146.612 275.933V278.361H155.529V275.933H157.226V283.56H144.915V275.933H146.612ZM146.612 282.185H155.529V279.714H146.612V282.185ZM176.757 264.717V283.818H175.124V264.717H176.757ZM172.846 265.19V282.83H171.235V273.44H167.067V272.022H171.235V265.19H172.846ZM168.356 267.08V268.477H162.791V277.802C165.541 277.791 167.282 277.673 169.344 277.222L169.516 278.661C167.303 279.113 165.434 279.199 162.361 279.22H161.158V267.08H168.356ZM195.17 264.717V283.861H193.473V264.717H195.17ZM185.007 266.2C187.844 266.221 189.885 268.799 189.885 272.86C189.885 276.921 187.844 279.499 185.007 279.499C182.15 279.499 180.13 276.921 180.13 272.86C180.13 268.799 182.15 266.221 185.007 266.2ZM185.007 267.704C183.095 267.725 181.763 269.745 181.763 272.86C181.763 275.976 183.095 277.995 185.007 277.995C186.92 277.995 188.252 275.976 188.252 272.86C188.252 269.745 186.92 267.725 185.007 267.704ZM213.906 275.052V276.427H200.692V266.371H213.691V267.79H202.411V270.626H213.283V271.979H202.411V275.052H213.906ZM215.926 279.929V281.326H198.436V279.929H215.926ZM239.367 266.371V267.725H223.876V266.371H230.837V264.438H232.513V266.371H239.367ZM231.675 268.499C235.607 268.499 237.863 269.465 237.863 271.27C237.863 273.118 235.607 274.063 231.675 274.063C227.721 274.063 225.465 273.118 225.465 271.27C225.465 269.465 227.721 268.499 231.675 268.499ZM231.675 269.702C228.817 269.702 227.184 270.282 227.206 271.27C227.184 272.302 228.817 272.839 231.675 272.817C234.533 272.839 236.122 272.302 236.144 271.27C236.122 270.282 234.533 269.702 231.675 269.702ZM240.377 275.181V276.513H232.513V278.489H238.056V283.818H236.38V279.822H224.842V278.489H230.837V276.513H222.973V275.181H240.377Z" fill="black"/>
<path d="M75.0426 53.5903V60.9814H77.9217V63.2375H75.0426V73.1854H72.3353V53.5903H75.0426ZM69.4562 55.2232V62.8078H63.1608V66.3529C66.0077 66.3422 68.3604 66.2133 70.9602 65.7728L71.1966 67.9644C68.21 68.5015 65.5243 68.6304 62.0866 68.6304H60.4321V60.6377H66.7275V57.4363H60.4107V55.2232H69.4562ZM95.003 53.5903V73.1854H92.2313V53.5903H95.003ZM84.3889 54.9654C87.3325 54.9654 89.5241 57.6726 89.5241 61.9268C89.5241 66.224 87.3325 68.9098 84.3889 68.9098C81.3809 68.9098 79.1893 66.224 79.2108 61.9268C79.1893 57.6726 81.3809 54.9654 84.3889 54.9654ZM84.3889 57.4363C82.8634 57.4363 81.8536 59.0262 81.8536 61.9268C81.8536 64.8489 82.8634 66.4174 84.3889 66.4174C85.8715 66.4174 86.8813 64.8489 86.8813 61.9268C86.8813 59.0262 85.8715 57.4363 84.3889 57.4363ZM115.544 68.5875V70.865H97.6457V68.5875H115.544ZM114.039 55.3092V57.5007H111.289V63.4308H113.954V65.5794H99.1283V63.4308H101.75V57.5007H99.0423V55.3092H114.039ZM104.5 63.4308H108.582V57.5007H104.5V63.4308ZM123.859 58.0164C123.837 61.5186 125.341 65.0638 128.478 66.5678L126.824 68.7593C124.729 67.728 123.321 65.7943 122.505 63.4308C121.656 65.9662 120.141 68.0396 117.928 69.1246L116.231 66.9116C119.54 65.3861 121.108 61.6475 121.108 58.0164V55.0943H123.859V58.0164ZM132.088 53.5903V61.1318H134.967V63.4523H132.088V73.1425H129.337V53.5903H132.088ZM152.048 53.5903V73.1854H149.276V53.5903H152.048ZM141.434 54.9654C144.378 54.9654 146.569 57.6726 146.569 61.9268C146.569 66.224 144.378 68.9098 141.434 68.9098C138.426 68.9098 136.234 66.224 136.256 61.9268C136.234 57.6726 138.426 54.9654 141.434 54.9654ZM141.434 57.4363C139.909 57.4363 138.899 59.0262 138.899 61.9268C138.899 64.8489 139.909 66.4174 141.434 66.4174C142.917 66.4174 143.926 64.8489 143.926 61.9268C143.926 59.0262 142.917 57.4363 141.434 57.4363ZM170.462 54.2993V55.9967C170.462 57.533 170.462 59.1659 170.075 61.1533H172.481V63.3234H154.734V61.1533H167.346C167.453 60.5625 167.529 60.0146 167.604 59.4989L156.646 59.9286L156.345 57.823L167.733 57.5867V56.4479H156.882V54.2993H170.462ZM170.547 64.4837V69.6188H159.418V70.822H171.235V72.9276H156.689V67.6421H167.819V66.5678H156.668V64.4837H170.547ZM195.686 55.0513V57.1355H179.636V55.0513H186.318V53.4184H189.068V55.0513H195.686ZM187.693 57.6511C191.883 57.6511 194.268 58.6395 194.268 60.5088C194.268 62.4425 191.883 63.4094 187.693 63.4094C183.482 63.4094 181.097 62.4425 181.119 60.5088C181.097 58.6395 183.482 57.6511 187.693 57.6511ZM187.693 59.5204C185.093 59.5204 183.912 59.8212 183.912 60.5088C183.912 61.2178 185.093 61.4971 187.693 61.4971C190.272 61.4971 191.453 61.2178 191.453 60.5088C191.453 59.8212 190.272 59.5204 187.693 59.5204ZM196.61 64.1399V66.2455H189.068V67.6851H194.397V73.1425H191.647V69.7477H180.71V67.6851H186.318V66.2455H178.777V64.1399H196.61Z" fill="black"/>
<path d="M351.847 53.8266C356.23 53.8266 358.937 55.1588 358.959 57.5007C358.937 59.5956 356.767 60.9062 353.158 61.1533V62.4425H360.764V64.6341H342.93V62.4425H350.472V61.1533C346.916 60.8848 344.714 59.5849 344.714 57.5007C344.714 55.1588 347.485 53.8266 351.847 53.8266ZM351.847 55.8463C349.075 55.8463 347.55 56.4264 347.571 57.5007C347.55 58.5535 349.075 59.1122 351.847 59.1122C354.576 59.1122 356.123 58.5535 356.123 57.5007C356.123 56.4264 354.576 55.8463 351.847 55.8463ZM347.722 65.4935V67.062H355.865V65.4935H358.615V72.9276H345.014V65.4935H347.722ZM347.722 70.7361H355.865V69.1461H347.722V70.7361ZM369.272 56.9636C369.272 59.6708 370.604 62.3565 373.698 63.4953L372.173 65.6224C370.121 64.8167 368.713 63.2804 367.918 61.3467C367.059 63.4094 365.544 65.0208 363.32 65.8588L361.859 63.7102C365.061 62.5714 366.5 59.8212 366.5 56.9636V54.7076H369.272V56.9636ZM378.425 53.6118V68.1148H375.696V62.1417H372.344V59.9286H375.696V58.3602H372.344V56.1471H375.696V53.6118H378.425ZM378.833 70.6071V72.7987H365.404V66.7182H368.176V70.6071H378.833ZM389.361 71.1658H385.881L391.274 55.61H395.42L400.792 71.1658H397.333L396.172 67.5776H390.543L389.361 71.1658ZM391.359 65.0638H395.356L393.401 59.1122H393.293L391.359 65.0638ZM402.554 71.1658V55.61H408.656C412.201 55.61 414.22 57.78 414.22 60.8525C414.22 63.968 412.158 66.0951 408.57 66.0951H405.777V71.1658H402.554ZM405.777 63.4953H408.054C409.966 63.4953 410.89 62.421 410.89 60.8525C410.89 59.3055 409.966 58.2527 408.054 58.2527H405.777V63.4953ZM419.485 55.61V71.1658H416.262V55.61H419.485Z" fill="black"/>
<path d="M553.181 54.5572C553.181 59.9072 550.581 63.4738 544.199 65.4075L543.147 63.2375C545.822 62.4747 547.616 61.4327 548.733 60.1435L543.533 60.5302L543.147 58.3817L549.915 58.1668C550.065 57.7156 550.173 57.2429 550.237 56.7487H544.135V54.5572H553.181ZM559.304 53.6118V64.763H556.575V60.7021H553.052V58.4676H556.575V53.6118H559.304ZM559.304 65.6224V72.9276H546.348V65.6224H559.304ZM549.034 67.7925V70.7361H556.597V67.7925H549.034ZM579.737 68.6734V70.9724H561.839V68.6734H569.359V65.1497H563.322V63.0011H565.943V57.4148H563.236V55.2232H578.233V57.4148H575.483V63.0011H578.147V65.1497H572.088V68.6734H579.737ZM568.693 63.0011H572.776V57.4148H568.693V63.0011ZM588.439 58.9188C588.439 62.0772 590.05 65.4505 593.338 66.8256L591.855 68.9742C589.546 67.9966 587.956 66.0521 587.085 63.6672C586.194 66.2562 584.572 68.4048 582.273 69.4684L580.704 67.2983C583.948 65.8588 585.624 62.2276 585.624 58.9188V57.7156H581.478V55.4811H592.521V57.7156H588.439V58.9188ZM597.227 53.5903V73.1425H594.455V53.5903H597.227ZM607.196 56.9636C607.196 59.6708 608.528 62.3565 611.622 63.4953L610.097 65.6224C608.045 64.8167 606.638 63.2804 605.843 61.3467C604.983 63.4094 603.468 65.0208 601.245 65.8588L599.784 63.7102C602.985 62.5714 604.425 59.8212 604.425 56.9636V54.7076H607.196V56.9636ZM616.349 53.6118V68.1148H613.62V62.1417H610.269V59.9286H613.62V58.3602H610.269V56.1471H613.62V53.6118H616.349ZM616.757 70.6071V72.7987H603.329V66.7182H606.1V70.6071H616.757ZM627.286 71.1658H623.805L629.198 55.61H633.345L638.716 71.1658H635.257L634.097 67.5776H628.467L627.286 71.1658ZM629.284 65.0638H633.28L631.325 59.1122H631.217L629.284 65.0638ZM640.478 71.1658V55.61H646.58C650.125 55.61 652.145 57.78 652.145 60.8525C652.145 63.968 650.082 66.0951 646.494 66.0951H643.701V71.1658H640.478ZM643.701 63.4953H645.978C647.891 63.4953 648.814 62.421 648.814 60.8525C648.814 59.3055 647.891 58.2527 645.978 58.2527H643.701V63.4953ZM657.409 55.61V71.1658H654.186V55.61H657.409Z" fill="black"/>
</svg>
