<svg width="14" height="18" viewBox="0 0 14 18" fill="none" xmlns="http://www.w3.org/2000/svg">
<path d="M13.793 6.475C13.793 6.475 9.28804 1.973 7.53404 0.22C7.38704 0.074 7.19504 0 7.00404 0C6.81204 0 6.62004 0.074 6.47304 0.22C4.72004 1.973 0.217041 6.472 0.217041 6.472C0.0700405 6.619 -0.00195946 6.811 4.05381e-05 7.004C0.00104054 7.194 0.0750407 7.384 0.221041 7.529C0.513041 7.822 0.98704 7.824 1.27704 7.533L6.25404 2.557V17.249C6.25404 17.663 6.59004 17.999 7.00404 17.999C7.41704 17.999 7.75404 17.663 7.75404 17.249V2.557L12.732 7.535C13.021 7.825 13.494 7.822 13.787 7.529C13.932 7.384 14.006 7.194 14.008 7.004C14.01 6.812 13.938 6.62 13.793 6.475Z" fill="black"/>
</svg>
