<svg width="177" height="157" viewBox="0 0 177 157" fill="none" xmlns="http://www.w3.org/2000/svg">
<mask id="mask0_1_32" style="mask-type:luminance" maskUnits="userSpaceOnUse" x="0" y="0" width="177" height="157">
<path d="M176.5 16.9L160.5 44.9L155.95 52.9H145.15L131.37 78.95C132.11 82.15 132.5 85.48 132.5 88.9C132.5 107.54 120.9 123.46 104.55 129.88C104.05 130.08 103.55 130.26 103.05 130.43L88.5 156.9L73.95 130.43C73.45 130.26 72.95 130.08 72.47 129.89C56.1 123.4 44.5 107.5 44.5 88.9C44.5 85.47 44.9 82.13 45.63 78.93L31.93 52.9H21.13L16.5 44.9L0.5 16.9H46.5L54 31.77L54.38 32.02C54.38 31.94 54.52 31.85 54.53 31.77C56.1 14.47 70.7 0.899994 88.43 0.899994C106.16 0.899994 120.76 14.47 122.33 31.8C122.33 31.87 122.11 31.96 122.11 32.04L122.01 31.8L130.5 16.9H176.5Z" fill="white"/>
</mask>
<g mask="url(#mask0_1_32)">
<path d="M147.97 43.9L143.69 52.9H155.89L156.49 51.88L160.99 43.9H147.89H147.97ZM28.8 43.9H15.95L21.13 52.9H33.15L28.82 43.9H28.8Z" fill="#9E9E9E"/>
<path d="M176.5 16.9L160.5 44.9H149.3L131.37 78.95L88.5 156.9L45.63 78.93L27.7 44.9H16.5L0.5 16.9H46.5L54 31.77L78.4 76.27L88.37 94.55L98.01 76.27L122.01 31.8L130.5 16.9" fill="#424242"/>
<path d="M47.06 17.9H1.06L0.5 16.9H46.5L47.06 17.9ZM130.5 16.9L129.95 17.9H175.93L176.5 16.9H130.5Z" fill="white" fill-opacity="0.2"/>
<path d="M156.54 51.88L155.96 52.9H145.1L131.37 78.95L88.5 156.9L45.63 78.93L31.93 52.9H21.06L20.5 51.9H31.93L32.46 52.9L45.63 77.93L88.5 155.9L131.37 77.95L144.57 52.9L145.11 51.88" fill="#263238" fill-opacity="0.2"/>
</g>
<mask id="mask1_1_32" style="mask-type:luminance" maskUnits="userSpaceOnUse" x="0" y="0" width="177" height="157">
<path d="M176.5 16.9L160.5 44.9L155.95 52.9H145.15L131.37 78.95C132.11 82.15 132.5 85.48 132.5 88.9C132.5 107.54 120.9 123.46 104.55 129.88C104.05 130.08 103.55 130.26 103.05 130.43L88.5 156.9L73.95 130.43C73.45 130.26 72.95 130.08 72.47 129.89C56.1 123.4 44.5 107.5 44.5 88.9C44.5 85.47 44.9 82.13 45.63 78.93L31.93 52.9H21.13L16.5 44.9L0.5 16.9H46.5L54 31.77L54.38 32.02C54.38 31.94 54.52 31.85 54.53 31.77C56.1 14.47 70.7 0.899994 88.43 0.899994C106.16 0.899994 120.76 14.47 122.33 31.8C122.33 31.87 122.11 31.96 122.11 32.04L122.01 31.8L130.5 16.9H176.5Z" fill="white"/>
</mask>
<g mask="url(#mask1_1_32)">
<path d="M105.5 88.9C105.5 98.3 97.9 105.9 88.5 105.9C79.13 105.9 71.5 98.3 71.5 88.9C71.5 79.5 79.13 71.9 88.5 71.9C97.9 71.9 105.5 79.5 105.5 88.9ZM103.5 36.9C103.5 45.18 96.78 51.9 88.5 51.9C80.23 51.9 73.5 45.18 73.5 36.9C73.5 28.62 80.23 21.9 88.5 21.9C96.78 21.9 103.5 28.62 103.5 36.9Z" fill="white"/>
<path d="M131.37 78.95C129.12 69.23 123.67 60.75 116.17 54.68C120.14 49.1 122.5 42.28 122.5 34.9C122.5 33.85 122.45 32.82 122.35 31.8C120.8 14.46 106.23 0.899994 88.5 0.899994C70.77 0.899994 56.22 14.46 54.65 31.77C54.55 32.8 54.5 33.85 54.5 34.9C54.5 42.28 56.85 49.1 60.84 54.68C53.34 60.75 47.88 69.22 45.64 78.93C44.89 82.13 44.5 85.47 44.5 88.9C44.5 107.54 56.1 123.48 72.47 129.9C77.43 131.83 82.84 132.9 88.5 132.9C94.16 132.9 99.58 131.83 104.55 129.88C120.9 123.46 132.5 107.54 132.5 88.9C132.5 85.48 132.1 82.15 131.37 78.95ZM88.5 22.9C96.23 22.9 102.5 29.17 102.5 36.9C102.5 44.63 96.23 50.9 88.5 50.9C80.78 50.9 74.5 44.63 74.5 36.9C74.5 29.17 80.78 22.9 88.5 22.9ZM88.5 104.9C79.68 104.9 72.5 97.74 72.5 88.9C72.5 83.77 74.92 79.2 78.68 76.27C81.38 74.17 84.8 72.9 88.5 72.9C92.2 72.9 95.62 74.16 98.33 76.27C102.1 79.2 104.5 83.77 104.5 88.9C104.5 97.74 97.34 104.9 88.5 104.9Z" fill="#4285F4"/>
<path d="M122.5 34.9V35.4C122.22 16.85 107.1 1.89999 88.5 1.89999C69.9 1.89999 54.77 16.85 54.5 35.4V34.9C54.5 16.12 69.72 0.899994 88.5 0.899994C107.28 0.899994 122.5 16.12 122.5 34.9ZM60.4 55.05C50.7 63.1 44.5 75.28 44.5 88.9V89.4C44.65 75.78 51 63.65 60.84 55.68L61.3 55.31L60.84 54.71L60.4 55.11V55.05ZM116.6 55.05L116.16 54.68L115.7 55.31L116.16 55.71C126.01 63.71 132.36 75.81 132.5 89.41V88.91C132.5 75.31 126.3 63.11 116.6 55.11V55.05Z" fill="white" fill-opacity="0.2"/>
<path d="M132.5 88.4V88.9C132.5 113.2 112.8 132.9 88.5 132.9C64.2 132.9 44.5 113.2 44.5 88.9V88.4C44.77 112.47 64.37 131.9 88.5 131.9C112.63 131.9 132.23 112.47 132.5 88.4ZM54.5 34.4V34.9C54.5 42.56 57.03 49.63 61.3 55.3C61.46 55.2 61.62 55.06 61.8 54.94C57.32 49.27 54.62 42.14 54.5 34.4ZM122.5 34.4C122.38 42.15 119.68 49.27 115.2 54.94C115.38 55.06 115.54 55.19 115.7 55.31C119.97 49.71 122.5 42.61 122.5 34.91V34.41V34.4Z" fill="#263238" fill-opacity="0.2"/>
</g>
</svg>
