<svg width="18" height="14" viewBox="0 0 18 14" fill="none" xmlns="http://www.w3.org/2000/svg">
<path d="M11.523 13.787C11.523 13.787 16.024 9.282 17.778 7.527C17.924 7.381 17.997 7.189 17.997 6.997C17.997 6.805 17.924 6.614 17.778 6.467C16.025 4.713 11.523 0.209001 11.523 0.209001C11.379 0.0640006 11.189 -0.00799942 10.999 -0.00799942C10.806 -0.00799942 10.614 0.0660003 10.467 0.213C10.174 0.505 10.172 0.979001 10.463 1.269L15.441 6.247H0.749001C0.335001 6.247 -0.000999451 6.583 -0.000999451 6.997C-0.000999451 7.411 0.335001 7.747 0.749001 7.747H15.441L10.462 12.726C10.173 13.015 10.176 13.488 10.468 13.78C10.616 13.928 10.809 14.002 11.001 14.002C11.191 14.002 11.379 13.93 11.523 13.787Z" fill="white"/>
</svg>
