<svg width="18" height="14" viewBox="0 0 18 14" fill="none" xmlns="http://www.w3.org/2000/svg">
<path d="M6.474 0.21501C6.474 0.21501 1.973 4.72001 0.22 6.47401C0.073 6.62001 0 6.81201 0 7.00401C0 7.19601 0.073 7.38801 0.22 7.53401C1.972 9.28801 6.472 13.791 6.472 13.791C6.617 13.936 6.808 14.008 6.999 14.008C7.19 14.007 7.382 13.934 7.529 13.787C7.822 13.494 7.823 13.021 7.533 12.73L2.557 7.75401H17.249C17.663 7.75401 17.999 7.41801 17.999 7.00401C17.999 6.59001 17.663 6.25401 17.249 6.25401H2.557L7.535 1.27501C7.824 0.98601 7.822 0.51401 7.529 0.22101C7.382 0.0740105 7.19 1.02743e-05 6.999 1.02743e-05C6.808 -0.000989726 6.619 0.0710104 6.474 0.21501Z" fill="black"/>
</svg>
