<svg width="16" height="24" viewBox="0 0 16 24" fill="none" xmlns="http://www.w3.org/2000/svg">
<path d="M13 9.761V5C13 2.239 10.762 0 8 0C5.237 0 3 2.239 3 5V9.761C1.173 11.227 0 13.475 0 16C0 20.418 3.582 24 8 24C12.418 24 16 20.418 16 16C16 13.475 14.827 11.227 13 9.761ZM5 5C5 3.346 6.346 2 8 2C9.654 2 11 3.346 11 5V8.587C10.073 8.211 9.062 8 8 8C6.938 8 5.927 8.211 5 8.587V5ZM8 22C4.691 22 2 19.309 2 16C2 12.691 4.691 10 8 10C11.309 10 14 12.691 14 16C14 19.309 11.309 22 8 22ZM10 15C10 15.738 9.596 16.376 9 16.723V19H7V16.723C6.404 16.376 6 15.739 6 15C6 13.896 6.896 13 8 13C9.104 13 10 13.896 10 15Z" fill="black"/>
</svg>
