<svg width="130" height="218" viewBox="0 0 130 218" fill="none" xmlns="http://www.w3.org/2000/svg">
<path fill-rule="evenodd" clip-rule="evenodd" d="M47.2133 76.3546C47.792 75.104 47.324 74.4347 46.3867 73.9627C44.2973 72.9093 42.2893 73.6467 40.3227 74.3387C39.988 74.456 39.652 75.208 39.7093 75.6093C39.764 75.972 40.3547 76.5267 40.712 76.528C42.908 76.5427 45.108 76.4253 47.2133 76.3546ZM86.52 77.404C86.9627 77.436 87.62 77.5093 88.2787 77.5267C88.9333 77.5427 89.604 77.5826 90.236 77.4546C90.5627 77.3893 90.9693 77.032 91.068 76.72C91.164 76.42 91.02 75.8973 90.7867 75.6707C90.3293 75.2253 89.7773 74.8107 89.1907 74.5707C87.084 73.7053 85.0053 74.084 83.056 75.0453C82.5973 75.2733 82.248 76.056 82.1653 76.6293C82.0707 77.2573 83.1067 77.8853 83.948 77.8053C84.7373 77.7293 85.516 77.564 86.52 77.404ZM87.6027 91.6387C87.344 90.7627 87.16 89.5853 86.6573 88.5653C85.972 87.1787 83.9573 87.14 83.052 88.38C81.7413 90.1707 81.8907 93.2293 83.3747 94.9506C84.464 96.2173 86.684 95.8267 87.1907 94.232C87.4227 93.5 87.4427 92.7013 87.6027 91.6387ZM41.8067 91.1947C41.98 92.1747 42.064 93.3693 42.4227 94.4773C42.7133 95.3707 43.4747 96.0026 44.4907 96.0893C45.508 96.1773 46.2667 95.6547 46.7827 94.832C47.9213 93.0147 47.6386 89.7 46.2266 88.14C45.5506 87.3947 44.6307 87.0506 43.74 87.484C43.096 87.8 42.508 88.432 42.1533 89.068C41.8547 89.6 41.9267 90.34 41.8067 91.1947ZM74.128 101.205C74.1507 98.6293 73.292 97.0146 71.7773 95.8213C69.8693 94.316 69.0373 92.364 68.8867 90.0053C68.744 87.772 68.5547 85.5387 68.3187 83.312C68.2093 82.2813 67.9933 81.2506 67.704 80.256C67.628 79.992 67.1133 79.7173 66.7867 79.6987C66.46 79.6813 65.952 79.8906 65.8107 80.1533C65.508 80.716 65.2587 81.3693 65.2227 82C65.0973 84.104 65.0147 86.2146 65.0227 88.3226C65.0373 92.2706 65.764 95.956 69.1773 98.536C69.3866 98.6933 69.636 98.884 69.7093 99.1107C69.9426 99.8387 70.292 100.604 70.2467 101.335C70.156 102.852 69.4293 104.103 68.0653 104.893C67.2707 105.355 66.4133 105.723 65.656 106.24C64.9907 106.692 64.46 107.331 64.8093 108.235C65.14 109.095 65.9373 109.395 66.732 109.319C67.6307 109.232 68.576 109.036 69.3733 108.636C72.6413 106.992 74.1667 104.251 74.128 101.205ZM65.068 112.845C61.784 113.251 58.3693 113.616 54.976 114.123C53.956 114.275 52.9667 114.751 52.0187 115.195C50.96 115.696 50.5453 116.648 50.5693 117.804C50.604 119.461 51.0867 121.007 52.324 122.089C53.5 123.117 54.7906 124.204 56.2266 124.708C61.3146 126.493 66.3907 126.208 71.216 123.724C73.476 122.561 75.3547 120.863 76.5387 118.541C77.492 116.675 76.9266 115.195 74.9947 114.385C74.5107 114.184 74.0053 113.972 73.4933 113.904C70.744 113.533 67.9907 113.207 65.068 112.845ZM66.7733 58.796C67.2693 59.8853 67.664 60.8573 68.1453 61.784C68.816 63.0733 69.468 64.3826 70.2733 65.5866C73.304 70.124 77.6787 71.856 82.9667 71.244C85.32 70.972 87.62 70.2613 89.948 69.776C92.0173 69.344 94.076 68.8267 96.1667 68.572C97.688 68.3853 98.3506 68.9627 98.744 70.448C99.1853 72.108 99.212 73.9426 99.932 75.4546C102.139 80.0946 101.708 84.9907 101.777 89.8653C101.879 96.976 100.66 103.827 98.0653 110.455C95.8706 116.063 92.8013 121.164 88.9827 125.772C85.7293 129.696 81.7813 132.847 76.7106 134.115C74.412 134.689 72.0107 134.928 69.6413 135.129C63.816 135.625 57.9946 135.536 52.1933 134.72C50.3413 134.46 48.76 133.784 47.088 132.849C43.6893 130.948 40.6693 128.665 37.8893 125.993C34.1293 122.383 30.9627 118.375 29.0213 113.463C25.6053 104.805 22.8933 95.9667 21.928 86.6693C21.612 83.6387 21.6173 80.6 22.044 77.652C23.34 76.368 24.848 75.9427 26.4413 75.74C32.988 74.904 39.0307 72.7213 44.5133 69.0253C51.0467 64.6213 58.4347 61.9853 65.5893 58.8733C65.8107 58.7773 66.0973 58.8347 66.7733 58.796Z" fill="white"/>
<path fill-rule="evenodd" clip-rule="evenodd" d="M82.592 136.011C83.3333 139.676 83.7413 143.097 84.7587 146.328C85.7813 149.576 87.412 152.632 88.9173 156.095C88.7867 157.077 87.7013 157.711 86.684 158.247C81.7493 160.841 77.188 163.989 72.7907 167.396C72.3747 167.719 71.8867 167.953 71.4813 168.289C68.4053 170.833 65.224 170.651 61.92 168.755C59.168 167.18 56.3707 165.684 53.612 164.115C49.2693 161.644 44.9413 159.144 40.3933 156.535C41.2787 155.153 42.272 153.797 43.056 152.329C43.9253 150.701 44.66 148.996 45.3547 147.284C45.9973 145.701 46.6307 144.096 47.044 142.445C47.456 140.801 47.5907 139.085 47.8893 137.135C49.94 137.405 51.8547 137.611 53.752 137.916C61.1413 139.101 68.524 138.825 75.8813 137.72C78.068 137.391 80.1907 136.636 82.592 136.011Z" fill="white"/>
<path fill-rule="evenodd" clip-rule="evenodd" d="M116.565 203.02C117.752 204.829 118.083 206.296 117.379 207.635C116.411 209.468 114.728 210.607 112.639 210.868C110.66 211.116 108.66 211.108 106.777 210.276C105.205 209.584 103.529 209.029 102.121 208.084C99.8253 206.539 97.7747 206.684 95.472 208.057C93.8973 208.996 92.104 209.584 90.3773 210.251C86.0413 211.917 81.8293 211.695 77.7893 209.301C77.3347 209.029 76.8493 208.804 76.42 208.499C73.724 206.597 71.088 206.844 68.2187 208.296C65.516 209.663 62.6373 210.7 59.7813 211.735C55.444 213.307 51.1667 212.861 47.0613 210.881C45.16 209.963 43.2773 208.956 41.528 207.779C38.9173 206.025 36.332 206.076 33.6627 207.472C32.2547 208.205 30.8413 208.941 29.508 209.797C24.9147 212.743 20.4849 212.237 16.1636 209.244C15.3093 208.651 14.55 207.921 13.6489 207.176C13.886 205.812 14.1073 204.536 14.3797 202.963C15.1427 203.328 15.7245 203.532 16.2219 203.864C16.9901 204.376 17.6907 204.993 18.4421 205.536C21.3 207.601 24.1987 207.977 27.268 205.899C28.6867 204.936 30.216 204.113 31.7653 203.371C35.844 201.42 39.8987 201.293 43.9053 203.68C45.4947 204.625 47.156 205.459 48.8147 206.281C52.0547 207.891 55.396 208.216 58.808 206.88C61.144 205.964 63.5546 205.161 65.7586 203.983C70.3786 201.515 74.824 201.309 79.2347 204.356C81.6453 206.02 84.3133 206.732 87.1507 206.004C89.056 205.516 90.864 204.632 92.6933 203.871C93.6666 203.465 94.5827 202.915 95.552 202.487C98.0027 201.407 100.411 201.46 102.807 202.735C104.556 203.665 106.341 204.536 108.147 205.355C110.092 206.237 111.936 206.279 113.669 204.699C114.412 204.021 115.441 203.653 116.565 203.02Z" fill="white"/>
<path fill-rule="evenodd" clip-rule="evenodd" d="M31.86 163.42C33.8293 161.887 35.576 160.524 37.2293 159.236C39.7973 159.869 41.8453 161.052 43.8893 162.264C48.896 165.232 53.904 168.196 58.9413 171.111C60.8867 172.237 62.9027 173.211 65.172 173.591C67.3467 173.955 69.412 173.781 71.288 172.591C73.4093 171.247 75.4773 169.823 77.5587 168.421C79.9747 166.799 82.3573 165.131 84.7947 163.545C86.9987 162.112 89.2573 160.764 91.728 159.232C93.3013 160.404 95.0547 161.709 97.1053 163.24C96.076 164.005 95.264 164.584 94.4853 165.204C93.6573 165.863 92.9093 166.631 92.0453 167.236C87.2813 170.573 82.8707 174.416 77.672 177.125C76.3893 177.795 75.264 178.759 74.0147 179.503C72.316 180.516 70.54 181.405 68.8467 182.431C67.2853 183.377 65.8493 183.176 64.3853 182.252C63.2667 181.548 62.1093 180.905 60.9747 180.224C54.7347 176.483 48.5253 172.692 42.2467 169.016C39.5107 167.416 36.636 166.056 33.832 164.576C33.2693 164.279 32.7347 163.935 31.86 163.42Z" fill="white"/>
<path fill-rule="evenodd" clip-rule="evenodd" d="M115.207 196.465C115.409 197.04 115.664 197.756 115.897 198.419C114.751 200.029 113.067 200.131 111.537 200.157C109.691 200.193 107.844 199.791 106.316 198.572C105.073 197.581 103.807 196.623 102.613 195.576C100.183 193.44 97.7267 193.247 95.0827 195.204C93.9147 196.071 92.6253 196.764 91.376 197.513C88.9507 198.964 86.4413 199.309 83.7947 198.119C81.9853 197.304 80.0987 196.641 78.3547 195.708C75.704 194.288 73.0133 194.271 70.3013 195.245C68.568 195.869 66.936 196.771 65.2533 197.531C62.968 198.565 60.7027 199.645 58.3867 200.596C54.9 202.031 51.6507 201.149 48.5373 199.384C47.3893 198.732 46.2867 197.989 45.1053 197.412C42.48 196.127 39.772 195.927 37.0333 197.068C34.352 198.188 31.6187 199.209 29.0173 200.497C24.1253 202.921 20.3667 202.369 16.4093 198.492C15.3797 197.483 15.3016 196.471 16.0161 195.271C17.476 195.312 18.2547 196.559 19.3781 197.188C20.4109 197.765 21.4253 198.464 22.5427 198.789C24.1053 199.245 25.6133 198.877 27.124 198.121C29.84 196.761 32.656 195.601 35.444 194.392C39.8027 192.503 43.9773 193.147 47.9973 195.423C48.8 195.88 49.5453 196.443 50.3427 196.908C52.6307 198.244 55.06 198.72 57.572 197.708C59.7747 196.82 61.968 195.872 64.0507 194.74C66.2773 193.528 68.5587 192.527 71.02 191.936C73.6667 191.303 76.2613 191.369 78.7747 192.568C80.3267 193.305 81.9453 193.908 83.4747 194.693C86.0787 196.028 88.5053 196.013 90.9067 194.189C92.06 193.312 93.372 192.641 94.612 191.881C97.5053 190.104 100.352 190.095 103.136 192.123C104.42 193.056 105.799 193.889 106.947 194.969C108.988 196.887 111.199 197.541 113.845 196.485C114.089 196.389 114.352 196.328 114.613 196.291C114.724 196.272 114.849 196.355 115.207 196.465Z" fill="white"/>
<path fill-rule="evenodd" clip-rule="evenodd" d="M19.3052 90.3547C15.9979 89.6693 13.9604 88.34 12.0943 85.7613C10.5735 83.66 9.75053 81.3627 10.0333 78.7253C10.2115 77.0587 10.7948 75.6787 12.6088 74.8C14.5021 75.64 16.524 76.54 18.7661 77.5387C18.7661 78.5694 18.7661 79.6827 18.7661 81.0533C17.5932 80.432 16.6219 79.7893 15.5552 79.4227C15.1412 79.28 14.5109 79.7614 13.674 80.072C16.4656 83.2374 19.6099 85.856 19.3052 90.3547Z" fill="white"/>
<path fill-rule="evenodd" clip-rule="evenodd" d="M105.439 87.7853C105.361 87.0507 105.297 86.264 105.196 85.484C104.967 83.7 105.456 82.2147 106.565 80.7413C107.821 79.0693 108.733 77.1373 109.817 75.3333C110.276 74.5707 110.792 73.8427 111.327 73.0373C113.517 75.896 114.047 79.4347 112.889 82.7253C111.768 85.9147 109.321 87.4787 106.179 88.164C105.991 88.2053 105.736 87.9453 105.439 87.7853Z" fill="white"/>
<path fill-rule="evenodd" clip-rule="evenodd" d="M73.204 117.259C71.7867 119.792 69.6627 120.861 67.4053 121.501C64.5973 122.299 61.6813 122.383 58.7907 121.768C57.2013 121.428 55.7747 120.727 54.8053 119.396C54.3813 118.812 54.2467 118.017 53.98 117.312C58.4533 115.759 68.0453 115.708 73.204 117.259Z" fill="white"/>
<path fill-rule="evenodd" clip-rule="evenodd" d="M105.439 87.7853C105.736 87.9453 105.991 88.2053 106.179 88.164C109.321 87.4787 111.768 85.9147 112.889 82.7253C114.047 79.4347 113.517 75.896 111.327 73.0374C110.792 73.8427 110.276 74.5707 109.817 75.3333C108.733 77.1373 107.821 79.0694 106.565 80.7414C105.456 82.2147 104.967 83.7 105.196 85.484C105.297 86.264 105.361 87.0507 105.439 87.7853ZM19.3052 90.3547C19.6099 85.856 16.4656 83.2374 13.674 80.072C14.5109 79.7614 15.1412 79.28 15.5552 79.4227C16.6219 79.7893 17.5932 80.432 18.7661 81.0533C18.7661 79.6827 18.7661 78.5694 18.7661 77.5387C16.524 76.54 14.5021 75.64 12.6088 74.8C10.7948 75.6787 10.2115 77.0587 10.0333 78.7253C9.75053 81.3627 10.5735 83.66 12.0943 85.7613C13.9604 88.34 15.9979 89.6693 19.3052 90.3547ZM115.207 196.465C114.849 196.355 114.724 196.272 114.613 196.291C114.352 196.328 114.089 196.389 113.845 196.485C111.199 197.541 108.988 196.887 106.947 194.969C105.799 193.889 104.42 193.056 103.136 192.123C100.352 190.095 97.5053 190.104 94.612 191.881C93.372 192.641 92.06 193.312 90.9067 194.189C88.5053 196.013 86.0787 196.028 83.4747 194.693C81.9453 193.908 80.3267 193.305 78.7747 192.568C76.2613 191.369 73.6667 191.303 71.02 191.936C68.5587 192.527 66.2773 193.528 64.0507 194.74C61.968 195.872 59.7747 196.82 57.572 197.708C55.06 198.72 52.6307 198.244 50.3427 196.908C49.5453 196.443 48.8 195.88 47.9973 195.423C43.9773 193.147 39.8027 192.503 35.444 194.392C32.656 195.601 29.84 196.761 27.124 198.121C25.6133 198.877 24.1053 199.245 22.5427 198.789C21.4253 198.464 20.4109 197.765 19.3781 197.188C18.2547 196.559 17.476 195.312 16.0161 195.271C15.3016 196.471 15.3797 197.483 16.4093 198.492C20.3667 202.369 24.1253 202.921 29.0173 200.497C31.6187 199.209 34.352 198.188 37.0333 197.068C39.772 195.927 42.48 196.127 45.1053 197.412C46.2867 197.989 47.3893 198.732 48.5373 199.384C51.6507 201.149 54.9 202.031 58.3867 200.596C60.7027 199.645 62.968 198.565 65.2533 197.531C66.936 196.771 68.568 195.869 70.3013 195.245C73.0133 194.271 75.704 194.288 78.3547 195.708C80.0987 196.641 81.9853 197.304 83.7947 198.119C86.4413 199.309 88.9506 198.964 91.376 197.513C92.6253 196.764 93.9147 196.071 95.0827 195.204C97.7267 193.247 100.183 193.44 102.613 195.576C103.807 196.623 105.073 197.581 106.316 198.572C107.844 199.791 109.691 200.193 111.537 200.157C113.067 200.131 114.751 200.029 115.897 198.419C115.664 197.756 115.409 197.04 115.207 196.465ZM31.86 163.42C32.7347 163.935 33.2693 164.279 33.832 164.576C36.636 166.056 39.5107 167.416 42.2467 169.016C48.5253 172.692 54.7347 176.483 60.9747 180.224C62.1093 180.905 63.2667 181.548 64.3853 182.252C65.8493 183.176 67.2853 183.377 68.8467 182.431C70.54 181.405 72.316 180.516 74.0147 179.503C75.264 178.759 76.3893 177.795 77.672 177.125C82.8707 174.416 87.2813 170.573 92.0453 167.236C92.9093 166.631 93.6573 165.863 94.4853 165.204C95.264 164.584 96.076 164.005 97.1053 163.24C95.0547 161.709 93.3013 160.404 91.728 159.232C89.2573 160.764 86.9987 162.112 84.7947 163.545C82.3573 165.131 79.9746 166.799 77.5586 168.421C75.4773 169.823 73.4093 171.247 71.288 172.591C69.412 173.781 67.3467 173.955 65.172 173.591C62.9027 173.211 60.8867 172.237 58.9413 171.111C53.904 168.196 48.896 165.232 43.8893 162.264C41.8453 161.052 39.7973 159.869 37.2293 159.236C35.576 160.524 33.8293 161.887 31.86 163.42ZM116.565 203.02C115.441 203.653 114.412 204.021 113.669 204.699C111.936 206.279 110.092 206.237 108.147 205.355C106.341 204.536 104.556 203.665 102.807 202.735C100.411 201.46 98.0027 201.407 95.552 202.487C94.5827 202.915 93.6666 203.465 92.6933 203.871C90.864 204.632 89.056 205.516 87.1507 206.004C84.3133 206.732 81.6453 206.02 79.2347 204.356C74.824 201.309 70.3786 201.515 65.7586 203.983C63.5546 205.161 61.144 205.964 58.808 206.88C55.396 208.216 52.0547 207.891 48.8147 206.281C47.156 205.459 45.4947 204.625 43.9053 203.68C39.8987 201.293 35.844 201.42 31.7653 203.371C30.216 204.113 28.6867 204.936 27.268 205.899C24.1987 207.977 21.3 207.601 18.4421 205.536C17.6907 204.993 16.9901 204.376 16.2219 203.864C15.7245 203.532 15.1427 203.328 14.3797 202.963C14.1073 204.536 13.886 205.812 13.6489 207.176C14.55 207.921 15.3093 208.651 16.1636 209.244C20.4849 212.237 24.9147 212.743 29.508 209.797C30.8413 208.941 32.2547 208.205 33.6627 207.472C36.332 206.076 38.9173 206.025 41.528 207.779C43.2773 208.956 45.16 209.963 47.0613 210.881C51.1667 212.861 55.444 213.307 59.7813 211.735C62.6373 210.7 65.516 209.663 68.2187 208.296C71.088 206.844 73.724 206.597 76.42 208.499C76.8493 208.804 77.3347 209.029 77.7893 209.301C81.8293 211.695 86.0413 211.917 90.3773 210.251C92.104 209.584 93.8973 208.996 95.472 208.057C97.7747 206.684 99.8253 206.539 102.121 208.084C103.529 209.029 105.205 209.584 106.777 210.276C108.66 211.108 110.66 211.116 112.639 210.868C114.728 210.607 116.411 209.468 117.379 207.635C118.083 206.296 117.752 204.829 116.565 203.02ZM82.592 136.011C80.1906 136.636 78.068 137.391 75.8813 137.72C68.524 138.825 61.1413 139.101 53.752 137.916C51.8547 137.611 49.94 137.405 47.8893 137.135C47.5907 139.085 47.456 140.801 47.044 142.445C46.6307 144.096 45.9973 145.701 45.3547 147.284C44.66 148.996 43.9253 150.701 43.056 152.329C42.272 153.797 41.2787 155.153 40.3933 156.535C44.9413 159.144 49.2693 161.644 53.612 164.115C56.3707 165.684 59.168 167.18 61.92 168.755C65.224 170.651 68.4053 170.833 71.4813 168.289C71.8867 167.953 72.3747 167.719 72.7907 167.396C77.188 163.989 81.7493 160.841 86.684 158.247C87.7013 157.711 88.7867 157.077 88.9173 156.095C87.412 152.632 85.7813 149.576 84.7586 146.328C83.7413 143.097 83.3333 139.676 82.592 136.011ZM66.7733 58.796C66.0973 58.8347 65.8107 58.7774 65.5893 58.8734C58.4347 61.9854 51.0467 64.6213 44.5133 69.0253C39.0307 72.7213 32.988 74.904 26.4413 75.74C24.848 75.9427 23.34 76.368 22.044 77.652C21.6173 80.6 21.612 83.6387 21.928 86.6694C22.8933 95.9667 25.6053 104.805 29.0213 113.463C30.9627 118.375 34.1293 122.383 37.8893 125.993C40.6693 128.665 43.6893 130.948 47.088 132.849C48.76 133.784 50.3413 134.46 52.1933 134.72C57.9947 135.536 63.816 135.625 69.6413 135.129C72.0107 134.928 74.412 134.689 76.7107 134.115C81.7813 132.847 85.7293 129.696 88.9827 125.772C92.8013 121.164 95.8707 116.063 98.0653 110.455C100.66 103.827 101.879 96.976 101.777 89.8653C101.708 84.9907 102.139 80.0947 99.932 75.4547C99.212 73.9427 99.1853 72.108 98.744 70.448C98.3506 68.9627 97.688 68.3854 96.1667 68.572C94.076 68.8267 92.0173 69.344 89.948 69.776C87.62 70.2614 85.32 70.972 82.9667 71.244C77.6787 71.856 73.304 70.124 70.2733 65.5867C69.468 64.3827 68.816 63.0733 68.1453 61.784C67.664 60.8573 67.2693 59.8853 66.7733 58.796ZM112.967 68.9667C114.9 71.54 116.081 74.1693 116.519 77.1213C117.391 83.0053 115.02 88.7507 108.483 90.9054C107.605 91.1947 106.748 91.5347 105.773 91.8907C104.887 93.276 105.155 94.924 105.001 96.4627C104.213 104.473 102.1 112.087 98.1493 119.124C94.9587 124.807 91.3573 130.197 86.0787 134.177C85.7413 138.084 86.12 141.819 87.4533 145.268C89.7267 151.153 93.0653 156.409 98.4573 160.015C103.213 163.195 107.647 166.751 111.648 170.84C116.02 175.308 120.072 180.029 122.909 185.656C127.224 194.204 129.361 203.288 129.335 212.867C129.333 213.916 129.191 214.964 129.124 215.859C127.296 217.523 125.308 217.899 123.097 217.895C109.047 217.864 94.992 217.924 80.9413 217.917C58.136 217.904 35.3333 217.881 12.5307 217.809C9.75572 217.803 6.98226 217.487 4.20879 217.284C2.83639 217.183 1.63332 216.688 0.781724 215.536C0.741724 215.413 0.663595 215.285 0.669729 215.161C0.885995 208.273 1.17239 201.375 2.69839 194.636C4.49266 186.709 8.11146 179.707 14.1047 174.088C16.9068 171.459 19.7495 168.863 22.6893 166.395C26.3427 163.329 30.068 160.344 33.8547 157.443C37.64 154.543 40.4493 150.98 42.1267 146.499C43.3293 143.291 44.9907 140.224 44.928 136.424C44.372 136.02 43.7827 135.507 43.1213 135.125C39.28 132.908 36.1493 129.889 33.2653 126.563C27.324 119.705 23.264 111.953 21.716 102.941C21.2479 100.216 20.5473 97.5334 19.9396 94.7734C18.9396 94.432 18.0645 94.164 17.2115 93.8427C12.7781 92.1747 9.49693 89.252 7.64786 84.8547C5.99013 80.912 6.10466 77.116 8.86146 73.624C9.09839 73.324 9.28333 72.98 9.59693 72.4973C8.85733 71.4507 8.20359 70.2947 7.33119 69.336C3.45106 65.064 3.06306 60.0694 4.36506 54.804C4.99786 52.2467 5.98226 49.7653 6.90839 47.288C7.47453 45.7747 7.83119 44.4054 7.31453 42.7054C6.69839 40.6774 6.91199 38.4933 7.50839 36.4187C8.82866 31.8347 10.3364 27.3093 12.5057 23.052C14.6385 18.8693 17.674 15.34 21.1412 12.2253C26.3293 7.56535 32.264 4.09068 38.896 1.92401C45.0053 -0.0679879 51.1187 -0.0839854 57.1893 2.29335C60.4227 3.55868 63.492 5.08534 66.2267 7.22268C67.3213 8.08001 68.316 8.08137 69.5187 7.4787C71.1693 6.65203 72.852 5.8347 74.6 5.24403C81.3853 2.9467 87.892 3.61735 94.1107 7.22668C97.7733 9.35068 100.623 12.2134 102.445 16.0414C103.196 17.6134 104.131 18.9854 105.395 20.2147C107.799 22.5494 109.613 25.3587 110.831 28.4613C112.571 32.9013 113.864 37.492 114.596 42.22C114.979 44.708 115.341 47.1987 115.688 49.692C116.349 54.4747 116.268 59.2067 114.685 63.836C114.131 65.4627 113.592 67.0947 112.967 68.9667Z" fill="#1D262D"/>
<path fill-rule="evenodd" clip-rule="evenodd" d="M73.204 117.259C68.0453 115.708 58.4533 115.759 53.98 117.312C54.2467 118.017 54.3813 118.812 54.8053 119.396C55.7747 120.727 57.2013 121.428 58.7907 121.768C61.6813 122.383 64.5973 122.299 67.4053 121.501C69.6627 120.861 71.7867 119.792 73.204 117.259ZM65.068 112.845C67.9907 113.207 70.744 113.533 73.4933 113.904C74.0053 113.972 74.5107 114.184 74.9947 114.385C76.9267 115.195 77.492 116.675 76.5387 118.541C75.3547 120.863 73.476 122.561 71.216 123.724C66.3907 126.208 61.3147 126.493 56.2267 124.708C54.7907 124.204 53.5 123.117 52.324 122.089C51.0867 121.007 50.604 119.461 50.5693 117.804C50.5453 116.648 50.96 115.696 52.0187 115.195C52.9667 114.751 53.956 114.275 54.976 114.123C58.3693 113.616 61.784 113.251 65.068 112.845Z" fill="#1D262D"/>
<path fill-rule="evenodd" clip-rule="evenodd" d="M74.128 101.205C74.1667 104.251 72.6413 106.992 69.3733 108.636C68.576 109.036 67.6307 109.232 66.732 109.319C65.9373 109.395 65.14 109.095 64.8093 108.235C64.46 107.331 64.9907 106.692 65.656 106.24C66.4133 105.723 67.2707 105.355 68.0653 104.893C69.4293 104.103 70.156 102.852 70.2467 101.335C70.292 100.604 69.9427 99.8387 69.7093 99.1107C69.636 98.884 69.3867 98.6934 69.1773 98.536C65.764 95.956 65.0373 92.2707 65.0227 88.3227C65.0147 86.2147 65.0973 84.104 65.2227 82C65.2587 81.3694 65.508 80.716 65.8107 80.1533C65.952 79.8907 66.46 79.6814 66.7867 79.6987C67.1133 79.7174 67.628 79.992 67.704 80.256C67.9933 81.2507 68.2093 82.2814 68.3187 83.312C68.5547 85.5387 68.744 87.772 68.8867 90.0054C69.0373 92.364 69.8693 94.316 71.7773 95.8213C73.292 97.0147 74.1507 98.6294 74.128 101.205Z" fill="#1D262D"/>
<path fill-rule="evenodd" clip-rule="evenodd" d="M41.8067 91.1947C41.9267 90.34 41.8547 89.6 42.1533 89.068C42.508 88.432 43.096 87.8 43.74 87.484C44.6307 87.0507 45.5507 87.3947 46.2267 88.14C47.6387 89.7 47.9213 93.0147 46.7827 94.832C46.2667 95.6547 45.508 96.1773 44.4907 96.0893C43.4747 96.0027 42.7133 95.3707 42.4227 94.4774C42.064 93.3694 41.98 92.1747 41.8067 91.1947Z" fill="#1D262D"/>
<path fill-rule="evenodd" clip-rule="evenodd" d="M87.6027 91.6387C87.4427 92.7013 87.4227 93.5 87.1907 94.232C86.684 95.8266 84.464 96.2173 83.3747 94.9506C81.8907 93.2293 81.7413 90.1707 83.052 88.38C83.9573 87.14 85.972 87.1786 86.6573 88.5653C87.16 89.5853 87.344 90.7627 87.6027 91.6387Z" fill="#1D262D"/>
<path fill-rule="evenodd" clip-rule="evenodd" d="M86.52 77.404C85.516 77.564 84.7373 77.7293 83.948 77.8053C83.1067 77.8853 82.0707 77.2573 82.1653 76.6293C82.248 76.056 82.5974 75.2733 83.056 75.0453C85.0054 74.084 87.084 73.7053 89.1907 74.5707C89.7774 74.8107 90.3294 75.2253 90.7867 75.6707C91.02 75.8973 91.164 76.42 91.068 76.72C90.9693 77.032 90.5627 77.3893 90.236 77.4547C89.604 77.5827 88.9333 77.5427 88.2787 77.5267C87.62 77.5093 86.9627 77.436 86.52 77.404Z" fill="#1D262D"/>
<path fill-rule="evenodd" clip-rule="evenodd" d="M47.2133 76.3547C45.108 76.4253 42.908 76.5427 40.712 76.528C40.3547 76.5267 39.764 75.972 39.7093 75.6094C39.652 75.208 39.988 74.456 40.3227 74.3387C42.2893 73.6467 44.2973 72.9093 46.3867 73.9627C47.324 74.4347 47.792 75.104 47.2133 76.3547Z" fill="#1D262D"/>
</svg>
