<svg width="20" height="20" viewBox="0 0 20 20" fill="none" xmlns="http://www.w3.org/2000/svg">
<path d="M0 5C0 4.522 0.379 4 1 4H15C15.62 4 16 4.519 16 5V19C16 19.621 15.48 20 15 20H1C0.522 20 0 19.621 0 19V5ZM14.5 5.5H1.5V18.5H14.5V5.5ZM20 13V15C20 15.621 19.48 16 19 16H17V14.5H18.5V13H20ZM6.631 8C6.631 8 8.767 8.002 11.247 8.003C11.661 8.003 11.997 8.339 11.997 8.753C11.998 11.232 12 13.365 12 13.365C12 13.775 11.665 14.11 11.25 14.11C10.836 14.11 10.5 13.776 10.5 13.365V10.561L6.061 15C5.768 15.293 5.293 15.293 5 15C4.707 14.707 4.707 14.232 5 13.939L9.439 9.5H6.631C6.222 9.5 5.89 9.164 5.89 8.75C5.89 8.336 6.223 8 6.631 8ZM18.5 8.637V12H20V8.637H18.5ZM18.5 4V7.637H20V4H18.5ZM7 0V1.5H5.5V3H4V1C4 0.522 4.379 0 5 0H7ZM17 0H19C19.62 0 20 0.519 20 1V3H18.5V1.5H17V0ZM12.5 1.5H16V0H12.5V1.5ZM8 1.5H11.5V0H8V1.5Z" fill="black"/>
</svg>
