<svg width="18" height="18" viewBox="0 0 18 18" fill="none" xmlns="http://www.w3.org/2000/svg">
<path d="M18 0.997986C18 0.519986 17.621 -0.00201416 17 -0.00201416H1C0.38 -0.00201416 0 0.516986 0 0.997986V16.998C0 17.619 0.52 17.998 1 17.998H17C17.478 17.998 18 17.619 18 16.998V0.997986ZM1.5 1.49799H16.5V16.498H1.5V1.49799ZM8.991 7.92999L11.708 5.21199C11.854 5.06599 12.046 4.99299 12.238 4.99299C12.642 4.99299 12.989 5.31799 12.989 5.74299C12.989 5.93599 12.916 6.12699 12.769 6.27399L10.052 8.99099L12.78 11.719C12.927 11.866 13 12.058 13 12.25C13 12.677 12.651 13 12.25 13C12.058 13 11.865 12.927 11.719 12.781L8.991 10.053L6.263 12.781C6.116 12.927 5.924 13 5.732 13C5.331 13 4.982 12.677 4.982 12.25C4.982 12.058 5.055 11.866 5.202 11.719L7.93 8.99099L5.208 6.26899C5.062 6.12199 4.989 5.93099 4.989 5.73799C4.989 5.31299 5.335 4.98899 5.739 4.98899C5.931 4.98899 6.123 5.06199 6.269 5.20799L8.991 7.92999Z" fill="black"/>
</svg>
