<svg width="20" height="20" viewBox="0 0 20 20" fill="none" xmlns="http://www.w3.org/2000/svg">
<g clip-path="url(#clip0_10_47)">
<path d="M0 5C0 4.522 0.379 4 1 4H15C15.62 4 16 4.519 16 5V19C16 19.621 15.48 20 15 20H1C0.522 20 0 19.621 0 19V5ZM14.5 5.5H1.5V18.5H14.5V5.5ZM20 13V15C20 15.621 19.48 16 19 16H17V14.5H18.5V13H20ZM18.5 8.637V12H20V8.637H18.5ZM18.5 4V7.637H20V4H18.5ZM7 0V1.5H5.5V3H4V1C4 0.522 4.379 0 5 0H7ZM17 0H19C19.62 0 20 0.519 20 1V3H18.5V1.5H17V0ZM12.5 1.5H16V0H12.5V1.5ZM8 1.5H11.5V0H8V1.5Z" fill="black"/>
<path d="M5.53325 15.2167C8.01325 15.2177 10.1492 15.2197 10.1492 15.2197C10.5572 15.2197 10.8903 14.8837 10.8903 14.4697C10.8903 14.0557 10.5583 13.7197 10.1493 13.7197L7.34125 13.7197L11.7803 9.28075C12.0733 8.98775 12.0733 8.51275 11.7803 8.21975C11.4873 7.92675 11.0123 7.92675 10.7193 8.21975L6.28025 12.6587L6.28025 9.85475C6.28025 9.44375 5.94425 9.10975 5.53025 9.10975C5.11525 9.10975 4.78025 9.44475 4.78025 9.85475C4.78025 9.85475 4.78225 11.9877 4.78325 14.4667C4.78325 14.8807 5.11925 15.2167 5.53325 15.2167Z" fill="black"/>
</g>
<defs>
<clipPath id="clip0_10_47">
<rect width="20" height="20" fill="white"/>
</clipPath>
</defs>
</svg>
