<svg width="20" height="20" viewBox="0 0 20 20" fill="none" xmlns="http://www.w3.org/2000/svg">
<g clip-path="url(#clip0_25_2)">
<path d="M0 5C0 4.522 0.379 4 1 4H15C15.62 4 16 4.519 16 5V19C16 19.621 15.48 20 15 20H1C0.522 20 0 19.621 0 19V5ZM14.5 5.5H1.5V18.5H14.5V5.5ZM20 13V15C20 15.621 19.48 16 19 16H17V14.5H18.5V13H20ZM18.5 8.637V12H20V8.637H18.5ZM18.5 4V7.637H20V4H18.5ZM7 0V1.5H5.5V3H4V1C4 0.522 4.379 0 5 0H7ZM17 0H19C19.62 0 20 0.519 20 1V3H18.5V1.5H17V0ZM12.5 1.5H16V0H12.5V1.5ZM8 1.5H11.5V0H8V1.5Z" fill="black"/>
<path d="M11.247 8.003C8.76702 8.002 6.63102 8 6.63102 8C6.22302 8 5.89002 8.336 5.89002 8.75C5.89002 9.164 6.22202 9.5 6.63102 9.5H9.43902L5.00002 13.939C4.70702 14.232 4.70702 14.707 5.00002 15C5.29302 15.293 5.76802 15.293 6.06102 15L10.5 10.561V13.365C10.5 13.776 10.836 14.11 11.25 14.11C11.665 14.11 12 13.775 12 13.365C12 13.365 11.998 11.232 11.997 8.753C11.997 8.339 11.661 8.003 11.247 8.003Z" fill="black"/>
</g>
<defs>
<clipPath id="clip0_25_2">
<rect width="20" height="20" fill="white"/>
</clipPath>
</defs>
</svg>
