<svg width="16" height="24" viewBox="0 0 16 24" fill="none" xmlns="http://www.w3.org/2000/svg">
<path d="M8 18C6.896 18 6 17.104 6 16C6 14.896 6.896 14 8 14C9.104 14 10 14.896 10 16C10 17.104 9.104 18 8 18ZM8 8C6.938 8 5.927 8.211 5 8.587V5C5 3.346 6.346 2 8 2C9.654 2 11 3.346 11 5V6H13V5C13 2.239 10.762 0 8 0C5.237 0 3 2.239 3 5V9.761C1.173 11.227 0 13.475 0 16C0 20.418 3.582 24 8 24C12.418 24 16 20.418 16 16C16 11.582 12.418 8 8 8ZM8 22C4.687 22 2 19.313 2 16C2 12.687 4.687 10 8 10C11.313 10 14 12.687 14 16C14 19.313 11.313 22 8 22Z" fill="black"/>
</svg>
