<svg width="103" height="106" viewBox="0 0 103 106" fill="none" xmlns="http://www.w3.org/2000/svg">
<path d="M37.3913 100.285C36.9699 100.302 36.1986 99.8522 35.8261 99.9381C35.7296 99.9603 35.5296 100.481 35.4256 100.585C35.4307 100.663 36.7986 101.069 36.9202 101.058C37.1467 101.038 37.3396 100.498 37.3913 100.285ZM34.7394 99.6017C34.6672 99.5049 32.5148 98.9965 32.3964 99.0195C32.2204 99.0533 31.921 99.6884 32.0013 99.7709L34.4334 100.374L34.7394 99.6017ZM31.3172 98.7457C30.7959 98.789 27.5737 97.8698 27.3927 97.9846C27.3521 98.0103 27.2486 98.4581 27.1262 98.5317C27.6351 98.5976 30.8467 99.5414 31.0478 99.416C31.1051 99.3806 31.2391 98.8578 31.3172 98.7457ZM26.6118 97.7187L23.4975 97.047C23.3853 97.0736 23.2056 97.4711 23.1903 97.5914C23.1663 97.7806 23.2168 97.69 23.3155 97.7203C24.1929 97.9892 25.2533 98.0452 26.1462 98.3219C26.3864 98.4301 26.6656 97.7665 26.6118 97.7187ZM22.1546 97.4517C22.1835 97.4263 22.4144 96.7736 22.2496 96.7341L20.1492 96.013L19.5123 97.0771C19.8397 97.1195 22.0542 97.54 22.1546 97.4517ZM40.0431 96.0084L38.1605 95.4446L36.4499 98.9152L37.9067 99.393L40.0431 96.0084ZM35.3269 98.4774L36.8758 95.1085C36.8191 95.0106 36.7488 95.013 36.6602 94.9847C36.3926 94.8987 34.7913 94.5238 34.6132 94.549C34.5153 94.5628 34.4472 94.5968 34.4042 94.6893L32.9426 97.8444C32.9948 97.9438 33.0745 97.9414 33.1605 97.9708C33.388 98.0492 35.2326 98.5366 35.3269 98.4774ZM41.155 94.2117C40.7385 94.243 39.4104 93.5919 39.1415 93.6319C39.045 93.6465 38.6724 94.28 38.7596 94.3812C39.0899 94.3044 40.5769 95.0828 40.6761 95.0598C40.8226 95.0257 41.0423 94.363 41.155 94.2117ZM33.3702 94.2114L29.7494 93.5349L28.0664 96.9476L31.7729 97.6241L33.3702 94.2114ZM37.6483 93.1844C37.0929 93.2117 35.9313 92.6155 35.4659 92.6684C35.1858 92.7 35.1156 93.2268 34.9958 93.4401C35.4521 93.3833 37.0502 94.0101 37.3404 93.9411C37.5013 93.9028 37.6929 93.3587 37.6483 93.1844ZM28.5797 93.2706L25.4115 92.62L23.8742 96.2633L27.1197 96.7752L28.5797 93.2706ZM23.9601 92.2441L22.3341 91.8517L20.282 95.8357L22.5942 96.0582L23.9601 92.2441ZM34.2258 92.3298L30.6002 91.5522C30.5375 91.5619 30.1261 92.5106 30.2048 92.5849L33.8286 93.1914L34.2258 92.3298ZM29.3496 91.3027L26.2413 90.7828L25.7567 91.8146L28.9567 92.3355L29.3496 91.3027ZM43.1229 90.6185C42.6688 90.6101 41.1318 90.0352 40.8118 90.2317C40.634 90.3409 39.8634 92.1695 39.7007 92.499C40.0891 92.4611 41.5402 93.2538 41.7534 93.1463L43.1229 90.6185ZM24.5592 90.4471L23.1615 90.1841L22.677 91.2155C23.0305 91.2425 23.8585 91.5692 24.1619 91.4633C24.2959 91.4165 24.618 90.512 24.5592 90.4471ZM39.3591 89.7628L37.1061 89.343C36.9259 89.5501 35.9561 91.2109 36.0224 91.3011L38.2807 91.976C38.401 91.9476 39.445 89.8517 39.3591 89.7628ZM35.7661 88.993L32.1399 88.2157L31.2318 90.1036L34.9051 90.9582C34.9429 90.6436 35.8945 89.1266 35.7661 88.993ZM30.7186 87.8809L27.8905 87.2328L26.7832 89.5049L29.8937 89.8379C29.9977 89.8011 30.7894 87.9614 30.7186 87.8809ZM23.618 89.4201H25.0723L26.1829 86.8944C26.2061 86.7212 26.1761 86.7836 26.0575 86.7679C25.8536 86.7412 25.2407 86.7368 25.0736 86.8123C24.9168 86.883 23.5061 89.3201 23.618 89.4201ZM68.7871 32.6173C68.6987 32.5251 68.3847 32.8853 68.3152 32.9575C65.0689 36.3678 63.9661 42.5013 61.4985 46.4157C60.9983 47.2084 60.0355 47.9577 59.4157 46.8215C58.8137 45.7192 59.0433 42.5546 59.1211 41.215C59.299 38.1527 60.0527 34.2744 59.7225 31.2877C59.7081 31.1598 59.7042 31.0237 59.5491 30.9914C57.0549 35.3939 57.0655 40.6591 56.4579 45.5663C56.2445 47.2873 55.8214 51.6614 54.2377 52.5853C52.591 53.5464 51.3234 51.1884 50.6363 50.04C50.0499 49.0605 49.438 47.961 49.0248 46.9032C48.899 46.896 48.8737 47.2111 48.8647 47.2984C48.6826 49.0761 48.9188 54.2323 49.8356 55.7172C50.1037 56.151 50.4207 56.5245 50.9704 56.3334C52.4158 55.8307 55.0427 51.7665 56.4229 50.4936C57.9799 49.0583 61.2139 47.1261 62.6731 49.7231C63.8054 51.7376 62.4713 54.0261 61.1317 55.5447C58.2428 58.8202 54.2125 61.0699 51.265 64.3112C52.9215 66.742 53.639 69.6239 54.693 72.332C56.1361 76.0393 57.9704 79.5941 60.2862 82.8277L68.6098 75.5925C64.6136 71.1634 61.4346 64.6836 65.7487 59.3061C67.4158 57.2285 69.8405 55.8815 71.7827 54.1328C72.0345 53.906 72.9678 53.0066 73.0634 52.7615C73.1212 52.6136 73.0267 52.6464 72.9378 52.6342C70.2413 52.2762 67.6748 55.3157 65.7004 56.6909C65.1951 57.0423 64.1995 57.5234 64.1006 56.5075C64.0233 55.7164 65.6954 52.9916 66.1851 52.214C68.5881 48.3996 72.9289 44.3734 74.7366 40.5763C74.7894 40.4651 75.4025 39.0243 75.159 39.0315C72.6615 39.9215 70.572 42.1677 68.9617 44.2117C68.0667 45.3484 65.9589 48.9027 65.0189 49.5086C64.4602 49.8682 63.6837 49.6892 63.5736 48.9938C63.2912 47.2117 65.0322 42.6291 65.7287 40.8075C66.7682 38.0899 68.1918 35.4812 68.7871 32.6173ZM44.7494 47.5013C45.0802 47.1383 45.1536 46.4579 45.2366 45.9799C45.8342 42.5363 45.3888 38.7286 45.5145 35.2221C45.582 33.345 45.8175 28.6223 48.3801 28.4216C50.2285 28.2771 50.969 30.3577 51.082 31.8864C51.4072 36.2805 49.4999 40.7925 49.1069 45.1472C49.1326 45.2939 49.6774 45.6892 49.8393 45.8754C50.9761 47.1839 51.5699 49.1906 52.6331 50.6097C52.9383 51.0172 53.3169 51.6853 53.768 51.0889C54.9548 49.5191 55.3228 42.7069 55.6252 40.4562C55.9621 37.9448 57.0121 31.2238 59.0777 29.7085C60.5274 28.6451 61.0905 30.6345 61.1723 31.7196C61.4063 34.8314 60.6792 38.4879 60.4896 41.6424C60.4157 42.8781 60.399 44.125 60.404 45.3629L60.677 45.1667C62.7487 41.1566 64.1973 35.6763 67.2034 32.2732C67.8394 31.5534 69.3808 30.2232 70.0284 31.6746C70.5414 32.8252 69.6281 35.1627 69.1935 36.3166C67.8394 39.9103 65.9733 43.3584 65.1951 47.1594C66.9238 44.8198 68.502 42.3312 70.6682 40.3573C71.6298 39.4812 73.9056 37.6641 75.2335 37.7552C76.1724 37.8192 76.4792 38.5718 76.3998 39.4167C76.1646 41.9009 70.6576 47.8532 68.9739 50.1267C68.2802 51.0633 66.1712 53.9505 65.8799 54.9033C65.8666 54.9477 65.856 55.0428 65.9211 55.0295C67.7376 53.3846 70.3385 51.1161 72.9361 51.0878C75.253 51.0622 75.0457 53.0467 73.8783 54.4324C71.4853 57.2707 66.8738 59.138 65.6831 62.9188C64.3524 67.1436 67.3318 71.4847 69.2229 75.0428C70.408 74.4401 71.2941 73.1966 72.8127 73.4609C74.0684 73.6798 75.4253 75.8223 76.2713 76.7604C80.2892 81.2168 85.0135 85.0941 88.9346 89.5901C89.0641 89.7385 89.3076 90.0041 89.4066 90.1444C89.4599 90.2198 89.5527 90.2647 89.4499 90.3635C85.4921 92.5019 81.6822 94.9146 77.9645 97.4428C76.4153 98.496 74.8333 99.6125 73.3653 100.71C72.7944 101.138 72.2513 101.625 71.651 101.997C70.3463 101.024 68.9972 100.035 67.7593 98.9597C65.0111 96.5741 61.9738 93.6193 59.5897 90.8754C58.4857 89.6049 57.3657 88.2301 56.9082 86.576L59.1089 84.0038C56.7431 80.6244 54.7497 76.9112 53.3015 73.0393C52.3215 70.4198 51.6931 67.6725 50.5226 65.1263C45.9201 70.3977 43.3785 77.479 41.6072 84.1833C41.481 84.6612 40.6042 87.9752 40.7356 88.1292C42.3223 88.6347 45.3704 88.5736 44.7753 91.0298C44.3737 92.6876 41.661 96.0209 40.6583 97.6919C39.3337 99.9001 38.0745 103.005 36.4083 104.905C36.3645 104.955 36.0729 105.334 35.9783 105.162C35.6196 104.513 36.5675 102.37 36.4504 102.252C35.9561 102.325 35.017 101.595 34.6491 101.949C34.2359 102.638 33.8391 103.348 33.3548 103.99C33.1599 104.249 32.9332 104.668 32.601 104.733C32.3564 104.455 33.8448 101.992 33.884 101.483C33.1883 101.42 32.147 100.845 31.507 100.813C31.3802 100.807 31.3078 100.807 31.228 100.922C30.9761 101.317 29.6035 103.851 29.1778 103.668C28.947 103.521 29.0832 103.261 29.1627 103.048C29.4721 102.221 30.0953 101.4 30.4597 100.584C30.4061 100.492 30.3315 100.488 30.2475 100.456C29.5716 100.203 27.4815 99.6171 26.7997 99.5349C26.715 99.5246 26.6259 99.48 26.5421 99.5292C26.1732 100.148 25.8172 100.839 25.3986 101.424C25.215 101.68 24.9888 102.115 24.645 102.081C24.4238 101.854 25.8019 99.6751 25.8423 99.2587C25.3689 99.2527 22.9185 98.3565 22.6892 98.5009C22.2728 99.3201 21.7965 100.281 21.1541 100.943C21.0702 101.03 21.0703 101.185 20.8809 101.14L21.8217 98.1463L19.2692 97.4727C19.1549 97.5395 18.2012 99.3987 17.8848 99.7271C17.7554 99.8616 17.6836 99.983 17.4589 99.9419C17.5919 98.0003 18.5295 96.2463 19.3527 94.5222C20.4981 92.1236 21.9116 89.2327 23.2611 86.9673C24.1033 85.5533 24.8051 85.2003 26.4729 85.3249L39.0207 87.6744C41.3166 78.2017 44.6807 68.5793 52.1042 61.9153C54.6008 59.6742 61.4746 55.0611 61.921 51.7998C62.1272 50.2946 61.4457 49.2256 59.8437 49.7226C56.9721 50.612 54.9315 54.8427 52.5739 56.6534C48.371 59.8812 47.8412 52.7932 47.7383 50.2006C47.5572 45.6447 48.6418 41.2922 49.268 36.8369C49.4839 35.3005 50.0704 31.4322 49.0647 30.2249C48.0882 29.052 47.3007 32.0893 47.1704 32.6863C46.2731 36.7947 46.6877 41.3712 46.1047 45.5647C45.9964 46.3445 45.5956 49.7237 44.1559 48.4791C43.0039 47.4835 43.074 42.6041 42.9507 41.0438C42.6964 37.8214 42.2272 32.942 40.4207 30.2282C39.5788 28.9636 38.9994 28.8218 38.6307 30.4772C38.2258 32.2949 38.4878 34.6457 38.675 36.5079C39.0264 39.9982 39.9331 43.8142 39.961 47.2845C39.9667 48.0033 39.8453 50.2545 38.6294 49.2151C37.678 48.4007 36.9718 44.5324 36.5969 43.2061C35.8821 40.6763 34.7637 37.285 33.3204 35.1043C33.004 34.6268 31.7948 32.9142 31.5086 34.2193C30.8437 37.25 34.2472 45.3095 35.1426 48.6809C35.3513 49.4669 35.8256 51.1 35.5296 51.8427C35.1483 52.7987 34.0945 51.8543 33.7145 51.3924C31.8048 49.0705 30.8337 45.5196 28.3678 43.479C26.4837 41.9198 27.2278 44.4234 27.5302 45.429C29.5496 52.1411 35.141 58.9964 34.6526 66.2785C34.3291 71.1079 30.7816 80.5987 28.3377 84.8582C28.291 84.9398 27.931 85.6274 27.8102 85.4844C27.8037 85.0352 28.0051 84.5831 28.1505 84.1574C30.4205 77.5036 34.8464 69.039 33.2264 61.8893C32.2486 57.5737 29.9291 53.3307 28.2223 49.2706C27.6151 47.8248 26.2464 44.6825 26.4635 43.2039C26.5362 42.7086 26.7851 42.2839 27.3386 42.2828C28.6307 42.2806 30.2723 44.4373 30.9591 45.4218C32.2661 47.2945 33.1853 49.518 34.7383 51.1806C34.7272 50.4713 34.5405 49.7281 34.354 49.0416C33.2342 44.9221 29.9905 38.4106 30.471 34.2938C30.6545 32.7218 31.8494 32.151 33.1148 33.1715C36.661 36.0332 38.0772 43.4935 38.9083 47.7387L39.1867 48.4424C39.2656 48.1116 39.285 47.7954 39.2769 47.4546C39.1512 42.1766 37.0821 36.6457 37.4777 31.2916C37.5745 29.9836 38.2496 27.4755 40.072 28.4383C42.1588 29.5411 43.3037 35.2644 43.6239 37.4623C44.1096 40.7964 43.9964 44.2156 44.7494 47.5013Z" fill="black"/>
<path d="M102.898 26.606C99.3978 28.2135 95.8681 29.805 92.3102 31.2878C91.2291 31.7381 83.544 34.9007 83.0739 34.4977C83.0496 34.3161 83.2197 34.2201 83.3374 34.121C84.7697 32.9177 88.7242 31.1976 90.5715 30.3187C93.8345 28.7662 98.7441 26.5836 102.301 26.1371C102.736 26.0828 103.213 26.0405 102.898 26.606Z" fill="black"/>
<path d="M100.093 43.4865C100.12 43.5294 100.086 43.6628 100.098 43.7373C98.83 43.7963 97.5607 43.867 96.2876 43.8267C93.6248 43.7423 90.9837 43.2817 88.3346 43.0539C86.1764 42.8683 83.981 42.9894 81.834 42.71C81.4777 42.6635 80.8228 42.6554 80.929 42.1638C80.9675 41.9857 83.0474 41.7188 83.3739 41.6853C88.1558 41.1893 92.9402 42.031 97.6327 42.9087C97.9412 42.967 100.025 43.3804 100.093 43.4865Z" fill="black"/>
<path d="M29.2884 22.393L29.1558 22.5938C27.0995 19.8618 25.6396 16.682 24.3017 13.544C22.8665 10.1776 20.3232 4.65955 19.7719 1.19024C19.7384 0.981761 19.498 -0.353216 20.0461 0.174745C20.3862 0.502585 21.1421 2.5368 21.4169 3.11632C24.0293 8.63369 26.4097 14.0895 28.4629 19.8468C28.7629 20.6882 28.9745 21.5576 29.2884 22.393Z" fill="black"/>
<path d="M26.0032 27.0776C23.5813 25.0524 21.3912 22.6777 19.3568 20.2666C17.4012 17.9485 15.0295 15.1764 13.2809 12.7424C13.1123 12.5075 12.535 11.7226 12.4825 11.5127C12.4199 11.2624 12.6958 11.2651 12.8913 11.3829C13.8021 11.9315 15.7183 13.9222 16.534 14.7698C18.1223 16.4201 19.3039 18.2547 20.7021 20.0352C22.0875 21.8003 23.5674 23.5074 24.9199 25.2946C25.2042 25.6704 25.8499 26.4361 26.0306 26.8002C26.0879 26.917 26.1131 26.981 26.0032 27.0776Z" fill="black"/>
<path d="M21.3587 32.7877C21.2485 32.8711 21.0951 32.8409 20.9683 32.8298C18.7544 32.6356 15.8837 31.7886 13.6922 31.222C11.0846 30.5475 8.36404 29.8155 5.79282 29.0233C5.41359 28.9067 3.22623 28.2775 3.19502 28.01C3.39416 27.5686 3.87867 27.7066 4.28781 27.7301C8.52848 27.9739 14.1858 30.0648 18.2406 31.5091C19.2801 31.8796 20.3923 32.2774 21.3587 32.7877Z" fill="black"/>
<path d="M81.4485 47.845C81.593 47.815 81.6974 47.8863 81.8188 47.9438C87.127 50.4704 92.4752 53.836 97.557 56.8436C97.9591 57.0817 100.85 58.7277 100.866 58.9223C100.882 59.1239 100.648 58.9725 100.584 58.9501C99.8658 58.6979 98.8959 58.1863 98.1848 57.8409C93.3688 55.5009 89.0268 52.8312 84.5729 49.8947C83.6567 49.2906 82.5417 48.7117 81.6774 48.0851C81.5911 48.0226 81.4711 47.9582 81.4485 47.845Z" fill="black"/>
</svg>
