<svg width="20" height="20" viewBox="0 0 20 20" fill="none" xmlns="http://www.w3.org/2000/svg">
<path d="M9.998 0C15.515 0 19.995 4.48 19.995 9.998C19.995 15.516 15.515 19.996 9.998 19.996C4.48 19.996 0 15.516 0 9.998C0 4.48 4.48 0 9.998 0ZM9.998 1.5C5.308 1.5 1.5 5.308 1.5 9.998C1.5 14.688 5.308 18.496 9.998 18.496C14.688 18.496 18.495 14.688 18.495 9.998C18.495 5.308 14.688 1.5 9.998 1.5ZM8.47 6.215C8.47 6.215 6.968 7.72 5.215 9.474C5.068 9.621 4.995 9.813 4.995 10.005C4.995 10.197 5.068 10.388 5.215 10.535C6.968 12.289 8.469 13.793 8.469 13.793C8.614 13.938 8.804 14.01 8.995 14.01C9.187 14.009 9.379 13.936 9.526 13.789C9.818 13.496 9.82 13.023 9.529 12.732L7.552 10.755H14.245C14.659 10.755 14.995 10.419 14.995 10.005C14.995 9.591 14.659 9.255 14.245 9.255H7.552L9.53 7.276C9.82 6.987 9.817 6.514 9.524 6.222C9.377 6.075 9.185 6.001 8.994 6C8.804 6 8.614 6.071 8.47 6.215Z" fill="black"/>
</svg>
