<svg width="18" height="18" viewBox="0 0 18 18" fill="none" xmlns="http://www.w3.org/2000/svg">
<path d="M18 1C18 0.522 17.621 0 17 0H1C0.38 0 0 0.519 0 1V17C0 17.621 0.52 18 1 18H17C17.478 18 18 17.621 18 17V1ZM1.5 1.5H16.5V16.5H1.5V1.5ZM14 12.25C14 11.836 13.664 11.5 13.25 11.5H4.75C4.336 11.5 4 11.836 4 12.25C4 12.664 4.336 13 4.75 13H13.25C13.664 13 14 12.664 14 12.25ZM14 9.002C14 8.588 13.664 8.252 13.25 8.252H4.75C4.336 8.252 4 8.588 4 9.002C4 9.416 4.336 9.752 4.75 9.752H13.25C13.664 9.752 14 9.416 14 9.002ZM14 5.75C14 5.336 13.664 5 13.25 5H4.75C4.336 5 4 5.336 4 5.75C4 6.164 4.336 6.5 4.75 6.5H13.25C13.664 6.5 14 6.164 14 5.75Z" fill="white"/>
</svg>
