<svg width="22" height="22" viewBox="0 0 22 22" fill="none" xmlns="http://www.w3.org/2000/svg">
<path d="M9.509 18.266C11.5648 18.266 13.4572 17.5549 14.9529 16.3675L19.5422 20.9568C19.738 21.1526 19.9945 21.25 20.25 21.25C20.4037 21.25 20.6428 21.1957 20.8495 21.049C21.0687 20.8936 21.25 20.6336 21.25 20.25C21.25 19.9939 21.1529 19.7374 20.9578 19.5422C20.9578 19.5422 20.9578 19.5422 20.9578 19.5422L16.3685 14.952C17.556 13.4579 18.267 11.5646 18.267 9.508C18.267 4.67391 14.3421 0.75 9.509 0.75C4.67395 0.75 0.75 4.67391 0.75 9.508C0.75 14.3421 4.67395 18.266 9.509 18.266ZM2.752 9.508C2.752 5.77905 5.77909 2.751 9.509 2.751C13.237 2.751 16.266 5.77909 16.266 9.508C16.266 13.2369 13.237 16.265 9.509 16.265C5.77909 16.265 2.752 13.237 2.752 9.508Z" fill="#212529" stroke="#212529" stroke-width="0.5"/>
</svg>
