<svg width="119" height="82" viewBox="0 0 119 82" fill="none" xmlns="http://www.w3.org/2000/svg">
<path d="M59.3877 82C59.3877 82 96.635 82 105.874 79.54C111.076 78.146 114.988 74.128 116.361 69.167C118.9 60.065 118.9 40.918 118.9 40.918C118.9 40.918 118.9 21.894 116.361 12.874C114.988 7.79 111.076 3.85399 105.874 2.50099C96.635 -9.78675e-06 59.3877 0 59.3877 0C59.3877 0 22.2235 -9.78675e-06 13.0262 2.50099C7.90726 3.85399 3.91201 7.79 2.45541 12.874C6.99054e-07 21.894 0 40.918 0 40.918C0 40.918 6.99054e-07 60.065 2.45541 69.167C3.91201 74.128 7.90726 78.146 13.0262 79.54C22.2235 82 59.3877 82 59.3877 82Z" fill="#FF0033"/>
<path d="M77.9 41L47.15 23.575V58.425L77.9 41Z" fill="white"/>
</svg>
