<svg width="308" height="300" viewBox="0 0 308 300" fill="none" xmlns="http://www.w3.org/2000/svg">
<path d="M123.333 3.19999C82.6667 12.2667 49.3333 34.8 26.4 68.9333C-13.7333 129.067 -5.73332 209.733 45.4667 261.2C60.8 276.667 84.1333 291.6 101.733 297.333C108.267 299.467 109.067 299.467 112 297.467C115.2 295.333 115.333 294.8 115.333 279.467V263.733L103.6 264.4C89.8667 265.067 79.2 262.667 72.8 257.2C70.5333 255.333 66.1333 248.933 63.0667 243.067C58 233.2 54.2667 228.667 43.8667 219.467C40.4 216.4 40.2667 216.267 42.6667 214.533C48.4 210.267 60 214.4 67.3333 223.2C80.1333 238.8 85.0667 242.933 92.4 244.533C98.9333 245.867 104.933 245.333 114 242.667C115.2 242.267 116.8 239.467 117.6 236.267C118.4 233.2 120.533 228.533 122.267 226L125.467 221.333L114.667 219.2C92 214.533 78 206.4 68.8 192.533C60.2667 179.733 57.4667 168.667 57.3333 148C57.3333 128.533 59.4667 120.533 67.8667 109.6C71.6 104.8 72 103.333 70.9333 100.533C68.9333 95.7333 69.4667 75.4667 71.6 69.3333C73.3333 64.8 74.2667 64 77.8667 63.6C83.8667 62.9333 95.0667 66.8 106.4 73.2L116.133 78.8L124.667 76.8C136.8 74 173.2 74.1333 184.133 76.8L192.4 78.9333L200.133 74.2667C210.4 68.1333 223.467 63.3333 230 63.3333C235.2 63.3333 235.2 63.4667 237.333 70.2667C239.6 78.1333 240 92.4 238 99.2C236.933 103.2 237.2 104.4 240.133 108.267C254.667 127.467 256.267 159.333 244 185.467C235.733 202.667 218.267 214.667 194.8 219.067L183.6 221.2L187.733 228.533L192 236L192.4 265.733L192.933 295.467L196.267 297.6C199.333 299.6 200 299.6 206.4 297.333C217.067 293.733 235.333 283.867 245.333 276.267C304.8 231.733 324 151.867 291.067 85.4667C271.733 46.4 235.2 16.4 193.333 5.19999C175.067 0.399993 140.667 -0.666674 123.333 3.19999Z" fill="black"/>
</svg>
