<svg width="901" height="128" viewBox="0 0 901 128" fill="none" xmlns="http://www.w3.org/2000/svg">
<mask id="mask0_12_209" style="mask-type:luminance" maskUnits="userSpaceOnUse" x="0" y="0" width="205" height="128">
<path d="M0 0H204.8V127.531H0V0Z" fill="white"/>
</mask>
<g mask="url(#mask0_12_209)">
<path d="M204.605 77.3467C204.628 74.3953 203.913 73.272 200.778 73.3663C193.609 73.5849 186.425 73.2946 179.248 73.4982C176.121 73.5811 175.309 72.4164 175.365 69.4688C175.519 61.1762 175.29 52.8799 175.482 44.5874C175.553 41.3986 174.342 40.8445 171.587 41.4174C165.173 42.7518 158.707 43.8411 152.317 45.2659C150.076 45.7672 149.298 45.0737 148.7 43.0495C146.497 35.575 144.02 28.1795 141.903 20.6786C141.159 18.0438 140.035 17.8139 137.787 18.711C131.915 21.048 125.896 23.0306 120.129 25.5938C117.182 26.9017 116.407 25.9707 115.626 23.3284C113.509 16.2044 111.126 9.17081 108.934 2.0694C108.291 -0.0112704 107.697 -0.667134 105.502 0.753903C87.6411 12.3144 69.6753 23.7355 51.7659 35.2319C35.7098 45.5448 19.7101 55.9708 3.59391 66.2121C1.03381 67.8404 0.0714272 69.5969 0.0977425 72.6652C0.251875 90.2265 0.10902 107.792 0.236837 125.357C0.244356 126.257 0.180448 126.97 0 127.531H18.4921C18.4132 127.128 18.3831 126.646 18.3906 126.077C18.5034 113.887 18.5598 101.693 18.3605 89.5103C18.3079 86.4081 19.4169 85.9558 22.1086 85.9633C48.9765 86.05 75.8481 86.0161 102.716 86.0161C129.34 86.0161 155.967 86.0953 182.59 85.9294C186.226 85.9068 186.985 86.9848 186.917 90.4225C186.696 102.243 186.763 114.067 186.887 125.892C186.895 126.533 186.869 127.075 186.782 127.535H204.797C204.549 126.891 204.443 126.039 204.458 124.916C204.654 109.058 204.477 93.2005 204.605 77.3467ZM36.4692 57.7461C36.4053 57.6255 36.3489 57.5011 36.2812 57.3768C43.1007 53.1174 49.9238 48.8656 56.7357 44.5987C70.5437 35.9444 84.3818 27.3314 98.1184 18.5753C100.475 17.0751 101.381 17.5086 102.054 20.0416C102.802 22.861 103.622 25.6805 104.716 28.3793C105.671 30.7389 104.697 31.5644 102.663 32.3409C81.2202 40.5241 59.7996 48.7714 38.3714 57.0036C37.7399 57.2486 37.1045 57.5011 36.4692 57.7461ZM50.4765 65.9143C49.0742 66.197 47.5968 66.1442 46.1608 66.246C46.1683 66.0651 46.1758 65.8841 46.1833 65.707C72.5663 55.6165 98.9755 45.5901 125.302 35.3488C128.588 34.071 129.787 34.659 130.441 37.9496C130.964 40.5618 131.734 43.1702 132.768 45.6127C133.922 48.3304 133.069 49.1747 130.385 49.6986C116.095 52.4842 101.833 55.4167 87.5622 58.3191C75.1978 60.8445 62.8484 63.4152 50.4765 65.9143ZM162.034 60.1397C161.756 63.6565 161.907 67.2109 161.997 70.7428C162.046 72.5596 161.542 73.37 159.553 73.3663C132.546 73.2909 105.543 73.2871 78.5398 73.2532C78.3255 73.2532 78.115 73.1514 77.9007 73.0949C77.9007 72.9215 77.8932 72.7443 77.8932 72.5709C94.8252 69.2878 111.753 66.0123 128.689 62.7254C138.475 60.8295 148.272 59.0126 158.027 56.9734C160.967 56.359 162.305 56.7096 162.034 60.1397Z" fill="#343A40"/>
<path d="M186.921 90.4187C186.989 86.9811 186.226 85.903 182.594 85.9256C155.971 86.0953 129.343 86.0123 102.72 86.0123C75.8519 86.0123 48.9803 86.05 22.1124 85.9596C19.4207 85.952 18.3117 86.4043 18.3643 89.5065C18.5636 101.689 18.5072 113.883 18.3944 126.073C18.3869 126.638 18.4207 127.121 18.4959 127.528H186.79C186.876 127.072 186.902 126.525 186.895 125.884C186.767 114.067 186.699 102.239 186.921 90.4187Z" fill="white"/>
<path d="M158.023 56.9734C148.268 59.0126 138.471 60.8294 128.685 62.7254C111.75 66.0122 94.8214 69.2878 77.8894 72.5709C77.8894 72.7443 77.8969 72.9214 77.8969 73.0948C78.1112 73.1514 78.3217 73.2531 78.536 73.2531C105.539 73.287 132.542 73.2946 159.549 73.3662C161.538 73.37 162.042 72.5596 161.993 70.7428C161.903 67.2071 161.752 63.6526 162.031 60.1396C162.305 56.7095 160.967 56.359 158.023 56.9734Z" fill="white"/>
<path d="M130.385 49.7062C133.069 49.1822 133.918 48.3379 132.768 45.6202C131.734 43.1777 130.964 40.5693 130.441 37.9572C129.787 34.6665 128.588 34.0785 125.302 35.3563C98.9755 45.5976 72.5663 55.624 46.1833 65.7145C46.1758 65.8916 46.1683 66.0726 46.1608 66.2535C47.6006 66.1517 49.0742 66.2045 50.4765 65.9218C62.8484 63.4227 75.1978 60.8483 87.5622 58.3304C101.833 55.4205 116.095 52.4917 130.385 49.7062Z" fill="white"/>
<path d="M104.716 28.3793C103.622 25.6804 102.802 22.861 102.054 20.0415C101.381 17.5085 100.475 17.0751 98.1184 18.5753C84.3818 27.3314 70.5437 35.9443 56.7357 44.5987C49.9201 48.8656 43.1007 53.1174 36.2812 57.3767C36.3489 57.4974 36.4053 57.6217 36.4692 57.7461C37.1045 57.5011 37.7399 57.2486 38.3752 57.0036C59.7996 48.7714 81.2202 40.5241 102.667 32.3409C104.701 31.5644 105.671 30.7389 104.716 28.3793Z" fill="white"/>
</g>
<path d="M314.304 100.923C314.304 103.318 317.011 103.838 321.384 103.838C326.069 103.838 328.671 103.214 328.671 100.819V56.3639H344.392V44.1829H328.671V14.8237H314.304V100.923ZM291.608 50.2214C291.608 59.5913 286.09 65.5256 278.49 65.5256C270.89 65.5256 265.372 59.5913 265.372 50.2214C265.372 40.9555 270.89 34.9171 278.49 34.9171C286.09 34.9171 291.608 40.9555 291.608 50.2214ZM251.421 50.2214C251.421 66.5667 262.665 77.4984 278.49 77.4984C294.315 77.4984 305.663 66.5667 305.663 50.2214C305.663 33.876 294.315 22.9444 278.49 22.9444C262.665 22.9444 251.421 33.876 251.421 50.2214Z" fill="#343A40"/>
<path d="M421.85 32.9389C424.661 32.9389 425.078 31.0649 425.078 27.0046C425.078 23.0484 424.661 20.9662 421.85 20.9662H355.011V32.9389H367.192V56.3638H355.011V68.3365H421.85C424.661 68.3365 425.078 66.4626 425.078 62.4022C425.078 58.446 424.661 56.3638 421.85 56.3638H410.711V32.9389H421.85ZM345.433 82.1833V94.3642H431.637C434.448 94.3642 434.864 92.3861 434.864 88.3258C434.864 84.3696 434.448 82.1833 431.637 82.1833H345.433ZM396.864 56.3638H381.039V32.9389H396.864V56.3638Z" fill="#343A40"/>
<path d="M518.153 14.8237H503.786V100.923C503.786 103.318 506.492 103.838 510.865 103.838C515.55 103.838 518.153 103.214 518.153 100.819V14.8237ZM455.582 57.1968H486.503V25.1307C486.503 21.9033 484.629 20.4457 481.61 20.4457H441.215V32.6267H472.136V45.0158H441.215V70.8353C441.215 72.9175 443.401 76.1449 445.588 78.4353C447.878 80.7258 451.73 83.3286 454.437 83.3286H491.917C494.311 83.3286 494.728 81.1422 494.728 77.186C494.728 73.3339 494.311 71.1476 491.917 71.1476H457.873C456.415 71.1476 455.582 70.3147 455.582 68.7531V57.1968Z" fill="#343A40"/>
<path d="M592.28 100.923C592.28 103.318 594.986 103.838 599.359 103.838C604.044 103.838 606.647 103.214 606.647 100.819V56.3639H622.368V44.1829H606.647V14.8237H592.28V100.923ZM567.293 36.2705C567.293 37.8322 566.773 41.8925 565.627 45.1199H534.29V57.0927H559.485C553.238 65.2133 542.411 72.1887 534.498 76.5614C531.687 78.123 533.041 79.6847 535.331 83.5368C537.83 87.7012 538.559 88.43 541.057 87.3889C551.676 82.808 568.438 70.7312 575.205 58.2379C578.849 51.4707 580.827 44.4953 580.827 36.7911C580.827 34.7089 579.578 32.002 576.871 28.5663C573.956 24.8184 571.562 22.0074 568.438 22.0074H534.29V34.1883H565.523C566.668 34.1883 567.293 34.9171 567.293 36.2705Z" fill="#343A40"/>
<path d="M695.87 33.1471C698.264 33.1471 698.681 30.9608 698.681 27.0046C698.681 23.1525 698.264 20.9662 695.87 20.9662H635.798V53.8652C635.798 55.9474 637.984 59.1748 640.171 61.4652C642.461 63.7557 646.313 66.3584 649.02 66.3584H660.889V82.1833H623.409V94.3642H709.612C712.423 94.3642 712.84 92.3861 712.84 88.3258C712.84 84.3696 712.423 82.1833 709.612 82.1833H675.256V66.3584H696.911C699.305 66.3584 699.722 64.1721 699.722 60.2159C699.722 56.3638 699.305 54.1775 696.911 54.1775H652.456C650.998 54.1775 650.165 53.3446 650.165 51.7829V33.1471H695.87Z" fill="#343A40"/>
<path d="M796.128 14.8237H781.761V38.7692H764.479V50.7419H781.761V100.923C781.761 103.318 784.468 103.838 788.841 103.838C793.525 103.838 796.128 103.214 796.128 100.819V14.8237ZM764.166 82.1833C766.248 83.9532 768.018 82.2874 770.725 79.4765C773.744 76.249 774.89 74.6874 772.807 72.8134C763.646 64.1722 752.298 50.4296 752.298 36.7911V20.9663H737.514V36.9993C737.514 50.846 726.791 64.2763 715.963 74.0627C713.985 75.9367 715.547 78.123 718.149 80.8299C721.169 84.0573 723.251 85.0984 725.333 83.5368C732.204 78.0189 741.47 68.1284 745.739 58.8625C749.695 67.5037 757.399 76.1449 764.166 82.1833Z" fill="#343A40"/>
<path d="M870.255 80.1011C870.255 82.4956 872.962 83.0162 877.335 83.0162C882.02 83.0162 884.622 82.3915 884.622 79.997V50.3254H900.343V37.9363H884.622V13.7826H870.255V80.1011ZM884.102 108.627C886.392 108.627 886.809 106.649 886.809 102.797C886.809 99.2575 886.392 96.8629 884.102 96.8629H836.627C835.066 96.8629 834.233 96.03 834.233 94.156V78.4353H820.074V97.3835C820.074 99.2575 822.052 102.068 824.134 104.151C826.32 106.441 829.444 108.627 831.734 108.627H884.102ZM821.844 59.9036H806.123V71.2517H863.071C865.882 71.2517 866.299 69.69 866.299 65.6297C866.299 61.6735 865.882 59.9036 863.071 59.9036H835.69V41.2678H821.844V59.9036ZM852.348 52.5118C857.033 52.5118 859.636 51.8871 859.636 49.4926V29.0869C859.636 27.0046 857.449 23.7772 855.263 21.5909C852.869 19.1963 849.121 16.8018 846.414 16.8018H811.224V28.6704H842.978C844.436 28.6704 845.269 29.0869 845.269 30.9609V49.4926C845.269 51.8871 847.975 52.5118 852.348 52.5118Z" fill="#343A40"/>
</svg>
