<svg width="794" height="118" viewBox="0 0 794 118" fill="none" xmlns="http://www.w3.org/2000/svg">
<mask id="mask0_9_518" style="mask-type:luminance" maskUnits="userSpaceOnUse" x="0" y="-1" width="117" height="119">
<path d="M0 -0.00012207H116.279V117.029H0V-0.00012207Z" fill="white"/>
</mask>
<g mask="url(#mask0_9_518)">
<mask id="mask1_9_518" style="mask-type:luminance" maskUnits="userSpaceOnUse" x="0" y="-1" width="117" height="118">
<mask id="mask2_9_518" style="mask-type:luminance" maskUnits="userSpaceOnUse" x="0" y="-1" width="117" height="118">
<path d="M0 -0.00012207H116.164V116.76H0V-0.00012207Z" fill="white"/>
</mask>
<g mask="url(#mask2_9_518)">
<path d="M46.4655 -0.00012207C34.1421 -0.00012207 22.3234 4.89534 13.6094 13.6093C4.89546 22.3233 0 34.142 0 46.4654V70.2941C0 82.6175 4.89546 94.4362 13.6094 103.15C22.3234 111.864 34.1421 116.76 46.4655 116.76H69.6983C82.0217 116.76 93.8404 111.864 102.554 103.15C111.268 94.4362 116.164 82.6175 116.164 70.2941V46.4654C116.164 34.142 111.268 22.3233 102.554 13.6093C93.8404 4.89534 82.0217 -0.00012207 69.6983 -0.00012207H46.4655Z" fill="white"/>
</g>
</mask>
<g mask="url(#mask1_9_518)">
<mask id="mask3_9_518" style="mask-type:luminance" maskUnits="userSpaceOnUse" x="0" y="-1" width="117" height="118">
<path d="M0 -0.00012207H116.164V116.76H0V-0.00012207Z" fill="white"/>
</mask>
<g mask="url(#mask3_9_518)">
<path d="M46.4655 -0.00012207C34.1421 -0.00012207 22.3234 4.89534 13.6094 13.6093C4.89546 22.3233 0 34.142 0 46.4654V70.2941C0 82.6175 4.89546 94.4362 13.6094 103.15C22.3234 111.864 34.1421 116.76 46.4655 116.76H69.6983C82.0217 116.76 93.8404 111.864 102.554 103.15C111.268 94.4362 116.164 82.6175 116.164 70.2941V46.4654C116.164 34.142 111.268 22.3233 102.554 13.6093C93.8404 4.89534 82.0217 -0.00012207 69.6983 -0.00012207H46.4655Z" fill="#343A40"/>
</g>
</g>
</g>
<path d="M59.9061 45.0552C64.7599 45.0552 66.8401 47.2345 66.8401 51.9892V53.4751C63.3731 52.4845 59.0146 51.6921 54.6561 51.6921C42.472 51.6921 33.4578 58.1308 33.4578 70.513C33.4578 83.0933 42.0758 88.7396 52.3777 88.7396C56.8353 88.7396 62.6797 87.6499 67.2364 85.7678C68.1279 87.0556 70.2081 87.749 73.477 87.749C77.2412 87.749 79.8167 86.8575 79.8167 84.282V52.3855C79.8167 38.7156 74.1704 33.3665 60.5005 33.3665H43.4626C40.788 33.3665 39.7975 35.0504 39.7975 39.1118C39.7975 43.3713 40.788 45.0552 43.4626 45.0552H59.9061ZM55.1514 63.0837C59.4108 63.0837 63.3731 63.9752 66.8401 64.8667V74.7725C63.076 76.1593 58.4203 77.3479 53.6655 77.3479C48.8117 77.3479 46.4343 74.1781 46.4343 70.4139C46.4343 65.8573 49.5051 63.0837 55.1514 63.0837Z" fill="white"/>
<path d="M207.969 93.597C207.969 95.9915 210.676 96.5121 215.049 96.5121C219.734 96.5121 222.336 95.8874 222.336 93.4929V49.0376H238.057V36.8566H222.336V7.49744H207.969V93.597ZM185.273 42.8951C185.273 52.265 179.755 58.1993 172.155 58.1993C164.555 58.1993 159.037 52.265 159.037 42.8951C159.037 33.6292 164.555 27.5908 172.155 27.5908C179.755 27.5908 185.273 33.6292 185.273 42.8951ZM145.086 42.8951C145.086 59.2404 156.33 70.1721 172.155 70.1721C187.98 70.1721 199.328 59.2404 199.328 42.8951C199.328 26.5497 187.98 15.6181 172.155 15.6181C156.33 15.6181 145.086 26.5497 145.086 42.8951Z" fill="#343A40"/>
<path d="M315.515 25.6126C318.326 25.6126 318.743 23.7386 318.743 19.6783C318.743 15.7221 318.326 13.6399 315.515 13.6399H248.676V25.6126H260.857V49.0375H248.676V61.0102H315.515C318.326 61.0102 318.743 59.1363 318.743 55.0759C318.743 51.1197 318.326 49.0375 315.515 49.0375H304.376V25.6126H315.515ZM239.098 74.857V87.0379H325.302C328.113 87.0379 328.529 85.0598 328.529 80.9995C328.529 77.0433 328.113 74.857 325.302 74.857H239.098ZM290.529 49.0375H274.704V25.6126H290.529V49.0375Z" fill="#343A40"/>
<path d="M411.818 7.49744H397.45V93.597C397.45 95.9915 400.157 96.5121 404.53 96.5121C409.215 96.5121 411.818 95.8874 411.818 93.4929V7.49744ZM349.247 49.8705H380.168V17.8044C380.168 14.577 378.294 13.1194 375.275 13.1194H334.88V25.3004H365.801V37.6895H334.88V63.509C334.88 65.5912 337.066 68.8186 339.253 71.1091C341.543 73.3995 345.395 76.0023 348.102 76.0023H385.582C387.976 76.0023 388.393 73.8159 388.393 69.8597C388.393 66.0076 387.976 63.8213 385.582 63.8213H351.538C350.08 63.8213 349.247 62.9884 349.247 61.4268V49.8705Z" fill="#343A40"/>
<path d="M485.945 93.597C485.945 95.9915 488.651 96.5121 493.024 96.5121C497.709 96.5121 500.312 95.8874 500.312 93.4929V49.0376H516.033V36.8566H500.312V7.49744H485.945V93.597ZM460.958 28.9442C460.958 30.5059 460.437 34.5662 459.292 37.7936H427.955V49.7664H453.15C446.903 57.887 436.076 64.8624 428.163 69.2351C425.352 70.7967 426.706 72.3584 428.996 76.2105C431.495 80.3749 432.223 81.1037 434.722 80.0626C445.341 75.4817 462.103 63.4049 468.87 50.9116C472.514 44.1444 474.492 37.169 474.492 29.4648C474.492 27.3826 473.243 24.6757 470.536 21.24C467.621 17.4921 465.227 14.6811 462.103 14.6811H427.955V26.862H459.188C460.333 26.862 460.958 27.5908 460.958 28.9442Z" fill="#343A40"/>
<path d="M589.535 25.8208C591.929 25.8208 592.346 23.6345 592.346 19.6783C592.346 15.8262 591.929 13.6399 589.535 13.6399H529.463V46.5389C529.463 48.6211 531.649 51.8485 533.835 54.1389C536.126 56.4294 539.978 59.0321 542.685 59.0321H554.554V74.857H517.074V87.0379H603.277C606.088 87.0379 606.505 85.0598 606.505 80.9995C606.505 77.0433 606.088 74.857 603.277 74.857H568.921V59.0321H590.576C592.97 59.0321 593.387 56.8458 593.387 52.8896C593.387 49.0375 592.97 46.8512 590.576 46.8512H546.121C544.663 46.8512 543.83 46.0183 543.83 44.4567V25.8208H589.535Z" fill="#343A40"/>
<path d="M689.793 7.49744H675.426V31.4429H658.144V43.4156H675.426V93.597C675.426 95.9915 678.133 96.5121 682.505 96.5121C687.19 96.5121 689.793 95.8874 689.793 93.4929V7.49744ZM657.831 74.857C659.913 76.6269 661.683 74.9612 664.39 72.1502C667.409 68.9227 668.555 67.3611 666.472 65.4871C657.311 56.8459 645.963 43.1033 645.963 29.4648V13.64H631.179V29.673C631.179 43.5197 620.456 56.95 609.628 66.7364C607.65 68.6104 609.212 70.7967 611.814 73.5036C614.834 76.731 616.916 77.7721 618.998 76.2105C625.869 70.6926 635.135 60.8021 639.404 51.5362C643.36 60.1774 651.064 68.8186 657.831 74.857Z" fill="#343A40"/>
<path d="M763.92 72.7748C763.92 75.1693 766.627 75.6899 771 75.6899C775.685 75.6899 778.287 75.0652 778.287 72.6707V42.9991H794.008V30.61H778.287V6.4563H763.92V72.7748ZM777.767 101.301C780.057 101.301 780.474 99.323 780.474 95.4709C780.474 91.9312 780.057 89.5366 777.767 89.5366H730.292C728.731 89.5366 727.898 88.7037 727.898 86.8297V71.109H713.739V90.0572C713.739 91.9312 715.717 94.7422 717.799 96.8244C719.985 99.1148 723.109 101.301 725.399 101.301H777.767ZM715.509 52.5773H699.788V63.9254H756.736C759.547 63.9254 759.964 62.3637 759.964 58.3034C759.964 54.3472 759.547 52.5773 756.736 52.5773H729.355V33.9415H715.509V52.5773ZM746.013 45.1855C750.698 45.1855 753.301 44.5608 753.301 42.1663V21.7606C753.301 19.6784 751.115 16.4509 748.928 14.2646C746.534 11.8701 742.786 9.47551 740.079 9.47551H704.889V21.3441H736.643C738.101 21.3441 738.934 21.7606 738.934 23.6346V42.1663C738.934 44.5608 741.64 45.1855 746.013 45.1855Z" fill="#343A40"/>
</svg>
