<svg width="70" height="70" viewBox="0 0 70 70" fill="none" xmlns="http://www.w3.org/2000/svg">
<path d="M40.0586 54.0298L40.5239 53.5646L39.8671 53.6034C37.4455 53.7465 35.2132 53.6037 32.4309 52.808L32.2895 52.7675L32.1854 52.8715L25.3146 59.7395L25.3143 59.7398C21.2062 63.859 14.4486 63.939 10.2491 59.7396L10.2491 59.7395C6.09676 55.59 6.09676 48.8294 10.2491 44.6798L10.2491 44.6798L24.0389 30.8956L24.0676 30.8669L24.0704 30.8615C28.2483 26.7155 35.1002 26.8942 39.0987 30.8928L39.0989 30.893C40.3807 32.172 41.2675 33.766 41.767 35.4671L41.8856 35.8712L42.1836 35.5735L46.6971 31.0628L46.8249 30.935L46.7436 30.7736C45.9429 29.1835 44.9165 27.6876 43.6116 26.3827L43.6116 26.3827C37.1047 19.8787 26.2959 19.61 19.5232 26.3827C19.5232 26.3827 19.5232 26.3827 19.5232 26.3827L5.73624 40.1669L5.913 40.3437L5.73622 40.1669C2.51874 43.3844 0.75 47.664 0.75 52.2125C0.75 56.7609 2.51869 61.0406 5.73906 64.2553C12.3959 70.9121 23.1706 70.912 29.8302 64.2553L29.6535 64.0785L29.8303 64.2553L40.0586 54.0298ZM40.1613 5.74185L40.1612 5.74194L30.0348 15.8739L29.5701 16.339L30.2264 16.3002C32.6027 16.16 34.8636 16.3 37.6603 17.093L37.8014 17.133L37.9051 17.0294L44.6853 10.2606L44.6857 10.2602C48.8321 6.10273 55.5926 6.10785 59.7452 10.2576C63.9446 14.4598 63.8591 21.2175 59.7454 25.3229L59.7452 25.3231L46.0749 38.9934L46.0664 38.999L46.049 39.0165C42.0674 42.9953 35.2899 43.3114 30.9921 39.0111C29.6844 37.7006 28.8208 36.1295 28.347 34.4641L28.2434 34.1L27.9492 34.3382L27.7112 34.5309L27.7011 34.5391L27.6918 34.5483L23.3937 38.8408L23.2657 38.9686L23.347 39.1301C24.1505 40.7255 25.1712 42.2187 26.4762 43.5238C32.9311 49.9787 43.74 50.3513 50.5674 43.5238L64.2581 29.836L64.2582 29.8359C70.9119 23.1764 70.9179 12.4044 64.2552 5.74748C57.5924 -0.926561 46.8092 -0.903213 40.1613 5.74185Z" fill="#212529" stroke="black" stroke-width="0.5"/>
</svg>
