<svg width="18" height="18" viewBox="0 0 18 18" fill="none" xmlns="http://www.w3.org/2000/svg">
<path d="M18 1C18 0.522 17.621 0 17 0H1C0.38 0 0 0.519 0 1V17C0 17.621 0.52 18 1 18H17C17.478 18 18 17.621 18 17V1ZM16.5 6.505V16.5H1.5V6.505H16.5ZM16.5 5.005H1.5V1.5H16.5V5.005ZM14.2 2.478C14.642 2.478 15 2.837 15 3.278C15 3.72 14.642 4.078 14.2 4.078C13.758 4.078 13.4 3.72 13.4 3.278C13.4 2.837 13.758 2.478 14.2 2.478ZM12.55 3.255C12.55 2.858 12.198 2.505 11.8 2.505C10.105 2.505 5.445 2.505 3.75 2.505C3.351 2.505 3 2.858 3 3.255C3 3.652 3.351 4.005 3.75 4.005H11.8C12.198 4.005 12.55 3.652 12.55 3.255Z" fill="white"/>
</svg>
