<?xml version="1.0" encoding="UTF-8" standalone="no"?>
<svg
   xmlns:dc="http://purl.org/dc/elements/1.1/"
   xmlns:cc="http://creativecommons.org/ns#"
   xmlns:rdf="http://www.w3.org/1999/02/22-rdf-syntax-ns#"
   xmlns:svg="http://www.w3.org/2000/svg"
   xmlns="http://www.w3.org/2000/svg"
   viewBox="0 0 5733.3335 5249.5869"
   height="5249.5869"
   width="5733.3335"
   xml:space="preserve"
   id="svg2"
   version="1.1"><metadata
     id="metadata8"><rdf:RDF><cc:Work
         rdf:about=""><dc:format>image/svg+xml</dc:format><dc:type
           rdf:resource="http://purl.org/dc/dcmitype/StillImage" /></cc:Work></rdf:RDF></metadata><defs
     id="defs6" /><g
     transform="matrix(1.3333333,0,0,-1.3333333,0,5249.5867)"
     id="g10"><g
       transform="scale(0.1)"
       id="g12"><g
         transform="scale(2.63804)"
         id="g14"><path
           id="path16"
           style="fill:#040606;fill-opacity:1;fill-rule:nonzero;stroke:none"
           d="m 225.295,8540.37 c 26.843,310.45 49.526,627.47 109.711,897.94 18.511,74.79 -8.393,126.38 -41.467,172.28 -100.702,131.81 -145.253,271 -136.244,425.21 21.927,322.2 280.667,231.6 337.202,244 -32.418,-91 -27.619,-263.4 41.773,-377.97 -61.49,-0.53 -133.012,13.57 -168.438,63.19 -39.491,55.28 -47.142,129.08 -19.745,192.48 13.821,31.9 -0.864,69.2 -32.951,83 -151.889,65.6 -208.382,-467.02 220.536,-467.02 49.823,0 90.055,12.85 124.194,32.56 17.926,-4.93 34.923,-12.58 54.131,-12.58 112.535,0 190.854,72.63 260.686,162.01 72.697,-5.04 137.657,-2.42 202.097,32.75 10.12,5.54 14.47,15.78 20.04,24.98 56.83,-111.48 38.01,-205.34 -67.79,-304.88 -39.37,-43.67 -87.26,-91.09 -143.038,-112.55 -70.099,-27.4 -145.254,-91.09 -106.254,-236.69 27.52,-104.66 40.23,-210.53 53.804,-322.85 33.04,-272.93 91.988,-583.16 98.358,-916.44 18.34,-676.83 247.59,-1324.81 459.01,-1971.09 -78.62,-259.09 -256.49,-543.81 -423.22,-755.52 v 0.22 c -4.64,-4.73 -43.47,-59.89 -322.485,-371.07 -138.948,408.56 -230.39,695.48 -372.19,1151.54 C 24.7387,7271.89 111.673,7293.3 225.295,8540.37 Z m 501.136,1753.23 c -71.865,-74.9 -36.13,-260.3 101.688,-314.36 -14.995,-15.05 -30.45,-29.42 -47.602,-39.65 -35.05,-21.23 -74.541,-25.93 -101.693,-12.09 -77.483,39.3 -86.299,226.1 -65.406,318.6 7.528,33 -12.926,64.7 -45.059,73.7 42.971,9.3 101.374,-20.2 158.072,-26.2 z m 103.202,633 c -3.951,120.2 19.991,186.6 46.154,199.2 5.8,3 13.696,3.5 13.822,4 37.482,-17 59.752,-130.9 80.34,-248.1 40.201,-195.2 3.942,-191.2 55.291,-428.7 13.2,-61 25.67,-118.5 26.78,-175.5 0,-47.7 21.22,-93.8 64.91,-141.4 8.12,-8.8 15.44,-23.8 23.35,-34.3 -8.23,-0.8 -16.53,1.6 -24.22,-2.5 -46.77,-25.4 -109.71,-21.7 -181.16,-14.6 -24.807,2.5 -48.251,5 -65.53,12.8 -39.336,17.9 -60.326,79.5 -51.092,113.4 25.546,20.4 31.346,57.5 12.465,84.9 -5.598,8.1 -14.98,10.3 -23.108,14.9 2.437,1.7 5.754,1.9 8.051,3.8 58.252,49.3 34.234,95.8 13.947,612.1 z M 2074.47,5639.5 c 53.26,-62.78 147.15,-172.63 402.62,-416.18 -85.36,-463.11 -129.17,-1224.63 -158.77,-1866.7 -143.79,-141.43 -215.8,-314.77 -279.77,-509.62 -255.5,-753.29 -457.44,-1103.55 -603.26,-2196.781 -59.2,2.159 -120.32,6.935 -191.13,17.36 -0.33,39.5 44.56,641.921 -69.72,2250.731 -9.01,126.64 -18.02,253.48 -23.08,340.36 2.98,12.44 -0.3,168.88 -0.86,181.65 -34.59,472.06 -124.62,1007.91 -433.201,1368.63 119.692,143.03 607.301,561.71 903.021,1297.52 25.04,-25.36 421.87,-429.22 454.15,-466.97 z M 1850.6,6865.22 c -96.51,-6.94 -129.7,21.45 -151.79,70.81 -30.59,70.43 -23.39,155.95 43.59,227.71 61.11,-27.26 116.73,-36.89 187.8,-13.2 105.39,22.71 104.03,116.72 103.42,164.14 -1.29,118.04 -2.06,226.69 -7.9,352.2 353.03,126.23 713.46,155.75 1160.24,222.55 67.35,-332.33 91.77,-361.18 87.68,-508.37 0,-86.39 27.24,-143.56 112.55,-154.51 2.84,-0.5 16.04,-2.24 18.88,-2.24 31.83,0 77.76,46.13 135.75,-39.23 28.14,-39.24 20.73,-134.99 -13.94,-179.91 -0.13,-0.26 -0.25,-0.49 -0.5,-0.49 -5.06,-6.94 -13.08,-13.84 -22.33,-21.5 -1.12,-0.98 -2.23,-1.97 -3.46,-2.95 -8.39,-1.48 -21.23,-0.99 -36.16,-4.7 -16.41,-6.18 -23.32,-6.41 -22.58,-6.9 -39.77,13.15 -73.06,-17.63 -98.48,-51.33 -35.79,-50.6 -37.4,-114.06 -34.07,-170.58 5.46,-70.92 -10.56,-115.73 -0.24,-212.01 -454.46,-170.77 -670.42,-604.54 -782.9,-1077.81 -148.94,72.02 -280.46,175.39 -380.36,303.78 -5.37,6.83 -13.78,7.81 -20.86,11.79 -40.54,42.5 -36.39,37.34 -68.79,70.55 -50.12,305.45 -102.88,708.21 -136.56,871.14 -5.06,19.98 -7.16,39.99 -6.55,61.45 7.78,16.52 8.03,36.05 0.13,53.33 -11.23,23.92 -36.28,40.22 -62.57,36.28 z m 1908.41,1451.8 c 31.12,3.71 163.07,14.1 304.24,44.08 192.64,41.17 391.39,140.45 514.32,228.62 51.93,-98.86 441.69,-998.66 663.22,-1477.95 l 0.72,0.49 c 273.39,-619.59 612.31,-1060.83 628.04,-1086.11 710.08,-993.09 907.23,-1037.97 1008.41,-1143.39 138.17,-126.12 312.12,-157.58 491.57,-193.74 -111.44,-233.47 -90.37,-469.71 -10.8,-715.04 26.42,-80.74 63.19,-172.06 137.26,-236.73 38.4,-33.09 77.45,-36.54 123.88,-10.35 171.72,100.04 238.36,314.59 305.46,516.6 l 113.64,-0.76 c 317.02,-334.49 304.55,-327.02 342.83,-341.58 134.91,-52.62 291.77,137.52 363.72,265.08 83.32,148.26 135.18,314.89 156.14,483.39 60.54,-10.5 99.35,-2.01 147.08,14.44 265.53,76.65 385.36,267.44 527.81,507.96 681.35,1120.64 838.65,1535.34 1734.65,3339.72 216.5,-133.28 430.9,-257.01 664,-334.5 31.1,-10.34 63.1,-23.08 93.2,-30.55 -260.6,-1062.99 -868.7,-2062.67 -1167.2,-2631.84 0,-0.04 0.1,-0.08 0,-0.08 -416.8,-722.43 -485.7,-1064.5 -784.2,-1683.48 -100.8,-207.32 -103.7,-219.48 -116.7,-266.49 -10.37,6.22 -20.95,12.51 -34.78,13.27 -3.34,1.48 -282.71,-9.9 -375.28,397.6 -7.77,33.82 -41.7,55.31 -75.51,47.65 -34.08,-7.88 -55.42,-41.73 -47.65,-75.77 112.85,-496.62 477.7,-494.77 505.11,-495.86 3.68,0.18 5.72,3.56 9.17,4.39 -7.35,-126.72 18.5,-273.19 12.81,-364.02 3.68,-97.72 -8.52,-1282.77 -1.36,-1561.12 C 10015.4,633.236 9910.97,316.409 9026.37,212.695 8002.69,94.3884 6792.63,183.81 6620.15,183.81 c -166.52,0 -344.46,-35.709 -496.62,7.164 -231.27,63.494 -186.39,255.644 -183.39,511.63 6.14,367.926 47.61,1150.366 45.18,1481.406 27.67,313 119.45,610.87 103.91,933.01 -3.49,98.02 15.42,195.18 15.99,301.92 88.25,41.59 302.35,158.27 421.64,361.26 17.63,30.13 7.51,68.87 -22.59,86.65 -29.76,17.78 -68.61,7.66 -86.5,-22.48 -85.71,-146.17 -236.01,-242.37 -325.93,-290.33 -11.52,45.72 -30.32,105.27 -75.43,166.95 -399.69,543.92 -583.89,643.28 -1016.14,1303.43 -780.16,1311.85 -596.16,841.15 -1241.26,3292.6 z m -318.27,1052.41 c -91.2,15.05 -159.33,30.14 -209.68,92.3 -9.04,9.52 -13.82,19.75 -20.67,29.68 5.34,-3.07 8.32,-8.94 14.63,-10.42 106.94,-24.07 294.61,-3.64 349.62,25.93 101.77,54.36 131.44,202.99 67.49,280.09 50.25,68.61 54.32,167.59 -38.42,236.99 38.87,24 66.05,55.3 161.38,168.4 46.15,-292.42 47.29,-342.35 22.43,-507.02 -8.03,-48.17 0.17,-76.87 18.87,-102.69 108.49,-131.19 259.97,-407.12 464.78,-689.87 -175.47,-55.15 -447.42,-144.27 -466.75,-151.05 -234.53,466.48 -169.33,592.33 -363.68,627.66 z m -213.04,331.34 c 11.78,-8.79 25.7,-15.69 41.99,-15.88 66.52,0 133.53,4.93 199.18,14.78 31.24,4.71 70.96,27.03 79.6,-2.95 3.58,-32.56 -10.73,-66.15 -33.44,-78.24 -21.96,-11.98 -178.45,-33.06 -262.13,-14.06 -32.31,6.52 -62.84,-13.08 -72.67,-43.67 -10.46,59.55 11.47,100.56 47.47,140.02 z m -65.25,333.13 c 40.5,37.4 47.63,72.9 46.69,97.5 51.26,-6.5 125.66,-12.9 173.02,-16 0.53,-2.4 -0.8,-5.6 -0.17,-8 3.98,-14.7 12.87,-26.3 20.35,-38.8 l -156.1,6.7 c -86.8,0 -86.08,-122.9 -5.18,-126.31 248.8,-10.69 293.95,-0.3 307.91,-47.92 4.19,-14.06 0.86,-30.85 -8.4,-42.19 -7.79,-9.4 -20.73,-15.69 -34.94,-20.85 -2.34,-0.3 -4.53,0.27 -6.89,-0.15 -2.95,-0.41 -4.29,-3.45 -7.07,-4.24 -41.5,-11.41 -78.56,-17.14 -226.8,-22.4 -1.91,0 -3.02,-1.86 -4.88,-2.01 -12.08,34.11 -40.85,55.72 -66.94,68.65 -96.15,42.91 -101.36,91.84 -30.6,156.02 z m 6.29,267 c 87.2,108.4 177.93,100.7 316.79,82.4 -0.75,-0.6 -1.85,-0.2 -2.59,-0.9 -41.13,-38 -70.33,-87.9 -88.53,-141.1 -215.91,13.7 -217.08,36.2 -252.91,-2.7 -0.4,1 -2.98,2.6 -3.12,3.6 -0.74,5.4 0.74,22.2 30.36,58.7 z m 335.43,-161.1 c -7.59,29.7 10.55,99.7 64.42,149.8 24.91,23 26.13,60.9 4.56,86.7 25.33,-7 100.76,12.9 151.14,-62.4 -36.88,-5.9 -27.51,-11.6 -143.98,-142.5 -26.1,-29.7 -66.07,-69.8 -76.14,-31.6 z m 228.67,2361.3 c 75.52,443 237.2,701.7 480.56,768.8 446.28,125.5 1005.63,68.2 1471.55,88.6 2096.14,86.1 4515.75,138.7 6683.35,50.4 47.5,-2.2 96.5,-4.2 124.6,-24.5 39.2,-30.6 50.7,-97.2 56.8,-159.4 102,-879.4 79.9,-1755 -69.2,-2638.9 -188,-36.4 -318.1,-170 -342.3,-263 -11.3,-43.1 -5.1,-88.1 15.9,-122.4 -180.1,-129.9 -163.7,-294.77 -67.5,-347.24 -14.3,-35.89 -14,-76.3 5.5,-110.34 -53.1,-91.02 -3.2,-200.3 88.9,-236.2 14.1,-5.38 31.7,-3.45 48,-4.89 -78.8,-186.88 -192.6,-215.2 -396.9,-243.67 -88.5,-8.72 -612.9,-82.29 -1449.2,-117.66 -69.1,20.28 -96.1,5.53 -125.6,-4.4 v 1.37 c -1379.11,-49.78 -3631.31,21.64 -3812.17,-2.47 -53.41,111.94 -179.98,143.59 -269.63,72.06 -0.26,-0.22 -0.6,-0.49 -0.98,-0.98 -0.27,0.26 -0.5,0.49 -0.76,0.76 -65.69,50.56 -159.02,53.26 -225.81,-12.59 -90.9,81.8 -217.67,66.87 -266.49,-74.56 -733.77,-20.17 -1114.01,-82.15 -1378.34,-50.84 -268.64,393.97 -270.23,435.4 -391.69,584.72 0.49,5.69 0.99,12.85 0.99,12.85 38.74,255.46 3.98,329.64 -11.87,469.68 -25.77,224.6 -74.52,350.5 -299.46,363.5 -27.35,661.2 15.98,1334.1 131.75,2001.3 z m 9007.96,-2223.1 -0.3,-21.2 c -1.7,-123.1 -9.9,-250.7 -9.5,-374.49 0.4,-122.89 -28.5,-234.95 -83.6,-324.79 -10,-16.3 -24.7,-29.37 -45.5,-45.18 -25.3,-19.11 3.8,11.26 -152.6,-72.55 -28.1,-14.48 -61.9,-24.04 -92.2,-50.61 -220.9,-197.95 -276.7,-454.39 -338,-645.67 -9.7,-30.21 -19.1,-60.61 -22.9,-90.82 -110.4,63.87 -223.3,124.25 -339.2,180.24 25.2,143.37 38.7,228.92 44.9,283.13 l 145.9,16.91 c 286,39.5 432.7,105.6 527.8,401.28 1,1.25 0.3,-0.68 6.3,18.69 5.9,10.08 8.8,19.25 8.6,30.85 5.7,11.98 23.2,33.93 27.1,36.66 0.1,0 3.8,1.97 18.4,1.48 33,-0.99 66.7,-13.8 92.4,-35.03 27,-21.98 66.8,-18.27 89,8.61 78.6,95.22 -162.2,196.32 -265.4,132.78 -32.8,-19.52 -67.5,-68.64 -80.3,-101.36 -16.8,-4.55 -34.2,-6.63 -45.2,-2.04 -16,6.17 -28.9,22.21 -29.9,37.26 -0.7,12.13 8,26.42 18.1,29.37 37.7,11.19 63,58.65 29,99.66 28.7,19.22 24.6,41.36 83.9,65.96 36.2,14.86 150.1,40.75 184.1,21.49 73.4,-40.1 134.4,69.87 61.5,110.58 -82.1,45.19 -233.3,10.04 -294,-15.32 -14.4,-5.95 -25.9,-14.74 -38.7,-22.32 -10.7,7.01 -23.6,10.8 -38.2,9.02 -39.7,-2.5 -53,1.21 -57.2,5.42 -3.1,3.18 -5,20.24 3.2,40.49 43.4,108.7 326,241.8 450.7,223.6 34,-6.4 66.6,19 71.4,53.6 5,34.5 -19.1,66.6 -53.7,71.3 -114.6,18 -261.3,-37 -352.4,-87.9 -0.1,0 -0.1,-0.3 -0.3,-0.3 -0.6,-0.3 -1.1,-0.5 -1.7,-0.9 -39.3,52.4 201.3,264.4 382.7,186.8 51.3,-22.2 96.1,-98.7 95.8,-174.7 z M 10725.1,7606 c -22,209.09 -17.8,231.8 -32.6,349.65 -16.4,133.55 -26.3,223.2 43,329.03 39.9,60.09 49.9,82.94 57.6,160.43 7.5,82.22 22.9,159.28 -27.5,256.66 -53.1,102.32 -155.4,88.18 -203.3,95.8 37.2,78.01 12.8,151.51 -30.8,225.16 362.9,17.93 706.7,43.9 1039,79.91 -10.3,-70.62 -25.2,-168.15 -33.2,-218.46 -178.2,60.24 -202.5,-46.06 -279.9,-197.95 -12.7,-25.32 -101.6,-202.76 -88.9,-177.44 -106.1,-210.42 -181.8,-366.33 -443.4,-902.79 z m -590.7,1402.14 c 2.1,0.04 4.2,0.07 6.2,0.15 -0.1,-0.45 -0.3,-0.72 -0.4,-1.18 -1.9,0.54 -3.9,0.5 -5.8,1.03 z m 51.3,-2490.19 c -62.6,13.42 -125.8,17.25 -189.78,12.7 -15.35,180.86 -10.01,293.7 -33.36,435.74 -6.37,31.35 9.48,65.24 -8.98,118.73 -3,247.72 -14.56,487.63 0,723.68 11.1,156.25 -41.36,259.89 -181.92,357.65 -77.37,52.31 -131.57,124.37 -156.86,208.57 -12.58,41.47 -49.13,179.41 10.24,213.22 29.26,18.05 62.81,21.99 80.09,9.9 59.94,-41.89 130.25,34.45 86.01,90.82 -21.34,26.42 66,88.93 100.12,60.96 51.66,-42.12 125.54,15.35 96.85,76.04 -19.56,41.69 49.59,104.92 169.29,36.99 1,-0.49 2,-1.21 3,-1.7 49,-24.41 102.7,20.66 89.7,71.79 5.1,21.73 22.1,66.65 27.3,77.03 17.4,27.9 112.5,15.96 150.5,-57.28 25.9,-51.82 34,-77.97 17.3,-106.59 -6.8,-11.68 -6.5,-20.24 -9.8,-30.48 -31.6,5.42 -63.3,10.54 -95.8,10.73 -87,-2.46 -76.8,-135.18 3.4,-126.38 31.3,0.23 63.1,-2.73 93.9,-10.39 18.6,-5.31 24,-0.45 39.3,6.18 12.8,-7.69 25.7,-15.66 45.9,-18.76 63.1,-15.77 113.7,0.34 131.3,-33.55 35.3,-67.89 17.8,-142.91 14,-186.35 -9.3,-94.01 -33.4,-79.34 -70.1,-158.23 -78.1,-156.06 -26.9,-324.48 -19.2,-468.45 7.3,-150.11 36,-305.04 34.9,-453.82 -139.2,-285.33 -281.3,-574.29 -427.3,-858.75 z M 4493.19,8932.74 c 111.52,0.68 223.65,9.1 334.53,18.08 278.2,20.81 556.32,33.51 829.86,41.36 -19.75,-248.52 66.87,-335.9 20.2,-405.91 -89.46,-134.04 -93.59,-265.95 -177.1,-544.72 -72.55,-235.67 -143.21,-480.55 -211.9,-728.12 -544.08,1196.72 -663.11,1554.64 -795.59,1619.31 z m -84.8,2.81 -9.29,-2.92 c -1.17,1.59 -2.23,3.22 -3.41,4.81 6.6,-0.3 13.16,-1.06 19.75,-1.25 -2.42,-0.61 -4.51,-0.04 -7.05,-0.64 z m 962.12,-1798.77 c 167.51,616.75 239.15,794.46 332.56,1176.26 17.78,68.88 38.51,141.43 79.87,203.14 36.77,55.31 45.41,118.95 25.89,196.47 -53.26,188.25 -12.81,373.35 -12.81,348.03 1.74,17.17 13.53,46.81 28.39,55.27 3.07,1.97 19.86,0.49 34.91,-11.83 8.72,-7.17 16.49,-18.16 23.84,-31.92 -0.6,-59.48 9.78,-138.47 -24.33,-256.63 -9.63,-33.55 9.62,-68.61 43.17,-78.24 32.45,-9.67 68.35,9.06 78.24,43.21 21.15,73.24 28.21,152.16 27.33,233.36 31.96,39.61 1.22,50.34 21.91,81.8 29.46,43.52 81.2,14.82 85.56,-18.99 0.8,-6.86 5.84,-10.73 8.3,-16.49 4.85,-72.29 0.65,-144.92 -13.87,-215.76 -16.53,-82.04 106.97,-107.09 123.92,-25.18 17.24,85.14 22.55,172.29 15.76,259.18 -0.3,4.39 -4.32,6.82 -5.45,10.95 11.37,47.72 84.45,40.03 93.25,-36.84 -1.71,-7.59 -6.64,-14.11 -5.35,-22.26 11.11,-69.59 2.62,-143.4 -24.07,-208.33 -31.61,-77.41 85.03,-125.13 117.02,-47.88 30.25,73.69 38.67,153.33 32.87,232.56 35.36,15.2 80.74,-23.39 69.67,-95.07 -11.22,-79.64 -82.15,-167.85 -129.72,-226.08 -110.04,-134 -58.11,-99.54 -184.23,-209.06 -69.14,-64.1 -65.01,-132.56 -102.69,-506.96 -50.6,-507.58 -7.35,-108.64 -231.11,-1736.56 -216.04,309.4 -378.43,627.89 -508.83,903.85 z m 3335.4,-2108.95 c 137.33,109.02 130.93,213.19 146.47,250.07 29.49,116.03 59.97,235.97 59.97,361.86 0,52.81 12.96,67.14 44.2,81.43 178.31,81.95 255.83,203.63 243.85,381.61 -8.68,166.07 -107.12,210.87 -204.09,228.46 8.42,44.43 34.88,39.84 34.88,290.63 l -2.54,25.25 c 0,63.61 42.64,165.39 -10.09,260.35 -12.66,22.74 -10.12,53.06 -10.12,85.93 0,42.95 2.5,90.98 -20.24,141.51 -31.16,62.35 -33.43,197.11 -144.05,285.63 -326.03,255.26 -687.48,232.48 -998.35,174.37 -104.51,-22.41 -177.67,-64.67 -278.01,-53.07 -159.21,-7.58 -310.88,-91.02 -419.56,-227.44 -228.84,-289.46 -162.39,-666.22 -192.07,-952.83 -4.51,-78.74 -0.08,-172.9 51.97,-256.94 -27.52,-12.85 -52.69,-31.12 -69.98,-56.9 -67.96,-106.66 -13.99,-363.75 115.39,-408.75 -1.17,-38.47 -2.39,-167.85 -0.11,-243.09 3.67,-115.54 -6.86,-244.16 67.74,-341.13 63.34,-80.97 171.3,-119.71 258.18,-150.79 l 48.75,-18.05 c 6.44,-2.46 73.01,-23.76 77.94,-18.91 0.19,-0.19 0.45,-0.23 0.64,-0.38 0.65,-5 -5.31,-39.01 -5.99,-45.68 -8.19,-2.95 -49.62,-21.15 -41.62,-21.15 -2.96,-1.21 -9.63,0 -24.56,4.43 -176.57,35.64 -351.55,62.47 -471.79,172.29 -98.11,101.74 -299.66,157.66 -976.75,1104.34 l 2.31,16.95 c 438.55,3190.93 7.32,-79.26 285.1,2206.07 4.66,39.99 8.26,63.69 24.03,78.51 130.59,112.96 100.72,104.39 197.72,223.12 97.05,118.34 196.32,259.4 145.94,403.29 1226.14,5 2140.92,-34.42 3339.46,-4.47 -63.99,-24.34 -99.62,-66.23 -114.59,-121.65 -96.44,-2.31 -183.44,-74.18 -200.42,-151.78 -35.06,-2.23 -71.19,-13.57 -104.51,-33.58 -56.02,-31.84 -139.34,-120.92 -67.13,-358.87 33.66,-112.32 105.38,-208.07 206.33,-276.19 104.39,-72.55 135.25,-132.06 127.21,-245.1 -11.22,-184.12 -7.39,-369.22 -3.56,-548.44 4.51,-217.66 1.1,-204.96 9.36,-222.63 3.98,-8.38 3.22,-24.41 2.5,-41.2 -0.75,-19 -1.74,-40.49 2.58,-61.22 20.47,-125.78 16.42,-250.8 32.22,-430.89 -103.6,-26.65 -199.88,-74.11 -271.75,-143.94 -118.84,-115.27 -158.83,-270.76 -112.7,-438.35 17.17,-58.98 33.21,-108.38 48.64,-149.09 -323.84,-4.55 -401.52,-438.28 -93.98,-590.06 -189.61,-317.13 -266.07,-346.96 -455.18,-415.5 -33.7,-8.11 -59.25,-8.37 -74.41,-2.69 -70.74,36.01 -97.01,203.64 -205.23,254.66 z m -503.79,-760.64 c 31.24,0 55.54,20.47 81.2,41.96 28.47,26.95 100,73.31 184.38,185.86 88.93,119.75 150.45,268.91 175.85,413.68 l 1.4,9.09 c 17.51,-5.38 38.17,-35.85 48.71,-50.83 29.49,-50.41 44.47,-95.52 98.94,-155.49 -3.3,-6.52 -9.55,-11.07 -10.31,-18.77 -21.99,-218.42 -139.23,-552.98 -318.42,-660.49 -26.53,-16.03 -35.67,-13.3 -36.01,-13.3 -4.1,1.7 -13.72,11.82 -18.88,17.51 L 8189.2,4268.1 Z m -339.49,150.56 c -54.59,35.6 -133.93,13.16 -179.68,238.44 -7.96,41.89 -19.18,91.36 -58.11,130.93 1.93,31.2 -0.19,7.7 5.99,50.45 151.74,-22.82 234.03,-37.26 343.47,-37.26 172.82,0 358.45,37.72 538.7,105.61 -49.47,-239.69 -158.98,-378.84 -324.33,-511.14 z m 644.76,2986.09 c 35.33,-37.42 69.75,-49.92 96.02,-111.26 10.12,-17.66 12.62,-25.24 25.28,-27.78 26.27,-7.51 45.45,-28.05 37.91,-65.7 7.58,-2.54 17.7,-2.54 25.28,0 47.73,0 63.15,-4.47 63.15,-60.65 0,-2.54 2.54,-7.62 2.54,-12.66 31.39,-62.77 -69.4,-95.11 -80.85,-15.2 -2.54,12.66 -10.12,22.78 -22.75,40.49 -14.4,-14.37 -21.94,-21.35 -55.61,-10.12 -22.74,11.37 -38.55,-2.77 -55.6,17.7 -10.13,15.12 -7.59,32.82 -2.55,45.49 v 12.66 c 2.55,7.5 2.55,15.12 2.55,22.7 7.54,75.25 -24.04,122.71 -35.37,164.33 z m -94.81,-485.32 v 22.78 c 0,37.94 7.58,80.89 65.73,108.64 l 25.25,12.66 2.54,-27.75 c 5.08,-50.6 -2.54,-98.63 -70.77,-111.25 z M 8277.48,7167 c 20.24,37.9 42.99,65.73 65.73,85.97 27.94,28.01 73.35,-40.37 45.49,-68.27 -5.08,-5.04 -7.58,-12.62 -10.12,-22.75 -7.58,-22.7 -15.16,-50.53 -50.53,-55.6 l -7.58,-2.54 -15.2,10.12 c -12.63,5.08 -42.95,22.78 -27.79,53.07 z m -239.57,200.18 c -22.14,77.49 106.48,82.11 78.35,-2.54 -13.11,-56.14 -16.68,-76.27 25.25,-93.48 19.63,-9.81 28.54,-44.54 17.7,-60.65 -37.37,-53.41 46.29,-115.61 17.7,-187.03 -10.12,-20.24 -25.28,-32.9 -45.48,-32.9 -5.08,0 -12.66,0 -17.71,2.54 l -15.16,5.08 2.54,15.16 c 10.08,75.85 -32.86,136.5 -75.85,199.69 l -5.04,2.5 c -2.54,5.01 -7.58,10.09 -12.63,15.13 -7.58,10.12 -20.24,20.24 -17.7,37.94 2.54,17.67 20.21,27.79 37.91,37.91 15.16,5.04 17.7,32.87 10.12,60.65 z m -166.34,-207.27 12.63,-32.83 c 9.02,-36.16 56.44,-93.36 5.04,-151.67 -5.04,-10.12 -17.67,-10.12 -25.28,-10.12 h -7.55 c -10.12,0 -17.7,5.05 -20.24,12.66 -55.27,87.61 22.97,156.67 35.4,181.96 z m -118.42,24.64 c -13,-8.57 -25.7,-4.93 -40.44,0 -7.59,5.04 -15.17,15.16 -15.17,25.28 -13.38,89.16 65.92,154.13 103.64,207.28 l -5.08,-60.66 v -27.86 c 0,-36.46 -11.79,-32.07 -5.04,-65.69 2.54,-22.71 5.04,-60.65 -37.91,-78.35 z m -372.4,-187.68 c -8.34,77.94 42.57,104.96 159.25,184.53 l -53.07,-80.93 c -19.63,-29.19 5.88,-111.71 -85.93,-118.76 l -17.71,-2.54 z M 7092.66,5759.21 c -22.25,15.35 -55.57,74.67 -55.76,160.68 -3.18,40.56 -0.45,67.36 34.04,74.34 1.86,-1.52 2.92,-3.15 4.97,-4.66 -3.91,-27.22 -8.31,-54.32 -10.77,-81.77 -3.07,-34.8 22.59,-65.43 57.28,-68.61 1.97,-0.27 3.83,-0.27 5.8,-0.27 32.33,0 59.85,24.68 62.81,57.51 2.43,26.61 6.52,52.88 10.31,79.19 22.14,10.65 42.11,23.61 47.99,47.27 73.31,229.94 118.8,462.54 131.42,692.48 2.54,30.37 25.29,63.19 35.41,65.73 59.02,-5.38 169.63,-4.85 227.48,-17.7 53.07,-10.12 90.98,-2.54 116.22,17.7 12.66,-7.58 27.83,-17.7 48.03,-22.78 88.48,-20.17 169.33,-22.71 250.22,-5.04 7.59,2.54 15.17,7.58 22.75,15.16 29.34,-11.29 64.14,-11.9 141.54,-10.12 207.51,-9.44 224.94,26.12 250.23,30.36 2.5,0 17.66,5.08 17.66,5.08 5.08,2.51 12.66,5.05 22.78,2.51 l 22.75,-5.05 c 20.73,-31.16 33.58,-17.59 75.81,-118.8 44.43,-104.7 51.4,-236.19 63.19,-353.86 -2.54,-90.94 50.53,-154.13 141.51,-164.25 9.97,-1.44 18.19,-1.25 25.85,0.72 -59.06,-63.3 -60.99,-144.08 -39.42,-228.46 7.28,-28.66 32.94,-47.65 61.22,-47.65 40.83,0 71.45,38.59 61.22,78.73 -10.24,40.22 -11.26,70.85 -3.22,93.55 5.68,15.81 19.14,29.61 30.85,32.83 83.13,-32.33 134.88,107.24 18.61,123.35 71.31,-12.17 98.72,-33.62 102.81,-112.01 8.41,-124.64 -41.09,-199.66 -170.55,-259.14 -105.49,-48.63 -117.73,-135.51 -117.73,-196.47 0,-125.55 -36.28,-253.33 -71.69,-392.94 -20.5,-90.48 -101.51,-117.7 -156.48,-187.11 -474.93,-212.17 -762.23,-110.95 -997.63,-84.53 -28.2,12.92 -79.99,26.08 -85.79,28.5 l -52.46,19.26 c -239.34,85.67 -243.36,109.59 -243.36,432.18 0,155.04 5.76,244.35 4.09,253.75 -7.16,40.71 -60.84,56.02 -89.99,50.34 z m 474.79,-1915.82 c -92.61,94.96 -148.45,365.27 -148.6,508.45 -0.11,119.21 26.91,229.79 78.36,319.63 1.89,3.33 0.11,7.08 1.32,10.57 27.26,11.11 20.7,8.87 36.92,17.33 37.04,-38.56 23.47,-316.64 245.6,-380.59 l 27.52,-15.81 c 2.81,-1.85 6.37,-1.78 9.4,-3.14 -77.4,-168.8 -108.75,-362.93 -250.52,-456.44 z m 4306.05,2015.28 c -87.3,15.17 -175.4,5.39 -260.7,-12.85 -37.3,178.36 -125,241.28 -240.4,274.3 11.5,21.83 23.1,44.01 34.8,66.15 216.4,-153.26 161.3,-100.8 466.3,-327.6 z m 707.1,-497.07 c 177.8,2.58 352.2,-9.29 531.2,-34.65 -5.4,-53.03 -24.2,138.4 114.5,-707.08 5.2,-30.78 31.9,-52.54 62.3,-52.54 48.6,0 16.3,0.12 801,749.65 40.8,-33.58 81.9,-67.47 125.7,-108.98 1.6,-2.16 2.2,-4.36 2.2,-6.56 7.4,-19.9 22.3,-34.64 39.7,-39.95 0.7,-0.27 0.8,-1.33 1.5,-1.56 0.7,-0.26 1.4,0.57 2.2,0.39 79.2,-28.51 139.1,122.81 171.4,200.41 107.5,241.85 237.5,589.04 321,775.88 5,-2.54 10.1,-7.62 12.6,-10.12 1.3,-0.91 2.8,-0.8 4.1,-1.63 81.9,-62.28 549.3,-291.47 733.7,-325.17 85.8,-14.06 176.9,-16.03 247,-16.03 -75.4,-223.46 -681.2,-1572.12 -681.2,-1597.44 -102,-233.85 -160.8,-380.74 -200.8,-610.42 -87.3,17.06 -321.9,74.64 -510.3,229.07 -65.3,52.88 -144.3,-44.73 -80.2,-97.72 219.2,-179.6 485.2,-240.71 576.6,-257.46 3.7,-35.56 -37.9,-94.09 72.4,-510.38 186,-699.77 338.5,-1417 453.3,-2132.764 -573.7,-225.167 -1203.4,-284.719 -1778.9,-306.858 18.7,16.377 39.8,29.342 55,50.153 47.9,64.403 71.3,149.087 68,244.612 -7.1,177.557 -50,243.247 -658.9,1433.757 -132.8,263.49 -345.6,487.11 -601.9,645.67 133.2,34.3 240.3,131.12 254.1,281.65 94.1,18.16 175.2,71.11 207,160.65 3.3,25.43 22.4,21.53 -0.7,180.66 -22.4,145.68 -105.8,238.82 -217,282.86 115.7,219.9 -22.4,499.09 -286.4,529.19 0,0 0,0 -0.2,0 231.5,259.62 186.4,636.91 -170,686.42 97.8,146.39 42.6,287.14 -70.7,337.63 34.8,88.9 33.7,186.58 5.9,266.19 7.9,5.19 15.9,11.29 23.8,16.45 4.6,2.69 8.8,5.42 12.5,8.37 33.7,-31.19 315.1,-276.83 358.5,-262.35 z m 84.8,1718.1 2.1,18.61 c 0.1,0.49 0.6,0.76 0.7,1.25 56.3,451.24 137.3,486.5 336.1,740.51 37.9,53.03 78.3,106.07 121.2,154.09 60.8,-301.62 356.1,-453.89 381.4,-477.36 0,0 0.1,-0.04 0.1,-0.04 0.1,-0.07 0.2,-0.15 0.2,-0.19 290.3,-182.25 458.1,-199.88 507.8,-293.74 45.2,-85.78 129,-87.37 182.3,5.65 l 10,20.21 c 4.6,8.45 6.8,10.5 10.1,16.41 31.8,55.19 118.8,41.05 148.3,16.22 0.9,-0.83 2.7,-1.44 3.4,-2.31 51.4,-53.86 45.2,-176.08 24.6,-254.36 -18,-73.61 -96.1,-136.69 -164.9,-96.73 -53.9,30.59 -158.9,-10.84 -142.8,-124.04 -24.4,-178.65 -75.3,-684.33 -116.2,-930.16 -22.6,-173.38 -46.6,-228.73 -20.7,-516.71 l -618.4,-597.9 -97.7,571.97 c 5.8,5.8 13.7,9.1 17,17.18 l 8.1,19.97 c 86.7,214.56 74.1,330.02 66.5,641.39 201.4,63 433.1,161.52 611.6,360.95 23.3,25.93 21.1,65.92 -4.8,89.35 -25.8,22.7 -65.9,20.73 -89.2,-4.93 -180.7,-201.48 -431.3,-292.42 -631.4,-349.09 -20.7,0.69 -56,0.46 -107.6,-6.59 -108.3,9.36 -162.2,31.69 -208.2,60.5 -7.3,4.51 -15.1,7.77 -21.9,13.08 -61,65.46 -67.8,89.68 -119.8,211.02 -107.1,233.24 -106.8,463.49 -87.9,695.79 z m 910.1,1043.5 c 45.5,58.11 106.2,30.29 131.4,17.7 330.5,-118.87 393.4,-375.09 477.7,-490.36 -175.5,150.83 -145.8,169.4 -414.5,333.62 0,0 0,2.54 -2.5,2.54 10.1,-20.25 15.1,-45.49 -5.1,-73.31 l -12.6,-20.25 -25.3,7.58 c -51.3,24 -75,66.72 -101.1,101.14 -10.1,32.83 -17.7,60.65 -40.4,73.31 l -27.8,20.17 z m 861.9,-1539.25 37.9,-139.01 c 46.2,-159.74 -52.9,-269.82 -60.7,-424.59 l -15.1,-257.81 -48.1,255.27 c -20.2,106.14 5.1,202.19 30.4,295.71 45.2,154.02 28.7,128.31 55.6,270.43 z m 608.3,70.73 c 361.8,783.09 57.6,1737.89 -17.2,2539.01 -2.2,25.06 -60.9,681.53 -71.8,704.2 -42.8,89.08 -120.4,132.91 -167.8,180.71 -178.9,187.2 -183.5,210.3 -121.9,369.4 53.3,139.8 30.1,69.7 34.9,107.7 1.6,1.5 4,1 5.5,2.7 56.8,63.4 121.1,135 199.2,165.3 62.4,24 149.2,14.6 181.2,-41.2 14.8,-25.3 17.7,-49.1 23.6,-74.5 l -263.7,-169.8 c -52.7,-33.7 -28.7,-116.3 34.2,-116.3 135.4,0 268,-86.6 322.2,-210.8 13.8,-31.5 50.6,-46.4 83.2,-32.5 32,14 46.6,51.3 32.6,83.4 -51.1,116.7 -153.1,209 -272.1,254.7 l 107.5,69.4 c 8.9,-21.7 13.9,-44.9 24.5,-65.7 34.8,-68 84.4,-122.2 160.7,-122.2 15.5,0 28.8,8.4 43,13.6 -137.8,-295.4 35.6,-208.1 324.3,-1438.95 86.1,-361.86 170.2,-750.33 200.7,-1140.05 43.9,-575.62 -60.7,-1266.17 -206.3,-1821.66 -56.2,0.98 -117.9,3.45 -176.8,13.19 -156.1,28.5 -512.7,205.08 -645.6,280.89 91.6,283.28 99.3,297.3 165.9,449.46 z m -529.5,4745.62 c 5.7,3.2 18.1,4.7 32.8,-0.5 42.3,-18.1 63.7,-106.9 87.6,-170.6 35.5,-99 69.2,-192.2 86.5,-300.1 28.7,-100.6 23.2,-108.6 48.6,-137.1 -39.9,-28.2 -75.8,-60.7 -107.4,-93.7 -15,45.5 -29.8,91.8 -52.6,137.5 -83.3,153.3 -130,541.9 -95.5,564.5 z m 733.4,-574.4 c 10.9,-16.1 24.5,-31 37.3,-46.3 -21.8,-19.6 -30.6,-50.3 -15.2,-76.6 52,-89.1 100.8,-182.9 76.1,-263.6 -20,-61.9 -89.4,100.1 -110.8,186.6 -13.9,59.6 -21.1,87.6 -39.6,119.7 -32.9,57.3 -86.2,90.2 -144.5,105.5 6.2,2.1 11.9,3.7 18.5,5.8 160.7,53.2 138,12.4 178.2,-31.1 z M 12429.3,464.929 c -34,82.941 -322.1,785.771 -358.5,870.801 -33.4,76.68 -149.1,27.03 -116.3,-49.89 32.4,-75.55 262.7,-636.911 337.4,-818.979 -3.9,-4.51 -7.3,-9.362 -9.7,-14.518 -28.5,-5.42 -54.2,-12.585 -75.3,-18.764 -827.6,-222.325 -1711.8,-39.536 -2162.5,259.663 116.3,355.148 68.5,737.438 71.1,1094.148 0.5,63.83 7.1,1149.64 5.2,1245.43 166,6.79 181.5,-11.33 384,-1.47 37.2,0 50.5,-1.26 87.4,3.22 25.7,-116.3 105.8,-179.87 218.5,-221.34 21,-10.81 40.3,-24.98 62.8,-31.88 116.8,-35.06 252.2,-29.87 401.3,14.55 119.6,33.1 348.8,143.6 437,203.87 5.9,4.7 14.1,8.87 37,19.75 v 0.49 c 54.8,-33.09 58.3,51.25 398.7,-116.26 0.1,0 0.1,0 0.2,0 157.6,-77.97 97.7,-49.39 172.2,-87.38 272,-145.6 496.9,-374.9 633.2,-645.17 620.9,-1215.716 639.8,-1241.456 645.2,-1381.447 5.9,-156.252 -72.8,-219.557 -213.1,-277.933 -322.2,-129.491 -622.5,-128.201 -955.8,-46.891 z M 10717.9,4881.09 c 42.9,-3.3 28.7,-2.05 32,-2.27 58.6,0 93,81.5 24.8,115.69 49.2,97.34 93.5,193.21 206.9,402.91 2.3,-1.78 68,-60.76 70.1,-62.73 27.9,-42.72 47.7,-68.12 78.7,-82.94 65.3,-23.47 153.7,-47.39 259.4,-24.68 69.1,19.07 102.6,-46.97 98.3,-116.98 -6.2,-64.44 -22.5,-231.05 144.6,-278.92 -2.3,-26.01 -8.6,-71.15 -8,-132.3 -8.2,-77.86 39,-118.53 111.9,-110.08 35.4,4.93 69.6,-6.9 95,-33.58 32.1,-33.82 45.8,-84.16 36.5,-133.78 -22.8,-112.54 -50.7,-139.19 -162.5,-157.2 -79.8,-9.13 -100.6,-56.29 -115.1,-104.89 -21.4,-98.48 -34.2,-192.79 -39.5,-289.53 -2.3,-74.94 -26.4,-168.27 -9,-256.71 67.5,-345.18 72.4,-375.65 101.6,-505.6 -228.7,-148.22 -531.5,-268.65 -787.5,-177.63 -28,15.96 -52,35.48 -73.1,59.21 82.4,159.21 100.7,310.49 113.7,503.1 1.7,60.88 3.4,128.73 1.2,172.63 25.6,2.92 48.8,3.33 122.4,15.92 174.5,20.81 319.5,98.14 355.4,134.04 33.1,11.11 51,46.89 40,79.98 -14.4,43.48 -69.8,61.75 -118.3,16.76 -12,-6.64 -20.6,-12.32 -27.9,-17.02 0,-0.23 -14.6,-9.14 -14.7,-9.14 -31.3,-21.19 -129.8,-64.78 -252.4,-79.45 -137.2,-22.9 -130.8,-11.11 -147.7,-20.24 -5.3,0 -34.3,-3.68 -48.6,-8.15 -4.4,-0.46 -9.5,2.27 -13.6,0.98 -71.8,-25.77 -369.9,81.2 -448.1,243.74 47.1,107.47 92.4,216 137.4,324.94 190.1,459.81 190,439.8 236.1,533.92 z M 5539.54,1041.91 c 112.73,99.13 150.3,103.98 291.61,187.37 -14.21,-350.105 -22.17,-684.178 -22.4,-703.435 -85.44,164.364 -191.01,367.205 -269.21,516.065 z M 4390.8,4167.72 c -27.78,88.48 -45.48,179.49 -50.53,270.47 0,88.93 126.38,90.25 126.38,7.58 5.05,-80.9 20.21,-161.75 45.49,-240.1 23.01,-74.91 -90.48,-122.71 -121.34,-37.95 z M 5963,3111.82 c 9.09,-191.58 -21.69,-379.64 -64.94,-643.66 -5.5,11.37 -11.52,22.02 -16.79,33.78 -616.63,1355.63 -681.76,1095.77 -1113.22,1297.97 154.06,235.89 187.15,501.17 158.57,615.49 -25.28,108.72 -106.14,187.08 -176.91,252.73 -121.46,121.57 -195.68,186.81 -126.39,412.01 20.4,67.89 49.21,128.24 82.49,185.48 318.38,-520.39 347.68,-580.62 796.99,-1110.49 138.93,-163.9 282.72,-333.46 411.67,-508.93 113.35,-155.12 41.51,-332.41 48.53,-534.38 z M 3961.81,5948.51 c 28.28,-51.51 50.95,-107.16 72.63,-160.68 44.24,-106.14 57.28,-136.51 87.75,-315.16 9.41,-37.57 26.88,-78.7 23.47,-99.36 -5.08,-32.82 5.04,-65.73 30.33,-85.89 77.29,-55.27 131.99,27.29 230.28,8.07 112.13,-23.54 75.66,-131.23 11.86,-226.87 -28.92,-34.65 -113.56,-122.9 -154.73,-103.68 -9.86,6.45 -21.38,8.38 -32.94,9.48 -2.16,0.23 -3.87,1.7 -6.03,1.74 -45.34,0.38 -83.85,-34.61 -83.85,-71.94 0,0 0,0.18 0,-0.99 8.41,-33.59 -3.41,-42.12 -35.37,-78.35 -64.06,-64.07 -61.44,-113.61 -53.07,-207.28 23.54,-353.03 43.41,-463.79 46.86,-492.15 23.84,-179.07 16.3,-205.87 52.5,-249.46 10.46,-12.93 23.99,-24.68 41.92,-34.08 4.4,-2.69 9.25,-3.26 13.88,-5.61 9.47,-5.12 18.83,-10.42 28.92,-14.29 -157.01,-94.16 -330.47,-122.75 -512.64,-118.38 -138.35,4.7 -267.81,42.87 -396.8,84.57 75.66,109.17 88.1,205.75 113.72,346.69 2.53,2.54 2.53,15.17 2.53,20.24 6.52,59.75 15.26,138.4 -3.13,222.52 26.17,-1.94 54.3,-6.29 78.95,-6.29 151.06,0 275.45,36.77 389.97,113.04 29,19.25 36.92,58.49 17.55,87.6 -19.52,29.15 -58.87,37.03 -87.64,17.55 -301.2,-201.21 -747.84,-108.04 -874,357.01 -0.53,1.89 -1.33,3.64 -1.84,5.53 l -5.69,21.08 c -24.74,75.17 -4.08,123.12 -117.63,144.01 -19.22,4.05 -22.67,3.75 -35.41,7.35 -1.62,0.42 -3.61,0.53 -5.15,1.1 -68.39,23.77 -25.63,260.38 4.58,270.43 7.58,2.54 25.26,-2.5 48.02,-20.21 5.06,-2.54 10.1,-7.62 15.16,-10.12 31.14,-10.31 94.27,-9.78 119.48,26.58 0.46,0.64 1.37,0.56 1.83,1.25 v 0.03 c 0.11,0.16 0.37,0.16 0.48,0.34 18.8,30.37 2.08,43.56 7.3,90.94 10.03,79.34 70.77,156.71 115.56,232.26 3.22,1.78 7.11,1.21 10.05,3.56 59.61,47.88 138.1,71.12 213.13,63.46 82.46,-10.12 96.4,117.51 12.59,125.85 -46.05,3.83 -91.72,-1.1 -135.95,-11.26 87.54,149.09 161.52,200.04 272.41,237.91 6.56,2.16 12.12,7.05 18.74,8.94 5.32,1.56 10.94,0.53 16.3,1.9 193.73,48.1 350.78,-32.07 443.12,-198.98 z M 5366.95,1057.49 c -87.49,673.46 -177.41,1407.53 -172.67,1501.19 18.84,62.59 -58.95,109.29 -105.27,62.97 -28.01,-28.13 -54.43,-54.82 229.26,-2159.451 0.34,-2.463 2.73,-3.753 3.34,-6.14 0.45,-3.79 -2.16,-7.128 -0.99,-10.88 10.12,-32.335 -3.07,-64.898 -7.88,-69.598 C 4934.62,225.28 4517.87,184.303 4122.84,154.926 3333.4,90.3696 3112.72,144.31 2750.13,236.122 c -79.69,20.052 -167,42.456 -233.95,66.148 l -43.35,2321.58 c -1.5,84.11 -127.85,81.53 -126.37,-2.47 l 27.18,-1455.74 c -39.24,11.75 -74.18,22.67 -109.12,44.92 -148.07,87 -273.93,136.09 -365.17,183.66 -56.78,29.76 -64.94,35.33 -184.74,71.79 77.33,379.98 275.76,845.56 443.78,1341 102.87,313.45 193.91,454.39 473.33,648.02 l 18.91,15.13 c 120.21,89.68 207.45,124.1 348.08,196.77 31.52,16 68.82,34 81.25,35.52 18.43,-9.97 37.23,-10.8 57.08,-8.3 9.35,-19.56 18.17,-39.16 27.97,-58.76 80.01,0 146.72,-59.85 227.47,-73.31 189.56,-25.24 369,-70.7 568.69,-32.83 194.23,37.45 359.32,107.85 503.25,234.12 10.61,-13.54 28.5,-22.94 42.64,-25.29 7.59,0 22.75,-2.54 27.83,-5.08 5.91,-4.7 13.34,-3.03 20.09,-4.7 8.34,-2.39 16.03,-7.62 24.71,-6.1 4.1,0.53 7.85,-1.4 11.87,-1.25 66.68,1.33 108.34,-33.55 176.95,-58.98 l 46.89,-17.52 c 267.4,-101.47 333.47,-39.91 591.24,-473.38 35.06,-65.62 80.28,-107.47 295.71,-581.76 l 63.91,-139.95 c 31.46,-70.24 68.61,-133.89 101.02,-201.59 -18.5,-169.63 1.33,-74.03 -31.16,-863.14 -43.52,-32.68 -92.61,-61 -145.49,-89.88 -162.66,-88.63 -178.46,-108.3 -275.35,-192.53 -16.87,-16.98 -32.41,-30.36 -48.33,-44.73 z M 1687.1,1342.21 c 89.88,-26.95 93.17,-28.16 153.63,-59.82 86.87,-46.13 217.68,-97.38 357.89,-179.68 51.86,-32.9 139.56,-61.03 170.43,-66.64 2.26,-1.1 4.73,-0.79 7.04,-1.63 l 13.13,-703.665 -852.45,118.612 c 37.65,305.302 85.44,635.243 150.33,892.823 z M 518.098,5303.07 c -26.114,-153.45 -25.793,-307.92 4.858,-461.29 10.512,-54.85 31.839,-90.06 86.342,-103.52 187.514,-212.02 312.782,-561.03 352.876,-801.58 57.316,-295.41 59.976,-508.68 64.046,-650.37 -15.89,-66.19 137.47,-1474.05 91.57,-2615.546 0,-75.928 29.18,-115.769 104.41,-128.089 69.71,-10.386 133.3,-12.849 197.45,-15.504 -5.23,-41.432 -10.9,-83.773 -15.79,-124.181 -4.2,-34.308 19.87,-65.428 53.93,-70.356 L 2425.32,197.95 c 9.1,-5.08 17.49,-11.676 28.63,-11.676 0.37,0 0.74,0 1.24,0 2.37,0.076 3.73,2.35 6.04,2.654 75.16,-27.937 170.06,-53.221 258.05,-75.474 383.76,-95.7147 603.94,-150.5658 1413.41,-84.4181 404.28,29.871 831.91,72.3271 1227.05,229.3001 69.71,27.976 106.26,127.443 82.53,216.221 -0.12,1.63 1.36,2.804 1.17,4.435 -17.55,130.021 -36.77,274.673 -56.44,424.786 12.13,6.179 22.74,15.01 28.92,27.9 9.55,8.073 17.14,15.919 26.2,23.918 152.95,-291.732 396.35,-761.437 396.35,-761.437 11.33,-21.949 33.93,-34.041 56.14,-34.041 7.13,0 13.91,2.768 20.7,5.155 C 6051.96,28.5813 6286.04,39.2707 6467.61,50.5288 6855.25,77.7463 7872.26,-48.5594 9040.93,87.3001 9435.35,133.28 9817.38,228.958 9994.63,575.883 11009,-72.0618 12332.9,333.315 12358.2,334.605 c 11.1,0.758 21.7,4.206 30.9,10.12 308.2,-77.367 604.3,-93.895 949.9,20.319 669.1,16.337 1440.7,57.733 2135.9,343.246 27,11.109 43,39.501 38.4,68.385 -116.4,736.495 -272.5,1474.995 -463.9,2195.195 -123.5,464.59 -47.3,468.95 -70.7,527.97 36,83.05 -13.1,130.4 202.1,624.7 22.3,7.4 43.6,16.38 63,27.15 45.6,-34.8 83,-60.69 150.6,-73.09 67,-12.24 140.1,-4.06 204.3,26.69 65.7,26.8 109.9,75.2 154.3,108.07 51.1,36.54 87.6,90.6 104.6,151.06 184.1,-72.14 315.2,144.27 350.6,342.11 20.6,120.92 2,224.86 -60.2,333.92 176.6,118.08 217.9,438.13 24.1,564.25 -46.8,29.38 -61.1,57.28 -65.8,91.32 6.1,27.14 9.2,58.98 9.2,94.04 3.5,168.57 -55.1,307.77 -163,383.05 -15.5,9.9 -34.3,14.07 -51.4,21.46 226.5,1096.61 174.6,1679.77 -70.4,2707.16 -296.5,1264.97 -447.1,1120.07 -325.8,1373.07 97.2,205.1 34,246.5 18.2,325.5 -8,44 -12.9,98.9 -56.7,159.2 -38.5,52.4 -79.6,90 -115.4,141.4 -37.5,52.7 -55.7,76.2 -91.9,91.6 -90.7,40.1 -190.3,-5.9 -269.7,-28.6 -45.1,-14.6 -84.6,-26.9 -128.3,-60 -40.5,155.8 -19.1,127.9 -105.7,368 -29.1,82.5 -57.3,201.4 -159.4,245.1 -100.4,38.2 -202.1,-11.9 -214,-125.1 -11.2,-142.7 26.3,-446.3 117.6,-614.3 30.1,-60.2 47.3,-126 75.9,-209.4 -107.1,-283.9 -111.6,-332.3 123,-578.01 48.8,-48.78 110.4,-85.93 139.6,-137.98 86.1,-846.04 55.5,-689.71 146.8,-1277.05 97.9,-630.77 196.9,-1281.71 -41.2,-1833.18 -5.6,222.86 -101.8,438.06 -155.1,640.67 -166.3,637.71 -553.6,961.66 -962.9,1051.39 -260.3,53.07 -497.9,-17.71 -712.7,-101.14 -533.3,-206.17 -747.5,-740.59 -571.8,-1227.81 -58.5,-529.94 104.9,-774.97 115.9,-816.7 27.8,-65.47 58.2,-130.93 104.9,-178.39 16,-152.65 130.9,-364.21 316.3,-490.97 31.6,-22.97 71.1,-39.54 109.8,-56.98 -7.2,-38.32 -19.7,-75.62 -34.5,-113.19 -25.6,2.66 -205.8,37.46 -553.9,39.35 -35.6,27.75 -129.9,74.98 -317,252.23 -17.7,17.48 -39,23.77 -61.7,24.15 -217.1,147.53 -405,303.33 -612.6,435.93 -49.4,32.22 -95.9,65.24 -142.2,98.56 619.9,1201.12 715.7,1809.6 740.3,1881.66 4.2,14.71 35.9,145.68 36.8,160.96 8.4,42.68 18,99.2 -14.5,152.27 -28.1,44.65 -75.8,65.88 -113.9,89.38 10.3,59.02 -1.8,39.5 24.5,121.42 58.1,180.13 102.6,413.15 301.4,589.64 6.8,5.91 22.3,12.81 36,18.99 51.5,22.37 85,48.26 136.7,66.42 178.3,62.47 244.5,314.17 243.9,502.98 -0.2,47.99 9.4,393.4 9.9,405.3 0.5,101.4 -64,234.2 -172.3,280.6 -27.6,11.9 -57.2,16.7 -86.8,20.3 147.3,885.2 170.4,1760 67.2,2649.3 -8.7,87.9 -27.9,185.9 -106.8,247.3 -82.3,59.2 -154.1,51.5 -758,67.4 -3280.89,93.1 -5788.96,-78.8 -6562.53,-72.3 -363.07,1.5 -737.75,4 -1068.6,-89.1 -294.46,-80.9 -486.61,-373.4 -571.14,-869 -116.4,-670.5 -160.2,-1346.9 -133.7,-2011.8 -35.14,3.6 -70.12,7.4 -106.7,9.3 -114.53,5.7 -219.3,-42.5 -297.55,-139.7 -86.51,-106.9 -69.71,-195.4 2.97,-256.7 -123.5,-114.6 -119.12,-262.12 48,-352.19 -103.66,-117.47 -97.12,-275.47 14.69,-392.94 80.83,-100.19 198.32,-119.72 282.98,-133.78 97.59,-17.78 31.72,-76.42 270.93,-552.87 -116.84,-68.92 -97.26,-195.9 -71.19,-330.21 79.2,-304.73 414.92,-1596.94 501.84,-1901.6 -209.7,127.74 -473.79,149.39 -687.72,105.79 -0.23,25.33 -3.37,11.6 1.19,87.3 2.1,34.54 3.95,69.11 1.24,102.16 -1.12,20.25 -3.83,67.63 9.99,87.38 25.31,3.71 12.49,-1.86 61.46,10.88 1.36,-0.27 15.92,-0.76 17.15,-0.76 28.79,0 39.96,15.2 61.83,33.81 13.08,11.11 27.89,23.7 41.47,41.74 68.61,89.35 76.39,246.55 17.15,328.99 -61.33,90.34 -147.47,123.92 -243.36,96.02 -4.55,35.26 11.17,128.28 -35.91,306.78 -24.63,91.66 -38.73,176.8 -64.15,296.32 3.89,17.59 8.98,35.71 14.66,53.94 74.17,243.1 -47.17,131.13 25.17,393.4 6.95,38.18 17.06,33.59 15.06,109.59 -4.44,142.68 -131.31,176 -173.02,186.85 -103.6,27.1 -172,-17.71 -225.59,-109.59 -59.61,173.69 -319.14,166.56 -384.8,-28.13 -2.71,-7.89 -5.18,-15.81 -7.77,-23.69 -53.27,82.45 -151.38,125.81 -246.94,94.54 -100.58,-32.11 -121.31,-121.46 -134.89,-180.44 -11.8,-50.68 -12.34,-39.5 -19.75,-79.45 -8.12,10.46 -20.36,23.92 -32.33,29.6 -159.52,81.05 -314.94,-3.64 -337.65,-187.83 -1.36,-10.61 -2.47,-17.02 -1.97,-19.48 -2.84,-0.49 -7.16,-1.02 -13.21,-1.25 -223.05,-12.43 -370.88,-270.39 -265.7,-464.78 99.45,-183.7 81.93,-319.63 142.79,-473.84 -192.11,-221.53 -82.6,-498.25 132.78,-517.39 1.11,-13.61 -14.18,116.11 117.08,-741.91 -87.21,89.38 -174.12,178.58 -262.21,266.56 -15.3,15.31 -39.35,16.3 -60.45,11.6 l -33.58,102.2 c -515.6,1578.59 -299.84,1352.93 -471.92,2537.3 -22.37,152.46 -32.46,315.88 -74.79,477.1 -33.098,122.93 40.61,32.18 217.2,228.31 147.97,138.93 176.6,300.87 83.43,467.47 -28.26,53.3 -59.49,98.5 -92.68,134.5 -52.75,57.5 -11.09,25.8 -61.09,257.9 -11.72,54.3 -22.83,105.9 -26.04,158 -13.78,243.9 -29.34,255.9 -38.5,319.1 -11.36,61.7 -24.32,132.1 -53.93,195.5 -48.721,97.4 -133.644,125.5 -210.418,86.9 -191.039,-92.1 -88.979,-473.4 -93.793,-818.2 -90.824,21.5 -179.084,57 -265.575,-14.8 -485.8302,62.7 -541.4587,-513.55 -268.54,-870.56 22.089,-30.86 26.039,-43.94 19.991,-68.12 C 149.533,9186.34 128.037,8882.51 99.4155,8551.97 -30.0294,7117.45 -144.486,7275.18 518.098,5303.07" /></g><path
         id="path18"
         style="fill:#040606;fill-opacity:1;fill-rule:nonzero;stroke:none"
         d="m 9352.94,13127.5 c -223.33,-102.2 -436.57,-93.5 -642.82,49.3 -43.05,29.8 -102.67,59.3 -149.83,-6 -37.69,-564.8 744.13,-644.8 922.59,-208.5 54.41,133 7.77,184.4 -129.94,165.2" /><path
         id="path20"
         style="fill:#040606;fill-opacity:1;fill-rule:nonzero;stroke:none"
         d="m 12223.6,4915.7 c -1650.5,-67 -3271.18,-94.4 -4823.45,-95.7 h -0.32 c -91.81,0 -166.36,-74.2 -166.69,-166 -0.32,-92.5 74.23,-167.3 166.36,-167.3 80.42,0 160.83,0 241.57,0 1481.29,0 3026.43,31.9 4596.23,95.7 217.2,9.2 211.6,337.8 -13.7,333.3" /><path
         id="path22"
         style="fill:#040606;fill-opacity:1;fill-rule:nonzero;stroke:none"
         d="m 8943.63,13545.7 c 206.31,-85.2 327.25,226.8 125.02,308.6 l -121.76,50.1 c 37.92,210.3 172.07,448.6 236.68,690.2 56.06,213.4 -265.33,298.3 -322.3,86 -26.05,-99 -65.12,-194.1 -103.53,-289.1 -62.84,-155 -127.62,-315.2 -148.78,-494.9 -36.15,-283.1 244.77,-296.5 334.67,-350.9" /><path
         id="path24"
         style="fill:#040606;fill-opacity:1;fill-rule:nonzero;stroke:none"
         d="m 10035.6,15195 c 137.7,-30 261.4,-121.8 330.7,-244.9 44.5,-77.6 143.3,-109.3 227.3,-63.1 80.1,45.6 108.4,147.1 63.1,227.2 -115.5,204.5 -321,356.2 -551.1,407 -54.7,11 -110.74,17.6 -166.08,22.8 -6.96,-66.8 -41.46,-398.2 -34.51,-331.5 43.95,-4.5 88.55,-8.4 130.59,-17.5" /><path
         id="path26"
         style="fill:#040606;fill-opacity:1;fill-rule:nonzero;stroke:none"
         d="m 9921.29,15378.6 5.82,52.7 11.43,113.3 z" /><path
         id="path28"
         style="fill:#040606;fill-opacity:1;fill-rule:nonzero;stroke:none"
         d="m 10204.2,14835.1 c 1.2,127.4 -39.3,235.3 -146.1,238.6 -132.46,3.9 -186.01,-121.6 -189.76,-274 -6.32,-257.4 333.16,-269.6 335.86,35.4" /><path
         id="path30"
         style="fill:#040606;fill-opacity:1;fill-rule:nonzero;stroke:none"
         d="m 8733.61,14906.8 c 1.13,127.5 -39.32,235.4 -146.18,238.6 -132.42,4 -186.02,-121.5 -189.76,-274 -6.35,-258.4 333.21,-268.8 335.94,35.4" /><path
         id="path32"
         style="fill:#040606;fill-opacity:1;fill-rule:nonzero;stroke:none"
         d="m 7630.98,14069.8 c -88.23,22.8 -180.36,-28.6 -204.78,-117.2 -14.98,-54.7 -24.42,-112 -33.21,-168.6 l 329.14,-52.1 c 7.17,44.9 14,89.8 25.72,133.5 24.09,88.5 -28,180.3 -116.87,204.4" /><path
         id="path34"
         style="fill:#040606;fill-opacity:1;fill-rule:nonzero;stroke:none"
         d="m 11171.4,13282.6 c 248,102 572.9,408.3 349.4,556.1 -76.2,50.8 -179.4,30.6 -231.2,-46.3 -58.9,-89.2 -145.8,-160.8 -245.1,-201.1 -85,-35.2 -125.7,-132.9 -90.9,-217.5 35.5,-85.6 132.7,-125.7 217.8,-91.2" /><g
         transform="scale(1.62099)"
         id="g36"><path
           id="path38"
           style="fill:#040606;fill-opacity:1;fill-rule:nonzero;stroke:none"
           d="m 16125.6,13630.1 c -29.1,2.8 -66.5,36.1 -96.6,62.7 -25.8,22.2 -28.8,27.4 -41.8,56.2 l -29.2,62.3 c -24,51.4 -85.9,72.3 -136.7,49.4 -51.4,-24.6 -73.5,-85.6 -49.2,-137 40.8,-78.8 36.8,-110.6 120.7,-185.2 332.2,-293.4 407.2,71.7 232.8,91.6" /></g><g
         transform="scale(1.65156)"
         id="g40"><path
           id="path42"
           style="fill:#040606;fill-opacity:1;fill-rule:nonzero;stroke:none"
           d="m 16185.7,13443.2 c -30.8,-2 -76.9,-6.7 -94.8,4.8 -28.6,18 -62.7,118.3 -72,150.5 -37,129.2 -230.7,72.2 -194,-55.9 79.3,-274.3 189.3,-315.6 378.5,-300.4 55.6,4.7 96.6,54 91.6,109.2 -4.9,55.9 -56.9,101.7 -109.3,91.8" /></g><g
         transform="scale(1.70605)"
         id="g44"><path
           id="path46"
           style="fill:#040606;fill-opacity:1;fill-rule:nonzero;stroke:none"
           d="m 16067.5,13260.8 c -17.9,-21.7 -51.1,-41.6 -75.8,-33.2 -72,2.9 -87.6,67 -121.7,162.6 -45.1,121.4 -227.8,53.3 -183.2,-68 21.5,-57.9 41.2,-118.8 70.6,-162.6 49.5,-74 135.3,-122.8 224,-127.4 211.3,0 318.6,161.6 223.7,241.2 -41.2,34 -102.7,29 -137.6,-12.6" /></g><g
         transform="scale(2.47021)"
         id="g48"><path
           id="path50"
           style="fill:#040606;fill-opacity:1;fill-rule:nonzero;stroke:none"
           d="m 16235.8,9922.89 c -22.5,-5.06 -18.4,-23.32 -13.5,-39.47 24.3,-80.52 17.8,-168.82 65.9,-242.61 1.1,49.71 11.8,296.45 -52.4,282.08" /></g><g
         transform="scale(2.48436)"
         id="g52"><path
           id="path54"
           style="fill:#040606;fill-opacity:1;fill-rule:nonzero;stroke:none"
           d="m 16282.8,9087.77 c 8.5,6.03 17.2,23.66 14.3,32.2 -20.7,60.29 -7.6,129.53 -58.7,182.82 -18.1,-69.27 0.1,-135.29 14.6,-201.18 3,-13.44 17.7,-22.42 29.8,-13.84" /></g><g
         transform="scale(2.50993)"
         id="g56"><path
           id="path58"
           style="fill:#040606;fill-opacity:1;fill-rule:nonzero;stroke:none"
           d="m 16282.5,9017.79 c 17.5,86.66 3.8,149.65 -49.7,218.54 -5.7,-81.64 -11.8,-147.46 49.7,-218.54" /></g><g
         transform="scale(2.49271)"
         id="g60"><path
           id="path62"
           style="fill:#040606;fill-opacity:1;fill-rule:nonzero;stroke:none"
           d="m 16299.9,9694.12 c -0.2,45.18 -1,91.75 -49.9,116.59 -2.5,1.24 -6.4,-0.21 -26.7,-1.45 11.3,-48.9 0.2,-99.41 48.1,-130.38 11.7,-7.62 28.6,1.6 28.5,15.24" /></g><g
         transform="scale(2.50171)"
         id="g64"><path
           id="path66"
           style="fill:#040606;fill-opacity:1;fill-rule:nonzero;stroke:none"
           d="m 16276.3,9355.23 c 23.7,75.43 -10.9,130.51 -27,187.64 -40.6,-67.68 -13.7,-122.68 27,-187.64" /></g><g
         transform="scale(2.14485)"
         id="g68"><path
           id="path70"
           style="fill:#040606;fill-opacity:1;fill-rule:nonzero;stroke:none"
           d="m 16174.6,8310.85 c 17.7,0 35.3,1.21 52.7,3.31 42.5,5.5 72.7,44.34 67.4,86.86 -5.5,42.47 -46,71.01 -86.8,67.37 -29.6,-3.96 -60.1,-2.42 -93,5.18 28.9,102.47 91.1,181.55 101.6,287.47 10.4,101.18 -144.5,120.34 -154.5,15.76 -11.2,-108.44 -290.8,-465.95 112.6,-465.95" /></g><g
         transform="scale(2.16145)"
         id="g72"><path
           id="path74"
           style="fill:#040606;fill-opacity:1;fill-rule:nonzero;stroke:none"
           d="m 16183.7,8161.75 c -196.5,-80.22 -309.2,-64.63 -340.2,-70.46 -95.3,0 -112.1,-147.96 5.1,-154.25 138.9,0 267.6,31.79 392.6,81.33 39.5,15.97 58.8,60.84 42.8,100.31 -15.8,39.46 -60.4,57.83 -100.3,43.07" /></g><g
         transform="scale(2.20375)"
         id="g76"><path
           id="path78"
           style="fill:#040606;fill-opacity:1;fill-rule:nonzero;stroke:none"
           d="m 15973.2,8698.81 c 29.3,39.85 141.6,56.86 194.6,14.21 32.5,-25.73 80.3,-20.38 106.2,12.39 26,32.8 20.6,80.36 -12.3,106.36 -123.4,97.79 -332.6,61.8 -410.2,-43.11 -59.4,-80.54 62,-170.25 121.7,-89.85" /></g><g
         transform="scale(2.12029)"
         id="g80"><path
           id="path82"
           style="fill:#040606;fill-opacity:1;fill-rule:nonzero;stroke:none"
           d="m 15987,8944.82 c 41.6,56.17 111.5,105.65 175.2,84.75 40.9,-11.03 85.4,10.76 98.1,52.21 39.7,129.04 -235.3,179.27 -399.5,-43.62 -38.4,-51.36 -1.5,-125.27 63.1,-125.27 24,0 47.8,11.04 63.1,31.93" /></g><g
         transform="scale(2.18463)"
         id="g84"><path
           id="path86"
           style="fill:#040606;fill-opacity:1;fill-rule:nonzero;stroke:none"
           d="m 16111.2,8664.64 c -12,-53.28 15,-92.92 63.3,-116.36 73.6,-35.75 97,21.93 125.5,69.21 -9.3,42.94 -33.1,77.23 -64.5,106.89 -53.4,4.71 -109.2,8.19 -124.3,-59.74" /></g><g
         transform="scale(2.10343)"
         id="g88"><path
           id="path90"
           style="fill:#040606;fill-opacity:1;fill-rule:nonzero;stroke:none"
           d="m 16202.1,9028.59 c -41.1,7.94 -33,-31.57 -39.3,-59.95 3.9,-41.36 -3.7,-98.22 50.3,-113.39 76.9,-21.58 86.9,154.23 -11,173.34" /></g><g
         transform="scale(2.32404)"
         id="g92"><path
           id="path94"
           style="fill:#040606;fill-opacity:1;fill-rule:nonzero;stroke:none"
           d="m 16189.4,8031.91 c -4.8,-17.13 -16.2,-33.26 -14.3,-50.9 2.1,-19.32 21,-34.13 40.4,-35.25 46.9,-2.88 77.1,49.4 82.1,96.35 2.4,22.59 -1,88.16 -10.3,106.54 -32.3,44.44 -176.1,44.06 -122.7,-36.79 18.6,-28.15 34.7,-44.28 24.8,-79.95" /></g><g
         transform="scale(1.78328)"
         id="g96"><path
           id="path98"
           style="fill:#040606;fill-opacity:1;fill-rule:nonzero;stroke:none"
           d="m 15827.8,6640 c 328.6,-113.94 472.2,201.66 293.3,329.73 16.7,16.1 34.1,31.8 52.2,46.71 39.6,32.92 45.2,91.69 12.2,131.5 -33,39.76 -92,45.98 -131.6,12.4 -63.9,-52.94 -122,-113.56 -172.2,-180.4 -44.1,-58.27 -6.8,-142.21 65.9,-149.33 50.2,-4.71 63,-11.67 60.8,-14.58 -6.9,-8.02 -22.4,-13.91 -39.6,-14.64 -18.8,-3.98 -45.6,3.31 -80.7,15.37 -48.2,17.89 -101.9,-9.48 -118.6,-58.04 -16.7,-48.96 9.4,-102.29 58.3,-118.72" /></g><g
         transform="scale(1.82964)"
         id="g100"><path
           id="path102"
           style="fill:#040606;fill-opacity:1;fill-rule:nonzero;stroke:none"
           d="m 15980.7,7060.01 c 131.3,-2.25 158.8,-14.22 195.2,-14.22 112.8,0 124.1,167.03 11.4,181.52 -67.6,8.52 -135.8,13.88 -203.8,14.92 -0.3,0 -0.8,0 -1.4,0 -49.6,0 -90.2,-39.85 -91.1,-89.69 -0.9,-50.18 39.4,-91.82 89.7,-92.53" /></g><g
         transform="scale(1.80858)"
         id="g104"><path
           id="path106"
           style="fill:#040606;fill-opacity:1;fill-rule:nonzero;stroke:none"
           d="m 16275.7,6317.82 c 24.3,44.62 7.8,100.79 -37.1,124.9 -44.6,23.78 -100.6,7.91 -124.9,-37.04 -98.5,-181.97 -274.3,-233.5 -393.3,-176.77 -66.4,29.97 -79.2,86.03 -96.7,183.96 -9,50.03 -58.5,84.21 -106.9,74.53 -50,-9.01 -83.5,-56.9 -74.5,-106.94 13.7,-76.35 32.4,-180.75 109.2,-257.43 173.3,-168.2 544.6,-136.91 724.2,194.79" /></g><g
         transform="scale(1.9135)"
         id="g108"><path
           id="path110"
           style="fill:#040606;fill-opacity:1;fill-rule:nonzero;stroke:none"
           d="m 16252.3,6139.02 c -7.7,9.83 -19.9,14.79 -31.5,19.34 -35.5,13.9 -112.5,46.3 -137.8,-0.16 -0.8,-1.41 -1.5,-2.87 -2.1,-4.34 -10.2,-23.67 -9.4,-75.51 15.2,-119.52 62.1,-110.58 203.9,44.32 156.2,104.68" /></g><g
         transform="scale(1.82528)"
         id="g112"><path
           id="path114"
           style="fill:#040606;fill-opacity:1;fill-rule:nonzero;stroke:none"
           d="m 16106.5,6858.96 c -9.8,-24.38 -10.7,-51.55 -8.5,-77.74 1.6,-21.09 5.4,-31.34 29.3,-43.12 80.5,-39.77 126.2,-16.82 142.2,58.9 30.5,144.91 -127.1,150.93 -163,61.96" /></g><g
         transform="scale(1.23037)"
         id="g116"><path
           id="path118"
           style="fill:#040606;fill-opacity:1;fill-rule:nonzero;stroke:none"
           d="m 5088.98,15852.2 c 81.23,88.3 196.33,146.5 315.4,159.3 178.17,20.2 149.36,288.5 -29.1,269.8 -183.64,-20.1 -360.65,-109.6 -485.81,-246 -50.54,-55.1 -47.1,-140.8 8.2,-191.7 54.26,-49.8 140.15,-47.2 191.31,8.6" /></g><g
         transform="scale(1.24171)"
         id="g120"><path
           id="path122"
           style="fill:#040606;fill-opacity:1;fill-rule:nonzero;stroke:none"
           d="m 6421.38,15999.5 c 90.98,23.1 184.32,30 276.88,21 71.31,-7.3 139.74,46.2 147.08,120.1 7.61,74 -46.14,139.5 -119.82,147.4 -124.02,12 -249.34,3.1 -371.26,-28.3 -71.84,-18.4 -114.83,-91.9 -96.48,-163.7 17.36,-66.5 84.67,-114.8 163.6,-96.5" /></g><g
         transform="scale(1.21075)"
         id="g124"><path
           id="path126"
           style="fill:#040606;fill-opacity:1;fill-rule:nonzero;stroke:none"
           d="m 6229.29,15652 c 57.54,20.5 109.17,37.1 156.49,37.1 38.18,12.9 62.38,-11.9 71.52,-24.2 6.46,-9.1 14.79,-29.6 19.64,-99.5 -0.81,-0.6 -6.73,-8.1 -30.12,-21 -43.02,-22.6 -83.09,-34.4 -110.78,-28.5 -73.15,10.3 -146.01,-38.7 -158.11,-113.4 -25.07,-152.6 168.11,-227.3 400.92,-99.6 133.69,73.6 178.17,168 170.74,301.7 -14.06,260.2 -195.16,393.6 -453.35,351.7 l -32.54,217.3 c -11.29,75.4 -81.74,126.4 -156.49,115.7 -75.02,-11.4 -126.92,-81.2 -115.63,-156.6 l 55.66,-371.5 c 11.72,-81 96.23,-139.8 182.05,-109.2" /></g><g
         transform="scale(1.12858)"
         id="g128"><path
           id="path130"
           style="fill:#040606;fill-opacity:1;fill-rule:nonzero;stroke:none"
           d="m 7429.64,16028.2 c 59.72,55.4 62.89,148.9 7.51,208.9 -55.68,59.4 -149.14,62.9 -208.85,6.9 -348.17,-324.1 -768.65,-313.8 -984.83,-88.9 -55.97,59.5 -149.43,59.5 -208.85,4.6 -250.29,-240.4 646.59,-829.4 1395.02,-131.5" /></g><g
         transform="scale(1.15359)"
         id="g132"><path
           id="path134"
           style="fill:#040606;fill-opacity:1;fill-rule:nonzero;stroke:none"
           d="m 4548.61,16145.4 c -128.12,73.3 -243.26,119 -351.91,139.9 -78.47,14.7 -154.38,-37.2 -168.77,-115.2 -14.96,-78.4 36.68,-154.1 115.14,-169.3 76.48,-14.1 162.28,-49.1 262.18,-106.1 165.88,-95.4 309.35,156.2 143.36,250.7" /></g><g
         transform="scale(1.16617)"
         id="g136"><path
           id="path138"
           style="fill:#040606;fill-opacity:1;fill-rule:nonzero;stroke:none"
           d="m 7743.77,15891.2 c 34.61,50.3 81.51,91.1 135.67,117.3 70.9,35.2 99.94,120.6 65.04,191.5 -34.89,71.5 -121.43,100 -191.23,65.4 -173,-86.1 -376.18,-293.7 -208.25,-410.4 67.44,-45.5 154.84,-26.7 198.77,36.2" /></g><path
         id="path140"
         style="fill:#040606;fill-opacity:1;fill-rule:nonzero;stroke:none"
         d="m 3900.06,8810.1 c -18.23,-89.9 39.72,-177.8 129.9,-196.6 100.85,-17.3 179.78,47 196.97,130.2 118.84,582.5 816,1641.8 379.6,1704 -86.27,4.5 -175.48,-51.5 -187.85,-142.6 -35.81,-257.2 -142.59,-500.1 -255.56,-757.3 -102.88,-233.7 -209.34,-476 -263.06,-737.7" /><path
         id="path142"
         style="fill:#040606;fill-opacity:1;fill-rule:nonzero;stroke:none"
         d="m 5076.96,8966.4 c 99.62,248.7 192.41,500.7 278.03,754.6 29.3,87.3 -17.58,181.7 -104.83,211.6 -87.25,28.7 -181.34,-17.6 -210.96,-104.8 -83.67,-248.7 -174.5,-494.2 -271.52,-737.7 -82.02,-204.7 227.38,-328.5 309.28,-123.7" /><g
         transform="scale(2.27827)"
         id="g144"><path
           id="path146"
           style="fill:#040606;fill-opacity:1;fill-rule:nonzero;stroke:none"
           d="m 3917.99,16009.5 c 20.31,17 39.42,37.7 27.42,64.2 -27.81,61.6 -57.05,122.9 -91.63,180.8 -16.51,27.6 -46.82,45.5 -83.62,26 -31.06,-16.5 -51.94,-38.6 -47.33,-78.3 14.04,-75 40.96,-144.4 105.72,-191.3 26.73,-19.3 59,-27 89.44,-1.4" /></g><g
         transform="scale(2.22934)"
         id="g148"><path
           id="path150"
           style="fill:#040606;fill-opacity:1;fill-rule:nonzero;stroke:none"
           d="m 4127.83,16018.1 c 142,-2.9 42.16,281.9 -60.48,271.1 -46.23,-4.9 -83.68,-29.5 -85.66,-83.5 -2.49,-67.2 91.21,-186.5 146.14,-187.6" /></g><g
         transform="scale(2.23107)"
         id="g152"><path
           id="path154"
           style="fill:#040606;fill-opacity:1;fill-rule:nonzero;stroke:none"
           d="m 4661.89,16098.6 c 60.11,-4.7 59.7,49.3 62.17,94 -6.37,50.7 -11.52,107.4 -80.59,105.4 -48.36,-1.5 -67.55,-43.7 -61.54,-85.8 6.99,-48.9 18.6,-108.9 79.96,-113.6" /></g><g
         transform="scale(2.30771)"
         id="g156"><path
           id="path158"
           style="fill:#040606;fill-opacity:1;fill-rule:nonzero;stroke:none"
           d="m 3607.91,16300 c -43.77,-9.2 -80.36,-29.6 -73.54,-75.5 7.44,-49.9 36.36,-94.8 92.71,-100.3 91.08,-8.9 99.79,146.1 -19.17,175.8" /></g><g
         transform="scale(2.34403)"
         id="g160"><path
           id="path162"
           style="fill:#040606;fill-opacity:1;fill-rule:nonzero;stroke:none"
           d="m 3458.43,16115.2 c 38.02,-4.1 56.04,18.7 55.92,67.8 -6.91,79.2 -144,117 -139.38,20.7 2.42,-50.6 32.4,-83.1 83.46,-88.5" /></g><g
         transform="scale(2.2907)"
         id="g164"><path
           id="path166"
           style="fill:#040606;fill-opacity:1;fill-rule:nonzero;stroke:none"
           d="m 4528.14,16296.1 c -47.84,3.9 -69.19,-26.4 -70.2,-71.4 -0.78,-35.7 15.59,-62.7 52.35,-66.8 51.77,-5.7 61.03,35.6 71.98,71.9 0.53,38.4 -18.46,63.4 -54.13,66.3" /></g><g
         transform="scale(2.26009)"
         id="g168"><path
           id="path170"
           style="fill:#040606;fill-opacity:1;fill-rule:nonzero;stroke:none"
           d="m 4536.86,16231.5 c -1.06,-38.4 19.2,-59 53.85,-68.7 42.74,4.3 65.43,30.2 66.94,70.2 1.24,33.8 -9.6,67 -52.74,65.1 -39.96,-1.8 -66.81,-21.9 -68.05,-66.6" /></g><g
         transform="scale(2.32199)"
         id="g172"><path
           id="path174"
           style="fill:#040606;fill-opacity:1;fill-rule:nonzero;stroke:none"
           d="m 9808.89,16207.5 c -0.04,62.4 -38.24,84.9 -93.28,92.5 -62.45,-7.9 -92.38,-46.9 -93.41,-106.3 -1.04,-60.9 47.76,-76.5 93.54,-76.4 53.57,0 93.2,27.3 93.15,90.2" /></g><g
         transform="scale(2.29479)"
         id="g176"><path
           id="path178"
           style="fill:#040606;fill-opacity:1;fill-rule:nonzero;stroke:none"
           d="m 8417.06,16212 c -0.44,52.8 -22.97,87 -73.86,87.4 -57.7,0.6 -91.47,-38.5 -98.66,-91.1 -13.07,-95.5 136.66,-150.4 172.52,3.7" /></g><g
         transform="scale(2.28761)"
         id="g180"><path
           id="path182"
           style="fill:#040606;fill-opacity:1;fill-rule:nonzero;stroke:none"
           d="m 9637.82,16204.8 c -0.39,-49.5 31.83,-76.1 104.57,-73.9 45.94,4.3 80.47,42.7 82.88,108.2 2.1,56.2 -45.64,60.9 -81.44,59.8 -56.7,-1.9 -105.57,-28.8 -106.01,-94.1" /></g><g
         transform="scale(2.41545)"
         id="g184"><path
           id="path186"
           style="fill:#040606;fill-opacity:1;fill-rule:nonzero;stroke:none"
           d="m 8551.02,16210.1 c 0.58,49.9 -25.46,80.9 -74.02,89.9 -50.8,-5 -73.15,-33.6 -71.46,-80.8 1.62,-44.2 20.16,-81.2 68.31,-82.9 45.46,-1.6 76.59,25.1 77.17,73.8" /></g><g
         transform="scale(2.27383)"
         id="g188"><path
           id="path190"
           style="fill:#040606;fill-opacity:1;fill-rule:nonzero;stroke:none"
           d="m 8643.34,16207.5 c -3.43,44.9 -18.03,84.8 -79.2,92.5 -35.58,-20.8 -83.47,-37.9 -78.28,-96.3 9.58,-107.4 165.05,-95.9 157.48,3.8" /></g><g
         transform="scale(2.38351)"
         id="g192"><path
           id="path194"
           style="fill:#040606;fill-opacity:1;fill-rule:nonzero;stroke:none"
           d="m 8632.95,16152 c 45.31,-7.6 59.62,22.4 65.91,62.1 -13.88,33.3 -5.12,85.9 -69.73,78.4 -39.01,-4.5 -78.33,-6.8 -81.56,-58 -3.73,-59.3 39.31,-74.6 85.38,-82.5" /></g><g
         transform="scale(2.35301)"
         id="g196"><path
           id="path198"
           style="fill:#040606;fill-opacity:1;fill-rule:nonzero;stroke:none"
           d="m 8728.91,16296 c -50.45,4 -67.32,-26.3 -65.96,-70.8 1.75,-56.8 35.11,-77.7 88.57,-76 40.76,1.3 66.09,16.9 64.51,68.6 -7.05,43.7 -35.06,74.1 -87.12,78.2" /></g><g
         transform="scale(2.31967)"
         id="g200"><path
           id="path202"
           style="fill:#040606;fill-opacity:1;fill-rule:nonzero;stroke:none"
           d="m 8866.31,16295.3 c -60.61,4.7 -50.48,-44.6 -53.11,-74.6 -0.95,-58.8 11.55,-99.2 74.71,-98.3 50.57,0.7 56.04,34.9 52.29,72.9 -4.66,47.2 -15.43,95.5 -73.89,100" /></g><g
         transform="scale(2.31758)"
         id="g204"><path
           id="path206"
           style="fill:#040606;fill-opacity:1;fill-rule:nonzero;stroke:none"
           d="m 8053.31,16197 c -2.07,-35.9 13.07,-63.2 53.03,-62.3 45.78,1 68.82,34 76.33,73.5 13.98,73.5 -123.45,91.8 -129.36,-11.2" /></g><g
         transform="scale(2.34598)"
         id="g208"><path
           id="path210"
           style="fill:#040606;fill-opacity:1;fill-rule:nonzero;stroke:none"
           d="m 9701.01,16300 c -64.75,-17.3 -54.43,-119.2 13.09,-127 56.35,-6.6 78.51,93.3 -13.09,127" /></g><g
         transform="scale(2.18651)"
         id="g212"><path
           id="path214"
           style="fill:#040606;fill-opacity:1;fill-rule:nonzero;stroke:none"
           d="m 3080.62,16264.9 c -40.98,-32.5 -54.53,-25.8 -71.9,16.8 -4.33,10.6 -23.35,15.2 -28.43,18.3 -26.17,-0.4 -37.3,-9.8 -42.27,-24.9 -7.87,-23.9 -2.03,-53.6 19.39,-57.6 53.94,-10 75.03,-52 107.28,-86.1 29.76,-31.6 72.22,-41 111.02,-8.4 39.57,33.1 31.66,73.1 9.4,111.5 -24.61,42.3 -68.97,58.5 -104.49,30.4" /></g><g
         transform="scale(2.1751)"
         id="g216"><path
           id="path218"
           style="fill:#040606;fill-opacity:1;fill-rule:nonzero;stroke:none"
           d="m 3498.08,16165.6 c -40.06,134.4 -199.27,129.1 -187.21,18.3 6.98,-64.1 47.34,-95.9 110.54,-102.7 56.02,-6 69.65,28.6 76.67,84.4" /></g><g
         transform="scale(2.15534)"
         id="g220"><path
           id="path222"
           style="fill:#040606;fill-opacity:1;fill-rule:nonzero;stroke:none"
           d="m 3837.61,16186.2 c -30.37,67.7 -89.44,101 -157.17,109.5 -34.95,4.3 -62.59,-35.5 -50.92,-71.1 21.54,-65.8 71.81,-103.4 143.7,-102.3 38.6,0.6 61.05,22.6 64.39,63.9" /></g><g
         transform="scale(2.04542)"
         id="g224"><path
           id="path226"
           style="fill:#040606;fill-opacity:1;fill-rule:nonzero;stroke:none"
           d="m 3927.05,16205.2 c -17.17,36.3 -39.93,78 -90.96,87.1 -43.63,7.7 -65.66,-23.3 -67.8,-63 -2.85,-52.1 16.13,-94.6 74.47,-101.9 48.33,-6.1 69.97,26.1 84.29,77.8" /></g><g
         transform="scale(2.0235)"
         id="g228"><path
           id="path230"
           style="fill:#040606;fill-opacity:1;fill-rule:nonzero;stroke:none"
           d="m 3762.55,16151.9 c 40.38,9.1 70.87,33.2 64.62,74.3 -7.94,52.2 -54.46,67.3 -100.44,69.8 -73.98,4 -93.64,-117.3 35.82,-144.1" /></g><g
         transform="scale(2.06033)"
         id="g232"><path
           id="path234"
           style="fill:#040606;fill-opacity:1;fill-rule:nonzero;stroke:none"
           d="m 3972.37,16163.2 c 98.64,2.5 99.21,122 9.96,131.7 -47.72,5.1 -60.21,-30.1 -62.68,-68.5 -2.31,-36 12.11,-64.3 52.72,-63.2" /></g><g
         transform="scale(2.29146)"
         id="g236"><path
           id="path238"
           style="fill:#040606;fill-opacity:1;fill-rule:nonzero;stroke:none"
           d="m 14570.2,16223.3 c 0,48.2 -19,76.7 -68.6,74.8 -48.9,-1.9 -111.6,1.1 -115.6,-61.9 -3.5,-57.5 35.4,-119 94.1,-123.7 61.9,-4.9 74.3,62.7 90.1,110.8" /></g><g
         transform="scale(2.23382)"
         id="g240"><path
           id="path242"
           style="fill:#040606;fill-opacity:1;fill-rule:nonzero;stroke:none"
           d="m 14102.1,16070.8 c 33.8,-5.7 54.1,30.7 51.3,61.6 -20.2,70.2 -13.1,154.9 -105.2,163.4 -46,4.2 -60.2,-37.2 -51.4,-77.1 13.9,-63.6 27.6,-135 105.3,-147.9" /></g><g
         transform="scale(2.31976)"
         id="g244"><path
           id="path246"
           style="fill:#040606;fill-opacity:1;fill-rule:nonzero;stroke:none"
           d="m 14461.3,16224.1 c -0.2,47.2 -14.7,75.9 -37.2,75 -59.7,-2.6 -113.7,-13.4 -114.7,-89.7 -0.6,-50 29.6,-84.4 75.8,-79.2 45.9,5.1 83.3,36.3 76.1,93.9" /></g><g
         transform="scale(2.26868)"
         id="g248"><path
           id="path250"
           style="fill:#040606;fill-opacity:1;fill-rule:nonzero;stroke:none"
           d="m 13853.1,16207.8 c 7.6,60.9 -39.7,79.9 -92.6,86.2 -51.1,6 -75.2,-36.2 -71.4,-74.3 12,-119.5 180.1,-135.3 164,-11.9" /></g><g
         transform="scale(2.11593)"
         id="g252"><path
           id="path254"
           style="fill:#040606;fill-opacity:1;fill-rule:nonzero;stroke:none"
           d="m 16116.7,15842.6 c 1.3,-54.7 44.8,-78.8 94.9,-80.3 46.5,-1.4 80.7,20.6 88.4,71.3 -17.9,122.9 -186.2,133.1 -183.3,9" /></g><g
         transform="scale(2.25908)"
         id="g256"><path
           id="path258"
           style="fill:#040606;fill-opacity:1;fill-rule:nonzero;stroke:none"
           d="m 14649.4,16236.9 c 8,50 -25.8,63.1 -64.5,62.8 -51.2,-0.4 -90.4,-18.6 -91.7,-80.2 -1,-50.4 21.8,-80.2 68.5,-92.9 59.2,14.4 79.3,58.3 87.7,110.3" /></g><g
         transform="scale(2.20461)"
         id="g260"><path
           id="path262"
           style="fill:#040606;fill-opacity:1;fill-rule:nonzero;stroke:none"
           d="m 15640.5,16252.3 c -36.5,47.7 -86.9,34.4 -128.9,14.7 -51.2,-24 -44.6,-65.3 -13,-105 -11,-38.2 -33.7,-10.5 -49.4,-6.9 -50.1,11.7 -90,-3.4 -108,-50 -16.7,-43.2 24,-66.7 51.4,-86.4 43.4,-31.4 91.4,0.2 99.4,32.8 18.3,75.1 86.1,57.5 127.6,86.5 60.5,28.3 54.3,70.5 20.9,114.3" /></g><g
         transform="scale(2.22197)"
         id="g264"><path
           id="path266"
           style="fill:#040606;fill-opacity:1;fill-rule:nonzero;stroke:none"
           d="m 15638.7,16296.8 c -46.3,-1.4 -88.4,-26.3 -92,-77.7 -3.4,-48.1 30.7,-70.1 77,-73.5 113.2,-8.2 119.3,154.4 15,151.2" /></g><g
         transform="scale(2.15167)"
         id="g268"><path
           id="path270"
           style="fill:#040606;fill-opacity:1;fill-rule:nonzero;stroke:none"
           d="m 16188.4,15508.2 c 111.6,4 80.6,163.7 -33.6,158 -102.8,-5.1 -94.8,-162.6 33.6,-158" /></g><g
         transform="scale(2.23139)"
         id="g272"><path
           id="path274"
           style="fill:#040606;fill-opacity:1;fill-rule:nonzero;stroke:none"
           d="m 14600.3,16223.8 c 8.2,-38.8 12.8,-96.1 69.6,-92.6 44.9,2.8 61.2,45.4 63.7,88.7 -1.6,49.7 -34.6,71.2 -77.2,75.3 -50.2,4.8 -64,-34.3 -56.1,-71.4" /></g><g
         transform="scale(2.1712)"
         id="g276"><path
           id="path278"
           style="fill:#040606;fill-opacity:1;fill-rule:nonzero;stroke:none"
           d="m 15504.5,16140.2 c 45.5,8.7 94.3,22.9 93.4,76.4 -1.2,83.4 -162.2,80.1 -172.4,-0.9 -6.5,-50.4 35.7,-67 79,-75.5" /></g><g
         transform="scale(2.08538)"
         id="g280"><path
           id="path282"
           style="fill:#040606;fill-opacity:1;fill-rule:nonzero;stroke:none"
           d="m 16227.7,15990.1 c 36.8,0.2 72.3,16.9 68.6,61.9 -8.4,99.4 -164.7,92.7 -163.5,18.6 0.9,-57.3 43.3,-80.8 94.9,-80.5" /></g><g
         transform="scale(2.1757)"
         id="g284"><path
           id="path286"
           style="fill:#040606;fill-opacity:1;fill-rule:nonzero;stroke:none"
           d="m 16143,15424.9 c -0.4,-51.7 36.6,-69.9 82.3,-71.6 36,-1.4 67,8.1 74.7,55.8 -8.1,45 -40.7,62 -86.4,65.7 -38.8,3.1 -70.3,-6.1 -70.6,-49.9" /></g><g
         transform="scale(2.29755)"
         id="g288"><path
           id="path290"
           style="fill:#040606;fill-opacity:1;fill-rule:nonzero;stroke:none"
           d="m 13617.5,16235 c -2.5,33.6 -18.6,65 -57,64.9 -50.8,0 -58.6,-46.1 -67.1,-81.8 -6.2,-26.1 11.6,-46.7 46.3,-46.3 27.2,17.1 82.2,4.6 77.8,63.2" /></g><g
         transform="scale(2.34687)"
         id="g292"><path
           id="path294"
           style="fill:#040606;fill-opacity:1;fill-rule:nonzero;stroke:none"
           d="m 14319.8,16299.6 c -77.6,0.4 -74,-116.7 -10.6,-109.8 31.3,3.4 91.3,103.9 10.6,109.8" /></g><g
         transform="scale(1.20807)"
         id="g296"><path
           id="path298"
           style="fill:#040606;fill-opacity:1;fill-rule:nonzero;stroke:none"
           d="m 6848.81,16300 c -115.88,-16.6 -160.04,-55.3 -160.04,-138 5.53,-121.4 88.34,-149 165.57,-149 h 5.52 c 108.34,0 154.39,56.5 143.51,143.5 0,99.3 -49.69,143.5 -154.56,143.5" /></g><g
         transform="scale(1.19662)"
         id="g300"><path
           id="path302"
           style="fill:#040606;fill-opacity:1;fill-rule:nonzero;stroke:none"
           d="m 5584.51,16300 h -5.57 c -128.14,0 -156,-100.3 -161.58,-189.5 0,-88 68.25,-117 156,-117 89.17,16.8 128.18,66.9 128.18,150.5 5.57,66.7 -16.73,156 -117.03,156" /></g><g
         transform="scale(1.34708)"
         id="g304"><path
           id="path306"
           style="fill:#040606;fill-opacity:1;fill-rule:nonzero;stroke:none"
           d="m 15980.9,11344.7 c 319.1,163.7 289.6,536.3 -33.7,610.9 -1.2,149.4 -9.6,299.3 -25.4,446.2 -7.2,68.7 -73.1,115.5 -136,110.2 -67.9,-7.2 -117.2,-68.6 -110,-136.3 53.6,-503.9 -13.4,-552.3 62.4,-623 25.2,-23.8 56.8,-38.2 94.5,-33.4 60.4,5.8 119.1,-22.2 124.9,-48.4 17.5,-73.4 -219.8,-219.2 -444.4,-109.2 -60.7,29 -135.6,3.9 -165,-58 -29.8,-61.4 -3.9,-135.3 57.7,-165.3 180.7,-86.6 401.9,-81.6 575,6.3" /></g><g
         transform="scale(1.39437)"
         id="g308"><path
           id="path310"
           style="fill:#040606;fill-opacity:1;fill-rule:nonzero;stroke:none"
           d="m 15865.7,12109.1 c 99.2,5.6 199.1,15 297.7,8.1 66.3,-4.7 133,-4 134.7,68.3 1.9,87.2 -72.2,110 -187.1,102.6 -68.2,-12.4 -172.5,-27.6 -274.7,-51.9 -41.8,-9.9 -71,-50.1 -65.8,-94.5 7.8,-66.6 57,-34.8 95.2,-32.6" /></g><g
         transform="scale(1.25638)"
         id="g312"><path
           id="path314"
           style="fill:#040606;fill-opacity:1;fill-rule:nonzero;stroke:none"
           d="m 15813,13262.1 c 192.9,84.3 320.1,20.4 386.3,29.3 70.5,9.4 100.7,75.2 30.4,138.8 -234.9,212.5 -577.4,-114.1 -479.8,-175.2 18.7,-11.6 42.9,-1.7 63.1,7.1" /></g><g
         transform="scale(1.24761)"
         id="g316"><path
           id="path318"
           style="fill:#040606;fill-opacity:1;fill-rule:nonzero;stroke:none"
           d="m 15998.7,12911.5 c 46.3,-139.8 226.8,-73.1 271,-6.9 30.3,56.1 14.8,120.7 -26,156.9 -108.2,96.2 -297.9,9.7 -245,-150" /></g><g
         transform="scale(1.38317)"
         id="g320"><path
           id="path322"
           style="fill:#040606;fill-opacity:1;fill-rule:nonzero;stroke:none"
           d="m 16007.7,11766.6 c -10.3,-107.8 99.8,-140.3 175.8,-108.1 86.7,36.8 116.5,145.3 63.3,199.5 -25.2,21.4 -227.1,32.6 -239.1,-91.4" /></g><g
         transform="scale(1.3505)"
         id="g324"><path
           id="path326"
           style="fill:#040606;fill-opacity:1;fill-rule:nonzero;stroke:none"
           d="m 16102.1,10467.7 c 68.1,85.6 197.9,391.3 119.2,461.6 -19.2,17.1 -47.4,18.1 -73,18 -277.9,-1.2 -554,-20.7 -796.1,-51.8 -132,-17.2 -162.5,-103.8 -115.5,-229.6 147.6,-393.9 633.2,-490.3 865.4,-198.2" /></g><g
         transform="scale(1.76815)"
         id="g328"><path
           id="path330"
           style="fill:#040606;fill-opacity:1;fill-rule:nonzero;stroke:none"
           d="m 7422.15,14362.3 c 124.48,-16.6 295.68,16.5 404.72,82.5 271.47,167.6 470.71,729.3 245.79,911.1 -133.3,112.3 -288.15,101 -457.54,60.3 -109.04,-24.7 -136.98,-32.8 -168.14,-63 -65.32,-49.7 -77.88,-131.8 -27.94,-203.2 81.38,-118 250.88,-45.5 357.89,-32.8 l 43.66,5.5 -6.28,-55.2 c -21.72,-148 -118.37,-321.1 -202.36,-359.4 -46.77,-19.2 -152.41,-27.2 -208.58,-8.1 -52.88,16.2 -115.09,85 -143.08,156.5 -21.89,57.4 -21.89,79.5 -21.89,227.5 0,194.9 12.5,260.8 87.27,444.9 62.21,153.6 124.48,255.2 220.96,342.9 83.93,76.9 121.31,99 199.19,104.1 154.85,13.2 134.78,-79.5 252.07,-87.6 127.59,-11.1 205.47,104.2 146.37,211.4 -46.77,82.1 -192.97,162 -329.95,178.2 -196.08,22.1 -370.44,-43.8 -547.91,-208.4 -133.87,-128.9 -205.3,-244.2 -298.85,-485.7 -74.6,-203.3 -87.1,-280.3 -87.1,-510.8 0,-181.2 3.12,-197.4 31.11,-274.3 75.05,-239.3 245.45,-402.8 510.59,-436.4" /></g><g
         transform="scale(1.76636)"
         id="g332"><path
           id="path334"
           style="fill:#040606;fill-opacity:1;fill-rule:nonzero;stroke:none"
           d="m 9211.45,15536.2 c -34.31,-392.9 -127.72,-659.4 -283.69,-791 -46.59,-38.8 -59.16,-44.3 -96.58,-44.3 -90.3,0 -149.46,46.9 -202.51,154.1 -34.31,77 -40.37,244.4 -12.4,417.7 43.54,252.5 190.05,576.9 311.49,664.6 49.99,35.8 112.27,63.4 143.4,57.8 112.27,-27.6 162.03,-186.8 140.29,-458.9 z m 0,750.2 c -43.7,13.6 -65.44,13.6 -152.8,5.5 -270.95,-24.7 -467.4,-175.8 -626.32,-472.6 -55.99,-115.3 -121.43,-283.1 -143.4,-379.3 -46.59,-208.6 -62.27,-447.5 -31.14,-568.4 99.98,-439.7 505.51,-583.5 794.75,-445.3 308.65,149.8 458.06,603.5 498.59,947.7 49.77,417.7 18.63,599.1 -137.11,785.9 -46.82,57.9 -124.78,104.4 -202.57,126.5" /></g><g
         transform="scale(1.76696)"
         id="g336"><path
           id="path338"
           style="fill:#040606;fill-opacity:1;fill-rule:nonzero;stroke:none"
           d="m 9749.64,15962.1 c 21.74,-2.6 71.48,-5.6 130.79,0 233.67,19.5 305.07,22.1 299.07,8.5 -56.3,-115.8 -316.04,-1275.5 -271.05,-1472.2 6.28,-38.7 49.74,-85.1 93.45,-101.7 46.7,-19.2 137.1,-11.1 177.6,13.7 115.4,72.4 47.5,177.9 177.4,785.6 l 84.2,409 c 49.8,269.4 71.7,362.6 77.8,371.1 6.2,2.6 77.9,-3 158.9,-14 177.5,-19.2 214.9,-16.2 270.9,33.1 81.1,71.5 65.4,186.9 -31.1,241.8 -77.8,40.9 -333.3,63 -579.3,52 -196.2,-11.1 -507.78,-38.4 -566.92,-52 -196.84,-50 -161.47,-239.5 -21.74,-274.9" /></g><g
         transform="scale(1.76696)"
         id="g340"><path
           id="path342"
           style="fill:#040606;fill-opacity:1;fill-rule:nonzero;stroke:none"
           d="m 11801.6,15962.1 c 21.7,-2.6 71.5,-5.6 130.8,0 233.7,19.5 305.1,22.1 299.1,8.5 -56.3,-115.8 -316,-1275.5 -271,-1472.2 6.2,-38.7 49.7,-85.1 93.3,-101.7 46.8,-19.2 137.1,-11.1 177.7,13.7 52.8,33.1 71.5,76.9 84,197.8 36.2,368.8 102.2,613.8 177.6,996.8 49.7,269.4 71.7,362.6 77.7,371.1 6.3,2.6 78,-3 159.1,-14 177.4,-19.2 214.8,-16.2 270.8,33.1 81.1,71.5 65.4,186.9 -31.2,241.8 -77.7,40.9 -333.3,63 -579.2,52 -196.2,-11.1 -507.8,-38.4 -567,-52 -87.3,-22.1 -137,-71.5 -137,-143 0,-57.5 49.7,-115.3 115.3,-131.9" /></g><g
         transform="scale(1.76903)"
         id="g344"><path
           id="path346"
           style="fill:#040606;fill-opacity:1;fill-rule:nonzero;stroke:none"
           d="m 14291.7,16198.4 c -49.7,93.5 -202.1,101.6 -267.6,16.6 -74.9,-104.1 -211.4,-881.4 -233.2,-1009.6 -43.5,-0.7 -233.9,3.4 -392.1,-10.7 -59.1,-5.5 -111.9,-8.4 -115,-5.5 47.5,288 67.5,549.1 164.9,831.1 31.1,90.6 34.2,128.8 9.3,173 -49.8,90.5 -193,98.6 -261.4,16.2 -24.9,-30.2 -99.6,-211.3 -139.9,-342.7 -125.9,-403.4 -225,-1311 -158.8,-1418.5 34.2,-60.4 121.4,-95.7 196.1,-76.6 56,11.1 115,60.4 127.6,106.8 6,16.6 12.3,101.6 15.4,184 3.1,90.6 9.4,197.3 15.7,200.2 28,16.6 460.4,60.4 482.1,49.4 3.2,-2.6 -9.1,-107.2 -21.7,-205.8 -18.8,-147.9 -21.7,-189.2 -12.5,-224.9 12.5,-49.3 62.2,-98.6 115.2,-112.6 98.1,-25 190.2,24.3 217.7,93.5 6.3,19.1 24.9,112.2 37.4,205.7 11.3,109.8 183,1175 217.9,1338.7 24.8,109.6 24.8,150.9 2.9,191.7" /></g><g
         transform="scale(1.77015)"
         id="g348"><path
           id="path350"
           style="fill:#040606;fill-opacity:1;fill-rule:nonzero;stroke:none"
           d="m 14223.1,14472.2 c 0,-57.7 24.8,-98.5 77.8,-120.6 24.8,-11 80.7,-13.6 313.9,-13.6 279.9,2.6 286.2,2.6 323.3,24.6 108.9,60.3 102.6,202.7 -12.3,254.9 -21.9,8.1 -53,16.6 -68.4,16.6 -50.4,0 -73.9,-17.9 177.3,1302.1 2.9,16.5 9.2,19.1 99.5,16.5 83.9,0 102.4,2.6 127.4,19.2 52.8,35.6 68.4,62.9 68.4,123.2 0,49.3 -3.1,63.3 -24.9,90.5 -105.3,114.4 -455.4,76.6 -609.4,46.7 -183.5,-33.1 -226.9,-63.2 -226.9,-156.3 0,-88 62.1,-137.2 173.9,-137.2 49.9,0 56.1,-2.6 53,-16.2 -15.6,-41.2 -121.4,-507.3 -146.2,-627.9 -0.4,-2.6 -97.4,-664.4 -99.5,-666.1 -3.1,0 -27.9,-8.5 -59,-11.1 -118.3,-22 -167.9,-63.2 -167.9,-145.3" /></g><g
         transform="scale(1.7968)"
         id="g352"><path
           id="path354"
           style="fill:#040606;fill-opacity:1;fill-rule:nonzero;stroke:none"
           d="m 15178.8,15726.7 c -67.4,-110.5 -82.6,-262 -33.7,-380.8 145.5,-390.1 720.1,-439.8 643.4,-723.7 -27.5,-91.7 -119.6,-135.2 -275.7,-129.7 -273.3,13.1 -267.2,135.1 -413.5,135.1 -91.9,0 -171.6,-70.3 -171.6,-148.6 0,-64.8 79.7,-151.1 193,-207.9 61.2,-29.8 189.9,-70.4 266.5,-80.9 27.6,-5.4 95,-8.3 150,-8.3 389,-5.5 664.8,256.6 600.5,572.6 -30.7,167.4 -116.4,267.4 -358.4,426.8 -180.8,118.9 -239,162 -269.6,202.6 -61.3,89.1 -52,172.8 27.5,243.1 96.7,84.7 241,113.8 358.4,97.1 49.1,-7.9 64.4,-16.3 110.4,-51.4 76.6,-67.4 153.1,-72.8 223.5,-18.8 70.5,53.9 70.5,126.8 0,210.5 -223.9,263.6 -853.4,183.3 -1050.7,-137.7" /></g><g
         transform="scale(1.85453)"
         id="g356"><path
           id="path358"
           style="fill:#040606;fill-opacity:1;fill-rule:nonzero;stroke:none"
           d="m 15836.4,13845 c 0,-70.6 32.7,-115.1 104,-149.2 170.6,-74 359.6,139.9 186.9,269.7 -112.9,86.3 -290.9,12.9 -290.9,-120.5" /></g><g
         transform="scale(1.87474)"
         id="g360"><path
           id="path362"
           style="fill:#040606;fill-opacity:1;fill-rule:nonzero;stroke:none"
           d="m 15783.2,14055.6 c 75.2,-118.6 265.3,-94.5 305.5,38.9 26.4,87.9 211.3,1110.4 205.4,1136.4 -32.3,142.4 -243.7,168.1 -314.1,41.3 -11.9,-25.6 -47.1,-160.4 -73.5,-305.2 -134,-797.5 -169.6,-829.9 -123.3,-911.4" /></g><g
         transform="scale(2.05225)"
         id="g364"><path
           id="path366"
           style="fill:#040606;fill-opacity:1;fill-rule:nonzero;stroke:none"
           d="m 6386.6,15531.3 c 69.82,-136.2 155.2,-229.8 179.7,-262.4 l -37.56,-118.4 c -80.45,-248.1 -101.84,-378.2 -67.1,-425.4 18.86,-28.6 64.42,-61.6 93.9,-68.6 29.52,-7.3 50.92,-4.7 85.8,7 64.42,19.1 93.95,59 112.66,149.1 45.51,233.9 230.62,739.9 359.46,978.8 180,324.7 255.62,326.9 211.77,418.5 -18.71,42.5 -56.33,68.5 -109.93,73.3 -83.13,7.3 -131.37,-33 -257.47,-210.4 -80.4,-111 -201.15,-316.9 -236.04,-404.2 -13.35,-35.5 -26.8,-64.1 -29.53,-64.1 -7.89,0 -66.9,120.6 -96.43,198.7 -34.89,87.5 -51.06,146.5 -67.09,276.6 -21.44,149.1 -42.98,186.9 -123.43,205.9 -66.95,14.3 -144.82,-28.5 -160.85,-92.3 -8.09,-30.8 10.77,-243.7 26.8,-326.2 16.03,-82.8 75.04,-250.6 115.34,-335.9" /></g><g
         transform="scale(2.05133)"
         id="g368"><path
           id="path370"
           style="fill:#040606;fill-opacity:1;fill-rule:nonzero;stroke:none"
           d="m 7462.32,15415.4 c 37.44,217.4 163.6,496.7 268.22,572.3 43,30.8 96.62,54.6 123.43,49.8 96.67,-23.8 139.52,-160.9 120.8,-395.2 -29.54,-338.3 -109.98,-567.8 -244.23,-681.1 -40.17,-33.4 -50.94,-38.1 -83.17,-38.1 -77.8,0 -128.74,40.3 -174.42,132.6 -29.54,66.4 -34.9,210.5 -10.63,359.7 z m -281.72,144.1 c -40.31,-179.7 -53.82,-385.4 -26.95,-489.5 51.08,-224.7 201.23,-380.9 399.74,-416.4 l 64.44,-11.8 c 45.73,-7.3 155.71,14 220.15,44.8 265.73,128.9 394.38,519.7 429.28,816.1 42.85,359.6 16.04,515.8 -118.06,676.7 -40.32,49.8 -107.45,89.8 -174.43,108.9 -37.63,11.7 -56.35,11.7 -131.57,4.7 -233.46,-21.2 -402.47,-151.4 -539.26,-406.9 -48.26,-99.4 -104.62,-243.8 -123.34,-326.6" /></g><g
         transform="scale(2.05401)"
         id="g372"><path
           id="path374"
           style="fill:#040606;fill-opacity:1;fill-rule:nonzero;stroke:none"
           d="m 8681.76,14644 c 126,-30.7 300.05,7 401.94,85 96.35,75.4 209.06,243.4 267.87,403.8 58.96,160.7 134.08,430.2 150.1,555.4 29.5,198.4 53.55,455.8 48.34,481.8 -18.84,80.6 -123.32,130 -211.78,97 -170.54,-66.1 -38.36,-320.4 -254.53,-975.7 -61.63,-188.9 -160.7,-347.4 -235.83,-373.4 -85.78,-30.8 -139.33,-4.8 -160.71,75.7 -26.82,82.8 -16.21,276.5 29.46,578.9 24.1,151.2 58.96,411.1 72.3,467.6 24.04,113.4 21.37,146.7 -10.67,184.5 -61.63,63.7 -158.18,58.9 -217.13,-12.1 -29.46,-33 -88.42,-321.1 -152.63,-652.1 -37.54,-198.4 -42.94,-257.4 -42.94,-413.3 0,-174.7 13.48,-231.4 69.72,-328.4 56.28,-94.5 131.25,-148.7 246.49,-174.7" /></g><g
         transform="scale(2.05401)"
         id="g376"><path
           id="path378"
           style="fill:#040606;fill-opacity:1;fill-rule:nonzero;stroke:none"
           d="m 10326.3,14639.2 c 48.2,9.6 99.1,52 109.9,92 5.2,14.2 10.6,87.5 13.3,158.5 2.7,78 8.1,169.9 13.5,172.4 24.1,14.3 396.6,52 415.2,42.5 2.7,-2.2 -7.9,-92.2 -18.6,-177.2 -16.2,-127.4 -18.7,-162.9 -10.9,-193.7 34.5,-135.9 240.9,-131.9 286.8,-16.5 23.8,72.9 44.4,307.5 61.6,382.6 l 34.9,210.2 c 135.6,881.8 160.8,837.2 125.8,902.5 -42.7,80.5 -174,87.5 -230.4,14.3 -70.2,-97.7 -193.7,-836.6 -200.8,-869.6 h -120.7 c -67,0 -163.5,-4.4 -217.1,-9.1 -50.9,-4.8 -96.3,-7.3 -99.1,-4.8 41,248 58.2,472.9 142.1,715.8 26.8,78 29.5,110.9 8,149 -42.9,78 -166.2,84.9 -225.2,13.9 -21.4,-26 -85.7,-181.9 -120.4,-295.1 -108.5,-347.5 -193.8,-1129.1 -136.8,-1221.7 29.5,-52 104.6,-82.4 168.9,-66" /></g><g
         transform="scale(2.05401)"
         id="g380"><path
           id="path382"
           style="fill:#040606;fill-opacity:1;fill-rule:nonzero;stroke:none"
           d="m 11802.3,15277 c 32.2,66.3 241.1,415.9 249.2,415.9 0.2,-32.6 2.8,-476.8 2.6,-444.1 h -265.3 z m -332.4,-583.5 c 60.6,85.4 125.1,275.1 179.6,285.9 422.1,26.8 355.9,16.8 404.6,19 l 2.7,-139.5 c 2.7,-127.7 2.7,-141.7 21.4,-162.9 34.9,-42.8 61.7,-52 126,-52 69.6,0 104.5,16.5 136.7,68.5 18.7,32.9 18.7,32.9 26.8,699.3 5.3,635.6 2.7,713.5 -18.7,765.5 -34.9,80.2 -150.2,122.7 -230.5,87.2 -185.3,-84.1 -842.3,-1296.3 -892.3,-1478.8 -29,-111.8 142.8,-208.9 243.7,-92.2" /></g><g
         transform="scale(2.05281)"
         id="g384"><path
           id="path386"
           style="fill:#040606;fill-opacity:1;fill-rule:nonzero;stroke:none"
           d="m 12755,14647.8 c 77.8,-23.8 134,-9.5 198.4,49.5 101.5,93.2 122.4,193.9 276.1,602.9 18.7,49.5 59,193.8 88.5,278.8 172.7,521.2 236,596.4 134.1,673.7 -67,47.3 -144.9,45.1 -206.4,-9.2 -42,-37.1 -40.5,-51.8 -214.6,-555.7 -18.7,-59 -69.7,-234 -112.6,-347.6 -72.4,-189 -77.7,-205.5 -83.1,-174.8 -8.7,53.5 -28.8,977.1 -50.9,1016.6 -32.2,54.2 -93.8,82.8 -155.6,68.5 -40.3,-9.5 -85.7,-47.2 -99.1,-87.5 -5.4,-18.7 -10.8,-167.8 -10.8,-475.2 -2.6,-468.1 2.7,-595.6 40.3,-766 37.4,-158.2 96.4,-243.2 195.7,-274" /></g><g
         transform="scale(2.05253)"
         id="g388"><path
           id="path390"
           style="fill:#040606;fill-opacity:1;fill-rule:nonzero;stroke:none"
           d="m 13450.9,15004.4 c 21.4,-116.1 56.3,-182 131.3,-248.3 67.1,-59 126.1,-89.8 203.8,-108.9 59,-13.9 166.2,-13.9 233.3,0 123.2,26.1 303,99.3 351.2,141.8 113.2,105.9 -13.6,293.3 -203.6,198.9 -269.8,-119.1 -418.5,-129.1 -418.5,165.3 v 75.8 c 32.6,2.3 41,14.5 233.3,4.8 174.3,-4.8 198.5,0 233.3,30.8 75.1,59 61.8,163 -26.8,207.8 -85,44.2 -299.1,18.8 -402.2,16.8 -10.8,11.7 101.8,501.2 120.7,529.4 10.7,14.3 316.4,14.3 429.1,0 45.5,-4.7 99.1,-7 115.3,-4.7 42.8,7.3 99.1,52 112.6,87.5 24.1,61.6 -13.5,132.3 -83.1,160.9 -88.5,37.7 -482.9,32.9 -708.1,-7.3 -37.4,-7 -83.1,-44.8 -104.5,-89.8 -118.8,-250.1 -275.3,-880.2 -217.1,-1160.8" /></g></g></g></svg>