<?xml version="1.0" encoding="UTF-8" standalone="no"?>
<svg
   xmlns:dc="http://purl.org/dc/elements/1.1/"
   xmlns:cc="http://creativecommons.org/ns#"
   xmlns:rdf="http://www.w3.org/1999/02/22-rdf-syntax-ns#"
   xmlns:svg="http://www.w3.org/2000/svg"
   xmlns="http://www.w3.org/2000/svg"
   viewBox="0 0 5733.3335 4867.9468"
   height="4867.9468"
   width="5733.3335"
   xml:space="preserve"
   id="svg2"
   version="1.1"><metadata
     id="metadata8"><rdf:RDF><cc:Work
         rdf:about=""><dc:format>image/svg+xml</dc:format><dc:type
           rdf:resource="http://purl.org/dc/dcmitype/StillImage" /></cc:Work></rdf:RDF></metadata><defs
     id="defs6" /><g
     transform="matrix(1.3333333,0,0,-1.3333333,0,4867.9467)"
     id="g10"><g
       transform="scale(0.1)"
       id="g12"><g
         transform="scale(2.1552)"
         id="g14"><path
           id="path16"
           style="fill:#040606;fill-opacity:1;fill-rule:nonzero;stroke:none"
           d="m 3917.5,13679.1 c 41.75,-121.6 179.08,-203.6 269.77,-193.8 l 42.9,6.5 c 84.91,20.2 116.29,93.9 96.37,176.8 -82.25,309.1 -118.06,434.4 -208.45,831 45.32,7.3 90.03,17.9 134.74,28.4 301.17,70.8 279.8,84.3 371.28,123.7 7.21,-30.9 188.57,-809.2 177.02,-759.7 21.39,-89.2 149.68,-201.3 270.69,-197.2 l 39.9,5.8 c 95.91,22.9 120.04,103.3 97.26,198.5 -475.64,2050.1 -446.41,2028.3 -541.07,2198.3 -43.19,82.8 -142.28,202.6 -225.97,182.8 -57.71,-14.1 -88.73,-87.3 -99.09,-141.7 -22.49,-133.4 -24.03,-134.4 211.78,-1181 -153.78,60.5 -473.6,-35.7 -528.08,-46.4 -132.83,608 -126.89,611.6 -161.32,756.3 l -29,122.1 c -32.02,135.6 -174.31,313.1 -299.69,283.3 -92.08,-21.4 -126.49,-132.3 -112.07,-223.4 90.7,-456.6 346.22,-1729 493.03,-2170.3" /></g><g
         transform="scale(2.19791)"
         id="g18"><path
           id="path20"
           style="fill:#040606;fill-opacity:1;fill-rule:nonzero;stroke:none"
           d="m 5212.32,13725.7 c 26.84,-114.9 165.57,-212.2 253.88,-208.1 238.49,15.7 471.26,64 640.15,92.7 41.77,7.4 81.17,42.1 96.27,86.4 42.41,158.4 -137.54,329.2 -296.23,301.1 -112.7,-20 -222.53,-39.6 -343.92,-57.6 -50.64,237.1 -98.05,471.4 -146.05,709 l 56.01,6.5 c 100.73,5.3 66.65,7.7 233.72,34.5 71.98,12.8 308.38,96.2 284.68,230.7 l -11.56,32.5 c -21.02,38 -59.55,62.2 -94.18,80.5 -234.49,108.6 -427.13,26.6 -542.42,14.8 -50.78,287.8 -88.45,510.9 -126.49,760.8 49.55,11 145.1,16.3 431.92,107.7 l -16.61,-2.8 c 67.84,19 162.34,49.5 145.18,146.9 -42.13,238.7 -439.6,192.5 -677.78,150.4 -194.5,-51.7 -327.85,-15.7 -305.15,-227.4 74.61,-500 278.72,-1651.7 418.58,-2258.6" /></g><g
         transform="scale(2.22504)"
         id="g22"><path
           id="path24"
           style="fill:#040606;fill-opacity:1;fill-rule:nonzero;stroke:none"
           d="m 5969.55,15907.2 c 420.22,-712.9 655.81,-1025.9 675.68,-1056.1 17.79,-186.6 37.03,-344.4 116.44,-1029.1 10.7,-92.9 125.57,-208.1 234.7,-217.3 l 39.23,1.2 c 33.04,3.8 65.22,14.3 84.27,43.7 66.34,78.3 22.92,127.3 -37.17,729.4 -17.57,150.7 -34.51,298.2 -54.74,448.7 -4.27,24.5 17.35,-3.4 97.44,194.8 161.66,426.1 54.43,119.4 352.04,940.9 21.03,65.2 14.83,108.1 -11.1,168.5 -48.72,104.4 -161.39,168.1 -239.37,159.1 l -16.4,-1.9 c -45.67,-15.5 -88.36,-34.1 -110.02,-87.5 -12.36,-30.1 -63.78,-195 -340.63,-919.3 -501.47,757.2 -466.42,842.8 -629.11,895 -131.5,36.6 -206.24,-32.3 -209.52,-119.4 l 0.58,-30.6 c 5.26,-43.4 23.73,-82.1 47.68,-120.1" /></g><g
         transform="scale(2.23988)"
         id="g26"><path
           id="path28"
           style="fill:#040606;fill-opacity:1;fill-rule:nonzero;stroke:none"
           d="m 8754.01,15920.7 99.38,2.8 5.53,-3.2 60.77,-5 -2.64,-0.1 c 43.04,-9.3 90.5,1.2 93.04,-71.1 4.51,-172.4 -150.85,-317 -275.01,-423.1 -4.51,156.6 17.77,313.4 -16.57,492 z m 315.06,-982.8 16.88,-9.6 25.31,-19.3 c 5.49,-3.2 8.39,-9.9 11.29,-13.1 l 8.75,-9.9 c 14.11,-29.8 30.63,-31.8 53.18,-125.7 61.47,-320.3 -84.52,-719.9 -404.31,-728.3 -34.42,574.9 -35.58,802.9 -40.41,933.5 28.18,-12.6 61.3,-21.6 86.3,-21 l 11.08,0.3 c 117.37,21.3 153.26,13.7 212.46,-0.8 5.54,-3.2 11.08,-6.4 19.47,-6.1 z M 8406.36,13988 c 13.07,-167.2 62.18,-340 225.54,-362.2 29.82,0.8 81.08,-11.6 115.1,20 875.04,-176.3 1130.95,1204.2 461.9,1607.7 471.68,531.3 -29.87,1278.5 -637.45,976.9 -214.52,-107.7 -211.97,-274 -217.15,-511.9 -4.6,-626.7 -1.25,-998.4 52.06,-1730.5" /></g><g
         transform="scale(2.23233)"
         id="g30"><path
           id="path32"
           style="fill:#040606;fill-opacity:1;fill-rule:nonzero;stroke:none"
           d="m 10073.9,13823.8 c 206.7,-173.9 439.9,-222.8 678.7,-80.5 479.4,314.1 364.1,1504.8 376.8,2054 0.3,68.4 23.4,224.7 -22.7,316.6 -42.3,78.3 -123.7,150.8 -203.9,152.9 l -35.9,-5.9 c -207.2,-52.2 -71.8,-379.2 -124.8,-1361.3 -15.8,-234.7 -50,-545.4 -189.3,-731.4 -47.3,-54.5 -105.6,-97.7 -215.5,-95.5 l -68.6,32 c -8.5,7.5 -32.9,25.8 -37.6,37.9 -2.6,3.5 -5.5,6.8 -8.2,7 -7,38.6 -95.5,48.6 -91,697.8 7.6,307.1 4.6,254 36.5,1040.9 3.8,153.1 -54.6,407.9 -200.09,411.7 l -36.15,-5.8 c -125.74,-40.7 -136.23,-245.5 -142.05,-372.9 -22.35,-901.2 -174.62,-1689.5 283.79,-2097.5" /></g><g
         transform="scale(2.23635)"
         id="g34"><path
           id="path36"
           style="fill:#040606;fill-opacity:1;fill-rule:nonzero;stroke:none"
           d="m 11748.5,15895.8 35.2,-12.7 c 64.7,-40.3 116.2,-50.6 172.1,-147.2 234.6,-429.4 62.6,-1394.7 -378.2,-1675.5 33,807.4 102,1276.6 170.9,1835.4 z m -216.9,-2283 c 860.4,-62.3 1308.1,2106.5 410.8,2588.7 -142.4,69.9 -333,98.5 -459.7,6.4 -113.6,-79.2 -120.8,-331.2 -141.8,-470.9 -88,-579.6 -143.1,-1364.6 -145.6,-1827.1 -3.3,-178 175.7,-285.1 336.3,-297.1" /></g><g
         transform="scale(2.2206)"
         id="g38"><path
           id="path40"
           style="fill:#040606;fill-opacity:1;fill-rule:nonzero;stroke:none"
           d="m 13185.8,15887.8 34.6,-14.2 39.3,-24.9 c 376.5,-182.3 238.1,-1474.6 -324,-1800 35.5,423.8 230.7,1702.1 250.1,1839.1 z m -315.5,-2287.6 c 864.9,-99 1401.6,2067.6 523.1,2587 -141,77 -330.6,112.8 -461.5,25.6 -117.8,-74.9 -135.5,-328.1 -162.7,-467.9 -113.2,-579.7 -201.7,-1362.8 -224,-1831.9 -10.8,-178.6 164.4,-294.3 325.1,-312.8" /></g><g
         transform="scale(2.20532)"
         id="g42"><path
           id="path44"
           style="fill:#040606;fill-opacity:1;fill-rule:nonzero;stroke:none"
           d="m 14408.3,14830.6 c -27.3,-158.6 -43.4,-267.1 -159.8,-1032 -14.4,-93.5 67.1,-236 170.7,-273.6 l 38,-9.3 c 33.4,-5 67.6,-3.2 93.9,20.3 41.1,28.2 58.2,66.8 66.5,120.6 106.7,700.8 130.1,849.3 157,1049.7 2.2,24.8 15.5,-8.7 146.5,163.5 192.2,263.5 110.6,138.5 592.5,822 37.8,58.1 43.6,101.2 34,166.8 -18.9,112.8 -111.5,206.1 -190.5,218.2 l -16.8,2.5 c -48.4,-3 -94.7,-9.8 -130.2,-56 -34.2,-44.9 148.2,202.2 -575.4,-803.8 -140.3,420.3 -256.8,866 -265.7,897 -18.7,69.6 -99.9,159.3 -196.9,174.5 -60.7,9 -125.9,-25.4 -147.6,-94.7 l -7.4,-29.9 c -6.6,-43.7 1.1,-86.1 14.1,-129.5 222.6,-813.5 367.2,-1176.1 377.1,-1206.3" /></g><g
         transform="scale(2.12922)"
         id="g46"><path
           id="path48"
           style="fill:#040606;fill-opacity:1;fill-rule:nonzero;stroke:none"
           d="m 16113.1,14354 -42.2,11.3 c -34.3,6.3 -69.7,5.5 -97.6,-18 -43.4,-28 -63.3,-71 -73.4,-126.5 -0.8,-35.6 -56.6,-153.6 30.6,-299.5 31.2,-55.8 83.5,-108.4 143.1,-119.4 l 20.2,-3.7 c 83.7,-14.9 146.7,50.7 165.4,131.2 l 24.2,131.8 c 16.6,91.4 -57.1,247.4 -170.3,292.8" /></g><g
         transform="scale(2.18099)"
         id="g50"><path
           id="path52"
           style="fill:#040606;fill-opacity:1;fill-rule:nonzero;stroke:none"
           d="m 15684.2,14154.6 c 18.2,-32.3 80.7,-67.1 116.2,-73.6 l 11,-2.1 c 11.3,-2.1 23,-0.8 32,1.2 26.2,2.2 47.7,8.8 68.6,29.4 3,-0.5 3.6,3 3.6,3 l 10.8,11.9 c 65.2,101.6 60.3,169 356.4,1772.4 17.2,94.6 -63.2,252.1 -166.6,285.8 l -46,15.4 c -70.2,12.6 -141.2,-32.5 -161.2,-142.1 -80.6,-440.2 -161.5,-880.4 -239.1,-1321.1 -34.8,-189.2 -118,-460.8 14.3,-580.2" /></g><g
         transform="scale(2.63804)"
         id="g54"><path
           id="path56"
           style="fill:#040606;fill-opacity:1;fill-rule:nonzero;stroke:none"
           d="m 173.878,5299.21 c 49.36,289.99 130.314,581.72 216.204,880.61 44.92,161.9 70.587,329.23 95.514,491.16 49.109,322.18 54.848,287.07 132.534,748.55 60.47,358.76 122.913,729.22 263.098,1044 67.243,1.71 113.507,-1.18 180.722,-7.35 -3.08,-126.73 -14.13,-249.66 -36.59,-364.21 -6.66,-34.2 15.55,-67.52 49.86,-74.19 31.98,-6.97 67.05,14.22 74.04,49.74 23.14,117.51 34.49,243.13 38.32,372.2 64.08,-10.38 127.72,-22.7 190.84,-37.45 l -40.6,-478.99 c -2.96,-34.8 22.96,-65.43 57.76,-68.23 1.72,-0.16 3.45,-0.27 5.18,-0.27 32.58,0 60.22,24.94 62.94,57.89 l 38.93,459.16 c 73.16,-18.95 25.64,-5.8 229.5,-60.19 -10.61,-145.19 -28.29,-291.32 -54.94,-435.25 -7.04,-39.12 22.85,-74.68 62.19,-74.68 29.86,0 56.52,21.23 62.2,51.71 25.88,140.67 43.06,283.31 54.54,425.31 43.04,-11.6 86.45,-22.7 129.64,-34.19 -17.37,-133.01 -39.12,-265.12 -65.71,-392.22 -7.95,-39.27 22.08,-76.01 61.94,-76.01 29.37,0 55.78,20.47 61.95,50.35 25.98,125.01 46.99,254.81 64.48,385.58 73.81,-18.83 97.33,-17.59 111.06,-84.79 -8.9,-128.36 12.41,-84.54 -47.94,-327.1 -48.1,-197.46 -57.49,-373.99 -110.57,-765.57 -143.29,-984.52 -133.41,-888.2 -180.17,-1004.39 -46.69,-29.26 -13.96,-5.38 -209.54,-1048.31 -14.84,-82.53 109.67,-105.23 124.39,-22.22 l 162.16,904.81 c 396.3,70.05 1445.22,259.01 1832.79,377.36 1.01,-55.57 -5.55,-68.38 42.71,-194.73 97.49,-253.79 200.83,-514.59 420.8,-689.6 19.45,-15.01 39.08,-24.68 63.68,-24.68 105.08,0 72.26,108.26 279,357.77 79.07,-99.02 163.42,-170.93 313.57,-170.93 21.53,0 42.11,7.51 63.3,11.15 2.35,-0.19 4.7,-1.18 7.09,-1.33 110.31,-1452.37 169.75,-3372.66 213.45,-5068.389 0.99,-34.306 29.12,-61.485 63.19,-61.485 0.5,0 0.99,0 1.71,0 34.8,0.985 62.47,29.87 61.45,64.934 -43.71,1698.65 -103.45,3623.64 -214.25,5079.12 65.39,26.15 127.48,127.37 161.41,189.23 271.22,-306.89 267.51,-341.31 319.66,-341.31 38.1,0 67.02,33.05 62.7,70.58 -16.9,143.74 90.07,442.3 152.05,729.14 199.69,-129.04 154.32,-59.67 455.07,-169.63 l 22.21,-8.38 c 0.08,-0.04 0.16,0.04 0.27,0 v 0 c 94.77,-34.16 776.26,-293.78 870.42,-325.21 l -40.18,-713.63 c -1.97,-34.8 24.71,-64.67 59.74,-66.64 1.25,0 2.24,0 3.45,0 33.32,0 61.22,25.93 63.19,59.74 l 40.79,724.63 c 19.63,14.17 35.4,34.23 44.84,64.17 50.19,166.87 73.01,330.17 95.53,491.39 106.67,694.65 75.43,524.94 67.36,1056.85 111.29,-69.6 183.51,-109.06 312.54,-128.81 -18.57,-45.75 -5.42,60.88 11.53,-504.01 1.47,-33.81 29.37,-60.5 63.19,-60.5 0.98,0 1.74,0 2.73,0 34.79,1.52 61.94,31.12 60.46,65.92 -1.14,25.44 -22.67,512.16 -21.31,481.27 43.64,-6.29 87.27,-11.49 131.09,-16.64 -21.8,-9.97 -39.2,-27.75 -39.2,-53.19 v -524.97 c 0,-34.8 28.39,-63.19 63.19,-63.19 34.8,0 63.19,28.39 63.19,63.19 -7.92,531.19 17.55,534.94 -20.77,570.54 43.48,-4.25 86.84,-6.29 130.25,-8.11 -11.03,-47.2 -13.04,64.28 68.46,-461.98 6.18,-36.99 42.26,-58.34 72.55,-51.85 34.57,5.68 57.77,38.28 51.82,72.59 -4.32,25.59 -79.11,466.78 -74.53,439.79 45.23,1.03 127.34,6.52 138.71,7.85 50.41,-150.15 143.06,-769.17 155.98,-881.3 47.65,-347.98 72.82,-702.41 75.29,-1068.44 C 8738.24,4072.27 9017.99,3752 8351.36,3503.93 7489.85,3181 6831.94,3445.21 6716.81,3447.6 c 6.45,477.25 -44.27,954.95 -153.33,1420.68 -7.66,33.81 -42.19,55.27 -75.78,47.16 -34.04,-7.93 -55,-41.97 -47.11,-75.78 109.58,-468.45 160.15,-949 150.3,-1429.02 -0.23,-10.23 6.18,-17.81 10.31,-26.49 -58.08,-109.06 21.68,-298.37 26.23,-360.01 61.48,-655.48 1.14,-1333.26 122.89,-1997.92 55.84,-296.776 44.13,-416.334 -242.37,-498.288 C 5276.65,156.973 3979.66,273.688 2715.01,387.486 c -119.6,14.366 -157.23,29.796 -186.58,159.171 -126.67,478.653 -101.86,1028.603 -114.28,1529.963 -32.7,1166.63 23.59,1620.18 -42.39,1715.25 l 675.7,331.05 c 31.35,15.31 44.18,53.33 28.88,84.64 -15.55,31.12 -52.81,44.2 -84.65,28.89 l -686.62,-336.39 c -23.24,-11.37 -31.47,-35.29 -30.48,-59.63 -147.98,-1.25 -876.68,-362.39 -1514.052,-153.63 -536.56,173.76 -733.7588,716.51 -586.66,1612.41 z m 635.038,5106.59 c -2.221,15.4 0.986,16.7 10.856,20.5 8.886,3.6 23.697,9.4 26.164,9.8 7.403,-9.2 16.288,-17.8 25.421,-26.5 5.924,-5.7 15.056,-14.2 16.288,-17.4 0,-4.1 2.714,-19.7 3.458,-23.7 97.982,-501.5 170.547,-548.01 201.637,-567.88 22.46,-14.33 48.38,-19.37 79.72,-10.99 117.93,43.67 85.74,273.67 67.63,397.87 -3.18,26.2 -51.77,327.5 -74.54,728.8 -1.73,31.1 6.17,33.3 8.64,34.1 12.09,3.3 18.76,4.8 28.38,-18.9 l 22.96,-61.3 c 139.86,-374.4 69.07,-240.2 154,-523.5 32.52,-107.9 57.21,-196.3 53.07,-287.4 -2.27,-31.8 -6.47,-68.65 34.8,-88.13 26.25,-12.82 61.73,-7.09 88.36,30.73 4.69,3.3 9.13,7.4 12.83,11.9 69.76,86.5 42.51,175.4 44.42,231.8 0,149.8 -25.22,288.7 -27.88,429.7 0,133.2 -45.48,366.8 -14.81,401.3 21.05,3.7 18.61,3.2 18.76,3.2 75.11,0 97.22,-292.6 135,-495 13.99,-50.5 -1.99,-125.2 15.79,-180 33.3,-271 -5.8,-378.9 102.43,-402.8 31.84,-6.76 58.74,-1.8 78.73,15.3 28.88,24.7 26.66,59.5 19.75,64.9 58.6,58.6 42.33,529.4 58.74,755.6 3.2,47.2 16.29,72 27.39,79.3 9.13,6 23.2,2.5 33.57,-1 16.04,-5.3 21.22,-15.1 33.32,-61.4 5.66,-44.6 37.38,-37.4 12.58,-242.7 -1.28,-31.5 -15.53,-54.9 -4.19,-294.2 32.24,-722.71 13.2,-764.14 49.36,-881.84 11.52,-36.92 52.15,-54.29 86.88,-38.74 42.69,19.67 61.99,49.65 89.84,96.36 86.13,133.05 200.16,248.55 309.99,356.02 35.54,35.93 82.43,25.81 100.45,19.86 0.49,-0.11 1.23,-0.34 1.73,-0.49 60.29,-17.21 60.91,-60.46 27.15,-113.04 -46.65,-74.64 -100.46,-146.85 -152.29,-216.68 -52.73,-76.95 -65.32,-69.71 -254.95,-385.02 l -37.02,-65.16 c -54.92,-178.16 -53.43,-359.24 -53.31,-544.34 0,-32.76 3.71,-57.81 -37.52,-238.29 -468.4,123.2 -920.55,272.63 -1248.598,283.09 0,5.23 -1.478,62.7 -2.714,87.98 -2.335,36.47 8.04,84.39 2.468,125.74 -2.745,49.21 -25.174,104.85 -25.174,141.43 -4.981,471.64 -79.036,955.52 -149.566,1461.12 z M 4510.55,5787.9 c -78.5,-92.07 -145.37,-193.74 -203.37,-310 -75.06,65.88 -143.17,154.24 -202.65,263.6 -82.9,151.79 -176.31,403.83 -186.31,453.87 -7.7,39.87 -3.34,82.44 6.59,125.05 2.69,4.09 6.9,5.8 9.18,10.46 8.9,14.56 11.86,26.88 11.6,29.61 8.15,5.91 19.25,14.06 18.27,15.81 39.72,33.54 78.01,75.01 122.93,135.97 75.89,-99.55 308.03,-554.24 319.21,-579.6 z m -615.8,2099.6 c -119.89,-1.26 -238.21,-16.95 -297.64,128.08 -140.3,335.9 29.32,550.53 155.42,541.77 69.86,-63.34 134.34,-124.79 155.07,-214.52 22.1,-97.49 99.09,-131.53 196.93,-121.53 119.97,9.97 124.9,108.46 127.37,158.3 21.23,296.55 16.79,581 -13.35,845.1 -6.97,65.24 -0.11,112.24 17.1,147.38 2.54,3 4.13,8.31 6.86,10.81 1.4,1.32 4.25,2.23 5.88,3.52 143.55,-10.04 78.65,-55.61 479.82,-55.61 286.85,-0.56 566.14,-10.61 838.43,90.71 59.67,22.52 147.27,67.52 199.16,62.82 37.42,-3.79 29.34,-118.58 110.09,-561.37 22.47,-121.64 35.29,-236.27 65.38,-352.08 12.4,-46.51 68.92,-62.09 103.68,-30.97 19.14,17.36 31.96,42.23 45.3,66.38 85.21,-29.72 138.7,-70.05 169.67,-130.29 63.08,-126.38 0.42,-310.46 -123.42,-362.81 -170.06,-67.02 -152.28,-216.94 -145.61,-273.95 31.85,-247.31 19.49,-494 -36.77,-733.16 -47.64,-199.66 -197.95,-315.42 -411.17,-317.89 -60.84,0 -124.6,-4.73 -186.09,0 -47.27,-0.38 -71.64,-13.26 -89.34,-27.52 -10.43,15.73 -25.4,27.83 -45.68,29.27 -163.46,12.13 -321.6,76.61 -491.66,139.42 -32.79,11.11 -69.1,-5.42 -80.93,-37.98 -11.86,-32.83 5.2,-69.11 38.02,-80.97 179.42,-66.19 347.04,-133.21 525.2,-146.36 1.48,-0.23 3.19,-0.23 4.67,-0.23 0.64,0 0.98,0.61 1.63,0.61 -3.45,-38.14 22.55,-256.37 23.65,-350.11 -10.31,-236.58 -42.83,-600.56 -272.02,-657.69 -192.83,25.74 -353.9,188.63 -455.19,350.68 -44.65,73.54 -84.38,152.76 -122.89,229.53 -174.87,347.72 -221.91,366.4 -238.66,391.69 -17.29,356.13 -45.91,1024.74 -43.67,1087.28 2.69,70.63 1.21,136.89 -46.89,172.67 -45.68,34.19 -105.65,19.75 -168.35,-0.98 z M 5405.46,6336.8 c 25.28,-6.9 187.07,-15.58 268.04,-107.36 l 3.22,-21 c -120.01,-474.36 -134.8,-528.31 -145.14,-590.36 l -207.85,244.2 c 9.29,27.06 19.03,53.83 25.97,82.6 21.45,111.9 24.52,292.41 20.47,391.54 8.15,2.95 26,1.1 35.29,0.38 z m 1783.67,1638.41 c -90.37,128.7 -163.34,237.15 -252.46,324.18 -69.44,67.52 -53.86,147.69 -1.97,171.91 212.89,89.2 387.75,-380.78 542.49,-313.45 54.55,24.56 55.53,86.16 56.75,145.64 17.62,171.75 13.79,500.07 130.06,1001.42 l 6.17,25.89 c 15.05,67.4 22.48,67.63 42.95,68.27 18.27,1.33 39.01,1.71 46.67,-99.08 14.17,-160.31 -14.33,-327.79 -26.42,-513.27 -14.83,-118.83 -15.32,-207.04 30.36,-251.74 20.96,-20.47 48.86,-29.6 79.94,-24.67 107.09,18.57 105.54,163.26 119.71,226.45 45.49,292.19 79.12,539.5 153.26,771.15 4.48,18.15 9.4,28.24 6.45,26.53 9.62,10.99 18.5,23.69 27.63,36.77 8.64,12.36 23.2,33.21 29.38,36.28 37,-13.57 45.9,-57.62 32.07,-164.25 -20.24,-203.87 -59.97,-454.4 -82.68,-568.38 -6.25,-34.38 -52,-136.66 -9.89,-194.39 31.12,-44.65 70.36,-43.18 84.91,-41.09 59.74,9.74 79.49,78.13 92.57,122.93 187.79,535.97 167.93,596.39 213,616.75 18.76,8.26 26.38,7.16 26.38,7.43 32.49,-24.75 15.81,-195.75 16.57,-221.15 -6.11,-104.24 -21.5,-127.44 -60.5,-379.98 -9.1,-75.13 -18.24,-152.01 -34.8,-235.44 -45.64,-160.92 -47.61,-217.32 -8.87,-251.51 70.73,-63.19 165.84,41.88 184.11,148.82 20.97,113.15 83.66,217.51 131.31,323.19 47.43,99.02 140.37,16.61 137.45,-86.23 -26.04,-391.28 -127.02,-705.53 -164.59,-880.85 -46.17,-218.23 -66.07,-247.38 -125.89,-345.07 -36.96,-60.12 -74.64,-121.75 -95.86,-196.13 -235.6,-32.82 -476.04,4.36 -713.41,40.91 -171.53,26.23 -270.36,139.95 -338.21,156.21 -1.33,0.3 -1.48,0.72 -2.88,0.99 -37.38,398.74 -47.46,203.21 -271.76,514.96 z M 9512.61,2991.32 c 22.32,25.05 42.83,50.91 64.85,76.11 0,-1.74 7.05,-324.9 10.92,-519.28 -38.1,42.04 -78.43,88.85 -123.16,143.02 -70.58,85.63 -100.95,133.92 47.39,300.15 z m -112.82,2920.46 c 262.24,357.43 282.71,293.56 308.53,349.47 1.74,4.47 10.39,15.31 16.3,22.48 102.99,129.22 207.84,189.8 458.08,358.6 72.5,46.36 106.1,79.3 262.6,166.86 -19.2,-120.16 -25.6,-183.69 -8.6,-392.45 2.7,-33.05 30.3,-58 62.9,-58 1.7,0 3.4,0 5.2,0.27 34.8,2.69 60.7,33.32 57.7,68.12 -17.9,216.86 -12.7,293.63 42.2,542.71 51.7,2.47 109.1,8.08 163.5,-10.99 -13,-9.74 -22.3,-24.45 -24.8,-41.81 -32.4,-220.28 -48.4,-450.75 6.2,-668.53 -62.6,11.6 -124.3,27.18 -177.2,58.91 -29.9,18.27 -68.6,8.38 -86.6,-21.46 -18.1,-29.87 -8.4,-68.61 21.4,-86.65 91.4,-54.97 194.2,-74.87 293,-87.64 20.3,-16.19 42,-18.27 61.2,-10.58 2.2,0.87 2.7,3.45 4.7,4.51 505.7,-52.84 974.8,30.25 1398.7,216.64 239.7,104.02 462,296.09 594,532.59 16.8,30.63 6,69.11 -24.4,86.13 -31.1,17.06 -69.1,5.95 -86.1,-24.41 -42.3,-75.97 -94.3,-145.04 -154.7,-209.18 -32.4,190.98 -80.5,378.81 -151.9,558.15 -12.8,32.33 -50.3,47.65 -82.2,35.29 -32.3,-12.81 -48.1,-49.58 -35.3,-82.18 78.3,-196.13 131.8,-402.42 160.6,-612.73 -117.5,-96.29 -156,-108.8 -181.6,-122.44 -21.6,165.54 -49.7,331.87 -86.6,495.78 -4,17.4 -14.8,31.16 -28.9,39.81 48.1,81.72 38.6,211.71 35.6,314.85 196.9,7.62 393.7,40.26 479.1,-50.83 83.8,-88.86 62.8,-265.46 163.2,-317.55 1.8,-1.17 2.9,-3.33 4.8,-4.32 0.9,-0.49 1.9,-0.49 2.7,-0.95 0.6,-0.23 0.9,-0.76 1.5,-1.02 0.5,-0.19 1,0.19 1.4,0 84,-39.84 178.6,68.91 253.6,125.13 561.6,374.86 417.2,186.2 970.4,578.54 337.6,238.92 388.5,271.07 453.4,333.99 32.4,-105.57 94,-202.04 180.9,-271.18 11.6,-9.25 25.4,-13.72 39.3,-13.72 59.6,0 85.8,75.77 39.2,112.69 -80.4,63.91 -135,157.32 -153,258.15 17.3,-7.88 34.3,-17.4 51.3,-26.65 115,-63.3 216,-123.04 286.3,-212.39 21.5,-27.37 61.2,-32.07 88.6,-10.46 27.4,21.45 32.4,61.18 10.6,88.7 -100,127.33 -308.4,244.88 -409.2,284.45 135.1,313.15 148.7,676.07 160.7,1028.57 9.7,280.09 65.7,1158.05 47.4,1144.35 25.5,12.2 103.9,64.5 342.8,151.3 -1.1,-6.4 -5.5,-11.7 -4.4,-18.5 26.4,-166 34.5,-335.2 24.2,-502.8 -4.8,-83.84 120.8,-91.61 126.3,-7.6 10.9,176.7 2.2,355.1 -25.7,530.2 -2.2,14.4 -11.2,25.1 -21.2,34.2 177.9,58.6 362.2,106.4 547.5,154.3 54.9,-43 93.1,-413.3 104.4,-473.4 217.8,-1205.41 160.6,-1743.01 178.4,-2332.24 14.9,-292.37 12.3,-340.78 -93.8,-521.75 -129,-220.54 -92.8,-239.49 -526.5,-809.5 -609.9,-800.22 -424.1,-747.37 -1264.3,-1361.66 -83.1,-60.35 -192.6,-112.39 -261.6,-208.45 -86.1,198.79 -68.4,265.84 -122.7,385.89 -35.4,76.8 -149.4,22.86 -115.1,-52.31 19.3,-42.68 30.4,-90.56 42,-141.16 34.1,-147.23 66.7,-220.01 141.7,-376.65 4.3,-25.36 -4.1,-83.88 77.2,-423.26 332.5,-1402.87 298.6,-3629.826 242.7,-3695.935 -12.1,-16.3 -40.8,-27.409 -67.9,-37.035 -954.2,-362.81 -1995,-547.415 -3027.8,-546.694 h -55.6 c -603.7,0 -435.5,33.509 -832.2,79.717 -299.9,35.253 -527.92,79.111 -548.92,380.662 512.02,-170.657 830.22,-193.061 802.62,-187.413 434.2,2.957 857.9,655.598 540.5,1018.828 -86.6,101.21 -200.6,156.48 -301.6,205.61 -88.3,41.96 -185.1,80.7 -305.3,121.9 -47.9,15.81 -53.8,28.17 -53.8,28.17 0,0.23 -4.2,14.29 23.4,63.15 88.2,153.87 216.2,357.69 134.8,514.63 -3.2,6.14 -7.2,11.6 -12.1,16.26 -88.6,85.86 -221.6,83.81 -326,-79.22 -47.8,-81.39 -101.8,-158.99 -154.8,-235.94 -3.4,5.16 -3.8,11.68 -8.9,15.81 -132.11,106.1 -257.51,222.4 -376.16,346.51 -6.36,250.79 -32.67,1535.68 -39.91,2225.7 -0.61,83.48 -126.99,83.17 -126.38,-1.47 4.85,-461.98 12.39,-921.71 22.32,-1381.71 -110.72,-138.36 -198.48,-219.56 -247.68,-303.18 -121.11,69.25 -308.07,167.93 -358.11,192.94 -30.32,15.28 -68.84,2.96 -84.64,-28.39 -15.55,-31.12 -2.96,-69.1 28.39,-84.64 25.77,-12.89 135.48,-69.79 309.62,-165.92 -61.94,0.03 -125.2,3.64 -190.4,14.36 -34.31,7.66 -67.14,-17.51 -72.6,-51.82 -5.91,-34.3 17.29,-66.9 51.86,-72.59 141.39,-23.8 220.88,-18 282.1,-14.06 14.45,-53.37 45.76,-97.16 81.69,-140.9 125.86,-152.31 376.46,-415.12 594.57,-595.82 -69.9,-101.06 -117.96,-183.36 -175.85,-285.63 -3.56,5.15 -3.82,11.82 -9.02,15.88 -267.09,206.06 -280.62,269.18 -347.26,274.22 -33.32,2.96 -68.62,-24.22 -71.35,-59.02 -2.69,-34.8 20.02,-66.15 54.82,-68.84 89.57,-85.63 185.86,-168.57 286.27,-246.55 10.01,-7.66 21.72,-10.31 33.44,-11.29 -82.53,-156.98 -151.71,-310.35 -213.53,-483.62 -91.25,31.92 -182.15,66.56 -268.84,107.65 -76.95,35.52 -128.92,-78.77 -54.28,-114.02 91.92,-43.71 188.13,-80.48 284.75,-114.02 -14.82,-46.516 -30.74,-92.118 -43.89,-139.957 C 8873.11,1315.71 8372.59,1835 7955.01,2427.34 c -212.66,299.76 -243.06,460.95 -81.84,824.17 331.64,51.02 826.25,181.76 981.45,478.5 136.84,273.23 7.96,778.27 0.98,1487.77 130.25,199.77 383.51,475.81 544.19,694 z m 680.01,1797.25 c -213.26,222.02 -260.41,498.06 -265.61,845.1 -9.47,351.62 21.8,701.16 57.32,1031.9 250.39,-89.42 564.99,-25.02 668.59,1.33 1.2,0.26 82.9,28.16 141.1,66.3 108.9,-53.57 238,-76.16 364.8,-63.95 213.5,15.16 407.9,129.53 428.5,154.89 5.3,-8.61 30.1,-177.41 39.7,-250.04 34.4,-227.52 37.2,-204.92 53.3,-369.93 8.2,-83.47 12.5,-121.72 47.7,-162.93 84.6,-101.89 200.9,-18 314.9,53.72 86.5,55 108.8,59.81 156.9,110.99 61.4,13.19 135.3,39.46 208.6,14.86 49.1,-14.67 35.4,-18.65 60.7,-31.35 14.6,-7.43 29.1,-22.4 40.5,-33.81 62.1,-62.1 100.3,-151.48 82.7,-237.57 -11.4,-54.36 -22.4,-69.86 -31.1,-97.34 h 0.2 c -0.2,-0.27 -0.2,-0.5 -0.2,-0.76 -42.7,-74.07 -114.7,-160.95 -195,-194.73 -105.2,-39.84 -318.6,7.96 -240.9,-328.61 38.8,-165.62 83.7,-889.34 83.9,-1080.88 -5.3,-82.41 -48.7,-87.87 -146.3,-136.7 -17.2,-8.49 -34.5,-17.55 -51.6,-25.36 -150.3,-68.49 -469.1,-125.92 -633.9,-136.84 -10.9,6.67 -22.4,12.85 -37.9,11.11 -10.6,-0.99 -17.7,-8.27 -26.1,-13.65 -78.7,-1.21 -156.4,2.62 -232.6,20.32 -77.3,17.51 -69.2,19.18 -59.3,104.43 59.6,138.67 46.5,241.43 38.8,377.06 -0.6,18.35 -1.2,37.95 -3.6,56.86 501.5,211.37 724.7,409.7 750,424.56 29.9,18.01 39.5,56.9 21.5,86.77 -18.1,29.99 -57.3,39.61 -86.7,21.57 -29,-17.4 -281.7,-230.7 -763.7,-429.56 -183.5,50.76 -429,-158.15 -785.2,212.24 z m 1728.9,-1407.34 c -23.5,162.44 -46.3,325.1 -68.5,487.87 85.4,19.56 162.2,37.3 356.9,142.45 37.2,-167.28 66,-336.73 86.8,-505.15 -122.1,-51.89 -247.6,-92.34 -375.2,-125.17 z m -494.2,-76.57 c 2.9,161.79 -2.1,324.6 -14.4,486.58 65.2,5.53 188.3,23.08 316.2,50.75 22.2,-162.62 45.2,-325.2 68.6,-487.56 -122.2,-25.24 -245.6,-42.03 -370.4,-49.77 z m -429.7,5.99 c -52.9,168.19 -53,351.06 -33,532.82 74.4,-42.95 238.4,-57.62 322.1,-58.03 12.5,-163.53 17.7,-327.86 14.3,-490.86 -101,-1.4 -202.3,5.8 -303.4,16.07 z m 3833.5,4876.69 c -13.8,5.6 -28.9,21.1 -44.7,37.7 -23.7,24.4 -52.8,54.5 -95.5,71.3 -102.4,77.1 -196,168.3 -282.4,252 -39.7,47.7 -71.2,101.9 -31.8,147.7 62.5,71.4 303.4,-280 405.4,-293.4 71.9,-64 96.1,-62.2 163.7,-108.8 27.7,-19.5 67.6,-13.2 87.9,16.1 19.8,28.7 12.6,68.1 -16.3,87.8 -64.9,45.3 -91.1,48.8 -140.6,88.7 10.6,87.8 -36.2,341.2 -84.7,498.9 -72.8,254.8 -76.7,516.3 -94.6,638 -5.4,31.8 4.7,51.8 41,70.3 -0.2,-0.2 7.4,-0.5 15.1,-5.4 10.9,-9.4 19.5,-21.9 29.1,-36.9 7,-28.9 45.4,-235.5 144.6,-539.2 10.5,-32.4 45.3,-51.3 79.8,-40.5 33,10.9 51.1,46.6 40.2,79.8 -55.6,170.4 -103.4,346.2 -141.9,522.5 -1.5,6.7 -7.5,10 -10.8,15.6 -1.7,27.4 -61.7,271.7 19.7,311.4 13.4,6.7 53.6,13.3 63.6,13.3 51.5,3.9 67.5,-95.3 82.7,-136.1 16.1,-49.6 31,-140.4 82.4,-190.7 l 140.7,-565.8 c 7.2,-28.6 32.9,-47.8 61.2,-47.8 41.5,0 71.3,38.9 61.2,78.4 l -151.4,609 c 2.8,111.8 -31.9,87.5 2.6,198.3 4.9,18.6 9.9,29.4 17.5,34.7 l 34.1,5.2 c 97.4,-10.2 146.1,-280 165.9,-378.2 28.7,-143.8 47.3,-192.7 63.6,-251 l 37.8,-242.8 c 4.9,-31.1 31.8,-53.4 62.4,-53.4 38.5,0 68.5,34.4 62.5,72.9 l -28.2,181.4 c 37.1,72.8 47.1,167.3 73.3,180.4 5,3 19.3,2.5 41.7,-6 70.3,-26.5 61.5,-595.1 126.7,-1597.4 -288.3,-71.1 -582.4,-150.2 -860.3,-284.5 0.2,104.4 -15.9,243.5 -50,333.4 -24.2,83.3 -54,186.7 -173.2,233.1 z m -4705,-9263.89 c 42.4,-3.45 104.5,7.2 153.4,76 67.6,97.73 137.4,198.45 198.4,302.84 28.1,43.67 60.2,71.57 85.6,74.53 4.7,0.98 18.3,1.97 37.3,-13.31 35.6,-86.05 -63.8,-256.63 -107.4,-332.48 -6.7,-26.16 -191.5,-239.27 70.1,-325.55 160.5,-55.07 442.3,-162.16 551.6,-290.48 28.9,-32.94 47,-68.34 59.4,-104.13 l -703,300.83 c -77.3,33.29 -126.4,-83.62 -49.9,-115.99 l 772,-330.29 c -2.3,-31.46 -7.9,-60.84 -14.8,-87.979 l -788.3,290.939 c -78.9,28.77 -121.9,-89.54 -43.9,-118.5 l 787.9,-290.784 c -25.3,-51.743 -56.8,-99.885 -92.9,-143.213 l -893,291.847 c -79.65,25.96 -118.54,-93.973 -39.46,-119.939 L 10828,636.458 c -179.6,-143.136 -303.7,-115.692 -436.3,-87.072 -194.5,43.707 -656.09,145.07 -835.31,259.966 94.31,358.718 236.65,694.838 456.91,1034.558 z M 721.545,3566.63 c 510.515,-166.94 1031.295,-11.56 1532.925,144.12 8.02,2.54 11.66,3.07 15.67,3.64 21.48,-61.98 -6.41,-779.9 17.65,-1640.95 12.59,-506.25 -12.77,-1062.61 117.73,-1556.88 C 2451.26,316.864 2546,280.247 2714.27,260.384 4004,144.313 5297.58,31.4258 6543.5,406.743 c 116,33.055 243.37,82.41 307.54,195.713 99.7,170.09 31.2,375.242 7.89,537.064 -108.46,689.27 -40.98,1646.98 -124.41,1987.28 -47.2,189.8 -22.6,171.3 -24.61,196.62 52.62,6.41 395.75,-151.93 1017.73,-91.36 -149.2,-366.1 -92.76,-572.16 124.18,-877.77 443.29,-628.88 978.84,-1177.01 1591.19,-1629.432 8.34,-6.216 18.53,-7.885 28.58,-9.287 49.01,-33.661 100.49,-60.045 154.21,-81.879 2.61,-68.499 6.21,-138.627 30.21,-207.693 48.37,-136.504 176.45,-246.583 342.56,-294.688 96.23,-28.166 194.93,-39.4991 290.53,-50.8712 C 10662.7,37.0733 10538.8,0 11136.4,0 c 50.3,4.32228 1521,-56.2534 3126.5,554.581 134.8,47.459 163.4,110.421 171.1,241.353 65.2,1464.686 -101.3,2943.776 -266.3,3639.186 -135.6,570.04 -91.7,481.11 190,684.67 850.9,621.37 690.1,596.89 1290.3,1387.28 437.4,575.13 405.6,598.56 534.8,822.13 165.5,280.1 106.3,305.61 109.4,852.72 4.6,1246.72 -129.8,1716.92 -190.3,2169.48 -39.8,301.3 -78,459.5 -174.3,487.4 0,0 -0.1,0 -0.2,0 -8.2,90.5 -49,910.7 -50.4,936.5 -19,466.9 -37,533.1 -40.7,576.9 -5.7,56.6 -15.5,151 -116.5,189.2 -97,37.1 -172.1,7.6 -213.5,-73.4 -44.3,199.7 -86.1,557.1 -291.2,576.5 -31.5,7 -98.7,-4.3 -126.1,-26.9 -30.4,-20.2 -46.9,-49 -57.3,-75.4 -27.9,60.4 -74.7,119 -162.9,119 -190.6,0 -250.9,-130.2 -233.4,-321.8 -81.3,7.5 -199.1,-79.7 -175.3,-215.4 14.1,-101.5 21.4,-385.6 98,-654.1 59.6,-193.9 66.7,-311.9 75.8,-372.2 -131.9,130.8 -326.4,356.9 -465,202.1 -67.4,-78 -75.9,-186.1 34,-316.6 39.9,-38.8 272.5,-265.2 325.6,-282.9 18.5,-5.9 35,-22.9 54.3,-42.8 117.6,-121.4 130.7,-23.2 188.8,-222.5 39.5,-104.7 45.6,-248.5 42.1,-359.9 -64.1,-53.5 -26.5,-80.3 -66.3,-731.26 l -15,-250.11 c -25.1,-439.99 1.5,-941.57 -200.4,-1320.95 -0.2,-0.72 -0.5,-1.1 -0.7,-1.85 -0.6,-0.99 -0.8,-2.16 -1.3,-3.19 -41.5,-77.75 -126.9,-136.73 -209.3,-193.74 L 14027,7765.93 c -526.7,-372.51 -410.4,-204.62 -969.8,-577.89 -32.1,-24.15 -96.8,-84.16 -136.7,-105.01 -25.8,47.58 -38.2,193.25 -126.1,286.66 -127.9,136.76 -341.1,100.34 -583.3,90.82 -9.3,149.35 -41.9,638.16 -75.4,784.98 -47.3,205.11 5.5,122.86 164.4,182.86 103.1,43.22 176.7,128.24 220.6,192.91 13.3,18.73 26.7,37.64 28.1,44.16 20.1,20.55 47.2,114.9 54.3,146.85 26.7,128.32 -24.5,260.73 -117,353.18 -8.3,8.42 -16,16.04 -16,13.84 -14.1,18.76 -33.1,30.97 -50.6,40.22 -46.6,37.19 -131.8,58.19 -151.3,54.77 -57.7,9.41 -80.8,-2.01 -106.5,-6.1 48.7,148.71 81.5,284.87 95.2,411.25 0,0 0,0 0,0.12 19.5,182.63 2.9,347.85 -49.1,490.75 -59.1,162.4 -235.1,237.3 -394.7,173.2 -71.6,-29.2 -73.5,-25.7 -133.3,78.7 -132.3,229.8 -346.3,494.4 -628.9,440.7 -141.1,-26.4 -256.4,-121.7 -293.2,-242.6 -0.2,-1.4 -0.7,-2.7 -1.2,-4 -139.6,108.7 -254.1,245.2 -510.4,257.8 -193.8,10.4 -337.56,-146.8 -259.39,-435.7 -416.6,167.2 -645.25,-191.5 -445.49,-544.87 58.8,-102.92 116,-185.17 209.78,-248.14 -38.1,-348.51 -73.23,-718.79 -63.15,-1093.99 4.93,-325.43 44.65,-663.18 300.83,-929.97 156.52,-162.89 318.62,-246.82 510.42,-264.33 60,-5.42 119.7,2.69 176.5,9.86 152.4,18.8 111.1,7.05 142.9,10.88 1.7,-13.84 2.2,-34.08 2.7,-45.19 3.9,-68.53 16.8,-171.41 -6.4,-259.74 -83.4,31.28 -150.4,25.13 -199.4,23.81 -28.9,-1.14 -95,-1.71 -113.6,-23.47 -40.5,-26.99 -41.4,-79.83 -49.6,-111.56 -0.3,-0.22 -2.7,-3.67 -16.8,-12.58 -56.8,-39.16 -118.1,-63.19 -174,-100.95 l -149.3,-100.94 c -156.93,-106.07 -424.86,-269.37 -512.01,-421.91 -109.51,-77.97 -220.39,-227.48 -302.23,-338.74 -122.13,-166.1 -233.32,-268.26 -450.22,-565.64 -24.3,719.96 -156.02,1481.21 -213.68,1690.84 0,2.8 -0.72,5.53 -1.1,8.3 -0.08,0.57 0.45,1.02 0.38,1.55 -21.34,136.51 56.29,209.25 132.03,349.01 66.11,121.53 87.56,284.3 116.49,400.45 126.3,464.25 127.89,660.65 146.36,808.03 8.07,252.31 -273.28,366.22 -378.35,144.54 -10.88,-23.96 -22.48,-47.65 -34.08,-71.34 23.84,190.55 145.71,631.98 -7.13,738.08 -28.16,19.49 -76.04,36.66 -150.07,4.06 -98.56,-44.62 -113.84,-167.36 -145.87,-277.03 10.35,75.4 18.5,144.73 25.17,211.37 9.4,72.94 31.62,243.86 -117.47,298.41 -93.78,29.72 -146.13,-44.32 -173.27,-83.93 -18.92,-26.95 -38.59,-44.77 -52.09,-101.17 -54.28,-169.68 -86.35,-344.54 -114.02,-516.6 17.62,210.42 34.72,512.05 -173.73,499.8 -123.65,-3.56 -148.6,-113.79 -160.42,-166.71 -75.4,-384.49 -76.23,-221.19 -138.97,-1043.77 -72.63,73.05 -140.75,164.02 -231.01,226.57 -155.79,122.52 -378.72,72.59 -409.96,-106.97 -13.57,-79.49 16.07,-161.68 81.46,-225.59 79.27,-77.18 141.13,-169.18 238.4,-307.65 296.62,-410.53 193.21,11.6 275.81,-754.35 0,-59.13 20.58,-278.5 -11.94,-486.73 -27.18,-202.83 -89.38,-661.74 -146.85,-856.65 -71.99,22.89 -824.25,308.63 -903.1,336.87 -248.17,91.06 -290.97,63.8 -402.3,139.47 -99.24,67.17 -175.51,107.2 -302.08,143.02 -80.18,32.56 -41.4,22.55 -75.63,22.02 -1.82,0.34 -3.49,1.21 -5.31,1.56 -68.61,9.13 -91.13,22.47 -155.15,14.59 -1.59,13.72 -21.15,191.01 -11.71,201.1 72.02,-5.23 126.68,-0.23 195.22,-0.23 272.74,3.18 471.9,158.18 533.35,415.12 59.74,254.2 73.08,515.95 39.27,777.7 -9.89,85.02 4.93,116.71 68.12,141.54 266.33,112.55 359.89,590.82 -55.53,730.89 1.97,13.26 7.08,23.12 8.15,37.41 11.1,146.63 -27.41,316.9 -62.21,448.93 -35.1,132.45 -41.73,232.68 -102.42,328.77 74.6,215.16 -55.92,340.14 -266.3,362.92 123.16,51.78 93.93,166.27 -20.24,174.67 -487.9,-10.5 -831,-94.15 -1092.14,-136.15 -334.3,-53.53 -382.41,-86.51 -407.73,-93.07 -88.4,-31.16 -135.89,-70.84 -143.14,-193.47 -78.99,-2.96 -161.93,-33.93 -238.16,-90.45 -240.92,-178.35 -185.23,-489.19 -126.6,-891.57 -208.24,-65.05 -349.28,-344.42 -197.72,-707.76 68.8,-168.42 202.87,-215.24 382.54,-207.2 21.23,0.76 42.46,-2.09 62.93,4.43 29.15,10.01 46.66,14.56 57.27,16.68 11.94,-131.23 -24.9,301.97 43.63,-1144.6 -5,-4.28 -9.59,-9.29 -13.87,-15.54 -22.67,8.6 -47.76,8.45 -65.81,-10.12 -67.47,-68.58 -113.19,-148.37 -138.13,-230.67 -162.47,-84.53 -1581.5,-335.78 -1802.75,-378.91 41.61,107.46 38.95,63.75 110.57,532.36 75.33,538.93 50.92,329.68 101.19,733.01 88.78,726.94 128.1,564.62 128.1,868.52 0,162.17 7.99,111.98 16.78,175.47 44.63,193.52 31.18,229.95 33.56,256.56 0,528.73 63.74,479.9 72.32,521.75 216.97,360.76 287.02,409.43 405.51,599.12 160.18,247.34 -167.95,409.41 -324.81,251.25 -102.17,-99.96 -208.3,-207.32 -296.41,-331.84 -1.32,25.28 -34.52,865.7 -23.94,966.8 9.69,79 28.27,191.3 -7.16,290.7 l -5.92,21.6 c -12.59,48.4 -31.6,121.3 -115.01,149.1 -107.54,37.6 -216.13,-20.8 -227.32,-189.1 -10.46,-137 -8.18,-280.5 -12.33,-409.3 -11.13,50.3 4.04,112.6 -14.32,175.7 -47.31,265.6 -53.33,593.1 -255.45,593.1 -241.75,2.5 -132.78,-326.8 -132.78,-532.1 1.23,-63 6.42,-125.4 12.34,-187.7 -26.81,105.3 -11.87,119.9 -127.35,428.1 l -23.2,62.4 c -32.58,80.7 -98.73,116.6 -179.43,95.4 -32.83,-9.1 -108.35,-43.3 -101.93,-163.1 30.22,-520 100.34,-822.1 89.59,-946.18 -25.92,60.08 -65.9,182.38 -114.77,429.18 0,69.5 -49.911,99.5 -71.078,124.8 -60.222,69.8 -136.488,40 -174.74,24.8 -61.705,-24.6 -94.036,-83.3 -84.657,-153 68.608,-491.63 143.58,-981.31 148.579,-1444.72 0,-65.2 23.011,-102.58 25.668,-152.05 3.863,-31.12 -5.512,-79.72 -2.96,-121.53 1.917,-36.46 1.963,-57.05 2.838,-82.37 -8.206,-0.38 -15.86,0 -24.066,-0.68 -22.21,-2.13 -41.71,-15.81 -51.335,-36.05 C 562.797,8083.78 519.409,7505.39 416.241,7016.01 360.124,6743.54 339.429,6469.09 268.405,6214.36 181.774,5912.28 99.5873,5616.87 49.2391,5320.17 -109.705,4352.71 116.617,3762.84 721.545,3566.63" /></g><g
         transform="scale(1.55669)"
         id="g58"><path
           id="path60"
           style="fill:#040606;fill-opacity:1;fill-rule:nonzero;stroke:none"
           d="m 3306.5,16047.5 c 101.49,97.5 -43.72,252.5 -148.06,154.8 -186.01,-178.5 -745.34,-278.1 -1052.74,-69.4 -48.52,33.2 -115.44,20.4 -148.9,-28.7 -33.05,-49 -20.5,-115.4 28.44,-148.7 400.87,-271 1067.73,-150.2 1321.26,92" /></g><g
         transform="scale(1.60336)"
         id="g62"><path
           id="path64"
           style="fill:#040606;fill-opacity:1;fill-rule:nonzero;stroke:none"
           d="m 5811.6,16263.5 c -43.86,36.5 -109.64,30.8 -146.19,-13 -191.67,-229.1 -283.44,-542.8 -244.87,-839.2 7.68,-58.3 61.56,-97.2 116.55,-89.7 56.85,7.4 97.05,59.6 89.74,116.5 -31.27,239.8 42.64,493.5 197.76,678.7 36.95,44.1 31.27,109.7 -12.99,146.7" /></g><g
         transform="scale(1.58767)"
         id="g66"><path
           id="path68"
           style="fill:#040606;fill-opacity:1;fill-rule:nonzero;stroke:none"
           d="m 5972.75,15488.4 c -15.05,276.7 58.77,384.9 270.25,625.4 38.55,43.7 34.03,109.9 -9.43,148.3 -43.88,37.9 -110.31,34 -148.05,-9.7 -239.58,-272.2 -340.16,-430.6 -322.73,-774.6 7.14,-140 216.87,-128.5 209.96,10.6" /></g><g
         transform="scale(2.44468)"
         id="g70"><path
           id="path72"
           style="fill:#040606;fill-opacity:1;fill-rule:nonzero;stroke:none"
           d="m 16218.5,11258.1 c -37.6,-2.3 -66.3,-34.5 -64.2,-72 7.7,-130.7 9.3,-265.2 4.5,-399.8 -1.3,-37.5 28.3,-69.2 65.8,-70.6 0.8,0 1.6,0 2.4,0 36.5,0 66.9,28.9 68.2,65.8 4.8,138.9 3.2,277.7 -4.5,412.6 -2.2,37.6 -37.6,69.3 -72.2,64" /></g><g
         transform="scale(2.5414)"
         id="g74"><path
           id="path76"
           style="fill:#040606;fill-opacity:1;fill-rule:nonzero;stroke:none"
           d="m 16296.3,10496.9 c -6.6,142.5 -18.7,284.2 -35.6,421 -11.3,87.8 -140.5,69 -130.1,-16.1 16.6,-133.5 28.1,-271.8 34.6,-411.1 4.4,-87.8 134.8,-80.4 131.1,6.2" /></g><g
         transform="scale(2.57973)"
         id="g78"><path
           id="path80"
           style="fill:#040606;fill-opacity:1;fill-rule:nonzero;stroke:none"
           d="m 16156.7,10434.4 c -3.6,-35.5 22.4,-67.1 58,-70.7 2,-0.1 4.3,-0.2 6.3,-0.2 32.8,0 61.1,24.8 64.3,58.3 14.7,147.9 10.7,297.8 -12,445.7 -5.4,35.3 -38.9,59.4 -73.7,54.1 -35.1,-5.4 -59.3,-38.3 -54.1,-73.5 21,-137.3 24.8,-276.4 11.2,-413.7" /></g><g
         transform="scale(2.1997)"
         id="g82"><path
           id="path84"
           style="fill:#040606;fill-opacity:1;fill-rule:nonzero;stroke:none"
           d="m 15683.2,1670.27 c 235.7,-179.16 431.6,-343.95 511.5,-343.95 83.7,0 105.3,117.11 26.3,146.79 -56.8,21.32 -108.6,60.69 -163.4,102.42 -567.2,431.97 -378.8,252.58 -776.1,843.57 -22.8,34.96 -70.1,45.28 -104.7,21.92 -35,-22.78 -45.1,-69.88 -22,-104.79 315.8,-462.97 262.5,-464.29 528.4,-665.96" /></g><g
         transform="scale(1.5455)"
         id="g86"><path
           id="path88"
           style="fill:#040606;fill-opacity:1;fill-rule:nonzero;stroke:none"
           d="m 16150,2125.34 c 114.8,0 150,156 46,205.63 -91,42.51 -177,96.86 -254.9,161.3 -46,38.37 -114.2,31.58 -151.7,-14.29 -37.9,-45.94 -31.6,-113.76 14.3,-151.67 70.9,-58.88 273,-200.97 346.3,-200.97" /></g><g
         transform="scale(1.5651)"
         id="g90"><path
           id="path92"
           style="fill:#040606;fill-opacity:1;fill-rule:nonzero;stroke:none"
           d="m 16155,2397.42 c 100.8,0 145,127.6 66.1,190.09 l -346.1,272.95 c -45.4,35.78 -112.8,28.69 -149.8,-17.51 -36.6,-46.19 -28.7,-113.15 17.5,-149.76 336.3,-255.71 347.4,-295.77 412.3,-295.77" /></g><g
         transform="scale(1.60545)"
         id="g94"><path
           id="path96"
           style="fill:#040606;fill-opacity:1;fill-rule:nonzero;stroke:none"
           d="m 16113,3257.77 c 41.5,-40.67 107.2,-38.86 146.8,1.62 40.2,40.92 39.4,106.64 -1.6,146.81 -82.3,80.67 -167,158.96 -253.4,235.2 -43.5,37.31 -108.7,32.83 -146.9,-9.71 -37.6,-43.42 -33.2,-108.7 9.8,-146.82 83.9,-73 165.5,-148.86 245.3,-227.1" /></g><g
         transform="scale(1.2458)"
         id="g98"><path
           id="path100"
           style="fill:#040606;fill-opacity:1;fill-rule:nonzero;stroke:none"
           d="m 16166.2,14130.3 c 73.7,0 133.8,60 133.8,133.7 v 642.4 c 0,73.6 -60.1,133.8 -133.8,133.8 -73.7,0 -133.8,-60.2 -133.8,-133.8 V 14264 c 0,-73.7 60.1,-133.7 133.8,-133.7" /></g><g
         transform="scale(1.3589)"
         id="g102"><path
           id="path104"
           style="fill:#040606;fill-opacity:1;fill-rule:nonzero;stroke:none"
           d="m 15143.2,15620.6 c 142.3,-20.4 289.8,-41.2 421.6,-90.3 270.6,-101.8 325.2,-244.9 386.2,-429.8 40.7,-121 82.4,-246 92,-369.6 12.1,-163.2 257,-143.6 244.3,18.7 -15.2,204.4 -137.3,564.7 -215.6,689.2 -197.7,312.2 -567.3,378 -894,424.7 -65.6,8.4 -129.4,-36.9 -138.5,-104.2 -9.6,-67.1 36.9,-129.1 104,-138.7" /></g><g
         transform="scale(1.43134)"
         id="g106"><path
           id="path108"
           style="fill:#040606;fill-opacity:1;fill-rule:nonzero;stroke:none"
           d="m 9825.59,15242.3 c 54.64,-1.6 114.72,-61.7 125.13,-102.8 6.36,-29.1 -12.72,-69.6 -45.06,-93.9 -46.81,-35.3 -113.67,-43.5 -161.46,-43.9 -64.13,-0.7 -115.97,-53.4 -115.06,-117.9 0.9,-63.8 52.74,-115 116.46,-115 46.53,6.7 174.45,-3.9 300.2,90.7 257.3,194.4 121.3,543 -149.64,606.6 -29.63,222 -50.52,447.4 -63.23,671.2 -10.34,162.7 -241.31,134.1 -232.93,-13.2 14.53,-249.9 39.12,-502 73.71,-751.2 12.57,-80.4 65.39,-128.3 151.88,-130.6" /></g><g
         transform="scale(1.37773)"
         id="g110"><path
           id="path112"
           style="fill:#040606;fill-opacity:1;fill-rule:nonzero;stroke:none"
           d="m 11571.9,16039.4 c 40.9,-3.5 119.1,-77.9 105.8,-118.9 -1.4,-5.2 -5.7,-14.4 -16.1,-30.2 -12.7,-19.4 -25,-32.2 -60.4,-45.6 -157.5,36.6 -211.9,-197.2 -57.7,-234.9 159.7,-39.9 317.7,84.3 365.8,239.4 68.9,224.3 -168.5,450.8 -368.7,430.3 -66.6,-8.8 -112.9,-69.5 -104.4,-135.9 8.5,-65.9 70.4,-111.8 135.7,-104.2" /></g><g
         transform="scale(1.35704)"
         id="g114"><path
           id="path116"
           style="fill:#040606;fill-opacity:1;fill-rule:nonzero;stroke:none"
           d="m 7352.02,16278.2 c -64.29,21.8 -133.86,-11.5 -156.41,-75.8 -22.07,-64.1 11.51,-134.1 75.81,-156.4 87.42,-30.4 175.54,-68.2 192.86,-158.1 -29.77,-56.6 -84.45,-123.3 -141.05,-124.3 -161.24,-2.8 -159.39,-245.6 1.92,-245.6 0.48,0 1.44,0 1.92,0 139.64,2.4 272.06,98.1 354.59,255.5 30.88,57.1 38.62,106.8 22.04,175.1 -16.29,65.7 -180.1,269.4 -351.68,329.6" /></g><g
         transform="scale(1.2661)"
         id="g118"><path
           id="path120"
           style="fill:#040606;fill-opacity:1;fill-rule:nonzero;stroke:none"
           d="m 10217.8,16063.8 c 392.9,-408.1 1147.6,-540 1466.1,-129.4 107.6,137.9 -102.3,299.4 -207.8,161.5 -166.8,-215.7 -716.6,-216.2 -1068,150.4 -50.9,52 -134.2,53.7 -186.2,3.6 -52.4,-50.4 -54.5,-133.7 -4.1,-186.1" /></g><g
         transform="scale(1.44408)"
         id="g122"><path
           id="path124"
           style="fill:#040606;fill-opacity:1;fill-rule:nonzero;stroke:none"
           d="m 8394,15898.9 c 76.24,69.5 163.21,124.5 257.95,163.7 59.06,24.1 87.46,91.5 63.08,150.6 -24.31,59.5 -94.25,86.8 -150.55,62.9 -119.93,-49.4 -229.48,-118.8 -325.53,-206.3 -47.37,-43.1 -50.48,-116.1 -7.69,-163.2 41.41,-46 114.61,-51.5 162.74,-7.7" /></g><g
         transform="scale(1.45972)"
         id="g126"><path
           id="path128"
           style="fill:#040606;fill-opacity:1;fill-rule:nonzero;stroke:none"
           d="m 10041.9,16064.3 c 92.3,6.9 185.5,5.7 278.3,-3.9 4,-0.4 8,-0.6 12,-0.6 144.5,0 154,213 12.1,227.7 -106.2,11.1 -213.2,12.5 -320.3,4.2 -153.46,-12 -130.17,-248.9 17.9,-227.4" /></g><g
         transform="scale(1.82463)"
         id="g130"><path
           id="path132"
           style="fill:#040606;fill-opacity:1;fill-rule:nonzero;stroke:none"
           d="m 15818.6,13404.8 c 266.1,20.8 317.6,-8.7 355.5,-8.7 110.1,0 125.9,160.7 16.7,181.1 -133.4,25.3 -276.9,18.9 -386.4,9.6 -50.4,-3.9 -87.8,-48 -83.9,-98.3 4.3,-50.3 51.1,-88.7 98.1,-83.7" /></g><g
         transform="scale(1.68482)"
         id="g134"><path
           id="path136"
           style="fill:#040606;fill-opacity:1;fill-rule:nonzero;stroke:none"
           d="m 16210.7,14712.5 c -145.7,27.6 -300.6,20.3 -418.9,10.6 -54.5,-4.3 -95,-52 -90.8,-106.5 4.3,-54.5 55.3,-97.1 106.3,-90.6 283.1,22.8 344.8,-9.6 385.3,-9.6 46.7,0 88.1,33 97.4,80.5 10,53.7 -25.6,105.5 -79.3,115.6" /></g><g
         transform="scale(1.38261)"
         id="g138"><path
           id="path140"
           style="fill:#040606;fill-opacity:1;fill-rule:nonzero;stroke:none"
           d="m 9157.77,15792.2 c 115.43,0 213.51,109.6 213.51,253.9 0,138.5 -98.08,253.9 -213.51,253.9 -281.35,0 -285.04,-507.8 0,-507.8" /></g><g
         transform="scale(1.40414)"
         id="g142"><path
           id="path144"
           style="fill:#040606;fill-opacity:1;fill-rule:nonzero;stroke:none"
           d="m 10651.8,16300 c -119.2,0 -210.2,-113.6 -210.2,-250 0,-142.1 91,-250 210.2,-250 113.7,0 210.2,107.9 210.2,250 0,136.4 -96.5,250 -210.2,250" /></g><g
         transform="scale(1.66202)"
         id="g146"><path
           id="path148"
           style="fill:#040606;fill-opacity:1;fill-rule:nonzero;stroke:none"
           d="m 16122.4,14424.4 c -100.8,0 -177.6,-96.1 -177.6,-211.3 0,-119.9 76.8,-211.2 177.6,-211.2 96,0 177.6,91.3 177.6,211.2 0,115.2 -81.6,211.3 -177.6,211.3" /></g><g
         transform="scale(1.8179)"
         id="g150"><path
           id="path152"
           style="fill:#040606;fill-opacity:1;fill-rule:nonzero;stroke:none"
           d="m 16137.6,13087 c -92.2,0 -162.4,-87.8 -162.4,-193.1 0,-109.7 70.2,-193.2 162.4,-193.2 87.8,0 162.4,83.5 162.4,193.2 0,105.3 -74.6,193.1 -162.4,193.1" /></g><g
         transform="scale(1.7375)"
         id="g154"><path
           id="path156"
           style="fill:#040606;fill-opacity:1;fill-rule:nonzero;stroke:none"
           d="m 16242.8,12796 c -17.6,50.1 -73.4,76.7 -121.8,59.4 -23.6,-7.7 -62.2,20.6 -76.8,55.6 -21.8,52.3 -15.4,119.6 -5.7,195.3 30.4,232.5 71.2,464.1 121.5,688.7 11.6,51.8 -21,102.9 -72.7,114.5 -52.9,10.5 -102.7,-21.4 -114.7,-72.9 -51.4,-229.8 -92.9,-467.3 -124.4,-705.6 -12.8,-100 -21,-197.9 18.7,-293.4 101,-244.8 433.1,-208.3 375.9,-41.6" /></g><g
         transform="scale(1.99648)"
         id="g158"><path
           id="path160"
           style="fill:#040606;fill-opacity:1;fill-rule:nonzero;stroke:none"
           d="m 15865.5,11700.8 c 41.4,15.5 83.2,29.7 125.6,42.7 l -72.8,-62.3 c -78.2,-64 -59.5,-169.6 49.6,-210.5 l 136.3,-51.3 c 104,-39.5 161.2,117.7 58.7,156.2 l -77.3,29.1 c 119.6,102.5 214.4,165.8 193.1,272.4 -8.5,60.2 -62.2,95.2 -121,82.5 -118.7,-25.5 -236.4,-59.8 -350.2,-102.3 -43.4,-16.1 -65.3,-64.2 -49.3,-107.4 16.3,-43.2 64.9,-65.1 107.3,-49.1" /></g><g
         transform="scale(1.80945)"
         id="g162"><path
           id="path164"
           style="fill:#040606;fill-opacity:1;fill-rule:nonzero;stroke:none"
           d="m 16176.1,11849.3 c 49.2,94.7 123.9,195.5 81.8,319.1 -47.3,-14.8 -95.4,74.5 -142.2,-1.2 -7.1,-5.7 -14.9,-10.6 -21.6,-16.7 -234.4,-215.2 -499.3,-327.1 -822.4,-243.9 -30.8,7.9 -62.9,12.2 -91,-10.7 -25.9,-27.1 -39.2,-53.2 -33.7,-96.6 27.7,-218.1 129.9,-301 414.9,-326 49.4,-39.7 104.6,-27.3 157.9,-13.9 216.3,54.1 359.3,203.1 456.3,389.9" /></g><g
         transform="scale(1.75384)"
         id="g166"><path
           id="path168"
           style="fill:#040606;fill-opacity:1;fill-rule:nonzero;stroke:none"
           d="m 10114.8,14682.1 c -41.7,-62.2 -85.2,-134 -68.6,-207 21.5,-94.6 133,-139.1 229.9,-140.3 216.4,-2.7 408.7,128.3 586.5,251.7 340.7,236.6 1302.9,845.7 1272.3,1251.8 -10.3,136.9 -128.4,248.9 -260.7,285.6 -635.3,176.1 -1400,-906 -1759.4,-1441.8" /></g><g
         transform="scale(1.80238)"
         id="g170"><path
           id="path172"
           style="fill:#040606;fill-opacity:1;fill-rule:nonzero;stroke:none"
           d="m 9432.88,14679.4 c 109.19,48.9 172.94,167.7 252.33,251.1 280.91,294.7 600.09,570.3 723.09,913 59.9,167 34.7,282.7 -113.2,379.3 -60.6,39.6 -130,68.5 -202.4,71.3 -147.16,5.9 -235.16,-111.1 -322.6,-211.5 -248.78,-285.1 -463.61,-687.2 -563.09,-1128.4 -52.65,-234 84.22,-338.2 225.87,-274.8" /></g></g></g></svg>