<svg xmlns="http://www.w3.org/2000/svg" xmlns:xlink="http://www.w3.org/1999/xlink" xmlns:inkscape="http://www.inkscape.org/namespaces/inkscape" version="1.1" width="1867" height="1162.5415" viewBox="0 0 1867 1162.5415">
<defs>
<g id="font_0_3">
</g>
<g id="font_0_2">
</g>
<g id="font_0_0">
</g>
<g id="font_0_1">
</g>
</defs>
<path transform="matrix(1,0,0,-1,128,1034.5415)" d="M0 900.54159C0 903.8553 2.686292 906.54159 6 906.54159H1605C1608.3137 906.54159 1611 903.8553 1611 900.54159V6C1611 2.686279 1608.3137 0 1605 0H6.000002C2.686294 0 0 2.686279 0 6V900.54159Z" fill="#ffffff"/>
<path transform="matrix(1,0,0,-1,144,460.26277)" d="M3.624905 25.086863C5.834044 25.086863 7.624906 26.877724 7.624906 29.086863 7.624906 31.296002 5.834044 33.08686 3.624905 33.08686V25.086863ZM11.668849 37.94333 13.058105 34.19233H13.058106L11.668849 37.94333ZM88.6957 50.21237 88.5492 54.209688 88.6957 50.21237ZM217.96756 50.21237 217.8049 46.21568 217.96756 50.21237ZM532.41268 22.424204 532.0812 18.437962 532.41268 22.424204ZM659.1657 10.398914 658.70657 6.425358 659.1657 10.398914ZM678.50369 8.61137 678.322 4.615494 678.50369 8.61137ZM663.2283 12.61137C661.0191 12.61137 659.2283 10.820507 659.2283 8.61137 659.2283 6.402229 661.0191 4.61137 663.2283 4.61137V12.61137ZM3.624905 33.08686C2.381288 33.08686 2.067972 33.220567 2.208646 33.165964 2.30693 33.127809 2.821573 32.91729 3.298374 32.30944 3.862253 31.59057 4.068958 30.704567 3.97999 29.917332 3.906194 29.264344 3.655288 28.873627 3.610365 28.80483 3.548755 28.710478 3.541014 28.723845 3.663933 28.844998 3.912793 29.090287 4.369178 29.459252 5.060181 29.928734 6.420242 30.852789 8.215123 31.84928 9.851507 32.682497 10.65652 33.092393 11.394211 33.448106 11.981058 33.71946 12.274582 33.855188 12.523346 33.966558 12.718676 34.051134 12.81619 34.093358 12.89565 34.12685 12.957335 34.15216 12.98792 34.16471 13.012038 34.17439 13.030145 34.18152 13.03908 34.18504 13.045942 34.1877 13.050861 34.189584 13.055825 34.191488 13.058165 34.192354 13.058105 34.19233L10.279592 41.69432C9.001138 41.22082 3.97499 38.86321 .564319 36.545927-.305953 35.954645-1.2094 35.27442-1.951877 34.542604-2.324626 34.1752-2.735912 33.71804-3.088062 33.17874-3.423524 32.664995-3.851964 31.854918-3.969407 30.815716-4.102021 29.642268-3.805077 28.4032-2.996189 27.37198-2.27438 26.451777-1.35996 25.96962-.686249 25.708107 .605278 25.206778 2.145416 25.086863 3.624905 25.086863V33.08686ZM13.058106 34.19233C36.584936 42.90597 63.406648 45.282865 88.8422 46.215055L88.5492 54.209688C62.976774 53.27248 35.07275 50.876974 10.279591 41.69432L13.058106 34.19233ZM88.8422 46.215055C131.70764 47.78604 174.98046 47.958536 217.8049 46.21568L218.1302 54.209066C175.06874 55.961565 131.58715 55.786996 88.5492 54.209688L88.8422 46.215055ZM217.8049 46.21568C323.04826 41.932519 426.76139 27.195408 532.0812 18.437962L532.74417 26.410447C428.1243 35.109689 323.5139 49.920194 218.1302 54.209066L217.8049 46.21568ZM532.0812 18.437962C574.3378 14.924278 616.65457 11.284698 658.70657 6.425358L659.6249 14.372475C617.4322 19.24807 575.00119 22.896733 532.74417 26.410447L532.0812 18.437962ZM658.70657 6.425358C665.1318 5.682884 671.6702 4.91785 678.322 4.615494L678.6853 12.607243C672.36099 12.894714 666.10476 13.623684 659.6249 14.372475L658.70657 6.425358ZM678.322 4.615494C678.63076 4.601463 678.837 4.590282 678.96218 4.581997 679.0274 4.577682 679.04519 4.575798 679.03286 4.577003 679.0276 4.577515 678.98989 4.581181 678.9332 4.589024 678.91549 4.591484 678.7267 4.615883 678.4865 4.679874 678.41439 4.6991 678.0291 4.798012 677.5875 5.042427 677.38839 5.152691 676.8451 5.469181 676.3619 6.094147 675.77908 6.848011 675.2333 8.169132 675.6999 9.70327 676.07937 10.951035 676.92678 11.601322 677.231 11.814384 677.6027 12.074699 677.9348 12.21154 678.0876 12.270267 678.40719 12.393147 678.669 12.444824 678.7451 12.459713 678.94009 12.497883 679.08969 12.510838 679.11129 12.512825 679.1599 12.517296 679.1919 12.519058 679.1964 12.51931 679.20639 12.519863 679.18997 12.518856 679.1337 12.517376 679.08218 12.516018 679.013 12.514668 678.9243 12.513458 678.1799 12.503323 676.6358 12.509998 674.71316 12.524551 670.92849 12.5532 665.7934 12.61137 663.2283 12.61137V4.61137C665.75497 4.61137 670.8008 4.553936 674.6526 4.52478 676.5481 4.510433 678.18606 4.502663 679.03329 4.514202 679.23507 4.516949 679.45809 4.521473 679.64187 4.531719 679.65408 4.532398 679.954 4.544529 680.2819 4.608715 680.3662 4.625221 680.63449 4.678562 680.9585 4.803146 681.11349 4.862728 681.4473 5.000435 681.82028 5.261623 682.12576 5.475563 682.97396 6.126732 683.3537 7.375397 683.82058 8.910431 683.27456 10.23246 682.691 10.987247 682.20718 11.613132 681.66268 11.930553 681.46176 12.041759 681.0168 12.288059 680.6261 12.388901 680.5465 12.410103 680.29159 12.478043 680.0799 12.506577 680.0309 12.513363 679.94308 12.525528 679.8658 12.533707 679.8125 12.538925 679.70407 12.549545 679.59158 12.557846 679.4904 12.564537 679.28298 12.578266 679.01248 12.592373 678.6853 12.607243L678.322 4.615494Z" fill="#1e1e1e"/>
<path transform="matrix(1,0,0,-1,325.9676,470.6847)" d="M20.562066 63.297014C22.771204 63.297014 24.562066 65.087879 24.562066 67.29701 24.562066 69.50615 22.771204 71.29701 20.562066 71.29701V63.297014ZM2.280373 68.840808-.919626 66.440799 2.280373 68.840808ZM1.061594 85.00993-2.860729 85.7944 1.061594 85.00993ZM38.843759 183.6498 35.20429 185.3094 38.843759 183.6498ZM57.125448 222.81324 60.239099 220.30223 57.125448 222.81324ZM90.19499 224.68204 89.94889 228.67446 90.19499 224.68204ZM306.08146 244.10126 306.28709 240.10654 306.08146 244.10126ZM516.3615 236.13857 515.8536 232.17095 516.3615 236.13857ZM576.97549 222.40699 578.37997 226.1523 576.97549 222.40699ZM596.15097 207.70038 592.3435 206.47425 596.15097 207.70038ZM585.0195 158.54294 588.7602 157.12635 585.0195 158.54294ZM542.52468 60.146837 538.84078 61.7054 542.52468 60.146837ZM526.68057 14.889496 522.7004 15.287521 526.68057 14.889496ZM517.426 14.238281C515.2279 14.018463 513.6241 12.058304 513.84396 9.860123 514.0637 7.661942 516.0239 6.058167 518.2221 6.277985L517.426 14.238281ZM20.562066 71.29701C19.224204 71.29701 17.481738 71.13478 15.867115 70.99274 14.153911 70.842029 12.394858 70.69342 10.712244 70.65422 9.00259 70.614368 7.587108 70.695529 6.540705 70.920169 5.412668 71.16234 5.333221 71.437 5.480373 71.2408L-.919626 66.440799C.641132 64.35979 2.995036 63.499086 4.861539 63.098375 6.809675 62.68016 8.949921 62.610979 10.898626 62.656389 12.87437 62.702425 14.876307 62.87468 16.568165 63.023515 18.358605 63.181016 19.665276 63.297014 20.562066 63.297014V71.29701ZM5.480373 71.2408C4.474803 72.58156 4.006349 74.36252 4.000063 76.69516 3.993681 79.0639 4.458428 81.59802 4.983917 84.225467L-2.860729 85.7944C-3.374762 83.22423-4.008739 79.95128-3.999907 76.6736-3.990979 73.35982-3.330283 69.655017-.919626 66.440799L5.480373 71.2408ZM4.983917 84.225467C11.743173 118.02174 27.913254 150.03852 42.483228 181.9902L35.20429 185.3094C20.853312 153.83797 4.12884 120.74223-2.860729 85.7944L4.983917 84.225467ZM42.483228 181.9902C45.23789 188.03113 47.87712 195.63791 50.578878 202.29703 53.390405 209.22672 56.41929 215.56568 60.239099 220.30223L54.011796 225.32425C49.413034 219.6218 46.02733 212.35765 43.16578 205.30469 40.194459 197.98116 37.902128 191.22571 35.20429 185.3094L42.483228 181.9902ZM60.239099 220.30223C59.92644 219.91454 59.789125 220.03885 60.602518 220.30254 61.296033 220.52736 62.31161 220.73561 63.657899 220.89809 66.337909 221.2215 69.77642 221.3018 73.39146 221.25414 76.980068 221.20682 80.60078 221.0364 83.624149 220.88993 86.4674 220.75217 89.15088 220.61008 90.4411 220.6896L89.94889 228.67446C89.23176 228.63025 87.207698 228.72568 84.011318 228.88056 80.99505 229.0267 77.24403 229.20404 73.496929 229.25345 69.77624 229.3025 65.91503 229.22852 62.699434 228.84046 61.09791 228.64719 59.51671 228.36042 58.135484 227.91265 56.874135 227.50376 55.18411 226.77793 54.011796 225.32425L60.239099 220.30223ZM90.4411 220.6896C126.618328 222.91971 162.63629 226.85655 198.54047 230.6883 234.47805 234.52359 270.31205 238.25489 306.28709 240.10654L305.87586 248.09597C269.652 246.2315 233.61255 242.47666 197.69152 238.64313 161.73708 234.80602 125.911258 230.89131 89.94889 228.67446L90.4411 220.6896ZM306.28709 240.10654C376.37416 243.71396 446.25953 241.0809 515.8536 232.17095L516.8695 240.10617C446.8007 249.07692 376.43769 251.72782 305.87586 248.09597L306.28709 240.10654ZM515.8536 232.17095C535.9831 229.59381 556.82327 225.69207 575.571 218.66167L578.37997 226.1523C558.7897 233.49864 537.24868 237.49707 516.8695 240.10617L515.8536 232.17095ZM575.571 218.66167C578.86776 217.42539 582.71829 215.77411 585.98226 213.61438 589.30636 211.41486 591.52566 209.0141 592.3435 206.47425L599.95846 208.9265C598.3283 213.98845 594.35226 217.66883 590.3968 220.28607 586.3812 222.94313 581.86807 224.84427 578.37997 226.1523L575.571 218.66167ZM592.3435 206.47425C594.38619 200.13132 593.2012 192.18521 590.4913 183.62519 587.7496 174.96482 583.9778 167.08673 581.2787 159.95957L588.7602 157.12635C591.095 163.2915 595.33139 172.40766 598.1182 181.21067 600.9368 190.11403 602.8007 200.10047 599.95846 208.9265L592.3435 206.47425ZM581.2787 159.95957C568.59347 126.46259 552.94216 95.03586 538.84078 61.7054L546.2085 58.588274C560.01089 91.21196 576.0454 123.551288 588.7602 157.12635L581.2787 159.95957ZM538.84078 61.7054C536.0075 55.00856 532.26089 47.148576 529.24118 39.53604 526.1602 31.76912 523.5274 23.558045 522.7004 15.287521L530.66067 14.491486C531.3796 21.680619 533.70486 29.092347 536.6774 36.586244 539.7113 44.234514 543.1138 51.273378 546.2085 58.588274L538.84078 61.7054ZM522.7004 15.287521C522.6206 14.490097 522.45468 14.399155 522.5687 14.542908 522.7141 14.726151 522.85079 14.721893 522.614 14.653793 522.29049 14.56076 521.7683 14.490829 520.7919 14.439133 519.95907 14.39505 518.6556 14.361237 517.426 14.238281L518.2221 6.277985C519.2063 6.376404 520.0523 6.388779 521.2148 6.450317 522.2335 6.504257 523.55227 6.599365 524.8251 6.965424 526.18466 7.356415 527.6731 8.10527 528.8356 9.570282 529.9667 10.995804 530.48306 12.715256 530.66067 14.491486L522.7004 15.287521Z" fill="#1e1e1e"/>
<path transform="matrix(1,0,0,-1,306.02998,993.0272)" d="M33.18692 562.2389C35.396059 562.2389 37.18692 564.0298 37.18692 566.2389 37.18692 568.44808 35.396059 570.2389 33.18692 570.2389V562.2389ZM25.71174 552.2636 29.570796 551.2111 25.71174 552.2636ZM7.023792 460.85517 10.986558 460.31068 7.023792 460.85517ZM6.942541 250.6564 10.907452 251.18506 6.942541 250.6564ZM61.381345 120.08453 58.332166 117.495609 61.381345 120.08453ZM169.77144 48.42035 171.14421 52.17737 169.77144 48.42035ZM343.89436 33.226198 342.38249 36.929445 343.89436 33.226198ZM412.796 90.265079 409.65263 92.73877 412.796 90.265079ZM442.9405 132.75983 439.41276 134.64533 442.9405 132.75983ZM467.5598 191.50498 471.3134 190.12274 467.5598 191.50498ZM507.86076 316.30796 511.75267 315.38426 507.86076 316.30796ZM539.224 450.86119 543.1513 450.1019 539.224 450.86119ZM561.97457 566.72647 558.0728 567.6075 561.97457 566.72647ZM558.64328 585.65817 560.52987 589.1853 558.64328 585.65817ZM531.585 582.97946C529.60916 581.9915 528.8082 579.5888 529.7962 577.61288 530.7841 575.63699 533.1868 574.83609 535.1627 575.82406L531.585 582.97946ZM33.18692 570.2389C30.299349 570.2389 28.231617 568.61526 26.930357 567.0153 25.653563 565.44546 24.77152 563.51119 24.140789 561.792 22.941857 558.52407 22.117558 554.28726 21.852684 553.31607L29.570796 551.2111C30.151764 553.3413 30.571084 556.0922 31.651293 559.03659 32.160135 560.4235 32.676546 561.4016 33.136804 561.9675 33.572595 562.50338 33.580518 562.2389 33.18692 562.2389V570.2389ZM21.852684 553.31607C13.627754 523.15798 7.315413 492.36216 3.061026 461.39967L10.986558 460.31068C15.193279 490.92625 21.435799 521.3828 29.570796 551.2111L21.852684 553.31607ZM3.061026 461.39967C-6.438632 392.26329-6.240745 319.26554 2.977629 250.12775L10.907452 251.18506C1.780616 319.63633 1.58822 391.91166 10.986558 460.31068L3.061026 461.39967ZM2.977629 250.12775C9.399764 201.96173 26.322073 155.19638 58.332166 117.495609L64.43052 122.67346C33.651716 158.92404 17.181706 204.12818 10.907452 251.18506L2.977629 250.12775ZM58.332166 117.495609C87.44969 83.20163 126.82017 59.855409 168.39867 44.66327L171.14421 52.17737C130.46002 67.042789 92.40771 89.722537 64.43052 122.67346L58.332166 117.495609ZM168.39867 44.66327C224.666 24.104065 285.50395 5.067383 345.40626 29.52295L342.38249 36.929445C285.6691 13.775818 227.63072 31.538086 171.14421 52.17737L168.39867 44.66327ZM345.40626 29.52295C374.83085 41.535707 397.05369 63.79297 415.93937 87.79138L409.65263 92.73877C391.09049 69.15155 369.9118 48.168519 342.38249 36.929445L345.40626 29.52295ZM415.93937 87.79138C426.6343 101.38162 437.99427 115.019809 446.4682 130.87433L439.41276 134.64533C431.35545 119.57034 420.56169 106.601108 409.65263 92.73877L415.93937 87.79138ZM446.4682 130.87433C456.6822 149.98432 463.98228 170.21436 471.3134 190.12274L463.8062 192.8872C456.42594 172.8453 449.31538 153.17276 439.41276 134.64533L446.4682 130.87433ZM471.3134 190.12274C486.49699 231.3552 501.50624 272.21266 511.75267 315.38426L503.96888 317.23167C493.8508 274.60087 479.01365 234.18442 463.8062 192.8872L471.3134 190.12274ZM511.75267 315.38426C522.3229 359.9203 534.41146 404.89576 543.1513 450.1019L535.29678 451.62043C526.5985 406.62965 514.61398 362.0829 503.96888 317.23167L511.75267 315.38426ZM543.1513 450.1019C550.6644 488.96287 557.2022 527.43148 565.87637 565.8454L558.0728 567.6075C549.36306 529.0357 542.7637 490.2426 535.29678 451.62043L543.1513 450.1019ZM565.87637 565.8454C566.5654 568.8973 567.8083 573.32217 567.70718 577.34286 567.6536 579.47219 567.2369 581.74569 566.061 583.88717 564.8649 586.0653 563.02267 587.8519 560.52987 589.1853L556.75668 582.131C558.02609 581.452 558.6739 580.71908 559.04867 580.03659 559.44357 579.3174 559.67837 578.3891 559.7097 577.1417 559.7784 574.4088 558.9247 571.3802 558.0728 567.6075L565.87637 565.8454ZM560.52987 589.1853C554.49636 592.4125 548.8724 591.56869 544.0387 589.60916 541.6897 588.65689 539.45028 587.41439 537.41378 586.24166 535.3007 585.0248 533.458 583.91598 531.585 582.97946L535.1627 575.82406C537.31259 576.8989 539.4786 578.19906 541.406 579.30899 543.41006 580.46298 545.243 581.46499 547.04428 582.1951 550.511 583.6005 553.4989 583.8735 556.75668 582.131L560.52987 589.1853Z" fill="#1e1e1e"/>
<path transform="matrix(1,0,0,-1,361.24836,568.13729)" d="M4.294287 67.14729C6.503426 67.14729 8.294287 68.938159 8.294287 71.14729 8.294287 73.35644 6.503426 75.14729 4.294287 75.14729V67.14729ZM.23169 68.22223 4.026423 69.48714 .23169 68.22223ZM11.11945 54.409395 14.031011 57.15217 11.11945 54.409395ZM35.82004 31.496346 38.25468 34.67007 35.82004 31.496346ZM73.52094 8.908302 74.95153 12.64373 73.52094 8.908302ZM74.51899 13.434727C72.46786 14.25518 70.13998 13.257519 69.31952 11.206383 68.49907 9.155251 69.496738 6.82737 71.54787 6.006912L74.51899 13.434727ZM4.294287 75.14729C3.970031 75.14729 3.098379 75.16886 2.45917 75.147518 1.781856 75.12489 .720798 75.05228-.333731 74.66589-1.492209 74.241428-2.94903 73.30852-3.641886 71.464908-4.265214 69.8063-3.967753 68.17144-3.563044 66.95731L4.026423 69.48714C3.88655 69.90675 4.148833 69.45441 3.846742 68.65057 3.684415 68.21864 3.414728 67.84667 3.097318 67.56971 2.802574 67.31253 2.537718 67.19791 2.418561 67.15424 2.245114 67.09069 2.268568 67.13669 2.726206 67.15198 2.920556 67.15846 3.140556 67.15866 3.411678 67.155849 3.650249 67.153369 3.997463 67.14729 4.294287 67.14729V75.14729ZM-3.563044 66.95731C-2.439006 63.5852-.163509 60.581956 1.993533 58.139787 4.055459 55.8053 6.718089 53.2481 8.207889 51.66662L14.031011 57.15217C11.971491 59.33843 10.052878 61.09973 7.989573 63.435773 6.021383 65.66413 4.627659 67.683429 4.026423 69.48714L-3.563044 66.95731ZM8.207889 51.66662C15.963139 43.43412 24.2332 35.343488 33.385404 28.32262L38.25468 34.67007C29.589135 41.31761 21.65314 49.060987 14.031011 57.15217L8.207889 51.66662ZM33.385404 28.32262C45.087106 19.34597 57.81756 10.639053 72.09035 5.172874L74.95153 12.64373C61.778055 17.688893 49.78352 25.826027 38.25468 34.67007L33.385404 28.32262ZM72.09035 5.172874C73.21526 4.742058 74.13052 4.424942 74.79224 4.25956 74.96769 4.215714 75.20104 4.163055 75.45916 4.127052 75.59149 4.108604 76.2299 4.011284 76.98749 4.173286 77.35529 4.251938 78.324169 4.506577 79.14619 5.414078 80.17051 6.544907 80.321208 7.941181 80.09539 8.976635 79.9126 9.814781 79.50974 10.375126 79.345829 10.589386 79.14319 10.854271 78.9466 11.045025 78.826969 11.154449 78.418018 11.528484 77.9665 11.795963 77.764659 11.913845 77.48281 12.078453 77.16787 12.244503 76.845317 12.404537 76.19563 12.726879 75.39355 13.084908 74.51899 13.434727L71.54787 6.006912C72.253917 5.724495 72.85797 5.452316 73.28969 5.238121 73.507839 5.12989 73.652408 5.051086 73.7301 5.005707 73.8878 4.913605 73.695858 5.005974 73.42772 5.251221 73.343288 5.328445 73.174488 5.489891 72.99191 5.728554 72.84806 5.91658 72.45755 6.453773 72.279109 7.272015 72.057628 8.287567 72.20465 9.667194 73.217 10.784809 74.02706 11.679092 74.975658 11.923943 75.31459 11.996422 76.014438 12.146076 76.560718 12.050858 76.56418 12.050373 76.693439 12.032345 76.7612 12.013535 76.73197 12.02084 76.57498 12.060074 76.04623 12.224483 74.95153 12.64373L72.09035 5.172874Z" fill="#1e1e1e"/>
<path transform="matrix(1,0,0,-1,536.72708,581.6074)" d="M2.530953 4.987953C4.506867 4 6.90956 4.800896 7.897516 6.77681 8.885473 8.752724 8.084576 11.155418 6.108662 12.143372L2.530953 4.987953ZM12.607507 38.791387 9.508695 41.320688 12.607507 38.791387ZM54.85852 82.17992 52.15703 85.12982 54.85852 82.17992ZM56.97107 93.00508C54.76193 93.00508 52.97107 91.21422 52.97107 89.00508 52.97107 86.795948 54.76193 85.00508 56.97107 85.00508V93.00508ZM6.108662 12.143372C5.181941 12.606735 4.724455 13.09259 4.47326 13.494576 4.216268 13.905838 4.033097 14.458321 4.003982 15.254692 3.94072 16.985062 4.622053 19.390183 6.050939 22.28241 8.871061 27.99065 13.614868 33.69971 15.706319 36.26208L9.508695 41.320688C7.544363 38.914056 2.173638 32.495599-1.121485 25.825901-2.750221 22.529152-4.12669 18.682702-3.990677 14.96241-3.920154 13.03344-3.439418 11.060822-2.311078 9.255142-1.17694 7.440186 .472333 6.017265 2.530953 4.987953L6.108662 12.143372ZM15.706319 36.26208C28.29194 51.681554 42.720335 65.63999 57.560014 79.23001L52.15703 85.12982C37.240159 71.46911 22.468283 57.198328 9.508695 41.320688L15.706319 36.26208ZM57.560014 79.23001C58.563375 80.14888 59.621488 80.98869 60.69634 81.864109 61.614358 82.61178 62.85605 83.622829 63.657075 84.62825 64.01598 85.078739 64.80161 86.13814 64.91534 87.61246 64.98096 88.463138 64.81524 89.38326 64.32592 90.235179 63.859476 91.04727 63.22676 91.57661 62.68996 91.90993 61.71166 92.51739 60.63048 92.73383 59.873899 92.84009 59.0241 92.959438 58.046075 93.00508 56.97107 93.00508V85.00508C57.85941 85.00508 58.426935 84.96479 58.76129 84.91784 59.188859 84.85779 58.930437 84.82756 58.469869 85.11354 58.191934 85.286128 57.741834 85.63602 57.388795 86.25067 57.012884 86.90514 56.89137 87.60982 56.939035 88.22774 56.982255 88.788059 57.154554 89.17994 57.242937 89.35425 57.291898 89.45082 57.334608 89.51876 57.3597 89.556438 57.372835 89.57615 57.38312 89.590549 57.389688 89.59948 57.396276 89.60845 57.399953 89.61307 57.40007 89.61321 57.40021 89.61339 57.39749 89.60998 57.391439 89.602878 57.3854 89.5958 57.376619 89.58573 57.364736 89.572589 57.34059 89.54587 57.30682 89.50997 57.261548 89.464298 57.169263 89.37119 57.046339 89.25473 56.885896 89.11116 56.55838 88.818088 56.150598 88.47943 55.644346 88.067119 54.678815 87.28075 53.378679 86.2486 52.15703 85.12982L57.560014 79.23001Z" fill="#1e1e1e"/>
<path transform="matrix(1,0,0,-1,403.5686,632.6472)" d="M3.312675 11.341802C3.312675 9.132663 5.103536 7.341802 7.312675 7.341802 9.521814 7.341802 11.312675 9.132663 11.312675 11.341802H3.312675ZM-3.88057 9.386875C-4.416365 7.243695-3.113322 5.071957-.970143 4.536162 1.173037 4.000367 3.344775 5.30341 3.88057 7.446589L-3.88057 9.386875ZM11.312675 11.341802C11.312675 13.319883 10.100393 14.700345 8.838929 15.342362 7.832383 15.854639 6.82997 15.914951 6.257134 15.914579 5.010137 15.913772 3.686014 15.596467 2.57518 15.208058 1.42485 14.80584 .164026 14.208576-.934403 13.413195-1.913316 12.704355-3.378112 11.396707-3.88057 9.386875L3.88057 7.446589C3.777437 7.034059 3.602479 6.818197 3.580686 6.791826 3.555068 6.760825 3.596181 6.816718 3.757551 6.933567 4.09002 7.174311 4.617517 7.447235 5.215662 7.656379 5.501068 7.756173 5.759799 7.826291 5.968913 7.869082 6.191913 7.914715 6.286666 7.914598 6.262317 7.914581 6.246342 7.914571 6.151656 7.914908 5.999526 7.941668 5.857185 7.966704 5.565454 8.031878 5.210287 8.212639 4.844929 8.398586 4.338586 8.746751 3.926258 9.355205 3.493244 9.994184 3.312675 10.702621 3.312675 11.341802H11.312675Z" fill="#1e1e1e"/>
<path transform="matrix(1,0,0,-1,547.04556,623.026)" d="M-1.514315 12.054955C.047782 10.492857 2.580442 10.492857 4.14254 12.054955 5.704637 13.617052 5.704637 16.149712 4.14254 17.71181L-1.514315 12.054955ZM2.776647 9.35825 4.007928 13.164028 2.776647 9.35825ZM3.581586 17.366423C1.402505 17.003243-.069574 14.942332 .293607 12.76325 .656787 10.584169 2.717697 9.112091 4.896778 9.475271L3.581586 17.366423ZM4.14254 17.71181C3.683759 18.17059 2.685661 19.069272 1.201876 19.294266 .344522 19.42427-.624927 19.315495-1.535469 18.82837-2.40607 18.362612-2.953066 17.696368-3.277513 17.145663-3.868579 16.142407-3.971732 15.113826-3.994252 14.545384-4.020763 13.876225-3.953015 13.211558-3.842067 12.608006-3.622814 11.415279-3.161142 10.066891-2.421284 8.856185-1.715963 7.701996-.461776 6.201841 1.545366 5.552471L4.007928 13.164028C4.550627 12.988449 4.604765 12.700841 4.405014 13.027714 4.2398 13.298069 4.091378 13.699255 4.026098 14.054375 3.994779 14.224746 4.001651 14.283568 3.999476 14.228688 3.998269 14.198216 3.992496 14.089252 3.955204 13.923765 3.920745 13.770855 3.834509 13.457059 3.615209 13.084826 3.390054 12.702657 2.964611 12.162951 2.238298 11.774385 1.472045 11.364452 .669621 11.283524 .002508 11.384681-.605702 11.476907-1.020712 11.704021-1.211358 11.82427-1.412053 11.950859-1.512243 12.052883-1.514315 12.054955L4.14254 17.71181ZM1.545366 5.552471C6.099008 4.079234 10.965068 5.793771 12.630466 9.537271 13.077123 10.541273 13.326412 11.838612 12.969123 13.222205 12.598882 14.655953 11.685358 15.757202 10.571982 16.467175 8.561423 17.749258 5.978891 17.765974 3.581586 17.366423L4.896778 9.475271C5.701806 9.609442 6.201105 9.60862 6.457336 9.584023 6.731075 9.557743 6.588474 9.519245 6.270683 9.721893 5.897093 9.960122 5.421049 10.455872 5.223219 11.221959 5.038342 11.937892 5.194975 12.505408 5.321148 12.789021 5.542353 13.286247 5.748494 13.22093 5.421663 13.101324 5.201737 13.020841 4.730211 12.930347 4.007928 13.164028L1.545366 5.552471Z" fill="#1e1e1e"/>
<path transform="matrix(1,0,0,-1,449.06236,859.11648)" d="M21.879515 90.191638C23.441613 88.62954 25.974272 88.62954 27.53637 90.191638 29.098467 91.75373 29.098467 94.28639 27.53637 95.84849L21.879515 90.191638ZM5.36998 80.832279 1.547744 82.011478 5.36998 80.832279ZM1.144879 39.800035-2.72342 38.782068 1.144879 39.800035ZM35.351949 11.524361 34.743719 7.570869 35.351949 11.524361ZM88.734477 73.51959 84.74046 73.30075 88.734477 73.51959ZM57.20872 112.845539 56.67195 108.881717 57.20872 112.845539ZM3.027808 97.46356C1.381466 95.990528 1.24098 93.46176 2.714022 91.815418 4.187065 90.169078 6.715825 90.02859 8.362166 91.50163L3.027808 97.46356ZM27.53637 95.84849C24.825806 98.55905 21.434206 99.028697 18.388773 98.31702 15.5522 97.65414 12.912955 95.978748 10.755847 94.19842 8.546159 92.374698 6.544078 90.19241 4.980673 88.120868 3.477567 86.12921 2.136251 83.919048 1.547744 82.011478L9.192216 79.65307C9.373985 80.242259 10.063491 81.5755 11.366227 83.30166 12.608665 84.94792 14.187447 86.65782 15.848118 88.02843 17.561369 89.44242 19.08198 90.26347 20.209237 90.52689 21.12763 90.741519 21.503832 90.56732 21.879515 90.191638L27.53637 95.84849ZM1.547744 82.011478C-.260433 76.15048-2.149819 68.619319-3.189988 60.992387-4.219486 53.443708-4.472001 45.426668-2.72342 38.782068L5.013176 40.81801C3.660986 45.956338 3.759267 52.7449 4.736635 59.911344 5.703331 66.99954 7.476882 74.093029 9.192216 79.65307L1.547744 82.011478ZM-2.72342 38.782068C-.491521 30.30085 5.050077 23.09954 11.804051 17.773179 18.559952 12.445297 26.767832 8.797935 34.743719 7.570869L35.960176 15.477844C29.4372 16.481385 22.501078 19.525628 16.757925 24.054833 11.012847 28.585549 6.700342 34.406785 5.013176 40.81801L-2.72342 38.782068ZM34.743719 7.570869C52.22745 4.881065 67.24668 14.769333 77.38902 28.078797 87.533489 41.391054 93.536289 58.99599 92.72848 73.73845L84.74046 73.30075C85.42798 60.75367 80.210918 44.98078 71.02598 32.92769 61.83893 20.87181 49.41924 13.407219 35.960176 15.477844L34.743719 7.570869ZM92.72848 73.73845C91.69535 92.59302 78.981708 113.93362 57.745489 116.80936L56.67195 108.881717C72.74562 106.70507 83.83193 89.88147 84.74046 73.30075L92.72848 73.73845ZM57.745489 116.80936C46.18845 118.374378 36.50022 117.21589 27.601077 113.71656 18.772263 110.24489 10.961189 104.56185 3.027808 97.46356L8.362166 91.50163C15.977821 98.315639 22.966435 103.29785 30.528639 106.27147 38.02051 109.21743 46.31463 110.28427 56.67195 108.881717L57.745489 116.80936Z" fill="#1e1e1e"/>
<path transform="matrix(1,0,0,-1,464.22233,362.42048)" d="M14.261847 73.92033C16.23776 74.90828 17.038659 77.310977 16.050702 79.28689 15.062744 81.2628 12.660052 82.0637 10.684138 81.07574L14.261847 73.92033ZM5.322821 69.53534 5.655003 65.54916 5.322821 69.53534ZM25.635807 66.366519 22.307606 64.14771 25.635807 66.366519ZM27.098341 42.722204 24.036892 45.2966 27.098341 42.722204ZM8.410396 31.834443 11.330482 29.100743 8.410396 31.834443ZM7.516624 11.115196 8.974221 14.840168 7.516624 11.115196ZM49.362688 16.881459C51.3386 17.869416 52.1395 20.272107 51.151544 22.24802 50.163587 24.223935 47.760896 25.024834 45.78498 24.036877L49.362688 16.881459ZM10.684138 81.07574C8.699642 80.083499 3.030347 77.56851-.085578 75.58798-.873821 75.08697-1.802597 74.43782-2.515957 73.67886-2.859531 73.31333-3.402423 72.66531-3.727368 71.75921-4.105808 70.70394-4.196392 69.1978-3.284282 67.793918-2.514031 66.60837-1.403208 66.10165-.789836 65.88273-.11319 65.64122 .578023 65.53202 1.172293 65.47536 2.373179 65.36085 3.879771 65.40122 5.655003 65.54916L4.990639 73.52152C3.382833 73.38754 2.428655 73.391849 1.931696 73.43923 1.677044 73.46352 1.710066 73.48476 1.899336 73.417209 2.025331 73.37224 2.819593 73.08298 3.424179 72.15242 4.170623 71.00352 4.065271 69.789897 3.803042 69.05867 3.688888 68.74036 3.553222 68.52038 3.474384 68.40512 3.392487 68.28539 3.329273 68.21683 3.313284 68.199817 3.288244 68.17317 3.336712 68.22767 3.5142 68.36266 3.681036 68.489559 3.909316 68.647937 4.205821 68.8364 6.872533 70.531398 11.544399 72.5616 14.261847 73.92033L10.684138 81.07574ZM5.655003 65.54916C7.62339 65.71319 9.697962 66.06134 11.463833 66.32477 13.326005 66.60256 14.951664 66.80549 16.433533 66.80999 19.225232 66.81846 20.966927 66.15873 22.307606 64.14771L28.964009 68.58532C25.621684 73.5988 20.804493 74.82329 16.409253 74.80995 14.297652 74.80354 12.172829 74.51906 10.283484 74.23721 8.297839 73.941 6.619859 73.657299 4.990639 73.52152L5.655003 65.54916ZM22.307606 64.14771C24.130969 61.41267 25.627018 57.728677 26.065556 54.120016 26.504586 50.507287 25.846415 47.448465 24.036892 45.2966L30.15979 40.1478C33.865785 44.55493 34.610948 50.11637 34.00713 55.0851 33.40282 60.057897 31.409846 64.916568 28.964009 68.58532L22.307606 64.14771ZM24.036892 45.2966C22.468895 43.431955 20.101403 42.398378 16.49227 40.995019 13.229574 39.726369 8.804186 38.10796 5.49031 34.56814L11.330482 29.100743C13.181609 31.078083 15.767708 32.12979 19.391493 33.538846 22.668839 34.813196 27.062817 36.464918 30.15979 40.1478L24.036892 45.2966ZM5.49031 34.56814C2.869928 31.769093 .545766 26.491978-.203628 21.614399-.586942 19.119523-.626938 16.324555 .19544 13.764656 1.062242 11.066475 2.913924 8.620918 6.059027 7.390221L8.974221 14.840168C8.434958 15.051182 8.072761 15.400002 7.812054 16.211529 7.506924 17.161339 7.425788 18.5914 7.70359 20.399529 8.276429 24.127964 10.083519 27.76876 11.330482 29.100743L5.49031 34.56814ZM6.059027 7.390221C13.277361 4.565659 21.776633 5.942436 29.208254 8.261971 36.779569 10.625107 44.113626 14.256927 49.362688 16.881459L45.78498 24.036877C40.49528 21.392029 33.69846 18.044056 26.82472 15.898647 19.81129 13.709637 13.551337 13.049118 8.974221 14.840168L6.059027 7.390221Z" fill="#1e1e1e"/>
<path transform="matrix(1,0,0,-1,535.75558,374.79518)" d="M-1.633701 69.39732C-1.633701 67.18819 .15716 65.39732 2.366299 65.39732 4.575438 65.39732 6.366299 67.18819 6.366299 69.39732H-1.633701ZM2.366299 81.58511-1.63148 81.45186 2.366299 81.58511ZM.091245 78.82255 4.05373 79.3691 .091245 78.82255ZM8.21644 32.346445 12.151241 33.06571 8.21644 32.346445ZM10.979006 14.471016 14.966268 14.789993 10.979006 14.471016ZM5.941385 50.059366 9.251288 47.81336 5.941385 50.059366ZM40.107225 44.932004C42.31075 44.77461 44.22465 46.433324 44.382047 48.63685 44.53944 50.840375 42.880727 52.75428 40.6772 52.911676L40.107225 44.932004ZM6.366299 69.39732C6.366299 73.26522 6.501777 77.587429 6.364079 81.718379L-1.63148 81.45186C-1.498967 77.47646-1.633701 73.64221-1.633701 69.39732H6.366299ZM6.364079 81.718379C6.333021 82.65012 6.254597 83.50488 6.108829 84.25776 5.98106 84.91768 5.731358 85.896419 5.118667 86.77802 4.790067 87.25085 4.227619 87.88219 3.339042 88.30513 2.37066 88.76605 1.310752 88.83553 .346164 88.574687-1.278683 88.135288-2.134878 86.92315-2.422471 86.48644-3.161597 85.36408-3.572029 83.94315-3.783864 82.71763-4.012053 81.3975-4.088192 79.84891-3.87124 78.276L4.05373 79.3691C3.96389 80.02043 3.991909 80.7341 4.099236 81.35501 4.222916 82.070529 4.379355 82.26943 4.258864 82.086467 4.211249 82.01416 4.082088 81.82889 3.846893 81.6147 3.62284 81.41067 3.156061 81.047199 2.434554 80.85208 1.62634 80.63352 .72043 80.691539-.099137 81.08163-.838901 81.43374-1.257717 81.934879-1.450676 82.21253-1.792085 82.70379-1.802462 83.03226-1.745313 82.73709-1.706163 82.53488-1.654076 82.12974-1.63148 81.45186L6.364079 81.718379ZM-3.87124 78.276C-1.712666 62.626344 1.481644 46.944795 4.281639 31.627179L12.151241 33.06571C9.31191 48.59852 6.180444 63.950426 4.05373 79.3691L-3.87124 78.276ZM4.281639 31.627179C5.3874 25.578019 6.530043 19.923302 6.991745 14.152031L14.966268 14.789993C14.463727 21.071747 13.216389 27.23872 12.151241 33.06571L4.281639 31.627179ZM6.991745 14.152031C7.05706 13.335594 7.265349 12.393524 7.412482 11.737938 7.589434 10.949493 7.736542 10.334145 7.83626 9.78051 7.883907 9.515976 7.903128 9.356865 7.908891 9.27932 7.91872 9.147057 7.88277 9.369957 7.968609 9.757812 8.037422 10.068733 8.426154 11.515099 10.065017 12.218086 11.590097 12.872269 12.805125 12.261208 12.930364 12.198586L9.352655 5.043167C9.914106 4.762444 11.456076 4.109848 13.218723 4.865936 15.095153 5.67083 15.632075 7.362534 15.779596 8.029091 15.944144 8.772575 15.917421 9.461403 15.886889 9.872231 15.852291 10.337769 15.781564 10.798897 15.709567 11.198616 15.569999 11.973503 15.359046 12.862732 15.218311 13.489807 15.047757 14.249741 14.978736 14.63414 14.966268 14.789993L6.991745 14.152031ZM12.930364 12.198586C13.617743 11.854897 13.85109 11.417915 13.749741 11.569496 13.701816 11.641174 13.573114 11.862885 13.386308 12.305771 13.016128 13.183395 12.595634 14.499252 12.16046 16.21453 11.297481 19.616036 10.491259 24.126774 9.890825 28.79264 9.290761 33.45563 8.912434 38.147645 8.872515 41.90484 8.852473 43.791097 8.919053 45.352273 9.061766 46.516645 9.229667 47.88652 9.436773 48.086706 9.251288 47.81336L2.631482 52.30537C1.646487 50.853799 1.298244 48.93447 1.121187 47.489896 .918942 45.83981 .850954 43.891588 .872966 41.819845 .917153 37.661039 1.329413 32.642648 1.956254 27.771569 2.582726 22.903367 3.439727 18.056366 4.406126 14.247223 4.885641 12.35717 5.421375 10.604469 6.01519 9.196648 6.310381 8.496811 6.665621 7.771576 7.099356 7.122879 7.479667 6.554085 8.192396 5.623299 9.352655 5.043167L12.930364 12.198586ZM9.251288 47.81336C9.197184 47.733625 9.730673 48.402837 12.541675 48.617868 15.041514 48.80909 18.279501 48.560506 21.83702 48.064249 25.356482 47.5733 28.96029 46.874898 32.168107 46.2514 35.22302 45.657625 38.212789 45.06732 40.107225 44.932004L40.6772 52.911676C39.395555 53.00322 37.025899 53.456918 33.69448 54.10444 30.515965 54.722238 26.706538 55.462434 22.942284 55.987527 19.21609 56.507318 15.299887 56.852228 11.931494 56.59456 8.874262 56.360696 4.825475 55.53862 2.631482 52.30537L9.251288 47.81336Z" fill="#1e1e1e"/>
<path transform="matrix(1,0,0,-1,599.1598,316.57777)" d="M3.410101 17.126734C4.972198 15.564636 7.504858 15.564636 9.066956 17.126734 10.629052 18.688832 10.629052 21.22149 9.066956 22.783589L3.410101 17.126734ZM10.301126 9.229904 10.714485 5.25132 10.301126 9.229904ZM20.53887 26.94283 24.056038 28.847962 20.53887 26.94283ZM2.411833 18.194739C1.768616 16.081313 2.960456 13.846613 5.073882 13.203396 7.187307 12.560179 9.422008 13.75202 10.065224 15.865444L2.411833 18.194739ZM9.066956 22.783589C7.686306 24.164238 6.202971 25.292788 4.611794 25.892992 2.92946 26.527585 .846342 26.64143-1.013093 25.435326-2.722772 24.32636-3.464173 22.593316-3.767073 21.25048-4.081497 19.85656-4.052898 18.379763-3.828235 17.00555-3.381256 14.271481-2.033717 11.203787 .331845 8.854816 2.798644 6.405321 6.338559 4.796679 10.714485 5.25132L9.887767 13.208488C8.113259 13.024124 6.890918 13.61585 5.968755 14.531546 4.945357 15.547766 4.277228 17.010083 4.066952 18.296296 3.962987 18.93222 4.002561 19.33813 4.036855 19.490166 4.082673 19.693287 4.027732 19.169445 3.340395 18.72361 2.503302 18.180638 1.778408 18.411547 1.78832 18.407807 1.889389 18.369683 2.432322 18.104516 3.410101 17.126734L9.066956 22.783589ZM10.714485 5.25132C16.094729 5.810307 20.662602 9.288317 23.264569 13.560833 25.887917 17.868458 26.880833 23.632958 24.056038 28.847962L17.021702 25.037697C18.169539 22.918614 17.961586 20.233716 16.431908 17.721932 14.880848 15.175041 12.343533 13.463634 9.887767 13.208488L10.714485 5.25132ZM24.056038 28.847962C22.950055 30.889779 21.812823 32.577947 20.60528 33.861738 19.412955 35.12935 17.931662 36.23572 16.117737 36.659486 11.945835 37.6341 9.193345 34.604146 7.882575 32.641576 6.428285 30.46412 5.336121 27.622879 4.50423 25.120835 3.674549 22.625432 2.927144 19.887906 2.411833 18.194739L10.065224 15.865444C10.695505 17.936369 11.295443 20.190125 12.095629 22.596814 12.893605 24.996857 13.713833 26.96851 14.535233 28.198365 15.500154 29.643105 15.386654 28.614872 14.297817 28.86924 14.025424 28.932875 14.196681 28.99863 14.778022 28.38058 15.344144 27.778714 16.101693 26.736176 17.021702 25.037697L24.056038 28.847962Z" fill="#1e1e1e"/>
<path transform="matrix(1,0,0,-1,585.3209,385.67726)" d="M3.989718 44.103654C6.198857 44.103654 7.989718 45.894514 7.989718 48.103654 7.989718 50.31279 6.198857 52.103654 3.989718 52.103654V44.103654ZM10.408622 50.297456 10.730159 46.3104 10.408622 50.297456ZM56.397226 54.68506 52.492479 55.55278 56.397226 54.68506ZM49.653318 56.878866 49.7211 52.879438 49.653318 56.878866ZM39.090559 45.9911 35.295827 47.256013 39.090559 45.9911ZM44.91767 4.901295C46.968809 4.080841 49.296689 5.078506 50.11714 7.129639 50.937597 9.180775 49.93993 11.508656 47.888799 12.329109L44.91767 4.901295ZM3.989718 52.103654C2.682843 52.103654 1.858491 52.133996 1.386894 52.173467 1.137574 52.194334 1.100614 52.20893 1.185488 52.19021 1.223845 52.181745 1.406863 52.14113 1.655902 52.03763 1.810141 51.97353 2.519304 51.679868 3.131058 50.921186 3.482101 50.48583 3.838766 49.847459 3.958906 49.022146 4.080771 48.184984 3.918059 47.437005 3.663424 46.862379 3.22359 45.86982 2.511998 45.377969 2.355022 45.26955 1.941733 44.984106 1.616651 44.89715 1.741807 44.939287 1.842996 44.973356 2.167231 45.06071 2.776176 45.184068 5.148813 45.664709 9.277457 46.193246 10.730159 46.3104L10.087085 54.28451C8.361578 54.145357 3.913653 53.576993 1.187832 53.024808 .522163 52.889959-.210834 52.723115-.810801 52.52112-1.036224 52.445226-1.622864 52.244775-2.191356 51.852136-2.425933 51.69012-3.188538 51.146249-3.650628 50.103467-3.916391 49.503728-4.083042 48.731088-3.957656 47.869737-3.833995 47.02024-3.46635 46.35816-3.096595 45.899599-2.447418 45.0945-1.669908 44.756448-1.414233 44.65019-1.063758 44.504537-.746212 44.424-.53807 44.37808-.113628 44.284437 .330011 44.23395 .719656 44.20134 1.525989 44.133855 2.613035 44.103654 3.989718 44.103654V52.103654ZM10.730159 46.3104C11.691216 46.3879 14.763606 46.331277 19.386136 46.271768 23.822463 46.21465 29.354695 46.165948 34.795915 46.302789 40.198808 46.43866 45.6823 46.760358 49.970598 47.48193 52.08969 47.8385 54.14898 48.328927 55.820116 49.057317 57.227979 49.670957 59.679636 51.016809 60.301977 53.817338L52.492479 55.55278C52.76877 56.796094 53.674707 56.8491 52.623628 56.39097 51.835824 56.047594 50.522954 55.687337 48.64313 55.371026 44.93359 54.746839 39.912195 54.433984 34.59479 54.30026 29.31572 54.1675 23.912255 54.214159 19.489123 54.271104 15.252192 54.32565 11.541363 54.40179 10.087085 54.28451L10.730159 46.3104ZM60.301977 53.817338C60.55602 54.96054 60.450719 56.19864 59.859804 57.33683 59.308439 58.39885 58.492303 59.0715 57.830545 59.480844 56.593164 60.24625 55.16726 60.53724 54.21731 60.677804 52.194505 60.97711 49.984914 60.885057 49.58553 60.87829L49.7211 52.879438C50.38678 52.89072 51.825338 52.944635 53.046316 52.76397 53.71826 52.664545 53.813165 52.559057 53.62206 52.677267 53.48344 52.763013 53.07182 53.04938 52.75965 53.65066 52.40794 54.328115 52.37653 55.031015 52.492479 55.55278L60.301977 53.817338ZM49.58553 60.87829C45.020368 60.80091 41.731359 58.978105 39.42713 56.04542 37.370439 53.427789 36.227174 50.050058 35.295827 47.256013L42.885293 44.72619C43.893499 47.7508 44.66247 49.75985 45.7177 51.10288 46.525396 52.130865 47.547986 52.842607 49.7211 52.879438L49.58553 60.87829ZM35.295827 47.256013C33.016427 40.417818 30.795382 31.973256 31.33195 24.254548 31.604311 20.336533 32.597139 16.423634 34.807348 12.977386 37.046064 9.486683 40.381326 6.715836 44.91767 4.901295L47.888799 12.329109C44.7771 13.573788 42.811407 15.315998 41.541429 17.2962 40.24294 19.320858 39.519334 21.836716 39.31269 24.80933 38.89125 30.871878 40.66191 38.056047 42.885293 44.72619L35.295827 47.256013Z" fill="#1e1e1e"/>
<path transform="matrix(1,0,0,-1,676.64749,365.45118)" d="M5.509068 64.03775C7.347183 62.81234 9.83066 63.309038 11.056069 65.147159 12.28148 66.98527 11.784784 69.46874 9.94667 70.69415L5.509068 64.03775ZM34.37851 77.522449 33.99927 81.504428 34.37851 77.522449ZM10.734191 78.09121 14.245773 76.175807 10.734191 78.09121ZM2.527743 51.603075 6.39758 50.59096 2.527743 51.603075ZM3.665271 20.56483 6.871781 22.956124 3.665271 20.56483ZM39.516038 16.177224C39.516038 18.38636 37.725179 20.177224 35.516038 20.177224 33.3069 20.177224 31.516039 18.38636 31.516039 16.177224H39.516038ZM9.94667 70.69415C8.526228 71.64111 8.662764 71.94226 8.82644 71.43171 8.952562 71.0383 8.968035 70.51429 8.782003 70.01216 8.622337 69.5812 8.403626 69.406558 8.442491 69.44054 8.586069 69.56608 9.162751 69.93087 10.484205 70.37259 11.717126 70.78471 13.281104 71.16197 15.083602 71.49877 22.454873 72.87611 31.801365 73.2589 34.757745 73.54047L33.99927 81.504428C31.765177 81.29166 21.442553 80.82541 13.614223 79.36267 11.61682 78.989459 9.660243 78.532268 7.948019 77.95993 6.324327 77.41718 4.531273 76.647518 3.176591 75.46302 2.466325 74.84198 1.716352 73.968418 1.280301 72.79145 .817886 71.54333 .81185 70.22622 1.20835 68.98943 1.912781 66.79214 3.75761 65.20539 5.509068 64.03775L9.94667 70.69415ZM34.757745 73.54047C34.866369 73.55081 35.229055 73.58576 35.65994 73.724658 35.860136 73.789188 36.34174 73.957859 36.85365 74.34358 37.382997 74.74246 38.328805 75.68779 38.441209 77.26061 38.54801 78.755107 37.819036 79.77185 37.470586 80.17396 37.10016 80.601428 36.724855 80.85005 36.558904 80.95401 36.20625 81.17492 35.89329 81.293598 35.79124 81.33189 35.37244 81.48903 34.90527 81.58647 34.689256 81.631389 34.07962 81.758159 33.1935 81.90784 32.161668 82.06172 30.071974 82.37339 27.14286 82.73797 24.107623 82.99947 21.100132 83.25859 17.853877 83.428668 15.183886 83.31572 13.86846 83.26007 12.512405 83.12977 11.33305 82.83766 10.743176 82.69156 10.052371 82.470478 9.385631 82.1088 8.742241 81.759799 7.831142 81.12226 7.222609 80.00662L14.245773 76.175807C13.846736 75.44424 13.315739 75.13947 13.200157 75.076778 13.061226 75.00141 13.045937 75.02018 13.256388 75.0723 13.677681 75.17665 14.42151 75.276309 15.522015 75.32287 17.683884 75.41432 20.533675 75.277759 23.42091 75.02901 26.280396 74.78264 29.044692 74.43811 30.98158 74.14924 31.96304 74.00286 32.6735 73.87942 33.06056 73.798938 33.342889 73.74023 33.224096 73.7505 32.98079 73.8418 32.922616 73.863628 32.642728 73.96717 32.311986 74.174358 32.156988 74.271457 31.789845 74.513568 31.424746 74.93489 31.081625 75.33085 30.35514 76.341808 30.461558 77.83088 30.573573 79.398288 31.516114 80.33857 32.039274 80.73278 32.544988 81.113849 33.017477 81.27823 33.205587 81.33886 33.6123 81.46996 33.938936 81.49868 33.99927 81.504428L34.757745 73.54047ZM7.222609 80.00662C4.967072 75.87147 3.349921 70.91904 2.049029 66.16218 .805654 61.61564-.378427 56.29979-1.342093 52.61518L6.39758 50.59096C7.559681 55.03429 8.451116 59.245046 9.765669 64.05186 11.022705 68.64835 12.445893 72.87602 14.245773 76.175807L7.222609 80.00662ZM-1.342093 52.61518C-2.528268 48.079809-3.800081 41.970319-3.978666 35.870698-4.153893 29.885754-3.301452 23.215638 .458761 18.173535L6.871781 22.956124C4.727899 25.830876 3.861109 30.281037 4.017908 35.636575 4.17135 40.87744 5.28282 46.328649 6.39758 50.59096L-1.342093 52.61518ZM.458761 18.173535C2.238471 15.787106 5.405872 13.314011 8.784642 11.240692 12.255936 9.110596 16.386603 7.136497 20.426028 5.922745 24.307198 4.756546 28.801609 4.077354 32.589365 5.384743 34.606657 6.081039 36.444444 7.353806 37.729578 9.353195 38.987184 11.309769 39.516038 13.649857 39.516038 16.177224H31.516039C31.516039 14.735352 31.215094 14.013664 30.999859 13.67881 30.812151 13.386772 30.534054 13.138474 29.979176 12.946945 28.622595 12.478706 26.147534 12.556908 22.728157 13.584351 19.467036 14.56424 15.966084 16.220028 12.968748 18.059285 9.87889 19.955319 7.740654 21.791047 6.871781 22.956124L.458761 18.173535Z" fill="#1e1e1e"/>
<path transform="matrix(1,0,0,-1,688.37197,335.49458)" d="M3.315998 4.158669C5.525137 4.158669 7.315998 5.94953 7.315998 8.158669 7.315998 10.367808 5.525137 12.158669 3.315998 12.158669V4.158669ZM.878439 8.971189-.571346 12.699207 .878439 8.971189ZM27.799859 5.639223C29.999045 5.429776 31.95163 7.04278 32.161077 9.241968 32.37052 11.441155 30.757519 13.39374 28.55833 13.603186L27.799859 5.639223ZM3.315998 12.158669C2.548643 12.158669 1.757137 12.101867 1.1189 12.155398 .984318 12.166686 1.085129 12.16883 1.3011 12.11001 1.399226 12.083285 1.723742 11.991549 2.11446 11.76123 2.444629 11.566606 3.396228 10.93642 3.817329 9.607739 4.301938 8.078672 3.732816 6.823616 3.310317 6.217405 2.934431 5.678076 2.525512 5.396515 2.420714 5.325284 2.175853 5.15885 2.062671 5.1399 2.328224 5.24317L-.571346 12.699207C-.983852 12.538788-1.554034 12.296679-2.076428 11.941606-2.319992 11.776053-2.82281 11.408803-3.252927 10.791662-3.729658 10.107638-4.313343 8.782648-3.808828 7.190773-3.367822 5.799284-2.361848 5.113418-1.948034 4.869486-1.473671 4.589862-1.03624 4.455194-.801127 4.39116-.311184 4.257725 .159884 4.207745 .450253 4.183391 1.080611 4.130519 1.778654 4.131184 2.273418 4.13764 2.536736 4.141077 2.781298 4.146932 2.970088 4.151481 3.067816 4.153836 3.144969 4.155705 3.210276 4.157033 3.242069 4.15768 3.267006 4.158113 3.286448 4.158378 3.295983 4.158507 3.303249 4.158584 3.308549 4.158627 3.313928 4.158669 3.316245 4.158669 3.315998 4.158669V12.158669ZM2.328224 5.24317C5.996036 6.669541 9.973124 7.03834 14.298934 6.8929 18.756196 6.74304 23.015988 6.094829 27.799859 5.639223L28.55833 13.603186C24.355286 14.003476 19.330977 14.728235 14.567754 14.888382 9.673079 15.052948 4.493297 14.668791-.571346 12.699207L2.328224 5.24317Z" fill="#1e1e1e"/>
<path transform="matrix(1,0,0,-1,727.5001,331.45179)" d="M.75131 4.503508C2.960449 4.503508 4.75131 6.294369 4.75131 8.503508 4.75131 10.712646 2.960449 12.503508 .75131 12.503508V4.503508ZM9.52652 11.347325 9.700269 7.351101 9.52652 11.347325ZM31.662949 14.779937C33.042989 16.504984 32.7633 19.022154 31.038254 20.402192 29.313206 21.78223 26.796036 21.502545 25.415999 19.777497L31.662949 14.779937ZM.75131 12.503508C.596575 12.503508 .68019 12.513763 .883797 12.479517 .97805 12.463665 1.268548 12.411491 1.633849 12.257092 1.910743 12.14006 2.847318 11.714008 3.478567 10.612143 4.285369 9.203842 4.025405 7.764865 3.578445 6.881417 3.219959 6.172843 2.743869 5.775702 2.602194 5.660322 2.406719 5.501127 2.248439 5.408093 2.192002 5.375774 2.155465 5.354852 2.127757 5.340286 2.111449 5.331944 2.094793 5.323421 2.084979 5.318811 2.083372 5.31806 2.081488 5.317179 2.098334 5.325051 2.138616 5.341529 2.177838 5.357573 2.230879 5.378347 2.299298 5.403755 2.437676 5.455141 2.614969 5.516596 2.831732 5.587127 3.266432 5.728571 3.802293 5.887869 4.400816 6.054909 5.596878 6.388714 6.951353 6.727924 8.067675 6.985195 8.62612 7.113896 9.104182 7.217288 9.459518 7.287573 9.944139 7.38343 9.92683 7.360951 9.700269 7.351101L9.352771 15.34355C8.854196 15.321873 8.241539 15.201654 7.907202 15.135523 7.443581 15.043819 6.879075 14.920972 6.271063 14.780848 5.054472 14.500467 3.58048 14.13168 2.250301 13.760445 1.032704 13.42063-.396855 12.989895-1.30652 12.564344-1.515355 12.466648-1.988679 12.238869-2.449632 11.86347-2.656826 11.694733-3.17813 11.247664-3.559968 10.492933-4.030281 9.563328-4.291734 8.081963-3.463002 6.635383-2.809823 5.495237-1.827898 5.035014-1.480675 4.888257-1.045045 4.704133-.65924 4.62668-.443144 4.590334 .004151 4.5151 .437599 4.503508 .75131 4.503508V12.503508ZM9.700269 7.351101C16.630719 7.652425 25.200705 6.702132 31.662949 14.779937L25.415999 19.777497C21.753918 15.199898 17.96533 15.718009 9.352771 15.34355L9.700269 7.351101Z" fill="#1e1e1e"/>
<path transform="matrix(1,0,0,-1,758.85409,368.2138)" d="M-3.889384 61.353349C-3.889384 59.14421-2.098523 57.353349 .110616 57.353349 2.319755 57.353349 4.110616 59.14421 4.110616 61.353349H-3.889384ZM.841883 65.822208-3.14383 65.484439 .841883 65.822208ZM3.845582 6.913231C4.833539 4.937317 7.236231 4.136414 9.212146 5.124374 11.188059 6.112328 11.988956 8.515022 11.000999 10.490936L3.845582 6.913231ZM4.110616 61.353349C4.110616 64.7003 3.97675 69.07831 4.002912 71.392368 4.010791 72.08932 4.036867 72.06398 3.984556 71.791149 3.970393 71.71728 3.932896 71.53206 3.852825 71.29805 3.817744 71.195529 3.587896 70.47692 2.928251 69.80878 2.544405 69.41999 1.833538 68.867 .775674 68.68268-.3438 68.48763-1.305422 68.79918-1.957347 69.18933-2.990365 69.80756-3.410228 70.703968-3.45479 70.79191-3.587528 71.053859-3.657247 71.26731-3.682073 71.34571-3.713617 71.445339-3.731997 71.519618-3.739607 71.55148-3.754495 71.61382-3.756544 71.63418-3.748032 71.5841-3.654954 71.036518-3.464783 69.271678-3.14383 65.484439L4.827597 66.15997C4.517774 69.81589 4.301148 71.96984 4.138843 72.9247 4.115432 73.06242 4.083826 73.23283 4.041605 73.40964 4.02213 73.49119 3.92282 73.93139 3.68132 74.407978 3.625244 74.51864 3.194389 75.429409 2.150881 76.05392 1.493711 76.447208 .52697 76.75987-.597499 76.56395-1.660359 76.37877-2.376098 75.822917-2.764695 75.42931-3.433841 74.75154-3.672707 74.0155-3.716337 73.88799-3.804957 73.629-3.850536 73.41125-3.87233 73.29758-3.985697 72.70631-3.991895 71.89695-3.996577 71.4828-4.020661 69.35248-3.889384 64.0529-3.889384 61.353349H4.110616ZM-3.14383 65.484439C-2.77351 61.11465-2.691794 56.4552-2.655167 51.559175-2.618888 46.7098-2.627149 41.604-2.418947 36.554674-2.003694 26.483937-.719668 16.043728 3.845582 6.913231L11.000999 10.490936C7.214998 18.062939 5.977373 27.107972 5.574261 36.884263 5.373281 41.758447 5.381659 46.666604 5.34461 51.61902 5.307909 56.524778 5.226329 61.454938 4.827597 66.15997L-3.14383 65.484439Z" fill="#1e1e1e"/>
<path transform="matrix(1,0,0,-1,893.5404,976.6644)" d="M158.18538 621.948C160.39452 621.948 162.18538 623.73886 162.18538 625.948 162.18538 628.1571 160.39452 629.948 158.18538 629.948V621.948ZM155.0332 621.56997 157.1532 618.178 155.0332 621.56997ZM77.98001 623.4963 78.77843 627.4158 77.98001 623.4963ZM52.93772 624.02169 56.7435 625.2529 52.93772 624.02169ZM96.63039 522.88937 92.91647 521.40377 96.63039 522.88937ZM91.639438 519.6496 94.07316 516.47518 91.639438 519.6496ZM32.886377 442.42127 36.476594 440.65766 32.886377 442.42127ZM6.180439 369.22074 2.60273 371.00959 6.180439 369.22074ZM.051207 356.78715 2.634976 359.8407 .051207 356.78715ZM25.969099 361.16517 26.76228 357.2446 25.969099 361.16517ZM101.183528 321.58784 97.34311 322.7064 101.183528 321.58784ZM75.878559 204.60712 71.88731 204.87158 75.878559 204.60712ZM73.77711 172.0346 75.262668 168.32068 73.77711 172.0346ZM88.48726 184.7309 85.98848 187.85437 88.48726 184.7309ZM136.38283 211.17414 137.92418 207.48303 136.38283 211.17414ZM162.21317 223.69525 164.2853 220.2738 162.21317 223.69525ZM160.9873 203.031 157.156 204.18042 160.9873 203.031ZM150.65518 140.51282 154.65297 140.38013 150.65518 140.51282ZM153.80736 74.66736 157.75293 75.32495 153.80736 74.66736ZM170.96921 20.117188 167.67462 17.848816 170.96921 20.117188ZM185.32912 10.39801 182.7629 13.466309 185.32912 10.39801ZM198.98856 28.960816 202.32924 26.760865 198.98856 28.960816ZM223.15523 66.436649 219.82169 68.64746 223.15523 66.436649ZM268.24888 124.75195 271.1368 121.984317 268.24888 124.75195ZM318.421 166.16803 320.12904 162.55103 318.421 166.16803ZM328.4029 156.18616 324.48747 155.36798 328.4029 156.18616ZM355.3715 66.261539 358.12715 69.16095 355.3715 66.261539ZM395.82444 49.27484 395.76649 45.27527 395.82444 49.27484ZM421.39207 69.06354 424.5966 66.669559 421.39207 69.06354ZM481.72126 162.05274 478.53547 164.47156 481.72126 162.05274ZM501.77256 175.18677 505.76567 175.42163 501.77256 175.18677ZM512.01718 161.78998 509.18873 158.96161 512.01718 161.78998ZM573.57217 114.06958 575.5404 117.55182 573.57217 114.06958ZM590.6464 104.43793 592.5094 107.9776 590.6464 104.43793ZM597.91397 120.72418 601.77859 119.69226 597.91397 120.72418ZM628.9979 247.77442 625.2387 249.14136 628.9979 247.77442ZM644.7588 243.04615 648.34786 244.8122 644.7588 243.04615ZM696.8573 177.8136 699.3677 180.92774 696.8573 177.8136ZM717.69668 166.0805 715.106 169.12824 717.69668 166.0805ZM724.6139 184.29303 720.7018 185.12677 724.6139 184.29303ZM728.11636 238.05518 724.1273 238.35187 728.11636 238.05518ZM738.1858 356.26179 734.1859 356.227 738.1858 356.26179ZM736.69729 374.91218 732.71109 374.58 736.69729 374.91218ZM737.5729 375.26243 734.08657 373.30137 737.5729 375.26243ZM813.8381 357.66273 813.0343 353.74433 813.8381 357.66273ZM821.3682 356.17424 823.6621 352.8973 821.3682 356.17424ZM815.58926 372.8983 811.9752 371.18397 815.58926 372.8983ZM759.72567 471.75404 762.95828 474.10997 759.72567 471.75404ZM738.536 514.7462 734.72958 515.9754 738.536 514.7462ZM782.1411 601.9564 778.4011 603.37509 782.1411 601.9564ZM796.50106 633.8284 800.18338 632.26626 796.50106 633.8284ZM788.1828 635.9299 787.355 639.84329 788.1828 635.9299ZM740.1121 617.19198 741.85647 613.5923 740.1121 617.19198ZM659.6441 571.31027 657.134 574.4246 659.6441 571.31027ZM654.04019 563.3423 656.6649 560.32388 654.04019 563.3423ZM667.61209 586.19558 671.1559 584.3404 667.61209 586.19558ZM684.8615 622.53317 688.5223 620.921 684.8615 622.53317ZM722.77517 708.2548 719.2888 710.2159 722.77517 708.2548ZM718.4847 709.91848 720.1027 706.2603 718.4847 709.91848ZM673.39108 690.5676 674.87039 686.8512 673.39108 690.5676ZM597.5637 661.49758 599.0976 657.80337 597.5637 661.49758ZM547.1289 641.18356 546.3444 645.10586 547.1289 641.18356ZM546.6035 660.62197 542.72079 661.5832 546.6035 660.62197ZM558.1615 713.6836 554.173 713.9857 558.1615 713.6836ZM537.8475 749.846 539.79006 746.3494 537.8475 749.846ZM514.2061 726.99276 511.54869 729.9824 514.2061 726.99276ZM430.4108 663.5114 432.68174 660.21859 430.4108 663.5114ZM407.55754 656.5941 410.29124 659.5142 407.55754 656.5941ZM397.75077 702.4758 401.69773 703.1251 397.75077 702.4758ZM386.01765 745.2053 382.2684 743.8114 386.01765 745.2053ZM370.78215 763.593 369.61946 759.76577 370.78215 763.593ZM343.02549 756.1504 344.7966 752.56387 343.02549 756.1504ZM280.68244 715.96017 278.43159 719.2667 280.68244 715.96017ZM212.82309 658.60806 209.82375 661.2545 212.82309 658.60806ZM218.07674 668.5024 221.44463 666.3443 218.07674 668.5024ZM215.62503 695.6461 218.15013 692.5439 215.62503 695.6461ZM160.18816 658.14889C158.07219 657.5141 156.87146 655.2842 157.50624 653.1682 158.14104 651.05227 160.37097 649.8515 162.48694 650.48629L160.18816 658.14889ZM158.18538 629.948C156.4553 629.948 154.9297 629.2285 153.88527 627.93209 153.07349 626.92446 152.74262 625.76797 152.60906 625.3163 152.39728 624.60006 152.38062 624.49948 152.31345 624.34756 152.298 624.3126 152.4502 624.6726 152.91321 624.962L157.1532 618.178C158.51886 619.0315 159.23595 620.2208 159.6302 621.11257 159.97275 621.8873 160.2106 622.8107 160.28073 623.048 160.4291 623.5497 160.40753 623.2762 160.11505 622.9131 159.9165 622.6667 159.60778 622.38656 159.18137 622.18618 158.76209 621.989 158.39699 621.948 158.18538 621.948V629.948ZM152.91321 624.962C148.01815 621.9026 142.72957 622.06759 135.06943 622.06759V614.06759C141.98378 614.06759 149.91063 613.65139 157.1532 618.178L152.91321 624.962ZM135.06943 622.06759C115.44843 622.06759 97.88127 623.5245 78.77843 627.4158L77.181598 619.5768C96.89645 615.5608 115.00821 614.06759 135.06943 614.06759V622.06759ZM78.77843 627.4158C77.62479 627.6508 70.867259 628.9125 64.52034 629.559 61.398477 629.877 58.102167 630.07699 55.582639 629.8479 54.41876 629.74209 52.86414 629.5062 51.55811 628.7735 50.85361 628.3783 49.924154 627.6726 49.35094 626.4734 48.73308 625.1808 48.78627 623.8588 49.131944 622.7904L56.7435 625.2529C56.91058 624.7365 56.98631 623.89688 56.56873 623.02328 56.1958 622.24307 55.644365 621.893 55.472238 621.79647 55.230939 621.6611 55.358449 621.7945 56.306955 621.88076 58.012205 622.03579 60.661706 621.91067 63.709634 621.6002 69.7023 620.98977 76.180278 619.78079 77.181598 619.5768L78.77843 627.4158ZM49.131944 622.7904C54.866426 605.0656 62.484617 588.08358 70.305469 571.39468 78.15693 554.6404 86.17821 538.24948 92.91647 521.40377L100.34429 524.3749C93.49406 541.5005 85.32115 558.20547 77.549488 574.78939 69.7472 591.43869 62.313314 608.0372 56.7435 625.2529L49.131944 622.7904ZM92.91647 521.40377C92.26879 523.023 92.95479 524.3292 93.23148 524.74368 93.384967 524.9735 93.52606 525.119 93.590648 525.18209 93.62765 525.2182 93.656459 525.2436 93.67381 525.2584 93.69141 525.2734 93.70166 525.28128 93.70269 525.28207 93.70311 525.28237 93.6817 525.2661 93.631587 525.2333 93.5826 525.2012 93.51706 525.16036 93.43263 525.11068 93.26091 525.00967 93.047389 524.8934 92.7912 524.761 92.23858 524.47549 91.72772 524.2353 91.09646 523.9225 90.81192 523.7815 90.502948 523.6252 90.216678 523.4679 89.96448 523.32937 89.574108 523.10647 89.20571 522.82406L94.07316 516.47518C93.93922 516.37246 94.00346 516.43466 94.648509 516.7543 95.09862 516.9773 95.84314 517.3331 96.46379 517.6538 97.06909 517.9666 97.88956 518.4115 98.56975 518.9329 98.88847 519.17727 99.43768 519.6317 99.88479 520.3014 100.336879 520.9785 101.08171 522.5314 100.34429 524.3749L92.91647 521.40377ZM89.20571 522.82406C63.925088 503.4422 42.813726 471.7028 29.296158 444.18489L36.476594 440.65766C49.738397 467.6549 70.18215 498.15873 94.07316 516.47518L89.20571 522.82406ZM29.296158 444.18489C23.361886 432.1044 19.52029 419.3297 15.764054 406.9444 11.975837 394.45368 8.271208 382.34654 2.60273 371.00959L9.758147 367.4319C15.778137 379.47187 19.660212 392.22654 23.419714 404.6226 27.211199 417.12409 30.878338 429.2612 36.476594 440.65766L29.296158 444.18489ZM2.60273 371.00959C2.616078 371.0363 2.545839 370.9064 2.30455 370.4761 2.10169 370.11433 1.817426 369.60926 1.494897 369.0327 .846359 367.87339 .011291 366.36833-.795344 364.85804-1.592756 363.36503-2.400119 361.7969-2.972697 360.53163-3.249536 359.91984-3.531167 359.24949-3.718856 358.64158-3.80519 358.36195-3.936834 357.89277-3.982667 357.35569-4.005395 357.08937-4.025095 356.61875-3.909745 356.06147-3.796358 355.51368-3.47574 354.53169-2.532562 353.7336L2.634976 359.8407C3.535091 359.07908 3.826659 358.15425 3.924197 357.68299 4.023698 357.20228 4.00135 356.82768 3.988361 356.67546 3.962005 356.3666 3.899388 356.1982 3.925119 356.28157 3.961562 356.3996 4.076222 356.70405 4.315765 357.23338 4.775949 358.2503 5.481711 359.6296 6.261236 361.08915 7.031539 362.53138 7.837222 363.9839 8.476697 365.127 9.055037 366.16087 9.619867 367.1553 9.758147 367.4319L2.60273 371.00959ZM-2.532562 353.7336C-1.229353 352.6309 .336959 352.2327 1.539297 352.0698 2.805861 351.89817 4.162154 351.92463 5.467877 352.03807 8.084395 352.26536 11.080505 352.89826 13.903955 353.60966 16.75652 354.3284 19.59726 355.1704 21.920193 355.8656 24.37766 356.60108 26.003802 357.09117 26.76228 357.2446L25.17592 365.08573C23.952582 364.83824 21.815693 364.1849 19.626486 363.52973 17.302746 362.8343 14.613163 362.0384 11.949325 361.3672 9.256371 360.68867 6.749997 360.17958 4.775516 360.00804 3.785739 359.92207 3.074404 359.93489 2.613406 359.99736 2.088182 360.0685 2.267 360.15208 2.634976 359.8407L-2.532562 353.7336ZM26.76228 357.2446C51.92028 362.33436 77.9825 366.6217 103.372539 366.6217V374.6217C77.15804 374.6217 50.459486 370.2009 25.17592 365.08573L26.76228 357.2446ZM103.372539 366.6217C105.27286 366.6217 106.55597 366.59678 107.50056 366.48933 108.46691 366.37937 108.59074 366.22679 108.45523 366.3206 108.17163 366.51695 108.16472 366.74433 108.250659 366.43077 108.37289 365.98475 108.47882 365.13716 108.47882 363.5293H116.47882C116.47882 365.29985 116.38198 367.02796 115.96616 368.54524 115.51406 370.1949 114.63384 371.77308 113.00918 372.89796 111.53261 373.92027 109.84762 374.2739 108.40491 374.43803 106.94044 374.60466 105.21424 374.6217 103.372539 374.6217V366.6217ZM108.47882 363.5293C108.47882 362.2131 107.769069 361.00157 106.02433 358.44895 104.543209 356.28199 102.17447 352.9448 102.17447 348.55647H110.17447C110.17447 350.11595 110.95791 351.4898 112.62896 353.93464 114.0364 355.99378 116.47882 359.29475 116.47882 363.5293H108.47882ZM102.17447 348.55647C102.17447 339.60499 100.07587 332.08888 97.34311 322.7064L105.02394 320.46928C107.73761 329.7862 110.17447 338.3205 110.17447 348.55647H102.17447ZM97.34311 322.7064C86.277019 284.71284 74.55664 245.15424 71.88731 204.87158L79.869808 204.34265C82.47086 243.59503 93.90344 282.28889 105.02394 320.46928L97.34311 322.7064ZM71.88731 204.87158C71.315708 196.2456 70.65271 187.38483 70.65271 178.51404H78.65271C78.65271 187.05622 79.290599 195.60187 79.869808 204.34265L71.88731 204.87158ZM70.65271 178.51404C70.65271 178.64167 70.65458 178.4375 70.41154 177.65546 70.154 176.82672 69.980487 176.3985 69.65274 175.39234 69.52307 174.9942 69.382167 174.53607 69.27388 174.08173 69.17919 173.68451 69.03858 173.01178 69.06226 172.27118 69.08028 171.70807 69.24519 169.68323 71.22329 168.53314 73.033428 167.48078 74.78384 168.12915 75.262668 168.32068L72.29154 175.74848C72.39449 175.78968 72.70676 175.90644 73.16471 175.93958 73.64595 175.97443 74.4293 175.92304 75.244197 175.44928 76.993518 174.43225 77.05294 172.6908 77.05818 172.52692 77.0691 172.18549 77.008449 172.0279 77.05589 172.22699 77.08974 172.36896 77.15314 172.58844 77.25939 172.91468 77.403499 173.35706 77.8283 174.56427 78.051128 175.28125 78.28844 176.04492 78.65271 177.29669 78.65271 178.51404H70.65271ZM75.262668 168.32068C78.74259 169.71265 81.854167 172.58747 84.3148 175.04767 87.06139 177.79376 89.0538 180.06159 90.98604 181.60742L85.98848 187.85437C83.5996 185.94324 80.870098 182.91626 78.65847 180.70502 76.16089 178.20789 74.077938 176.46308 72.29154 175.74848L75.262668 168.32068ZM90.98604 181.60742C104.87192 192.71613 121.1534 200.47986 137.92418 207.48303L134.84149 214.86524C117.91599 207.79743 100.7807 199.68811 85.98848 187.85437L90.98604 181.60742ZM137.92418 207.48303C146.87915 211.22248 155.7197 215.08618 164.2853 220.2738L160.14102 227.1167C152.12458 222.26166 143.76047 218.58966 134.84149 214.86524L137.92418 207.48303ZM164.2853 220.2738C164.84243 220.6112 165.93094 221.43775 167.59654 222.34076 167.9527 222.53388 168.26464 222.6883 168.51953 222.79901 168.79798 222.91999 168.89733 222.93994 168.8528 222.93024 168.82521 222.9242 168.67427 222.89185 168.4359 222.8913 168.21 222.89081 167.7378 222.91785 167.17525 223.15991 166.5517 223.42816 165.92749 223.91803 165.50585 224.64667 165.11185 225.32758 165.04288 225.95972 165.04288 226.32209H173.04288C173.04288 226.95478 172.92185 227.80371 172.43015 228.65345 171.9108 229.55097 171.14325 230.16168 170.33715 230.50855 168.9611 231.10059 167.65848 230.85803 167.14517 230.74585 165.92057 230.47834 164.65389 229.84546 163.78353 229.3736 162.0756 228.44763 159.74929 226.8794 160.14102 227.1167L164.2853 220.2738ZM165.04288 226.32209C165.04288 225.36524 164.78755 223.96619 164.21956 222.11396 163.66548 220.30707 162.88996 218.30585 162.01485 216.20478 160.36142 212.23505 158.15772 207.51941 157.156 204.18042L164.81862 201.88166C165.66297 204.69617 167.48705 208.53632 169.39989 213.12885 170.30792 215.30896 171.20014 217.59052 171.86803 219.76856 172.52202 221.90119 173.04288 224.18921 173.04288 226.32209H165.04288ZM157.156 204.18042C150.83892 183.12342 147.39177 162.76905 146.65738 140.64551L154.65297 140.38013C155.36363 161.78858 158.69217 181.46015 164.81862 201.88166L157.156 204.18042ZM146.65738 140.64551C145.93167 118.78381 146.21198 95.90857 149.86177 74.009769L157.75293 75.32495C154.23137 96.454288 153.9339 118.717838 154.65297 140.38013L146.65738 140.64551ZM149.86177 74.009769C152.81873 56.268007 156.55202 34.00305 167.67462 17.848816L174.2638 22.38562C164.33713 36.802919 160.78037 57.16028 157.75293 75.32495L149.86177 74.009769ZM167.67462 17.848816C168.61763 16.479187 171.13777 12.442688 174.11844 9.498169 175.60507 8.029541 177.56932 6.450256 179.89963 5.721985 182.51749 4.90387 185.40053 5.243164 187.89534 7.329712L182.7629 13.466309C182.52832 13.270142 182.52751 13.282288 182.28589 13.357788 181.75672 13.523193 180.88587 14.058105 179.74068 15.189453 177.4577 17.444703 175.52725 20.550599 174.2638 22.38562L167.67462 17.848816ZM187.89534 7.329712C191.08129 9.994324 193.81137 13.591736 196.12766 17.030152 197.30084 18.771729 198.40921 20.536438 199.43845 22.187561 200.48155 23.860962 201.42671 25.39038 202.32924 26.760865L195.64788 31.160767C194.67557 29.684327 193.66172 28.043457 192.64943 26.419495 191.62326 24.773316 190.57987 23.113648 189.4927 21.499817 187.28833 18.227478 185.06352 15.390442 182.7629 13.466309L187.89534 7.329712ZM202.32924 26.760865C206.43697 32.998537 210.44222 39.298097 214.43051 45.559755 218.42491 51.83087 222.40412 58.066835 226.48876 64.22589L219.82169 68.64746C215.69069 62.418519 211.67421 56.12372 207.683 49.857545 203.68572 43.581789 199.71544 37.337465 195.64788 31.160767L202.32924 26.760865ZM226.48876 64.22589C240.00086 84.60016 254.37213 104.49072 271.1368 121.984317L265.3609 127.51953C248.10762 109.51611 233.42899 89.16528 219.82169 68.64746L226.48876 64.22589ZM271.1368 121.984317C285.5025 136.97461 301.98829 153.98456 320.12904 162.55103L316.71296 169.78504C296.98768 160.47028 279.4843 142.25702 265.3609 127.51953L271.1368 121.984317ZM320.12904 162.55103C322.24455 163.55005 323.1648 163.6883 323.41099 163.68585 323.43843 163.68555 323.2302 163.68824 322.95167 163.85059 322.68196 164.00775 322.58283 164.17725 322.60438 164.14228 322.74989 163.90607 323.0039 163.23072 323.34516 161.49286 323.60859 160.1513 324.0234 157.58893 324.48747 155.36798L332.31834 157.00434C331.8095 159.43939 331.59934 160.9765 331.19523 163.03437 330.86897 164.6958 330.41294 166.7196 329.4154 168.33863 328.86543 169.23133 328.0865 170.11743 326.97999 170.76233 325.8646 171.41242 324.6625 171.67383 323.4902 171.68543 321.3369 171.70679 319.03425 170.88117 316.71296 169.78504L320.12904 162.55103ZM324.48747 155.36798C326.0704 147.79254 326.9577 139.97443 327.7971 131.97376 328.62989 124.03577 329.41844 115.880619 330.81623 107.936038 333.6265 91.963687 338.97767 76.3241 352.61589 63.36212L358.12715 69.16095C346.23139 80.4668 341.3566 94.196109 338.6952 109.32233 337.35719 116.927127 336.59849 124.75372 335.75343 132.80847 334.91493 140.8006 333.9937 148.98633 332.31834 157.00434L324.48747 155.36798ZM352.61589 63.36212C357.86149 58.376649 365.0759 53.940309 372.6457 50.723146 380.20735 47.50952 388.4317 45.38153 395.76649 45.27527L395.8824 53.274415C389.87525 53.36145 382.69383 55.145265 375.77479 58.085817 368.86393 61.02289 362.52284 64.983219 358.12715 69.16095L352.61589 63.36212ZM395.76649 45.27527C402.5373 45.177125 408.55528 49.209169 413.1658 53.443788 417.88993 57.782777 421.8884 63.044435 424.5966 66.669559L418.18757 71.45746C415.47096 67.821048 411.867 63.11322 407.7542 59.335695 403.52784 55.45392 399.4744 53.22235 395.8824 53.274415L395.76649 45.27527ZM424.5966 66.669559C435.786 81.64752 445.36705 97.69275 454.8631 113.515567 464.39558 129.39899 473.8482 145.06855 484.90705 159.63391L478.53547 164.47156C467.17256 149.5058 457.50709 133.4674 448.00364 117.632328 438.4638 101.73663 429.0911 86.052799 418.18757 71.45746L424.5966 66.669559ZM484.90705 159.63391C486.10786 161.21546 488.02976 164.07587 489.9302 166.75397 491.93598 169.58057 494.07725 172.4425 496.04188 174.56049 497.02888 175.62451 497.86067 176.3789 498.5103 176.83551 499.265 177.36585 499.28486 177.14954 498.762 177.16358 498.40437 177.17316 497.992 177.2926 497.64039 177.5409 497.32426 177.76416 497.23396 177.96631 497.26676 177.90338 497.37693 177.69196 497.66618 176.8778 497.77946 174.95185L505.76567 175.42163C505.62904 177.74433 505.249 179.89691 504.3612 181.60053 503.35957 183.52259 501.54225 185.09186 498.97654 185.1607 496.88896 185.21674 495.10597 184.22101 493.91044 183.3808 492.60987 182.4668 491.34403 181.25952 490.17665 180.00098 487.8325 177.47382 485.43788 174.24713 483.40596 171.38367 481.26866 168.37177 479.65098 165.94074 478.53547 164.47156L484.90705 159.63391ZM497.77946 174.95185C497.9005 172.89386 498.75489 171.0177 499.65617 169.52039 500.5856 167.9762 501.76985 166.5022 502.9408 165.19391 505.18849 162.6825 508.01918 160.1311 509.18873 158.96161L514.8456 164.61841C513.1524 166.31159 510.99418 168.1914 508.90196 170.52912 507.90293 171.64533 507.07945 172.70044 506.5103 173.64594 505.91304 174.63825 505.77796 175.21253 505.76567 175.42163L497.77946 174.95185ZM509.18873 158.96161C528.4488 139.70148 547.6276 124.13916 571.60397 110.58734L575.5404 117.55182C552.32467 130.67377 533.71218 145.75183 514.8456 164.61841L509.18873 158.96161ZM571.60397 110.58734C577.14468 107.45563 582.94998 103.968509 588.78347 100.898258L592.5094 107.9776C586.8053 110.97974 581.3473 114.26965 575.5404 117.55182L571.60397 110.58734ZM588.78347 100.898258C590.36947 100.06348 592.18838 99.93671 593.8802 100.68152 595.34658 101.32709 596.32717 102.45691 596.95089 103.36127 598.1981 105.16968 599.0461 107.61017 599.64529 109.72443 600.2741 111.9436 600.7538 114.27545 601.1069 116.13428 601.28268 117.05945 601.4358 117.91547 601.5526 118.54956 601.61288 118.87634 601.66299 119.14215 601.70547 119.3537 601.7265 119.458438 601.7438 119.540409 601.7577 119.60303 601.77236 119.66864 601.7791 119.69452 601.77859 119.69226L594.0493 121.7561C593.84848 121.003787 593.5461 119.1994 593.24746 117.6272 592.90756 115.83789 592.47976 113.78088 591.9483 111.90558 591.38717 109.92529 590.8221 108.56561 590.3653 107.90326 590.13699 107.572269 590.1928 107.79913 590.65689 108.00342 591.34646 108.30701 592.0855 108.20068 592.5094 107.9776L588.78347 100.898258ZM601.77859 119.69226C607.45687 140.95819 611.5106 162.58228 615.96969 183.78479 620.4452 205.0658 625.34909 226.0354 632.7571 246.40741L625.2387 249.14136C617.6286 228.21344 612.632 206.7862 608.1409 185.43122 603.6333 163.99768 599.6541 142.74665 594.0493 121.7561L601.77859 119.69226ZM632.7571 246.40741C634.0311 249.91107 635.04678 251.20355 635.4712 251.54846 635.5801 251.6369 635.4139 251.47327 635.0313 251.46265 634.6858 251.45313 634.5663 251.58155 634.75 251.46515 635.26559 251.13843 636.18429 250.17798 637.44509 248.18195 638.6355 246.29724 639.86807 243.92548 641.16976 241.28009L648.34786 244.8122C647.02908 247.49225 645.64059 250.18744 644.20877 252.45426 642.84719 254.60977 641.1422 256.8855 639.03207 258.22267 637.90286 258.9382 636.4699 259.50547 634.81039 259.45964 633.1138 259.41276 631.63296 258.7376 630.4264 257.7573 628.22006 255.96463 626.60208 252.89048 625.2387 249.14136L632.7571 246.40741ZM641.16976 241.28009C654.6705 213.84314 670.7089 193.75458 694.34689 174.69947L699.3677 180.92774C676.64419 199.24567 661.3387 218.41138 648.34786 244.8122L641.16976 241.28009ZM694.34689 174.69947C695.1936 174.0169 699.7778 169.88404 704.2847 166.67517 706.56588 165.05109 709.1307 163.43183 711.53958 162.46369 712.7408 161.9809 714.1222 161.56885 715.5424 161.5075 717.0035 161.44434 718.78 161.75159 720.28726 163.03272L715.106 169.12824C715.5846 169.53504 716.011 169.49469 715.8878 169.50006 715.72378 169.50714 715.2868 169.57959 714.5229 169.8866 713.0014 170.49811 711.04898 171.67975 708.9247 173.19214 704.6211 176.25623 700.84286 179.73859 699.3677 180.92774L694.34689 174.69947ZM720.28726 163.03272C721.863 164.37213 723.025 166.15375 723.90176 167.87763 724.79647 169.63678 725.51516 171.57978 726.1008 173.46076 727.2644 177.19794 728.0281 181.12274 728.52609 183.45929L720.7018 185.12677C720.1626 182.59693 719.48806 179.13282 718.4625 175.83899 717.9536 174.20447 717.39 172.72144 716.77096 171.50415 716.1339 170.25153 715.55068 169.50617 715.106 169.12824L720.28726 163.03272ZM728.52609 183.45929C730.4652 192.55854 731.01748 201.8628 731.26467 210.96527 731.5152 220.18958 731.455 229.01587 732.1053 237.75849L724.1273 238.35187C723.45889 229.36469 723.50827 220.04114 723.26766 211.18244 723.0237 202.2019 722.4841 193.48999 720.7018 185.12677L728.52609 183.45929ZM732.1053 237.75849C733.56448 257.3755 736.1493 276.86497 738.35537 296.64634 740.5534 316.35554 742.36 336.24287 742.1856 356.29655L734.1859 356.227C734.356 336.66777 732.59426 317.16654 730.40469 297.53306 728.2231 277.97175 725.601 258.16438 724.1273 238.35187L732.1053 237.75849ZM742.1856 356.29655C742.1292 362.78245 741.1751 369.34468 740.6835 375.24436L732.71109 374.58C733.26199 367.9694 734.13278 362.34214 734.1859 356.227L742.1856 356.29655ZM740.6835 375.24436C740.60476 376.18873 740.5302 376.905 740.5001 377.231 740.4781 377.46958 740.48837 377.41523 740.4885 377.28056 740.4886 377.2308 740.4878 377.10899 740.4726 376.94844 740.4626 376.8426 740.4244 376.4407 740.24276 375.9552 740.1364 375.67106 739.4665 373.94499 737.40237 373.4707 735.4033 373.01145 734.0648 374.19554 733.87 374.368 733.50057 374.69508 733.2852 375.01295 733.22726 375.0987 733.1407 375.22679 733.0836 375.32878 733.0608 375.37019 733.01559 375.4525 732.99349 375.5022 733.0109 375.46504 733.0553 375.37065 733.0787 375.31498 733.1964 375.05805 733.38906 374.6377 733.6801 374.02394 734.08657 373.30137L741.05917 377.22346C740.802 377.68064 740.61318 378.07655 740.46896 378.39125 740.4183 378.5018 740.3089 378.74504 740.2512 378.86775 740.21768 378.93913 740.1523 379.07698 740.0707 379.2253 740.0297 379.29978 739.95626 379.42927 739.8549 379.57914 739.7822 379.68669 739.55386 380.02064 739.173 380.35786 738.9667 380.54048 737.6183 381.72877 735.61099 381.26759 733.53848 380.7914 732.86178 379.05726 732.75009 378.75874 732.563 378.25886 732.5209 377.83625 732.50827 377.70317 732.4905 377.51536 732.4884 377.3597 732.4885 377.26945 732.48898 376.97264 732.5199 376.64823 732.534 376.4958 732.57608 376.03974 732.63528 375.49009 732.71109 374.58L740.6835 375.24436ZM734.08657 373.30137C742.30636 358.6884 757.6464 355.37223 772.32858 354.71397 779.7075 354.38313 787.4245 354.71165 794.3767 354.82048 801.4843 354.93177 807.8122 354.81553 813.0343 353.74433L814.64187 361.58116C808.47128 362.8469 801.35189 362.93067 794.25149 362.8195 786.9956 362.7059 779.7438 362.38954 772.6869 362.70594 758.49728 363.34214 747.09738 366.48887 741.05917 377.22346L734.08657 373.30137ZM813.0343 353.74433C813.01296 353.7487 813.08938 353.73268 813.32388 353.6572 813.5403 353.5875 813.8028 353.49635 814.1346 353.37913 814.76016 353.1581 815.6138 352.84999 816.4677 352.5886 817.3019 352.3332 818.34506 352.05525 819.3876 351.94917 820.24887 351.86158 822.05886 351.77503 823.6621 352.8973L819.0744 359.45118C819.5566 359.7887 819.9806 359.87016 820.1286 359.89103 820.2806 359.91249 820.3206 359.89555 820.1972 359.90809 819.9343 359.93486 819.4793 360.0331 818.80947 360.23817 818.1593 360.4372 817.503 360.67369 816.79946 360.92225 816.2266 361.1246 815.3611 361.4336 814.64187 361.58116L813.0343 353.74433ZM823.6621 352.8973C825.32717 354.06285 825.83139 355.7987 825.9565 356.98658 826.0804 358.16313 825.90689 359.33229 825.6902 360.29206 825.2495 362.24357 824.36758 364.42369 823.4823 366.3542 822.5745 368.33375 821.5588 370.27259 820.73989 371.78855 820.3301 372.5471 819.9602 373.21693 819.68209 373.72358 819.54049 373.98149 819.4264 374.19029 819.33767 374.35588 819.29367 374.43803 819.2599 374.50196 819.2348 374.55055 819.20797 374.60246 819.1999 374.6196 819.20327 374.6126L811.9752 371.18397C812.2246 370.65818 813.0013 369.2819 813.70126 367.98625 814.4878 366.53013 815.4091 364.767 816.21047 363.01954 817.03427 361.223 817.6335 359.65095 817.8866 358.53 818.0168 357.95356 817.9933 357.75639 818.0005 357.82463 818.00888 357.90419 818.1296 358.7898 819.0744 359.45118L823.6621 352.8973ZM819.20327 374.6126C803.2517 408.24015 785.1474 443.66438 762.95828 474.10997L756.4931 469.39808C778.21817 439.5893 796.061 404.73289 811.9752 371.18397L819.20327 374.6126ZM762.95828 474.10997C760.8222 477.04084 758.05746 480.35533 755.38259 483.67485 752.65219 487.06327 749.9217 490.56773 747.6074 494.1315 742.8355 501.4797 740.5592 507.99458 742.34249 513.5171L734.72958 515.9754C731.7448 506.73228 735.9432 497.4043 740.898 489.77445 743.4471 485.84919 746.393 482.08079 749.15328 478.6553 751.969 475.16096 754.509 472.12049 756.4931 469.39808L762.95828 474.10997ZM742.34249 513.5171C747.1791 528.49496 754.98757 542.36129 763.2161 556.5311 771.3766 570.5836 779.97909 584.97799 785.8811 600.53787L778.4011 603.37509C772.7816 588.56 764.567 574.78799 756.29806 560.5485 748.09719 546.4264 739.86386 531.875 734.72958 515.9754L742.34249 513.5171ZM785.8811 600.53787C787.9119 605.8917 790.306 611.0587 792.80007 616.2987 795.2747 621.4979 797.8702 626.8138 800.18338 632.26626L792.8187 635.3906C790.5919 630.1417 788.1004 625.0394 785.57656 619.7368 783.0721 614.47506 780.5562 609.0567 778.4011 603.37509L785.8811 600.53787ZM800.18338 632.26626C800.5873 633.2183 800.9157 634.3981 800.8001 635.6848 800.6725 637.1057 800.0244 638.3675 798.9749 639.2795 798.0278 640.10256 796.96 640.4657 796.1605 640.6412 795.33688 640.822 794.5192 640.864 793.81558 640.8549 791.21487 640.82138 788.01199 639.98226 787.355 639.84329L789.0106 632.0165C789.77658 632.17849 790.324 632.3295 791.38467 632.53598 792.3412 632.7221 793.2348 632.84677 793.9188 632.8556 794.0777 632.85769 794.20376 632.8529 794.29916 632.8452 794.346 632.84146 794.3818 632.8372 794.4072 632.8336 794.4198 632.8318 794.42929 632.8302 794.4357 632.8291 794.4422 632.82797 794.4452 632.8273 794.445 632.8273 794.4449 632.82736 794.441 632.8282 794.43368 632.83016 794.4264 632.83206 794.4151 632.8352 794.4002 632.83999 794.37106 632.8492 794.324 632.86569 794.263 632.89279 794.1436 632.94589 793.9465 633.05068 793.72756 633.24087 793.20437 633.6955 792.88809 634.34689 792.8322 634.969 792.7884 635.457 792.9285 635.64956 792.8187 635.3906L800.18338 632.26626ZM787.355 639.84329C770.1237 636.19827 753.4525 628.1013 738.3678 620.79159L741.85647 613.5923C757.1147 620.9862 772.90127 628.6087 789.0106 632.0165L787.355 639.84329ZM738.3678 620.79159C711.2744 607.6626 681.32949 593.9255 657.134 574.4246L662.1542 568.19589C685.4746 586.99148 714.43606 600.30496 741.85647 613.5923L738.3678 620.79159ZM657.134 574.4246C656.74649 574.1123 656.23776 573.5654 655.931 573.2358 655.5102 572.78347 654.98239 572.2006 654.40859 571.55447 653.2633 570.26486 651.8855 568.66726 650.7496 567.2722 650.1851 566.5791 649.6504 565.89926 649.2261 565.3148 649.01577 565.025 648.8028 564.7181 648.6181 564.41989 648.48837 564.21047 648.1698 563.6915 647.976 563.0626 647.9145 562.86318 647.5941 561.8632 647.9448 560.6541 648.1594 559.9141 648.6326 559.08828 649.48538 558.48037 650.2954 557.90286 651.12588 557.7519 651.68258 557.729 652.6521 557.6891 653.3862 558.00918 653.58456 558.0957 653.8957 558.2314 654.1551 558.3839 654.33157 558.4945 654.98 558.9008 655.7821 559.5562 656.6649 560.32388L651.41549 566.3607C651.00009 565.99948 650.67886 565.7318 650.43789 565.54067 650.1805 565.3364 650.0773 565.26956 650.08377 565.27359 650.0918 565.2786 650.11917 565.2956 650.1631 565.31967 650.205 565.34268 650.2816 565.3829 650.38668 565.4287 650.46536 565.463 651.1077 565.7594 652.0115 565.7222 652.53536 565.7007 653.33938 565.5576 654.12936 564.99447 654.962 564.4009 655.4213 563.5957 655.6282 562.88259 655.9633 561.72708 655.6516 560.80526 655.6211 560.70639 655.48928 560.27859 655.3222 560.05087 655.4188 560.20687 655.4605 560.27407 655.54879 560.4067 655.7 560.615 655.99887 561.0266 656.42849 561.5766 656.953 562.22079 657.995 563.5004 659.29367 565.0074 660.3903 566.2424 660.9375 566.8585 661.422 567.39297 661.78829 567.7866 662.2687 568.30307 662.3217 568.33096 662.1542 568.19589L657.134 574.4246ZM656.6649 560.32388C660.5179 563.67428 663.21328 568.06216 665.3751 572.27877 666.4632 574.4008 667.4593 576.56936 668.39559 578.60018 669.3463 580.6625 670.2328 582.57717 671.1559 584.3404L664.0683 588.05068C663.03659 586.0799 662.06777 583.9826 661.13046 581.9495 660.17868 579.885 659.25399 577.8746 658.2563 575.92868 656.24679 572.0092 654.11099 568.7046 651.41549 566.3607L656.6649 560.32388ZM671.1559 584.3404C677.4696 596.4013 683.0692 608.5381 688.5223 620.921L681.20077 624.1452C675.78158 611.83926 670.2636 599.8854 664.0683 588.05068L671.1559 584.3404ZM688.5223 620.921C701.2446 649.81149 711.1291 679.3918 726.2615 706.29379L719.2888 710.2159C703.9265 682.9051 693.5055 652.08737 681.20077 624.1452L688.5223 620.921ZM726.2615 706.29379C726.9868 707.5833 727.7242 709.03536 727.9465 710.37417 728.05447 711.02456 728.20236 712.5593 727.1599 713.99099 726.0008 715.58297 724.3086 715.819 723.4851 715.8254 722.66067 715.8318 721.925 715.63858 721.4681 715.49996 720.9562 715.3447 720.4375 715.14389 719.96377 714.94747 719.0648 714.57479 717.88546 714.0272 716.86666 713.5766L720.1027 706.2603C721.3621 706.8174 722.23007 707.22677 723.0275 707.5574 723.4019 707.7126 723.64376 707.8 723.7897 707.84426 723.9906 707.90518 723.81008 707.82266 723.42306 707.8256 723.037 707.8286 721.66458 707.94717 720.69259 709.2821 719.8373 710.4568 720.0397 711.5951 720.05447 711.6842 720.0875 711.88369 720.11776 711.8728 719.9708 711.53909 719.84036 711.2426 719.6246 710.81277 719.2888 710.2159L726.2615 706.29379ZM716.86666 713.5766C701.8885 706.95169 687.01449 700.2958 671.9117 694.284L674.87039 686.8512C690.14578 692.9317 705.18069 699.6602 720.1027 706.2603L716.86666 713.5766ZM671.9117 694.284C659.38406 689.29727 646.73678 684.6469 634.03158 679.92208 621.3463 675.2047 608.61788 670.41836 596.02987 665.1918L599.0976 657.80337C611.5339 662.9669 624.1381 667.70767 636.82 672.42379 649.48196 677.1325 662.2362 681.8221 674.87039 686.8512L671.9117 694.284ZM596.02987 665.1918C587.94259 661.83389 579.305 657.462 571.1433 653.7748 562.78549 649.9989 554.5351 646.74398 546.3444 645.10586L547.9134 637.26119C557.0123 639.081 565.92636 642.63937 574.43698 646.48428 583.14376 650.4177 591.07876 654.4739 599.0976 657.80337L596.02987 665.1918ZM546.3444 645.10586C545.8892 645.0148 546.12606 645.1718 546.6053 644.9076 547.1134 644.62747 547.2282 644.24429 547.1961 644.3391 547.042 644.79397 546.97299 646.0869 547.3695 648.3627 547.73257 650.4461 548.3675 652.743 548.9953 654.8042 549.5553 656.6427 550.25326 658.7191 550.4863 659.66067L542.72079 661.5832C542.54898 660.8892 542.06558 659.5092 541.3424 657.1352 540.68716 654.9839 539.9372 652.31228 539.4883 649.736 539.0729 647.3521 538.7647 644.2944 539.6191 641.77236 540.0912 640.37869 541.0221 638.8505 542.74258 637.9019 544.4341 636.96926 546.2795 636.9344 547.9134 637.26119L546.3444 645.10586ZM550.4863 659.66067C554.7459 676.866 560.7342 694.69149 562.1501 713.3814L554.173 713.9857C552.8245 696.1864 547.1934 679.6493 542.72079 661.5832L550.4863 659.66067ZM562.1501 713.3814C562.5303 718.3996 561.2477 730.1659 557.8702 739.65316 556.1961 744.3554 553.7926 749.13619 550.2926 752.1278 548.47219 753.6838 546.25119 754.8423 543.64547 755.1179 541.03359 755.3942 538.42416 754.74227 535.9049 753.34268L539.79006 746.3494C541.1691 747.1156 542.13906 747.23269 542.80386 747.16238 543.4748 747.0914 544.2277 746.7876 545.0947 746.0465 546.96957 744.44406 548.7949 741.2918 550.3335 736.97006 553.3813 728.40908 554.4591 717.76266 554.173 713.9857L562.1501 713.3814ZM535.9049 753.34268C530.6499 750.4232 526.32559 746.01437 522.51828 741.7767 518.55148 737.36148 515.2453 733.26828 511.54869 729.9824L516.8636 724.0031C521.0079 727.6869 524.8912 732.4475 528.46926 736.4301 532.20687 740.5902 535.7827 744.1231 539.79006 746.3494L535.9049 753.34268ZM511.54869 729.9824C485.8002 707.09487 456.68574 686.4911 428.13987 666.80429L432.68174 660.21859C461.2308 679.9076 490.7102 700.7557 516.8636 724.0031L511.54869 729.9824ZM428.13987 666.80429C425.88273 665.2476 422.11357 662.3623 418.06336 660.4401 416.05479 659.4869 414.28453 658.9295 412.87019 658.8242 411.54759 658.7257 410.81245 659.0263 410.29124 659.5142L404.82383 653.6741C407.3977 651.26449 410.55775 650.6299 413.46415 650.84628 416.27879 651.05587 419.07139 652.06338 421.49333 653.2127 426.30409 655.49588 430.86653 658.9667 432.68174 660.21859L428.13987 666.80429ZM410.29124 659.5142C408.70976 660.99478 407.3305 663.4797 406.2183 667.00259 405.12214 670.4746 404.39604 674.5919 403.87565 678.96878 403.35639 683.33596 403.0587 687.8018 402.76908 691.9898 402.4853 696.0937 402.2031 700.05307 401.69773 703.1251L393.80384 701.82656C394.23533 699.20358 394.49635 695.6577 394.78816 691.4379 395.07414 687.3023 395.38444 682.626 395.93159 678.0242 396.4776 673.4319 397.27638 668.75326 398.58949 664.594 399.88658 660.4856 401.8011 656.5039 404.82383 653.6741L410.29124 659.5142ZM401.69773 703.1251C399.22084 718.182 395.0307 732.44149 389.7669 746.5993L382.2684 743.8114C387.40373 729.99917 391.43128 716.249 393.80384 701.82656L401.69773 703.1251ZM389.7669 746.5993C386.91828 754.2611 382.6947 764.15457 371.94486 767.4203L369.61946 759.76577C376.21684 757.7615 379.33445 751.7027 382.2684 743.8114L389.7669 746.5993ZM371.94486 767.4203C366.6343 769.0336 360.3661 767.6249 355.19154 765.8511 349.83357 764.0144 344.66639 761.4219 341.25437 759.7369L344.7966 752.56387C348.30305 754.2954 353.00135 756.6433 357.7857 758.2834 362.75346 759.98629 366.9043 760.5906 369.61946 759.76577L371.94486 767.4203ZM341.25437 759.7369C319.2117 748.8516 298.12644 732.67349 278.43159 719.2667L282.93333 712.65359C303.17887 726.4351 323.4187 742.0069 344.7966 752.56387L341.25437 759.7369ZM278.43159 719.2667C254.23107 702.7929 229.53588 683.595 209.82375 661.2545L215.82245 655.96157C234.89694 677.57937 258.9705 696.3415 282.93333 712.65359L278.43159 719.2667ZM209.82375 661.2545C208.85991 660.1622 208.33158 659.6216 208.10569 659.4182 208.05886 659.3761 208.07762 659.39657 208.14743 659.4479 208.16805 659.4631 208.45131 659.6793 208.90895 659.8548 209.06414 659.9143 211.11646 660.72378 212.92707 659.08877 213.76616 658.33108 214.05846 657.4325 214.15937 656.8939 214.2582 656.36636 214.22348 655.9442 214.1988 655.7396 214.12314 655.11196 213.8978 654.72817 214.01216 654.97 214.04912 655.0481 214.13185 655.2084 214.27909 655.4671 214.56865 655.97616 214.99427 656.66848 215.51883 657.4896 216.56122 659.12136 217.8841 661.0901 219.0293 662.7779 220.1286 664.3981 221.14185 665.87179 221.44463 666.3443L214.70883 670.66049C214.4813 670.3053 213.6046 669.03128 212.4093 667.26968 211.25994 665.5757 209.88358 663.5285 208.77707 661.79647 208.22718 660.93569 207.71593 660.10916 207.32558 659.423 207.13285 659.0842 206.93985 658.72787 206.78026 658.3904 206.69806 658.2166 206.35532 657.51828 206.25634 656.69717 206.22583 656.4442 206.19116 655.98129 206.29616 655.4208 206.40323 654.8493 206.70781 653.9258 207.56552 653.15127 209.41338 651.4826 211.52834 652.2912 211.77339 652.3852 212.3209 652.59518 212.72132 652.88119 212.88819 653.0039 213.10424 653.16287 213.29837 653.32876 213.45789 653.4723 214.05738 654.01199 214.85013 654.8596 215.82245 655.96157L209.82375 661.2545ZM221.44463 666.3443C225.6132 672.8498 229.4732 679.96749 230.5392 688.49539L222.60099 689.4877C221.76294 682.78329 218.70833 676.9021 214.70883 670.66049L221.44463 666.3443ZM230.5392 688.49539C230.85903 691.05398 230.80197 693.49368 230.24672 695.6341 229.6926 697.77017 228.56093 699.8758 226.54064 701.2376 222.2187 704.1509 217.07436 701.98336 213.09995 698.74838L218.15013 692.5439C219.7345 693.8335 220.8861 694.35708 221.57247 694.5232 222.182 694.6708 222.21535 694.5054 222.0691 694.60397 221.9935 694.6549 222.27196 694.51608 222.50302 693.6253 222.73297 692.73886 222.83618 691.3693 222.60099 689.4877L230.5392 688.49539ZM213.09995 698.74838C208.54407 695.0401 204.25536 690.9834 200.09516 686.95449 195.89871 682.8903 191.86994 678.89169 187.67322 675.11209 179.30408 667.5747 170.67108 661.29379 160.18816 658.14889L162.48694 650.48629C174.64253 654.13296 184.32575 661.33108 193.02695 669.1675 197.3654 673.07479 201.56032 677.23666 205.66068 681.2077 209.79729 685.21389 213.87845 689.0669 218.15013 692.5439L213.09995 698.74838Z" fill="#1e1e1e"/>
<path transform="matrix(1,0,0,-1,1088,578.10037)" d="M0-29.53598ZM58.320005 77.16803H68.832V73.28003C68.832 67.80802 67.488 62.76802 64.8 58.160028 62.112005 53.552026 58.416006 49.42402 53.712007 45.776018 49.104005 42.224023 43.776006 39.248025 37.728006 36.848024 31.776001 34.54402 25.440003 32.912019 18.720002 31.952019L14.256001 41.456026C18.864 42.12802 23.328 43.136018 27.648 44.48002 32.064 45.82402 36.096 47.456018 39.744005 49.376024 43.392004 51.39202 46.608 53.648027 49.392004 56.144029 52.176004 58.64003 54.336004 61.328027 55.872 64.20802 57.504 67.08803 58.320005 70.11203 58.320005 73.28003V77.16803ZM63.216005 77.16803H73.728008V73.28003C73.728008 70.20802 74.496 67.232028 76.032 64.35202 77.664 61.472024 79.872 58.73603 82.656 56.144029 85.44 53.648027 88.656009 51.39202 92.304 49.376024 96.048 47.456018 100.08 45.82402 104.4 44.48002 108.72 43.136018 113.184009 42.12802 117.792 41.456026L113.32801 31.952019C106.70401 32.912019 100.368007 34.54402 94.32001 36.848024 88.272 39.248025 82.944 42.224023 78.336009 45.776018 73.728008 49.42402 70.032009 53.552026 67.248 58.160028 64.560009 62.76802 63.216005 67.80802 63.216005 73.28003V77.16803ZM18 83.07203H114.19201V73.42403H18V83.07203ZM7.056 22.592026H125.136V12.800018H7.056V22.592026ZM60.912004 16.400025H72.864009V-13.551971H60.912004V16.400025ZM22.032002-28.095978H112.032009V-37.887987H22.032002V-28.095978ZM22.032002-.879974H33.984V-31.695984H22.032002V-.879974ZM129.15676-29.53598ZM230.96475 89.552028H242.91677V-40.911989H230.96475V89.552028ZM143.70076 78.46403H155.65276V44.192026H193.23676V78.46403H205.04476V-9.519974H143.70076V78.46403ZM155.65276 34.68802V.416016H193.23676V34.68802H155.65276ZM258.3135-29.53598ZM265.2255 67.232028H329.8815V57.440027H265.2255V67.232028ZM297.62553 48.800027C303.0975 48.800027 307.8975 47.552026 312.0255 45.056024 316.2495 42.56002 319.56153 39.056024 321.96153 34.54402 324.3615 30.128022 325.56153 24.99202 325.56153 19.136025 325.56153 13.280022 324.3615 8.096024 321.96153 3.584023 319.56153-.83197 316.2495-4.335983 312.0255-6.927979 307.8975-9.423981 303.0975-10.671982 297.62553-10.671982 292.2495-10.671982 287.44953-9.423981 283.2255-6.927979 279.0015-4.335983 275.6895-.83197 273.28953 3.584023 270.88954 8.096024 269.6895 13.280022 269.6895 19.136025 269.6895 24.99202 270.88954 30.128022 273.28953 34.54402 275.6895 38.960023 279.0015 42.416025 283.2255 44.912027 287.44953 47.50403 292.2495 48.800027 297.62553 48.800027ZM297.62553 38.720026C294.3615 38.720026 291.38554 37.856027 288.6975 36.12802 286.1055 34.496026 284.0415 32.192026 282.50553 29.216027 281.06553 26.33603 280.34553 22.976029 280.34553 19.136025 280.34553 15.296021 281.06553 11.888023 282.50553 8.912025 284.0415 5.93602 286.1055 3.632019 288.6975 2.000015 291.38554 .368011 294.3615-.447983 297.62553-.447983 300.9855-.447983 303.9615 .368011 306.5535 2.000015 309.1455 3.632019 311.1615 5.93602 312.6015 8.912025 314.1375 11.888023 314.90553 15.296021 314.90553 19.136025 314.90553 22.976029 314.1375 26.33603 312.6015 29.216027 311.1615 32.192026 309.1455 34.496026 306.5535 36.12802 303.9615 37.856027 300.9855 38.720026 297.62553 38.720026ZM364.29753 89.552028H375.67353V-40.767976H364.29753V89.552028ZM343.4175 34.68802H368.0415V24.896027H343.4175V34.68802ZM336.3615 86.52803H347.5935V-34.431978H336.3615V86.52803ZM291.7215 85.66402H303.5295V61.328027H291.7215V85.66402ZM387.47026-29.53598ZM417.02708 75.1913 415.6975 .583344H401.53276L400.2032 75.1913H417.02708ZM408.6407-30.507569C405.81117-30.507569 403.39073-29.518937 401.37934-27.541657 399.36799-25.530289 398.37934-23.109848 398.41343-20.280304 398.37934-17.484848 399.36799-15.09848 401.37934-13.121201 403.39073-11.109833 405.81117-10.104156 408.6407-10.104156 411.40208-10.104156 413.78843-11.109833 415.7998-13.121201 417.81117-15.09848 418.8339-17.484848 418.86799-20.280304 418.8339-22.155304 418.33958-23.876893 417.385-25.445069 416.46458-26.979157 415.23728-28.206437 413.7032-29.126893 412.1691-30.047348 410.4816-30.507569 408.6407-30.507569Z" fill="#1e1e1e"/>
<use data-text="&#xc900;" xlink:href="#font_0_3" transform="matrix(144,0,0,-144,1088,607.63638)"/>
<use data-text="&#xbe44;" xlink:href="#font_0_2" transform="matrix(144,0,0,-144,1217.1567,607.63638)"/>
<use data-text="&#xd574;" xlink:href="#font_0_0" transform="matrix(144,0,0,-144,1346.3135,607.63638)"/>
<use data-text="!" xlink:href="#font_0_1" transform="matrix(144,0,0,-144,1475.4702,607.63638)"/>
</svg>
