<svg xmlns="http://www.w3.org/2000/svg" xmlns:xlink="http://www.w3.org/1999/xlink" width="1867pt" height="1561.545" viewBox="0 0 1867 1171.159"><path d="M128 138.134a6 6 0 0 1 6-6h1599a6 6 0 0 1 6 6v894.542a6 6 0 0 1-6 6H134a6 6 0 0 1-6-6V138.134z" fill="#fff"/><path d="M644.994 424.274a4 4 0 1 0 0-8v8zm4.877-9.369 1.39 3.751-1.39-3.75zm46.697-7.438-.146-3.997.146 3.997zm78.37 0-.162 3.997.162-3.997zm190.631 16.847-.331 3.986.331-3.986zm76.843 7.29-.459 3.973.46-3.973zm11.724 1.083-.182 3.996.182-3.996zm-9.26-4a4 4 0 0 0 0 8v-8zm-399.882-12.413c-.707 0-.655-.083-.288.06.211.081.805.345 1.33 1.015a3.58 3.58 0 0 1 .739 2.599 3.13 3.13 0 0 1-.47 1.358c-.12.182-.207.262-.181.237.053-.053.242-.216.626-.476.745-.507 1.767-1.076 2.734-1.569.47-.24.9-.446 1.237-.603.374-.172.546-.241.54-.239l-2.78-7.502c-.884.328-4.046 1.814-6.227 3.296-.563.382-1.199.856-1.746 1.395a6.63 6.63 0 0 0-.902 1.088 4.881 4.881 0 0 0-.78 2.116 4.42 4.42 0 0 0 .915 3.237c.674.859 1.51 1.287 2.07 1.505 1.065.413 2.24.483 3.183.483v-8zm6.266 2.382c14.014-5.19 30.061-6.627 45.455-7.192l-.293-7.994c-15.53.569-32.66 2.025-47.94 7.684l2.778 7.502zm45.455-7.192c25.953-.95 52.145-1.055 78.06 0l.326-7.994c-26.152-1.064-52.554-.958-78.68 0l.294 7.994zm78.06 0c63.776 2.595 126.475 11.515 190.463 16.836l.662-7.973c-63.287-5.262-126.883-14.255-190.799-16.857l-.325 7.994zM965.239 428.3c25.617 2.13 51.249 4.335 76.715 7.277l.918-7.947c-25.606-2.959-51.352-5.173-76.97-7.303l-.663 7.973zm76.715 7.277c3.885.45 7.904.92 12.001 1.106l.363-7.991c-3.77-.172-7.506-.607-11.446-1.062l-.918 7.947zm12.001 1.106.356.019c.032.002.024.002-.007-.001a3.1 3.1 0 0 1-.123-.015c-.024-.003-.217-.028-.46-.093-.074-.02-.46-.12-.902-.364-.2-.11-.743-.427-1.227-1.052-.583-.754-1.128-2.075-.662-3.61a3.999 3.999 0 0 1 3.05-2.758c.199-.039.353-.053.381-.055a3.02 3.02 0 0 1 .108-.008c.036-.002.02 0-.099.001-.43.006-1.348.002-2.52-.007-2.28-.017-5.411-.053-6.974-.053v8c1.524 0 4.566.035 6.914.053 1.144.009 2.155.014 2.69.006.123-.001.287-.004.435-.013.041-.002.104-.006.178-.013a4.034 4.034 0 0 0 1.958-.712 4.001 4.001 0 0 0 1.533-2.113 4.004 4.004 0 0 0-1.891-4.665c-.444-.246-.834-.347-.912-.367-.252-.068-.46-.095-.502-.101a4.908 4.908 0 0 0-.44-.043c-.142-.01-.319-.018-.52-.027l-.364 7.991z" fill="#1e1e1e"/><path d="M765.58 407.428a4 4 0 0 0 0-8v8zm-11.084-4.936-3.2 2.4 3.2-2.4zm-.739-9.802-3.922-.785 3.922.785zm22.905-59.8-3.64-1.66 3.64 1.66zm11.083-23.743 3.114 2.511-3.114-2.51zm20.049-1.133-.246-3.992.246 3.992zm130.88-11.773.205 3.995-.205-3.995zm127.48 4.828-.507 3.967.508-3.967zm48.373 17.24-3.808 1.226 3.808-1.226zm-6.749 29.802 3.74 1.416-3.74-1.416zm-25.762 59.652-3.684-1.559 3.684 1.559zm-9.606 27.437-3.98-.398 3.98.398zm-5.767-1.173a4 4 0 0 0 .796 7.96l-.796-7.96zM765.58 399.428c-.898 0-2.04.107-2.984.19-1.043.092-2.062.178-3.024.2-.99.023-1.705-.028-2.162-.126-.538-.116-.138-.167.287.4l-6.4 4.8c1.282 1.71 3.157 2.347 4.434 2.621 1.359.292 2.799.332 4.027.303 1.256-.03 2.517-.138 3.539-.228 1.12-.099 1.826-.16 2.283-.16v-8zm-7.883.664c-.333-.444-.58-1.145-.582-2.366-.004-1.257.245-2.648.565-4.252l-7.844-1.569c-.31 1.547-.727 3.677-.721 5.843.005 2.202.444 4.827 2.182 7.144l6.4-4.8zm-.017-6.618c4.053-20.262 13.747-39.46 22.623-58.925l-7.28-3.319c-8.656 18.985-18.905 39.262-23.187 60.675l7.844 1.57zm22.623-58.925c1.681-3.686 3.35-8.466 4.934-12.372 1.695-4.177 3.46-7.838 5.623-10.519l-6.227-5.022c-2.942 3.647-5.064 8.233-6.809 12.533-1.854 4.571-3.176 8.499-4.8 12.061l7.279 3.32zm10.557-22.89c-.482.597-.925.64-.52.509.285-.093.79-.204 1.555-.296 1.52-.183 3.521-.233 5.692-.205 2.144.029 4.314.13 6.148.22 1.654.08 3.41.175 4.306.12l-.492-7.985-.077.002h-.234c-.2-.003-.456-.01-.77-.021-.633-.024-1.419-.062-2.346-.107-1.827-.089-4.127-.198-6.43-.228-2.276-.03-4.7.014-6.755.261-1.021.124-2.091.313-3.064.628-.853.277-2.237.835-3.24 2.08l6.227 5.021zm17.18.348c21.975-1.355 43.849-3.746 65.606-6.068 21.79-2.325 43.474-4.583 65.234-5.703l-.411-7.99c-22.01 1.134-43.899 3.415-65.672 5.738-21.807 2.328-43.489 4.696-65.248 6.038l.492 7.985zm130.84-11.77a709.331 709.331 0 0 1 126.768 4.8l1.016-7.936a717.333 717.333 0 0 0-128.195-4.854l.411 7.99zm126.768 4.8c12.154 1.555 24.65 3.902 35.85 8.102l2.809-7.49c-12.042-4.517-25.24-6.96-37.643-8.548l-1.016 7.935zm35.85 8.102c1.961.735 4.165 1.687 5.996 2.898 1.89 1.252 2.89 2.455 3.226 3.498l7.615-2.452c-1.148-3.565-3.905-6.048-6.427-7.717-2.582-1.709-5.449-2.91-7.601-3.718l-2.809 7.49zm9.222 6.396c1.081 3.357.496 7.772-1.125 12.894-1.653 5.223-3.849 9.755-5.557 14.265l7.482 2.833c1.344-3.548 4.003-9.318 5.702-14.683 1.73-5.465 2.994-11.921 1.113-17.76l-7.615 2.451zm-6.682 27.159c-7.684 20.292-17.097 39.165-25.705 59.51l7.368 3.117c8.308-19.638 18.105-39.424 25.819-59.794l-7.482-2.833zm-25.705 59.51c-1.666 3.938-4.005 8.865-5.833 13.473-1.89 4.763-3.546 9.898-4.069 15.125l7.96.796c.415-4.146 1.764-8.482 3.545-12.971 1.842-4.644 3.837-8.75 5.765-13.306l-7.368-3.117zm-9.902 28.598c-.029.29-.06.025.254-.371.346-.436.748-.58.826-.602.02-.006-.021.008-.161.025a8.84 8.84 0 0 1-.592.046 46.98 46.98 0 0 1-.425.02l-.5.023c-.35.017-.757.041-1.189.084l.796 7.96c.549-.054.972-.058 1.741-.098.626-.033 1.582-.096 2.541-.372 1.045-.3 2.268-.9 3.23-2.114.93-1.173 1.313-2.536 1.44-3.805l-7.96-.796z" fill="#1e1e1e"/><path d="M761.146 421.614a4 4 0 0 0 0-8v8zm-4.532 4.473 3.859 1.052-3.859-1.052zm-11.33 55.416 3.963.544-3.962-.544zm-.049 127.432 3.965-.53-3.965.53zm33.003 79.158-3.049 2.589 3.05-2.589zm65.711 43.446 1.373-3.757-1.373 3.757zm105.561 9.211-1.512-3.703 1.512 3.703zm41.772-34.58-3.144-2.473 3.144 2.474zm18.275-25.761-3.528-1.886 3.528 1.886zm14.925-35.614 3.753 1.382-3.753-1.382zm24.432-75.661 3.892.923-3.892-.923zm19.014-81.572 3.927.759-3.927-.76zm13.792-70.243-3.902-.881 3.902.88zm-2.02-11.477 1.887-3.528-1.886 3.528zm-17.108.215a4 4 0 1 0 3.578 7.155l-3.578-7.155zm-301.446 7.557c-2.397 0-4.056 1.356-5.015 2.536-.935 1.15-1.542 2.51-1.948 3.618-.75 2.045-1.33 4.906-1.428 5.266l7.718 2.105c.142-.52.371-1.578.529-2.232.2-.827.424-1.655.691-2.384.285-.775.526-1.18.644-1.325.094-.116-.307.416-1.191.416v-8zm-8.391 11.42a441.082 441.082 0 0 0-11.433 55.924l7.925 1.09a433.083 433.083 0 0 1 11.226-54.909l-7.718-2.105zm-11.433 55.924c-5.78 42.059-5.658 86.456-.052 128.505l7.93-1.057c-5.515-41.363-5.63-85.037.047-126.359l-7.925-1.089zm-.052 128.505c3.923 29.419 14.271 58.078 33.92 81.219l6.098-5.178c-18.417-21.691-28.313-48.789-32.088-77.098l-7.93 1.057zm33.92 81.219c17.876 21.055 42.004 35.34 67.387 44.614l2.745-7.514c-24.488-8.948-47.298-22.566-64.034-42.278l-6.099 5.178zm67.387 44.614c34.068 12.448 71.502 24.24 108.445 9.158l-3.024-7.407c-33.754 13.78-68.388 3.263-102.676-9.265l-2.745 7.514zm108.445 9.158c18.212-7.435 31.89-21.18 43.403-35.81l-6.287-4.947c-11.19 14.219-23.823 26.689-40.14 33.35l3.024 7.407zm43.403-35.81c6.442-8.185 13.44-16.585 18.66-26.35l-7.056-3.77c-4.803 8.985-11.235 16.716-17.89 25.173l6.286 4.948zm18.66-26.35c6.253-11.7 10.716-24.074 15.15-36.117l-7.507-2.765c-4.484 12.177-8.757 23.994-14.7 35.111l7.056 3.771zm15.15-36.117c9.2-24.984 18.334-49.84 24.571-76.12l-7.784-1.847c-6.109 25.738-15.07 50.154-24.294 75.202l7.507 2.765zm24.571-76.12c6.393-26.937 13.742-54.288 19.05-81.736l-7.855-1.519c-5.265 27.233-12.51 54.155-18.979 81.408l7.784 1.847zm19.05-81.736c4.563-23.606 8.514-46.864 13.766-70.121l-7.804-1.762c-5.287 23.415-9.3 46.997-13.817 70.364l7.854 1.519zm13.766-70.121c.386-1.708 1.216-4.666 1.148-7.357-.037-1.464-.325-3.108-1.192-4.686-.887-1.615-2.239-2.905-3.99-3.843l-3.774 7.055c.529.283.686.52.752.639.086.156.192.454.207 1.036.035 1.404-.406 2.965-.955 5.394l7.804 1.762zm-4.035-15.886c-4.204-2.248-8.132-1.624-11.332-.327-1.532.62-2.97 1.421-4.21 2.136-1.318.759-2.372 1.393-3.453 1.934l3.578 7.155c1.358-.679 2.735-1.504 3.867-2.156 1.208-.696 2.24-1.256 3.224-1.655 1.832-.743 3.125-.796 4.553-.032l3.773-7.055zM777.106 464.174a4 4 0 0 0 0-8v8zm-2.463-2.227 3.795-1.265-3.795 1.265zm6.6 8.374 2.912-2.743-2.911 2.743zm14.975 13.891 2.435-3.174-2.435 3.174zm22.856 13.694 1.43-3.736-1.43 3.736zm1.19-4.207a4 4 0 1 0-2.971 7.428l2.971-7.428zm-43.158-37.525c-.111 0-.75-.013-1.165 0-.454.016-1.302.065-2.183.388-.985.36-2.308 1.19-2.938 2.865-.56 1.49-.27 2.893.028 3.785l7.59-2.53.006.023c.005.015.01.038.017.068.012.06.03.157.037.288.016.261-.003.686-.19 1.18a3.125 3.125 0 0 1-1.797 1.832c-.347.128-.537.105-.303.097.272-.009.352.004.898.004v-8zm-6.258 7.038c.785 2.353 2.338 4.368 3.683 5.89 1.25 1.415 3.01 3.122 3.801 3.962l5.823-5.486c-1.36-1.444-2.377-2.355-3.628-3.772-1.156-1.309-1.828-2.34-2.09-3.124l-7.589 2.53zm7.484 9.852c4.728 5.019 9.807 9.992 15.452 14.322l4.869-6.348c-5.158-3.956-9.903-8.582-14.498-13.46l-5.823 5.486zm15.452 14.322c7.128 5.468 14.99 10.859 23.86 14.255l2.86-7.47c-7.77-2.976-14.896-7.797-21.851-13.133l-4.87 6.348zm23.86 14.255c.687.264 1.318.486 1.819.611.135.034.336.08.569.112.107.015.727.112 1.473-.047a4.016 4.016 0 0 0 3.094-4.788 4.054 4.054 0 0 0-1.245-2.147c-.381-.349-.782-.582-.913-.658a11.014 11.014 0 0 0-.651-.349c-.437-.216-.962-.45-1.526-.676l-2.971 7.428a13.424 13.424 0 0 1 1.067.48l.035.018.012.007a.887.887 0 0 1-.083-.053 3.233 3.233 0 0 1-.37-.294 3.946 3.946 0 0 1-1.172-2.052 3.984 3.984 0 0 1 3.05-4.74c.711-.152 1.276-.056 1.305-.052.154.022.255.047.266.05.004 0-.24-.069-.898-.32l-2.861 7.47zM881.715 509.857a4 4 0 0 0 3.578-7.155l-3.578 7.155zm6.814-21.901-3.1-2.53 3.1 2.53zm25.614-26.304-2.702-2.95 2.702 2.95zm1.28-8.138a4 4 0 1 0 0 8v-8zm-30.13 49.188a1.492 1.492 0 0 1-.315-.199.382.382 0 0 1-.047-.05 1.099 1.099 0 0 1-.044-.285c-.024-.658.252-1.833 1.079-3.506 1.616-3.272 4.368-6.593 5.661-8.177l-6.197-5.059c-1.166 1.429-4.546 5.46-6.637 9.692-1.026 2.078-1.998 4.694-1.901 7.341.05 1.393.4 2.868 1.257 4.237.86 1.379 2.095 2.426 3.566 3.161l3.578-7.155zm6.334-12.217c7.557-9.258 16.236-17.659 25.217-25.884l-5.403-5.9c-9.058 8.296-18.081 17.01-26.011 26.725l6.197 5.059zm25.217-25.884c.566-.517 1.16-.989 1.833-1.537.516-.42 1.419-1.146 2.032-1.915.265-.333.995-1.287 1.101-2.67a4.332 4.332 0 0 0-.562-2.495 4.472 4.472 0 0 0-1.526-1.57c-.877-.543-1.796-.711-2.32-.785a14.459 14.459 0 0 0-1.978-.115v8c.501 0 .765.023.866.037.194.028-.226.01-.789-.34a3.53 3.53 0 0 1-1.19-1.243 3.668 3.668 0 0 1-.477-2.104 3.397 3.397 0 0 1 .35-1.274 2.5 2.5 0 0 1 .268-.426c.064-.081.057-.056-.13.112-.17.151-.392.336-.697.585-.564.46-1.4 1.123-2.184 1.84l5.403 5.9zM800.592 535.54a4 4 0 1 0 8 0h-8zm-4.314.803a4 4 0 1 0 7.761 1.94l-7.76-1.94zm12.314-.804c0-1.9-1.171-3.223-2.36-3.829-.935-.475-1.833-.518-2.281-.518-.997 0-1.984.249-2.751.517-.806.282-1.715.707-2.532 1.299-.697.505-1.95 1.576-2.39 3.335l7.761 1.94c-.246.986-.849 1.328-.679 1.205.051-.037.227-.139.48-.228.294-.102.342-.068.116-.068-.062 0-.642.01-1.353-.352a3.667 3.667 0 0 1-1.368-1.213 3.729 3.729 0 0 1-.643-2.088h8zM885.109 530.388a4 4 0 1 0 5.657-5.657l-5.657 5.657zm3.715.521 1.231-3.806-1.231 3.806zm.229-6.409a4 4 0 0 0 1.315 7.892l-1.315-7.892zm1.713.231c-.347-.347-1.252-1.19-2.66-1.403a4.238 4.238 0 0 0-4.31 2.06c-.551.937-.633 1.866-.65 2.314-.022.548.033 1.07.116 1.522a8.388 8.388 0 0 0 1.067 2.81c.527.863 1.545 2.125 3.264 2.68l2.462-7.61c.43.138.716.352.87.493.15.138.217.245.23.266.016.026.01.02-.004-.016a.581.581 0 0 1-.02-.064v-.006l.001.012.004.036c.003.031.007.097.003.194-.003.075-.018.698-.45 1.43-.244.416-.694.98-1.448 1.384a3.762 3.762 0 0 1-2.335.405c-1.178-.179-1.796-.85-1.797-.85l5.657-5.657zm-3.173 9.984c3.335 1.079 7.23-.098 8.644-3.274a4.97 4.97 0 0 0 .291-3.268c-.336-1.303-1.164-2.285-2.131-2.902-1.72-1.096-3.773-1.032-5.344-.77l1.315 7.89c.392-.065.553-.05.537-.051a1.241 1.241 0 0 1-.23-.05c-.134-.042-.34-.121-.58-.273a3.113 3.113 0 0 1-1.313-1.844 3.033 3.033 0 0 1 .145-1.984c.348-.781.86-.992.96-1.028.206-.076.281-.021.168-.058l-2.462 7.612zM839.89 626.146a4 4 0 1 0 5.656-5.656l-5.656 5.656zm-8.895 4.56-3.823-1.178 3.823 1.179zm-2.562 24.876-3.868 1.018 3.868-1.018zm20.738 17.142-.608 3.954.608-3.954zm32.363-37.584-3.994.219 3.994-.219zM862.42 611.3l-.536 3.964.536-3.964zm-33.897 8.151a4 4 0 0 0 5.335 5.962l-5.335-5.962zm17.022 1.04c-2.102-2.103-4.752-2.446-7.017-1.917-2.057.48-3.877 1.664-5.272 2.816-1.448 1.195-2.745 2.61-3.756 3.95-.95 1.26-1.892 2.773-2.329 4.189l7.645 2.358c-.003.009.056-.165.265-.528.193-.337.464-.748.805-1.2a15.87 15.87 0 0 1 2.462-2.6c.952-.784 1.653-1.114 2-1.195.138-.032-.227.015-.46-.217l5.657-5.656zm-18.374 9.038c-1.114 3.612-2.282 8.264-2.927 12.994-.635 4.651-.818 9.754.32 14.078l7.736-2.036c-.741-2.818-.712-6.692-.13-10.961.572-4.191 1.624-8.406 2.646-11.717l-7.645-2.358zm-2.607 27.072c1.46 5.55 5.062 10.187 9.355 13.573 4.295 3.387 9.521 5.717 14.643 6.505l1.216-7.907c-3.668-.565-7.623-2.291-10.905-4.88-3.285-2.59-5.657-5.847-6.573-9.327l-7.736 2.036zm23.998 20.078c11.391 1.752 21.009-4.72 27.345-13.035 6.34-8.318 10.133-19.352 9.62-28.722l-7.988.438c.393 7.174-2.615 16.376-7.995 23.435-5.381 7.062-12.399 11.11-19.766 9.977l-1.216 7.907zm36.965-41.757c-.651-11.878-8.679-25.705-22.57-27.586l-1.073 7.928c8.728 1.182 15.128 10.492 15.655 20.096l7.988-.438zm-22.57-27.586c-7.242-.98-13.39-.26-19.062 1.97-5.602 2.203-10.5 5.786-15.372 10.145l5.335 5.962c4.554-4.075 8.629-6.957 12.964-8.662 4.265-1.677 9.019-2.306 15.062-1.487l1.073-7.928zM846.28 335.187a4 4 0 1 0-3.577-7.156l3.577 7.156zm-6.123 1.25.332 3.986-.332-3.987zm12.314 1.92-3.328 2.22 3.328-2.22zm.887 14.335-3.062-2.575 3.062 2.575zm-11.33 6.6 2.92 2.734-2.92-2.734zm-.541 12.561 1.457-3.725-1.457 3.725zm26.073-2.087a4 4 0 1 0-3.578-7.155l3.578 7.155zm-24.857-41.735c-1.06.53-4.693 2.15-6.67 3.407-.504.32-1.204.799-1.776 1.408-.273.29-.768.868-1.07 1.71-.355.992-.449 2.44.43 3.794.739 1.136 1.787 1.6 2.304 1.784.581.207 1.143.29 1.57.332.867.082 1.889.049 2.998-.043l-.665-7.973c-.941.079-1.411.067-1.574.052-.087-.009.075-.004.36.098.223.079 1.08.41 1.716 1.392.78 1.199.677 2.47.392 3.265-.232.646-.576 1.008-.632 1.068-.138.146-.134.101.238-.136 1.529-.971 4.164-2.106 5.956-3.002l-3.577-7.156zm-2.214 12.392c1.26-.105 2.596-.33 3.623-.482 1.124-.168 2.01-.275 2.785-.277 1.377-.005 1.827.284 2.246.912l6.656-4.437c-2.42-3.63-5.946-4.484-8.926-4.475-1.404.004-2.79.192-3.941.364-1.247.186-2.187.345-3.108.422l.665 7.973zm8.654.153c.983 1.474 1.792 3.477 2.025 5.396.234 1.923-.148 3.285-.872 4.145l6.123 5.149c2.62-3.116 3.09-6.98 2.69-10.26-.398-3.283-1.704-6.46-3.31-8.867l-6.656 4.437zm1.153 9.541c-.65.773-1.685 1.278-3.939 2.154-1.907.741-4.952 1.834-7.249 4.288l5.84 5.467c.835-.891 2.04-1.417 4.308-2.299 1.922-.747 4.985-1.87 7.163-4.46l-6.123-5.15zm-11.188 6.442c-1.859 1.985-3.37 5.507-3.859 8.69-.253 1.648-.3 3.61.3 5.48.644 2.007 2.06 3.902 4.48 4.85l2.915-7.45c.186.072.26.273.221.153-.083-.259-.156-.857-.008-1.818.14-.917.444-1.908.83-2.787.408-.926.795-1.473.962-1.651l-5.84-5.467zm.921 19.02c4.896 1.915 10.49.94 15.077-.493 4.728-1.475 9.28-3.733 12.454-5.32l-3.578-7.155c-3.215 1.607-7.23 3.581-11.26 4.839-4.169 1.301-7.523 1.56-9.778.678l-2.915 7.45zM877.731 344.022a4 4 0 1 0 8 0h-8zm4-7.389-3.998.134 3.998-.134zm-1.38 1.675 3.963-.546-3.962.546zm4.927 28.176 3.934-.72-3.934.72zm1.674 10.837 3.988-.319-3.988.319zm-3.054-21.575 3.31 2.246-3.31-2.246zm20.601 4.68a4 4 0 1 0 .57-7.98l-.57 7.98zm-18.768-16.404c0-2.27.082-4.987-.002-7.522l-7.996.267c.08 2.38-.002 4.608-.002 7.255h8zm-.002-7.522a11.511 11.511 0 0 0-.183-1.786c-.091-.472-.294-1.323-.853-2.128a4.34 4.34 0 0 0-1.695-1.449 4.196 4.196 0 0 0-2.903-.261c-1.563.422-2.356 1.576-2.583 1.92-.617.937-.916 2.04-1.062 2.883a10.473 10.473 0 0 0-.06 3.176l7.924-1.093a2.485 2.485 0 0 1 .02-.72c.057-.334.102-.214-.14.154-.04.06-.637 1.03-2.01 1.402a3.804 3.804 0 0 1-2.625-.237 3.662 3.662 0 0 1-1.435-1.21 3.021 3.021 0 0 1-.372-.711 1.932 1.932 0 0 1-.06-.206s.008.041.017.136c.01.094.018.224.024.397l7.996-.267zm-9.34 2.355c1.315 9.533 3.264 19.104 4.954 28.348l7.87-1.438c-1.73-9.46-3.616-18.701-4.899-28.003l-7.925 1.093zm4.954 28.348c.678 3.711 1.35 7.039 1.622 10.437l7.975-.638c-.313-3.909-1.09-7.748-1.728-11.237l-7.87 1.438zm1.622 10.437c.05.625.204 1.306.288 1.683.115.51.191.829.244 1.12.024.134.026.171.023.142a1.86 1.86 0 0 1-.002-.192c.003-.098.014-.297.072-.555a3.737 3.737 0 0 1 2.187-2.599 3.659 3.659 0 0 1 3.063.05l-3.578 7.156c.476.238 1.953.882 3.67.146 1.829-.784 2.336-2.428 2.469-3.024.149-.674.12-1.27.097-1.575a9.457 9.457 0 0 0-.128-.966c-.092-.514-.233-1.107-.31-1.455-.109-.481-.123-.605-.12-.569l-7.975.638zm5.875-.35c.427.214.704.463.846.607.147.15.229.268.255.308.047.07.014.034-.078-.184-.18-.427-.413-1.139-.668-2.144-.503-1.982-.981-4.65-1.34-7.44-.359-2.785-.581-5.566-.605-7.764-.012-1.107.029-1.978.103-2.588.1-.816.198-.599-.145-.093l-6.62-4.492c-.827 1.22-1.066 2.721-1.175 3.612-.135 1.096-.176 2.353-.162 3.646.027 2.6.284 5.707.67 8.7.384 2.992.914 5.996 1.52 8.386.3 1.18.647 2.329 1.05 3.287.201.474.461 1.013.8 1.52.286.427.904 1.26 1.971 1.794l3.578-7.155zm-1.632-19.298c-.475.7-.844.325.812.198 1.344-.103 3.174.029 5.297.325 2.086.291 4.23.706 6.18 1.085 1.798.35 3.733.735 5.002.825l.57-7.98c-.656-.046-1.97-.295-4.045-.698-1.921-.373-4.271-.83-6.601-1.155-2.293-.32-4.8-.548-7.013-.379-1.902.146-5.049.674-6.822 3.287l6.62 4.492zM919.689 341.53a4 4 0 0 0 5.656-5.656l-5.656 5.657zm5.29 3.674.414 3.979-.413-3.979zm6.207-10.738 3.518-1.905-3.518 1.905zm-12.496 4.845a4 4 0 1 0 7.654 2.33l-7.654-2.33zm6.655-3.437c-.916-.917-2-1.77-3.258-2.245-1.35-.51-3.165-.646-4.823.43-1.509.978-2.115 2.473-2.35 3.511-.245 1.09-.214 2.196-.054 3.175.317 1.942 1.268 4.118 2.966 5.804 1.8 1.787 4.402 2.963 7.567 2.634l-.826-7.957c-.564.058-.849-.1-1.104-.353-.356-.354-.627-.924-.708-1.42-.04-.24-.002-.275-.036-.122-.023.101-.213.863-1.102 1.44-1.038.673-2.03.465-2.354.343-.232-.088-.088-.097.426.417l5.656-5.657zm.048 13.309c3.838-.399 7.007-2.855 8.791-5.785 1.806-2.965 2.562-7.066.52-10.837l-7.035 3.81c.366.675.394 1.697-.318 2.866-.733 1.204-1.871 1.894-2.784 1.989l.826 7.957zm9.31-16.622c-.706-1.306-1.47-2.456-2.329-3.369-.843-.896-2-1.798-3.51-2.15-3.564-.833-5.797 1.803-6.66 3.094-1.006 1.507-1.722 3.4-2.233 4.938-.509 1.53-.991 3.285-1.28 4.237l7.653 2.33c.404-1.33.74-2.602 1.218-4.043.477-1.435.921-2.46 1.295-3.018.183-.275.183-.18-.077-.016a2.35 2.35 0 0 1-1.735.268c-.576-.135-.73-.405-.498-.158.217.23.601.735 1.122 1.697l7.035-3.81zM912.764 367.529a4 4 0 0 0 0-8v8zm3.891-5.33.322 3.987-.322-3.987zm27.88-2.66-3.904-.868 3.904.868zm-4.088-1.33.068 3.999-.068-4zm-6.404 6.6-3.794-1.265 3.794 1.265zm2.948 26.373a4 4 0 1 0 2.971-7.428l-2.97 7.428zm-24.227-31.653c-.779 0-1.227-.019-1.447-.037-.123-.01-.066-.012.086.021.072.016.281.064.55.176.175.073.897.375 1.516 1.143a3.956 3.956 0 0 1 .537 4.087 3.881 3.881 0 0 1-1.338 1.624 3.443 3.443 0 0 1-.57.32c-.101.045-.173.07-.194.077-.037.012.079-.025.437-.098 1.369-.277 3.809-.59 4.636-.656l-.643-7.975c-1.1.09-3.86.442-5.582.79-.414.084-.94.201-1.401.357-.156.052-.692.23-1.23.602a4.12 4.12 0 0 0-1.43 1.718 4.04 4.04 0 0 0 .55 4.175 4.149 4.149 0 0 0 1.642 1.224c.33.137.622.21.796.248.358.08.707.117.97.139.556.046 1.266.065 2.115.065v-8zm4.213 6.657a.756.756 0 0 1 .04-.003l.11-.004c.093-.004.213-.006.362-.008.3-.004.68-.003 1.14 0 .928.007 2.087.025 3.448.043 2.693.035 6.072.065 9.402-.02 3.293-.082 6.708-.279 9.422-.735 1.332-.224 2.727-.547 3.914-1.065.924-.402 3.071-1.494 3.625-3.988l-7.81-1.735c.345-1.55 1.555-1.858.988-1.61-.303.132-.952.325-2.045.509-2.135.359-5.088.547-8.295.627-3.168.08-6.419.052-9.098.018-2.492-.032-4.868-.082-5.846-.004l.643 7.975zm31.463-5.78a4.7 4.7 0 0 0-.407-3.2 4.931 4.931 0 0 0-1.8-1.914c-1.031-.638-2.158-.851-2.789-.945-1.384-.204-2.875-.141-3.065-.138l.136 7.999c.456-.008 1.176-.033 1.758.053.12.018.167.032.157.029a1.094 1.094 0 0 1-.11-.04 2.133 2.133 0 0 1-.295-.155 3.076 3.076 0 0 1-1.093-1.204 3.302 3.302 0 0 1-.301-2.22l7.81 1.735zm-8.06-6.197c-3.24.055-5.68 1.379-7.371 3.532-1.444 1.838-2.21 4.155-2.76 5.803l7.59 2.53c.626-1.879 1.018-2.827 1.46-3.39.163-.208.278-.283.364-.326.09-.045.329-.141.852-.15l-.136-7.999zm-10.131 9.335c-1.393 4.179-2.828 9.547-2.48 14.552.178 2.562.833 5.209 2.352 7.578 1.548 2.414 3.84 4.296 6.87 5.508l2.971-7.428c-1.606-.642-2.528-1.496-3.107-2.399-.608-.947-.993-2.198-1.106-3.814-.233-3.349.752-7.456 2.09-11.467l-7.59-2.53zM968.177 342.917a4 4 0 1 0 4.438-6.656l-4.438 6.656zm18.376-9.485-.38-3.982.38 3.982zm-14.334-.345 3.511 1.915-3.511-1.915zm-4.975 16.058 3.87 1.012-3.87-1.012zm.69 18.817 3.206-2.391-3.207 2.39zm23.309 2.66a4 4 0 1 0-8 0h8zm-18.628-34.361c-.796-.531-.323-.46-.053.382.18.56.19 1.24-.05 1.889-.214.578-.537.89-.646.985-.151.132-.041-.01.7-.257.654-.218 1.524-.431 2.579-.628 4.379-.819 9.853-1.034 11.787-1.218l-.758-7.964c-1.212.115-7.663.414-12.499 1.318-1.249.233-2.512.526-3.645.905-1.044.349-2.37.895-3.43 1.821-.563.492-1.208 1.228-1.59 2.259a5.076 5.076 0 0 0-.066 3.332c.598 1.866 2.106 3.08 3.233 3.832l4.438-6.656zm14.317 1.153c.1-.01.455-.044.881-.181a4.006 4.006 0 0 0 .898-7.217 4.164 4.164 0 0 0-.748-.369c-.385-.144-.783-.224-.901-.248a31.107 31.107 0 0 0-1.62-.277 84.44 84.44 0 0 0-4.98-.58c-1.847-.16-3.894-.269-5.612-.196-.84.035-1.783.12-2.647.334-.432.108-.99.281-1.553.587-.54.292-1.376.864-1.943 1.904l7.023 3.831a3.218 3.218 0 0 1-1.265 1.297c-.243.131-.391.16-.339.147.107-.027.437-.08 1.062-.107 1.21-.052 2.86.025 4.587.173 1.699.147 3.342.352 4.486.522.585.088.981.157 1.172.197.185.038-.003.01-.28-.093a3.968 3.968 0 0 1-1.58-1.106 3.994 3.994 0 0 1 1.787-6.413c.41-.133.744-.163.814-.17l.758 7.965zm-18.225-6.243c-1.457 2.672-2.476 5.817-3.273 8.732-.74 2.705-1.515 6.146-2.06 8.23l7.74 2.024c.743-2.843 1.226-5.178 2.037-8.143.753-2.756 1.578-5.176 2.58-7.012l-7.024-3.83zm-5.333 16.962c-.733 2.803-1.536 6.637-1.65 10.504-.11 3.752.405 8.233 3.003 11.716l6.413-4.782c-.982-1.317-1.51-3.577-1.419-6.7.088-3.008.73-6.184 1.392-8.714l-7.74-2.024zm1.353 22.22c1.258 1.687 3.38 3.312 5.486 4.604 2.198 1.349 4.826 2.608 7.428 3.39 2.444.734 5.566 1.264 8.341.306 1.511-.521 2.932-1.494 3.927-3.043.968-1.505 1.334-3.242 1.334-4.988h-8c0 .66-.138.78-.063.663.102-.16.24-.21.192-.194-.344.119-1.447.19-3.429-.406-1.824-.548-3.822-1.489-5.546-2.547-1.816-1.114-2.91-2.102-3.257-2.567l-6.413 4.782z" fill="#1e1e1e"/><path d="M974.83 361.322a4 4 0 0 0 0-8v8zm-1.478-4.493-1.45-3.728 1.45 3.728zm16.171 3.588a4 4 0 1 0 .759-7.964l-.759 7.964zm-14.694-7.095c-.104 0-.628.012-.715.013a10.824 10.824 0 0 1-.473-.005h-.012l.018.001.058.008c.044.006.16.025.317.068.125.034.472.134.879.374a3.906 3.906 0 0 1 1.734 2.187c.488 1.541-.084 2.81-.517 3.431a3.683 3.683 0 0 1-.946.943c-.3.204-.503.267-.37.215l-2.9-7.456c-.28.109-.76.307-1.227.625a4.32 4.32 0 0 0-1.12 1.1c-.466.668-1.047 1.979-.546 3.559a4.095 4.095 0 0 0 1.83 2.288c.457.27.872.396 1.08.453.437.118.835.158 1.041.175.727.061 2.004.02 1.87.02v-8zm-.028 7.235c1.949-.757 4.123-.978 6.634-.894 2.642.09 5.074.467 8.088.754l.759-7.964c-2.434-.231-5.63-.686-8.578-.785-3.08-.104-6.457.132-9.802 1.433l2.9 7.456z" fill="#1e1e1e"/><path d="M996.996 358.662a4 4 0 1 0 0-8v8zm5.32-5.724.173 3.996-.173-3.996zm14.65-1.097a4 4 0 0 0-6.247-4.998l6.247 4.998zm-19.97-1.179c-.063 0 .09-.006.341.036.119.02.428.077.807.238.29.123 1.236.555 1.872 1.665.81 1.416.55 2.863.1 3.755a3.855 3.855 0 0 1-1.004 1.25 3.432 3.432 0 0 1-.641.414c-.007.003.35-.13 1.16-.357a51.412 51.412 0 0 1 2.154-.546c.329-.076.602-.134.796-.173.323-.064.189-.022-.092-.01l-.347-7.992c-.445.02-.94.12-1.114.154-.302.06-.661.138-1.04.226a59.38 59.38 0 0 0-2.507.636c-.72.2-1.712.493-2.4.815a4.903 4.903 0 0 0-1.02.63 4.145 4.145 0 0 0-1.084 1.342c-.466.92-.727 2.393.097 3.832a4.079 4.079 0 0 0 1.955 1.727c.422.179.79.251.981.284.4.067.764.074.986.074v-8zm5.493 6.272c3.87-.168 10.008.493 14.477-5.093l-6.247-4.998c-1.67 2.086-3.025 1.857-8.577 2.099l.347 7.992z" fill="#1e1e1e"/><path d="M1011.615 344.909a4 4 0 1 0 8 0h-8zm4.444-2.71-3.986.338 3.986-.337zm.412 36.418a4 4 0 0 0 7.155-3.578l-7.155 3.578zm3.144-33.708c0-2.157-.081-4.63-.065-6.069.005-.478.025-.298-.04.038a3.784 3.784 0 0 1-.136.512c-.036.107-.268.83-.93 1.5a3.992 3.992 0 0 1-4.891.62c-1.035-.62-1.457-1.519-1.504-1.611a3.814 3.814 0 0 1-.3-.807c-.02-.085-.028-.135-.026-.122.043.252.153 1.245.35 3.567l7.971-.675c-.185-2.19-.322-3.573-.434-4.232a6.142 6.142 0 0 0-.08-.396c-.014-.06-.108-.484-.345-.951-.054-.107-.482-1.015-1.524-1.638a4.007 4.007 0 0 0-4.91.624c-.667.676-.904 1.408-.946 1.53-.087.255-.13.466-.151.572-.101.529-.101 1.184-.103 1.38-.015 1.254.064 4.649.064 6.158h8zm-7.542-2.372c.219 2.583.269 5.355.29 8.321.023 2.92.018 6.054.145 9.15.254 6.163 1.042 12.767 3.963 18.61l7.155-3.579c-2.141-4.283-2.883-9.492-3.125-15.36-.12-2.921-.115-5.858-.138-8.88-.022-2.977-.071-6.019-.319-8.937l-7.971.675zM835.171 731.49a4 4 0 1 0 8 0h-8zm.454-3.547.222 3.994-.222-3.994zm-8.079 5.37-2.12-3.393 2.12 3.392zm-22.954 18.619 2.774 2.881-2.774-2.881zm-19.21 22.019 3.185 2.418-3.186-2.418zm-21.478 25.318 3.275 2.298-3.275-2.298zm-27.584 56.155-3.716-1.48 3.716 1.48zm9.26 45.022-1.39 3.751 1.39-3.75zm37.732 5.714-.186 3.996.186-3.996zm43.988 3.153.314-3.988-.314 3.988zm45.466 3.054-.022 4 .022-4zm56.943-.887.023 4-.023-4zm217.427 1.774.02 4-.02-4zm37.14-10.64 3.022 2.622-3.021-2.622zm9.064-11.92-3.74-1.42 3.74 1.42zm4.04-13.793 3.935.715-3.936-.715zm-1.38-14.236-3.296 2.266 3.296-2.266zm-13.694-6.65-.622 3.952.622-3.952zm-19.309.099-.252-3.992.252 3.992zm-32.314 1.478.136 3.997-.136-3.997zm-68.075 3.3-.05-4 .05 4zm-75.365-4.335-.455 3.974.455-3.974zm-53.2-8.226.876-3.903-.876 3.903zm-25.697-10.474a4 4 0 1 0-3.578 7.155l3.578-7.155zM843.17 731.49c0-.762-.004-1.67-.116-2.482-.11-.809-.397-2.128-1.436-3.265-1.094-1.198-2.458-1.59-3.43-1.734-.92-.136-1.913-.108-2.786-.06l.444 7.988c.378-.021.658-.029.87-.027.103 0 .18.003.233.007.053.003.075.007.07.006-.004 0-.044-.007-.113-.025a2.065 2.065 0 0 1-.3-.108c-.275-.122-.601-.33-.895-.652a2.6 2.6 0 0 1-.516-.826c-.068-.182-.075-.28-.066-.215.008.062.021.196.03.448.009.25.011.552.011.945h8zm-7.768-7.54c-1.537.085-2.86.671-3.833 1.222-1.001.568-1.925 1.27-2.696 1.9-.746.61-1.552 1.322-2.115 1.803-.651.556-1.063.877-1.333 1.045l4.24 6.784c.826-.516 1.638-1.19 2.288-1.746.74-.631 1.315-1.147 1.98-1.69.64-.523 1.159-.897 1.58-1.136.451-.255.532-.206.333-.195l-.444-7.988zm-9.977 5.97c-8.62 5.388-16.52 12.305-23.609 19.13l5.55 5.763c6.936-6.68 14.371-13.154 22.3-18.109l-4.24-6.784zm-23.609 19.13c-7.386 7.114-13.539 14.47-19.622 22.482l6.372 4.837c5.935-7.816 11.81-14.826 18.8-21.556l-5.55-5.762zm-19.622 22.482c-3.215 4.234-6.85 8.145-10.633 12.29-3.731 4.088-7.586 8.382-10.932 13.15l6.549 4.595c3.017-4.3 6.551-8.254 10.292-12.352 3.69-4.042 7.612-8.257 11.096-12.846l-6.372-4.837zm-21.565 25.44c-12.198 17.382-20.428 37.904-28.026 56.971l7.431 2.962c7.657-19.213 15.571-38.847 27.144-55.338l-6.549-4.595zm-28.026 56.971c-3.407 8.549-6.952 18.532-6.478 27.604.243 4.661 1.548 9.226 4.552 13.242 2.997 4.007 7.46 7.165 13.512 9.408l2.78-7.501c-4.954-1.836-8.01-4.191-9.886-6.699-1.869-2.498-2.79-5.447-2.97-8.868-.37-7.092 2.46-15.54 5.921-24.224l-7.431-2.962zm11.586 50.254c12.457 4.617 26.587 5.385 38.936 5.96l.372-7.992c-12.527-.583-25.419-1.352-36.528-5.47l-2.78 7.502zm38.936 5.96c14.608.679 29.142 1.986 43.86 3.144l.628-7.976c-14.598-1.148-29.34-2.473-44.116-3.16l-.372 7.991zm43.86 3.144c14.992 1.179 30.28 2.981 45.758 3.066l.044-8c-15.088-.083-29.768-1.83-45.174-3.042l-.628 7.976zm45.758 3.066c18.886.104 38.359-.777 56.988-.887l-.047-8c-19.344.114-37.788.992-56.897.887l-.044 8zm56.988-.887c7.5-.044 15.073.175 22.7.408 7.602.233 15.268.48 22.84.48v-8c-7.426 0-14.959-.243-22.596-.476-7.614-.232-15.324-.457-22.99-.412l.046 8zm45.54.887c57.097 0 114.676 1.164 171.883.887l-.039-8c-57.357.278-114.354-.887-171.843-.887v8zm171.883.887c6.447-.032 13.835-.009 20.783-1.42 7.047-1.43 13.97-4.39 19.36-10.598l-6.042-5.244c-3.88 4.47-8.977 6.799-14.909 8.003-6.03 1.223-12.578 1.226-19.23 1.259l.038 8zm40.143-12.018c.792-.913 1.609-1.776 2.48-2.695.85-.898 1.762-1.86 2.633-2.872 1.768-2.054 3.489-4.445 4.67-7.557l-7.48-2.837c-.732 1.928-1.826 3.518-3.253 5.175-.726.843-1.507 1.669-2.379 2.59-.852.9-1.788 1.886-2.713 2.952l6.042 5.244zm9.782-13.124c1.722-4.54 3.327-9.501 4.235-14.496l-7.871-1.43c-.786 4.323-2.209 8.778-3.844 13.089l7.48 2.837zm4.235-14.496c.937-5.154 2.216-11.058-2.019-17.217l-6.592 4.532c2.12 3.083 1.753 5.683.74 11.254l7.87 1.431zm-2.019-17.217c-2.018-2.935-5.032-4.803-7.882-6.013-2.886-1.225-5.946-1.922-8.486-2.322l-1.244 7.903c2.161.34 4.528.901 6.603 1.783 2.111.896 3.594 1.984 4.417 3.181l6.592-4.532zm-16.368-8.335c-6.846-1.078-14.14-.323-20.183.058l.504 7.984c6.57-.414 12.696-1.043 18.435-.14l1.244-7.902zm-20.183.058c-10.72.676-21.418 1.105-32.198 1.472l.272 7.995c10.806-.367 21.594-.8 32.43-1.483l-.504-7.984zm-32.198 1.472c-11.423.388-22.83 1.148-34.138 1.84-11.334.693-22.59 1.32-33.85 1.458l.098 8c11.472-.142 22.897-.78 34.24-1.473 11.372-.696 22.636-1.446 33.922-1.83l-.272-7.995zm-67.988 3.298c-25.106.31-49.84-1.45-74.862-4.309l-.909 7.948c25.241 2.885 50.327 4.676 75.87 4.36l-.1-7.999zm-74.862-4.309c-17.854-2.04-35.434-4.261-52.778-8.155l-1.752 7.806c17.798 3.995 35.75 6.255 53.621 8.297l.909-7.948zm-52.778-8.155c-2.243-.504-4.62-.943-6.98-1.371-2.387-.433-4.757-.855-7.104-1.338-4.728-.972-9.027-2.13-12.49-3.862l-3.577 7.155c4.428 2.214 9.566 3.537 14.455 4.543 2.462.507 4.945.948 7.287 1.373 2.368.43 4.594.843 6.657 1.306l1.752-7.806zM960.643 739.036a4 4 0 1 0 0-8v8zm-4.532-5.97-1.415-3.741 1.415 3.741zm85.464-21.97.735 3.933-.735-3.932zm140.09-13.2.072-4-.071 4zm104.675 24.924 2.179-3.355-2.179 3.355zm12.61 15.073-3.947.645 3.947-.645zm-13.2 12.71-1.25-3.8 1.25 3.8zm-48.176 7.29.277 3.99-.277-3.99zm-78.025 3.25-.114-3.998.114 3.998zm-159.007-2.6a4 4 0 1 0 0-8v8zm-39.9-27.507c-.946 0-3.07.005-4.304-.18-.305-.045-.313-.07-.158-.011.072.027.393.151.77.452a3.69 3.69 0 0 1 1.324 2.305 3.703 3.703 0 0 1-.654 2.767c-.32.435-.635.646-.68.677-.106.072.005-.019.587-.239l-2.831-7.482c-.76.287-1.565.64-2.24 1.096-.33.223-.843.613-1.284 1.213-.466.635-1.03 1.772-.798 3.225.223 1.403 1.059 2.27 1.582 2.689a5.107 5.107 0 0 0 1.369.77c.656.25 1.337.377 1.83.45 1.961.294 4.786.268 5.488.268v-8zm-3.115 5.771c27.06-10.239 56.092-16.416 84.783-21.778l-1.47-7.864c-28.752 5.374-58.377 11.653-86.144 22.16l2.83 7.482zm84.783-21.778c46.284-8.652 92.286-13.97 139.285-13.134l.142-7.999c-47.695-.848-94.26 4.552-140.897 13.269l1.47 7.864zm139.285-13.134c34.262.609 73.9 5.666 102.567 24.28l4.357-6.71c-30.649-19.901-72.224-24.955-106.782-25.569l-.142 7.999zm102.567 24.28c2.377 1.544 4.979 3.511 7.066 5.746 2.12 2.27 3.432 4.518 3.775 6.617l7.895-1.29c-.701-4.295-3.165-7.941-5.823-10.787-2.692-2.882-5.873-5.253-8.556-6.996l-4.357 6.71zm10.84 12.363c.262 1.6-.37 2.999-2.493 4.562-2.203 1.622-5.269 2.801-8.009 3.702l2.498 7.6c2.808-.923 6.943-2.422 10.254-4.86 3.391-2.497 6.585-6.541 5.646-12.293l-7.895 1.289zm-10.502 8.264c-14.666 4.82-31.227 5.993-47.202 7.1l.553 7.98c15.771-1.092 33.365-2.292 49.147-7.48l-2.498-7.6zm-47.202 7.1c-25.842 1.79-51.857 2.5-77.863 3.243l.228 7.997c25.968-.742 52.153-1.455 78.188-3.26l-.553-7.98zm-77.863 3.243c-26.345.753-79.22-.89-118.982-2.73-19.879-.92-36.364-1.883-44.547-2.612-2.062-.184-3.497-.344-4.308-.472-.518-.082-.445-.102-.165.006.087.033.391.152.748.4.2.139 1.364.946 1.629 2.607.328 2.057-.953 3.334-1.443 3.722-.5.397-.966.56-1.075.597-.4.14-.586.114-.001.065a38.86 38.86 0 0 1 1.848-.097c1.67-.057 4.104-.088 7.403-.088v-8c-3.331 0-5.871.031-7.675.093-.897.03-1.654.07-2.253.12-.42.036-1.255.108-1.968.358-.187.065-.71.256-1.247.681-.526.417-1.822 1.724-1.49 3.81.271 1.692 1.46 2.53 1.706 2.7.401.28.772.431.943.497.621.24 1.353.361 1.79.43 1.102.175 2.771.354 4.848.54 8.372.745 25.011 1.715 44.887 2.635 39.746 1.84 92.898 3.497 119.58 2.735l-.228-7.997z" fill="#1e1e1e"/><path d="M1293.571 727.943a4 4 0 0 0 8 0h-8zm-14.866-2.364 3.852 1.08-3.852-1.08zm6.896 24.235-2.276 3.289 2.276-3.29zm28.423 2.463 1.42 3.74-1.42-3.74zm16.747-20.984-3.696 1.528 3.696-1.528zm-23.84-13.793-.207 3.995.206-3.995zm-32.635 6.977a4 4 0 0 0 3.991 6.933l-3.991-6.933zm27.275 3.466c0-7.127-5.307-14.042-12.361-15.67l-1.799 7.795c3.321.766 6.16 4.367 6.16 7.875h8zm-12.361-15.67c-2.222-.513-4.339-.31-6.234.525-1.835.808-3.23 2.105-4.276 3.438-2.032 2.592-3.182 5.894-3.846 8.262l7.703 2.161c.59-2.107 1.402-4.165 2.439-5.486.489-.624.904-.921 1.206-1.055.243-.107.59-.193 1.21-.05l1.798-7.795zm-14.356 12.225c-2.715 9.68-1.412 21.763 8.47 28.605l4.554-6.578c-6.006-4.158-7.524-12.015-5.321-19.866l-7.703-2.16zm8.47 28.605c9.357 6.477 22.28 6.649 32.12 2.913l-2.84-7.479c-7.998 3.036-18.028 2.625-24.726-2.012l-4.553 6.578zm32.12 2.913c4.012-1.523 9.725-4.582 13.998-8.74 4.195-4.085 7.994-10.331 5.026-17.511l-7.393 3.056c1.07 2.59.148 5.45-3.213 8.722-3.285 3.197-7.965 5.744-11.258 6.994l2.84 7.48zm19.024-26.251c-2.261-5.47-6.93-9.398-11.846-11.969-4.95-2.587-10.584-4.037-15.485-4.29l-.413 7.989c3.766.195 8.275 1.343 12.191 3.39 3.949 2.065 6.868 4.81 8.16 7.936l7.393-3.056zm-27.331-16.26c-13.499-.698-23.136 5.384-32.841 10.972l3.991 6.933c10.14-5.838 17.7-10.47 28.437-9.915l.413-7.99zM1008.069 743.903a4 4 0 1 0 8 0h-8zm10.01 26.6-3.985.352 3.984-.353zm-1.066 69.943a4 4 0 0 0 7.845-1.569l-7.845 1.569zm-.944-96.543c0-.506.02-.74.027-.795.004-.035-.009.103-.08.327-.023.078-.264.93-1.112 1.66a3.903 3.903 0 0 1-4.43.458c-.821-.455-1.21-1.071-1.252-1.135-.173-.26-.19-.38-.08-.085.384 1.045 1.008 3.525 1.717 6.89 1.39 6.595 2.855 15.338 3.235 19.632l7.969-.705c-.422-4.76-1.961-13.862-3.376-20.576-.693-3.29-1.421-6.33-2.038-8.005-.142-.385-.387-1.01-.762-1.575a4.434 4.434 0 0 0-1.533-1.437 4.097 4.097 0 0 0-4.67.476 4.365 4.365 0 0 0-1.304 2.02c-.126.404-.187.78-.22 1.047-.07.55-.091 1.172-.091 1.803h8zm-1.975 26.952c.99 11.176.585 22.545.482 34.313-.102 11.646.097 23.577 2.437 35.278l7.845-1.569c-2.167-10.832-2.384-22.052-2.282-33.639.1-11.464.52-23.408-.513-35.088l-7.969.705zM808.138 916.367a4 4 0 0 0 0-8v8zm-9.95 18.659-3.972-.473 3.972.473zm-.083 97.317a4 4 0 0 0 7.654-2.33l-7.654 2.33zm10.033-123.976c-3.695 0-6.458 1.833-8.335 4.244-1.775 2.28-2.848 5.155-3.553 7.83-1.39 5.277-1.728 11.54-2.034 14.112l7.944.945c.404-3.394.626-8.46 1.827-13.02.59-2.245 1.32-3.915 2.128-4.952.705-.906 1.305-1.16 2.023-1.16v-8zm-13.922 26.186c-3.757 31.593-5.697 66.294 3.89 97.79l7.653-2.33c-9.07-29.802-7.337-63.083-3.599-94.515l-7.944-.945zM1048.253 908.989a4 4 0 1 0 5.657-5.657l-5.657 5.657zm3.765-1.35-3.917.81 3.917-.81zm1.674 18.176 4-.074-4 .074zm-5.172 57.386 3.937.706-3.937-.706zm-12.962 55.798a4 4 0 0 0 7.994.32l-7.994-.32zm18.352-135.667c-.057-.057-.056-.062-.024-.02.024.032.15.206.26.512.115.326.232.875.102 1.543a2.933 2.933 0 0 1-.781 1.504l-5.657-5.657a5.073 5.073 0 0 0-1.414 2.617 5.053 5.053 0 0 0 .209 2.665c.443 1.25 1.277 2.122 1.648 2.493l5.657-5.657zm-.443 3.539a3.595 3.595 0 0 1-2.706 1.01 3.661 3.661 0 0 1-2.727-1.393 2.933 2.933 0 0 1-.302-.476c-.05-.1-.076-.169-.085-.191-.014-.04-.001-.012.028.113.06.257.119.611.19 1.082.057.377.142.98.236 1.433l7.834-1.621c-.037-.176-.076-.45-.16-1.007-.07-.463-.169-1.1-.308-1.698-.09-.387-.354-1.556-1.1-2.522-.427-.553-1.477-1.63-3.233-1.712-1.71-.08-2.847.848-3.324 1.325l5.657 5.657zm-5.366 1.578c1.161 5.616 1.48 11.408 1.592 17.44l7.999-.148c-.114-6.167-.442-12.555-1.757-18.913l-7.834 1.62zm1.592 17.44c.351 18.967-1.735 37.788-5.11 56.606l7.874 1.412c3.435-19.154 5.599-38.522 5.235-58.166l-7.999.148zm-5.11 56.606c-3.277 18.275-8.249 37.11-9.025 56.504l7.994.32c.747-18.664 5.473-36.27 8.905-55.412l-7.874-1.412zM1544.779 580.04a4 4 0 1 0 5.657-5.656l-5.657 5.656zm.66-5.34-2.948 2.703 2.949-2.703zm-4.974 6.896-3.7-1.52 3.7 1.52zm-16.108 57.386-3.92-.797 3.92.797zm.05 52.214-3.601 1.743 3.6-1.743zm38.47 18.226-1.441-3.731 1.441 3.73zm15.96-10.492-2.448-3.164 2.448 3.164zm18.965-20.787 3.616 1.709-3.616-1.71zm16.6-72.952-3.997.17 3.997-.17zM1578 561.252l-1.221 3.81 1.22-3.81zm-25.664-6.896-.855 3.908.855-3.908zm-9.946-5.006a4 4 0 0 0 1.568 7.845l-1.568-7.845zm8.046 25.034c-.242-.242-.488-.53-.831-.95-.308-.377-.745-.923-1.216-1.437l-5.898 5.406c.279.303.531.62.922 1.097.356.435.819.994 1.366 1.54l5.657-5.656zm-2.047-2.387c-.964-1.051-2.472-1.814-4.253-1.553-1.449.213-2.448 1.026-2.956 1.508-1.047.995-1.84 2.374-2.359 3.37a37.61 37.61 0 0 0-1.43 3.147c-.183.45-.335.843-.449 1.14l-.137.362-.04.105 7.4 3.04c.24-.586.879-2.421 1.753-4.102.204-.392.392-.715.555-.96.176-.267.254-.337.215-.3a1.845 1.845 0 0 1-.334.243c-.199.116-.558.29-1.057.363a3.218 3.218 0 0 1-2.806-.957l5.898-5.406zm-11.624 8.079c-7.612 18.522-12.42 38.897-16.327 58.109l7.839 1.594c3.887-19.113 8.576-38.872 15.888-56.663l-7.4-3.04zm-16.327 58.109c-1.689 8.301-3.711 17.613-4.273 26.881-.566 9.316.312 18.926 4.64 27.873l7.202-3.485c-3.52-7.273-4.375-15.368-3.857-23.903.52-8.583 2.398-17.27 4.127-25.772l-7.84-1.594zm.368 54.754c7.39 15.274 25.02 27.36 43.513 20.214l-2.883-7.462c-13.245 5.117-27.136-3.231-33.429-16.237l-7.201 3.485zm43.513 20.214c6.583-2.543 12.31-7.457 16.966-11.06l-4.896-6.327c-5.2 4.025-9.756 7.917-14.953 9.925l2.883 7.462zm16.966-11.06c7.613-5.89 15.499-12.434 20.133-22.241l-7.233-3.418c-3.738 7.91-10.189 13.446-17.796 19.332l4.896 6.327zm20.133-22.241c10.596-22.424 18.056-49.466 16.98-74.83l-7.993.338c1.006 23.704-5.997 49.44-16.22 71.074l7.233 3.418zm16.98-74.83c-.528-12.464-4.638-22.64-11.615-30.609-6.932-7.917-16.485-13.418-27.562-16.97l-2.442 7.618c10.103 3.24 18.258 8.081 23.985 14.622 5.683 6.491 9.184 14.888 9.641 25.677l7.993-.339zm-39.177-47.579a283.408 283.408 0 0 0-26.03-6.995l-1.71 7.816a275.41 275.41 0 0 1 25.298 6.797l2.442-7.618zm-26.03-6.995c-1.317-.287-3.204-.774-4.862-1.052-1.755-.294-3.812-.471-5.94-.046l1.57 7.845c.763-.153 1.726-.13 3.048.091 1.42.238 2.668.583 4.474.978l1.71-7.816z" fill="#1e1e1e"/><path d="M1568.434 564.799a4 4 0 0 0 8 0h-8zm-20.925-6.896.157 3.997-.157-3.997zm-58.815 10-.987-3.877.987 3.876zm-96.202 29.751-1.291-3.785 1.291 3.785zm-37.387 14.138-1.942-3.497 1.942 3.497zm-5.714 14.186-1.6-3.666 1.6 3.666zm-22.462 6.01-.996-3.874.996 3.873zm-8.768 2.856-1.099 3.847 1.1-3.847zm78.518 21.28 1.385-3.752-1.385 3.752zm58.372 23.152 1.527-3.697-1.527 3.697zm74.971 26.993-1.354 3.764 1.354-3.764zm44.382 13.99-.996 3.874.996-3.874zm-8.587-4.267a4 4 0 0 0-.953 7.943l.953-7.943zm10.617-151.193c0-4.121-2.57-6.774-5.338-8.27-2.64-1.426-5.916-2.108-8.909-2.461-6.044-.713-12.682-.247-14.835-.162l.314 7.994c2.506-.099 8.33-.507 13.584.113 2.656.313 4.737.849 6.043 1.555 1.178.636 1.14 1.03 1.14 1.23h8zm-29.082-10.893c-20.457.804-40.228 5.176-59.645 10.12l1.974 7.752c19.315-4.918 38.41-9.11 57.985-9.878l-.314-7.994zm-59.645 10.12c-32.565 8.292-64.876 19.051-96.506 29.843l2.583 7.571c31.627-10.79 63.671-21.456 95.897-29.662l-1.974-7.752zm-96.506 29.843c-11.81 4.029-26.28 7.893-38.038 14.426l3.885 6.993c10.927-6.07 24.139-9.55 36.736-13.848l-2.583-7.571zm-38.038 14.426a4.501 4.501 0 0 0-2.12 2.582 4.764 4.764 0 0 0-.075 2.549c.257 1.075.83 1.949 1.157 2.411.736 1.042 1.696 2.002 2.024 2.33l5.656-5.657c-.349-.35-.851-.872-1.145-1.287-.188-.267-.02-.117.09.345.063.267.175.916-.08 1.723a3.5 3.5 0 0 1-1.622 1.997l-3.885-6.993zm.986 9.872c.596.596.257.563.327.064.035-.246.103-.027-.595.617-1.409 1.3-3.905 2.51-6.09 3.464l3.2 7.332c2.048-.893 5.773-2.572 8.314-4.916 1.277-1.178 2.752-2.969 3.092-5.377.376-2.661-.759-5.008-2.592-6.841l-5.656 5.657zm-6.358 4.145c-3.262 1.423-6.707 2.374-10.39 3.22-3.525.811-7.658 1.602-11.468 2.582l1.992 7.747c3.752-.964 7.252-1.608 11.268-2.531 3.859-.887 7.864-1.97 11.798-3.686l-3.2-7.332zm-21.858 5.802c-.744.19-3.18.868-5.34 1.525-1.069.325-2.154.671-2.95.964-.343.126-.852.32-1.288.558a4.865 4.865 0 0 0-.532.334c-.148.108-.629.461-1.037 1.077-.448.678-1.23 2.451-.084 4.33.832 1.365 2.136 1.724 2.36 1.789l2.198-7.693c.178.051 1.452.393 2.272 1.738 1.132 1.856.354 3.604-.076 4.253-.389.588-.834.909-.934.981-.165.12-.296.193-.342.218-.128.07-.11.047.227-.078.567-.208 1.468-.499 2.515-.817a161.415 161.415 0 0 1 5.003-1.432l-1.992-7.747zm-8.87 10.577c13.166 3.761 26.528 6.749 39.585 9.927 13.12 3.195 26.036 6.605 38.646 11.259l2.77-7.505c-13.057-4.82-26.336-8.316-39.524-11.527-13.253-3.226-26.316-6.143-39.28-9.847l-2.198 7.693zm78.231 21.186c19.604 7.234 38.852 15.092 58.23 23.096l3.054-7.394c-19.384-8.007-38.755-15.915-58.514-23.207l-2.77 7.505zm58.23 23.096c24.658 10.185 50.402 18.158 75.144 27.06l2.708-7.527c-25.227-9.078-50.34-16.825-74.798-26.927l-3.054 7.394zm75.144 27.06c14.691 5.286 29.51 10.184 44.74 14.1l1.992-7.748c-14.893-3.83-29.454-8.637-44.024-13.88l-2.708 7.528zm44.74 14.1c1.153.296 1.73.475 1.948.556.267.1-.196-.029-.71-.445a3.85 3.85 0 0 1-.831-.938 3.959 3.959 0 0 1 .853-5.183 3.864 3.864 0 0 1 1.125-.638c.643-.231 1.154-.198.91-.195-.041.001-.165 0-.397-.014a41.088 41.088 0 0 1-1.873-.169c-3.277-.353-7.459-.976-8.616-1.115l-.953 7.943c.578.07 5.57.787 8.711 1.126.825.09 1.617.164 2.266.201.319.019.662.032.985.027.122-.001.895.005 1.677-.277.242-.087.716-.28 1.207-.679a4.041 4.041 0 0 0 1.447-2.507 4.043 4.043 0 0 0-.576-2.789 4.15 4.15 0 0 0-.9-1.01c-.64-.518-1.37-.775-1.534-.836-.645-.24-1.579-.506-2.747-.806l-1.992 7.748z" fill="#1e1e1e"/><path d="M1315.738 643.711a4 4 0 1 0 8 0h-8zm1.783-4.384-.307 3.988.307-3.988zm-3.547 26.353-3.996-.173 3.996.173zm1.133 42.166 3.941-.685-3.94.685zm11.33 17.043 1.285-3.788-1.285 3.788zm23.447-30.934 3.941.682-3.941-.682zm5.123-47.387-3.982-.387 3.982.387zm1.083-21.378-4-.052 4 .052zm4.465-3.63a4 4 0 0 0-7.156-3.577l7.156 3.577zm-36.817 22.151c0-.802-.195-1.619-.339-2.142a15.114 15.114 0 0 0-.698-1.976c-.275-.632-.668-1.408-1.196-2.103-.347-.456-1.556-1.988-3.677-2.151l-.614 7.976a3.234 3.234 0 0 1-1.696-.62c-.254-.192-.374-.353-.38-.362-.013-.016.082.118.226.45.132.303.246.634.322.91.037.135.057.227.065.27.013.073-.013-.033-.013-.252h8zm-5.91-8.372c-3.098-.238-4.61 2.302-5.03 3.108-.593 1.135-.972 2.504-1.242 3.76-.556 2.595-.894 5.946-1.11 9.174-.425 6.33-.442 13.52-.468 14.126l7.993.347c.06-1.4.026-7.523.457-13.938.21-3.144.52-6.023.95-8.03.224-1.045.424-1.57.511-1.737.259-.495-.473 1.336-2.675 1.166l.614-7.976zm-7.85 30.168c-.602 13.842-1.297 28.712 1.188 43.023l7.882-1.369c-2.31-13.307-1.687-27.285-1.077-41.307l-7.993-.347zm1.188 43.023c.604 3.479 1.981 7.66 4.148 11.343 2.131 3.622 5.337 7.277 9.838 8.804l2.57-7.576c-1.923-.652-3.85-2.46-5.513-5.285-1.626-2.763-2.702-6.015-3.16-8.655l-7.883 1.369zm13.986 20.147c5.11 1.734 9.71.866 13.502-1.687 3.59-2.417 6.256-6.194 8.248-10.044 3.996-7.72 6.051-17.27 6.923-22.31l-7.883-1.363c-.839 4.848-2.732 13.403-6.145 19.996-1.711 3.308-3.614 5.74-5.61 7.084-1.796 1.209-3.8 1.652-6.465.748l-2.57 7.576zm28.673-34.04c2.746-15.864 3.647-32.097 5.163-47.682l-7.963-.774c-1.56 16.034-2.405 31.618-5.083 47.092l7.883 1.364zm5.163-47.682c.708-7.28 1.008-14.473 1.102-21.713l-8-.104c-.091 7.09-.384 14.05-1.065 21.043l7.963.774zm1.102-21.713c.018-1.372.005-1.912.07-2.455.043-.35.118-.674.395-1.227l-7.156-3.577c-1.434 2.868-1.28 5.007-1.308 7.155l7.999.104zM1201.407 874.705a4 4 0 1 0 0-8v8zm-4.263 14.525-3.972.477 3.972-.477zm26.709 15.879v4-4zm30.041-13.87-3.167-2.443 3.167 2.444zm6.567-25.287-2.939 2.713 2.94-2.713zm-8.968-4.264-1.293 3.785 1.293-3.785zm-19.31-4.215.055-4-.054 4zm-18.916 4.019-1.611-3.661 1.611 3.661zm-15.584 12.056-2.777-2.88 2.777 2.88zm-7.333 7.743a4 4 0 1 0 8 0h-8zm11.057-14.586c-3.58 0-5.668 2.483-6.697 4.59-1.01 2.068-1.47 4.576-1.698 6.806-.462 4.547-.093 9.499.16 11.606l7.943-.953c-.215-1.792-.524-6.102-.144-9.843.195-1.914.537-3.307.926-4.103.37-.757.28-.103-.49-.103v-8zm-8.235 23.002c.995 8.292 6.177 13.28 12.248 16.03 5.892 2.668 12.833 3.372 18.433 3.372v-8c-5.117 0-10.743-.671-15.132-2.66-4.21-1.907-7.025-4.857-7.606-9.695l-7.943.953zm30.68 19.402c7.048 0 13.128-.835 18.633-3.287 5.548-2.472 10.175-6.434 14.576-12.14l-6.334-4.886c-3.814 4.945-7.455 7.917-11.497 9.718-4.086 1.82-8.919 2.595-15.377 2.595v8zm33.21-15.426c1.868-2.423 4.953-7.756 6.95-13.227 1.002-2.746 1.818-5.763 1.981-8.613.159-2.779-.273-6.092-2.593-8.604l-5.878 5.426c.189.204.588.895.484 2.722-.1 1.756-.642 3.947-1.51 6.327-1.745 4.781-4.452 9.375-5.769 11.082l6.334 4.887zm6.338-30.444c-1.69-1.833-3.849-2.92-5.662-3.65-1.71-.686-3.82-1.3-4.953-1.686l-2.585 7.57c1.78.608 3.058.938 4.555 1.54 1.394.56 2.263 1.106 2.767 1.652l5.878-5.426zm-10.615-5.336c-6.45-2.203-12.932-4.326-20.547-4.43l-.108 8c6.202.084 11.591 1.788 18.07 4l2.585-7.57zm-20.547-4.43c-7.975-.107-13.51 1.246-20.582 4.358l3.222 7.322c6.176-2.717 10.578-3.77 17.252-3.68l.108-8zm-20.582 4.358c-3.118 1.372-6.317 3.666-9.13 5.966-2.858 2.336-5.54 4.867-7.62 6.871l5.553 5.76c2.043-1.97 4.535-4.316 7.13-6.438 2.64-2.158 5.172-3.905 7.289-4.837l-3.222-7.322zm-16.75 12.837c-1.486 1.434-2.838 2.884-3.65 4.789-.815 1.913-.906 3.865-.906 5.834h8c0-1.862.135-2.391.265-2.698.135-.315.448-.82 1.844-2.166l-5.553-5.759zM1260.266 223.673a4 4 0 1 0 0-8v8zm-2-1.222 2.12 3.392-2.12-3.392zm-48.889-1.223.799-3.92-.799 3.92zm-15.889-.333 3.806-1.231-3.806 1.231zm27.723 64.167-3.714 1.485 3.714-1.485zm-3.167 2.055 2.434 3.175-2.434-3.175zm-37.278 49 3.59 1.764-3.59-1.764zm-20.833 54.334 2.584-3.054-2.584 3.054zm16.444-2.778.794 3.92-.794-3.92zm47.723 25.11-3.84-1.118 3.84 1.119zm-16.056 74.223-3.991-.264 3.991.264zm-1.333 20.667 1.485 3.714-1.485-3.714zm9.333-8.056-2.499-3.123 2.499 3.123zm30.389-16.778 1.541 3.692-1.541-3.692zm16.389-7.944 2.072 3.421-2.072-3.421zm-.778 13.111-3.831-1.15 3.831 1.15zm-6.556 39.667 3.998.132-3.998-.132zm2 41.778 3.946-.658-3.946.658zm10.89 34.61-3.295 2.269 3.294-2.268zm9.11 6.167-2.566-3.068 2.566 3.068zm8.667-11.777 3.34 2.2-3.34-2.2zm15.333-23.778-3.333-2.211 3.333 2.21zm28.612-37 2.888 2.767-2.888-2.767zm31.833-26.278 1.708 3.617-1.708-3.617zm6.333 6.333-3.915.818 3.915-.818zm17.111 57.056 2.756-2.9-2.756 2.9zm25.667 10.778-.058 4 .058-4zm16.222-12.556 3.205 2.394-3.205-2.394zm38.278-59-3.186-2.419 3.186 2.42zm12.722-8.333 3.993-.235-3.993.235zm45.556 38.778 1.968-3.483-1.968 3.483zm10.833 6.11 1.863-3.539-1.863 3.54zm4.611-10.333 3.865 1.032-3.865-1.032zm19.722-80.61-3.759-1.368 3.76 1.367zm10 3 3.59-1.767-3.59 1.766zm33.056 41.388 2.51-3.114-2.51 3.114zm17.611-4.111-3.912-.834 3.912.834zm2.222-34.111-3.989-.297 3.99.297zm6.39-75-4 .035 4-.035zm-.945-11.833-3.986.332 3.986-.332zm.555-.223-3.486 1.961 3.486-1.96zm48.39 11.167-.804 3.918.803-3.918zm4.777.944 2.294 3.277-2.294-3.277zm-3.667-10.61-3.614 1.714 3.614-1.715zm-35.444-62.723 3.232-2.356-3.232 2.356zm-13.445-27.278-3.806-1.229 3.806 1.23zm27.667-55.333-3.74-1.419 3.74 1.419zm9.111-20.222 3.683 1.562-3.683-1.562zm-5.278-1.334-.827-3.913.827 3.913zm-30.5 11.89 1.745 3.599-1.745-3.6zm-51.055 29.11-2.51-3.114 2.51 3.114zm-3.556 5.056 2.625 3.018-2.625-3.018zm8.611-14.5 3.544 1.855-3.544-1.855zm10.945-23.056 3.66 1.613-3.66-1.613zm24.055-54.388-3.486-1.961 3.486 1.96zm-2.722-1.056 1.618 3.658-1.618-3.658zm-28.61 12.278 1.478 3.716-1.479-3.716zm-48.112 18.444 1.534 3.694-1.534-3.694zm-32 12.89-.784-3.923.784 3.922zm-.333-12.334-3.883-.962 3.883.962zm7.333-33.667-3.989-.302 3.989.302zm-12.889-22.944 1.943 3.496-1.943-3.496zm-15 14.5-2.657-2.99 2.657 2.99zm-53.167 40.277 2.271 3.293-2.27-3.293zm-14.5 4.39 2.734-2.92-2.734 2.92zm-6.222-29.112 3.947-.65-3.947.65zm-7.444-27.11-3.75 1.393 3.75-1.394zm-9.667-11.668-1.163 3.828 1.163-3.828zm-17.611 4.723 1.771 3.586-1.771-3.586zm-39.556 25.5-2.25-3.307 2.25 3.307zm-43.055 36.389-3-2.647 3 2.647zm3.333-6.278 3.368 2.158-3.368-2.158zm-1.555-17.222 2.525 3.102-2.525-3.102zm-35.594 22.39a4 4 0 0 0 2.299 7.663l-2.3-7.663zm-.85 17.832c-.67 0-1.414.124-2.15.47a4.853 4.853 0 0 0-1.718 1.354c-.717.89-.99 1.885-1.073 2.162-.16.542-.13.455-.123.438.06-.134.315-.646.943-1.038l4.24 6.784c1.2-.75 1.815-1.789 2.134-2.511.157-.355.263-.68.332-.906.036-.115.067-.223.09-.303l.056-.196c.032-.11.03-.085-.003-.009-.033.079-.14.317-.366.598a3.147 3.147 0 0 1-1.109.867c-.49.23-.94.29-1.254.29v-8zm-4.12 3.386c-2.678 1.673-5.55 1.614-10.547 1.614v8c4.25 0 9.762.31 14.786-2.83l-4.24-6.784zm-10.547 1.614c-12.37 0-23.416-.918-35.424-3.364l-1.597 7.839c12.62 2.57 24.212 3.525 37.02 3.525v-8zm-35.424-3.364c-.76-.155-5.099-.965-9.19-1.382-1.995-.203-4.204-.344-5.952-.185-.778.071-2.025.24-3.136.863-.607.34-1.468.981-2.004 2.104a4.6 4.6 0 0 0-.211 3.417l7.611-2.462c.2.617.272 1.545-.183 2.495a3.212 3.212 0 0 1-1.3 1.423c-.435.244-.615.179-.052.127.933-.084 2.496-.019 4.416.177 3.737.38 7.796 1.138 8.404 1.262l1.597-7.84zm-20.493 4.817c3.668 11.34 8.535 22.184 13.501 32.78 4.996 10.662 10.058 21.004 14.313 31.641l7.428-2.97c-4.367-10.918-9.58-21.574-14.497-32.065-4.947-10.557-9.63-21.018-13.134-31.848l-7.611 2.462zm27.814 64.421c-.664-1.66.032-3.011.341-3.474.304-.455.615-.681.626-.69.064-.05-.007.01-.36.192-.339.175-.62.306-1.054.521-.185.092-.404.202-.613.317-.175.096-.502.28-.827.53l4.868 6.349c-.221.17-.323.194.124-.028.253-.125.768-.372 1.174-.582.391-.202 1.012-.534 1.555-.95a5.16 5.16 0 0 0 1.16-1.217c.42-.629 1.155-2.136.434-3.939l-7.428 2.971zm-1.887-2.604c-16.294 12.492-29.81 32.856-38.434 50.41l7.18 3.528c8.368-17.034 21.217-36.163 36.122-47.59l-4.868-6.348zm-38.434 50.41c-3.827 7.79-6.296 16.012-8.673 23.85-2.409 7.942-4.727 15.505-8.259 22.57l7.155 3.577c3.884-7.767 6.38-15.978 8.76-23.826 2.412-7.953 4.707-15.537 8.197-22.643l-7.18-3.527zm-16.932 46.42c.003-.005-.197.346-.671 1.194-.413.739-.948 1.703-1.467 2.674-.51.953-1.04 1.983-1.424 2.83-.182.404-.391.896-.538 1.372a5.375 5.375 0 0 0-.227 1.122c-.021.246-.041.699.071 1.242a4.09 4.09 0 0 0 1.361 2.297l5.168-6.107a3.91 3.91 0 0 1 1.305 2.189c.102.495.08.887.066 1.06a3.077 3.077 0 0 1-.1.557c-.005.014.038-.112.183-.433.271-.6.7-1.44 1.192-2.36.482-.903.988-1.815 1.392-2.537.343-.613.737-1.307.844-1.523l-7.155-3.577zm-2.895 12.731c1.132.958 2.445 1.268 3.332 1.388.95.13 1.929.105 2.815.028 1.778-.154 3.768-.578 5.583-1.036 1.845-.464 3.675-1.007 5.149-1.448 1.608-.481 2.546-.763 2.943-.843l-1.587-7.84c-.861.173-2.31.618-3.65 1.019-1.475.441-3.154.938-4.81 1.355-1.684.424-3.185.725-4.32.823-.57.05-.904.035-1.05.015-.209-.028.224-.024.763.432l-5.168 6.107zm19.822-1.91c15.939-3.225 32.359-5.921 48.317-5.921v-8c-16.783 0-33.839 2.829-49.904 6.08l1.587 7.84zm48.317-5.921c1.217 0 1.95.017 2.454.074.526.06.32.12-.061-.143-.22-.152-.41-.35-.547-.563-.127-.196-.163-.332-.16-.323.004.016.031.128.055.389.023.257.037.602.037 1.066h8c0-1.153-.06-2.41-.377-3.57-.354-1.29-1.074-2.621-2.454-3.577-1.231-.852-2.586-1.113-3.588-1.227-1.025-.117-2.2-.126-3.359-.126v8zm1.778.5c0 .302-.133.688-1.302 2.398-.905 1.324-2.698 3.8-2.698 7.102h8c0-.473.208-.986 1.303-2.588.83-1.216 2.697-3.692 2.697-6.912h-8zm-4 9.5c0 5.445-1.27 10.027-3.007 15.992l7.681 2.237c1.718-5.899 3.326-11.5 3.326-18.23h-8zm-3.007 15.992c-7.011 24.072-14.5 49.33-16.206 75.077l7.982.529c1.638-24.717 8.84-49.11 15.905-73.369l-7.68-2.237zm-16.206 75.077c-.362 5.452-.787 11.131-.787 16.82h8c0-5.36.4-10.725.77-16.291l-7.983-.53zm-.787 16.82c0-.327.068-.39-.087.11-.17.547-.234.676-.475 1.418-.087.265-.19.6-.273.945a5.854 5.854 0 0 0-.173 1.534c.016.49.161 2.464 2.097 3.59 1.769 1.027 3.455.382 3.841.228l-2.97-7.428c.064-.026 1.527-.66 3.15.283a3.73 3.73 0 0 1 1.878 3.072c.013.414-.062.666-.04.576.007-.033.033-.129.096-.323.058-.177.374-1.086.509-1.52.15-.481.447-1.467.447-2.485h-8zm4.93 7.825c2.518-1.007 4.68-3.038 6.234-4.592 1.84-1.84 2.97-3.14 4.113-4.054l-4.998-6.247c-1.599 1.279-3.465 3.338-4.77 4.644-1.592 1.59-2.726 2.491-3.55 2.82l2.971 7.429zm10.347-8.646c8.644-6.916 18.819-11.779 29.431-16.21l-3.082-7.383c-10.768 4.496-21.796 9.705-31.347 17.346l4.998 6.247zm29.431-16.21c5.689-2.376 11.385-4.862 16.92-8.215l-4.144-6.842c-4.986 3.02-10.206 5.314-15.858 7.674l3.082 7.383zm16.92-8.215c.527-.319.991-.708 2.04-1.276.508-.276.612-.275.413-.231-.001 0-.877.232-1.955-.231a3.724 3.724 0 0 1-1.747-1.554 3.597 3.597 0 0 1-.49-1.796h8c0-.583-.111-1.392-.585-2.211a4.276 4.276 0 0 0-2.016-1.788c-1.31-.563-2.516-.323-2.915-.236-.995.218-1.956.71-2.518 1.014-1.091.592-2.793 1.722-2.371 1.467l4.144 6.842zm-1.739-5.088c0 .392-.113 1.118-.458 2.242-.33 1.078-.802 2.297-1.35 3.615-1.002 2.405-2.47 5.557-3.134 7.772l7.662 2.298c.507-1.69 1.595-3.966 2.856-6.994.582-1.397 1.17-2.896 1.614-4.346.431-1.404.81-3.019.81-4.587h-8zm-4.942 13.629c-4.043 13.476-6.252 26.515-6.722 40.683l7.995.265c.447-13.452 2.537-25.809 6.39-38.65l-7.663-2.298zm-6.722 40.683c-.462 13.907-.287 28.533 2.052 42.568l7.891-1.315c-2.21-13.266-2.403-27.28-1.948-40.988l-7.995-.265zm2.052 42.568c1.863 11.18 4.264 25.655 11.54 36.222l6.589-4.537c-6.08-8.83-8.304-21.398-10.238-33l-7.891 1.315zm11.54 36.222c.54.784 2.246 3.515 4.265 5.51 1.006.993 2.452 2.186 4.26 2.75 2.095.655 4.45.376 6.447-1.293l-5.133-6.137a1.21 1.21 0 0 1 .53-.218c.289-.052.491-.003.542.013.031.01-.056-.014-.265-.158a5.893 5.893 0 0 1-.759-.649c-1.32-1.305-2.438-3.105-3.298-4.355l-6.59 4.537zm14.972 6.967c2.183-1.826 4.007-4.248 5.498-6.46.76-1.128 1.475-2.267 2.128-3.316.668-1.07 1.255-2.02 1.815-2.87l-6.682-4.4c-.63.956-1.285 2.017-1.922 3.039a103.64 103.64 0 0 1-1.974 3.078c-1.379 2.045-2.698 3.706-3.996 4.792l5.133 6.137zm9.44-12.647c2.614-3.968 5.162-7.975 7.69-11.946 2.536-3.98 5.054-7.925 7.637-11.82l-6.667-4.422c-2.63 3.965-5.185 7.97-7.717 11.944-2.537 3.985-5.05 7.937-7.624 11.845l6.682 4.4zm15.327-23.766c8.556-12.901 17.618-25.437 28.166-36.444l-5.776-5.535c-11.037 11.516-20.406 24.513-29.057 37.557l6.667 4.422zm28.166-36.444c9.159-9.557 19.433-20.13 30.653-25.428l-3.416-7.234c-12.805 6.047-24.097 17.823-33.013 27.127l5.776 5.535zm30.653-25.428c.592-.28 1.007-.437 1.283-.52.286-.087.312-.059.16-.06a2.124 2.124 0 0 1-1.013-.303 2.108 2.108 0 0 1-.729-.682c-.066-.107-.039-.102.034.14.071.234.15.566.246 1.056.097.493.19 1.03.31 1.708.117.655.252 1.397.419 2.195l7.83-1.636c-.33-1.584-.426-2.372-.708-3.808-.205-1.04-.531-2.571-1.32-3.851a5.913 5.913 0 0 0-2.053-2.034c-.963-.561-1.983-.775-2.936-.785-1.715-.017-3.429.633-4.94 1.346l3.417 7.234zm.71 3.534c.987 4.726 1.544 9.62 2.077 14.697.526 5.015 1.032 10.25 1.93 15.352 1.81 10.29 5.292 20.561 14.264 29.088l5.511-5.799c-7.23-6.87-10.235-15.232-11.897-24.675-.838-4.763-1.313-9.669-1.852-14.8-.532-5.07-1.122-10.33-2.202-15.499l-7.831 1.636zm18.27 59.137c3.484 3.311 8.221 6.213 13.145 8.305 4.915 2.09 10.324 3.502 15.22 3.573l.116-7.999c-3.569-.052-7.935-1.12-12.207-2.936-4.265-1.813-8.128-4.238-10.762-6.742l-5.511 5.8zm28.365 11.878c4.877.07 9.054-2.816 12.05-5.568 3.109-2.855 5.718-6.295 7.435-8.593l-6.41-4.788c-1.725 2.31-3.939 5.195-6.437 7.49-2.611 2.398-4.824 3.485-6.522 3.46l-.116 8zm19.485-14.161c7.151-9.573 13.268-19.82 19.286-29.846 6.053-10.086 12.012-19.96 18.973-29.13l-6.372-4.837c-7.265 9.569-13.436 19.812-19.46 29.85-6.062 10.1-11.97 19.985-18.836 29.175l6.409 4.788zm38.259-58.975c.777-1.024 2.052-2.917 3.215-4.556 1.268-1.786 2.58-3.536 3.757-4.805.593-.64 1.042-1.035 1.335-1.241.398-.28.089.079-.72.057-1.287-.034-2.02-.898-2.206-1.255-.072-.139.094.133.162 1.283l7.986-.47c-.09-1.546-.348-3.157-1.054-4.51-.819-1.572-2.394-2.984-4.674-3.045-1.801-.048-3.255.805-4.094 1.395-.944.663-1.826 1.512-2.6 2.346-1.557 1.678-3.122 3.792-4.416 5.616-1.4 1.972-2.37 3.436-3.063 4.347l6.372 4.838zm5.543-10.517c.097 1.643.77 3.072 1.398 4.114.655 1.09 1.473 2.1 2.247 2.966 1.455 1.625 3.373 3.367 4.02 4.013l5.657-5.657c-1.17-1.17-2.417-2.24-3.716-3.691-.602-.673-1.059-1.266-1.354-1.757-.323-.537-.278-.663-.266-.458l-7.986.47zm7.665 11.093c12.292 12.292 24.564 22.255 39.916 30.932l3.936-6.965c-14.59-8.247-26.297-17.725-38.195-29.624l-5.657 5.657zm39.916 30.932c3.466 1.96 7.213 4.208 10.938 6.168l3.726-7.079c-3.595-1.892-6.995-3.944-10.728-6.054l-3.936 6.965zm10.938 6.168c1.374.723 2.995.846 4.504.182 1.283-.565 2.095-1.53 2.563-2.208.936-1.357 1.525-3.103 1.912-4.469.417-1.47.731-3 .957-4.193.113-.591.213-1.148.285-1.54.087-.476.12-.62.118-.613l-7.73-2.064c-.145.546-.36 1.819-.532 2.724-.213 1.123-.475 2.378-.795 3.505-.349 1.232-.655 1.897-.8 2.108-.073.105.151-.287.799-.572.872-.384 1.809-.274 2.445.061l-3.726 7.08zm10.339-12.84c3.616-13.544 6.202-27.332 9.022-40.743 2.837-13.489 5.931-26.71 10.595-39.534l-7.519-2.734c-4.865 13.38-8.052 27.06-10.905 40.622-2.869 13.641-5.38 27.057-8.922 40.324l7.729 2.064zm19.617-80.277c.365-1.006.69-1.695.953-2.147.273-.47.402-.549.317-.48-.132.107-.538.364-1.161.382-.586.016-.945-.193-1.002-.229-.037-.023.084.05.349.36.253.295.556.712.908 1.27.711 1.125 1.465 2.571 2.287 4.243l7.178-3.532c-.84-1.707-1.749-3.476-2.701-4.984-.883-1.397-2.108-3.081-3.738-4.114-.89-.564-2.083-1.05-3.502-1.011-1.457.04-2.697.622-3.663 1.406-1.726 1.402-2.862 3.679-3.744 6.102l7.519 2.734zm2.651 3.4c8.66 17.597 18.97 30.511 34.135 42.736l5.02-6.228c-14.25-11.488-23.827-23.48-31.977-40.04l-7.178 3.531zm34.135 42.736c.422.34 3.478 3.082 6.375 5.144 1.476 1.051 3.215 2.158 4.905 2.838.842.338 1.892.662 3.022.71 1.172.051 2.702-.192 4.02-1.314l-5.18-6.095c.666-.567 1.34-.59 1.506-.583.125.006.02.022-.384-.141-.803-.323-1.93-.993-3.25-1.932-2.693-1.917-4.943-4.008-5.994-4.855l-5.02 6.228zm18.323 7.378c1.206-1.025 2.05-2.345 2.65-3.525.617-1.215 1.102-2.532 1.487-3.77.764-2.453 1.265-5.027 1.573-6.474l-7.824-1.668c-.35 1.64-.761 3.754-1.387 5.763-.309.992-.638 1.85-.98 2.523-.36.708-.625.992-.7 1.056l5.18 6.095zm5.71-13.77c1.26-5.907 1.612-11.919 1.77-17.716.16-5.92.12-11.43.53-16.931l-7.979-.594c-.427 5.747-.398 11.754-.549 17.307-.154 5.676-.494 11.095-1.596 16.267l7.824 1.668zm2.3-34.647c.922-12.411 2.556-24.719 3.96-37.31 1.396-12.52 2.55-25.208 2.44-38.022l-8 .07c.106 12.32-1.003 24.622-2.39 37.065-1.38 12.371-3.051 24.997-3.989 37.603l7.978.594zm6.4-75.332c-.037-4.183-.658-8.517-.959-12.13l-7.972.664c.36 4.324.897 7.723.93 11.536l8-.07zm-.959-12.13c-.05-.606-.1-1.091-.117-1.274-.016-.167-.002-.064-.002.1 0 .058 0 .186-.016.351-.01.111-.05.517-.232 1.005-.108.287-.779 2.014-2.844 2.49-2.001.459-3.341-.726-3.538-.9a3.922 3.922 0 0 1-.885-1.14 1.471 1.471 0 0 1-.01-.022l-.004-.007a.655.655 0 0 1 .009.02l.024.052.078.173c.131.286.335.715.62 1.222l6.973-3.922a8.354 8.354 0 0 1-.32-.633l-.144-.315a4.328 4.328 0 0 0-.363-.648 4.076 4.076 0 0 0-.675-.77c-.204-.181-1.551-1.369-3.557-.908-2.07.476-2.746 2.209-2.857 2.505a4.077 4.077 0 0 0-.259 1.459c0 .267.028.542.035.623.03.313.064.632.112 1.203l7.972-.665zm-6.917 2.07c5.614 9.98 16.067 12.116 25.473 12.538 4.74.212 9.722.001 14.077-.067 4.511-.07 8.381.01 11.522.653l1.607-7.836c-4.088-.84-8.75-.886-13.254-.816-4.66.073-9.175.272-13.594.074-8.913-.4-15.426-2.366-18.858-8.468l-6.973 3.922zm51.072 13.124c-.082-.016-.009-.003.504.178.383.136.96.344 1.54.521.56.172 1.328.38 2.132.463.623.063 2.23.17 3.699-.859l-4.588-6.554a3.033 3.033 0 0 1 1.303-.529 2.091 2.091 0 0 1 .396-.017c.008 0-.042-.005-.161-.032a6.728 6.728 0 0 1-.44-.121c-.375-.115-.755-.252-1.216-.415-.211-.074-.455-.16-.688-.235a8.388 8.388 0 0 0-.874-.236l-1.607 7.836zm7.875.303c1.533-1.073 1.967-2.654 2.071-3.639.103-.974-.043-1.893-.197-2.572-.313-1.39-.925-2.885-1.498-4.134a61.747 61.747 0 0 0-1.782-3.534c-.263-.486-.502-.918-.676-1.236-.209-.38-.268-.493-.265-.487l-7.228 3.429c.18.378.724 1.344 1.13 2.097.493.913 1.06 2 1.55 3.066.511 1.115.84 2.001.966 2.56.067.296.016.244.044-.027.03-.282.22-1.323 1.297-2.077l4.588 6.554zm-2.347-15.602c-10.127-21.35-21.662-43.93-35.826-63.364l-6.465 4.712c13.7 18.797 24.973 40.809 35.063 62.08l7.228-3.428zm-35.826-63.364c-1.383-1.898-3.178-4.05-4.85-6.125-1.726-2.143-3.42-4.318-4.845-6.513-2.994-4.611-4.087-8.23-3.175-11.055l-7.613-2.458c-2.113 6.545.902 12.977 4.079 17.87 1.66 2.556 3.569 4.996 5.325 7.176 1.813 2.249 3.383 4.128 4.614 5.817l6.465-4.712zm-12.87-23.693c3.014-9.334 7.89-18.007 13.117-27.006 5.158-8.882 10.687-18.129 14.483-28.137l-7.48-2.838c-3.514 9.264-8.655 17.888-13.921 26.957-5.198 8.952-10.5 18.31-13.812 28.566l7.613 2.458zm27.6-55.143c1.266-3.338 2.763-6.57 4.343-9.89 1.561-3.28 3.227-6.692 4.71-10.19l-7.364-3.123c-1.397 3.293-2.959 6.491-4.57 9.874-1.59 3.343-3.209 6.827-4.599 10.491l7.48 2.838zm9.054-20.08c.31-.73.604-1.73.501-2.87a4.853 4.853 0 0 0-1.655-3.253c-.851-.74-1.787-1.047-2.431-1.189a8.044 8.044 0 0 0-1.82-.17c-1.84.024-4.094.613-4.383.674l1.655 7.827c.582-.123.8-.192 1.483-.325.579-.113 1.045-.172 1.348-.176.148-.002.13.012.001-.016-.105-.023-.583-.138-1.1-.587a3.147 3.147 0 0 1-1.066-2.07c-.03-.328.004-.583.036-.736.03-.151.066-.232.066-.232l7.365 3.124zm-9.788-6.808c-11.138 2.356-21.878 7.58-31.417 12.203l3.489 7.199c9.713-4.707 19.567-9.456 29.583-11.575l-1.655-7.827zm-31.417 12.203c-17.13 8.3-36.31 17.094-51.821 29.596l5.02 6.229c14.636-11.797 32.832-20.166 50.29-28.626l-3.489-7.2zm-51.821 29.596c-.348.28-.754.722-.916.897a90.382 90.382 0 0 0-3.35 3.856c-.367.449-.725.904-1.017 1.306-.145.2-.302.426-.446.657-.088.143-.379.609-.562 1.2-.055.182-.374 1.168-.026 2.367a4.035 4.035 0 0 0 3.715 2.91c.958.039 1.675-.277 1.852-.354.289-.126.521-.264.666-.354.519-.325 1.104-.81 1.663-1.297l-5.25-6.036c-.566.493-.73.597-.661.554.031-.02.17-.107.384-.2.1-.044.76-.345 1.675-.307a3.965 3.965 0 0 1 3.639 2.855c.338 1.166.025 2.102-.011 2.219a3.285 3.285 0 0 1-.283.656l.027-.04c.022-.033.052-.075.092-.13.166-.23.42-.554.745-.954a82.461 82.461 0 0 1 3.005-3.459c.336-.362.287-.285.079-.117l-5.02-6.229zm1.58 11.188c2.655-2.31 4.468-5.291 5.867-8.021.707-1.379 1.352-2.783 1.943-4.066.606-1.314 1.153-2.495 1.72-3.576l-7.088-3.71c-.675 1.288-1.305 2.652-1.897 3.937-.607 1.316-1.18 2.563-1.797 3.765-1.247 2.433-2.5 4.331-3.998 5.635l5.25 6.036zm9.53-15.663c4.027-7.694 7.595-15.428 11.06-23.298l-7.32-3.225c-3.433 7.794-6.92 15.345-10.828 22.813l7.087 3.71zm11.06-23.298c8.15-18.504 14.323-37.046 23.882-54.04l-6.973-3.922c-9.789 17.402-16.499 37.182-24.23 54.737l7.322 3.225zm23.882-54.04c.453-.807 1.049-1.933 1.237-3.067.09-.548.249-2.01-.76-3.395-1.124-1.545-2.758-1.76-3.502-1.765a5.786 5.786 0 0 0-1.715.27c-.392.118-.772.266-1.09.399-.59.244-1.394.616-1.997.883l3.236 7.316c.843-.373 1.337-.607 1.824-.81.22-.09.323-.125.348-.133.081-.024-.2.078-.668.075a3.664 3.664 0 0 1-2.903-1.526c-.89-1.221-.697-2.432-.665-2.624.05-.302.124-.424.051-.257-.057.129-.169.356-.369.712l6.973 3.922zm-7.827-6.675c-9.513 4.208-18.921 8.418-28.472 12.22l2.958 7.432c9.724-3.87 19.293-8.153 28.75-12.336l-3.236-7.316zm-28.472 12.22c-7.93 3.156-15.934 6.099-24.003 9.1-8.05 2.993-16.148 6.038-24.163 9.366l3.068 7.388c7.863-3.264 15.837-6.264 23.883-9.256 8.026-2.985 16.138-5.967 24.173-9.166l-2.958-7.433zm-48.166 18.466c-5.144 2.136-10.752 4.967-15.831 7.262-5.275 2.383-10.389 4.393-15.42 5.399l1.57 7.844c5.939-1.187 11.716-3.5 17.143-5.953 5.624-2.54 10.53-5.056 15.606-7.164l-3.068-7.388zm-31.25 12.66c-.074.015.457-.107 1.158.28.73.402.993.995 1.053 1.172.03.089-.082-.409.166-1.833.215-1.232.597-2.62.99-3.912.325-1.069.807-2.513.966-3.156l-7.765-1.923c-.098.396-.365 1.144-.854 2.748-.42 1.381-.918 3.145-1.218 4.87-.267 1.532-.532 3.795.138 5.773.38 1.121 1.162 2.44 2.661 3.267 1.47.81 3.021.81 4.273.56l-1.568-7.845zm4.333-7.449c2.664-10.76 6.529-22.305 7.44-34.326l-7.978-.604c-.843 11.13-4.35 21.388-7.227 33.007l7.765 1.923zm7.44-34.326c.258-3.41-.593-11.08-2.796-17.27-1.087-3.053-2.718-6.384-5.236-8.536-1.329-1.136-3.006-2.027-5.013-2.24-2.013-.212-3.969.3-5.775 1.303l3.885 6.993c.666-.37.982-.347 1.048-.34.072.008.282.044.657.366.893.763 1.945 2.465 2.897 5.138 1.873 5.262 2.52 11.812 2.355 13.982l7.978.604zm-18.82-26.743c-3.563 1.979-6.443 4.937-8.872 7.64-2.587 2.88-4.58 5.355-6.843 7.367l5.315 5.98c2.71-2.41 5.28-5.553 7.48-8.001 2.358-2.625 4.49-4.707 6.805-5.993l-3.885-6.993zm-15.715 15.007c-16.263 14.456-34.67 27.484-52.78 39.975l4.541 6.585c18.115-12.492 36.886-25.765 53.554-40.58l-5.315-5.98zm-52.78 39.975c-1.513 1.043-3.76 2.767-6.19 3.92-1.2.57-2.136.84-2.777.888-.294.022-.442-.01-.487-.023-.026-.008-.025-.008-.042-.024l-5.467 5.84c2.008 1.88 4.456 2.344 6.59 2.185 2.041-.152 4-.873 5.612-1.638 3.192-1.515 6.231-3.824 7.302-4.563l-4.542-6.585zm-9.496 4.761c-.74-.693-1.517-1.996-2.189-4.124-.656-2.077-1.103-4.587-1.429-7.325-.324-2.728-.51-5.523-.695-8.19-.179-2.582-.362-5.17-.696-7.201l-7.894 1.298c.26 1.583.422 3.757.609 6.455.18 2.615.38 5.62.732 8.583.351 2.953.871 6.024 1.744 8.789.857 2.714 2.17 5.513 4.35 7.555l5.468-5.84zm-5.009-26.84c-1.59-9.67-4.279-18.81-7.642-27.856l-7.498 2.788c3.234 8.7 5.76 17.332 7.246 26.366l7.894-1.298zm-7.642-27.856c-1.792-4.82-4.674-11.797-12.253-14.1l-2.326 7.655c3.427 1.04 5.203 4.184 7.08 9.233l7.499-2.788zm-12.253-14.1c-3.844-1.168-8.208-.127-11.529 1.012-3.504 1.2-6.868 2.89-9.016 3.951l3.542 7.173c2.242-1.107 5.137-2.552 8.068-3.557 3.114-1.067 5.361-1.304 6.61-.924l2.325-7.655zm-20.545 4.963c-14.107 6.967-27.64 17.342-40.035 25.78l4.501 6.613c12.946-8.812 25.634-18.582 39.076-25.22l-3.542-7.173zm-40.035 25.78c-15.399 10.482-31.18 22.742-43.804 37.049l5.998 5.293c11.986-13.584 27.147-25.409 42.307-35.729l-4.501-6.613zm-43.804 37.049c-.288.326-.514.574-.687.757a10.019 10.019 0 0 1-.28.284l-.005.005.007-.006.022-.02c.02-.015.056-.045.109-.084.047-.035.352-.264.826-.446.172-.065 2.235-.875 4.053.766a3.96 3.96 0 0 1 1.239 2.209c.1.534.065.963.04 1.176-.052.425-.163.723-.184.78a2.36 2.36 0 0 1-.065.159l.028-.054.09-.164c.166-.29.42-.705.748-1.219.65-1.017 1.48-2.252 2.205-3.321.68-1.002 1.348-1.974 1.554-2.295l-6.736-4.316c-.13.204-.662.975-1.438 2.119-.73 1.076-1.613 2.39-2.326 3.506a37.667 37.667 0 0 0-.96 1.57c-.13.23-.273.492-.397.754-.046.097-.367.738-.462 1.524-.03.244-.064.7.04 1.254a4.04 4.04 0 0 0 1.262 2.256c1.841 1.662 3.945.854 4.173.766a4.49 4.49 0 0 0 1.05-.58c.19-.14.352-.279.474-.388.448-.404 1-.998 1.618-1.699l-5.998-5.293zm9.7-1.473c2.676-4.176 5.272-8.918 5.99-14.662l-7.938-.992c-.49 3.92-2.281 7.426-4.788 11.338l6.736 4.316zm5.99-14.662c.219-1.747.19-3.49-.22-5.078-.412-1.583-1.285-3.278-2.95-4.4-3.611-2.435-7.654-.47-10.268 1.657l5.05 6.205a7.307 7.307 0 0 1 1.078-.747 2.28 2.28 0 0 1 .514-.222c.057-.014-.024.015-.206-.01a1.547 1.547 0 0 1-.64-.25c-.43-.29-.41-.562-.323-.224.04.155.083.403.096.762a8.27 8.27 0 0 1-.069 1.315l7.938.992zm-13.438-7.82c-2.943 2.394-5.702 5.006-8.346 7.566-2.68 2.596-5.206 5.103-7.843 7.478-5.25 4.727-10.535 8.545-16.88 10.448l2.299 7.663c8.018-2.405 14.354-7.14 19.935-12.167 2.779-2.502 5.47-5.173 8.055-7.675 2.62-2.538 5.171-4.945 7.83-7.11l-5.05-6.204zM310 531.862zm9.6-26.624h40.064v4.352H319.6v-4.352zm-6.4 19.776h52.48v4.352H313.2v-4.352zm23.488-17.152H342v18.496h-5.312v-18.496zm-17.088-24h5.376v23.232H319.6v-23.232zm47.803 48zm9.045.432c-1.242 0-2.31-.44-3.204-1.319-.894-.894-1.341-1.97-1.341-3.227 0-1.242.447-2.303 1.34-3.182.895-.894 1.963-1.34 3.205-1.34 1.243 0 2.311.446 3.205 1.34.894.88 1.34 1.94 1.34 3.182 0 .833-.211 1.599-.635 2.296a4.7 4.7 0 0 1-1.637 1.636c-.682.41-1.44.614-2.273.614zm7.608-.432zm9.045.432c-1.242 0-2.31-.44-3.204-1.319-.894-.894-1.341-1.97-1.341-3.227 0-1.242.447-2.303 1.34-3.182.895-.894 1.963-1.34 3.205-1.34 1.243 0 2.311.446 3.205 1.34.894.88 1.34 1.94 1.34 3.182 0 .833-.211 1.599-.635 2.296a4.7 4.7 0 0 1-1.637 1.636c-.682.41-1.44.614-2.273.614zm22.323-.432zm10.305-37.184h39.232v4.352h-39.233v-4.352zm0-14.656h5.248v16.768h-5.248v-16.768zm-7.104 26.56h52.351v4.352h-52.351v-4.352zm23.552-9.472h5.247v11.648h-5.247V497.11zm-16.833 19.392h38.977v19.584h-38.977v-19.584zm33.857 4.288h-28.673v10.944h28.673V520.79zm13.626 11.072zm45.249-52.928h5.312v57.984h-5.313v-57.984zm-25.216 4.48c2.858 0 5.375.832 7.551 2.496 2.22 1.621 3.947 3.946 5.185 6.976 1.28 3.03 1.92 6.592 1.92 10.688 0 4.096-.64 7.658-1.92 10.688-1.238 3.03-2.966 5.376-5.185 7.04-2.175 1.664-4.693 2.496-7.551 2.496-2.86 0-5.398-.832-7.616-2.496-2.22-1.664-3.969-4.01-5.249-7.04-1.237-3.03-1.856-6.592-1.856-10.688 0-4.096.62-7.659 1.856-10.688 1.28-3.03 3.03-5.355 5.249-6.976 2.218-1.664 4.757-2.496 7.615-2.496zm0 4.736c-1.92 0-3.606.64-5.057 1.92-1.408 1.237-2.517 3.03-3.327 5.376-.811 2.304-1.216 5.013-1.216 8.128 0 3.114.405 5.845 1.216 8.192.81 2.304 1.92 4.096 3.327 5.376 1.451 1.28 3.137 1.92 5.057 1.92 1.877 0 3.52-.64 4.928-1.92 1.45-1.28 2.58-3.072 3.391-5.376.811-2.347 1.217-5.078 1.217-8.192 0-3.115-.406-5.824-1.217-8.128-.81-2.347-1.94-4.139-3.391-5.376-1.409-1.28-3.051-1.92-4.928-1.92zM310 627.862zm26.688-20.224h5.248v14.4h-5.248v-14.4zm2.624-28.928c4.096 0 7.723.64 10.88 1.92 3.157 1.237 5.632 2.986 7.424 5.248 1.835 2.261 2.752 4.928 2.752 8s-.917 5.76-2.752 8.064c-1.792 2.261-4.267 4.01-7.424 5.248-3.157 1.237-6.784 1.856-10.88 1.856-4.053 0-7.68-.619-10.88-1.856-3.157-1.238-5.632-2.987-7.424-5.248-1.792-2.304-2.688-4.992-2.688-8.064s.896-5.739 2.688-8c1.792-2.262 4.267-4.01 7.424-5.248 3.2-1.28 6.827-1.92 10.88-1.92zm0 4.288c-3.072 0-5.803.448-8.192 1.344-2.39.896-4.267 2.176-5.632 3.84-1.365 1.621-2.048 3.52-2.048 5.696 0 2.176.683 4.096 2.048 5.76 1.365 1.664 3.243 2.944 5.632 3.84 2.39.896 5.12 1.344 8.192 1.344s5.803-.448 8.192-1.344c2.39-.896 4.267-2.176 5.632-3.84 1.408-1.664 2.112-3.584 2.112-5.76 0-2.176-.704-4.075-2.112-5.696-1.365-1.664-3.243-2.944-5.632-3.84-2.39-.896-5.12-1.344-8.192-1.344zM313.2 621.014h52.48v4.416H313.2v-4.416zm54.203 6.848zm8.768-47.104h37.248v4.352h-37.248v-4.352zm-5.568 39.552h52.288v4.416h-52.288v-4.416zm20.352-20.672h5.248v22.912h-5.248v-22.912zm20.416-18.88h5.312v5.696c0 2.39-.043 4.906-.128 7.552-.043 2.645-.213 5.546-.512 8.704-.256 3.157-.747 6.677-1.472 10.56l-5.376-.64c1.11-5.547 1.75-10.41 1.92-14.592.17-4.224.256-8.086.256-11.584v-5.696zm28.9 47.104zm17.6-17.28h4.16v3.072c0 2.517-.512 4.992-1.536 7.424-1.024 2.432-2.517 4.608-4.48 6.528-1.92 1.92-4.288 3.392-7.103 4.416l-2.624-3.904c2.432-.896 4.5-2.134 6.207-3.712 1.75-1.579 3.072-3.286 3.969-5.12.938-1.878 1.407-3.755 1.407-5.632v-3.072zm1.216 0h3.904v3.072c0 1.962.385 3.904 1.153 5.824.767 1.92 1.92 3.67 3.456 5.248 1.578 1.578 3.498 2.837 5.76 3.776l-2.177 4.032c-2.815-1.11-5.12-2.646-6.911-4.608a19.428 19.428 0 0 1-3.904-6.656c-.854-2.518-1.28-5.056-1.28-7.616v-3.072zm20.225 0h3.904v3.072c0 2.261-.448 4.63-1.345 7.104-.853 2.474-2.175 4.778-3.967 6.912-1.75 2.09-3.99 3.712-6.72 4.864l-2.305-4.032c2.304-1.067 4.224-2.432 5.76-4.096 1.536-1.707 2.688-3.499 3.457-5.376.81-1.92 1.216-3.712 1.216-5.376v-3.072zm1.024 0h4.16v3.072c0 2.005.447 3.946 1.344 5.824.938 1.877 2.26 3.584 3.968 5.12 1.749 1.493 3.84 2.666 6.272 3.52l-2.624 3.904c-2.816-1.024-5.206-2.454-7.168-4.288-1.963-1.878-3.457-4.01-4.48-6.4a20.33 20.33 0 0 1-1.472-7.68v-3.072zm5.247-35.584h5.313v33.024h-5.313v-33.024zm-25.728 3.328c2.944 0 5.547.576 7.808 1.728 2.262 1.152 4.033 2.752 5.313 4.8 1.322 2.005 1.983 4.352 1.983 7.04 0 2.645-.66 4.97-1.983 6.976-1.28 2.005-3.051 3.584-5.313 4.736-2.26 1.152-4.864 1.728-7.808 1.728-2.9 0-5.504-.576-7.808-1.728-2.26-1.152-4.053-2.73-5.375-4.736-1.28-2.006-1.92-4.33-1.92-6.976 0-2.688.64-5.035 1.92-7.04 1.322-2.048 3.114-3.648 5.375-4.8 2.304-1.152 4.907-1.728 7.808-1.728zm0 4.48c-1.877 0-3.562.384-5.056 1.152-1.493.768-2.688 1.834-3.583 3.2-.854 1.322-1.28 2.901-1.28 4.736 0 1.792.426 3.37 1.28 4.736.895 1.322 2.09 2.368 3.583 3.136 1.494.768 3.18 1.152 5.057 1.152 1.92 0 3.626-.384 5.12-1.152 1.493-.768 2.666-1.814 3.52-3.136.853-1.366 1.28-2.944 1.28-4.736 0-1.835-.427-3.414-1.28-4.736-.854-1.366-2.027-2.432-3.52-3.2-1.494-.768-3.2-1.152-5.12-1.152zm37.82 45.056zm18.623-48.448c2.817 0 5.313.832 7.488 2.496 2.177 1.621 3.862 3.946 5.057 6.976 1.237 3.03 1.856 6.592 1.856 10.688 0 4.096-.62 7.658-1.856 10.688-1.195 3.03-2.88 5.376-5.057 7.04-2.175 1.664-4.671 2.496-7.487 2.496-2.774 0-5.27-.832-7.488-2.496-2.177-1.664-3.883-4.01-5.12-7.04-1.195-3.03-1.792-6.592-1.792-10.688 0-4.096.597-7.659 1.791-10.688 1.238-3.03 2.944-5.355 5.12-6.976 2.22-1.664 4.715-2.496 7.488-2.496zm0 4.736c-1.834 0-3.456.64-4.863 1.92-1.409 1.237-2.518 3.03-3.329 5.376-.767 2.304-1.151 5.013-1.151 8.128 0 3.114.384 5.845 1.151 8.192.811 2.304 1.92 4.096 3.329 5.376 1.407 1.28 3.029 1.92 4.863 1.92 1.878 0 3.52-.64 4.928-1.92 1.409-1.28 2.496-3.072 3.265-5.376.81-2.347 1.216-5.078 1.216-8.192 0-3.115-.406-5.824-1.216-8.128-.769-2.347-1.856-4.139-3.264-5.376-1.409-1.28-3.051-1.92-4.928-1.92zm26.945-9.216h5.248v57.984h-5.248v-57.984zm-14.273 22.08h16.64v4.288h-16.64v-4.288zm26.107 30.848zm13.137-46.546-.591 33.16h-6.296l-.59-33.16h7.477zm-3.727 46.978c-1.258 0-2.334-.44-3.228-1.319-.894-.894-1.333-1.97-1.318-3.227-.015-1.242.424-2.303 1.318-3.182.894-.894 1.97-1.34 3.228-1.34 1.227 0 2.287.446 3.181 1.34.894.88 1.349 1.94 1.364 3.182a4.494 4.494 0 0 1-.659 2.296 4.7 4.7 0 0 1-1.636 1.636 4.291 4.291 0 0 1-2.25.614z" fill="#1e1e1e"/><use xlink:href="#a" transform="matrix(64 0 0 -64 310 531.862)"/><use xlink:href="#b" transform="matrix(64 0 0 -64 367.403 531.862)"/><use xlink:href="#b" transform="matrix(64 0 0 -64 384.054 531.862)"/><use xlink:href="#c" transform="matrix(64 0 0 -64 399.956 531.862)"/><use xlink:href="#d" transform="matrix(64 0 0 -64 415.363 531.862)"/><use xlink:href="#e" transform="matrix(64 0 0 -64 472.766 531.862)"/><use xlink:href="#f" transform="matrix(64 0 0 -64 310 627.862)"/><use xlink:href="#g" transform="matrix(64 0 0 -64 367.403 627.862)"/><use xlink:href="#c" transform="matrix(64 0 0 -64 424.806 627.862)"/><use xlink:href="#h" transform="matrix(64 0 0 -64 440.213 627.862)"/><use xlink:href="#i" transform="matrix(64 0 0 -64 497.616 627.862)"/><use xlink:href="#j" transform="matrix(64 0 0 -64 555.019 627.862)"/><path d="M1270 388.316zm42.12-77.064h7.592v2.808c0 3.952-.97 7.592-2.912 10.92-1.941 3.328-4.61 6.31-8.008 8.944-3.328 2.566-7.176 4.715-11.544 6.448-4.299 1.664-8.875 2.843-13.728 3.536l-3.224-6.864a63.212 63.212 0 0 0 9.672-2.184c3.19-.97 6.101-2.149 8.736-3.536 2.635-1.456 4.957-3.085 6.968-4.888 2.01-1.802 3.57-3.744 4.68-5.824 1.179-2.08 1.768-4.264 1.768-6.552v-2.808zm3.536 0h7.592v2.808c0 2.219.555 4.368 1.664 6.448 1.179 2.08 2.773 4.056 4.784 5.928 2.01 1.803 4.333 3.432 6.968 4.888 2.704 1.387 5.616 2.566 8.736 3.536 3.12.971 6.344 1.699 9.672 2.184l-3.224 6.864c-4.784-.693-9.36-1.872-13.728-3.536-4.368-1.733-8.216-3.882-11.544-6.448-3.328-2.634-5.997-5.616-8.008-8.944-1.941-3.328-2.912-6.968-2.912-10.92v-2.808zM1283 306.988h69.472v6.968H1283v-6.968zm-7.904 43.68h85.28v7.072h-85.28v-7.072zm38.896 4.472h8.632v21.632h-8.632V355.14zm-28.08 32.136h65v7.072h-65v-7.072zm0-19.656h8.632v22.256h-8.632V367.62zm77.368 20.696zm73.528-86.008h8.632v94.224h-8.632v-94.224zm-63.024 8.008h8.632v24.752h27.144v-24.752h8.528v63.544h-44.304v-63.544zm8.632 31.616v24.752h27.144v-24.752h-27.144zm74.144 46.384zm4.992-69.888h46.696v7.072h-46.696v-7.072zm23.4 13.312c3.952 0 7.418.902 10.4 2.704 3.05 1.803 5.442 4.334 7.176 7.592 1.733 3.19 2.6 6.899 2.6 11.128 0 4.23-.867 7.974-2.6 11.232-1.734 3.19-4.126 5.72-7.176 7.592-2.982 1.803-6.448 2.704-10.4 2.704-3.883 0-7.35-.901-10.4-2.704-3.05-1.872-5.443-4.402-7.176-7.592-1.734-3.258-2.6-7.002-2.6-11.232 0-4.229.866-7.938 2.6-11.128 1.733-3.189 4.125-5.685 7.176-7.488 3.05-1.872 6.517-2.808 10.4-2.808zm0 7.28c-2.358 0-4.507.624-6.448 1.872-1.872 1.179-3.363 2.843-4.472 4.992-1.04 2.08-1.56 4.507-1.56 7.28 0 2.774.52 5.235 1.56 7.384 1.11 2.15 2.6 3.814 4.472 4.992 1.941 1.179 4.09 1.768 6.448 1.768 2.426 0 4.576-.589 6.448-1.768 1.872-1.178 3.328-2.842 4.368-4.992 1.11-2.149 1.664-4.61 1.664-7.384 0-2.773-.555-5.2-1.664-7.28-1.04-2.149-2.496-3.813-4.368-4.992-1.872-1.248-4.022-1.872-6.448-1.872zm48.152-36.712h8.216v94.12h-8.216v-94.12zm-15.08 39.624h17.784v7.072h-17.784v-7.072zm-5.096-37.44h8.112v87.36h-8.112v-87.36zm-32.24.624h8.528v17.576h-8.528v-17.576zm69.152 83.2zm21.346-75.636-.96 53.883h-10.23l-.96-53.883h12.15zm-6.057 76.338c-2.043 0-3.791-.714-5.244-2.142-1.453-1.453-2.167-3.2-2.142-5.244-.025-2.02.69-3.743 2.142-5.17 1.453-1.453 3.2-2.18 5.244-2.18 1.995 0 3.718.727 5.17 2.18 1.454 1.427 2.192 3.15 2.217 5.17a7.301 7.301 0 0 1-1.071 3.73 7.638 7.638 0 0 1-2.66 2.659 6.973 6.973 0 0 1-3.656.997z" fill="#1e1e1e"/><use xlink:href="#k" transform="matrix(104.00001 0 0 -104.00001 1270 388.316)"/><use xlink:href="#l" transform="matrix(104.00001 0 0 -104.00001 1363.28 388.316)"/><use xlink:href="#m" transform="matrix(104.00001 0 0 -104.00001 1456.56 388.316)"/><use xlink:href="#j" transform="matrix(104.00001 0 0 -104.00001 1549.84 388.316)"/><path d="M449.211 316.712a4 4 0 1 0 3.578-7.155l-3.578 7.155zm-1.544-5.577 1.43-3.736-1.43 3.736zm46.889 13.222-1.12 3.84 1.12-3.84zm64.777 10.555-.211 3.995.211-3.995zm13.839 1.394a4 4 0 1 0 5.656 5.657l-5.656-5.657zm-120.383-26.75c-.598-.298-2.172-1.073-3.215-1.628a16.72 16.72 0 0 1-.553-.305c-.059-.035-.056-.035-.017-.008.02.012.082.055.167.122.049.038.28.218.529.51a3.986 3.986 0 0 1 .738 3.844 3.989 3.989 0 0 1-3.624 2.714c-.451.017-.79-.052-.85-.064a2.751 2.751 0 0 1-.214-.05c-.036-.01.083.025.486.179l2.861-7.47a14.432 14.432 0 0 0-1.19-.413c-.003 0-.64-.204-1.384-.176a4.011 4.011 0 0 0-2.91 6.627c.422.495.907.802.926.814.155.104.31.198.432.27.253.149.552.311.844.467 1.162.619 2.886 1.468 3.396 1.723l3.578-7.155zm-6.553 5.314c7.694 2.947 15.757 5.177 23.723 7.216 8.039 2.056 15.876 3.894 23.477 6.11l2.24-7.68c-7.77-2.265-15.906-4.178-23.734-6.18-7.901-2.022-15.598-4.161-22.845-6.937l-2.86 7.471zm47.2 13.327c22.039 6.428 42.883 9.503 65.686 10.71l.423-7.99c-22.304-1.18-42.524-4.175-63.87-10.4l-2.24 7.68zm65.686 10.71.266.02a126.094 126.094 0 0 1 2.9.295c1.764.2 3.967.485 6.039.838 2.147.365 3.886.76 4.868 1.127.636.236.332.238-.107-.242a3.386 3.386 0 0 1-.854-2.357 3.345 3.345 0 0 1 .938-2.282l5.656 5.657c.6-.599 1.369-1.673 1.404-3.192.034-1.52-.686-2.62-1.242-3.227-.958-1.046-2.275-1.583-3.003-1.854-1.742-.65-4.124-1.144-6.318-1.517-4.482-.763-9.421-1.218-10.124-1.255l-.423 7.989zM485 224.134a4 4 0 1 0 8 0h-8zm9.056 0 2.205-3.336-2.205 3.336zm40.166 32.445-2.426 3.18 2.426-3.18zm48 28.889-1.804 3.57 1.804-3.57zm16.56 12.995a4 4 0 1 0 4.437-6.657l-4.438 6.657zM493 224.134c0-.203.025-.134-.045.09-.076.243-.294.758-.843 1.228a3.032 3.032 0 0 1-1.699.721c-.427.036-.7-.042-.732-.052-.03-.008.164.057.664.362.486.297.902.59 1.505.988l4.411-6.673c-.388-.257-1.1-.747-1.746-1.142-.634-.387-1.58-.924-2.626-1.224-.954-.274-3.114-.654-4.978.942-1.703 1.457-1.911 3.546-1.911 4.76h8zm-1.15 3.337c6.968 4.607 13.43 9.968 19.947 15.571 6.463 5.557 13.04 11.407 19.999 16.717l4.853-6.36c-6.718-5.126-13.031-10.744-19.636-16.423-6.551-5.632-13.334-11.275-20.752-16.178l-4.411 6.673zm39.946 32.288c15.022 11.462 32.041 20.9 48.622 29.279l3.608-7.14c-16.438-8.308-32.941-17.484-47.377-28.5l-4.853 6.36zm48.622 29.279c6.672 3.371 12.95 5.816 18.363 9.425l4.438-6.657c-5.923-3.948-13.451-7.007-19.193-9.908l-3.608 7.14zM628 171.134a4 4 0 1 0 8 0h-8zm6.667 15.667-3.955.597 3.955-.597zm8.364 74.83a4 4 0 0 0 7.938-.993l-7.938.993zM636 171.134c0-.033.002.056-.013.204-.007.07-.027.25-.083.485-.023.094-.184.828-.774 1.553a3.986 3.986 0 0 1-4.909 1.032c-1.07-.548-1.549-1.414-1.592-1.487a3.686 3.686 0 0 1-.33-.719c-.022-.065.034.134.163.817.223 1.185.532 3.065.855 5.12.643 4.102 1.301 8.643 1.395 9.26l7.91-1.195c-.08-.533-.755-5.181-1.402-9.304-.323-2.056-.648-4.046-.897-5.366-.108-.568-.248-1.279-.406-1.772-.025-.077-.154-.499-.423-.948-.056-.094-.547-.975-1.629-1.528a4.011 4.011 0 0 0-4.939 1.04c-.6.736-.768 1.49-.798 1.613a4.42 4.42 0 0 0-.1.598 5.997 5.997 0 0 0-.028.597h8zm-5.288 16.264c1.887 12.498 4.205 24.92 6.422 37.242 2.224 12.352 4.352 24.631 5.897 36.99l7.938-.992c-1.574-12.589-3.735-25.05-5.961-37.415-2.231-12.394-4.52-24.664-6.386-37.02l-7.91 1.195z" fill="#1e1e1e"/></svg>