<svg width="1600" height="900" viewBox="0 0 1600 900" fill="none" xmlns="http://www.w3.org/2000/svg">
<g clip-path="url(#clip0_2_415)">
<rect width="1600" height="900" fill="white"/>
<path d="M475.562 328.389C469.459 328.389 478.948 323.843 480.068 323.428C493.603 318.415 508.932 317.078 523.22 316.555C547.282 315.673 571.583 315.575 595.64 316.555C654.639 318.956 712.992 327.232 771.798 332.122C795.471 334.09 819.21 336.132 842.807 338.859C846.422 339.276 850.006 339.695 853.641 339.86C856.49 339.99 847.936 339.86 845.083 339.86" stroke="#1E1E1E" stroke-width="7.39264" stroke-linecap="round" stroke-linejoin="round"/>
<path d="M586.991 312.822C584.488 312.822 578.334 314.069 576.75 311.957C574.836 309.405 575.485 305.811 576.067 302.899C579.918 283.643 589.132 265.404 597.233 247.639C600.288 240.94 602.759 231.547 607.475 225.699C609.401 223.31 623.752 224.791 626.001 224.652C666.415 222.161 706.497 215.855 746.944 213.773C786.342 211.745 825.626 213.225 864.747 218.234C876.094 219.687 887.965 221.9 898.704 225.927C902.505 227.352 908.075 229.907 909.447 234.165C912.183 242.663 906.031 254.258 903.211 261.704C896.096 280.492 887.22 298.353 879.404 316.828C876.083 324.677 871.394 333.521 870.528 342.182C870.24 345.065 868.047 344.528 865.566 344.776" stroke="#1E1E1E" stroke-width="7.39264" stroke-linecap="round" stroke-linejoin="round"/>
<path d="M582.895 325.931C580.1 325.931 579.181 332.023 578.707 333.761C574.124 350.563 570.608 367.721 568.238 384.969C562.944 423.494 563.053 464.186 568.192 502.726C571.748 529.399 581.102 555.161 598.69 575.875C614.682 594.711 636.369 607.603 659.412 616.023C690.995 627.563 724.293 637.87 756.958 624.535C772.912 618.022 785.069 605.91 795.558 592.581C801.61 584.891 807.815 577.438 812.446 568.774C818.081 558.232 822.117 547.055 826.238 535.864C834.751 512.747 843.111 489.981 848.815 465.947C854.758 440.909 861.501 415.833 866.386 390.568C870.582 368.864 874.262 347.223 879.131 325.658C879.994 321.835 881.48 317.307 877.265 315.052C872.06 312.268 867.616 316.304 863.108 318.557" stroke="#1E1E1E" stroke-width="7.39264" stroke-linecap="round" stroke-linejoin="round"/>
<path d="M658.274 516.018C654.816 512.56 648.303 520.048 647.44 522.846C645.466 529.244 643.336 539.232 645.073 545.833C647.269 554.176 656.114 560.424 664.237 561.673C681.572 564.34 694.98 542.231 694.143 526.942C693.599 517.017 686.932 506.327 676.481 504.911C664.205 503.249 656.333 507.405 647.623 515.199" stroke="#1E1E1E" stroke-width="7.39264" stroke-linecap="round" stroke-linejoin="round"/>
<path d="M659.913 246.456C657.278 247.773 648.326 251.548 655.907 250.916C659.938 250.581 664.663 248.756 667.287 252.692C669.678 256.279 671.196 262.263 668.106 265.938C665.493 269.045 660.53 268.946 657.637 272.037C655.47 274.351 653.008 282.029 657.136 283.644C663.744 286.23 673.673 281.362 679.577 278.41" stroke="#1E1E1E" stroke-width="7.39264" stroke-linecap="round" stroke-linejoin="round"/>
<path d="M694.325 257.926C694.325 255.654 694.401 253.369 694.325 251.099C694.205 247.492 692.707 250.154 693.05 252.646C694.251 261.349 696.023 270.041 697.602 278.683C698.21 282.01 698.88 285.321 699.15 288.697C699.237 289.786 700.218 292.463 699.241 291.974C697.122 290.915 694.536 271.4 696.328 268.76C698.725 265.226 712.069 269.143 715.628 269.397" stroke="#1E1E1E" stroke-width="7.39264" stroke-linecap="round" stroke-linejoin="round"/>
<path d="M732.014 253.01C726.729 247.725 727.399 259.735 734.29 259.019C738.68 258.563 742.251 253.204 740.026 249.096C735.486 240.714 733.298 250.432 732.014 254.649" stroke="#1E1E1E" stroke-width="7.39264" stroke-linecap="round" stroke-linejoin="round"/>
<path d="M723.002 275.952C716.988 275.952 724.817 274.866 726.598 274.723C729.304 274.504 751.586 275.754 752.361 272.265C752.671 270.872 749.18 271.026 748.583 271.036C744.808 271.1 743.752 273.875 742.666 277.135C740.143 284.703 738.193 294.646 746.762 298.074" stroke="#1E1E1E" stroke-width="7.39264" stroke-linecap="round" stroke-linejoin="round"/>
<path d="M776.259 253.83C769.151 249.091 788.281 248.417 791.189 248.14C792.054 248.057 778.882 246.1 777.943 247.821C775.671 251.986 774.536 258.107 773.345 262.66C772.056 267.589 770.675 275.613 773.983 280.048C776.95 284.028 791.826 291.401 791.826 282.506" stroke="#1E1E1E" stroke-width="7.39264" stroke-linecap="round" stroke-linejoin="round"/>
<path d="M780.355 270.217C779.914 270.217 777.47 270.352 778.99 269.761C783.882 267.859 789.249 268.918 794.284 269.397" stroke="#1E1E1E" stroke-width="7.39264" stroke-linecap="round" stroke-linejoin="round"/>
<path d="M800.839 267.758C798.739 267.758 805.145 266.192 805.755 266.165C810.109 265.976 813.57 266.387 816.406 262.842" stroke="#1E1E1E" stroke-width="7.39264" stroke-linecap="round" stroke-linejoin="round"/>
<path d="M818.045 258.746C818.045 255.358 817.748 247.903 818.454 256.242C819.316 266.41 817.463 278.885 822.142 288.242" stroke="#1E1E1E" stroke-width="7.39264" stroke-linecap="round" stroke-linejoin="round"/>
<path d="M654.997 615.977C654.997 613.006 654.843 612.526 651.719 612.7C649.247 612.837 646.279 616.396 644.254 617.661C636.608 622.44 629.522 628.628 623.042 634.868C616.4 641.263 610.843 647.901 605.29 655.214C599.099 663.368 591.324 670.232 585.444 678.611C574.461 694.262 567.002 712.815 559.953 730.503C553.608 746.426 548.17 764.568 568.511 772.107C579.399 776.142 591.884 776.852 603.378 777.387C616.955 778.018 630.482 779.235 644.026 780.3C658.072 781.405 671.918 783.045 686.04 783.122C703.596 783.219 721.115 782.406 738.66 782.303C752.676 782.22 766.904 783.122 780.765 783.122C833.708 783.122 886.647 784.199 939.58 783.942C951.685 783.883 965.336 783.978 973.901 774.11C977.075 770.452 980.51 767.752 982.277 763.094C983.828 759.004 985.226 754.654 986.009 750.349C986.91 745.393 987.67 741.464 984.735 737.194C982.109 733.375 976.424 731.732 972.08 731.049C966.265 730.133 960.065 730.772 954.237 731.14C944.278 731.768 934.35 732.166 924.377 732.505C903.391 733.219 882.475 735.296 861.47 735.555C838.068 735.844 815.05 734.204 791.826 731.549C775.319 729.663 758.902 727.593 742.666 723.948C734.706 722.161 724.558 721.221 717.266 717.575" stroke="#1E1E1E" stroke-width="7.39264" stroke-linecap="round" stroke-linejoin="round"/>
<path d="M767.246 619.255C765.722 619.255 758.101 619.31 763.058 617.434C788.391 607.849 815.493 602.093 842.033 597.132C884.967 589.107 927.736 584.156 971.489 584.933C1003.29 585.499 1040.81 590.17 1068.22 607.966C1072.89 611.002 1078.9 615.985 1079.87 621.895C1080.98 628.689 1072.8 631.953 1067.67 633.639C1053.6 638.263 1037.82 639.359 1023.15 640.375C999.183 642.037 975.065 642.693 951.051 643.38C902.05 644.78 755.096 637.28 804.116 637.28" stroke="#1E1E1E" stroke-width="7.39264" stroke-linecap="round" stroke-linejoin="round"/>
<path d="M1078.59 612.7C1078.59 607.786 1074.83 602.927 1070.04 601.821C1064.79 600.609 1062.32 606.379 1061.16 610.515C1058.89 618.615 1060.19 627.828 1067.53 632.91C1074.95 638.045 1085.56 638.315 1093.8 635.186C1100.55 632.623 1113.01 624.824 1109.27 615.795C1105.99 607.851 1095.25 603.464 1087.24 603.05C1076.05 602.471 1068.1 607.421 1058.93 612.7" stroke="#1E1E1E" stroke-width="7.39264" stroke-linecap="round" stroke-linejoin="round"/>
<path d="M814.768 627.448C814.768 619.048 819.58 643.661 820.321 652.028C822.191 673.149 818.796 695.114 822.961 715.937" stroke="#1E1E1E" stroke-width="7.39264" stroke-linecap="round" stroke-linejoin="round"/>
<path d="M626.32 783.122C618.161 783.122 617.781 798.548 617.125 804.061C613.661 833.18 611.964 864.591 620.584 892.913" stroke="#1E1E1E" stroke-width="7.39264" stroke-linecap="round" stroke-linejoin="round"/>
<path d="M850.818 777.387C850.293 776.862 849.739 776.099 850.409 775.43C851.248 774.591 851.443 777.591 851.683 778.753C852.828 784.285 853.127 789.913 853.231 795.549C853.561 813.389 851.598 831.034 848.451 848.578C845.351 865.866 840.87 882.704 840.167 900.288" stroke="#1E1E1E" stroke-width="7.39264" stroke-linecap="round" stroke-linejoin="round"/>
<path d="M1309.65 473.412C1308.92 472.684 1308.34 471.847 1307.64 471.091C1305.97 469.262 1303.29 476.877 1303.05 477.463C1296.15 494.242 1291.76 512.785 1288.16 530.493C1285 546.021 1280.96 563.755 1288.21 578.743C1294.53 591.809 1309.09 601.251 1323.76 595.585C1329.2 593.482 1333.95 589.413 1338.51 585.889C1345.54 580.448 1352.16 574.867 1356.03 566.68C1365.65 546.324 1372.33 521.938 1371.37 499.267C1370.46 477.78 1357.31 464.939 1337.73 458.664C1329.91 456.157 1322.04 454.046 1314.02 452.292C1311.13 451.66 1308.22 450.756 1305.55 451.29" stroke="#1E1E1E" stroke-width="7.39264" stroke-linecap="round" stroke-linejoin="round"/>
<path d="M1332.59 461.942C1332.59 453.953 1313.86 455.4 1309.56 455.569C1291.06 456.296 1273.1 460.253 1255.21 464.809C1225.27 472.432 1195.54 482.331 1166.31 492.303C1155.03 496.15 1142.24 499.543 1131.76 505.366C1130.79 505.906 1132.86 508.018 1133.49 508.644C1137.98 513.134 1130.39 516.769 1126.48 518.476C1119.83 521.378 1112.71 522.232 1105.72 524.029C1104.48 524.35 1096.93 526.471 1097.62 526.669C1121.77 533.568 1146.46 537.58 1170.18 546.333C1188.37 553.045 1206.21 560.33 1224.12 567.727C1246.81 577.101 1270.31 584.364 1293.4 592.672C1306.92 597.536 1320.49 602.02 1334.41 605.599C1342.99 607.805 1327.64 605.518 1326.03 605.326" stroke="#1E1E1E" stroke-width="7.39264" stroke-linecap="round" stroke-linejoin="round"/>
<path d="M1099.08 534.863C1099.08 533.972 1098.02 530.888 1097.03 530.811C1093.72 530.557 1093.83 553.311 1093.75 555.164C1093.19 568.038 1092.58 581.367 1094.8 594.128C1095.78 599.782 1099.33 607.864 1105.27 609.878C1119.64 614.753 1125.35 590.428 1126.94 581.292C1129.44 566.813 1130.25 552.112 1131.67 537.503C1132.31 530.909 1132.58 524.369 1132.67 517.748C1132.7 515.569 1132.61 514.496 1133.49 512.74" stroke="#1E1E1E" stroke-width="7.39264" stroke-linecap="round" stroke-linejoin="round"/>
<path d="M989.731 744.624C984.536 744.624 985.359 758.14 985.791 761.742C987.247 773.875 1000.57 776.415 1010.47 776.415C1022.95 776.415 1030.64 773.44 1038.23 763.599C1041.18 759.783 1048.94 745.253 1044.3 740.231C1042.27 738.033 1038.71 737.21 1036.01 736.291C1030.04 734.251 1024.56 732.482 1018.17 732.396C1011.4 732.305 1006.81 733.416 1000.69 736.11C995.853 738.238 990.098 743.577 986.289 747.25C983.626 749.818 983.21 750.866 983.21 754.406" stroke="#1E1E1E" stroke-width="7.39264" stroke-linecap="round" stroke-linejoin="round"/>
<path d="M1044.12 143.018C1042.81 143.018 1043.33 144.923 1042.27 145.585C1038.72 147.808 1034.84 147.638 1030.57 147.638C1018.94 147.638 1008.48 146.773 997.096 144.455C995.833 144.198 981.576 141.558 982.414 144.147C989.041 164.633 1000.06 183.524 1008.03 203.442C1008.24 203.968 1005.66 204.913 1005.1 205.342C990.69 216.393 978.508 234.64 970.657 250.622C963.896 264.386 961.852 279.834 954.999 293.54C954.805 293.929 951.002 300.488 951.406 300.83C953.599 302.686 964.278 298.733 966.602 298.263C981.389 295.271 996.856 292.719 1011.98 292.719C1016.37 292.719 1017.32 292.915 1017.32 296.877C1017.32 300.131 1013.63 302.168 1013.63 305.656C1013.63 311.281 1012.3 315.986 1010.7 321.468C1004.2 343.799 997.409 366.739 995.864 390.055C995.527 395.146 995.145 400.249 995.145 405.354C995.145 406.631 993.446 409.627 994.632 409.153C997.72 407.917 1000.72 403.735 1003.26 401.709C1011.66 394.983 1021.46 390.33 1031.34 386.205C1036.58 384.017 1041.62 381.807 1046.48 378.863C1046.58 378.805 1050.49 376.055 1050.49 377.323C1050.49 380.946 1046.85 387.371 1045.76 390.979C1042.12 403.139 1040.13 414.873 1039.71 427.634C1039.28 440.393 1039.45 453.626 1041.55 466.24C1043.31 476.766 1045.45 489.261 1051.62 498.224C1052.91 500.102 1056.84 506.599 1060.04 503.922C1063.25 501.232 1065.85 496.377 1068.05 493.038C1072.84 485.76 1077.4 478.329 1082.21 471.066C1090.16 459.078 1098.68 447.281 1108.65 436.875C1117 428.16 1126.97 417.834 1138.07 412.592C1143.27 410.135 1142.78 412.985 1143.92 418.445C1147.74 436.73 1144.76 456.94 1159.73 471.169C1165.39 476.541 1175.63 481.015 1183.45 481.128C1189.53 481.216 1195.26 473.783 1198.44 469.526C1211.4 452.187 1220.67 432.32 1233.81 415.005C1236.53 411.428 1244.98 397.34 1245.57 407.304C1245.73 409.963 1249.9 413.481 1251.58 415.159C1262.75 426.336 1273.83 435.319 1287.67 443.138C1290.99 445.018 1294.3 447.005 1297.68 448.785C1300.4 450.22 1301.59 440.563 1301.94 439.236C1308.56 414.461 1311.36 388.96 1320.16 364.745C1323.26 356.241 1326.33 361.273 1329.41 367.518C1337.17 383.301 1346.36 394.808 1359.95 405.764C1361.31 406.862 1369.76 414.694 1372.17 412.644C1374.54 410.63 1375.62 404.819 1376.23 401.965C1378.41 391.727 1377.51 380.839 1378.28 370.444C1380 347.326 1384.38 324.363 1384.18 301.138C1384.15 297.444 1383.62 293.87 1383.31 290.203C1383.13 288.028 1383.05 288.614 1383.82 289.998C1392.18 304.859 1415.18 297.576 1428.54 300.317C1429.45 300.504 1432.09 301.791 1432.95 301.189C1434.64 300.007 1430.01 292.331 1429.57 291.384C1420.22 271.691 1409.69 251.087 1396.81 233.423C1391.98 226.794 1381.59 216.874 1384.39 208.217C1390.23 190.113 1403.2 174.893 1409.95 157.084C1412.41 150.614 1415.71 144.672 1418.37 138.397C1419.58 135.557 1414.68 136.916 1413.5 137.165C1403.72 139.233 1394.21 143.841 1385.31 148.151C1369.33 155.896 1352.06 163.826 1338.13 175.052C1337.62 175.468 1330.69 183.342 1334.85 179.724C1338.69 176.385 1340.51 170.704 1342.8 166.325C1346.47 159.32 1349.73 152.258 1352.92 145.02C1360.26 128.359 1366.21 110.653 1375.15 94.7602C1376.89 91.6596 1375.3 92.6031 1372.63 93.7847C1363.87 97.6618 1355.1 101.585 1346.19 105.13C1331.44 111.003 1316.41 116.083 1301.73 122.175C1292.29 126.095 1282.3 132.057 1272.16 134.085C1267.26 135.065 1271.38 124.606 1271.86 122.688C1274.42 112.348 1277.82 102.274 1278.63 91.5772C1279.02 86.4205 1275.86 65.2955 1266.72 70.3747C1261.29 73.3917 1257.46 79.6875 1252.86 83.7739C1237.65 97.2986 1220.47 109.45 1203.73 120.994C1201.34 122.64 1193.96 128.447 1190.33 125.049C1184.93 119.995 1185.68 104.827 1184.58 98.1484C1183.16 89.5064 1180.75 81.2952 1177.7 73.0956C1176.01 68.5361 1173.86 63.8596 1168.77 62.3147C1164.06 60.8852 1156.55 64.6753 1152.5 66.6784C1139.77 72.9643 1127.65 82.272 1115.94 90.2424C1101.82 99.8538 1087.53 110.982 1076.16 123.869C1071.62 129.015 1078.61 119.038 1079.24 118.067C1081.63 114.331 1083.66 110.52 1084.22 106.054C1084.87 100.848 1082.16 98.6009 1077.8 102.153C1067.45 110.578 1059.24 122.402 1045.97 126.384" stroke="#1E1E1E" stroke-width="7.39264" stroke-linecap="round" stroke-linejoin="round"/>
<path d="M174.871 409.293H211.893V413.314H174.871V409.293ZM168.957 427.567H217.453V431.589H168.957V427.567ZM190.662 411.718H195.571V428.809H190.662V411.718ZM174.871 389.54H179.839V411.008H174.871V389.54ZM227.266 434.664C226.201 434.664 225.274 434.29 224.486 433.541C223.737 432.752 223.362 431.766 223.362 430.584C223.362 429.322 223.737 428.317 224.486 427.567C225.274 426.818 226.201 426.444 227.266 426.444C228.33 426.444 229.237 426.818 229.986 427.567C230.775 428.317 231.169 429.322 231.169 430.584C231.169 431.766 230.775 432.752 229.986 433.541C229.237 434.29 228.33 434.664 227.266 434.664ZM242.365 434.664C241.301 434.664 240.374 434.29 239.586 433.541C238.837 432.752 238.462 431.766 238.462 430.584C238.462 429.322 238.837 428.317 239.586 427.567C240.374 426.818 241.301 426.444 242.365 426.444C243.43 426.444 244.337 426.818 245.086 427.567C245.875 428.317 246.269 429.322 246.269 430.584C246.269 431.766 245.875 432.752 245.086 433.541C244.337 434.29 243.43 434.664 242.365 434.664ZM270.632 399.535H306.886V403.556H270.632V399.535ZM270.632 385.991H275.482V401.486H270.632V385.991ZM264.067 410.535H312.445V414.556H264.067V410.535ZM285.831 401.782H290.681V412.546H285.831V401.782ZM270.277 419.702H306.294V437.799H270.277V419.702ZM301.563 423.664H275.068V433.777H301.563V423.664ZM355.968 384.986H360.877V438.568H355.968V384.986ZM332.667 389.126C335.308 389.126 337.634 389.895 339.645 391.432C341.695 392.93 343.292 395.079 344.436 397.879C345.618 400.678 346.21 403.97 346.21 407.755C346.21 411.54 345.618 414.832 344.436 417.632C343.292 420.431 341.695 422.6 339.645 424.137C337.634 425.675 335.308 426.444 332.667 426.444C330.025 426.444 327.679 425.675 325.629 424.137C323.579 422.6 321.962 420.431 320.779 417.632C319.636 414.832 319.064 411.54 319.064 407.755C319.064 403.97 319.636 400.678 320.779 397.879C321.962 395.079 323.579 392.93 325.629 391.432C327.679 389.895 330.025 389.126 332.667 389.126ZM332.667 393.502C330.892 393.502 329.335 394.094 327.994 395.276C326.693 396.42 325.668 398.076 324.919 400.244C324.17 402.373 323.795 404.877 323.795 407.755C323.795 410.633 324.17 413.157 324.919 415.325C325.668 417.454 326.693 419.11 327.994 420.293C329.335 421.476 330.892 422.067 332.667 422.067C334.401 422.067 335.919 421.476 337.22 420.293C338.561 419.11 339.606 417.454 340.355 415.325C341.104 413.157 341.479 410.633 341.479 407.755C341.479 404.877 341.104 402.373 340.355 400.244C339.606 398.076 338.561 396.42 337.22 395.276C335.919 394.094 334.401 393.502 332.667 393.502ZM190.662 504.207H195.511V517.514H190.662V504.207ZM193.087 477.475C196.872 477.475 200.223 478.067 203.141 479.249C206.058 480.393 208.345 482.009 210.001 484.099C211.696 486.189 212.544 488.653 212.544 491.492C212.544 494.33 211.696 496.814 210.001 498.943C208.345 501.033 206.058 502.65 203.141 503.793C200.223 504.936 196.872 505.508 193.087 505.508C189.341 505.508 185.99 504.936 183.033 503.793C180.115 502.65 177.828 501.033 176.172 498.943C174.516 496.814 173.688 494.33 173.688 491.492C173.688 488.653 174.516 486.189 176.172 484.099C177.828 482.009 180.115 480.393 183.033 479.249C185.99 478.067 189.341 477.475 193.087 477.475ZM193.087 481.438C190.248 481.438 187.724 481.852 185.517 482.68C183.309 483.508 181.574 484.69 180.312 486.228C179.05 487.726 178.42 489.481 178.42 491.492C178.42 493.502 179.05 495.277 180.312 496.814C181.574 498.352 183.309 499.535 185.517 500.363C187.724 501.191 190.248 501.605 193.087 501.605C195.925 501.605 198.449 501.191 200.657 500.363C202.865 499.535 204.599 498.352 205.861 496.814C207.162 495.277 207.813 493.502 207.813 491.492C207.813 489.481 207.162 487.726 205.861 486.228C204.599 484.69 202.865 483.508 200.657 482.68C198.449 481.852 195.925 481.438 193.087 481.438ZM168.957 516.567H217.453V520.648H168.957V516.567ZM227.147 479.368H261.567V483.389H227.147V479.368ZM222.002 515.917H270.32V519.998H222.002V515.917ZM240.809 496.814H245.658V517.987H240.809V496.814ZM259.675 479.368H264.584V484.631C264.584 486.839 264.544 489.165 264.465 491.61C264.426 494.054 264.268 496.735 263.992 499.653C263.756 502.571 263.302 505.823 262.632 509.411L257.664 508.82C258.689 503.694 259.281 499.2 259.438 495.336C259.596 491.432 259.675 487.864 259.675 484.631V479.368ZM300.219 506.927H304.064V509.766C304.064 512.092 303.59 514.379 302.644 516.627C301.698 518.874 300.318 520.885 298.504 522.659C296.73 524.433 294.542 525.793 291.94 526.74L289.515 523.132C291.762 522.304 293.674 521.161 295.251 519.702C296.868 518.243 298.09 516.666 298.918 514.971C299.786 513.236 300.219 511.501 300.219 509.766V506.927ZM301.343 506.927H304.951V509.766C304.951 511.58 305.305 513.374 306.015 515.148C306.725 516.922 307.789 518.539 309.209 519.998C310.668 521.456 312.442 522.62 314.531 523.487L312.521 527.213C309.918 526.188 307.789 524.768 306.133 522.955C304.517 521.141 303.314 519.091 302.526 516.804C301.737 514.478 301.343 512.132 301.343 509.766V506.927ZM320.032 506.927H323.639V509.766C323.639 511.856 323.225 514.044 322.397 516.331C321.609 518.618 320.386 520.747 318.73 522.718C317.114 524.65 315.044 526.148 312.521 527.213L310.392 523.487C312.521 522.501 314.295 521.24 315.714 519.702C317.134 518.125 318.198 516.469 318.908 514.734C319.657 512.96 320.032 511.304 320.032 509.766V506.927ZM320.978 506.927H324.822V509.766C324.822 511.619 325.236 513.413 326.064 515.148C326.931 516.883 328.154 518.46 329.731 519.879C331.347 521.259 333.279 522.344 335.527 523.132L333.102 526.74C330.5 525.793 328.292 524.473 326.478 522.777C324.664 521.042 323.284 519.071 322.338 516.863C321.431 514.616 320.978 512.25 320.978 509.766V506.927ZM325.827 474.045H330.736V504.562H325.827V474.045ZM302.053 477.12C304.773 477.12 307.178 477.653 309.268 478.717C311.358 479.782 312.994 481.26 314.177 483.153C315.399 485.006 316.01 487.174 316.01 489.658C316.01 492.103 315.399 494.252 314.177 496.105C312.994 497.958 311.358 499.416 309.268 500.481C307.178 501.546 304.773 502.078 302.053 502.078C299.372 502.078 296.967 501.546 294.837 500.481C292.748 499.416 291.092 497.958 289.87 496.105C288.687 494.252 288.095 492.103 288.095 489.658C288.095 487.174 288.687 485.006 289.87 483.153C291.092 481.26 292.748 479.782 294.837 478.717C296.967 477.653 299.372 477.12 302.053 477.12ZM302.053 481.26C300.318 481.26 298.761 481.615 297.381 482.325C296.001 483.034 294.897 484.02 294.069 485.282C293.28 486.504 292.886 487.963 292.886 489.658C292.886 491.314 293.28 492.773 294.069 494.035C294.897 495.257 296.001 496.223 297.381 496.933C298.761 497.642 300.318 497.997 302.053 497.997C303.827 497.997 305.404 497.642 306.784 496.933C308.164 496.223 309.248 495.257 310.037 494.035C310.825 492.773 311.22 491.314 311.22 489.658C311.22 487.963 310.825 486.504 310.037 485.282C309.248 484.02 308.164 483.034 306.784 482.325C305.404 481.615 303.827 481.26 302.053 481.26ZM354.211 478.126C356.813 478.126 359.119 478.895 361.13 480.432C363.141 481.93 364.698 484.079 365.802 486.879C366.946 489.678 367.517 492.97 367.517 496.755C367.517 500.54 366.946 503.832 365.802 506.632C364.698 509.431 363.141 511.6 361.13 513.137C359.119 514.675 356.813 515.444 354.211 515.444C351.648 515.444 349.341 514.675 347.291 513.137C345.28 511.6 343.703 509.431 342.56 506.632C341.456 503.832 340.904 500.54 340.904 496.755C340.904 492.97 341.456 489.678 342.56 486.879C343.703 484.079 345.28 481.93 347.291 480.432C349.341 478.895 351.648 478.126 354.211 478.126ZM354.211 482.502C352.515 482.502 351.017 483.094 349.716 484.276C348.415 485.42 347.39 487.076 346.64 489.244C345.931 491.373 345.576 493.877 345.576 496.755C345.576 499.633 345.931 502.157 346.64 504.325C347.39 506.454 348.415 508.11 349.716 509.293C351.017 510.476 352.515 511.067 354.211 511.067C355.945 511.067 357.463 510.476 358.764 509.293C360.066 508.11 361.071 506.454 361.781 504.325C362.53 502.157 362.904 499.633 362.904 496.755C362.904 493.877 362.53 491.373 361.781 489.244C361.071 487.076 360.066 485.42 358.764 484.276C357.463 483.094 355.945 482.502 354.211 482.502ZM379.109 473.986H383.959V527.568H379.109V473.986ZM365.92 494.389H381.297V498.352H365.92V494.389ZM397.734 509.825L396.965 484.749L396.847 478.599H402.288L402.169 484.749L401.46 509.825H397.734ZM399.567 523.664C398.503 523.664 397.576 523.29 396.787 522.541C396.038 521.752 395.664 520.766 395.664 519.584C395.664 518.322 396.038 517.317 396.787 516.567C397.576 515.818 398.503 515.444 399.567 515.444C400.671 515.444 401.598 515.818 402.347 516.567C403.096 517.317 403.47 518.322 403.47 519.584C403.47 520.766 403.096 521.752 402.347 522.541C401.598 523.29 400.671 523.664 399.567 523.664Z" fill="#1E1E1E"/>
<path d="M1092.04 230.451H1099.05V233.046C1099.05 236.698 1098.16 240.062 1096.36 243.137C1094.57 246.212 1092.1 248.967 1088.96 251.402C1085.89 253.773 1082.33 255.759 1078.3 257.36C1074.32 258.898 1070.09 259.987 1065.61 260.628L1062.63 254.285C1065.71 253.837 1068.69 253.164 1071.57 252.267C1074.52 251.37 1077.21 250.281 1079.64 248.999C1082.08 247.654 1084.22 246.148 1086.08 244.482C1087.94 242.817 1089.38 241.023 1090.4 239.101C1091.49 237.179 1092.04 235.16 1092.04 233.046V230.451ZM1095.31 230.451H1102.32V233.046C1102.32 235.096 1102.83 237.082 1103.86 239.005C1104.95 240.927 1106.42 242.753 1108.28 244.482C1110.14 246.148 1112.28 247.654 1114.72 248.999C1117.22 250.281 1119.91 251.37 1122.79 252.267C1125.68 253.164 1128.65 253.837 1131.73 254.285L1128.75 260.628C1124.33 259.987 1120.1 258.898 1116.06 257.36C1112.03 255.759 1108.47 253.773 1105.4 251.402C1102.32 248.967 1099.86 246.212 1098 243.137C1096.2 240.062 1095.31 236.698 1095.31 233.046V230.451ZM1065.13 226.511H1129.33V232.95H1065.13V226.511ZM1057.83 266.875H1136.63V273.41H1057.83V266.875ZM1093.77 271.007H1101.75V290.997H1093.77V271.007ZM1067.82 300.704H1127.89V307.239H1067.82V300.704ZM1067.82 282.54H1075.8V303.106H1067.82V282.54ZM1207.26 222.186H1215.24V309.257H1207.26V222.186ZM1149.02 229.586H1157V252.459H1182.08V229.586H1189.96V288.306H1149.02V229.586ZM1157 258.802V281.675H1182.08V258.802H1157ZM1230.13 237.082H1273.28V243.618H1230.13V237.082ZM1251.75 249.384C1255.4 249.384 1258.6 250.217 1261.36 251.883C1264.18 253.548 1266.39 255.887 1267.99 258.898C1269.59 261.845 1270.39 265.273 1270.39 269.181C1270.39 273.09 1269.59 276.549 1267.99 279.561C1266.39 282.508 1264.18 284.846 1261.36 286.576C1258.6 288.242 1255.4 289.075 1251.75 289.075C1248.16 289.075 1244.96 288.242 1242.14 286.576C1239.32 284.846 1237.11 282.508 1235.51 279.561C1233.91 276.549 1233.1 273.09 1233.1 269.181C1233.1 265.273 1233.91 261.845 1235.51 258.898C1237.11 255.951 1239.32 253.644 1242.14 251.979C1244.96 250.249 1248.16 249.384 1251.75 249.384ZM1251.75 256.111C1249.57 256.111 1247.58 256.688 1245.79 257.841C1244.06 258.93 1242.68 260.468 1241.66 262.454C1240.7 264.376 1240.22 266.619 1240.22 269.181C1240.22 271.744 1240.7 274.019 1241.66 276.005C1242.68 277.991 1244.06 279.529 1245.79 280.618C1247.58 281.707 1249.57 282.251 1251.75 282.251C1253.99 282.251 1255.98 281.707 1257.71 280.618C1259.44 279.529 1260.78 277.991 1261.74 276.005C1262.77 274.019 1263.28 271.744 1263.28 269.181C1263.28 266.619 1262.77 264.376 1261.74 262.454C1260.78 260.468 1259.44 258.93 1257.71 257.841C1255.98 256.688 1253.99 256.111 1251.75 256.111ZM1296.25 222.186H1303.84V309.161H1296.25V222.186ZM1282.31 258.802H1298.74V265.337H1282.31V258.802ZM1277.6 224.204H1285.1V304.932H1277.6V224.204ZM1247.81 224.781H1255.69V241.023H1247.81V224.781ZM1324.2 280.426L1322.95 239.677L1322.76 229.682H1331.6L1331.41 239.677L1330.26 280.426H1324.2ZM1327.18 302.914C1325.45 302.914 1323.95 302.305 1322.67 301.088C1321.45 299.807 1320.84 298.205 1320.84 296.283C1320.84 294.232 1321.45 292.599 1322.67 291.381C1323.95 290.164 1325.45 289.555 1327.18 289.555C1328.98 289.555 1330.48 290.164 1331.7 291.381C1332.92 292.599 1333.53 294.232 1333.53 296.283C1333.53 298.205 1332.92 299.807 1331.7 301.088C1330.48 302.305 1328.98 302.914 1327.18 302.914Z" fill="#1E1E1E"/>
<path d="M296.295 229.384C295.271 228.872 290.202 226.382 293.215 227.536C307.022 232.823 322.341 235.611 336.544 239.754C356.589 245.6 375.563 248.405 396.404 249.508C397.396 249.561 414.093 251.122 411.805 253.41" stroke="#1E1E1E" stroke-width="7.39264" stroke-linecap="round" stroke-linejoin="round"/>
<path d="M331.41 147.141C331.41 143.773 334.251 145.93 336.082 147.141C349.376 155.928 360.561 167.478 373.199 177.122C386.81 187.507 402.299 196.107 417.555 203.817C423.29 206.716 429.67 209.259 434.907 212.75" stroke="#1E1E1E" stroke-width="7.39264" stroke-linecap="round" stroke-linejoin="round"/>
<path d="M463.554 98.1644C463.554 95.6588 465.857 111.579 466.018 112.642C469.486 135.607 474.533 158.277 477.415 181.332" stroke="#1E1E1E" stroke-width="7.39264" stroke-linecap="round" stroke-linejoin="round"/>
<path d="M609.856 377.612C608.966 377.167 606.904 376.492 606.22 377.612C604.676 380.138 611.729 385.911 613.038 387.438C617.336 392.452 622.23 397.311 628.178 400.375C630.227 401.43 629.53 400.744 628.108 400.27" stroke="#1E1E1E" stroke-width="7.39264" stroke-linecap="round" stroke-linejoin="round"/>
<path d="M618.038 423.557C615.462 423.557 618.46 422.537 619.296 422.298" stroke="#1E1E1E" stroke-width="7.39264" stroke-linecap="round" stroke-linejoin="round"/>
<path d="M692.305 402.158C691.252 402.158 690.326 402.749 689.332 402.997C687.997 403.331 691.2 400.968 692.235 400.06C695.648 397.066 699.108 394.134 702.584 391.214C706.715 387.744 710.796 384.153 714.682 380.41C716.523 378.637 716.764 378.415 715.592 380.759" stroke="#1E1E1E" stroke-width="7.39264" stroke-linecap="round" stroke-linejoin="round"/>
<path d="M703.633 418.522C702.254 418.522 701.565 417.353 700.487 416.634" stroke="#1E1E1E" stroke-width="7.39264" stroke-linecap="round" stroke-linejoin="round"/>
</g>
<defs>
<clipPath id="clip0_2_415">
<rect width="1600" height="900" fill="white"/>
</clipPath>
</defs>
</svg>
