<svg width="1600" height="900" viewBox="0 0 1600 900" fill="none" xmlns="http://www.w3.org/2000/svg">
<g clip-path="url(#clip0_2_549)">
<rect width="1600" height="900" fill="white"/>
<path d="M941.386 199.001C942.464 196.846 943.541 194.692 944.618 192.537C945.723 190.328 947.569 183.443 947.895 185.892C948.39 189.603 947.702 193.863 947.486 197.544C946.77 209.713 946.488 221.862 946.302 234.05C945.866 262.608 945.1 291.159 944.664 319.717C944.196 350.313 944.204 380.817 945.665 411.392C947.256 444.688 948.34 478.664 954.86 511.442C956.921 521.807 959.409 532.107 962.507 542.213C963.998 547.076 965.387 552.924 968.424 557.143C972.948 563.426 975.148 549.002 975.798 546.401" stroke="#1E1E1E" stroke-width="7.39264" stroke-linecap="round" stroke-linejoin="round"/>
<path d="M952.857 176.879C951.833 176.674 945.956 176.352 946.166 176.515C947.845 177.821 951.344 177.881 953.267 178.062C963.137 178.996 973.167 178.202 982.99 177.152C1021.57 173.029 1060.02 169.527 1098.84 168.321C1148.08 166.791 1197.33 167.047 1246.59 167.047C1271.59 167.047 1296.57 167.183 1321.56 166.41C1340.68 165.818 1359.7 164.141 1378.78 166.228C1393.8 167.87 1408.84 169.075 1423.79 171.326C1431.14 172.431 1438.39 174.23 1444.46 178.7C1453.21 185.15 1463.53 185.792 1473.96 187.53C1475.71 187.822 1469.01 202.411 1468.63 203.325C1464.94 212.112 1463.21 221.443 1461.48 230.773C1458.51 246.81 1455.87 262.911 1453.06 278.978C1446.98 313.864 1442.75 349.226 1438.27 384.354C1434.01 417.779 1430.64 451.365 1428.53 484.996C1427.48 501.678 1425.74 518.483 1425.62 535.203C1425.6 537.376 1424.8 541.624 1426.48 543.442C1428.21 545.312 1426.87 543.034 1426.43 542.304" stroke="#1E1E1E" stroke-width="7.39264" stroke-linecap="round" stroke-linejoin="round"/>
<path d="M952.037 574.258C948.194 576.18 964.414 577.17 964.783 577.171C985.823 577.266 1006.91 576.771 1027.96 576.716C1066.15 576.617 1104.29 574.059 1142.49 573.621C1192.73 573.044 1242.94 571.217 1293.11 568.477C1328.39 566.55 1363.69 563.922 1398.71 559.146C1405.14 558.269 1413.04 557.966 1419.06 554.958C1422.86 553.059 1426.41 550.632 1430.49 549.314C1432.67 548.606 1439.37 547.862 1437.09 545.581" stroke="#1E1E1E" stroke-width="7.39264" stroke-linecap="round" stroke-linejoin="round"/>
<path d="M944.664 223.581C922.147 223.581 989.378 217.026 1011.89 217.026C1038.56 217.026 1065.32 218.766 1091.87 221.123C1130.74 224.574 1169.69 224.968 1208.67 225.857C1278.66 227.452 1348.34 220.304 1418.24 220.304C1432.62 220.304 1446.95 221.123 1461.3 221.123C1463.34 221.123 1472.38 219.132 1467.4 221.123" stroke="#1E1E1E" stroke-width="7.39264" stroke-linecap="round" stroke-linejoin="round"/>
<path d="M1163.43 321.082C1163.43 319.977 1163.6 317.697 1162.15 319.535C1157.67 325.239 1153.84 332.599 1151.14 339.29C1146.62 350.453 1142.05 363.017 1141.4 375.113C1140.6 389.803 1147.21 398.877 1159.24 406.84C1163.98 409.977 1170.1 413.267 1175.72 414.305C1187.73 416.526 1205.72 418.193 1216.87 411.983C1222.01 409.116 1226.03 404.29 1229.52 399.648C1236.6 390.23 1234.92 374.43 1235.26 363.415C1235.54 354.186 1234.98 345.04 1231.7 336.331C1228.14 326.854 1221.39 321.705 1212.54 316.986C1202.88 311.831 1190.26 306.032 1178.9 308.155C1173.28 309.207 1172.08 312.484 1169.98 316.986" stroke="#1E1E1E" stroke-width="7.39264" stroke-linecap="round" stroke-linejoin="round"/>
<path d="M1184.73 345.663C1184.73 342.261 1181.09 346.667 1180.18 347.939C1177.45 351.76 1176.53 362.362 1180.31 365.327C1184.31 368.453 1196.49 371.063 1200.07 366.055C1204.41 359.977 1206.76 353.665 1202.57 347.119C1200.9 344.5 1198.46 340.805 1195.38 339.654C1190.38 337.785 1187.78 345.426 1185.55 348.121" stroke="#1E1E1E" stroke-width="7.39264" stroke-linecap="round" stroke-linejoin="round"/>
<path d="M1190.47 362.049C1188.49 362.049 1184.73 359.095 1184.73 364.098C1184.73 371.661 1178.94 379.3 1174.67 385.082C1173 387.346 1170.39 390.591 1169.8 393.366C1169.27 395.86 1169.89 397.219 1169.89 399.375C1169.89 402.056 1168.02 402.627 1169.16 405.474" stroke="#1E1E1E" stroke-width="7.39264" stroke-linecap="round" stroke-linejoin="round"/>
<path d="M1200.3 367.785C1194.49 364.883 1202.77 376.903 1203.03 377.435C1208.14 387.91 1213.34 398.401 1218.14 409.025C1219.65 412.369 1217.3 409.189 1215.86 407.932" stroke="#1E1E1E" stroke-width="7.39264" stroke-linecap="round" stroke-linejoin="round"/>
<path d="M1102.8 452.996C1102.41 452.217 1102.02 451.423 1101.98 450.538C1101.77 446.325 1101.57 456.719 1101.57 456.819C1101.2 462.792 1101.57 468.915 1100.75 474.845C1100.54 476.346 1099.76 477.696 1101.16 478.395" stroke="#1E1E1E" stroke-width="7.39264" stroke-linecap="round" stroke-linejoin="round"/>
<path d="M1105.25 448.08C1105.25 447.333 1104.1 446.78 1103.62 446.441C1098.92 443.152 1111.46 442.434 1111.9 442.345C1153.07 433.905 1195.23 433.569 1236.8 427.688C1240.01 427.234 1253.38 425.236 1258.2 424.774C1260.43 424.56 1261.87 424.203 1263.2 425.958C1265.12 428.462 1265.61 432.414 1265.71 435.426C1265.86 440.058 1265 444.555 1263.75 448.99C1261.14 458.285 1259.82 464.769 1251.92 470.202" stroke="#1E1E1E" stroke-width="7.39264" stroke-linecap="round" stroke-linejoin="round"/>
<path d="M1135.57 469.383C1141.54 464.159 1149.49 462.531 1157.15 461.371C1176.98 458.364 1197.68 458.976 1217.69 458.777C1225.61 458.698 1233.53 458.731 1241.45 458.731C1244.6 458.731 1248.92 459.328 1252.1 458.595C1253.07 458.37 1250.78 456.929 1249.82 456.637C1246.75 455.701 1243.61 455.652 1240.44 455.454" stroke="#1E1E1E" stroke-width="7.39264" stroke-linecap="round" stroke-linejoin="round"/>
<path d="M1133.11 494.782C1125.85 493.33 1128.15 506.522 1128.24 510.623C1128.35 515.488 1127.5 523.862 1132.29 526.736" stroke="#1E1E1E" stroke-width="7.39264" stroke-linecap="round" stroke-linejoin="round"/>
<path d="M1126.56 498.879C1123.33 494.036 1123.64 493.371 1130.65 491.96C1167.11 484.626 1204.68 479.241 1241.81 476.757C1245.45 476.513 1254.28 473.818 1255.28 479.397C1256.34 485.304 1255.16 492.328 1253.55 498.06C1252.8 500.742 1252.27 503.501 1251.46 506.162C1250.04 510.822 1245.08 512.194 1241.26 514.446" stroke="#1E1E1E" stroke-width="7.39264" stroke-linecap="round" stroke-linejoin="round"/>
<path d="M1147.86 522.64C1143.76 521.956 1141.15 521.92 1149.5 521.092C1169.53 519.106 1189.61 518.226 1209.67 516.722C1217.31 516.15 1227.01 516.585 1234.16 513.172C1236.55 512.03 1233.12 509.582 1232.25 508.711" stroke="#1E1E1E" stroke-width="7.39264" stroke-linecap="round" stroke-linejoin="round"/>
<path d="M449.007 465.682C447.62 465.682 444.471 467.228 443.483 468.339C443.101 468.768 449.606 468.808 450.056 468.794C456.976 468.581 463.921 468.068 470.826 467.57C492.472 466.01 514.451 466.889 536.141 466.941C573.129 467.028 610.337 467.293 647.227 470.123C675.019 472.254 702.526 477.006 730.27 479.528C752.448 481.544 774.672 482.744 796.879 484.284C811.091 485.269 825.324 486.627 839.572 487.046C844.589 487.193 850.123 488.196 854.327 485.193" stroke="#1E1E1E" stroke-width="7.39264" stroke-linecap="round" stroke-linejoin="round"/>
<path d="M567.331 470.088C565.251 470.088 563.334 463.754 562.611 462.15C558.222 452.419 558.219 440.279 559.079 429.877C560.402 413.884 563.145 397.941 565.757 382.114C566.683 376.504 568.272 368.651 571.946 364.107C577.609 357.103 589.115 352.956 597.331 350.226C632.234 338.629 667.55 334.712 704.186 335.54C721.72 335.937 738.797 338.505 756.005 341.834C769.001 344.348 783.059 348.366 794.397 355.436C811.67 366.206 831.241 378.123 837.474 398.758C840.307 408.135 839.848 419.025 839.467 428.688C839.011 440.278 838.287 451.454 839.572 463.025C840.222 468.873 841.33 474.899 843.593 480.367C843.955 481.241 845.037 483.305 844.887 483.305" stroke="#1E1E1E" stroke-width="7.39264" stroke-linecap="round" stroke-linejoin="round"/>
<path d="M609.499 390.786C608.048 390.302 606.615 390.156 605.093 390.156C603.207 390.156 608.838 389.468 610.723 389.562C620.998 390.076 620.805 407.42 611.667 409.912C606.709 411.264 603.223 413.129 601.702 418.513C600.734 421.937 599.141 428.347 604.114 429.038C608.527 429.651 613.229 428.81 617.611 428.234C619.47 427.989 621.642 428.272 622.716 426.66" stroke="#1E1E1E" stroke-width="7.39264" stroke-linecap="round" stroke-linejoin="round"/>
<path d="M635.304 395.821C635.304 395.357 635.152 394.689 634.814 394.352C633.287 392.825 635.165 398.667 635.584 400.786C637.212 409.018 639.049 417.199 640.479 425.471C640.988 428.416 642.584 436.936 640.968 434.423C639.689 432.433 635.598 416.865 638.731 415.821C644.629 413.855 650.174 416.766 656.073 417.22" stroke="#1E1E1E" stroke-width="7.39264" stroke-linecap="round" stroke-linejoin="round"/>
<path d="M674.954 399.597C674.378 399.021 674.245 398.28 673.696 399.457C671.663 403.813 677.166 408.457 681.213 406.94C686.896 404.809 686.964 396.829 684.57 392.219C680.19 383.784 675.485 394.941 673.696 398.968" stroke="#1E1E1E" stroke-width="7.39264" stroke-linecap="round" stroke-linejoin="round"/>
<path d="M670.549 418.478C668.005 420.174 668.5 421.129 671.667 420.856C673.373 420.709 690.506 419.797 690.409 417.849C690.356 416.785 687.131 415.412 686.283 415.751C683.339 416.929 681.591 423.326 681.038 426.031C679.867 431.768 680.317 435.868 686.283 437.36" stroke="#1E1E1E" stroke-width="7.39264" stroke-linecap="round" stroke-linejoin="round"/>
<path d="M710.2 405.261C709.045 404.107 714.602 402.303 714.99 402.185C719.746 400.734 725.226 399.75 730.2 399.597C732.577 399.524 731.424 399.597 729.921 399.597C727.328 399.597 724.813 399.72 722.788 401.52C717.244 406.448 715.315 423.266 719.711 429.388C722.129 432.755 727.399 433.428 731.249 432.674C736.675 431.613 736.849 429.159 734.116 425.402" stroke="#1E1E1E" stroke-width="7.39264" stroke-linecap="round" stroke-linejoin="round"/>
<path d="M722.787 419.108C722.056 419.108 720.454 419.108 722.263 419.108C727.756 419.108 732.616 419.444 737.892 420.996" stroke="#1E1E1E" stroke-width="7.39264" stroke-linecap="round" stroke-linejoin="round"/>
<path d="M743.557 420.996C752.496 420.996 758.814 417.303 764.536 410.436C765.732 409.002 766.053 411.944 766.18 412.639C767.174 418.11 766.819 423.787 766.844 429.318C766.865 434.142 766.589 439.179 768.103 443.828C768.538 445.166 768.906 446.735 769.362 444.912" stroke="#1E1E1E" stroke-width="7.39264" stroke-linecap="round" stroke-linejoin="round"/>
<path d="M567.331 473.234C566.186 474.379 565.479 476.859 565.443 478.409C565.331 483.215 562.923 487.65 562.436 492.466C561.497 501.751 561.972 511.147 561.037 520.438C559.583 534.896 560.003 548.95 561.806 563.376C565.694 594.481 578.246 623.524 592.016 651.349C598.803 665.062 605.127 677.887 614.954 689.741C625.125 702.011 638.093 710.797 651.842 718.552C664.92 725.93 679.762 731.509 694.85 732.154C711.16 732.851 727.191 728.464 741.948 721.769C754.229 716.199 766.613 706.953 776.844 698.203C787.716 688.904 798.648 679.503 808.348 668.971C818.962 657.448 825.972 643.447 831.635 628.936C839.296 609.305 845.263 588.459 849.887 567.921C854.846 545.898 855.152 523.339 856.495 500.892C856.796 495.876 857.649 490.425 857.37 485.402C857.222 482.752 854.368 483.305 852.439 483.305" stroke="#1E1E1E" stroke-width="7.39264" stroke-linecap="round" stroke-linejoin="round"/>
<path d="M642.856 608.551C635.092 608.551 632.556 623.982 631.562 629.32C630.056 637.416 629.166 646.765 633.975 654.006C638.4 660.669 647.467 663.167 655.129 663.167C672.959 663.167 681.063 645.752 679.081 629.81C677.765 619.232 670.999 609.921 660.444 607.502C652.388 605.656 644.307 606.708 637.821 611.698" stroke="#1E1E1E" stroke-width="7.39264" stroke-linecap="round" stroke-linejoin="round"/>
<path d="M596.282 500.298C595.392 499.852 593.331 499.177 592.646 500.298C591.103 502.823 598.155 508.596 599.464 510.123C603.762 515.137 608.656 519.996 614.604 523.06C616.653 524.116 615.957 523.429 614.534 522.955" stroke="#1E1E1E" stroke-width="7.39264" stroke-linecap="round" stroke-linejoin="round"/>
<path d="M604.464 546.242C601.888 546.242 604.886 545.223 605.723 544.984" stroke="#1E1E1E" stroke-width="7.39264" stroke-linecap="round" stroke-linejoin="round"/>
<path d="M678.731 524.843C677.678 524.843 676.753 525.434 675.759 525.683C674.424 526.016 677.626 523.653 678.661 522.745C682.074 519.751 685.534 516.819 689.011 513.899C693.141 510.429 697.222 506.838 701.109 503.095C702.95 501.322 703.19 501.1 702.018 503.444" stroke="#1E1E1E" stroke-width="7.39264" stroke-linecap="round" stroke-linejoin="round"/>
<path d="M690.06 541.207C688.681 541.207 687.991 540.038 686.913 539.319" stroke="#1E1E1E" stroke-width="7.39264" stroke-linecap="round" stroke-linejoin="round"/>
<path d="M522.645 604.145C515.981 600.814 515.476 614.624 514.952 618.271C513.563 627.943 512.859 638.243 515.722 647.712C517.885 654.869 520.835 662.16 528.973 663.517C534.936 664.51 542.271 663.481 545.827 658.062C550.893 650.343 553.4 640.308 552.295 631.174C550.967 620.194 544.235 607.7 533.694 603.166C527.861 600.657 521.28 599.832 516.351 604.145" stroke="#1E1E1E" stroke-width="7.39264" stroke-linecap="round" stroke-linejoin="round"/>
<path d="M524.533 595.334C520.361 595.334 515.189 592.758 511.491 591.173C476.037 575.979 437.282 569.083 399.951 560.124C380.105 555.361 360.129 552.274 339.775 550.788C324.427 549.667 308.615 551.307 293.481 548.13C290.613 547.529 287.488 546.97 284.845 545.648C284.263 545.357 283.068 544.563 282.362 544.634C282.066 544.664 282.222 546.549 282.222 546.662C282.222 549.695 281.574 552.541 280.824 555.473C277.711 567.635 274.444 579.641 273.831 592.257C272.967 610.023 276.923 627.573 281.593 644.6C283.616 651.977 285.843 659.239 288.376 666.454C290.293 671.912 292.022 677.744 296.138 682.013C303.759 689.916 313.821 684.937 319.53 677.293C328.242 665.628 328.336 646.479 328.656 632.607C329.033 616.314 327.644 598.305 319.845 583.655C314.743 574.073 306.854 564.375 297.327 558.97C294.356 557.284 290.785 555.311 287.327 554.879C284.161 554.483 283.965 556.604 282.852 558.83" stroke="#1E1E1E" stroke-width="7.39264" stroke-linecap="round" stroke-linejoin="round"/>
<path d="M325.02 689.741C323.969 690.791 324.924 690.981 326.069 690.999C334.199 691.131 342.39 690.345 350.475 689.601C366.445 688.13 382.215 685.097 398.168 683.447C413.969 681.812 429.862 680.578 445.721 679.671C468.432 678.371 491.074 676.398 513.834 676.524C522.716 676.573 530.989 676.946 539.778 675.265C543.017 674.646 546.167 673.944 549.289 672.887C551.173 672.249 550 673.615 549.708 674.636" stroke="#1E1E1E" stroke-width="7.39264" stroke-linecap="round" stroke-linejoin="round"/>
<path d="M657.332 727.503C657.332 724.351 654.904 726.673 653.556 726.105C644.767 722.404 636.978 717.074 628.381 713.028C617.411 707.865 606.158 705.618 594.674 702.049C582.306 698.204 569.997 694.151 557.506 690.72C543.44 686.856 529.084 687.617 514.743 685.825C509.193 685.131 503.28 684.207 498.029 682.188C496.518 681.607 495.255 680.69 493.694 680.3" stroke="#1E1E1E" stroke-width="7.39264" stroke-linecap="round" stroke-linejoin="round"/>
<path d="M449.637 690.37C448.996 691.011 448.849 691.709 449.287 692.538C450.056 693.995 451.325 695.14 452.294 696.454C455.103 700.259 456.627 704.54 457.819 709.077C465.454 738.15 486.623 760.338 513.484 773.308C541.515 786.844 569.034 799.397 599.639 805.826C614.368 808.921 628.941 810.638 643.486 814.638C646.788 815.546 650.184 816.377 653.521 817.155C655.115 817.527 658.101 817.071 659.08 818.764C660.754 821.655 659.485 825.643 661.108 828.484C663.217 832.174 662.259 836.097 661.738 840.442C660.357 851.944 659.22 863.361 659.22 874.953C659.22 883.596 658.923 891.917 662.367 899.953" stroke="#1E1E1E" stroke-width="7.39264" stroke-linecap="round" stroke-linejoin="round"/>
<path d="M795.795 795.477C795.069 794.75 792.83 792.135 795.166 792.33C797.827 792.551 800.204 796.301 801.46 798.274C804.337 802.795 805.248 808.252 806.495 813.379C809.445 825.508 809.093 836.999 809.782 849.323C810.086 854.77 810.308 862.265 812.789 867.226" stroke="#1E1E1E" stroke-width="7.39264" stroke-linecap="round" stroke-linejoin="round"/>
<path d="M792.648 796.106C791.148 794.605 807.845 778.653 809.921 776.595C817.077 769.504 825.104 763.169 832.614 756.455C844.346 745.965 852.696 735.239 858.768 720.65C864.116 707.799 869.543 694.287 872.3 680.58C873.793 673.156 874.897 664.065 874.328 656.523C873.96 651.65 869.695 650.585 871.6 645.684C873.683 640.329 876.117 635.121 878.873 629.915C881.208 625.504 891.103 607.455 884.398 604.565C880.079 602.703 872.485 605.769 868.558 607.502C859.447 611.522 850.613 617.35 842.439 623.027C835.577 627.792 828.655 632.017 822.928 638.202C818.355 643.141 814.739 648.776 809.642 653.237" stroke="#1E1E1E" stroke-width="7.39264" stroke-linecap="round" stroke-linejoin="round"/>
<path d="M870.691 577.711C865.697 572.717 862.99 583.661 862.369 586.313C859.142 600.105 858.756 623.201 879.503 619.53C897.364 616.369 911.925 592.325 900.062 576.382C889.803 562.595 868.684 566.491 862.509 581.487" stroke="#1E1E1E" stroke-width="7.39264" stroke-linecap="round" stroke-linejoin="round"/>
<path d="M130.469 155.43C130.469 154.676 130.933 153.887 131.341 153.274C133.25 150.411 130.365 160.098 129.544 163.439C124.601 183.566 124 204.73 124 225.352C124 267.923 134.085 309.403 136.732 351.746C138.021 372.38 139.149 394.728 145.716 414.429C148.412 422.516 152.491 430.001 155.419 437.993C157.442 443.517 158.45 449.582 161.169 454.832C168.53 469.048 184.928 468.693 198.44 468.693C220.557 468.693 240.513 463.308 261.637 457.194C279.813 451.932 298.925 442.903 318.057 441.946C323.014 441.699 327.89 441.566 332.842 441.176C339.592 440.645 346.298 442.757 353.069 442.819C368.861 442.964 384.596 441.895 400.351 441.895C412.822 441.895 424.885 442.103 437.263 443.538C439.067 443.747 446.429 444.816 447.428 442.819" stroke="#1E1E1E" stroke-width="7.39264" stroke-linecap="round" stroke-linejoin="round"/>
<path d="M447.428 442.819C447.428 440.187 451.208 436.698 452.254 434.297C454.535 429.058 455.82 421.593 460.006 417.407C462.443 414.97 465.443 413.249 468.887 413.249C475.137 413.249 479.373 422.085 482.543 426.596C488.366 434.882 494.575 441.043 502.873 446.721C504.913 448.117 509.094 449.398 511.652 448.261C516.358 446.169 511.064 431.397 510.471 428.547C508.086 417.081 506.652 404.668 505.594 393.022C505.282 389.589 504.124 388.59 506.62 385.886C512.007 380.051 517.453 374.433 523.203 368.893C536.292 356.28 552.554 346.602 564.786 333.059C578.983 317.341 595.9 303.911 607.807 286.136C624.79 260.785 638.495 232.855 649.391 204.407C655.131 189.419 653.085 160.679 637.634 151.734C611.779 136.765 579.973 135.403 550.925 133.715C516.306 131.702 480.966 128.355 446.299 130.942C419.409 132.949 392.58 136.135 365.801 139.208C334.009 142.856 302.111 143.347 270.21 145.06C242.855 146.529 215.322 148.837 187.967 151.015C174.366 152.099 160.769 150.929 147.307 153.377C143.606 154.05 139.312 154.506 135.551 154.506C134.668 154.506 128.793 154.506 132.317 154.506" stroke="#1E1E1E" stroke-width="7.39264" stroke-linecap="round" stroke-linejoin="round"/>
<path d="M168.002 309.92L208.99 298.938L209.914 302.387L168.926 313.369L168.002 309.92ZM183.762 295.358L187.861 294.259L190.834 305.356L186.735 306.454L183.762 295.358ZM164.201 275.741L195.092 267.463L198.762 281.159L172.07 288.312L174.494 297.359L170.395 298.457L167.087 286.111L193.779 278.959L191.904 271.961L165.112 279.14L164.201 275.741ZM169.926 296.708L201.767 288.176L202.678 291.575L170.837 300.107L169.926 296.708ZM208.873 265.325L237.964 257.53L238.875 260.929L209.783 268.724L208.873 265.325ZM212.567 296.908L253.405 285.965L254.329 289.414L213.491 300.357L212.567 296.908ZM235.715 258.132L239.813 257.034L241.032 261.583C241.541 263.482 242.052 265.524 242.566 267.708C243.104 269.849 243.605 272.251 244.068 274.913C244.531 277.574 244.917 280.614 245.226 284.032L240.906 284.707C240.685 281.48 240.347 278.553 239.893 275.924C239.472 273.287 238.988 270.881 238.441 268.706C237.927 266.522 237.424 264.514 236.933 262.681L235.715 258.132ZM280.874 240.942L285.023 239.831L293.863 272.821L289.714 273.932L280.874 240.942ZM266.911 288.4L297.352 280.243L298.263 283.642L267.822 291.799L266.911 288.4ZM263.924 277.253L268.073 276.142L271.368 288.438L267.219 289.55L263.924 277.253ZM261.624 249.475C263.89 248.868 266.031 248.795 268.047 249.254C270.064 249.714 271.816 250.656 273.304 252.078C274.784 253.468 275.814 255.245 276.394 257.411C276.974 259.577 276.976 261.648 276.398 263.625C275.812 265.568 274.765 267.259 273.258 268.699C271.741 270.105 269.85 271.112 267.584 271.719C265.352 272.317 263.211 272.391 261.161 271.94C259.136 271.447 257.384 270.505 255.904 269.116C254.416 267.693 253.381 265.899 252.801 263.733C252.221 261.567 252.224 259.513 252.81 257.57C253.388 255.593 254.435 253.902 255.951 252.496C257.5 251.08 259.392 250.074 261.624 249.475ZM262.589 253.074C261.122 253.467 259.891 254.137 258.894 255.082C257.898 256.028 257.201 257.161 256.805 258.481C256.442 259.793 256.457 261.182 256.85 262.648C257.252 264.148 257.938 265.375 258.908 266.329C259.902 267.241 261.067 267.858 262.403 268.178C263.739 268.499 265.14 268.463 266.607 268.07C268.073 267.677 269.304 267.008 270.301 266.062C271.331 265.108 272.032 263.991 272.404 262.713C272.767 261.401 272.747 259.996 272.345 258.496C271.952 257.03 271.271 255.82 270.301 254.865C269.331 253.911 268.161 253.278 266.792 252.966C265.456 252.645 264.055 252.682 262.589 253.074ZM329.628 272.827C327.762 273.327 325.958 273.525 324.215 273.42C322.473 273.316 320.837 272.808 319.307 271.896C317.81 270.976 316.456 269.588 315.245 267.734C314.034 265.88 313.04 263.504 312.263 260.604L306.491 239.061L311.089 237.829L316.889 259.472C317.674 262.405 318.678 264.618 319.9 266.112C321.113 267.573 322.451 268.5 323.913 268.894C325.401 269.246 326.944 269.207 328.543 268.778C330.176 268.341 331.549 267.598 332.661 266.55C333.764 265.469 334.476 263.992 334.796 262.121C335.14 260.207 334.919 257.784 334.133 254.851L328.334 233.208L332.783 232.016L338.555 253.559C339.332 256.459 339.66 259.014 339.538 261.225C339.449 263.427 338.971 265.306 338.101 266.86C337.232 268.415 336.069 269.673 334.612 270.635C333.156 271.596 331.494 272.327 329.628 272.827ZM351.333 266.315L341.515 229.676L352.962 226.609C355.461 225.939 357.75 225.683 359.828 225.841C361.93 225.956 363.732 226.616 365.234 227.821C366.735 229.026 367.825 230.894 368.504 233.427C369.156 235.86 369.15 238.04 368.488 239.967C367.817 241.861 366.622 243.467 364.904 244.785C363.21 246.06 361.113 247.033 358.614 247.703L351.766 249.537L355.931 265.083L351.333 266.315ZM350.775 245.839L356.923 244.191C359.789 243.423 361.832 242.251 363.052 240.674C364.264 239.063 364.548 237.059 363.905 234.659C363.262 232.26 362.045 230.782 360.253 230.227C358.461 229.671 356.132 229.777 353.267 230.545L347.118 232.193L350.775 245.839ZM371.427 260.931L357.343 246.757L360.335 243.33L376.625 259.538L371.427 260.931ZM381.912 258.121L372.095 221.482L376.693 220.25L385.453 252.94L401.498 248.641L402.556 252.59L381.912 258.121ZM427.117 201.703L431.266 200.591L443.401 245.878L439.252 246.99L427.117 201.703ZM408.361 210.479C410.593 209.881 412.734 210.004 414.781 210.848C416.853 211.65 418.69 213.104 420.29 215.211C421.924 217.31 423.169 219.958 424.026 223.157C424.883 226.356 425.129 229.273 424.763 231.907C424.431 234.531 423.572 236.726 422.188 238.49C420.837 240.245 419.045 241.421 416.812 242.02C414.579 242.618 412.422 242.499 410.341 241.664C408.26 240.829 406.403 239.362 404.769 237.264C403.169 235.157 401.94 232.504 401.083 229.305C400.226 226.106 399.964 223.194 400.296 220.569C400.662 217.935 401.541 215.753 402.935 214.022C404.319 212.258 406.128 211.077 408.361 210.479ZM409.352 214.178C407.852 214.58 406.67 215.432 405.805 216.736C404.964 217.997 404.473 219.628 404.331 221.631C404.18 223.6 404.43 225.801 405.082 228.233C405.734 230.666 406.622 232.714 407.746 234.377C408.861 236.007 410.103 237.174 411.47 237.879C412.871 238.575 414.321 238.723 415.821 238.321C417.287 237.928 418.436 237.084 419.268 235.79C420.133 234.487 420.641 232.85 420.792 230.881C420.934 228.879 420.679 226.661 420.027 224.229C419.376 221.796 418.492 219.765 417.377 218.135C416.253 216.472 414.994 215.309 413.602 214.646C412.235 213.941 410.818 213.785 409.352 214.178ZM469.701 190.293L473.85 189.181L485.984 234.468L481.835 235.579L469.701 190.293ZM477.681 207.28L486.029 205.044L486.953 208.493L478.605 210.729L477.681 207.28ZM449.229 228.458L452.778 227.507C455.544 226.766 458.068 226.054 460.349 225.372C462.655 224.647 464.843 223.882 466.913 223.077C469.017 222.263 471.131 221.357 473.257 220.359L474.708 223.774C472.482 224.799 470.301 225.723 468.164 226.546C466.061 227.359 463.835 228.116 461.487 228.817C459.139 229.517 456.548 230.247 453.716 231.006L450.167 231.957L449.229 228.458ZM442.238 202.366L463.182 196.754L464.092 200.153L447.247 204.667L453.757 228.959L449.658 230.058L442.238 202.366ZM499.642 227.272C498.742 227.513 497.874 227.407 497.038 226.952C496.226 226.455 495.687 225.707 495.419 224.707C495.133 223.641 495.222 222.706 495.685 221.903C496.182 221.092 496.88 220.565 497.78 220.324C498.68 220.083 499.531 220.194 500.334 220.658C501.17 221.112 501.731 221.873 502.017 222.939C502.285 223.939 502.175 224.861 501.687 225.706C501.223 226.509 500.542 227.031 499.642 227.272ZM188.19 385.262L229.178 374.28L230.102 377.729L189.114 388.711L188.19 385.262ZM203.95 370.7L208.048 369.602L211.022 380.698L206.923 381.797L203.95 370.7ZM184.389 351.083L215.28 342.806L218.95 356.502L192.258 363.654L194.682 372.701L190.583 373.799L187.275 361.453L213.967 354.301L212.092 347.303L185.3 354.482L184.389 351.083ZM190.114 372.05L221.955 363.518L222.866 366.917L191.025 375.449L190.114 372.05ZM229.06 340.667L258.152 332.872L259.063 336.271L229.971 344.066L229.06 340.667ZM232.755 372.25L273.593 361.307L274.517 364.756L233.679 375.699L232.755 372.25ZM255.902 333.475L260.001 332.376L261.22 336.925C261.729 338.824 262.24 340.866 262.754 343.05C263.292 345.192 263.793 347.593 264.256 350.255C264.719 352.917 265.105 355.956 265.414 359.374L261.094 360.049C260.873 356.822 260.535 353.895 260.08 351.267C259.66 348.629 259.176 346.223 258.628 344.048C258.115 341.864 257.612 339.856 257.121 338.023L255.902 333.475ZM301.062 316.284L305.211 315.173L314.051 348.163L309.902 349.275L301.062 316.284ZM287.099 363.742L317.54 355.586L318.451 358.985L288.01 367.141L287.099 363.742ZM284.112 352.596L288.261 351.484L291.556 363.78L287.407 364.892L284.112 352.596ZM281.812 324.818C284.078 324.211 286.219 324.137 288.235 324.597C290.251 325.056 292.004 325.998 293.492 327.42C294.972 328.81 296.002 330.588 296.582 332.754C297.162 334.92 297.164 336.991 296.586 338.967C295.999 340.91 294.953 342.601 293.445 344.041C291.929 345.447 290.038 346.454 287.772 347.061C285.54 347.659 283.398 347.733 281.349 347.282C279.324 346.789 277.572 345.848 276.092 344.458C274.604 343.036 273.569 341.241 272.989 339.075C272.409 336.909 272.412 334.855 272.998 332.912C273.576 330.935 274.623 329.244 276.139 327.838C277.688 326.423 279.579 325.416 281.812 324.818ZM282.776 328.417C281.31 328.809 280.079 329.479 279.082 330.424C278.085 331.37 277.389 332.503 276.993 333.824C276.63 335.135 276.645 336.524 277.038 337.99C277.44 339.49 278.126 340.717 279.096 341.671C280.09 342.584 281.255 343.2 282.591 343.521C283.927 343.841 285.328 343.805 286.794 343.412C288.261 343.019 289.492 342.35 290.489 341.404C291.519 340.45 292.22 339.333 292.592 338.055C292.954 336.744 292.935 335.338 292.533 333.838C292.14 332.372 291.459 331.162 290.489 330.207C289.519 329.253 288.349 328.62 286.98 328.308C285.644 327.988 284.243 328.024 282.776 328.417ZM357.61 301.079L361.609 300.008L373.73 345.244L369.731 346.316L357.61 301.079ZM347.372 322.252L354.819 320.256L355.811 323.955L348.363 325.951L347.372 322.252ZM349.157 304.523L353.106 303.464L364.29 345.202L360.341 346.26L349.157 304.523ZM325.01 315.975L345.604 310.457L346.515 313.856L325.921 319.374L325.01 315.975ZM332.155 344.437L330.717 341.072C332.217 340.67 333.9 340.219 335.766 339.719C337.623 339.186 339.559 338.614 341.574 338.002C343.58 337.358 345.565 336.701 347.528 336.032C349.483 335.33 351.295 334.63 352.966 333.932L354.096 336.951C351.846 338.018 349.386 339.034 346.716 340C344.071 340.923 341.474 341.762 338.926 342.516C336.378 343.27 334.121 343.91 332.155 344.437ZM329.299 317.183L333.097 316.165L339.433 339.808L335.634 340.826L329.299 317.183ZM338.646 314.679L342.495 313.647L348.83 337.29L344.981 338.322L338.646 314.679ZM400.693 289.535L404.842 288.423L416.977 333.71L412.828 334.821L400.693 289.535ZM381.937 298.311C384.169 297.713 386.309 297.836 388.357 298.68C390.429 299.482 392.266 300.936 393.866 303.043C395.5 305.141 396.745 307.79 397.602 310.989C398.459 314.188 398.705 317.105 398.339 319.738C398.007 322.363 397.148 324.558 395.764 326.322C394.413 328.077 392.621 329.253 390.388 329.851C388.155 330.45 385.998 330.331 383.917 329.496C381.836 328.661 379.979 327.194 378.345 325.096C376.745 322.989 375.516 320.336 374.659 317.137C373.802 313.938 373.539 311.026 373.872 308.401C374.238 305.767 375.117 303.585 376.511 301.854C377.895 300.09 379.704 298.909 381.937 298.311ZM382.928 302.01C381.428 302.412 380.246 303.264 379.381 304.567C378.54 305.828 378.049 307.46 377.907 309.463C377.756 311.432 378.006 313.633 378.658 316.065C379.31 318.498 380.198 320.546 381.322 322.209C382.437 323.839 383.679 325.006 385.046 325.711C386.447 326.407 387.897 326.554 389.397 326.153C390.863 325.76 392.012 324.916 392.844 323.622C393.709 322.318 394.217 320.682 394.368 318.713C394.51 316.711 394.255 314.493 393.603 312.061C392.952 309.628 392.068 307.597 390.953 305.967C389.828 304.304 388.57 303.141 387.178 302.478C385.811 301.773 384.394 301.617 382.928 302.01ZM426.373 289.618L429.772 288.708L431.728 296.006C432.371 298.405 432.671 300.86 432.63 303.371C432.58 305.849 432.231 308.282 431.585 310.669C430.964 313.015 430.08 315.18 428.933 317.166C427.787 319.152 426.434 320.836 424.876 322.218L421.592 319.562C423.011 318.324 424.254 316.831 425.321 315.08C426.421 313.321 427.284 311.411 427.91 309.35C428.537 307.29 428.887 305.196 428.96 303.069C429.066 300.933 428.856 298.882 428.329 296.916L426.373 289.618ZM427.223 289.391L430.572 288.493L432.528 295.791C433.037 297.691 433.845 299.51 434.954 301.248C436.087 302.945 437.427 304.479 438.973 305.85C440.544 307.18 442.215 308.286 443.987 309.168C445.793 310.041 447.627 310.621 449.489 310.908L448.074 314.823C446.009 314.448 443.98 313.741 441.988 312.704C439.996 311.666 438.145 310.358 436.437 308.78C434.752 307.16 433.282 305.339 432.027 303.319C430.762 301.265 429.813 299.055 429.179 296.689L427.223 289.391ZM415.381 290.582L440.623 283.818L441.548 287.267L416.305 294.031L415.381 290.582ZM445.526 277.522L449.675 276.41L461.796 321.647L457.647 322.759L445.526 277.522ZM500.837 262.701L504.986 261.59L517.107 306.826L512.958 307.938L500.837 262.701ZM477.425 305.887L475.938 302.535C478.937 301.732 482.131 300.858 485.522 299.914C488.945 298.961 492.4 297.928 495.888 296.815C499.4 295.659 502.785 294.431 506.044 293.129L507.147 296.048C503.8 297.552 500.396 298.91 496.935 300.124C493.499 301.294 490.123 302.36 486.809 303.319C483.494 304.279 480.367 305.135 477.425 305.887ZM489.072 286.373L501.468 283.051L502.393 286.5L489.996 289.822L489.072 286.373ZM485.215 271.977L497.261 268.749L498.172 272.148L490.224 274.278L493.372 286.024L489.273 287.122L485.215 271.977ZM471.169 275.74L482.815 272.62L483.726 276.019L476.178 278.041L479.38 289.988L475.281 291.086L471.169 275.74ZM475.026 290.136L477.076 289.587C478.609 289.176 480.195 288.698 481.834 288.151C483.473 287.605 485.201 286.856 487.018 285.905L488.342 289.247C486.392 290.234 484.581 291.005 482.908 291.56C481.269 292.107 479.633 292.599 478 293.036L475.95 293.585L475.026 290.136ZM531.39 281.57L535.539 280.458L540.521 299.052L536.372 300.164L531.39 281.57ZM545.334 250.832L549.532 249.707L561.64 294.894L557.441 296.019L545.334 250.832ZM520.043 286.807L518.555 283.455C521.421 282.687 524.516 281.84 527.839 280.914C531.187 279.945 534.584 278.892 538.029 277.755C541.474 276.617 544.767 275.378 547.908 274.036L548.988 277.068C545.775 278.537 542.471 279.868 539.076 281.064C535.682 282.259 532.361 283.327 529.113 284.269C525.865 285.211 522.842 286.057 520.043 286.807ZM543.4 284.405L554.697 281.378L555.568 284.627L544.271 287.654L543.4 284.405ZM527.528 257.96C529.761 257.362 531.83 257.218 533.735 257.53C535.631 257.807 537.24 258.483 538.564 259.557C539.879 260.598 540.777 262.018 541.259 263.817C541.741 265.617 541.678 267.312 541.069 268.904C540.459 270.496 539.403 271.886 537.9 273.075C536.397 274.263 534.529 275.157 532.296 275.755C530.097 276.344 528.033 276.505 526.104 276.236C524.208 275.958 522.598 275.282 521.274 274.208C519.951 273.134 519.048 271.697 518.566 269.898C518.084 268.099 518.152 266.419 518.77 264.861C519.379 263.269 520.435 261.879 521.938 260.69C523.466 259.46 525.329 258.55 527.528 257.96ZM528.386 261.159C526.919 261.552 525.687 262.15 524.688 262.954C523.713 263.715 523.025 264.614 522.624 265.65C522.223 266.686 522.17 267.754 522.465 268.853C522.768 269.986 523.353 270.901 524.218 271.598C525.083 272.295 526.128 272.729 527.353 272.901C528.611 273.064 529.973 272.949 531.439 272.556C532.906 272.163 534.126 271.586 535.101 270.825C536.075 270.064 536.763 269.165 537.164 268.129C537.565 267.093 537.614 266.008 537.31 264.875C537.016 263.776 536.436 262.878 535.57 262.181C534.705 261.484 533.66 261.05 532.435 260.878C531.202 260.673 529.852 260.766 528.386 261.159ZM569.328 276.815L562.999 255.795L561.507 250.624L566.105 249.392L567.398 254.617L572.477 275.971L569.328 276.815ZM574.012 288.096C573.112 288.338 572.244 288.231 571.408 287.776C570.596 287.279 570.056 286.531 569.789 285.531C569.503 284.465 569.592 283.53 570.055 282.728C570.552 281.916 571.25 281.39 572.15 281.148C573.083 280.898 573.951 281.005 574.754 281.469C575.557 281.932 576.101 282.697 576.387 283.763C576.654 284.763 576.561 285.681 576.107 286.517C575.643 287.32 574.945 287.846 574.012 288.096Z" fill="#1E1E1E"/>
<path d="M942.777 762.094C939.672 762.094 936.877 761.473 934.393 760.231C931.91 758.989 929.943 757.195 928.494 754.849C927.114 752.434 926.424 749.536 926.424 746.155C926.424 740.015 929.15 735.323 934.6 732.08C940.12 728.768 948.883 726.456 960.889 725.145C960.889 722.731 960.544 720.454 959.854 718.315C959.233 716.107 958.094 714.347 956.438 713.036C954.782 711.656 952.402 710.966 949.297 710.966C946.054 710.966 942.984 711.622 940.086 712.933C937.257 714.175 934.704 715.52 932.427 716.969L928.805 710.449C930.53 709.345 932.531 708.241 934.807 707.137C937.084 705.964 939.568 704.998 942.259 704.239C944.95 703.48 947.814 703.101 950.849 703.101C955.403 703.101 959.095 704.067 961.924 705.999C964.822 707.93 966.926 710.621 968.237 714.071C969.617 717.452 970.307 721.489 970.307 726.18V760.748H962.545L961.717 754.021H961.406C958.784 756.229 955.886 758.126 952.712 759.713C949.608 761.3 946.296 762.094 942.777 762.094ZM945.468 754.435C948.159 754.435 950.711 753.814 953.126 752.572C955.61 751.33 958.198 749.502 960.889 747.087V731.459C954.61 732.149 949.608 733.149 945.882 734.46C942.156 735.702 939.499 737.255 937.912 739.118C936.325 740.912 935.532 743.05 935.532 745.534C935.532 748.777 936.498 751.089 938.43 752.469C940.362 753.78 942.708 754.435 945.468 754.435ZM990.642 762.094C988.779 762.094 987.157 761.438 985.777 760.127C984.466 758.747 983.811 757.023 983.811 754.953C983.811 752.745 984.466 750.985 985.777 749.674C987.157 748.363 988.779 747.708 990.642 747.708C992.505 747.708 994.092 748.363 995.402 749.674C996.782 750.985 997.472 752.745 997.472 754.953C997.472 757.023 996.782 758.747 995.402 760.127C994.092 761.438 992.505 762.094 990.642 762.094ZM1032.73 762.094C1027.77 762.094 1023.28 760.955 1019.28 758.678C1015.35 756.333 1012.21 752.986 1009.86 748.639C1007.58 744.223 1006.45 738.911 1006.45 732.701C1006.45 726.422 1007.69 721.109 1010.17 716.762C1012.65 712.346 1015.97 708.965 1020.11 706.62C1024.25 704.274 1028.7 703.101 1033.46 703.101C1037.11 703.101 1040.25 703.756 1042.88 705.067C1045.57 706.378 1047.88 707.93 1049.81 709.724L1045.05 715.934C1043.46 714.485 1041.74 713.312 1039.87 712.415C1038.08 711.518 1036.08 711.07 1033.87 711.07C1030.49 711.07 1027.45 711.967 1024.76 713.761C1022.07 715.555 1019.97 718.073 1018.45 721.316C1016.93 724.559 1016.17 728.354 1016.17 732.701C1016.17 736.979 1016.9 740.739 1018.35 743.982C1019.87 747.225 1021.9 749.743 1024.45 751.537C1027.08 753.331 1030.11 754.228 1033.56 754.228C1036.18 754.228 1038.6 753.711 1040.81 752.676C1043.01 751.572 1045.01 750.226 1046.81 748.639L1050.95 755.056C1048.4 757.264 1045.57 758.989 1042.46 760.231C1039.36 761.473 1036.11 762.094 1032.73 762.094ZM1080.07 762.094C1075.52 762.094 1071.24 760.955 1067.24 758.678C1063.24 756.333 1060.03 752.986 1057.61 748.639C1055.27 744.223 1054.09 738.911 1054.09 732.701C1054.09 726.422 1055.27 721.109 1057.61 716.762C1060.03 712.346 1063.24 708.965 1067.24 706.62C1071.24 704.274 1075.52 703.101 1080.07 703.101C1083.52 703.101 1086.8 703.756 1089.9 705.067C1093.08 706.378 1095.87 708.31 1098.29 710.863C1100.7 713.416 1102.6 716.521 1103.98 720.178C1105.36 723.835 1106.05 728.009 1106.05 732.701C1106.05 738.911 1104.84 744.223 1102.43 748.639C1100.01 752.986 1096.84 756.333 1092.91 758.678C1088.97 760.955 1084.7 762.094 1080.07 762.094ZM1080.07 754.228C1083.32 754.228 1086.14 753.331 1088.56 751.537C1091.04 749.743 1092.98 747.225 1094.36 743.982C1095.74 740.739 1096.43 736.979 1096.43 732.701C1096.43 728.354 1095.74 724.559 1094.36 721.316C1092.98 718.073 1091.04 715.555 1088.56 713.761C1086.14 711.967 1083.32 711.07 1080.07 711.07C1076.83 711.07 1073.97 711.967 1071.48 713.761C1069.07 715.555 1067.17 718.073 1065.79 721.316C1064.48 724.559 1063.82 728.354 1063.82 732.701C1063.82 736.979 1064.48 740.739 1065.79 743.982C1067.17 747.225 1069.07 749.743 1071.48 751.537C1073.97 753.331 1076.83 754.228 1080.07 754.228ZM1118.62 760.748V704.55H1126.38L1127.31 712.726H1127.52C1130 710.035 1132.7 707.758 1135.59 705.895C1138.56 704.032 1141.7 703.101 1145.01 703.101C1149.36 703.101 1152.74 704.067 1155.15 705.999C1157.57 707.93 1159.36 710.552 1160.54 713.864C1163.5 710.69 1166.47 708.103 1169.44 706.102C1172.47 704.101 1175.72 703.101 1179.17 703.101C1184.89 703.101 1189.14 704.998 1191.9 708.793C1194.72 712.519 1196.14 717.97 1196.14 725.145V760.748H1186.72V726.387C1186.72 721.075 1185.86 717.245 1184.13 714.899C1182.48 712.553 1179.86 711.38 1176.27 711.38C1174.13 711.38 1171.89 712.105 1169.54 713.554C1167.26 714.934 1164.78 717.073 1162.09 719.971V760.748H1152.67V726.387C1152.67 721.075 1151.81 717.245 1150.08 714.899C1148.43 712.553 1145.8 711.38 1142.22 711.38C1140.08 711.38 1137.84 712.105 1135.49 713.554C1133.14 714.934 1130.69 717.073 1128.14 719.971V760.748H1118.62ZM1203.67 779.274L1234.72 678.572H1241.55L1210.61 779.274H1203.67ZM1260.14 762.094C1257.79 762.094 1255.9 761.611 1254.45 760.645C1253 759.679 1251.93 758.264 1251.24 756.402C1250.55 754.47 1250.2 752.193 1250.2 749.571V678.365H1259.73V750.192C1259.73 751.641 1259.97 752.676 1260.45 753.297C1261 753.918 1261.62 754.228 1262.31 754.228C1262.59 754.228 1262.86 754.228 1263.14 754.228C1263.42 754.159 1263.8 754.09 1264.28 754.021L1265.62 761.266C1264.93 761.473 1264.18 761.645 1263.35 761.783C1262.52 761.99 1261.45 762.094 1260.14 762.094ZM1299.07 762.094C1294.52 762.094 1290.24 760.955 1286.24 758.678C1282.24 756.333 1279.03 752.986 1276.61 748.639C1274.27 744.223 1273.1 738.911 1273.1 732.701C1273.1 726.422 1274.27 721.109 1276.61 716.762C1279.03 712.346 1282.24 708.965 1286.24 706.62C1290.24 704.274 1294.52 703.101 1299.07 703.101C1302.52 703.101 1305.8 703.756 1308.91 705.067C1312.08 706.378 1314.87 708.31 1317.29 710.863C1319.7 713.416 1321.6 716.521 1322.98 720.178C1324.36 723.835 1325.05 728.009 1325.05 732.701C1325.05 738.911 1323.84 744.223 1321.43 748.639C1319.01 752.986 1315.84 756.333 1311.91 758.678C1307.97 760.955 1303.7 762.094 1299.07 762.094ZM1299.07 754.228C1302.32 754.228 1305.14 753.331 1307.56 751.537C1310.04 749.743 1311.98 747.225 1313.36 743.982C1314.74 740.739 1315.43 736.979 1315.43 732.701C1315.43 728.354 1314.74 724.559 1313.36 721.316C1311.98 718.073 1310.04 715.555 1307.56 713.761C1305.14 711.967 1302.32 711.07 1299.07 711.07C1295.83 711.07 1292.97 711.967 1290.48 713.761C1288.07 715.555 1286.17 718.073 1284.79 721.316C1283.48 724.559 1282.82 728.354 1282.82 732.701C1282.82 736.979 1283.48 740.739 1284.79 743.982C1286.17 747.225 1288.07 749.743 1290.48 751.537C1292.97 753.331 1295.83 754.228 1299.07 754.228ZM1356.56 786.623C1352.01 786.623 1347.97 786.036 1344.45 784.863C1340.93 783.69 1338.21 781.965 1336.27 779.688C1334.34 777.48 1333.38 774.789 1333.38 771.616C1333.38 769.201 1334.1 766.855 1335.55 764.578C1337 762.37 1339.03 760.472 1341.66 758.885V758.368C1340.21 757.471 1339 756.264 1338.03 754.746C1337.07 753.228 1336.58 751.365 1336.58 749.157C1336.58 746.811 1337.24 744.741 1338.55 742.947C1339.93 741.153 1341.35 739.739 1342.79 738.704V738.29C1340.93 736.841 1339.24 734.805 1337.72 732.183C1336.21 729.561 1335.45 726.56 1335.45 723.179C1335.45 719.039 1336.41 715.486 1338.34 712.519C1340.28 709.483 1342.83 707.172 1346 705.585C1349.25 703.929 1352.73 703.101 1356.46 703.101C1358.11 703.101 1359.6 703.239 1360.91 703.515C1362.29 703.791 1363.46 704.136 1364.43 704.55H1383.99V711.794H1372.5C1373.88 713.105 1374.98 714.761 1375.81 716.762C1376.64 718.763 1377.05 720.971 1377.05 723.386C1377.05 727.388 1376.12 730.872 1374.26 733.839C1372.46 736.737 1370.01 738.98 1366.91 740.567C1363.8 742.153 1360.32 742.947 1356.46 742.947C1355.15 742.947 1353.73 742.774 1352.21 742.429C1350.76 742.084 1349.42 741.601 1348.18 740.981C1347.14 741.808 1346.28 742.74 1345.59 743.775C1344.9 744.81 1344.55 746.121 1344.55 747.708C1344.55 749.433 1345.24 750.882 1346.62 752.055C1348 753.228 1350.59 753.814 1354.39 753.814H1365.46C1371.95 753.814 1376.81 754.884 1380.05 757.023C1383.37 759.161 1385.02 762.542 1385.02 767.165C1385.02 770.615 1383.85 773.824 1381.5 776.79C1379.16 779.757 1375.84 782.138 1371.57 783.932C1367.36 785.726 1362.36 786.623 1356.56 786.623ZM1356.46 736.53C1358.66 736.53 1360.67 735.978 1362.46 734.874C1364.32 733.77 1365.77 732.218 1366.81 730.217C1367.91 728.216 1368.46 725.87 1368.46 723.179C1368.46 720.419 1367.91 718.073 1366.81 716.141C1365.77 714.14 1364.36 712.622 1362.56 711.587C1360.77 710.552 1358.73 710.035 1356.46 710.035C1354.32 710.035 1352.32 710.552 1350.45 711.587C1348.66 712.622 1347.21 714.106 1346.11 716.038C1345.07 717.97 1344.55 720.35 1344.55 723.179C1344.55 725.87 1345.11 728.216 1346.21 730.217C1347.31 732.218 1348.76 733.77 1350.56 734.874C1352.35 735.978 1354.32 736.53 1356.46 736.53ZM1357.91 780.102C1361.49 780.102 1364.6 779.55 1367.22 778.446C1369.91 777.342 1371.98 775.893 1373.43 774.1C1374.95 772.375 1375.71 770.581 1375.71 768.718C1375.71 766.027 1374.74 764.164 1372.81 763.129C1370.88 762.094 1368.05 761.576 1364.32 761.576H1354.59C1353.56 761.576 1352.39 761.507 1351.07 761.369C1349.83 761.3 1348.59 761.093 1347.35 760.748C1345.35 762.128 1343.9 763.646 1343 765.302C1342.1 767.027 1341.66 768.683 1341.66 770.27C1341.66 773.237 1343.07 775.617 1345.9 777.411C1348.8 779.205 1352.8 780.102 1357.91 780.102ZM1393.66 760.748V704.55H1403.18V760.748H1393.66ZM1398.42 692.958C1396.56 692.958 1395.04 692.406 1393.87 691.302C1392.76 690.129 1392.21 688.577 1392.21 686.645C1392.21 684.782 1392.76 683.298 1393.87 682.194C1395.04 681.09 1396.56 680.538 1398.42 680.538C1400.28 680.538 1401.8 681.09 1402.97 682.194C1404.15 683.298 1404.73 684.782 1404.73 686.645C1404.73 688.577 1404.15 690.129 1402.97 691.302C1401.8 692.406 1400.28 692.958 1398.42 692.958ZM1419.78 760.748V704.55H1427.54L1428.47 712.726H1428.68C1431.37 710.035 1434.2 707.758 1437.17 705.895C1440.2 704.032 1443.65 703.101 1447.52 703.101C1453.45 703.101 1457.8 704.998 1460.56 708.793C1463.32 712.519 1464.7 717.97 1464.7 725.145V760.748H1455.28V726.387C1455.28 721.075 1454.42 717.245 1452.69 714.899C1451.04 712.553 1448.35 711.38 1444.62 711.38C1441.72 711.38 1439.13 712.105 1436.86 713.554C1434.58 715.003 1432.06 717.142 1429.3 719.971V760.748H1419.78Z" fill="#1E1E1E"/>
</g>
<defs>
<clipPath id="clip0_2_549">
<rect width="1600" height="900" fill="white"/>
</clipPath>
</defs>
</svg>
