<svg width="1600" height="900" viewBox="0 0 1600 900" fill="none" xmlns="http://www.w3.org/2000/svg">
<g clip-path="url(#clip0_2_321)">
<rect width="1600" height="900" fill="white"/>
<path d="M479.028 278.747C475.64 278.747 472.68 283.958 471.107 286.349C464.453 296.463 460.06 308.245 455.631 319.441C440.043 358.845 423.803 399.799 420.081 442.296C419.224 452.079 418.522 462.103 418.761 471.929C419.022 482.671 423.526 493.863 427.136 503.883C434.126 523.281 448.026 544.234 465.099 556.139C481.109 567.302 500.827 573.853 520.313 574.847C543.502 576.03 564.326 569.258 582.993 555.729C618.387 530.076 646.638 489.12 653.41 445.437C659.745 404.576 664.179 357.398 634.975 323.72C611.329 296.45 578.083 278.324 543.209 270.144C526.897 266.318 511.415 269.797 495.323 273.285C489.837 274.474 484.484 275.92 479.119 277.564C477.339 278.109 477.87 278.694 478.208 280.386" stroke="#1E1E1E" stroke-width="7.39264" stroke-linecap="round" stroke-linejoin="round"/>
<path d="M582.264 360.681C580.873 360.681 583.725 356.503 583.994 356.129C587.211 351.661 592.977 347.751 597.786 345.205C602.561 342.677 607.103 343.508 611.76 345.751C613.165 346.427 615.043 346.849 616.176 347.981C616.533 348.339 616.677 349.277 616.677 348.391" stroke="#1E1E1E" stroke-width="7.39264" stroke-linecap="round" stroke-linejoin="round"/>
<path d="M564.239 498.33C561.368 495.459 562.42 500.936 562.6 502.062C563.606 508.351 566.808 515.95 572.614 519.268C577.592 522.113 595.374 523.468 595.374 514.717" stroke="#1E1E1E" stroke-width="7.39264" stroke-linecap="round" stroke-linejoin="round"/>
<path d="M488.04 156.666C482.061 156.666 482.879 165.757 484.126 169.593C485.553 173.984 488.783 177.648 489.952 182.111C491.498 188.013 488.738 194.068 487.403 199.726C486.109 205.212 487.848 208.724 493.457 210.56C496.281 211.484 503.663 210.959 505.702 213.564C507.346 215.665 502.242 222.394 502.242 224.989C502.242 230.245 509.977 232.24 513.895 233.501C525.493 237.234 505.719 247.11 509.07 254.804C510.782 258.736 516.735 258.083 519.767 260.357C522.524 262.425 518.448 268.538 517.537 270.736C516.065 274.285 514.456 280.024 517.673 283.117C521.085 286.398 523.495 285.855 523.09 291.583C522.923 293.946 518.178 307.424 522.453 307.424" stroke="#1E1E1E" stroke-width="7.39264" stroke-linecap="round" stroke-linejoin="round"/>
<path d="M575.71 564.696C574.857 565.549 573.872 566.452 572.887 567.109C572.876 567.116 574.555 567.145 574.89 567.154C576.836 567.21 578.661 567.901 580.626 567.974C585.671 568.16 590.726 569.941 595.783 569.567C600.02 569.253 603.845 568.348 608.119 569.203C620.12 571.603 632.399 572.989 644.625 571.661C653.454 570.701 662.386 571.632 671.208 572.252C684.601 573.194 697.951 572.982 711.356 572.252C721.046 571.725 731.232 570.559 740.897 571.706C749.522 572.729 758.042 574.451 766.706 575.165C773.556 575.73 780.542 576.167 787.417 576.167C789.825 576.167 791.969 575.92 793.244 578.215C794.769 580.961 790.547 585.099 792.197 587.456C793.026 588.639 792.015 596.044 792.015 597.788C792.015 601.542 791.196 604.836 791.196 608.485C791.196 610.8 792.115 615.884 788.738 614.494C785.961 613.35 787.463 614.982 785.824 615.45C784.482 615.833 782.575 615.495 781.181 615.495C778.135 615.495 775.319 616.645 772.396 617.498C767.972 618.788 762.414 618.931 757.83 618.727C736.192 617.765 714.551 617.953 692.875 617.953C671.804 617.953 650.761 616.151 629.695 617.771C618.969 618.596 608.186 618.773 597.422 618.773C593.422 618.773 579.852 615.267 578.987 619.592" stroke="#1E1E1E" stroke-width="7.39264" stroke-linecap="round" stroke-linejoin="round"/>
<path d="M569.155 616.314C569.155 615.258 566.203 613.856 568.791 613.856C573.946 613.856 579.812 612.941 584.905 612.036C599.109 609.51 613.77 609.228 628.147 610.761C643.55 612.404 658.94 614.313 674.303 616.132C682.668 617.123 690.823 618.344 699.111 620.002C711.88 622.555 724.988 623.166 737.757 625.691C751.416 628.393 765.405 627.549 779.179 629.014C787.849 629.937 796.463 630.934 805.125 632.064C812.291 632.999 812.311 633.203 810.45 640.439C807.629 651.411 806.937 662.912 805.307 674.123C805.134 675.307 805.774 679.661 803.804 679.358C799.099 678.634 794.415 678.077 789.648 677.765C759.825 675.809 729.941 675.279 700.067 674.305C664.827 673.158 629.64 670.487 594.555 667.113C585.248 666.219 576.041 665.475 566.697 665.475" stroke="#1E1E1E" stroke-width="7.39264" stroke-linecap="round" stroke-linejoin="round"/>
<path d="M569.155 572.89C565.088 572.89 564.068 596.204 563.875 598.38C563.176 606.266 565.058 613.58 565.058 621.231" stroke="#1E1E1E" stroke-width="7.39264" stroke-linecap="round" stroke-linejoin="round"/>
<path d="M466.738 566.335C466.738 564.025 462.582 572.188 462.231 572.89C459.008 579.337 456.226 586.969 453.674 593.828C451.465 599.765 450.55 606.346 448.985 612.491C447.017 620.217 444.293 627.826 442.613 635.615C439.038 652.188 436.989 669.458 434.783 686.277C431.251 713.21 424.707 743.447 430.687 770.532C432.02 776.571 433.825 783.434 437.241 788.558C438.024 789.731 442.977 796.331 442.977 795.75" stroke="#1E1E1E" stroke-width="7.39264" stroke-linecap="round" stroke-linejoin="round"/>
<path d="M569.155 663.836C566.762 661.443 567.897 665.786 568.336 666.795C572.909 677.314 573.982 690.547 575.346 701.844C577.348 718.438 578.987 735.42 578.987 752.143C578.987 758.291 574.829 775.205 579.806 780.182" stroke="#1E1E1E" stroke-width="7.39264" stroke-linecap="round" stroke-linejoin="round"/>
<path d="M432.325 805.582C429.235 805.582 441.7 803.548 442.704 803.397C463.776 800.211 484.462 795.277 505.702 793.292C525.669 791.425 545.69 793.292 565.695 793.292C568.617 793.292 580.299 793.98 572.432 790.833" stroke="#1E1E1E" stroke-width="7.39264" stroke-linecap="round" stroke-linejoin="round"/>
<path d="M442.977 803.124C438.933 803.124 438.407 811.88 438.061 814.139C436.488 824.405 436.382 834.84 435.603 845.183C434.238 863.299 432.325 880.767 432.325 898.986" stroke="#1E1E1E" stroke-width="7.39264" stroke-linecap="round" stroke-linejoin="round"/>
<path d="M570.794 797.388C570.646 797.094 569.381 794.846 569.201 795.476C567.312 802.088 570.396 812.064 571.158 818.646C572.401 829.381 572.345 839.93 572.432 850.736C572.57 867.843 575.271 883.409 579.806 899.806" stroke="#1E1E1E" stroke-width="7.39264" stroke-linecap="round" stroke-linejoin="round"/>
<path d="M489.679 889.154C486.644 890.672 483.885 892.788 482.76 896.164C482.317 897.493 482.06 899.64 482.715 896.892C483.818 892.258 484.16 887.65 485.673 883.055C487.428 877.727 489.383 872.39 491.318 867.123C491.757 865.927 492.902 861.504 493.958 860.659C494.652 860.104 497.349 870.11 497.508 870.674C500.295 880.566 504.176 890.162 507.704 899.806" stroke="#1E1E1E" stroke-width="7.39264" stroke-linecap="round" stroke-linejoin="round"/>
<path d="M806.763 566.335C806.763 560.18 802.539 569.615 801.847 571.296C799.759 576.368 797.915 581.948 797.75 587.456C797.649 590.843 797.13 594.127 796.567 597.47C795.832 601.833 793.274 608.629 795.065 613.037C797.886 619.982 808.9 619.015 814.41 616.997C825.275 613.019 834.779 598.146 834.712 586.636C834.646 575.457 826.435 563.65 814.592 563.285C804.988 562.99 803.486 569.928 803.486 577.806" stroke="#1E1E1E" stroke-width="7.39264" stroke-linecap="round" stroke-linejoin="round"/>
<path d="M824.789 621.23C818.325 621.23 815.464 626.667 813.5 632.246C807.708 648.699 808.974 668.377 824.789 678.584C845.303 691.825 855.921 659.63 853.556 644.354C851.068 628.281 834.439 608.323 819.873 624.508" stroke="#1E1E1E" stroke-width="7.39264" stroke-linecap="round" stroke-linejoin="round"/>
<path d="M980.463 357.404C978.314 355.254 979.536 364.429 979.461 366.052C977.774 402.606 973.268 438.972 969.402 475.343C966.326 504.276 961.917 533.208 962.483 562.375C962.519 564.231 963.785 584.942 967.353 577.806" stroke="#1E1E1E" stroke-width="7.39264" stroke-linecap="round" stroke-linejoin="round"/>
<path d="M988.656 354.126C986.793 352.263 990.312 352.526 991.478 352.488C1006.07 352.007 1020.58 347.749 1034.9 345.296C1064.59 340.212 1094.99 337.367 1125.03 335.646C1169.13 333.119 1212.62 337.078 1256.53 340.607C1292.43 343.491 1328.28 346.756 1364.14 350.03C1386.87 352.104 1409.61 355.636 1432.46 355.765C1432.62 355.766 1443.84 355.764 1443.84 355.765C1443.84 356.388 1442.8 356.551 1442.57 357.13C1440.94 361.299 1440.7 366.337 1440.02 370.695C1436.59 392.637 1434.87 414.495 1434.38 436.697C1433.7 466.866 1428.62 496.304 1425.96 526.278C1424.76 539.659 1426.45 553.146 1423.13 566.289C1419.15 582.091 1411.7 596.961 1411.43 613.492C1411.3 622.081 1413.64 629.825 1413.85 638.3C1414.06 646.971 1413.28 655.827 1414.71 664.428C1415.17 667.188 1417.1 668.027 1415.53 663.836" stroke="#1E1E1E" stroke-width="7.39264" stroke-linecap="round" stroke-linejoin="round"/>
<path d="M980.463 569.612C977.122 582.975 979.142 597.39 977.823 611.034C977.024 619.302 975.067 627.526 974.864 635.842C974.694 642.823 976.23 649.665 978.005 656.371C980.8 666.932 984.708 670.338 995.848 669.936C1024.02 668.917 1052.12 667.25 1080.33 668.297C1122.29 669.854 1163.93 673.597 1205.96 673.668C1254.55 673.751 1303.06 673.433 1351.62 671.62C1366.4 671.068 1381.18 670.698 1395.96 670.209C1402.51 669.992 1410.13 670.296 1416.49 668.297C1419.78 667.263 1420.78 664.558 1417.17 663.836" stroke="#1E1E1E" stroke-width="7.39264" stroke-linecap="round" stroke-linejoin="round"/>
<path d="M944.412 735.938C942.783 734.309 940.701 739.041 940.497 739.579C935.755 752.117 936.373 767.097 935.217 780.273C933.687 797.719 931.137 815.055 926.569 831.983C924.647 839.103 922.383 845.799 921.47 853.103" stroke="#1E1E1E" stroke-width="7.39264" stroke-linecap="round" stroke-linejoin="round"/>
<path d="M930.483 743.312C930.483 739.727 936.903 740.871 939.041 740.854C973.326 740.574 1007.69 740.546 1041.91 742.857C1091.68 746.218 1141.17 752.605 1190.85 756.877C1236.27 760.782 1281.73 764.496 1327.23 767.482C1329.92 767.659 1357.09 767.278 1354.17 774.674C1352.43 779.082 1348.44 782.884 1345.75 786.691C1340.6 793.977 1336.08 801.7 1332.1 809.678C1325.22 823.423 1321.01 836.773 1321.35 852.193C1321.48 858.125 1323.7 865.775 1320.49 871.129" stroke="#1E1E1E" stroke-width="7.39264" stroke-linecap="round" stroke-linejoin="round"/>
<path d="M960.799 858.839C961.274 858.363 962.11 858.013 962.71 857.837C972.705 854.912 984.638 856.415 994.847 856.335C1052.32 855.884 1109.81 855.502 1167.27 854.332C1213.1 853.399 1258.9 853.385 1304.74 853.103C1308.83 853.078 1322.72 855.256 1321.31 848.187" stroke="#1E1E1E" stroke-width="7.39264" stroke-linecap="round" stroke-linejoin="round"/>
<path d="M1448.31 776.086C1445.72 776.086 1442.75 778.486 1440.89 779.955C1432.91 786.245 1429.31 794.64 1426.23 804.08C1420.82 820.657 1416.5 849.851 1440.61 853.513C1463.99 857.065 1472.25 825.067 1473.34 808.04C1474.13 795.755 1471.28 775.849 1458.77 769.44C1451.77 765.851 1447.8 771.038 1445.85 776.905" stroke="#1E1E1E" stroke-width="7.39264" stroke-linecap="round" stroke-linejoin="round"/>
<path d="M1433.56 799.846C1431.73 799.846 1429.96 799.707 1428.19 799.209C1428.13 799.193 1438.25 797.622 1440.29 797.388C1442.4 797.147 1467.37 795.148 1462.23 790.014" stroke="#1E1E1E" stroke-width="7.39264" stroke-linecap="round" stroke-linejoin="round"/>
<path d="M1453.22 777.724C1448.8 775.513 1449.94 792.592 1449.94 795.75" stroke="#1E1E1E" stroke-width="7.39264" stroke-linecap="round" stroke-linejoin="round"/>
<path d="M1005.04 387.719C1001.49 387.719 1005.06 381.448 1005.68 380.345C1007.68 376.787 1005.79 388.51 1005.95 392.59C1006.67 410.942 1011.03 428.719 1013.1 446.894C1017.41 484.842 1016.51 523.123 1016.51 561.237C1016.51 573.359 1016.39 585.458 1017.15 597.561C1017.36 600.814 1017.55 603.539 1018.79 606.483C1019.59 608.384 1018.93 611.032 1019.47 613.083C1020.62 617.416 1022.49 622.535 1024.71 626.42C1026.28 629.179 1028.76 629.583 1031.72 629.378C1038.78 628.891 1045.64 626.327 1052.79 625.782C1067.13 624.692 1081.62 625.152 1095.99 624.508C1116.97 623.568 1137.99 623.285 1158.99 622.869C1204.23 621.973 1248.63 622.981 1293.72 626.784C1316.18 628.678 1338.24 632.914 1360.45 636.616C1364.72 637.327 1370.89 638.844 1375.25 638.3C1376.91 638.093 1377.68 627.603 1377.84 626.602C1380.47 610.429 1380.9 593.741 1382.58 577.442C1385 553.872 1387.72 530.366 1390.54 506.842C1393.24 484.397 1394.79 462.002 1395.87 439.429C1396.32 429.96 1397.5 417.93 1390.95 410.023C1388 406.46 1384.4 405.702 1380.3 404.06C1373.37 401.289 1366.52 398.149 1359.27 396.277C1342.76 392.011 1325.28 390.818 1308.43 388.539C1280.04 384.699 1251.36 384.015 1222.8 381.984C1172.51 378.406 1122.17 371.678 1071.68 372.652C1053.86 372.997 1036.08 374.275 1018.24 373.608C1013.55 373.433 999.525 372.152 1004.22 372.152" stroke="#1E1E1E" stroke-width="7.39264" stroke-linecap="round" stroke-linejoin="round"/>
<path d="M1130.4 440.157C1128.2 440.157 1127.94 440.421 1127.94 442.797C1127.94 454.751 1125.09 466.487 1125.53 478.484C1125.85 487.095 1128.96 488.357 1137.14 488.498C1143.05 488.6 1149.12 488.837 1154.98 489.681C1157.56 490.052 1164.25 493.031 1166.73 491.411C1168.08 490.526 1167.27 485.431 1167.36 484.174C1167.89 476.854 1169.87 469.535 1171.37 462.37C1171.99 459.399 1177.35 446.316 1174.1 443.07C1169.67 438.638 1134.5 442.085 1134.5 444.254" stroke="#1E1E1E" stroke-width="7.39264" stroke-linecap="round" stroke-linejoin="round"/>
<path d="M1189.39 441.795C1189.39 430.394 1185.99 464.442 1186.12 475.844C1186.15 479.158 1186.87 483.237 1189.53 485.63C1191.47 487.378 1195.82 486.842 1198.13 486.859C1205.08 486.911 1212.03 486.803 1218.98 486.859C1225.3 486.91 1228.45 489.888 1227.49 482.626C1225.9 470.505 1229.71 459.158 1231 447.258C1231.82 439.684 1220.19 441.665 1215.43 441.886C1208.75 442.197 1202.11 443.322 1195.49 444.253C1191.75 444.78 1188.37 444.681 1187.76 448.35" stroke="#1E1E1E" stroke-width="7.39264" stroke-linecap="round" stroke-linejoin="round"/>
<path d="M1155.8 516.355C1154.44 516.355 1153.61 514.061 1153.16 516.082C1150.98 525.908 1150.15 536.018 1148.88 545.988C1148.26 550.896 1148.72 553.251 1153.84 554.409C1161.67 556.176 1171.52 555.111 1179.38 553.863C1184.17 553.103 1183.63 546.561 1185.3 542.756C1188.12 536.309 1189.71 531.695 1189.35 524.549C1188.92 515.896 1182.92 513.882 1175.06 512.759C1169.82 512.011 1157.87 512.28 1163.99 519.633" stroke="#1E1E1E" stroke-width="7.39264" stroke-linecap="round" stroke-linejoin="round"/>
<path d="M1209.88 507.343C1207.26 504.726 1208.24 509.521 1208.24 511.348C1208.24 521.324 1206.21 530.825 1205.83 540.708C1205.34 553.367 1228.54 551.637 1236.73 548.127C1245.74 544.269 1251.9 527.299 1252.76 518.495C1253.4 511.88 1239.26 510.57 1235.23 509.937C1227.57 508.736 1214.43 507.448 1209.06 513.897" stroke="#1E1E1E" stroke-width="7.39264" stroke-linecap="round" stroke-linejoin="round"/>
<path d="M432.325 379.526C434.124 383.123 435.623 383.706 430.687 381.802C425.75 379.898 421.02 377.25 415.574 377.25C407.395 377.25 402.819 384.558 400.098 391.406C394.541 405.396 396.305 426.447 409.748 435.514C414.151 438.483 420.855 442.064 420.855 434.421" stroke="#1E1E1E" stroke-width="7.39264" stroke-linecap="round" stroke-linejoin="round"/>
<path d="M932.122 771.169C932.122 771.103 963.618 772.567 965.988 772.626C1018.9 773.952 1071.81 772.894 1124.62 776.905C1174.55 780.697 1224.15 788.374 1274.15 791.152C1282.94 791.641 1292.01 792.141 1300.82 791.607C1304.19 791.404 1296.92 790.834 1295.91 790.834" stroke="#1E1E1E" stroke-width="7.39264" stroke-linecap="round" stroke-linejoin="round"/>
<path d="M948.509 799.027C948.509 786.994 1114.61 802.967 1127.35 804.034C1177.83 808.26 1228.13 814.278 1278.52 819.328C1287.66 820.244 1296.8 821.268 1305.97 821.923C1307.45 822.029 1300.79 821.968 1300 821.968" stroke="#1E1E1E" stroke-width="7.39264" stroke-linecap="round" stroke-linejoin="round"/>
<path d="M950.147 832.62C949.565 832.037 948.803 831.753 948.099 831.345C945.666 829.936 953.437 829.272 956.247 829.16C1006.24 827.168 1056.39 827.041 1106.41 828.205C1173.44 829.763 1374.2 842.285 1307.38 836.717" stroke="#1E1E1E" stroke-width="7.39264" stroke-linecap="round" stroke-linejoin="round"/>
<path d="M1021.43 735.119C1019.31 733.707 1016.93 732.897 1015.83 735.983C1014.64 739.344 1014.86 743.378 1014.69 746.862C1014.29 755.274 1013.78 763.677 1013.24 772.08C1011.56 797.879 1010.17 823.115 1017.33 848.187" stroke="#1E1E1E" stroke-width="7.39264" stroke-linecap="round" stroke-linejoin="round"/>
<path d="M1055.84 758.06C1055.84 757.392 1056.01 755.91 1055.39 755.466C1055.13 755.285 1053.84 771.151 1053.79 772.262C1052.81 795.94 1053.3 819.73 1055.84 843.271" stroke="#1E1E1E" stroke-width="7.39264" stroke-linecap="round" stroke-linejoin="round"/>
<path d="M1149.25 762.157C1147.72 774.38 1147.49 786.582 1147.2 798.891C1146.8 815.83 1143.82 835.392 1150.07 851.465" stroke="#1E1E1E" stroke-width="7.39264" stroke-linecap="round" stroke-linejoin="round"/>
<path d="M1209.88 770.35C1209.88 794.276 1203.63 819.829 1209.88 843.271" stroke="#1E1E1E" stroke-width="7.39264" stroke-linecap="round" stroke-linejoin="round"/>
<path d="M1273.79 779.363C1280.3 776.107 1282.86 777.972 1282.94 785.826C1283.03 795.363 1280.69 804.857 1279.25 814.23C1277.81 823.558 1277.61 832.266 1277.88 841.632" stroke="#1E1E1E" stroke-width="7.39264" stroke-linecap="round" stroke-linejoin="round"/>
<path d="M607.664 387.719C607.664 386.207 606.845 387.672 606.845 388.538" stroke="#1E1E1E" stroke-width="7.39264" stroke-linecap="round" stroke-linejoin="round"/>
<path d="M628.967 426.228C627.17 426.228 634.992 439.917 635.521 440.976C636.791 443.515 640.292 448.059 637.16 449.625C636.009 450.2 631.375 452.422 633.063 453.266" stroke="#1E1E1E" stroke-width="7.39264" stroke-linecap="round" stroke-linejoin="round"/>
<path d="M506.885 363.958C504.714 363.958 508.589 360.274 508.979 359.862C512.546 356.097 515.213 353.187 520.359 351.031C529.083 347.375 537.599 345.114 547.033 345.114C548.486 345.114 553.681 344.106 552.768 345.933" stroke="#1E1E1E" stroke-width="7.39264" stroke-linecap="round" stroke-linejoin="round"/>
<path d="M540.478 388.538C538.658 388.538 538.452 388.629 538.02 386.9" stroke="#1E1E1E" stroke-width="7.39264" stroke-linecap="round" stroke-linejoin="round"/>
<path d="M450.351 183.704C442.199 175.551 446.226 193.326 449.304 196.404C451.852 198.951 455.406 200.278 457.725 203.095C461.372 207.524 461.892 213.891 461.64 219.391C461.273 227.372 452.865 241.903 462.459 246.429C471.504 250.695 476.419 255.055 477.207 265.456C477.828 273.651 476.083 281.076 485.309 284.482C495.807 288.359 489.281 301.221 486.402 308.698C484.689 313.146 478.279 324.63 486.402 324.63" stroke="#1E1E1E" stroke-width="7.39264" stroke-linecap="round" stroke-linejoin="round"/>
<path d="M534.743 172.233C530.824 172.233 525.491 170.498 521.906 172.688C520.238 173.708 529.579 181.498 530.464 183.249C533.578 189.408 531.238 197.815 535.334 203.277C539.525 208.864 549.008 207.894 552.404 214.201C556.652 222.09 543.046 234.046 540.888 241.194C538.599 248.776 552.984 249.776 556.137 254.713C558.205 257.952 557.22 262.689 556.683 266.184C555.539 273.616 553.396 280.787 551.63 288.078C550.715 291.859 548.807 297.543 550.629 301.37C552.906 306.151 561.83 304.696 565.878 304.966" stroke="#1E1E1E" stroke-width="7.39264" stroke-linecap="round" stroke-linejoin="round"/>
<path d="M241.979 645.235C235.989 653.221 239.901 662.861 243.871 671.214C247.752 679.382 250.857 689.964 256.86 696.815C264.34 705.351 276.075 711.277 286.812 714.345C297.227 717.321 308.735 719.894 319.602 719.894C331.109 719.894 342.882 717.307 354.346 716.237C361.438 715.575 370.397 712.362 375.912 717.876" stroke="#1E1E1E" stroke-width="7.39264" stroke-linecap="round" stroke-linejoin="round"/>
<path d="M370.237 683.825C356.135 683.825 394.583 698.075 406.999 704.76C409.405 706.056 393.425 722.112 391.424 724.812C387.721 729.809 385.204 735.309 383.479 741.27C383.139 742.443 382.722 746.042 382.722 742.847" stroke="#1E1E1E" stroke-width="7.39264" stroke-linecap="round" stroke-linejoin="round"/>
<path d="M750.992 127.597C749.372 125.976 748.321 125.149 747.758 127.853C746.706 132.902 747.338 138.39 747.091 143.511C746.644 152.74 745.751 161.98 744.934 171.182C743.293 189.691 740.545 208.048 738.979 226.576C737.827 240.213 737.006 254.079 735.283 267.646C732.628 288.558 735.983 308.376 737.131 329.046C737.359 333.15 738.979 336.864 738.979 341.11C738.979 348.222 738.055 355.285 738.055 362.313C738.055 366.109 737.879 369.345 737.08 372.94C735.856 378.446 730.375 383.669 728.814 389.522C727.815 393.269 725.184 396.42 724.399 400.2C723.888 402.664 723.98 406.228 723.065 408.517C721.677 411.985 725.662 412.862 724.656 416.885C723.501 421.504 724.194 424.879 724.194 428.847C724.194 432.849 715.78 440.332 724.194 441.578C731.425 442.65 738.619 436.938 744.986 434.391C753.537 430.971 761.464 425.529 768.499 419.606C781.273 408.848 789.646 393.933 802.741 383.567C809.695 378.062 815.949 371.624 822.506 365.65C827.805 360.821 833.186 358.972 839.345 355.793C856.767 346.801 877.512 345.925 896.535 343.369C925.359 339.497 954.284 336.924 983.142 333.461C1023.75 328.588 1064.48 326.501 1105.33 324.015C1129.22 322.56 1153.19 324.834 1176.99 321.859C1181.89 321.247 1189.04 321.834 1191.32 316.52C1197.69 301.636 1202.78 286.018 1208.41 270.829C1212.39 260.086 1214.19 248.773 1218.11 238.024C1221.66 228.321 1224.41 218.238 1226.38 208.094C1229.24 193.364 1228.74 178.586 1228.74 163.636C1228.74 149.361 1226.47 135.413 1225.92 121.179C1225.29 104.78 1225.21 90.6652 1207.28 85.4997C1194.91 81.9358 1180.43 81.8842 1167.65 81.3926C1147.58 80.6206 1127.63 78.023 1107.53 77.7477C1045.07 76.8919 982.615 75.5746 920.15 74.8727C897.707 74.6206 875.297 74 852.846 74C839.984 74 828.253 74.2395 815.678 76.9776C796.786 81.0911 777.823 82.3167 758.488 82.3167C742.528 82.3167 734.384 91.2578 727.172 104.7C721.727 114.846 726.042 124.608 726.042 134.989" stroke="#1E1E1E" stroke-width="7.39264" stroke-linecap="round" stroke-linejoin="round"/>
<path d="M844.687 146.618L849.4 146.205L852.286 179.198L847.573 179.611L844.687 146.618ZM835.225 148.395L839.879 147.988L842.673 179.921L838.018 180.328L835.225 148.395ZM828.143 174.661L839.69 173.651L839.994 177.127L828.447 178.137L828.143 174.661ZM818.322 171.662L823.035 171.249L823.932 181.501L819.219 181.913L818.322 171.662ZM806.945 174.616L806.079 170.833C807.886 170.675 809.948 170.495 812.266 170.292C814.58 170.05 816.99 169.78 819.497 169.481C822 169.143 824.481 168.768 826.938 168.355C829.431 167.9 831.762 167.399 833.931 166.853L834.578 170.18C831.609 171.073 828.449 171.825 825.098 172.434C821.744 173.005 818.48 173.468 815.306 173.825C812.167 174.14 809.38 174.403 806.945 174.616ZM816.636 184.276L821.467 183.854L821.9 188.803L848.058 186.514L847.625 181.565L852.457 181.142L854.003 198.817L818.182 201.951L816.636 184.276ZM822.235 192.632L822.673 197.64L848.832 195.351L848.393 190.344L822.235 192.632ZM818.752 150.786C822.208 150.484 825.059 150.947 827.303 152.175C829.548 153.404 830.777 155.236 830.99 157.671C831.203 160.106 830.311 162.123 828.314 163.723C826.316 165.322 823.59 166.273 820.133 166.576C816.677 166.878 813.807 166.417 811.523 165.192C809.278 163.963 808.049 162.132 807.836 159.696C807.623 157.261 808.515 155.244 810.512 153.644C812.549 152.041 815.295 151.089 818.752 150.786ZM819.056 154.262C816.896 154.451 815.202 154.995 813.974 155.894C812.747 156.793 812.193 157.93 812.314 159.305C812.43 160.64 813.171 161.644 814.536 162.316C815.901 162.988 817.664 163.23 819.824 163.041C821.984 162.852 823.678 162.308 824.905 161.409C826.133 160.51 826.688 159.393 826.571 158.057C826.451 156.683 825.708 155.659 824.344 154.987C822.979 154.315 821.216 154.073 819.056 154.262ZM882.651 147.927L886.657 147.576L887.492 157.121C887.75 160.066 887.629 162.986 887.131 165.879C886.671 168.769 885.882 171.51 884.763 174.101C883.644 176.692 882.265 179.029 880.627 181.112C878.988 183.195 877.159 184.898 875.137 186.223L871.787 182.538C873.665 181.385 875.357 179.911 876.862 178.117C878.403 176.28 879.708 174.227 880.776 171.956C881.844 169.686 882.607 167.324 883.065 164.869C883.559 162.372 883.699 159.906 883.486 157.471L882.651 147.927ZM883.535 147.849L887.482 147.504L888.317 157.048C888.523 159.405 889.062 161.713 889.932 163.972C890.842 166.227 892.014 168.321 893.45 170.254C894.886 172.186 896.479 173.887 898.23 175.357C900.021 176.823 901.9 177.945 903.868 178.722L901.203 182.874C899.029 181.995 896.977 180.71 895.048 179.019C893.158 177.324 891.443 175.357 889.901 173.117C888.395 170.835 887.151 168.371 886.167 165.726C885.22 163.038 884.621 160.261 884.37 157.394L883.535 147.849ZM905.285 141.316L910.175 140.888L914.84 194.207L909.95 194.635L905.285 141.316ZM910.942 162.549L920.781 161.688L921.147 165.871L911.308 166.732L910.942 162.549ZM960.779 136.461L965.669 136.033L970.339 189.411L965.449 189.839L960.779 136.461ZM937.927 142.616C940.559 142.386 942.943 142.949 945.08 144.305C947.253 145.619 949.031 147.621 950.414 150.31C951.837 152.995 952.713 156.223 953.043 159.994C953.373 163.765 953.07 167.096 952.136 169.988C951.241 172.876 949.839 175.175 947.931 176.886C946.062 178.593 943.811 179.562 941.18 179.792C938.548 180.022 936.144 179.461 933.968 178.107C931.791 176.754 929.992 174.735 928.57 172.049C927.187 169.36 926.33 166.13 926 162.36C925.67 158.589 925.953 155.26 926.848 152.371C927.782 149.48 929.205 147.198 931.117 145.527C933.026 143.816 935.296 142.846 937.927 142.616ZM938.309 146.976C936.541 147.13 935.041 147.855 933.809 149.15C932.612 150.403 931.736 152.142 931.178 154.367C930.618 156.553 930.463 159.08 930.713 161.947C930.964 164.815 931.557 167.296 932.493 169.391C933.425 171.446 934.59 173.007 935.989 174.072C937.428 175.133 939.031 175.587 940.798 175.432C942.526 175.281 943.987 174.559 945.18 173.268C946.413 171.972 947.309 170.232 947.87 168.045C948.427 165.82 948.58 163.274 948.329 160.406C948.079 157.539 947.487 155.078 946.555 153.022C945.62 150.927 944.435 149.368 943 148.346C941.601 147.281 940.037 146.824 938.309 146.976ZM983.616 163.434L1020.2 160.233L1020.55 164.18L983.962 167.381L983.616 163.434ZM978.621 177.585L1026.93 173.358L1027.29 177.423L978.976 181.65L978.621 177.585ZM981.503 139.278L1017.56 136.124L1017.91 140.13L986.802 142.852L988.668 164.179L983.719 164.612L981.503 139.278ZM985.956 150.821L1017.42 148.069L1017.76 152.016L986.301 154.769L985.956 150.821ZM1051.19 149.448L1061.21 148.571L1061.56 152.578L1051.54 153.454L1051.19 149.448ZM1068.35 127.049L1073.06 126.637L1077.73 179.956L1073.02 180.368L1068.35 127.049ZM1057.84 129.097L1062.5 128.689L1066.83 178.179L1062.17 178.586L1057.84 129.097ZM1040.11 134.032C1042.43 133.829 1044.5 134.4 1046.31 135.745C1048.17 137.087 1049.7 139.11 1050.88 141.817C1052.07 144.523 1052.83 147.761 1053.16 151.532C1053.49 155.342 1053.31 158.682 1052.61 161.553C1051.91 164.425 1050.76 166.702 1049.17 168.385C1047.61 170.025 1045.67 170.947 1043.36 171.149C1041.12 171.345 1039.07 170.772 1037.21 169.431C1035.39 168.047 1033.88 166.002 1032.7 163.296C1031.51 160.589 1030.75 157.331 1030.42 153.521C1030.09 149.751 1030.27 146.43 1030.97 143.559C1031.67 140.688 1032.8 138.432 1034.35 136.792C1035.95 135.148 1037.87 134.228 1040.11 134.032ZM1040.51 138.569C1039.13 138.689 1037.98 139.363 1037.06 140.592C1036.14 141.82 1035.5 143.499 1035.13 145.629C1034.76 147.759 1034.7 150.257 1034.95 153.125C1035.2 155.992 1035.7 158.462 1036.43 160.535C1037.16 162.568 1038.09 164.11 1039.21 165.16C1040.33 166.209 1041.58 166.674 1042.95 166.554C1044.37 166.43 1045.54 165.754 1046.46 164.526C1047.42 163.294 1048.08 161.613 1048.45 159.483C1048.82 157.314 1048.87 154.796 1048.62 151.929C1048.37 149.061 1047.88 146.611 1047.15 144.577C1046.41 142.544 1045.47 141.004 1044.31 139.958C1043.19 138.908 1041.92 138.445 1040.51 138.569ZM814.27 261.059L862.463 256.843L862.809 260.79L814.615 265.007L814.27 261.059ZM819.97 252.249L855.968 249.1L856.313 253.047L820.316 256.197L819.97 252.249ZM818.898 239.995L854.366 236.892L854.711 240.839L824.075 243.519L825.075 254.949L820.243 255.372L818.898 239.995ZM820.855 269.151L856.971 265.991L858.064 278.481L826.838 281.213L827.426 287.93L822.654 288.347L821.746 277.978L852.972 275.246L852.534 270.238L821.19 272.98L820.855 269.151ZM822.54 287.051L860.129 283.762L860.469 287.651L822.88 290.939L822.54 287.051ZM879.724 237.048C882.317 236.821 884.681 237.386 886.819 238.742C888.952 240.06 890.691 242.065 892.035 244.757C893.418 247.446 894.274 250.676 894.604 254.447C894.934 258.217 894.651 261.547 893.756 264.435C892.901 267.32 891.538 269.616 889.669 271.323C887.8 273.03 885.569 273.997 882.977 274.224C880.424 274.447 878.059 273.882 875.883 272.529C873.745 271.173 871.985 269.15 870.602 266.461C869.259 263.768 868.422 260.537 868.092 256.766C867.762 252.995 868.025 249.668 868.881 246.783C869.776 243.894 871.16 241.616 873.032 239.949C874.941 238.238 877.171 237.271 879.724 237.048ZM880.106 241.408C878.417 241.555 876.976 242.275 875.783 243.567C874.586 244.819 873.709 246.558 873.152 248.784C872.631 250.967 872.495 253.492 872.746 256.359C872.997 259.226 873.571 261.709 874.467 263.807C875.398 265.863 876.564 267.423 877.963 268.488C879.362 269.553 880.906 270.012 882.595 269.864C884.324 269.713 885.784 268.991 886.977 267.7C888.17 266.408 889.028 264.671 889.549 262.488C890.106 260.262 890.26 257.716 890.009 254.849C889.758 251.981 889.166 249.52 888.235 247.464C887.339 245.366 886.193 243.804 884.797 242.778C883.398 241.713 881.834 241.256 880.106 241.408ZM904.167 230.754L908.998 230.331L913.668 283.709L908.837 284.132L904.167 230.754ZM892.807 252.229L908.125 250.889L908.471 254.836L893.153 256.176L892.807 252.229ZM954.064 226.388L958.955 225.96L963.614 279.22L958.724 279.648L954.064 226.388ZM959.55 247.696L969.33 246.84L969.686 250.906L959.906 251.761L959.55 247.696ZM940.955 233.294L945.727 232.876C946.17 237.943 945.77 242.866 944.526 247.645C943.278 252.385 941.059 256.873 937.867 261.11C934.673 265.308 930.314 269.093 924.791 272.465L921.751 268.932C926.483 266.024 930.335 262.778 933.307 259.194C936.314 255.567 938.446 251.66 939.702 247.473C940.994 243.244 941.434 238.773 941.022 234.06L940.955 233.294ZM921.277 235.015L943.429 233.077L943.785 237.142L921.633 239.081L921.277 235.015ZM977.286 225.188L982.117 224.765L982.555 229.773L1008.36 227.515L1007.92 222.507L1012.75 222.085L1014.29 239.701L978.827 242.804L977.286 225.188ZM982.88 233.485L983.323 238.551L1009.13 236.294L1008.69 231.227L982.88 233.485ZM972.913 248.486L1021.05 244.275L1021.39 248.222L973.258 252.433L972.913 248.486ZM993.868 239.647L998.699 239.225L999.415 247.414L994.584 247.837L993.868 239.647ZM979.472 256.283L1015.59 253.123L1016.63 265.024L985.403 267.756L985.976 274.296L981.203 274.713L980.322 264.639L1011.55 261.907L1011.14 257.252L979.797 259.995L979.472 256.283ZM981.08 273.299L1018.67 270.011L1019 273.84L981.415 277.129L981.08 273.299ZM1060.63 217.065L1065.52 216.637L1070.19 269.956L1065.3 270.384L1060.63 217.065ZM1065.86 238.752L1075.4 237.917L1075.76 241.982L1066.21 242.817L1065.86 238.752ZM1035.63 225.07L1040.17 224.673C1040.44 227.855 1040.52 231.034 1040.41 234.21C1040.29 237.387 1039.89 240.529 1039.21 243.635C1038.57 246.739 1037.57 249.775 1036.21 252.744C1034.88 255.67 1033.13 258.514 1030.96 261.277L1026.83 258.848C1028.79 256.381 1030.41 253.825 1031.68 251.181C1032.99 248.533 1033.98 245.815 1034.65 243.026C1035.31 240.236 1035.72 237.391 1035.86 234.489C1036 231.548 1035.94 228.586 1035.68 225.6L1035.63 225.07ZM1025.67 225.941L1037.46 224.91L1037.81 228.976L1026.03 230.007L1025.67 225.941ZM1050.18 223.797L1054.72 223.4C1055 226.621 1055.13 229.934 1055.11 233.339C1055.13 236.741 1054.86 240.169 1054.29 243.622C1053.76 247.072 1052.87 250.475 1051.62 253.829C1050.41 257.181 1048.69 260.398 1046.47 263.482L1042.29 261.117C1044.34 258.326 1045.94 255.415 1047.1 252.385C1048.3 249.351 1049.16 246.268 1049.68 243.135C1050.19 239.964 1050.47 236.793 1050.51 233.623C1050.59 230.45 1050.49 227.332 1050.22 224.268L1050.18 223.797ZM1041.87 224.524L1052.13 223.627L1052.48 227.692L1042.23 228.589L1041.87 224.524ZM1087.2 250.717C1086.75 248.698 1086.71 246.861 1087.08 245.206C1087.49 243.548 1088.1 242.029 1088.93 240.651C1089.76 239.272 1090.62 237.951 1091.5 236.687C1092.41 235.419 1093.16 234.167 1093.72 232.93C1094.32 231.65 1094.56 230.304 1094.43 228.89C1094.33 227.711 1094 226.672 1093.45 225.77C1092.89 224.829 1092.12 224.125 1091.13 223.658C1090.13 223.151 1088.93 222.96 1087.52 223.083C1086.06 223.211 1084.72 223.665 1083.48 224.446C1082.24 225.188 1081.16 226.212 1080.25 227.519L1076.93 224.959C1078.17 223.268 1079.69 221.829 1081.48 220.643C1083.28 219.457 1085.36 218.761 1087.71 218.554C1089.95 218.358 1091.93 218.62 1093.66 219.34C1095.38 220.021 1096.76 221.107 1097.8 222.599C1098.84 224.091 1099.46 225.917 1099.65 228.078C1099.8 229.845 1099.59 231.447 1099 232.884C1098.41 234.32 1097.66 235.692 1096.75 236.999C1095.83 238.306 1094.94 239.65 1094.07 241.032C1093.2 242.375 1092.53 243.799 1092.07 245.304C1091.61 246.769 1091.57 248.434 1091.97 250.299L1087.2 250.717ZM1090.94 264.281C1089.88 264.374 1088.95 264.08 1088.13 263.399C1087.32 262.679 1086.86 261.729 1086.76 260.551C1086.65 259.294 1086.93 258.26 1087.61 257.448C1088.29 256.637 1089.16 256.185 1090.23 256.092C1091.32 255.996 1092.28 256.288 1093.09 256.969C1093.94 257.647 1094.42 258.614 1094.53 259.871C1094.64 261.049 1094.33 262.065 1093.61 262.92C1092.93 263.731 1092.04 264.185 1090.94 264.281Z" fill="#1E1E1E"/>
<path d="M143.027 547.73H147.049V557.311C147.049 560.268 146.674 563.166 145.925 566.005C145.215 568.843 144.19 571.505 142.85 573.989C141.509 576.473 139.932 578.681 138.119 580.613C136.305 582.544 134.333 584.082 132.204 585.226L129.188 581.263C131.16 580.277 132.973 578.957 134.629 577.301C136.325 575.605 137.803 573.673 139.065 571.505C140.326 569.336 141.292 567.049 141.963 564.644C142.672 562.2 143.027 559.755 143.027 557.311V547.73ZM143.914 547.73H147.877V557.311C147.877 559.677 148.212 562.022 148.882 564.349C149.592 566.675 150.578 568.863 151.839 570.913C153.101 572.964 154.54 574.797 156.157 576.413C157.813 578.03 159.587 579.311 161.479 580.258L158.463 584.161C156.373 583.096 154.441 581.638 152.667 579.785C150.932 577.931 149.395 575.822 148.054 573.456C146.753 571.051 145.728 568.489 144.979 565.768C144.269 563.008 143.914 560.189 143.914 557.311V547.73ZM166.151 543.117H171.06V596.64H166.151V543.117ZM169.936 564.763H179.813V568.962H169.936V564.763ZM194.889 561.273H199.798V571.327H194.889V561.273ZM214.524 561.273H219.374V571.327H214.524V561.273ZM183.002 569.553H231.32V573.516H183.002V569.553ZM207.132 577.596C212.849 577.596 217.324 578.405 220.557 580.021C223.79 581.638 225.406 583.964 225.406 587C225.406 590.075 223.79 592.421 220.557 594.038C217.324 595.693 212.849 596.521 207.132 596.521C201.415 596.521 196.92 595.693 193.647 594.038C190.414 592.421 188.798 590.075 188.798 587C188.798 583.964 190.414 581.638 193.647 580.021C196.92 578.405 201.415 577.596 207.132 577.596ZM207.132 581.381C204.332 581.381 201.927 581.598 199.916 582.032C197.945 582.466 196.427 583.116 195.362 583.984C194.298 584.812 193.766 585.817 193.766 587C193.766 588.261 194.298 589.326 195.362 590.193C196.427 591.021 197.945 591.652 199.916 592.086C201.927 592.52 204.332 592.736 207.132 592.736C209.931 592.736 212.316 592.52 214.288 592.086C216.298 591.652 217.836 591.021 218.901 590.193C219.965 589.326 220.497 588.261 220.497 587C220.497 585.817 219.965 584.812 218.901 583.984C217.836 583.116 216.298 582.466 214.288 582.032C212.316 581.598 209.931 581.381 207.132 581.381ZM207.132 544.122C210.995 544.122 214.327 544.517 217.126 545.305C219.965 546.094 222.134 547.237 223.632 548.735C225.17 550.194 225.938 551.968 225.938 554.058C225.938 556.108 225.17 557.883 223.632 559.381C222.134 560.879 219.965 562.022 217.126 562.811C214.327 563.56 210.995 563.935 207.132 563.935C203.268 563.935 199.916 563.56 197.078 562.811C194.278 562.022 192.11 560.879 190.572 559.381C189.074 557.883 188.325 556.108 188.325 554.058C188.325 551.968 189.074 550.194 190.572 548.735C192.11 547.237 194.278 546.094 197.078 545.305C199.916 544.517 203.268 544.122 207.132 544.122ZM207.132 547.967C204.332 547.967 201.888 548.203 199.798 548.676C197.748 549.149 196.151 549.839 195.008 550.746C193.904 551.653 193.352 552.757 193.352 554.058C193.352 555.32 193.904 556.424 195.008 557.37C196.151 558.277 197.748 558.967 199.798 559.44C201.888 559.913 204.332 560.15 207.132 560.15C210.01 560.15 212.474 559.913 214.524 559.44C216.574 558.967 218.152 558.277 219.255 557.37C220.359 556.424 220.911 555.32 220.911 554.058C220.911 552.757 220.359 551.653 219.255 550.746C218.152 549.839 216.574 549.149 214.524 548.676C212.474 548.203 210.01 547.967 207.132 547.967ZM249.235 550.805H253.198V559.44C253.198 562.239 252.804 565.019 252.015 567.779C251.226 570.499 250.123 573.082 248.703 575.526C247.323 577.931 245.726 580.08 243.913 581.973C242.099 583.826 240.147 585.285 238.058 586.349L235.16 582.446C237.092 581.5 238.886 580.218 240.542 578.602C242.237 576.946 243.735 575.073 245.036 572.983C246.337 570.854 247.363 568.646 248.112 566.359C248.861 564.033 249.235 561.727 249.235 559.44V550.805ZM250.182 550.805H254.085V559.44C254.085 561.569 254.42 563.718 255.09 565.886C255.8 568.055 256.786 570.125 258.047 572.096C259.309 574.068 260.768 575.842 262.424 577.419C264.119 578.957 265.913 580.199 267.806 581.145L265.026 585.048C262.936 583.984 260.985 582.564 259.171 580.79C257.357 578.976 255.78 576.926 254.44 574.639C253.099 572.352 252.054 569.908 251.305 567.306C250.556 564.704 250.182 562.082 250.182 559.44V550.805ZM237.052 548.617H265.913V552.698H237.052V548.617ZM272.241 543.117H277.15V596.64H272.241V543.117ZM276.026 564.704H285.903V568.843H276.026V564.704Z" fill="#1E1E1E"/>
</g>
<defs>
<clipPath id="clip0_2_321">
<rect width="1600" height="900" fill="white"/>
</clipPath>
</defs>
</svg>
