<svg width="1600" height="900" viewBox="0 0 1600 900" fill="none" xmlns="http://www.w3.org/2000/svg">
<g clip-path="url(#clip0_2_631)">
<rect width="1600" height="900" fill="white"/>
<path d="M942.273 198.597C943.351 196.443 944.428 194.288 945.505 192.134C946.61 189.924 948.456 183.04 948.783 185.488C949.277 189.199 948.59 193.459 948.373 197.141C947.657 209.309 947.376 221.459 947.189 233.647C946.753 262.204 945.987 290.756 945.551 319.313C945.084 349.909 945.091 380.413 946.552 410.988C948.143 444.284 949.228 478.26 955.747 511.038C957.808 521.403 960.297 531.703 963.394 541.809C964.885 546.672 966.274 552.52 969.312 556.739C973.835 563.022 976.035 548.598 976.686 545.997" stroke="#1E1E1E" stroke-width="7.39264" stroke-linecap="round" stroke-linejoin="round"/>
<path d="M953.745 176.475C952.721 176.27 946.844 175.948 947.053 176.111C948.733 177.417 952.231 177.477 954.154 177.659C964.025 178.592 974.055 177.798 983.878 176.748C1022.46 172.625 1060.91 169.124 1099.72 167.918C1148.97 166.387 1198.22 166.643 1247.48 166.643C1272.48 166.643 1297.46 166.779 1322.45 166.006C1341.57 165.414 1360.59 163.737 1379.66 165.824C1394.68 167.466 1409.73 168.671 1424.68 170.922C1432.03 172.027 1439.28 173.826 1445.35 178.296C1454.1 184.746 1464.42 185.389 1474.84 187.127C1476.59 187.418 1469.9 202.007 1469.52 202.922C1465.82 211.708 1464.1 221.039 1462.37 230.369C1459.4 246.406 1456.75 262.507 1453.95 278.574C1447.86 313.46 1443.63 348.822 1439.16 383.95C1434.9 417.375 1431.53 450.961 1429.42 484.592C1428.37 501.275 1426.63 518.079 1426.5 534.799C1426.49 536.973 1425.69 541.22 1427.37 543.038C1429.09 544.908 1427.76 542.631 1427.32 541.9" stroke="#1E1E1E" stroke-width="7.39264" stroke-linecap="round" stroke-linejoin="round"/>
<path d="M952.925 573.854C949.082 575.776 965.302 576.766 965.67 576.768C986.711 576.862 1007.8 576.367 1028.85 576.312C1067.04 576.213 1105.18 573.656 1143.38 573.217C1193.62 572.64 1243.83 570.813 1294 568.073C1329.28 566.147 1364.57 563.519 1399.6 558.742C1406.03 557.865 1413.93 557.563 1419.95 554.554C1423.75 552.655 1427.3 550.228 1431.37 548.91C1433.56 548.202 1440.25 547.459 1437.97 545.177" stroke="#1E1E1E" stroke-width="7.39264" stroke-linecap="round" stroke-linejoin="round"/>
<path d="M945.551 223.177C923.034 223.177 990.265 216.623 1012.78 216.623C1039.44 216.623 1066.21 218.362 1092.76 220.719C1131.62 224.17 1170.58 224.565 1209.56 225.453C1279.54 227.048 1349.23 219.9 1419.13 219.9C1433.51 219.9 1447.84 220.719 1462.19 220.719C1464.23 220.719 1473.27 218.728 1468.29 220.719" stroke="#1E1E1E" stroke-width="7.39264" stroke-linecap="round" stroke-linejoin="round"/>
<path d="M449.895 465.278C448.508 465.278 445.358 466.824 444.37 467.935C443.989 468.364 450.493 468.404 450.944 468.39C457.864 468.177 464.809 467.664 471.713 467.166C493.359 465.606 515.339 466.486 537.029 466.537C574.017 466.624 611.225 466.889 648.114 469.719C675.907 471.85 703.413 476.602 731.157 479.124C753.335 481.141 775.559 482.341 797.767 483.88C811.979 484.865 826.212 486.223 840.459 486.642C845.477 486.79 851.01 487.792 855.215 484.789" stroke="#1E1E1E" stroke-width="7.39264" stroke-linecap="round" stroke-linejoin="round"/>
<path d="M568.218 469.684C566.138 469.684 564.221 463.35 563.498 461.747C559.109 452.016 559.106 439.875 559.966 429.473C561.289 413.48 564.033 397.537 566.645 381.711C567.571 376.101 569.16 368.247 572.834 363.703C578.497 356.699 590.002 352.552 598.219 349.822C633.121 338.225 668.437 334.308 705.073 335.137C722.608 335.533 739.684 338.101 756.892 341.43C769.889 343.945 783.946 347.962 795.284 355.032C812.557 365.802 832.128 377.719 838.362 398.354C841.194 407.731 840.735 418.621 840.355 428.285C839.898 439.874 839.174 451.05 840.459 462.621C841.109 468.469 842.218 474.495 844.481 479.964C844.842 480.837 845.924 482.901 845.774 482.901" stroke="#1E1E1E" stroke-width="7.39264" stroke-linecap="round" stroke-linejoin="round"/>
<path d="M610.386 390.382C608.935 389.898 607.502 389.753 605.981 389.753C604.094 389.753 609.726 389.064 611.61 389.158C621.886 389.672 621.692 407.016 612.554 409.508C607.597 410.86 604.111 412.725 602.589 418.11C601.621 421.533 600.028 427.943 605.002 428.634C609.415 429.247 614.116 428.407 618.498 427.83C620.357 427.585 622.529 427.868 623.603 426.257" stroke="#1E1E1E" stroke-width="7.39264" stroke-linecap="round" stroke-linejoin="round"/>
<path d="M636.191 395.417C636.191 394.953 636.039 394.286 635.702 393.948C634.174 392.421 636.052 398.263 636.471 400.382C638.099 408.615 639.936 416.795 641.366 425.068C641.875 428.012 643.471 436.533 641.856 434.019C640.577 432.029 636.485 416.462 639.618 415.417C645.516 413.451 651.061 416.362 656.961 416.816" stroke="#1E1E1E" stroke-width="7.39264" stroke-linecap="round" stroke-linejoin="round"/>
<path d="M675.842 399.193C675.266 398.617 675.132 397.876 674.583 399.053C672.55 403.409 678.053 408.054 682.1 406.536C687.783 404.405 687.851 396.426 685.457 391.816C681.077 383.38 676.373 394.537 674.583 398.564" stroke="#1E1E1E" stroke-width="7.39264" stroke-linecap="round" stroke-linejoin="round"/>
<path d="M671.436 418.075C668.893 419.77 669.387 420.725 672.555 420.452C674.261 420.306 691.394 419.393 691.297 417.445C691.244 416.382 688.018 415.008 687.171 415.347C684.227 416.525 682.478 422.923 681.926 425.627C680.754 431.364 681.204 435.464 687.171 436.956" stroke="#1E1E1E" stroke-width="7.39264" stroke-linecap="round" stroke-linejoin="round"/>
<path d="M711.087 404.858C709.933 403.703 715.49 401.899 715.878 401.781C720.633 400.33 726.114 399.346 731.087 399.193C733.464 399.12 732.311 399.193 730.808 399.193C728.215 399.193 725.7 399.316 723.675 401.116C718.131 406.044 716.203 422.862 720.598 428.984C723.016 432.352 728.286 433.024 732.136 432.271C737.562 431.209 737.736 428.755 735.004 424.998" stroke="#1E1E1E" stroke-width="7.39264" stroke-linecap="round" stroke-linejoin="round"/>
<path d="M723.675 418.704C722.944 418.704 721.342 418.704 723.15 418.704C728.644 418.704 733.504 419.04 738.78 420.592" stroke="#1E1E1E" stroke-width="7.39264" stroke-linecap="round" stroke-linejoin="round"/>
<path d="M744.444 420.592C753.383 420.592 759.702 416.899 765.424 410.033C766.619 408.598 766.941 411.54 767.067 412.235C768.062 417.706 767.707 423.384 767.731 428.914C767.753 433.739 767.476 438.775 768.99 443.425C769.425 444.762 769.793 446.332 770.249 444.509" stroke="#1E1E1E" stroke-width="7.39264" stroke-linecap="round" stroke-linejoin="round"/>
<path d="M568.218 472.831C567.073 473.976 566.366 476.455 566.33 478.006C566.218 482.811 563.81 487.246 563.323 492.062C562.384 501.348 562.859 510.744 561.924 520.034C560.47 534.493 560.89 548.546 562.693 562.972C566.582 594.077 579.133 623.12 592.904 650.945C599.691 664.659 606.015 677.483 615.841 689.337C626.012 701.607 638.981 710.393 652.73 718.149C665.807 725.526 680.649 731.105 695.737 731.75C712.047 732.447 728.078 728.06 742.836 721.365C755.116 715.795 767.5 706.549 777.731 697.799C788.603 688.5 799.535 679.099 809.235 668.568C819.849 657.044 826.859 643.043 832.522 628.532C840.183 608.902 846.15 588.055 850.774 567.517C855.733 545.494 856.04 522.935 857.383 500.488C857.683 495.472 858.536 490.022 858.257 484.999C858.11 482.349 855.255 482.901 853.327 482.901" stroke="#1E1E1E" stroke-width="7.39264" stroke-linecap="round" stroke-linejoin="round"/>
<path d="M643.744 608.147C635.98 608.147 633.443 623.578 632.45 628.917C630.944 637.012 630.053 646.361 634.862 653.602C639.287 660.265 648.354 662.763 656.016 662.763C673.846 662.763 681.95 645.348 679.968 629.406C678.652 618.828 671.886 609.517 661.331 607.098C653.275 605.252 645.194 606.305 638.709 611.294" stroke="#1E1E1E" stroke-width="7.39264" stroke-linecap="round" stroke-linejoin="round"/>
<path d="M597.17 499.894C596.28 499.449 594.218 498.773 593.533 499.894C591.99 502.419 599.043 508.192 600.352 509.719C604.65 514.733 609.544 519.592 615.492 522.656C617.541 523.712 616.844 523.026 615.422 522.551" stroke="#1E1E1E" stroke-width="7.39264" stroke-linecap="round" stroke-linejoin="round"/>
<path d="M605.351 545.839C602.776 545.839 605.773 544.819 606.61 544.58" stroke="#1E1E1E" stroke-width="7.39264" stroke-linecap="round" stroke-linejoin="round"/>
<path d="M679.618 524.44C678.565 524.44 677.64 525.03 676.646 525.279C675.311 525.613 678.513 523.249 679.548 522.342C682.961 519.348 686.421 516.416 689.898 513.495C694.028 510.026 698.109 506.434 701.996 502.691C703.837 500.918 704.077 500.696 702.905 503.041" stroke="#1E1E1E" stroke-width="7.39264" stroke-linecap="round" stroke-linejoin="round"/>
<path d="M690.947 540.804C689.568 540.804 688.878 539.634 687.8 538.915" stroke="#1E1E1E" stroke-width="7.39264" stroke-linecap="round" stroke-linejoin="round"/>
<path d="M523.532 603.742C516.869 600.41 516.364 614.221 515.84 617.868C514.451 627.539 513.746 637.84 516.609 647.309C518.773 654.465 521.723 661.757 529.861 663.113C535.823 664.107 543.158 663.077 546.714 657.658C551.78 649.939 554.288 639.904 553.183 630.77C551.855 619.79 545.123 607.296 534.581 602.762C528.748 600.254 522.168 599.428 517.238 603.742" stroke="#1E1E1E" stroke-width="7.39264" stroke-linecap="round" stroke-linejoin="round"/>
<path d="M525.42 594.93C521.248 594.93 516.076 592.354 512.378 590.769C476.924 575.575 438.169 568.679 400.838 559.72C380.992 554.957 361.016 551.871 340.663 550.384C325.314 549.263 309.502 550.903 294.368 547.727C291.5 547.125 288.375 546.566 285.732 545.244C285.15 544.954 283.955 544.16 283.249 544.23C282.953 544.26 283.109 546.145 283.109 546.258C283.109 549.291 282.461 552.137 281.711 555.069C278.598 567.231 275.331 579.238 274.718 591.853C273.854 609.619 277.81 627.169 282.48 644.196C284.503 651.573 286.73 658.835 289.263 666.05C291.18 671.508 292.909 677.341 297.026 681.61C304.646 689.512 314.709 684.533 320.417 676.889C329.129 665.224 329.223 646.076 329.543 632.203C329.92 615.91 328.532 597.901 320.732 583.252C315.63 573.669 307.741 563.971 298.214 558.566C295.243 556.88 291.672 554.907 288.214 554.475C285.048 554.079 284.852 556.2 283.739 558.426" stroke="#1E1E1E" stroke-width="7.39264" stroke-linecap="round" stroke-linejoin="round"/>
<path d="M325.907 689.337C324.857 690.388 325.811 690.577 326.956 690.596C335.087 690.727 343.278 689.942 351.362 689.197C367.332 687.726 383.103 684.693 399.055 683.043C414.856 681.409 430.749 680.174 446.608 679.267C469.32 677.967 491.961 675.994 514.721 676.12C523.604 676.169 531.876 676.542 540.665 674.861C543.904 674.242 547.055 673.54 550.176 672.484C552.061 671.846 550.887 673.211 550.596 674.232" stroke="#1E1E1E" stroke-width="7.39264" stroke-linecap="round" stroke-linejoin="round"/>
<path d="M658.219 727.1C658.219 723.948 655.792 726.269 654.443 725.701C645.654 722 637.865 716.67 629.268 712.624C618.298 707.462 607.045 705.214 595.561 701.645C583.193 697.801 570.884 693.748 558.393 690.316C544.328 686.452 529.972 687.213 515.63 685.421C510.08 684.727 504.167 683.804 498.917 681.784C497.405 681.203 496.142 680.286 494.581 679.896" stroke="#1E1E1E" stroke-width="7.39264" stroke-linecap="round" stroke-linejoin="round"/>
<path d="M450.525 689.966C449.884 690.607 449.737 691.305 450.175 692.134C450.944 693.591 452.212 694.737 453.182 696.05C455.99 699.855 457.515 704.136 458.707 708.673C466.342 737.746 487.51 759.934 514.372 772.904C542.402 786.44 569.922 798.993 600.527 805.422C615.255 808.517 629.829 810.234 644.373 814.234C647.676 815.142 651.072 815.973 654.408 816.751C656.003 817.123 658.988 816.667 659.968 818.36C661.642 821.251 660.373 825.239 661.996 828.08C664.104 831.77 663.147 835.693 662.625 840.038C661.245 851.54 660.108 862.957 660.108 874.549C660.108 883.192 659.81 891.513 663.255 899.549" stroke="#1E1E1E" stroke-width="7.39264" stroke-linecap="round" stroke-linejoin="round"/>
<path d="M796.683 795.072C795.956 794.346 793.717 791.731 796.053 791.926C798.714 792.147 801.091 795.897 802.347 797.87C805.224 802.391 806.135 807.848 807.382 812.975C810.332 825.104 809.98 836.595 810.669 848.919C810.973 854.366 811.195 861.861 813.676 866.822" stroke="#1E1E1E" stroke-width="7.39264" stroke-linecap="round" stroke-linejoin="round"/>
<path d="M793.536 795.702C792.035 794.202 808.732 778.249 810.809 776.191C817.964 769.101 825.992 762.766 833.501 756.051C845.233 745.561 853.584 734.835 859.655 720.247C865.004 707.396 870.43 693.883 873.187 680.176C874.68 672.753 875.784 663.661 875.215 656.12C874.847 651.246 870.582 650.181 872.488 645.281C874.57 639.925 877.004 634.717 879.761 629.511C882.096 625.1 891.99 607.051 885.285 604.161C880.966 602.3 873.373 605.366 869.446 607.098C860.334 611.118 851.5 616.947 843.327 622.623C836.465 627.388 829.542 631.613 823.816 637.798C819.242 642.738 815.627 648.373 810.529 652.833" stroke="#1E1E1E" stroke-width="7.39264" stroke-linecap="round" stroke-linejoin="round"/>
<path d="M871.579 577.307C866.584 572.313 863.878 583.257 863.257 585.909C860.029 599.701 859.644 622.797 880.39 619.126C898.252 615.966 912.813 591.922 900.95 575.979C890.691 562.191 869.572 566.087 863.397 581.084" stroke="#1E1E1E" stroke-width="7.39264" stroke-linecap="round" stroke-linejoin="round"/>
<path d="M159.203 141.02C152.878 134.695 145.91 154.327 144.418 157.808C140.946 165.908 140.842 174.926 139.592 183.528C138.017 194.371 137.158 204.983 136.564 215.922C135.148 241.97 132.285 267.874 131.019 293.955C129.947 316.046 125.14 337.675 125.013 359.822C124.887 381.672 125.67 404.42 128.914 426.047C130.507 436.668 132.295 447.378 134.305 457.928C135.885 466.227 137.385 475.915 141.851 483.238C149.232 495.337 163.79 499.613 177.172 500.282C196.18 501.232 216.866 497.247 235.543 494.019C245.856 492.236 256.272 492.542 266.602 491.041C277.647 489.436 288.701 487.801 299.664 485.702C311.32 483.47 323.099 482.222 334.779 480.157C347.011 477.995 359.08 474.854 371.331 472.867C392.626 469.414 414.076 468.076 435.503 465.834C452.621 464.043 470.523 461.15 487.252 457.055C498.214 454.372 508.654 451.511 520.005 451.511C530.07 451.511 544.012 449.308 552.861 455.207" stroke="#1E1E1E" stroke-width="7.39264" stroke-linecap="round" stroke-linejoin="round"/>
<path d="M552.861 455.207C552.861 449.345 553.583 443.008 552.656 437.239C550.974 426.773 548.081 416.644 546.187 406.231C544.369 396.229 541.416 386.589 540.13 376.455C538.739 365.504 542.891 354.165 545.263 343.599C551.211 317.103 578.087 308.246 601.838 303.658C611.174 301.855 618.762 299.843 627.506 296.266C639.938 291.18 645.598 278.693 650.095 266.9C654.08 256.451 658.425 245.721 660.773 234.763C663.227 223.31 664.21 211.373 665.599 199.751C668.356 176.678 672.221 155.236 670.425 131.882C668.939 112.561 662.826 90.8862 643.216 83.0085C631.769 78.4104 619.778 76.08 607.587 74.4864C592.554 72.5213 578.055 70.0132 562.821 69.8661C516.004 69.4137 469.383 62.6485 422.566 61.344C363.236 59.6908 304.053 63.7501 246.478 78.9015C213.131 87.6769 177.902 96.8592 153.659 123.257C147.383 130.092 141.743 137.543 135.588 144.511C132.606 147.887 131.632 148.177 134.253 152.109" stroke="#1E1E1E" stroke-width="7.39264" stroke-linecap="round" stroke-linejoin="round"/>
<path d="M1132.26 309.203C1130.72 309.203 1128.22 310.669 1128.61 312.437C1129.46 316.249 1136.73 314.747 1139.19 314.747C1164.59 314.747 1189.87 308.64 1215.22 307.149C1238.31 305.791 1261.58 306.934 1284.58 304.634C1285.84 304.507 1291.1 305.415 1291.2 303.658C1291.43 299.71 1292.17 299.659 1286.58 299.038" stroke="#1E1E1E" stroke-width="7.39264" stroke-linecap="round" stroke-linejoin="round"/>
<path d="M1125.79 314.747C1124.06 314.747 1122.17 324.397 1122.09 325.836C1121.53 336.006 1120.76 346.154 1121.38 356.536C1122.32 372.297 1122.26 388.122 1123.53 403.87C1124.49 415.818 1123.62 428.428 1125.59 440.217C1126.09 443.216 1126.03 443.194 1129.02 443.194C1130.67 443.194 1132.13 443.485 1133.39 442.476C1135.8 440.549 1140.76 440.369 1143.66 439.909C1161.68 437.041 1180.4 435.527 1198.59 433.953C1209.41 433.017 1220.27 432.956 1231.08 432.054C1233.45 431.857 1238.3 431.232 1238.53 428.204C1239.1 420.47 1240.95 412.87 1241.3 405.05C1242.24 384.426 1243.36 363.769 1245 343.188C1246.29 326.958 1246.38 310.179 1249.16 294.109C1250.73 284.983 1244.58 299.424 1243.15 301.81" stroke="#1E1E1E" stroke-width="7.39264" stroke-linecap="round" stroke-linejoin="round"/>
<path d="M1167.37 318.444C1165.84 316.148 1163.99 314.207 1163.83 318.649C1163.22 336.176 1164.98 354.293 1165.99 371.783C1166.71 384.221 1168.24 396.586 1169.02 409.003C1169.24 412.52 1168.78 415.798 1168.5 419.271C1168.31 421.744 1171.73 417.552 1171.99 417.32" stroke="#1E1E1E" stroke-width="7.39264" stroke-linecap="round" stroke-linejoin="round"/>
<path d="M1198.79 324.912C1193.36 308.613 1197.16 359.357 1198.84 376.455C1200.01 388.272 1200.9 400.741 1204.29 412.186C1206.29 418.953 1206.19 413.262 1206.19 409.927" stroke="#1E1E1E" stroke-width="7.39264" stroke-linecap="round" stroke-linejoin="round"/>
<path d="M1133.18 366.496C1129.15 366.496 1119.14 368.024 1129.23 365.88C1151.88 361.068 1175.48 359.196 1198.59 358.384C1201.09 358.296 1232.78 359.306 1232.78 354.021C1232.78 349.956 1216.45 353.234 1214.5 353.559" stroke="#1E1E1E" stroke-width="7.39264" stroke-linecap="round" stroke-linejoin="round"/>
<path d="M1127.64 395.142C1130.2 392.583 1138.13 392.4 1141.19 391.908C1159.72 388.924 1178.55 389.146 1197.25 388.468C1202.83 388.266 1208.38 387.864 1213.94 387.339C1215.8 387.162 1219.53 387.427 1221.28 386.312C1224.26 384.416 1214.76 383.169 1214.5 383.129" stroke="#1E1E1E" stroke-width="7.39264" stroke-linecap="round" stroke-linejoin="round"/>
<path d="M1155.36 437.65C1149.92 432.203 1147.17 442.743 1145.76 447.045C1142.49 457 1139.78 479.637 1156.7 478.207C1171.74 476.935 1186.61 454.41 1176.31 441.192C1173.28 437.308 1167.36 433.923 1162.24 434.57C1154.94 435.492 1160.49 444.467 1161.83 447.815" stroke="#1E1E1E" stroke-width="7.39264" stroke-linecap="round" stroke-linejoin="round"/>
<path d="M1225.59 442.27C1220.72 439.026 1216.84 438.536 1214.04 444.375C1208.69 455.542 1204.67 474.709 1220.05 479.541C1236.37 484.671 1247.89 465.112 1243.35 451.152C1241.54 445.553 1237.96 440.233 1232.27 438.061C1225.9 435.631 1224.88 439.317 1222.82 444.118" stroke="#1E1E1E" stroke-width="7.39264" stroke-linecap="round" stroke-linejoin="round"/>
<path d="M169.973 244.825L173.372 243.915L174.35 247.563C175.1 250.363 175.259 253.088 174.826 255.74C174.427 258.383 173.515 260.841 172.088 263.117C170.695 265.383 168.841 267.326 166.525 268.947L163.542 266.21C165.594 264.803 167.273 263.139 168.579 261.217C169.877 259.262 170.733 257.194 171.149 255.011C171.597 252.819 171.531 250.64 170.951 248.474L169.973 244.825ZM170.723 244.624L174.122 243.714L175.1 247.363C175.626 249.329 176.576 251.074 177.949 252.599C179.322 254.124 181.004 255.335 182.994 256.23C184.984 257.125 187.181 257.662 189.586 257.839L188.507 261.61C185.742 261.422 183.225 260.758 180.954 259.616C178.684 258.474 176.738 256.942 175.115 255.019C173.517 253.055 172.379 250.806 171.701 248.273L170.723 244.624ZM159.474 246.031L183.667 239.549L184.578 242.948L160.385 249.43L159.474 246.031ZM188.468 234.673L192.617 233.561L199.916 260.803L195.767 261.915L188.468 234.673ZM194.548 245.366L202.345 243.277L203.269 246.726L195.472 248.815L194.548 245.366ZM185.855 265.91C188.921 265.089 191.643 264.717 194.021 264.794C196.423 264.829 198.389 265.302 199.919 266.213C201.449 267.125 202.451 268.464 202.924 270.23C203.397 271.996 203.199 273.656 202.33 275.211C201.461 276.765 199.999 278.175 197.945 279.439C195.924 280.695 193.381 281.734 190.315 282.555C187.25 283.377 184.511 283.753 182.1 283.685C179.689 283.617 177.718 283.127 176.188 282.215C174.658 281.304 173.656 279.965 173.183 278.199C172.71 276.433 172.908 274.773 173.777 273.218C174.646 271.664 176.113 270.271 178.176 269.039C180.23 267.775 182.79 266.732 185.855 265.91ZM186.739 269.209C184.507 269.807 182.627 270.525 181.102 271.363C179.609 272.191 178.528 273.088 177.858 274.053C177.188 275.019 176.996 276.034 177.282 277.101C177.568 278.167 178.246 278.967 179.318 279.502C180.381 280.003 181.766 280.239 183.472 280.21C185.212 280.172 187.199 279.854 189.431 279.256C191.664 278.658 193.527 277.945 195.019 277.116C196.511 276.288 197.593 275.391 198.262 274.426C198.924 273.427 199.111 272.394 198.825 271.328C198.54 270.262 197.865 269.478 196.803 268.977C195.74 268.476 194.355 268.24 192.648 268.269C190.942 268.297 188.972 268.611 186.739 269.209ZM232.951 222.754L237.1 221.642L249.221 266.879L245.072 267.99L232.951 222.754ZM240.918 239.691L249.266 237.455L250.216 241.004L241.869 243.24L240.918 239.691ZM205.191 234.317L209.29 233.219L212.477 245.116L225.323 241.673L222.136 229.777L226.234 228.679L234.418 259.22L213.374 264.858L205.191 234.317ZM213.361 248.415L216.549 260.311L229.395 256.869L226.207 244.972L213.361 248.415ZM253.081 220.521L281.373 212.94L282.27 216.289L253.979 223.87L253.081 220.521ZM253.18 241.281L294.018 230.339L294.942 233.788L254.104 244.73L253.18 241.281ZM272.04 238.692L276.189 237.58L281.721 258.224L277.572 259.336L272.04 238.692ZM279.374 213.476L283.472 212.377L284.531 216.326C284.95 217.892 285.359 219.551 285.757 221.302C286.188 223.043 286.568 224.995 286.897 227.157C287.217 229.286 287.433 231.692 287.546 234.376L283.249 234.938C283.176 231.065 282.84 227.744 282.241 224.976C281.642 222.208 281.039 219.691 280.432 217.425L279.374 213.476ZM324.916 198.112L329.015 197.014L341.136 242.25L337.037 243.348L324.916 198.112ZM296.067 210.61L300.166 209.512L307.666 237.503L303.567 238.602L296.067 210.61ZM302.911 236.152L306.61 235.161C310.075 234.233 313.551 233.141 317.036 231.885C320.546 230.588 324.097 229.047 327.691 227.263L329.178 230.614C325.469 232.501 321.843 234.098 318.3 235.404C314.748 236.677 311.173 237.796 307.574 238.76L303.875 239.751L302.911 236.152ZM373.683 230.047C371.817 230.547 370.013 230.745 368.27 230.64C366.528 230.535 364.892 230.027 363.362 229.116C361.865 228.195 360.511 226.808 359.3 224.954C358.089 223.1 357.095 220.723 356.318 217.824L350.545 196.28L355.144 195.048L360.943 216.692C361.729 219.624 362.733 221.838 363.955 223.332C365.168 224.792 366.505 225.72 367.968 226.114C369.455 226.465 370.999 226.427 372.598 225.998C374.231 225.561 375.603 224.818 376.716 223.77C377.819 222.688 378.53 221.212 378.85 219.34C379.195 217.427 378.974 215.004 378.188 212.071L372.389 190.427L376.837 189.235L382.61 210.779C383.387 213.678 383.714 216.233 383.593 218.445C383.504 220.647 383.025 222.526 382.156 224.08C381.287 225.634 380.124 226.892 378.667 227.854C377.21 228.816 375.549 229.547 373.683 230.047ZM395.387 223.535L385.57 186.896L397.017 183.828C399.516 183.159 401.805 182.903 403.883 183.06C405.985 183.175 407.787 183.836 409.288 185.04C410.79 186.245 411.88 188.114 412.559 190.647C413.21 193.079 413.205 195.259 412.543 197.187C411.872 199.081 410.677 200.687 408.959 202.005C407.265 203.28 405.168 204.253 402.669 204.922L395.821 206.757L399.986 222.302L395.387 223.535ZM394.83 203.058L400.978 201.411C403.844 200.643 405.887 199.47 407.107 197.893C408.319 196.283 408.603 194.278 407.96 191.879C407.317 189.48 406.1 188.002 404.308 187.446C402.516 186.891 400.187 186.997 397.321 187.765L391.173 189.412L394.83 203.058ZM415.482 218.151L401.398 203.977L404.39 200.55L420.68 216.758L415.482 218.151ZM425.967 215.341L416.149 178.702L420.748 177.47L429.507 210.16L445.553 205.861L446.611 209.81L425.967 215.341ZM471.172 158.923L475.321 157.811L487.455 203.098L483.307 204.209L471.172 158.923ZM452.415 167.699C454.648 167.1 456.788 167.223 458.836 168.068C460.908 168.87 462.744 170.324 464.345 172.431C465.978 174.529 467.224 177.178 468.081 180.377C468.938 183.576 469.184 186.492 468.818 189.126C468.486 191.751 467.627 193.945 466.243 195.709C464.891 197.464 463.099 198.641 460.867 199.239C458.634 199.838 456.477 199.719 454.396 198.884C452.315 198.048 450.458 196.582 448.824 194.484C447.224 192.377 445.995 189.724 445.138 186.524C444.281 183.325 444.018 180.413 444.351 177.789C444.716 175.155 445.596 172.972 446.99 171.242C448.374 169.478 450.183 168.297 452.415 167.699ZM453.407 171.398C451.907 171.799 450.725 172.652 449.86 173.955C449.019 175.216 448.527 176.848 448.385 178.85C448.234 180.82 448.485 183.02 449.137 185.453C449.788 187.886 450.676 189.933 451.801 191.597C452.916 193.226 454.157 194.394 455.525 195.099C456.926 195.795 458.376 195.942 459.876 195.54C461.342 195.147 462.491 194.304 463.323 193.01C464.188 191.706 464.696 190.07 464.847 188.101C464.989 186.098 464.734 183.881 464.082 181.448C463.43 179.016 462.547 176.985 461.431 175.355C460.307 173.692 459.049 172.529 457.657 171.866C456.29 171.161 454.873 171.005 453.407 171.398ZM513.755 147.512L517.904 146.401L530.039 191.687L525.89 192.799L513.755 147.512ZM521.736 164.5L530.084 162.263L531.008 165.712L522.66 167.949L521.736 164.5ZM493.284 185.678L496.833 184.727C499.599 183.986 502.122 183.274 504.404 182.591C506.71 181.866 508.898 181.101 510.968 180.297C513.072 179.483 515.186 178.577 517.312 177.579L518.762 180.994C516.537 182.019 514.356 182.943 512.219 183.765C510.115 184.579 507.89 185.336 505.541 186.037C503.193 186.737 500.603 187.467 497.771 188.226L494.222 189.177L493.284 185.678ZM486.293 159.586L507.236 153.974L508.147 157.373L491.302 161.886L497.811 186.179L493.713 187.277L486.293 159.586ZM543.697 184.492C542.797 184.733 541.929 184.626 541.093 184.172C540.281 183.675 539.741 182.927 539.473 181.927C539.188 180.861 539.277 179.926 539.74 179.123C540.237 178.311 540.935 177.785 541.835 177.544C542.735 177.303 543.586 177.414 544.389 177.878C545.225 178.332 545.786 179.093 546.071 180.159C546.339 181.159 546.229 182.081 545.741 182.926C545.278 183.729 544.596 184.251 543.697 184.492ZM190.161 320.168L193.56 319.257L194.538 322.906C195.288 325.705 195.447 328.43 195.014 331.082C194.615 333.725 193.702 336.184 192.276 338.459C190.883 340.725 189.029 342.668 186.713 344.289L183.73 341.552C185.781 340.145 187.461 338.481 188.767 336.56C190.065 334.605 190.921 332.536 191.336 330.353C191.785 328.161 191.719 325.982 191.139 323.816L190.161 320.168ZM190.911 319.967L194.31 319.056L195.287 322.705C195.814 324.671 196.764 326.416 198.137 327.942C199.51 329.467 201.192 330.677 203.182 331.572C205.172 332.468 207.369 333.004 209.774 333.181L208.695 336.952C205.93 336.765 203.413 336.1 201.142 334.958C198.872 333.816 196.926 332.284 195.303 330.362C193.705 328.397 192.567 326.148 191.888 323.616L190.911 319.967ZM179.662 321.373L203.855 314.891L204.766 318.29L180.573 324.772L179.662 321.373ZM208.656 310.015L212.805 308.904L220.104 336.145L215.955 337.257L208.656 310.015ZM214.736 320.708L222.533 318.619L223.457 322.068L215.66 324.157L214.736 320.708ZM206.043 341.252C209.109 340.431 211.831 340.059 214.209 340.136C216.611 340.171 218.577 340.644 220.107 341.556C221.637 342.467 222.639 343.806 223.112 345.572C223.585 347.338 223.387 348.998 222.518 350.553C221.649 352.107 220.187 353.517 218.133 354.782C216.112 356.037 213.569 357.076 210.503 357.897C207.437 358.719 204.699 359.096 202.288 359.027C199.876 358.959 197.906 358.469 196.376 357.558C194.846 356.646 193.844 355.307 193.371 353.541C192.898 351.775 193.096 350.115 193.965 348.56C194.834 347.006 196.3 345.613 198.363 344.382C200.418 343.117 202.977 342.074 206.043 341.252ZM206.927 344.551C204.695 345.15 202.815 345.867 201.29 346.705C199.797 347.533 198.716 348.43 198.046 349.395C197.376 350.361 197.184 351.377 197.47 352.443C197.755 353.509 198.434 354.31 199.506 354.844C200.569 355.345 201.954 355.581 203.66 355.552C205.4 355.515 207.387 355.197 209.619 354.598C211.852 354 213.714 353.287 215.207 352.458C216.699 351.63 217.78 350.733 218.45 349.768C219.111 348.769 219.299 347.737 219.013 346.67C218.728 345.604 218.053 344.82 216.99 344.319C215.928 343.818 214.543 343.582 212.836 343.611C211.13 343.64 209.16 343.953 206.927 344.551ZM253.139 298.096L257.288 296.984L269.409 342.221L265.26 343.333L253.139 298.096ZM261.106 315.034L269.453 312.797L270.404 316.346L262.057 318.582L261.106 315.034ZM225.379 309.66L229.477 308.561L232.665 320.458L245.511 317.016L242.324 305.119L246.422 304.021L254.606 334.562L233.562 340.2L225.379 309.66ZM233.549 323.757L236.737 335.653L249.583 332.211L246.395 320.315L233.549 323.757ZM273.269 295.863L301.561 288.282L302.458 291.631L274.167 299.212L273.269 295.863ZM273.368 316.623L314.205 305.681L315.13 309.13L274.292 320.072L273.368 316.623ZM292.228 314.034L296.377 312.922L301.909 333.566L297.76 334.678L292.228 314.034ZM299.562 288.818L303.66 287.72L304.718 291.668C305.138 293.235 305.547 294.893 305.944 296.644C306.375 298.386 306.756 300.337 307.085 302.499C307.405 304.628 307.621 307.034 307.733 309.719L303.437 310.28C303.364 306.407 303.028 303.086 302.429 300.318C301.83 297.55 301.227 295.033 300.62 292.767L299.562 288.818ZM345.104 273.454L349.202 272.356L361.324 317.592L357.225 318.691L345.104 273.454ZM316.255 285.952L320.353 284.854L327.854 312.846L323.755 313.944L316.255 285.952ZM323.099 311.495L326.798 310.504C330.263 309.575 333.739 308.483 337.224 307.228C340.734 305.93 344.285 304.389 347.879 302.605L349.366 305.956C345.657 307.843 342.031 309.44 338.488 310.746C334.936 312.019 331.361 313.138 327.762 314.102L324.063 315.094L323.099 311.495ZM401.665 258.299L405.663 257.227L417.785 302.464L413.786 303.535L401.665 258.299ZM391.426 279.471L398.874 277.476L399.865 281.175L392.418 283.17L391.426 279.471ZM393.212 261.742L397.161 260.684L408.344 302.422L404.395 303.48L393.212 261.742ZM369.065 273.195L389.659 267.677L390.57 271.076L369.976 276.594L369.065 273.195ZM376.209 301.657L374.772 298.292C376.271 297.89 377.954 297.439 379.82 296.939C381.678 296.406 383.614 295.833 385.628 295.222C387.634 294.577 389.619 293.921 391.583 293.252C393.538 292.549 395.35 291.849 397.021 291.152L398.151 294.17C395.901 295.238 393.441 296.254 390.771 297.219C388.125 298.142 385.529 298.981 382.98 299.735C380.432 300.489 378.175 301.13 376.209 301.657ZM373.353 274.403L377.152 273.385L383.487 297.028L379.688 298.046L373.353 274.403ZM382.7 271.898L386.549 270.867L392.884 294.51L389.036 295.541L382.7 271.898ZM444.748 246.754L448.897 245.643L461.031 290.929L456.882 292.041L444.748 246.754ZM425.991 255.53C428.224 254.932 430.364 255.055 432.412 255.899C434.484 256.701 436.32 258.156 437.921 260.263C439.554 262.361 440.8 265.01 441.657 268.209C442.514 271.408 442.76 274.324 442.394 276.958C442.062 279.583 441.203 281.777 439.819 283.541C438.467 285.296 436.675 286.473 434.443 287.071C432.21 287.669 430.053 287.551 427.972 286.716C425.891 285.88 424.034 284.414 422.4 282.315C420.8 280.208 419.571 277.555 418.714 274.356C417.857 271.157 417.594 268.245 417.927 265.62C418.292 262.987 419.172 260.804 420.565 259.074C421.95 257.31 423.759 256.129 425.991 255.53ZM426.982 259.229C425.483 259.631 424.301 260.484 423.435 261.787C422.595 263.048 422.103 264.68 421.961 266.682C421.81 268.651 422.061 270.852 422.713 273.285C423.364 275.717 424.252 277.765 425.377 279.428C426.492 281.058 427.733 282.226 429.101 282.931C430.502 283.627 431.952 283.774 433.452 283.372C434.918 282.979 436.067 282.136 436.899 280.841C437.764 279.538 438.272 277.902 438.423 275.933C438.565 273.93 438.31 271.713 437.658 269.28C437.006 266.848 436.123 264.816 435.007 263.187C433.883 261.523 432.625 260.36 431.233 259.698C429.866 258.993 428.449 258.837 426.982 259.229ZM470.428 246.838L473.827 245.927L475.783 253.225C476.425 255.624 476.726 258.08 476.685 260.591C476.634 263.069 476.286 265.502 475.64 267.889C475.018 270.234 474.134 272.4 472.988 274.386C471.841 276.372 470.489 278.055 468.93 279.437L465.647 276.781C467.066 275.544 468.308 274.05 469.375 272.3C470.475 270.541 471.339 268.631 471.965 266.57C472.592 264.509 472.941 262.415 473.014 260.289C473.121 258.153 472.91 256.102 472.384 254.136L470.428 246.838ZM471.278 246.61L474.627 245.713L476.582 253.011C477.091 254.91 477.9 256.729 479.009 258.468C480.142 260.165 481.482 261.699 483.028 263.07C484.598 264.399 486.27 265.505 488.042 266.388C489.847 267.261 491.682 267.841 493.544 268.128L492.129 272.043C490.064 271.667 488.035 270.961 486.043 269.923C484.05 268.886 482.2 267.578 480.491 266C478.807 264.38 477.337 262.559 476.081 260.538C474.817 258.484 473.867 256.274 473.233 253.908L471.278 246.61ZM459.436 247.801L484.678 241.038L485.602 244.487L460.36 251.25L459.436 247.801ZM489.581 234.742L493.73 233.63L505.851 278.866L501.702 279.978L489.581 234.742ZM544.892 219.921L549.041 218.809L561.162 264.046L557.013 265.158L544.892 219.921ZM521.48 263.107L519.992 259.755C522.992 258.951 526.186 258.078 529.576 257.134C533 256.181 536.455 255.147 539.943 254.034C543.455 252.879 546.84 251.65 550.099 250.349L551.202 253.268C547.855 254.772 544.451 256.13 540.99 257.343C537.554 258.514 534.178 259.579 530.864 260.539C527.549 261.498 524.421 262.354 521.48 263.107ZM533.127 243.592L545.523 240.271L546.447 243.72L534.051 247.041L533.127 243.592ZM529.269 229.197L541.316 225.969L542.227 229.368L534.279 231.497L537.426 243.244L533.328 244.342L529.269 229.197ZM515.224 232.96L526.87 229.839L527.781 233.238L520.233 235.261L523.434 247.207L519.335 248.306L515.224 232.96ZM519.081 247.356L521.13 246.807C522.663 246.396 524.249 245.917 525.889 245.371C527.528 244.825 529.256 244.076 531.073 243.125L532.397 246.467C530.447 247.453 528.636 248.224 526.963 248.78C525.323 249.326 523.687 249.818 522.054 250.256L520.005 250.805L519.081 247.356ZM575.445 238.789L579.594 237.678L584.576 256.272L580.427 257.384L575.445 238.789ZM589.388 208.052L593.587 206.927L605.695 252.113L601.496 253.238L589.388 208.052ZM564.097 244.026L562.61 240.675C565.476 239.907 568.571 239.06 571.894 238.133C575.242 237.165 578.638 236.112 582.084 234.974C585.529 233.837 588.822 232.597 591.963 231.256L593.043 234.288C589.829 235.756 586.525 237.088 583.131 238.283C579.737 239.479 576.416 240.547 573.168 241.489C569.92 242.43 566.897 243.276 564.097 244.026ZM587.455 241.625L598.752 238.598L599.622 241.847L588.326 244.874L587.455 241.625ZM571.583 215.18C573.816 214.582 575.885 214.438 577.789 214.749C579.685 215.027 581.295 215.703 582.619 216.777C583.933 217.817 584.832 219.237 585.314 221.037C585.796 222.836 585.732 224.532 585.123 226.124C584.514 227.716 583.458 229.106 581.955 230.295C580.452 231.483 578.584 232.376 576.351 232.975C574.152 233.564 572.088 233.724 570.158 233.455C568.262 233.178 566.653 232.502 565.329 231.428C564.006 230.354 563.103 228.917 562.621 227.118C562.138 225.318 562.206 223.639 562.825 222.081C563.434 220.489 564.49 219.099 565.993 217.91C567.52 216.679 569.384 215.769 571.583 215.18ZM572.44 218.379C570.974 218.772 569.741 219.37 568.742 220.173C567.768 220.935 567.08 221.833 566.679 222.869C566.278 223.905 566.225 224.973 566.519 226.073C566.823 227.206 567.407 228.121 568.273 228.818C569.138 229.514 570.183 229.949 571.408 230.12C572.666 230.283 574.028 230.168 575.494 229.776C576.96 229.383 578.181 228.806 579.155 228.045C580.13 227.283 580.818 226.385 581.219 225.349C581.62 224.313 581.669 223.228 581.365 222.095C581.07 220.995 580.49 220.097 579.625 219.4C578.76 218.704 577.715 218.269 576.49 218.097C575.256 217.892 573.907 217.986 572.44 218.379ZM613.383 234.035L607.054 213.015L605.561 207.843L610.16 206.611L611.453 211.837L616.532 233.191L613.383 234.035ZM618.066 245.316C617.167 245.557 616.299 245.45 615.463 244.996C614.651 244.499 614.111 243.751 613.843 242.751C613.558 241.685 613.646 240.75 614.11 239.947C614.607 239.136 615.305 238.609 616.205 238.368C617.138 238.118 618.006 238.225 618.808 238.688C619.611 239.152 620.156 239.917 620.441 240.983C620.709 241.983 620.616 242.901 620.161 243.737C619.698 244.54 618.999 245.066 618.066 245.316Z" fill="#1E1E1E"/>
<path d="M956.784 760.897C953.679 760.897 950.884 760.276 948.401 759.034C945.917 757.792 943.95 755.998 942.501 753.652C941.121 751.237 940.431 748.339 940.431 744.958C940.431 738.818 943.157 734.126 948.608 730.883C954.127 727.571 962.89 725.26 974.896 723.949C974.896 721.534 974.551 719.257 973.861 717.118C973.24 714.91 972.101 713.15 970.445 711.839C968.789 710.459 966.409 709.769 963.304 709.769C960.061 709.769 956.991 710.425 954.093 711.736C951.264 712.978 948.711 714.323 946.434 715.772L942.812 709.252C944.537 708.148 946.538 707.044 948.815 705.94C951.091 704.767 953.575 703.801 956.266 703.042C958.957 702.283 961.821 701.904 964.857 701.904C969.41 701.904 973.102 702.87 975.931 704.802C978.829 706.734 980.933 709.425 982.244 712.874C983.624 716.255 984.314 720.292 984.314 724.984V759.552H976.552L975.724 752.824H975.413C972.791 755.032 969.893 756.93 966.719 758.517C963.615 760.103 960.303 760.897 956.784 760.897ZM959.475 753.238C962.166 753.238 964.719 752.617 967.133 751.375C969.617 750.133 972.205 748.305 974.896 745.89V730.262C968.617 730.952 963.615 731.952 959.889 733.263C956.163 734.505 953.506 736.058 951.919 737.921C950.332 739.715 949.539 741.854 949.539 744.337C949.539 747.58 950.505 749.892 952.437 751.272C954.369 752.583 956.715 753.238 959.475 753.238ZM1004.65 760.897C1002.79 760.897 1001.16 760.241 999.784 758.931C998.473 757.551 997.818 755.826 997.818 753.756C997.818 751.548 998.473 749.788 999.784 748.477C1001.16 747.166 1002.79 746.511 1004.65 746.511C1006.51 746.511 1008.1 747.166 1009.41 748.477C1010.79 749.788 1011.48 751.548 1011.48 753.756C1011.48 755.826 1010.79 757.551 1009.41 758.931C1008.1 760.241 1006.51 760.897 1004.65 760.897ZM1046.74 760.897C1041.77 760.897 1037.29 759.759 1033.29 757.482C1029.35 755.136 1026.21 751.789 1023.87 747.442C1021.59 743.027 1020.45 737.714 1020.45 731.504C1020.45 725.225 1021.69 719.912 1024.18 715.565C1026.66 711.149 1029.97 707.769 1034.11 705.423C1038.25 703.077 1042.7 701.904 1047.46 701.904C1051.12 701.904 1054.26 702.559 1056.88 703.87C1059.57 705.181 1061.89 706.734 1063.82 708.528L1059.06 714.737C1057.47 713.288 1055.74 712.115 1053.88 711.218C1052.09 710.321 1050.09 709.873 1047.88 709.873C1044.5 709.873 1041.46 710.77 1038.77 712.564C1036.08 714.358 1033.98 716.876 1032.46 720.119C1030.94 723.362 1030.18 727.157 1030.18 731.504C1030.18 735.782 1030.91 739.542 1032.35 742.785C1033.87 746.028 1035.91 748.546 1038.46 750.34C1041.08 752.134 1044.12 753.031 1047.57 753.031C1050.19 753.031 1052.61 752.514 1054.81 751.479C1057.02 750.375 1059.02 749.029 1060.82 747.442L1064.96 753.859C1062.4 756.067 1059.57 757.792 1056.47 759.034C1053.36 760.276 1050.12 760.897 1046.74 760.897ZM1094.08 760.897C1089.53 760.897 1085.25 759.759 1081.25 757.482C1077.24 755.136 1074.04 751.789 1071.62 747.442C1069.27 743.027 1068.1 737.714 1068.1 731.504C1068.1 725.225 1069.27 719.912 1071.62 715.565C1074.04 711.149 1077.24 707.769 1081.25 705.423C1085.25 703.077 1089.53 701.904 1094.08 701.904C1097.53 701.904 1100.81 702.559 1103.91 703.87C1107.09 705.181 1109.88 707.113 1112.3 709.666C1114.71 712.219 1116.61 715.324 1117.99 718.981C1119.37 722.638 1120.06 726.812 1120.06 731.504C1120.06 737.714 1118.85 743.027 1116.44 747.442C1114.02 751.789 1110.85 755.136 1106.91 757.482C1102.98 759.759 1098.7 760.897 1094.08 760.897ZM1094.08 753.031C1097.32 753.031 1100.15 752.134 1102.57 750.34C1105.05 748.546 1106.98 746.028 1108.36 742.785C1109.74 739.542 1110.43 735.782 1110.43 731.504C1110.43 727.157 1109.74 723.362 1108.36 720.119C1106.98 716.876 1105.05 714.358 1102.57 712.564C1100.15 710.77 1097.32 709.873 1094.08 709.873C1090.84 709.873 1087.97 710.77 1085.49 712.564C1083.07 714.358 1081.18 716.876 1079.8 720.119C1078.49 723.362 1077.83 727.157 1077.83 731.504C1077.83 735.782 1078.49 739.542 1079.8 742.785C1081.18 746.028 1083.07 748.546 1085.49 750.34C1087.97 752.134 1090.84 753.031 1094.08 753.031ZM1132.63 759.552V703.353H1140.39L1141.32 711.529H1141.53C1144.01 708.838 1146.7 706.561 1149.6 704.698C1152.57 702.835 1155.71 701.904 1159.02 701.904C1163.37 701.904 1166.75 702.87 1169.16 704.802C1171.58 706.734 1173.37 709.356 1174.54 712.667C1177.51 709.494 1180.48 706.906 1183.44 704.905C1186.48 702.904 1189.72 701.904 1193.17 701.904C1198.9 701.904 1203.14 703.801 1205.9 707.596C1208.73 711.322 1210.15 716.773 1210.15 723.949V759.552H1200.73V725.191C1200.73 719.878 1199.87 716.048 1198.14 713.702C1196.48 711.356 1193.86 710.183 1190.27 710.183C1188.14 710.183 1185.89 710.908 1183.55 712.357C1181.27 713.737 1178.79 715.876 1176.1 718.774V759.552H1166.68V725.191C1166.68 719.878 1165.81 716.048 1164.09 713.702C1162.43 711.356 1159.81 710.183 1156.22 710.183C1154.09 710.183 1151.84 710.908 1149.5 712.357C1147.15 713.737 1144.7 715.876 1142.15 718.774V759.552H1132.63ZM1217.68 778.077L1248.73 677.375H1255.56L1224.61 778.077H1217.68ZM1282.42 760.897C1277.45 760.897 1272.96 759.759 1268.96 757.482C1265.03 755.136 1261.89 751.789 1259.54 747.442C1257.27 743.027 1256.13 737.714 1256.13 731.504C1256.13 725.225 1257.37 719.912 1259.86 715.565C1262.34 711.149 1265.65 707.769 1269.79 705.423C1273.93 703.077 1278.38 701.904 1283.14 701.904C1286.8 701.904 1289.94 702.559 1292.56 703.87C1295.25 705.181 1297.56 706.734 1299.49 708.528L1294.73 714.737C1293.15 713.288 1291.42 712.115 1289.56 711.218C1287.76 710.321 1285.76 709.873 1283.56 709.873C1280.17 709.873 1277.14 710.77 1274.45 712.564C1271.76 714.358 1269.65 716.876 1268.13 720.119C1266.62 723.362 1265.86 727.157 1265.86 731.504C1265.86 735.782 1266.58 739.542 1268.03 742.785C1269.55 746.028 1271.58 748.546 1274.14 750.34C1276.76 752.134 1279.8 753.031 1283.25 753.031C1285.87 753.031 1288.28 752.514 1290.49 751.479C1292.7 750.375 1294.7 749.029 1296.49 747.442L1300.63 753.859C1298.08 756.067 1295.25 757.792 1292.15 759.034C1289.04 760.276 1285.8 760.897 1282.42 760.897ZM1322.17 760.897C1319.07 760.897 1316.27 760.276 1313.79 759.034C1311.3 757.792 1309.34 755.998 1307.89 753.652C1306.51 751.237 1305.82 748.339 1305.82 744.958C1305.82 738.818 1308.54 734.126 1313.99 730.883C1319.51 727.571 1328.28 725.26 1340.28 723.949C1340.28 721.534 1339.94 719.257 1339.25 717.118C1338.63 714.91 1337.49 713.15 1335.83 711.839C1334.18 710.459 1331.8 709.769 1328.69 709.769C1325.45 709.769 1322.38 710.425 1319.48 711.736C1316.65 712.978 1314.1 714.323 1311.82 715.772L1308.2 709.252C1309.92 708.148 1311.92 707.044 1314.2 705.94C1316.48 704.767 1318.96 703.801 1321.65 703.042C1324.34 702.283 1327.21 701.904 1330.24 701.904C1334.8 701.904 1338.49 702.87 1341.32 704.802C1344.21 706.734 1346.32 709.425 1347.63 712.874C1349.01 716.255 1349.7 720.292 1349.7 724.984V759.552H1341.94L1341.11 752.824H1340.8C1338.18 755.032 1335.28 756.93 1332.11 758.517C1329 760.103 1325.69 760.897 1322.17 760.897ZM1324.86 753.238C1327.55 753.238 1330.1 752.617 1332.52 751.375C1335 750.133 1337.59 748.305 1340.28 745.89V730.262C1334 730.952 1329 731.952 1325.27 733.263C1321.55 734.505 1318.89 736.058 1317.31 737.921C1315.72 739.715 1314.93 741.854 1314.93 744.337C1314.93 747.58 1315.89 749.892 1317.82 751.272C1319.76 752.583 1322.1 753.238 1324.86 753.238ZM1365.17 759.552V703.353H1372.93L1373.86 713.599H1374.07C1376 710.011 1378.35 707.182 1381.11 705.112C1383.94 702.973 1386.9 701.904 1390.01 701.904C1391.32 701.904 1392.42 702.007 1393.32 702.214C1394.29 702.352 1395.18 702.663 1396.01 703.146L1394.25 711.322C1393.29 711.046 1392.42 710.839 1391.67 710.701C1390.91 710.494 1389.94 710.39 1388.77 710.39C1386.49 710.39 1384.04 711.391 1381.42 713.392C1378.8 715.324 1376.56 718.67 1374.69 723.431V759.552H1365.17ZM1420.51 760.897C1416.58 760.897 1413.44 760.138 1411.09 758.62C1408.75 757.033 1407.06 754.825 1406.02 751.996C1405.05 749.167 1404.57 745.89 1404.57 742.164V711.011H1396.19V703.87L1405.09 703.353L1406.12 687.518H1413.99V703.353H1429.31V711.011H1413.99V742.475C1413.99 745.855 1414.61 748.512 1415.85 750.444C1417.16 752.307 1419.44 753.238 1422.68 753.238C1423.72 753.238 1424.82 753.1 1426 752.824C1427.17 752.479 1428.2 752.1 1429.1 751.686L1430.96 758.827C1429.38 759.379 1427.69 759.862 1425.89 760.276C1424.1 760.69 1422.3 760.897 1420.51 760.897Z" fill="#1E1E1E"/>
</g>
<defs>
<clipPath id="clip0_2_631">
<rect width="1600" height="900" fill="white"/>
</clipPath>
</defs>
</svg>
