<svg width="1327" height="1115" viewBox="0 0 1327 1115" fill="none" xmlns="http://www.w3.org/2000/svg">
<path d="M965.911 907.547C942.099 914.293 932.752 927.227 921.981 935.946C910.476 945.346 896.722 953.627 881.901 953.627L739.008 920.119C757.367 917.613 769.14 913.999 793.13 908.346C803.522 905.894 815.206 902.547 822.327 893.972C832.297 881.88 829.003 865.147 826.377 849.653C873.333 853.359 922.003 857.053 968.247 860.493C968.581 873.174 970.673 893.532 965.911 907.547ZM1025.95 919.266C1033.52 922.453 1037.77 926.041 1039.35 930.587C1040.62 934.212 1038.5 939.133 1035.99 940.268C1035.63 940.252 1033.94 939.653 1033.34 939.52C1025.11 937.706 1017.38 934.426 1008.62 933.12C997.578 931.493 987.987 934.001 981.644 940.212C980.109 941.705 980.064 944.173 981.578 945.707C983.069 947.253 985.539 947.267 987.074 945.773C998.469 934.613 1017.21 943.693 1030.65 946.853C1032.09 948.346 1034.81 948.493 1036.86 948.092C1047.56 948.893 1067.03 958.614 1067.55 969.094C1067.66 971.081 1066.52 973.6 1064.54 974.733C1061.34 973.506 1062.83 975.467 1050.97 970.079C1038.86 964.547 1027 961.574 1012.15 964.226C1010.02 964.6 1008.62 966.612 1008.99 968.733C1009.37 970.854 1011.38 972.227 1013.51 971.88C1029.6 969 1061.51 977.359 1066.97 990.279C1067.41 991.268 1067.68 992.333 1067.75 993.399C1067.99 996.386 1063.9 1001.29 1061.22 1001.97C1058.71 1002.59 1055.64 1000.95 1052.92 999.239C1049.1 995.507 1027.6 982.933 1011.8 985.268C1009.68 985.586 1008.22 987.573 1008.53 989.692C1008.86 991.813 1010.86 993.239 1012.93 992.961C1024.48 991.241 1042.69 1000.72 1048.27 1005.4C1050.21 1007.01 1055.55 1010.28 1058.75 1014.95C1063.76 1022.48 1062.18 1031.43 1052.72 1033.21C1039.33 1035.8 1006.5 1017.51 987.497 1030.23C981.199 1034.39 975.791 1040.49 969.405 1042.81C959.947 1046.19 949.131 1047 938.471 1048.2C907.382 1051.93 940.741 1049.32 569.164 1043.73C552.807 1040.6 536.74 1032.17 522.631 1019.31C519.426 1012.79 513.084 1009.09 508.521 1003.65C499.954 993.453 494.012 981.467 491.853 973.92L639.888 872.346C660.762 909.319 659.093 909.372 662.12 910.093C890.046 963.479 880.455 961.36 881.3 961.387C910.03 962.146 934.043 934.84 943.189 927.587C966.244 909.199 998.758 907.826 1025.95 919.266ZM524.567 1031.05C536.161 1040.11 548.757 1046.56 561.709 1049.99H523.743C524.144 1042 524.433 1035.15 524.567 1031.05ZM512.305 1099.83L456.669 1101.45C451.907 1084.72 456.336 1109.68 435.016 925.4C430.988 889.92 426.76 853.759 426.96 818.026C427.205 773.667 426.07 732.519 388.616 703.68C374.507 692.826 358.618 686.373 341.526 682.358C341.905 666.132 333.938 656.278 323.367 644.305C310.816 630.078 298.109 613.893 289.786 596.466C294.592 585.479 297.975 573.704 299.911 561.558C341.526 563.065 381.628 567.945 418.904 592.371C419.95 593.065 421.285 593.186 422.42 592.758C451.083 601.4 476.431 620.638 499.954 639.666C574.082 699.652 626.313 755.679 659.049 849.747L485.288 969.013C484.064 969.866 483.419 971.359 483.664 972.839C485.266 982.693 495.08 1002.43 508.944 1015.05C513.061 1018.8 516.578 1022 516.956 1027.56C517.156 1030 516.711 1040 515.999 1051.89C515.287 1053.07 515.175 1054.21 515.776 1055.52C514.73 1072.83 513.217 1092.88 512.305 1099.83ZM47.0153 865.467C47.9055 869.506 48.1058 873.812 49.2853 877.854C52.2673 888.213 61.3914 895.372 70.9607 898.679C80.5745 902.053 90.856 902.267 100.87 903.239C128.844 905.894 156.105 914.386 184.012 917.493C211.963 920.546 242.05 917.493 264.616 899.52C274.653 891.48 283.043 880.186 285.223 866.92C289.029 843.6 273.362 821.066 274.697 797.438C275.921 776.56 289.674 760.225 304.051 745.266C326.794 751.546 347.313 763.358 360.509 782.92C377.89 808.706 377.734 840.68 377.6 871.814C377.333 913.36 381.161 939.44 399.587 1102.23L22.4912 1105.87C9.62834 995.24 7.09145 877.053 10.2293 818.119C21.2896 835.653 42.2752 845.294 47.0153 865.467ZM142.552 139.076C140.839 135.224 141.061 130.811 143.086 128.357C145.29 125.691 148.895 125.357 154.569 125.143C168.323 124.598 172.328 121.785 177.825 109.543C179.583 105.691 181.23 102.037 183.967 100.717C187.172 99.1971 191.333 101.478 193.648 104.425C198.722 110.945 198.788 119.33 213.788 176.423C215.39 182.279 214.812 184.037 217.415 185.145C218.617 185.663 219.974 185.543 221.065 184.838C223.446 183.291 224.848 183.224 225.048 183.398C225.271 183.919 225.827 184.224 225.627 186.892C225.427 189.705 228.186 191.81 230.879 190.811C257.361 180.892 284.756 164.664 294.926 165.65C297.997 165.917 301.803 167.824 302.915 171.358C305.252 179.065 294.125 188.717 295.238 200.291C296.15 210.025 305.363 216.599 304.696 223.478C304.273 227.503 300.267 230.372 296.707 231.024C288.94 232.464 281.618 228.024 228.876 213.677C217.549 210.65 218.083 208.372 215.279 208.372C214.455 208.372 213.61 208.639 212.92 209.17C209.671 211.665 208.002 211.545 207.824 211.385C207.334 211.038 206.533 208.251 208.358 202.743C209.226 200.131 207.2 198.37 205.109 196.239C181.564 170.931 147.782 151.158 142.552 139.076ZM419.171 817.986C418.993 854.026 423.199 890.28 427.294 926.279C448.747 1111.79 444.163 1084.52 448.658 1101.68C443.384 1101.88 448.324 1101.71 407.376 1102.16C389.306 941.892 385.078 913.865 385.367 871.64C385.523 839.532 385.679 806.347 366.963 778.574C353.566 758.732 333.092 745.96 310.215 738.946C323.412 725.466 337.009 709.225 340.681 690.147C370.924 697.426 390.552 712.012 402.08 729.078C419.55 755 419.349 787.012 419.171 817.986ZM320.029 333.878C329.687 332.785 338.856 327.918 345.888 320.811C347.29 319.411 362.334 297.025 358.862 295.786C379.091 302.771 402.436 299.771 421.374 284.358C431.366 310.011 435.239 333.504 435.75 361.358C434.994 363.398 435.484 369.532 435.728 371.69C435.684 373.651 435.684 375.625 435.595 377.572C435.528 379.105 436.396 380.465 437.687 381.146C441.47 393.145 450.127 400.945 447.3 408.318C445.075 414.091 436.218 414.852 430.098 414.879C427.939 414.892 426.226 416.639 426.226 418.784C426.226 420.825 427.828 422.452 429.853 422.599C417.547 487.478 385.234 523.572 323.79 500.172C321.787 499.411 319.539 500.413 318.783 502.424C318.004 504.425 319.028 506.666 321.03 507.438C336.964 513.505 354.545 517.159 371.325 514.039C375.219 539.333 374.084 547.371 375.776 564.306C358.195 559.025 339.524 555.304 300.935 553.825C302.693 537.786 302.092 521.305 299.244 505.386C301.002 502.079 302.76 498.759 304.362 495.385C312.418 478.599 317.136 457.411 307.656 441.492C303.539 434.558 296.751 428.438 296.885 420.197C296.929 418.704 297.196 417.198 297.441 415.704C307.856 414.478 316.824 409.119 322.188 402.305C324.992 402.038 326.616 398.878 325.125 396.412C324.658 395.891 323.857 393.265 321.03 393.265C321.008 393.265 321.008 393.265 321.008 393.265C319.628 393.265 318.36 393.998 317.67 395.17C313.62 402.038 305.252 406.798 297.085 407.971C295.639 404.624 292.234 402.545 289.162 400.558C274.63 391.158 264.015 373.065 263.926 352.411C269.401 336.664 286.18 332.371 300.735 338.798C302.359 339.517 304.162 338.972 305.252 337.652C308.746 340.412 312.707 347.144 316.513 348.065C317.27 337.744 313.82 334.637 320.029 333.878ZM621.862 747.026C626.535 694.894 650.725 431.945 666.704 375.798C667.883 371.706 672.112 368.011 679.077 367.891C711.346 366.091 923.739 351.586 1087.48 348.504C1205.7 345.998 1215.96 351.931 1217.94 352.091C1219.87 352.612 1220.52 352.932 1221.28 354.586C1223.46 359.079 1222.43 364.558 1221.7 370.37C1214.73 438.239 1185.63 722.48 1173.7 788.88C1172.76 794.065 1167.09 797.719 1160.7 797.412C1078.34 792.08 714.15 768.225 632.099 757.639C625.89 756.827 621.394 752.174 621.862 747.026ZM619.214 330.171C620.816 324.238 626.335 319.477 634.636 319.357C669.018 316.758 772.01 310.505 772.545 310.465C772.456 315.051 767.871 327.411 777.886 333.317C779.488 334.252 779.377 334.105 780.356 334.412C781.869 334.877 781.736 334.81 782.893 334.904C785.496 335.158 764.956 335.932 1030.16 322.571C1037.99 322.159 1045 314.984 1046.11 306.212L1047.29 296.745C1083.57 295.385 1240.75 290.037 1276.36 298.919C1279.36 299.771 1280.74 299.825 1282.01 302.838C1284.46 308.226 1283.72 314.172 1282.97 320.466C1274.58 407.958 1239.57 773.36 1225.37 858.226C1224.13 865.48 1217.12 870.505 1209.13 869.987C1193.9 868.934 836.191 844.239 659.071 827.773C649.59 804.226 638.597 783.147 627.047 764.387C647.788 771.319 1152.93 805.212 1161.66 805.212C1171.41 805.212 1179.75 799.001 1181.35 790.266C1193.41 722.798 1221.92 444.532 1229.71 368.666C1230.4 363.265 1231.18 357.158 1228.31 351.252C1227.37 349.238 1226.11 347.665 1224.53 346.559C1222.77 345.306 1219.74 344.424 1218.81 344.318C1158.14 330.264 693.342 358.505 677.163 360.225C668.618 360.759 661.43 366.144 659.227 373.651C643.537 428.732 620.994 670.025 614.251 744.959C600.743 725.64 587.123 709.479 575.061 696.986C587.857 556.918 605.839 380.345 619.214 330.171ZM815.339 29.7042C815.918 24.7705 819.857 20.4242 823.907 20.2106L1069.37 7.7838C1069.46 7.77045 1069.57 7.7705 1069.66 7.7705C1073.31 7.7705 1074.93 11.478 1074.49 15.2234V15.2367L1038.39 305.237C1037.77 310.224 1033.81 314.599 1029.76 314.811C769.963 327.411 783.471 328.704 780.779 325.851C779.488 324.451 778.909 322.237 779.198 319.798C779.265 319.266 780.934 305.851 780.845 306.704L815.339 29.7042ZM819.768 857.307C826.155 895.719 811.178 895.84 774.013 904.973C732.954 915.094 725.566 913.267 715.952 914.72L665.591 902.921L646.319 867.919L665.88 854.48C667.327 853.492 667.928 851.678 667.371 850.025C665.791 845.358 664.033 840.627 662.231 835.88C706.227 839.933 760.839 844.479 818.366 849.026C818.455 849.56 819.59 856.174 819.768 857.307ZM1319.33 314.212C1314.63 311.426 1293.6 298.97 1287.46 296.798C1286.73 295.77 1285.93 294.878 1285.01 294.197C1267.74 280.504 1070.06 288.144 1048.27 288.945L1082.19 16.1959C1083.32 7.2631 1077.72 -0.323325 1068.97 0.0104872L823.507 12.4504C815.651 12.8644 808.663 20.0237 807.617 28.7584L773.524 302.624C759.081 303.503 646.786 310.411 632.366 311.704C622.485 312.385 614.162 318.986 611.714 328.159C598.406 378.077 580.714 550.413 567.94 689.679C546.687 668.133 524.277 649.346 504.85 633.626C480.014 613.546 453.153 593.212 422.042 584.56C421.641 584.453 421.285 584.44 420.885 584.413C409.713 577.345 397.229 571.492 383.854 566.866C381.806 549.385 383.186 539.825 378.891 512.078C397.985 505.932 411.894 490.839 421.352 473.612C430.409 457.079 434.949 437.838 437.82 422.145C444.073 421.252 451.64 418.691 454.555 411.091C458.183 401.611 451.707 392.998 447.501 384.865C445.364 380.745 444.096 376.172 443.495 371.385C444.162 338.251 439.645 308.41 427.561 278.743C448.257 257.451 453.287 225.465 446.7 197.131C442.872 180.211 436.463 172.812 428.028 167.638C428.874 177.997 426.649 192.558 420.885 200.491C417.28 205.465 411.583 208.73 405.641 209.251C412.539 223.024 414.698 224.597 410.381 226.504C402.903 229.718 395.337 232.931 387.459 234.798C363.113 240.651 336.096 232.878 317.959 214.745C328.864 221.065 341.883 222.158 354.189 220.184C366.429 218.21 378.068 213.397 389.484 208.265C385.923 200.438 382.363 192.664 378.78 184.851C384.143 187.33 389.595 189.504 395.181 191.318C411.694 196.77 404.305 169.745 403.615 158.932C403.526 158.878 403.393 158.878 403.282 158.878C387.637 157.61 373.061 165.69 361.867 176.504C360.554 177.745 357.327 182.663 355.725 182.984C352.298 183.545 348.002 176.61 345.354 174.743C332.669 165.65 317.091 160.425 301.135 159.317C295.282 156.824 289.251 157.717 283.221 159.851C263.993 162.343 248.148 169.879 232.125 180.198C230.033 176.025 225.983 174.797 221.71 175.998C221.399 174.703 224.247 186.157 206.845 116.945C205.443 111.263 203.818 104.825 199.79 99.6511C194.738 93.1707 186.838 90.7294 180.629 93.7181C175.31 96.2507 172.885 101.623 170.748 106.358C166.498 115.796 165.029 116.958 154.28 117.37C148.361 117.597 141.684 117.864 137.078 123.412C132.627 128.851 133.027 136.771 135.431 142.183C141.729 156.731 174.977 175.558 198.944 201.052C152.856 230.492 124.059 284.943 124.794 338.852C125.038 356.677 127.598 376.57 117.338 390.611C111.441 398.638 102.361 403.104 95.1731 409.838C83.423 420.878 77.2587 438.439 79.2838 455.079C82.3104 479.892 102.028 501.973 97.688 526.532C93.0592 552.492 64.9965 564.411 50.3311 585.652C38.8924 602.238 36.311 625.345 43.7661 644.359C49.1516 658.065 61.1021 671.999 48.1056 695.532C39.2262 703.386 32.1272 712.546 26.1853 722.798C20.1767 729.238 14.4129 735.505 10.4962 741.932C-0.341599 759.693 -2.9675 783.425 3.46394 803.572C-0.586308 849.386 -0.252495 979.72 15.2586 1111.17C15.5034 1113.13 17.1503 1114.61 19.1309 1114.61C19.7318 1114.61 403.393 1111.51 404.127 1111.51C405.196 1111.49 406.152 1110.72 406.887 1109.92C457.804 1109.37 453.91 1109.67 455.067 1109.29C516.911 1107 516.266 1108.56 518.402 1106.17C520.472 1103.84 522.23 1079 523.365 1057.76H1257.55C1259.69 1057.76 1261.45 1056.01 1261.45 1053.87C1261.45 1051.72 1259.69 1049.99 1257.55 1049.99H1138.89C1133.82 1007.77 1112.59 997.014 1074.93 989.601C1074.02 986.227 1072.15 983.16 1069.82 980.572C1073.35 977.839 1075.53 973.146 1075.31 968.706C1074.64 955.28 1057.2 945.026 1045.14 941.721C1047.47 937.72 1048.25 932.505 1046.69 928.039C1043.62 919.146 1035.1 914.68 1028.96 912.092C1011.33 904.679 992.282 902.44 974.523 905.547C978.15 890.521 976.37 872.813 976.036 861.065C999.937 862.839 1204.94 877.8 1210.28 877.8C1215.18 877.8 1219.7 876.307 1223.46 873.826C1224.37 873.732 1225.28 873.679 1226.2 873.572C1260.91 869.066 1261.62 869.253 1264.45 867.799C1269.81 865.027 1269.86 859.973 1273.02 837.066C1285.57 746.599 1306.55 531.72 1315.52 439.852C1327.23 318.732 1327.92 323.744 1324.71 318.719C1323.42 316.678 1321.35 315.412 1319.33 314.212Z" fill="#040606"/>
<path d="M887.392 800.907C877.917 800.907 870.231 808.947 870.231 818.879C870.231 828.8 877.917 836.854 887.392 836.854C896.847 836.854 904.532 828.8 904.532 818.879C904.532 808.947 896.847 800.907 887.392 800.907Z" fill="#040606"/>
<path d="M405.727 372.304C410.642 372.665 415.124 365.317 415.74 355.892C416.357 346.451 412.858 338.517 407.959 338.157C403.044 337.784 398.562 345.13 397.962 354.571C397.346 363.998 400.828 371.93 405.727 372.304Z" fill="#040606"/>
<path d="M362.86 330.51C378.591 317.417 400.808 313.963 419.498 321.737C421.487 322.549 423.744 321.616 424.58 319.63C425.399 317.656 424.463 315.376 422.474 314.55C401.159 305.683 375.799 309.603 357.878 324.537C356.24 325.909 356.006 328.363 357.394 330.017C358.764 331.67 361.205 331.884 362.86 330.51Z" fill="#040606"/>
<path d="M291.613 351.18C284.384 351.38 277.92 357.86 277.236 365.633C276.344 375.621 284.878 383.793 288.763 383.793C292.807 383.793 294.16 378.38 290.626 376.487C286.995 374.527 284.623 370.26 284.973 366.313C285.324 362.487 288.524 359.046 291.836 358.953C293.985 358.9 295.673 357.114 295.625 354.967C295.545 352.82 293.826 351.113 291.613 351.18Z" fill="#040606"/>
<path d="M421.158 435.868C414.102 436.76 406.462 433.321 402.181 427.255C400.944 425.508 398.536 425.082 396.781 426.321C395.009 427.561 394.607 429.974 395.828 431.735C401.747 440.121 412.012 444.881 422.161 443.589C424.301 443.308 425.789 441.362 425.522 439.242C425.238 437.108 423.248 435.588 421.158 435.868Z" fill="#040606"/>
<path d="M865.47 145.383V184H858.536L841.575 159.464H841.255V184H833.254V145.383H840.294L857.15 169.918H857.523V145.383H865.47ZM884.833 184.587C876.085 184.587 870.644 178.559 870.644 169.598C870.644 160.637 876.085 154.664 884.833 154.664C893.58 154.664 899.074 160.637 899.074 169.598C899.074 178.559 893.58 184.587 884.833 184.587ZM884.886 178.453C888.94 178.453 891.02 174.666 891.02 169.598C891.02 164.478 888.94 160.691 884.886 160.691C880.779 160.691 878.645 164.478 878.645 169.598C878.645 174.666 880.779 178.453 884.886 178.453ZM914.702 184.48C908.088 184.48 902.914 179.199 902.914 169.545C902.914 159.624 908.302 154.664 914.702 154.664C919.556 154.664 921.85 157.544 922.917 159.891H923.183V145.383H931.077V184H923.29V179.36H922.917C921.797 181.76 919.396 184.48 914.702 184.48ZM917.156 178.186C921.103 178.186 923.343 174.719 923.343 169.492C923.343 164.265 921.103 160.958 917.156 160.958C913.156 160.958 911.022 164.425 911.022 169.492C911.022 174.612 913.156 178.186 917.156 178.186ZM950.546 184.587C941.692 184.587 936.251 178.826 936.251 169.652C936.251 160.691 941.745 154.664 950.226 154.664C957.854 154.664 963.828 159.464 963.828 169.332V171.572H944.039C944.039 175.946 946.652 178.666 950.706 178.666C953.373 178.666 955.293 177.493 956.094 175.732H963.614C962.494 181.066 957.694 184.587 950.546 184.587ZM944.039 166.611H956.36C956.36 163.091 953.907 160.584 950.386 160.584C946.759 160.584 944.172 163.278 944.039 166.611ZM973.429 184.48C970.922 184.48 968.895 182.453 968.948 180C968.895 177.546 970.922 175.572 973.429 175.572C975.776 175.572 977.856 177.546 977.856 180C977.856 182.453 975.776 184.48 973.429 184.48ZM984.203 155.037H992.097V185.44C992.097 192.108 987.99 194.881 981.216 194.881L979.616 194.828V188.64C980.043 188.64 980.309 188.694 980.683 188.694C983.243 188.694 984.203 187.52 984.203 185.333V155.037ZM988.097 151.25C985.697 151.25 983.776 149.436 983.776 147.249C983.776 145.009 985.697 143.196 988.097 143.196C990.444 143.196 992.364 145.009 992.364 147.249C992.364 149.436 990.444 151.25 988.097 151.25ZM1014.77 163.624C1014.45 161.598 1012.63 160.264 1010.02 160.264C1007.46 160.264 1005.49 161.491 1005.54 163.251C1005.49 164.531 1006.55 165.545 1009.27 166.131L1014.45 167.198C1020.05 168.372 1022.77 170.879 1022.82 175.039C1022.77 180.746 1017.65 184.587 1009.97 184.587C1002.13 184.587 997.538 181.066 996.898 175.412H1004.85C1005.22 177.706 1007.09 178.879 1009.97 178.879C1012.85 178.879 1014.77 177.706 1014.77 175.839C1014.77 174.346 1013.54 173.439 1010.82 172.852L1006.02 171.892C1000.52 170.825 997.645 167.945 997.698 163.678C997.645 158.131 1002.45 154.664 1009.91 154.664C1017.22 154.664 1021.75 158.131 1022.18 163.624H1014.77Z" fill="#040606"/>
<g clip-path="url(#clip0_11_64)">
<path d="M915.291 680.001C914.02 680.001 912.758 679.667 911.644 679.025L900.037 672.147C898.303 671.177 899.149 670.834 899.721 670.636C902.033 669.826 902.502 669.643 904.969 668.241C905.228 668.093 905.568 668.145 905.833 668.302L914.75 673.598C915.072 673.772 915.529 673.772 915.828 673.598L950.597 653.511C950.919 653.328 951.128 652.953 951.128 652.57V612.413C951.128 612.013 950.919 611.655 950.59 611.455L915.835 591.386C915.513 591.194 915.086 591.194 914.764 591.386L880.016 611.455C879.679 611.647 879.465 612.021 879.465 612.405V652.561C879.465 652.945 879.674 653.31 880.005 653.493L889.526 658.999C894.696 661.586 897.855 658.537 897.855 655.471V615.837C897.855 615.27 898.299 614.835 898.865 614.835H903.268C903.817 614.835 904.269 615.27 904.269 615.837V655.488C904.269 662.387 900.509 666.35 893.973 666.35C891.963 666.35 890.379 666.35 885.958 664.173L876.837 658.911C874.583 657.605 873.19 655.166 873.19 652.561V612.405C873.19 609.791 874.583 607.352 876.837 606.063L911.641 585.967C913.843 584.722 916.767 584.722 918.951 585.967L953.712 606.072C955.957 607.37 957.358 609.8 957.358 612.413V652.57C957.358 655.174 955.957 657.605 953.712 658.911L918.951 679.007C917.837 679.652 916.575 679.983 915.287 679.983" fill="#689F63"/>
<path d="M926.031 652.33C910.818 652.33 907.628 645.34 907.628 639.478C907.628 638.92 908.077 638.476 908.635 638.476H913.126C913.622 638.476 914.04 638.838 914.118 639.328C914.797 643.908 916.816 646.218 926.015 646.218C933.343 646.218 936.459 644.562 936.459 640.672C936.459 638.434 935.571 636.77 924.187 635.655C914.666 634.714 908.783 632.615 908.783 624.993C908.783 617.972 914.701 613.791 924.614 613.791C935.745 613.791 941.263 617.658 941.959 625.968C941.985 626.256 941.881 626.535 941.689 626.744C941.498 626.944 941.228 627.066 940.949 627.066H936.433C935.963 627.066 935.554 626.735 935.458 626.282C934.37 621.465 931.742 619.923 924.596 619.923C916.598 619.923 915.667 622.711 915.667 624.801C915.667 627.336 916.764 628.076 927.555 629.505C938.243 630.925 943.317 632.928 943.317 640.446C943.317 648.024 936.998 652.371 925.98 652.371M968.329 609.784H969.496C970.453 609.784 970.636 609.113 970.636 608.721C970.636 607.693 969.931 607.693 969.539 607.693H968.338L968.329 609.784ZM966.911 606.491H969.496C970.383 606.491 972.124 606.491 972.124 608.477C972.124 609.862 971.236 610.15 970.705 610.324C971.741 610.394 971.811 611.073 971.95 612.031C972.02 612.632 972.133 613.669 972.342 614.017H970.749C970.705 613.669 970.462 611.752 970.462 611.648C970.357 611.221 970.209 611.012 969.678 611.012H968.364V614.026H966.911V606.491ZM963.804 610.237C963.804 613.355 966.319 615.881 969.409 615.881C972.524 615.881 975.04 613.303 975.04 610.237C975.04 607.11 972.49 604.627 969.4 604.627C966.354 604.627 963.795 607.075 963.795 610.228M976.119 610.254C976.119 613.948 973.099 616.961 969.417 616.961C965.762 616.961 962.716 613.982 962.716 610.254C962.716 606.456 965.832 603.547 969.417 603.547C973.029 603.547 976.11 606.465 976.11 610.254" fill="#689F63"/>
<path fill-rule="evenodd" clip-rule="evenodd" d="M807.624 522.876C807.624 521.273 806.78 519.801 805.398 519.004L768.535 497.776C767.912 497.41 767.215 497.218 766.509 497.192H766.127C765.421 497.218 764.724 497.41 764.091 497.776L727.23 519.004C725.856 519.805 725 521.277 725 522.88L725.081 580.058C725.081 580.85 725.49 581.591 726.186 581.983C726.865 582.401 727.718 582.401 728.397 581.983L750.311 569.422C751.695 568.598 752.539 567.141 752.539 565.554V538.843C752.539 537.249 753.383 535.776 754.763 534.984L764.093 529.606C764.785 529.205 765.546 529.006 766.321 529.006C767.083 529.006 767.861 529.203 768.535 529.605L777.86 534.981C779.24 535.774 780.088 537.246 780.088 538.84V565.55C780.088 567.135 780.944 568.599 782.32 569.417L804.221 581.97C804.908 582.379 805.764 582.379 806.449 581.97C807.124 581.578 807.552 580.837 807.552 580.045L807.624 522.876ZM981.571 552.646C981.571 553.044 981.359 553.412 981.014 553.609L968.353 560.914C968.009 561.112 967.584 561.112 967.241 560.914L954.578 553.609C954.23 553.411 954.021 553.043 954.021 552.646V538.015C954.021 537.616 954.23 537.249 954.57 537.048L967.224 529.731C967.572 529.531 967.998 529.531 968.347 529.731L981.01 537.048C981.358 537.249 981.567 537.616 981.567 538.015L981.571 552.646ZM984.991 444.282C984.3 443.897 983.459 443.907 982.777 444.306C982.098 444.706 981.679 445.438 981.679 446.231V502.851C981.679 503.408 981.383 503.922 980.901 504.201C980.422 504.48 979.826 504.48 979.343 504.201L970.109 498.878C968.734 498.081 967.04 498.081 965.66 498.878L928.785 520.178C927.407 520.971 926.557 522.443 926.557 524.028V566.641C926.557 568.235 927.407 569.699 928.785 570.5L965.66 591.815C967.037 592.608 968.732 592.608 970.113 591.815L1006.99 570.492C1008.36 569.69 1009.22 568.227 1009.22 566.633V460.431C1009.22 458.814 1008.34 457.327 1006.93 456.537L984.991 444.282ZM1107.79 537.63C1109.16 536.834 1110 535.364 1110 533.778V523.451C1110 521.862 1109.15 520.396 1107.78 519.596L1071.14 498.307C1069.76 497.506 1068.06 497.506 1066.68 498.307L1029.81 519.605C1028.43 520.406 1027.58 521.87 1027.58 523.464V566.059C1027.58 567.662 1028.44 569.143 1029.83 569.936L1066.46 590.833C1067.81 591.608 1069.46 591.617 1070.83 590.859L1092.99 578.533C1093.68 578.141 1094.13 577.401 1094.13 576.6C1094.13 575.798 1093.7 575.049 1093 574.657L1055.91 553.35C1055.22 552.958 1054.79 552.218 1054.79 551.425V538.063C1054.79 537.265 1055.21 536.53 1055.9 536.133L1067.44 529.469C1068.13 529.068 1068.98 529.068 1069.66 529.469L1081.21 536.133C1081.9 536.525 1082.33 537.265 1082.33 538.058V548.563C1082.33 549.356 1082.75 550.096 1083.44 550.497C1084.13 550.889 1084.98 550.889 1085.67 550.488L1107.79 537.63Z" fill="#333333"/>
<path fill-rule="evenodd" clip-rule="evenodd" d="M1068.37 535.637C1068.63 535.483 1068.96 535.483 1069.22 535.637L1076.3 539.722C1076.56 539.876 1076.73 540.158 1076.73 540.463V548.642C1076.73 548.947 1076.56 549.229 1076.3 549.383L1069.22 553.468C1068.96 553.622 1068.63 553.622 1068.37 553.468L1061.3 549.383C1061.03 549.229 1060.86 548.947 1060.86 548.642V540.463C1060.86 540.158 1061.02 539.876 1061.29 539.722L1068.37 535.637Z" fill="#689F63"/>
<mask id="mask0_11_64" style="mask-type:luminance" maskUnits="userSpaceOnUse" x="825" y="497" width="84" height="95">
<path d="M864.88 498.52L828.214 519.702C826.84 520.495 825.998 521.958 825.998 523.54V565.934C825.998 567.516 826.84 568.979 828.214 569.772L864.883 590.97C866.253 591.76 867.944 591.76 869.313 590.97L905.975 569.772C907.342 568.979 908.186 567.515 908.186 565.934V523.54C908.186 521.958 907.342 520.495 905.966 519.702L869.309 498.52C868.621 498.125 867.856 497.928 867.09 497.928C866.324 497.928 865.558 498.125 864.87 498.52" fill="white"/>
</mask>
<g mask="url(#mask0_11_64)">
<path d="M945.238 516.106L841.919 465.418L788.943 573.583L892.26 624.274L945.238 516.106Z" fill="url(#paint0_linear_11_64)"/>
</g>
<mask id="mask1_11_64" style="mask-type:luminance" maskUnits="userSpaceOnUse" x="826" y="498" width="81" height="94">
<path d="M826.907 568.625C827.258 569.08 827.697 569.475 828.213 569.771L859.666 587.955L864.905 590.969C865.688 591.422 866.581 591.613 867.458 591.548C867.751 591.525 868.043 591.47 868.329 591.389L907 520.518C906.704 520.196 906.358 519.925 905.97 519.699L881.961 505.823L869.27 498.514C868.91 498.305 868.519 498.157 868.122 498.053L826.907 568.625Z" fill="white"/>
</mask>
<g mask="url(#mask1_11_64)">
<path d="M782.236 531.098L855.19 629.924L951.673 558.578L878.715 459.754L782.236 531.098Z" fill="url(#paint1_linear_11_64)"/>
</g>
<mask id="mask2_11_64" style="mask-type:luminance" maskUnits="userSpaceOnUse" x="828" y="497" width="81" height="95">
<path d="M866.652 497.952C866.037 498.013 865.435 498.205 864.881 498.52L828.319 519.641L867.744 591.514C868.293 591.435 868.832 591.252 869.32 590.97L905.986 569.772C907.117 569.115 907.892 568.003 908.127 566.744L867.936 498.024C867.64 497.966 867.344 497.936 867.039 497.936C866.918 497.936 866.796 497.942 866.674 497.953" fill="white"/>
</mask>
<g mask="url(#mask2_11_64)">
<path d="M828.318 497.936V591.515H908.111V497.936H828.318Z" fill="url(#paint2_linear_11_64)"/>
</g>
</g>
<defs>
<linearGradient id="paint0_linear_11_64" x1="893.548" y1="490.682" x2="840.5" y2="598.803" gradientUnits="userSpaceOnUse">
<stop offset="0.3" stop-color="#3E863D"/>
<stop offset="0.5" stop-color="#55934F"/>
<stop offset="0.8" stop-color="#5AAD45"/>
</linearGradient>
<linearGradient id="paint1_linear_11_64" x1="819.15" y1="581.077" x2="915.697" y2="509.804" gradientUnits="userSpaceOnUse">
<stop offset="0.57" stop-color="#3E863D"/>
<stop offset="0.72" stop-color="#619857"/>
<stop offset="1" stop-color="#76AC64"/>
</linearGradient>
<linearGradient id="paint2_linear_11_64" x1="828.345" y1="544.728" x2="908.126" y2="544.728" gradientUnits="userSpaceOnUse">
<stop offset="0.16" stop-color="#6BBF47"/>
<stop offset="0.38" stop-color="#79B461"/>
<stop offset="0.47" stop-color="#75AC64"/>
<stop offset="0.7" stop-color="#659E5A"/>
<stop offset="0.9" stop-color="#3E863D"/>
</linearGradient>
<clipPath id="clip0_11_64">
<rect width="385" height="236" fill="white" transform="translate(725 444)"/>
</clipPath>
</defs>
</svg>
