<svg width="1871" height="1771" viewBox="0 0 1871 1771" fill="none" xmlns="http://www.w3.org/2000/svg">
<path d="M593.022 221.213C597.018 219.059 599.435 216.702 600.785 213.701C602.115 210.743 602.347 207.284 602.253 203.084C601.851 185.016 588.892 173.522 572.856 166.439C557.111 159.483 538.138 156.647 524.259 155.96C519.582 131.122 501.127 106.954 477.684 97.1312C456.782 88.3744 427.287 86.8198 401.105 93.557C374.933 100.292 351.801 115.395 344.038 140.208H344.037C343.702 141.28 343.526 142.683 343.372 144.099C343.214 145.556 343.076 147.067 342.839 148.495C342.6 149.927 342.275 151.17 341.787 152.087C341.37 152.872 340.876 153.344 340.265 153.549C326.059 147.81 307.247 148.318 290.454 153.843C273.807 159.321 258.915 169.807 252.446 184.342L252.145 185.037C251.013 187.716 248.586 195.639 247.394 203.122C246.798 206.86 246.497 210.571 246.854 213.496C247.198 216.323 248.239 218.945 250.828 219.547L250.938 219.573L251.05 219.574L592.543 221.333L592.798 221.334L593.022 221.213ZM259.997 208.027C260.729 188.553 274.102 172.69 292.37 166.371H292.371C298.296 164.315 307.049 162.645 315.628 162.46C324.253 162.275 332.463 163.596 337.49 167.298V167.299C337.992 167.668 338.589 168.281 339.272 169.093C339.948 169.896 340.666 170.843 341.42 171.847C342.902 173.821 344.536 176.044 346.101 177.549C346.881 178.3 347.722 178.951 348.594 179.282C349.516 179.631 350.522 179.632 351.433 178.99C352.27 178.399 352.881 177.362 353.347 175.995C353.821 174.606 354.191 172.741 354.454 170.322L354.584 169.007C354.853 165.991 354.884 163.324 354.854 160.85C354.821 158.002 354.711 155.48 354.781 152.91C354.92 147.851 355.762 142.733 359.372 135.57C367.244 119.946 385.367 110.273 405.649 105.582C425.9 100.9 448.027 101.253 463.544 105.432L464.917 105.817C493.531 114.147 507.678 138.07 515.064 165.751L515.233 166.385L515.883 166.483C526.843 168.119 542.086 169.686 556.044 173.639C570.033 177.601 582.392 183.876 587.843 194.69L587.844 194.691C588.684 196.355 589.883 199.932 590.188 203.056C590.342 204.631 590.253 205.95 589.889 206.831C589.713 207.255 589.49 207.54 589.234 207.721C588.984 207.898 588.633 208.027 588.112 208.027H259.997Z" fill="#231F20" stroke="black" stroke-width="2"/>
<path d="M1635.8 1179.64L1854.64 1179.28H1854.79L1854.94 1179.24C1863.98 1176.38 1868.38 1169.17 1869.41 1161.09C1870.44 1153.05 1868.17 1144.06 1863.83 1137.32L1863.83 1137.31C1853.2 1120.78 1834.48 1112.87 1815.28 1113.95C1819.81 1099.55 1812.78 1085.23 1801.83 1073.73C1790.49 1061.83 1774.73 1052.67 1762.26 1049.16C1743.18 1043.78 1722.02 1049.15 1705.46 1060.76C1689.28 1072.11 1677.36 1089.52 1676.06 1108.94C1662.95 1104.36 1647.46 1108.19 1635.5 1116.48C1623.14 1125.04 1614.26 1138.56 1615.69 1152.99V1152.99C1616.21 1158.27 1618.24 1164.53 1621.58 1169.66C1624.91 1174.79 1629.66 1178.93 1635.69 1179.64L1635.75 1179.64H1635.8ZM1645.09 1168.32C1638.28 1168.65 1633.76 1165.89 1631.12 1161.58C1628.43 1157.22 1627.6 1151.15 1628.52 1144.84C1629.56 1137.67 1636.3 1130.17 1644.8 1125.24C1653.31 1120.3 1663.12 1118.2 1670.04 1121.26H1670.05C1671.61 1121.95 1673.12 1123.28 1674.62 1124.97C1676.11 1126.66 1677.52 1128.61 1678.91 1130.5C1680.27 1132.35 1681.65 1134.17 1683.03 1135.44C1684.38 1136.7 1685.99 1137.65 1687.79 1137.26L1687.98 1137.22L1688.15 1137.1C1690.17 1135.7 1691.31 1134.12 1691.76 1132.38C1692.2 1130.66 1691.94 1128.93 1691.44 1127.29C1690.94 1125.66 1690.16 1123.99 1689.48 1122.43C1688.79 1120.83 1688.19 1119.33 1687.94 1117.88C1685.34 1103.03 1693.36 1087.89 1705.78 1076.66C1718.21 1065.43 1734.79 1058.34 1748.87 1059.43L1749.65 1059.5C1757.82 1060.3 1767.58 1064.03 1776.51 1069.31C1785.73 1074.77 1793.91 1081.81 1798.46 1088.84V1088.84C1801.83 1094.05 1804.43 1100.02 1804.43 1105.17C1804.42 1107.72 1803.79 1110.04 1802.33 1111.99C1800.86 1113.93 1798.51 1115.6 1794.92 1116.73L1794.3 1116.92L1794.23 1117.57C1793.78 1121.59 1794.44 1124.34 1796.21 1126C1797.95 1127.63 1800.48 1127.93 1803.06 1127.78C1805.66 1127.63 1808.63 1127 1811.44 1126.47C1814.31 1125.93 1817.03 1125.5 1819.33 1125.65H1819.33C1832.29 1126.51 1847.38 1132.8 1853.53 1144.53L1853.53 1144.54C1855.88 1149 1857.9 1154.36 1857.81 1158.84C1857.76 1161.06 1857.2 1162.99 1855.97 1164.51C1854.76 1166.01 1852.82 1167.2 1849.79 1167.82L1645.13 1168.32H1645.11L1645.09 1168.32Z" fill="#231F20" stroke="black" stroke-width="2"/>
<path d="M1552.55 1652.07C1553.67 1652.25 1554.65 1651.98 1555.38 1651.25C1556.07 1650.57 1556.43 1649.61 1556.62 1648.61C1556.82 1647.59 1556.86 1646.41 1556.81 1645.18C1556.62 1640.29 1554.89 1633.92 1554.02 1631.48C1522.04 1541.3 1454.52 1488.39 1369.91 1451.11L1369.91 1451.11C1366.14 1449.45 1351.52 1443.5 1337.46 1438.05C1330.42 1435.33 1323.51 1432.72 1318.15 1430.84C1315.48 1429.9 1313.18 1429.14 1311.44 1428.63C1310.57 1428.38 1309.82 1428.18 1309.23 1428.06C1308.94 1428 1308.67 1427.96 1308.43 1427.93C1308.21 1427.91 1307.94 1427.9 1307.68 1427.96C1305.2 1428.49 1303.62 1431.06 1303.2 1433.5C1302.78 1435.99 1303.44 1438.96 1306.13 1440.34L1306.19 1440.37L1306.26 1440.4C1396.64 1471.9 1476.47 1510.12 1523.99 1596.8L1524.45 1597.67C1526.93 1602.51 1532.11 1614.48 1537.09 1625.81C1539.73 1631.84 1542.32 1637.67 1544.39 1642.1C1545.43 1644.31 1546.34 1646.19 1547.08 1647.57C1547.44 1648.26 1547.77 1648.84 1548.05 1649.29C1548.2 1649.51 1548.33 1649.71 1548.47 1649.88C1548.59 1650.03 1548.75 1650.21 1548.94 1650.35C1550.29 1651.31 1551.49 1651.89 1552.55 1652.07Z" fill="#231F20" stroke="black" stroke-width="2"/>
<path d="M1636.45 1612.77C1637.24 1613.12 1638.1 1613.12 1638.93 1612.94C1639.76 1612.77 1640.63 1612.4 1641.49 1611.93C1643.22 1610.98 1645.09 1609.53 1646.88 1607.95C1649.56 1605.59 1652.16 1602.87 1653.9 1601.01L1655.34 1599.48L1655.34 1599.48C1711.96 1540.29 1761.54 1450.1 1780.67 1370.14L1781.11 1368.26V1368.26C1781.91 1364.82 1784.07 1354.78 1785.9 1345.13C1786.81 1340.31 1787.64 1335.57 1788.17 1331.8C1788.44 1329.92 1788.63 1328.26 1788.73 1326.95C1788.78 1326.29 1788.8 1325.71 1788.79 1325.22C1788.78 1324.75 1788.74 1324.3 1788.64 1323.93L1788.64 1323.93C1788.06 1321.89 1786.59 1320.49 1784.86 1319.75C1783.15 1319.01 1781.15 1318.89 1779.37 1319.39H1779.37C1777.16 1320.01 1776.23 1321.84 1775.78 1323.58C1775.56 1324.45 1775.43 1325.36 1775.34 1326.19C1775.24 1327.05 1775.18 1327.77 1775.07 1328.39V1328.4C1760.08 1416.52 1726.12 1494.94 1669.1 1563.86C1666.52 1566.99 1657.2 1576.78 1648.48 1586.28C1644.14 1591.01 1639.96 1595.65 1636.87 1599.31C1635.33 1601.14 1634.06 1602.74 1633.17 1603.99C1632.72 1604.61 1632.36 1605.17 1632.11 1605.64C1631.98 1605.88 1631.87 1606.11 1631.79 1606.34C1631.72 1606.54 1631.65 1606.82 1631.68 1607.13L1631.7 1607.45L1631.92 1607.7L1636.1 1612.51L1636.25 1612.68L1636.45 1612.77Z" fill="#231F20" stroke="black" stroke-width="2"/>
<path d="M337.274 826.214C338.366 826.397 339.329 826.136 340.069 825.45C340.763 824.806 341.164 823.879 341.398 822.904C341.636 821.913 341.728 820.765 341.723 819.559C341.703 814.776 340.146 808.434 338.923 805.579V805.578C322.695 767.771 280.214 753.172 241.735 758.382H241.734C230.247 759.942 219.013 765.076 210.021 772.189L210.02 772.19C208.242 773.599 201.796 779.374 197.206 785.203C194.931 788.093 193.001 791.131 192.424 793.724C192.131 795.041 192.159 796.366 192.803 797.503C193.454 798.654 194.625 799.423 196.216 799.846L196.623 799.945C200.793 800.847 203.742 798.216 206.017 795.262C207.2 793.726 208.292 791.982 209.318 790.439C210.368 788.86 211.347 787.491 212.36 786.543H212.361C227.359 772.496 248.53 767.485 268.94 770.152C289.353 772.819 308.874 783.149 320.546 799.605V799.606C321.464 800.898 322.511 802.895 323.637 805.263C324.757 807.621 325.923 810.275 327.093 812.87C328.256 815.453 329.424 817.977 330.528 820.022C331.081 821.045 331.627 821.967 332.159 822.725C332.682 823.47 333.235 824.12 333.813 824.541L334.284 824.872C335.37 825.605 336.364 826.062 337.274 826.214Z" fill="#231F20" stroke="black" stroke-width="2"/>
<path d="M1744.24 627.653L1744.54 627.641C1746.02 627.514 1747.03 626.46 1747.63 625.258C1748.28 623.973 1748.57 622.333 1748.57 620.753C1748.57 619.173 1748.28 617.534 1747.63 616.249C1746.99 614.967 1745.88 613.854 1744.24 613.854H1623.72L1623.55 613.921C1620.2 615.217 1619.26 618.756 1619.51 621.635C1619.64 623.105 1620.08 624.542 1620.77 625.643C1621.46 626.723 1622.52 627.653 1623.91 627.653H1744.24Z" fill="#231F20" stroke="black" stroke-width="2"/>
<path d="M1444.17 356.32L1444.38 355.587L1446.6 347.547L1446.75 347.015L1446.38 346.608L1442.97 342.848L1442.67 342.52H1324.25C1323.96 342.52 1323.73 342.63 1323.62 342.691C1323.48 342.764 1323.35 342.853 1323.24 342.938C1323.02 343.11 1322.78 343.336 1322.54 343.579C1322.05 344.069 1321.46 344.724 1320.87 345.387C1320.28 346.061 1319.67 346.751 1319.12 347.344C1318.55 347.952 1318.1 348.393 1317.81 348.607L1316.71 349.413L1317.81 350.219C1318.1 350.433 1318.55 350.874 1319.12 351.484C1319.67 352.078 1320.27 352.77 1320.87 353.445C1321.46 354.11 1322.05 354.766 1322.54 355.258C1322.78 355.501 1323.02 355.728 1323.24 355.9C1323.35 355.985 1323.48 356.075 1323.61 356.148C1323.73 356.209 1323.96 356.32 1324.25 356.32H1444.17Z" fill="#231F20" stroke="black" stroke-width="2"/>
<path d="M310.263 441.254L310.554 440.769L314.083 434.902L314.483 434.237L313.938 433.684L310.408 430.111L310.115 429.813H187.187V441.254H310.263Z" fill="#231F20" stroke="black" stroke-width="2"/>
<path d="M196.757 571.027L197.015 570.848C198.97 569.49 200.155 568.059 200.733 566.298C201.296 564.582 201.239 562.673 200.977 560.469L200.873 559.586H77.9067L77.6157 560.072L74.0864 565.938L73.686 566.604L74.231 567.157L77.7603 570.73L78.0542 571.027H196.757Z" fill="#231F20" stroke="black" stroke-width="2"/>
<mask id="path-10-outside-1_4_247" maskUnits="userSpaceOnUse" x="-0.000488281" y="-0.372681" width="1854" height="1771" fill="black">
<rect fill="white" x="-0.000488281" y="-0.372681" width="1854" height="1771"/>
<path d="M634.117 1756.83H754.449C749.403 1742.31 741.315 1729.16 736.724 1714.39C731.637 1698 727.877 1679.67 728.416 1662.52L632.967 1641.18L634.117 1756.83ZM622.32 1756.83L621.309 1638.68C608.992 1636.29 596.179 1628.58 584.719 1625.72C568.334 1621.67 550.144 1621.03 532.663 1616.44C509.798 1610.43 488.254 1600.16 465.443 1594C460.71 1648.28 473.05 1702.88 461.879 1756.83H622.32ZM454.801 1586.95H275.484C277.225 1643.35 271.09 1701.17 280.502 1756.53L449.878 1759.12C451.164 1758.15 454.638 1736.16 454.907 1732.16C458.075 1685.07 452.326 1634.4 454.801 1586.95ZM454.801 1573.96V1463.07C454.801 1462.19 451.338 1447.38 450.694 1445.95C449.988 1444.38 449.122 1442.91 447.772 1441.79L284.187 1441.11C280.515 1442.46 278.531 1445.12 277.883 1448.96C274.833 1467.03 278.48 1497.47 277.951 1517.46C277.802 1523.07 275.587 1528.12 275.376 1533.75C274.86 1547.5 275.979 1561.43 275.473 1575.16C295.507 1575.64 315.705 1574.52 335.758 1575.04C349.16 1575.39 364.626 1577.4 378.012 1577.61C397.983 1577.95 427.898 1579.86 446.661 1577.63C450.13 1577.22 452.701 1577.4 454.801 1573.96ZM768.604 1756.83H1042.3L1037.59 1417.06C1013.62 1416.48 989.487 1417.8 965.502 1417.19C955.983 1416.94 949.397 1409.5 947.809 1422.86C945.063 1445.82 947.29 1483.61 947.809 1508.02C948.622 1545.6 955.369 1591.56 952.743 1628.35C949.916 1668.19 935.944 1676.56 897.303 1679.07C864.893 1681.17 828.247 1677.98 796.007 1673.98C777.415 1671.67 758.805 1667.63 740.304 1664.81C739.61 1697.76 753.607 1728.42 768.604 1756.83ZM432.385 1414.71H291.999V1431.23H438.285C438.052 1424.14 441.05 1416.16 432.385 1414.71ZM1054.1 1756.83H1275.89L1264.07 1638.87C1262.75 1637.4 1233.84 1654.71 1228.66 1656.51C1211.51 1662.47 1171.8 1669.54 1162.11 1649.99C1157.71 1641.1 1155.36 1617.79 1153.51 1606.67C1149.93 1584.91 1146.94 1562.55 1144.03 1540.67C1138.02 1495.76 1133.57 1450.27 1129.6 1405.26L1047.02 1417.08L1054.1 1756.83ZM417.05 1405.27C414.579 1384.91 394.55 1391.3 380.595 1391.22C365.655 1391.11 337.351 1388.71 324.344 1391.6C318.121 1392.99 313.227 1398.74 313.234 1405.27H417.05ZM350.974 1379.31C391.78 1383.14 391.693 1366.04 350.974 1369.88V1379.31ZM327.38 1327.42C324.196 1323.79 307.639 1342.99 311.925 1351C313.387 1353.75 324.778 1362.67 325.03 1354.58C325.322 1345.2 326.778 1336.66 327.38 1327.42ZM393.455 1360.44V1326.23C393.455 1321.71 369.009 1317.86 363.971 1317.76C359.395 1317.68 336.828 1320.56 336.828 1323.87V1360.44H393.455ZM1152.99 1249.76L1129.58 1249.54C1133.35 1348.12 1142.6 1447.27 1155.82 1545.39C1160.29 1578.58 1164.39 1612.47 1171.93 1644.89C1181.4 1659.71 1223.1 1647.4 1236.67 1640.92C1246.06 1636.43 1253.44 1629.07 1261.8 1623.11C1263.37 1600.35 1257.85 1578.34 1253.51 1556.23C1246.72 1521.56 1236.65 1487.47 1229.41 1452.92C1215.25 1385.31 1203.73 1317.08 1188.4 1249.75L1164.98 1249.54L1169.58 1302.36C1167.72 1305.95 1165.4 1306.75 1161.49 1306.19C1156.29 1305.44 1156.24 1256.96 1152.99 1249.76ZM1315.99 1150.46C1310.81 1149.27 1310.74 1153.31 1308.45 1155.88C1282.49 1184.88 1256.94 1214.55 1229.74 1242.43C1227.89 1244.32 1227.11 1246.84 1225.9 1249.08L1200.37 1249.54C1201.21 1270.31 1203.06 1288.44 1223.21 1298.68C1260.42 1317.6 1310.16 1297.08 1339.64 1272C1346.83 1265.88 1370.15 1241.88 1372.59 1234.18C1374.64 1227.71 1364.45 1233.26 1359.96 1232.96C1343.35 1231.9 1321.98 1218.12 1312.59 1204.58C1299.64 1185.88 1309.59 1169.23 1315.99 1150.46ZM950.276 1244.83V1367.52H1001.02L1122.68 1352.34C1128.58 1348.5 1122.83 1332.3 1122.51 1326.24C1121.15 1300.71 1121.4 1274.72 1117.79 1249.55H1012.81C1011.8 1249.55 998.738 1243.43 996.667 1242.1C967.796 1223.6 990.012 1201.92 1004.61 1182.36C1022.25 1158.75 1042.48 1136.67 1061.17 1113.87L1020.44 1119.79C1013.86 1131.3 1007.27 1144.72 997.564 1154.1C989.225 1162.15 977.036 1166.36 969.037 1172.75C962.556 1177.92 959.355 1186.88 953.863 1192.96C895.689 1257.19 773.389 1323.12 690.195 1346.91C676.656 1350.79 657.487 1352.51 645.861 1356.84C643.046 1357.9 640.289 1358.83 639.299 1362.08C625.568 1432.14 608.713 1501.85 597.077 1572.32C595.638 1581.04 588.898 1612.24 592.711 1617.74C595.92 1622.36 682.504 1642.58 694.996 1645.22C758.183 1658.56 835.256 1671.76 899.66 1667.27C908.95 1666.63 926.311 1664.51 932.72 1657.87C944.823 1645.31 941.329 1597.19 940.955 1578.58C938.77 1470.38 937.542 1361.54 938.369 1252.96L943.184 1243.54L950.276 1244.83ZM459.528 1030.12L447.639 1029.02L424.117 1014.75L410.209 1079.43L447.712 1093.83L459.528 1030.12ZM434.745 1195.28C444.799 1196.6 459.379 1195.28 470.137 1195.28C470.867 1195.28 474.486 1200.08 476.001 1201.18C470.007 1209.82 456.412 1207.58 446.798 1206.82C419.424 1204.67 396.742 1196.96 379.337 1175.19C373.639 1168.06 365.23 1158.92 375.759 1153.03L381.636 1157.52L414.689 1004.19L374.867 1002.08C361.108 1070.38 345.267 1139.16 337.074 1208.5C333.559 1238.24 329.16 1274.44 333.78 1302.92C334.169 1305.32 332.008 1308.2 332.254 1309.59C333.255 1315.24 342.591 1311.55 342.852 1306.39C349.657 1270.5 350.857 1232.67 358.643 1197.04C360.108 1190.34 361.445 1184.23 369.851 1185.84L353.352 1308.52C365.98 1308.6 391.192 1306.58 399.306 1318.01C404.616 1325.51 408.786 1365.27 402.974 1368.78C399.157 1371.08 390.029 1368.51 391.101 1376.95C403.663 1378.26 416.058 1382.1 424.143 1392.28C426.997 1395.87 428.268 1401.75 431.285 1404.02C434.527 1406.44 440.368 1406.14 444.307 1409.87C450.616 1415.82 448.3 1424.9 451.325 1431.16C456.25 1441.36 462.847 1440.16 464.338 1458.25C467.516 1496.79 461.473 1539.35 464.587 1578.34C465.853 1582.2 472.456 1583.9 476.106 1585.69C506.518 1600.67 545.635 1608 578.639 1615.29L629.39 1358.1C506.076 1360.72 509.117 1198.46 497.26 1111.54L494.892 1027.76L470.068 1032.4L454.725 1107.91C451.295 1112.2 415.543 1091.22 407.631 1091.46C406.596 1108.11 387.684 1159.71 391.516 1172.39C392.9 1176.98 405.24 1184.96 409.865 1187.12C414.863 1189.47 429.857 1194.63 434.745 1195.28ZM1353.75 1150.46C1352.59 1130.7 1353.29 1109.47 1342.41 1092.19C1335.95 1081.94 1320.14 1069.11 1310.19 1082.11C1301.2 1093.84 1319.11 1099.43 1325.1 1109.5C1339.04 1132.91 1318.91 1160.51 1316.46 1182.96C1314.03 1205.16 1357.92 1233.19 1377.22 1217.58C1379.9 1215.42 1389.16 1202.06 1391.08 1198.42C1400.64 1180.27 1399.39 1177.26 1416.31 1162.28C1428.77 1151.26 1440.37 1140.24 1452.77 1130.32C1473.77 1113.5 1459.63 1042.35 1457.45 1017.24C1454.32 1008.47 1465.36 968.963 1456.15 966.511C1437.61 968.39 1432.79 990.297 1422.78 1002.99C1432.96 1017.9 1444.79 1034.9 1443.4 1053.71C1439.64 1053.91 1437.84 1054.55 1435.19 1051.3C1432.41 1047.9 1426.47 1027.71 1421.72 1019.95C1416.62 1011.66 1398.56 989.378 1388.33 990.47C1381.44 991.203 1371.97 1001.27 1376.09 1008.94C1377.37 1011.32 1395.11 1024.36 1399.79 1030.08C1412.51 1045.63 1422.6 1071.35 1422.16 1091.46C1418.96 1091.5 1415.88 1092.46 1413.93 1089.08C1410.8 1083.66 1408.26 1067.92 1405.1 1060.16C1399.96 1047.51 1392.57 1035.44 1382.11 1026.54C1373.35 1019.11 1357.81 1008.76 1350.74 1023.68C1342.54 1040.98 1366.22 1051.51 1374.93 1062.02C1388.86 1078.79 1396 1102.96 1396.2 1124.51L1387.09 1124.19C1383.52 1108.71 1382.99 1095.11 1375.05 1080.78C1369.2 1070.2 1337.91 1034.75 1333.48 1060.74C1331.82 1070.36 1346.65 1079.23 1351.84 1087.47C1363.58 1106.08 1363.86 1129.15 1363.16 1150.46H1353.75ZM1431.59 966.43C1421.83 965.977 1411.87 967.03 1402.1 966.43C1361.37 963.924 1320.28 958.418 1279.52 956.87C1257.7 956.044 1231.06 952.35 1216.94 972.35C1175.7 1024.48 1131.63 1074.32 1089.53 1125.71C1060.47 1161.19 1030.7 1196.59 1004.59 1234.23C1006.86 1237.7 1009.11 1237.47 1012.68 1237.86C1033.3 1240.1 1057.89 1236.06 1078.98 1237.64L1095.27 1240.22L1219.23 1238.91L1316.55 1130.98C1326.37 1106.39 1292.05 1108.67 1297.57 1083.7C1301.13 1067.63 1321.65 1066.92 1322.77 1065.2C1323.97 1063.35 1322.46 1056.02 1325.71 1050.43C1328.97 1044.8 1337.75 1042.99 1339.18 1037.96C1340.52 1033.28 1338.96 1027.51 1340.05 1022.32C1342.37 1011.44 1355.1 1005.99 1365.43 1006.42C1365.87 973.231 1395.46 976.577 1416.15 992.364L1431.59 966.43ZM1124.88 947.537H1196.85C1198.49 947.537 1217.53 932.577 1216.88 929.871C1191.38 912.364 1165.8 910.67 1135.49 912.138C1115.54 918.23 1086.3 909.43 1071.97 926.483C1045.24 958.31 1032.76 1001.86 994.927 1026.4C973.317 1040.43 949.609 1038.86 963.956 1074.24C975.276 1102.16 1001.4 1110.16 1029.42 1108.08C1045.61 1106.87 1070.85 1102.16 1081.27 1089.15L1157.89 998.244C1158.88 992.911 1155.58 994.964 1152.05 994.724C1146.51 994.349 1133.46 996.524 1130.66 992.483C1121.02 978.523 1151.15 985.296 1156.69 985.47C1170.93 985.911 1176.72 974.03 1185.06 964.07C1187.05 961.697 1189.55 961.016 1188.58 956.978H1128.42C1124.75 954.43 1124.36 951.897 1124.88 947.537ZM1469.35 967.591C1471.17 973.804 1469.35 998.803 1469.35 1007.71C1469.35 1008.68 1463.28 1011.83 1470.51 1011.23L1559.03 909.804L1464.64 959.377C1463.19 963.537 1468.94 966.163 1469.35 967.591ZM1582.59 879.13C1576.02 876.399 1568.3 880.428 1562.1 883.391C1521.39 902.857 1483.05 932.87 1439.68 947.364C1390.12 943.07 1340.91 940.404 1291.2 938.111C1273.45 937.284 1252.59 932.577 1234.67 935.804C1232.42 936.218 1218.62 943.791 1216.08 945.551C1206.5 952.271 1187.88 976.23 1179.18 986.51C1124.85 1050.71 1062.81 1121.5 1013 1188.39C1008.84 1193.95 988.203 1220.63 992.759 1225.95C997.84 1227.1 998.02 1223.2 1000.31 1220.54C1069.75 1139.92 1132.1 1051.95 1202.79 972.35C1220.07 952.87 1229.47 943.683 1258.29 945.057C1320.82 948.043 1383.49 956.271 1446.43 956.471C1487.15 932.204 1540.03 912.31 1578.15 885.183C1580.94 883.193 1583.96 885.19 1582.59 879.13ZM998.903 862.762L995.024 868.54C994.706 870.845 996.114 871.778 997.523 873.164C1013.68 889.097 1045.46 902.578 1063.42 918.283C1068.12 919.51 1073.97 909.791 1068.21 906.284L1006.84 863.838L998.903 862.762ZM494.921 1018.34L494.803 939.177C498.831 899.284 498.356 859.063 501.968 818.933C502.96 807.888 504.926 795.724 506.69 784.734C502.791 786.142 500.854 791.057 498.656 794.385C458.967 854.34 443.199 929.283 426.342 998.363C426.04 1001.32 426.647 1003.31 428.816 1005.39C429.801 1006.34 450.411 1019.84 451.72 1020.22C464.752 1024.06 481.411 1016.32 494.921 1018.34ZM506.698 758.791C462.002 773.012 380.131 803.193 357.631 846.829C342.083 876.98 339.457 943.457 347.294 976.003C349.32 984.417 352.26 986.682 360.297 988.95C377.94 993.95 398.558 992.204 416.766 992.096C431.928 925.897 448.909 860.974 481.878 801.205C488.389 789.387 497.884 777.941 503.86 766.55C505.246 763.913 507.561 762.395 506.698 758.791ZM1311.27 928.67C1308.5 865.039 1304.15 798.568 1287.02 737.032C1269.9 675.578 1245.97 643.243 1190.18 612.081C1186.22 609.859 1156.88 594.616 1155.55 595.997C1186.76 700.872 1210.96 808.191 1219.62 917.684C1222.76 927.99 1253.69 922.657 1262.91 923.937L1311.27 928.67ZM737.91 994.71C741.842 975.55 747.125 956.15 749.479 936.671C760.011 849.566 754.529 679.278 703.539 605.606C693.655 591.316 677.767 573.243 659.153 574.955C642.412 576.488 599.323 597.032 585.79 607.815C523.878 657.146 516.984 773.923 511.442 847.278C502.834 961.27 499.102 1096.88 519.216 1209.91C528.081 1259.72 543.242 1329.12 598.746 1345.08C654.18 1361.02 760.843 1310.71 811.13 1283.82C863.309 1255.9 918.17 1220.62 954.997 1174.07C925.825 1170.27 895.754 1147.56 885.429 1119.75C883.163 1113.64 876.601 1086.12 879.681 1082.23C880.163 1081.62 886.008 1079.1 887.78 1081.99C891.318 1087.75 891.627 1104.75 894.296 1113.24C900.241 1132.14 925.851 1156.96 945.423 1161.2C976.942 1168.02 994.168 1142.8 1009.26 1119.8C970.263 1114.51 937.276 1073.72 954.997 1034.86C931.353 1040.35 909.28 1051.63 886.035 1059.07C852.891 1069.68 819.378 1077.06 786.249 1089.06C749.491 1102.36 704.011 1127.2 667.285 1135.26C652.964 1138.39 652.987 1130.68 664.13 1125.02C672.641 1120.68 730.133 1102.96 730.97 1099.4L719.244 897.137C721.512 891.817 728.752 891.524 730.5 897.164L737.91 994.71ZM742.663 1093.83C743.394 1094.76 755.531 1090.18 757.679 1088.79C767.274 1082.64 775.72 1047.26 779.223 1034.84C810.408 924.257 819.672 802.586 793.844 689.896C785.742 654.551 760.631 578.227 729.809 558.111C720.419 551.981 691.723 564.159 681.315 568.839C734.404 609.223 751.502 689.702 758.93 753.13C769.198 840.803 765.793 926.084 744.347 1011.76C738.401 1035.52 738.318 1053.3 740.284 1078.5C740.687 1083.64 743.236 1088.52 742.663 1093.83ZM1018.73 539.362C1019.12 544.277 1017.92 549.91 1018.73 554.673C1020.95 567.693 1051.58 571.932 1055.44 579.47C1061.46 591.22 1025.41 621.415 1013.94 625.432C928.267 655.545 866.479 592.987 820.934 530.677C818.065 526.756 807.608 508.172 806.418 507.441C795.2 500.565 764.807 510.533 763.868 526.549C762.958 542.04 802.762 596.825 814.568 610.19C817.692 613.724 839.058 635.553 840.854 635.953C847.285 637.375 856.662 610.853 864.163 607.815C872.819 613.186 867.396 618.571 863.398 625.902C861.513 629.34 848.782 650.16 847.338 650.409C835.301 652.438 811.842 623.058 804.035 613.642C785.832 591.689 770.614 567.679 756.859 542.744L737.932 548.806C737.108 552.423 738.434 552.589 740.441 554.549C819.996 632.143 826.671 818.422 813.166 922.497C806.131 976.724 791.917 1030.02 775.702 1082.03C794.623 1075.32 813.677 1068.52 832.859 1062.52C845.06 1058.71 869.756 1055.12 879.369 1050.04C890.845 1043.99 898.566 1012.76 900.467 1000.36C910.125 937.31 905.823 868.188 903.084 804.809C900.934 755.118 899.809 701.921 894.663 652.59C894.283 648.945 893.331 648.227 897.213 645.549C906.476 643.837 903.455 653.184 909.392 656.925C934.12 672.527 987.099 671.657 1014.52 663.76C1023.7 661.109 1037.04 649.994 1044.62 658.513C1036.68 668.316 1024.02 672.499 1012.13 675.537C977.703 684.318 942.904 682.164 910.242 667.805C902.186 665.927 907.678 678.16 907.829 682.095C911.417 776.008 923.397 874.107 914.901 967.603C912.71 991.723 909.135 1020.4 898.374 1041.9C921.56 1037.88 941.41 1024.02 965.61 1020.67C973.489 1019.58 978.663 1022.43 987.016 1018.5C1016.58 1004.55 1036.66 956.79 1056.15 931.684L1056.26 927.897L985.552 875.709C977.023 862.42 995.438 845.113 1008.62 852.65L1086.23 906.937L1117.81 902.683L1051.16 699.146C1047.3 692.132 1058 689.979 1060.91 696.523L1129.89 902.43C1141.46 904.924 1152.52 899.684 1163.77 900.297C1178.8 901.124 1193.44 907.363 1207.45 912.138C1205.08 855.997 1194.78 799.093 1183.15 744.156C1172.23 692.602 1158.4 641.572 1142.48 591.358C1137.85 584.206 1103.88 571.89 1094.2 568.839C1090.79 567.762 1090.83 567.748 1091.89 571.158C1099.15 594.354 1109.51 616.734 1116.62 640.813C1132.76 695.336 1146.37 754.649 1159.61 810.166C1162.37 821.708 1175.42 868.362 1174.55 875.539C1174.18 878.656 1171.96 882.192 1168.56 881.466L1108.35 647.882C1102.27 647.012 1104.68 648.31 1103.45 651.237C1100.93 657.215 1100.96 661.827 1092.98 663.884L1058.82 627.807C1064.24 608.188 1088.38 647.882 1093.02 647.854C1097.69 643.547 1101.43 632.212 1100.81 626.026C1099.97 617.576 1087.13 584.579 1082.83 575.508C1080.49 570.551 1078.29 564.255 1073.85 560.9C1061.63 551.622 1033.03 547.328 1018.73 539.362ZM896.024 395.441C899.262 395.399 902.465 394.82 905.468 396.601C907.674 397.899 924.6 425.112 930.167 430.883C966.263 468.313 1026.49 481.249 1069.4 447.299C1116.51 410.021 1130.47 341.995 1138.75 285.443C1141.26 268.351 1152.05 188.838 1147.27 178.373C1145.99 175.542 1139.75 171.524 1137.05 167.369C1114.98 133.28 1114.04 91.3353 1069.39 138.209C1052.54 155.882 1046.88 169.371 1022.69 181.175C987.596 198.296 954.489 194.789 918.993 202.52C891.072 208.609 899.167 256.09 876.482 270.905C856.177 284.145 857.397 262.994 845.866 258.009C829.745 251.051 811.232 261.889 808.81 278.788C804.754 307.078 840.361 320.761 860.587 330.702C860.752 336.335 856.472 338.557 855.767 344.563C851.911 377.409 857.245 415.267 853.301 450.64C850.54 475.409 846.119 505.922 832.624 526.784C855.973 560.141 890.847 603.963 931.866 615.574C957.769 622.906 998.765 625.143 1021.86 609.762C1026.1 606.945 1047.61 585.421 1042.3 581.845C1028.53 580.299 1015.55 569.833 1007.35 558.967L1006.9 478.019C971.755 475.865 937.263 456.535 914.935 429.599C911.299 425.208 892.465 398.962 896.024 395.441ZM529.123 673.839C541.602 647.482 551.326 622.713 573.999 603.107C585.257 593.373 599.242 588.016 609.644 578.421C606.144 547.356 580.991 527.723 577.745 495.457C571.307 431.421 606.599 417.463 651.358 390.263C706.804 356.561 672.947 301.984 716.897 257.609C733.296 241.041 775.527 222.471 778.113 198.489C781.109 170.696 774.302 143.124 781.538 114.613C809.024 6.29997 953.956 -17.3369 1045.27 16.1443C1063.01 22.661 1070.2 31.3177 1084.1 38.6353C1103.31 48.7417 1117.54 50.0395 1136.72 66.2485C1191.91 112.901 1200.51 181.603 1172.49 246.039C1166.82 259.073 1152.6 276.924 1149.06 286.299C1142.91 302.591 1141.51 333.504 1136 353.483C1119.7 412.782 1086 471.115 1018.9 478.198C1018.72 495.898 1013.44 511.969 1019.06 529.559C1077.02 550.2 1139.61 571.725 1193.36 601.823C1289.3 655.545 1304.71 734.091 1316.01 837.807C1319.31 868.042 1319.29 898.55 1323.26 928.457C1338.37 930.324 1354.01 929.871 1369.09 931.017C1389.65 932.577 1422.64 938.59 1442.1 935.63C1449.21 934.538 1467.98 923.616 1475.68 919.644C1497.67 908.27 1557.05 868.805 1577.02 867.425C1588.97 866.599 1598.58 875.923 1591.66 886.964C1553.27 935.443 1511.71 981.603 1470.53 1027.78C1467.57 1033.59 1473.59 1060.27 1474.09 1069.04C1475.12 1087.36 1475.84 1119.88 1463.53 1134C1459.49 1138.66 1453.68 1140.82 1450.41 1144.48C1447.33 1147.95 1446.56 1152.94 1443.46 1156.42C1435.48 1165.39 1414.41 1174.66 1406.93 1185.94C1396.65 1201.43 1390.78 1226.06 1378.34 1244.64C1344.58 1295.08 1270.44 1338.38 1212.19 1303.82C1219.19 1348.15 1227.2 1392.55 1236.42 1436.47C1247.05 1487.06 1263.66 1540.02 1270.85 1590.8C1273.82 1611.87 1273.6 1633.12 1275.86 1654.22C1279.54 1688.4 1283.93 1722.66 1287.67 1756.83H1848.04C1852.49 1756.83 1852.49 1768.63 1848.04 1768.63H5.32864C0.889801 1768.63 0.889801 1756.83 5.32864 1756.83H268.405C269.624 1749.11 266.315 1742 265.938 1734.52C261.34 1643.25 269.377 1547.95 266.309 1456.26C262.525 1445.03 279.59 1431.48 280.17 1429.48C281.826 1423.79 280.397 1414.07 284.741 1408.63C288.514 1403.9 297.174 1404.75 301.371 1401.67C306.195 1398.12 308.248 1385.48 318.562 1381.11C323.901 1378.84 341.457 1380.46 341.511 1375.78C341.59 1368.83 327.804 1377.01 324.151 1376.84C313.202 1376.28 289.648 1369.78 285.985 1358.22C278.924 1335.95 305.058 1318.54 320.386 1306.94L322.661 1245.99C328.511 1196.46 335.863 1147.16 344.618 1098.07C350.473 1065.24 359.79 1032.63 362.721 999.51C338.88 999.67 337.488 981.671 334.721 962.63C329.73 928.311 332.055 893.511 341.547 860.24H132.738L129.208 854.369L135.086 850.79C204.951 849.555 275.168 853.664 344.748 848.104C352.344 839.024 356.518 827.383 365.036 818.85C370.21 813.659 382.506 804.712 388.919 800.252C425.432 774.917 468.587 759.274 510.915 746.489L525.583 685.643H465.418C464.236 685.643 460.192 682.026 457.152 683.269C456.635 678.919 457.048 676.379 460.699 673.839H529.123Z"/>
</mask>
<path d="M634.117 1756.83H754.449C749.403 1742.31 741.315 1729.16 736.724 1714.39C731.637 1698 727.877 1679.67 728.416 1662.52L632.967 1641.18L634.117 1756.83ZM622.32 1756.83L621.309 1638.68C608.992 1636.29 596.179 1628.58 584.719 1625.72C568.334 1621.67 550.144 1621.03 532.663 1616.44C509.798 1610.43 488.254 1600.16 465.443 1594C460.71 1648.28 473.05 1702.88 461.879 1756.83H622.32ZM454.801 1586.95H275.484C277.225 1643.35 271.09 1701.17 280.502 1756.53L449.878 1759.12C451.164 1758.15 454.638 1736.16 454.907 1732.16C458.075 1685.07 452.326 1634.4 454.801 1586.95ZM454.801 1573.96V1463.07C454.801 1462.19 451.338 1447.38 450.694 1445.95C449.988 1444.38 449.122 1442.91 447.772 1441.79L284.187 1441.11C280.515 1442.46 278.531 1445.12 277.883 1448.96C274.833 1467.03 278.48 1497.47 277.951 1517.46C277.802 1523.07 275.587 1528.12 275.376 1533.75C274.86 1547.5 275.979 1561.43 275.473 1575.16C295.507 1575.64 315.705 1574.52 335.758 1575.04C349.16 1575.39 364.626 1577.4 378.012 1577.61C397.983 1577.95 427.898 1579.86 446.661 1577.63C450.13 1577.22 452.701 1577.4 454.801 1573.96ZM768.604 1756.83H1042.3L1037.59 1417.06C1013.62 1416.48 989.487 1417.8 965.502 1417.19C955.983 1416.94 949.397 1409.5 947.809 1422.86C945.063 1445.82 947.29 1483.61 947.809 1508.02C948.622 1545.6 955.369 1591.56 952.743 1628.35C949.916 1668.19 935.944 1676.56 897.303 1679.07C864.893 1681.17 828.247 1677.98 796.007 1673.98C777.415 1671.67 758.805 1667.63 740.304 1664.81C739.61 1697.76 753.607 1728.42 768.604 1756.83ZM432.385 1414.71H291.999V1431.23H438.285C438.052 1424.14 441.05 1416.16 432.385 1414.71ZM1054.1 1756.83H1275.89L1264.07 1638.87C1262.75 1637.4 1233.84 1654.71 1228.66 1656.51C1211.51 1662.47 1171.8 1669.54 1162.11 1649.99C1157.71 1641.1 1155.36 1617.79 1153.51 1606.67C1149.93 1584.91 1146.94 1562.55 1144.03 1540.67C1138.02 1495.76 1133.57 1450.27 1129.6 1405.26L1047.02 1417.08L1054.1 1756.83ZM417.05 1405.27C414.579 1384.91 394.55 1391.3 380.595 1391.22C365.655 1391.11 337.351 1388.71 324.344 1391.6C318.121 1392.99 313.227 1398.74 313.234 1405.27H417.05ZM350.974 1379.31C391.78 1383.14 391.693 1366.04 350.974 1369.88V1379.31ZM327.38 1327.42C324.196 1323.79 307.639 1342.99 311.925 1351C313.387 1353.75 324.778 1362.67 325.03 1354.58C325.322 1345.2 326.778 1336.66 327.38 1327.42ZM393.455 1360.44V1326.23C393.455 1321.71 369.009 1317.86 363.971 1317.76C359.395 1317.68 336.828 1320.56 336.828 1323.87V1360.44H393.455ZM1152.99 1249.76L1129.58 1249.54C1133.35 1348.12 1142.6 1447.27 1155.82 1545.39C1160.29 1578.58 1164.39 1612.47 1171.93 1644.89C1181.4 1659.71 1223.1 1647.4 1236.67 1640.92C1246.06 1636.43 1253.44 1629.07 1261.8 1623.11C1263.37 1600.35 1257.85 1578.34 1253.51 1556.23C1246.72 1521.56 1236.65 1487.47 1229.41 1452.92C1215.25 1385.31 1203.73 1317.08 1188.4 1249.75L1164.98 1249.54L1169.58 1302.36C1167.72 1305.95 1165.4 1306.75 1161.49 1306.19C1156.29 1305.44 1156.24 1256.96 1152.99 1249.76ZM1315.99 1150.46C1310.81 1149.27 1310.74 1153.31 1308.45 1155.88C1282.49 1184.88 1256.94 1214.55 1229.74 1242.43C1227.89 1244.32 1227.11 1246.84 1225.9 1249.08L1200.37 1249.54C1201.21 1270.31 1203.06 1288.44 1223.21 1298.68C1260.42 1317.6 1310.16 1297.08 1339.64 1272C1346.83 1265.88 1370.15 1241.88 1372.59 1234.18C1374.64 1227.71 1364.45 1233.26 1359.96 1232.96C1343.35 1231.9 1321.98 1218.12 1312.59 1204.58C1299.64 1185.88 1309.59 1169.23 1315.99 1150.46ZM950.276 1244.83V1367.52H1001.02L1122.68 1352.34C1128.58 1348.5 1122.83 1332.3 1122.51 1326.24C1121.15 1300.71 1121.4 1274.72 1117.79 1249.55H1012.81C1011.8 1249.55 998.738 1243.43 996.667 1242.1C967.796 1223.6 990.012 1201.92 1004.61 1182.36C1022.25 1158.75 1042.48 1136.67 1061.17 1113.87L1020.44 1119.79C1013.86 1131.3 1007.27 1144.72 997.564 1154.1C989.225 1162.15 977.036 1166.36 969.037 1172.75C962.556 1177.92 959.355 1186.88 953.863 1192.96C895.689 1257.19 773.389 1323.12 690.195 1346.91C676.656 1350.79 657.487 1352.51 645.861 1356.84C643.046 1357.9 640.289 1358.83 639.299 1362.08C625.568 1432.14 608.713 1501.85 597.077 1572.32C595.638 1581.04 588.898 1612.24 592.711 1617.74C595.92 1622.36 682.504 1642.58 694.996 1645.22C758.183 1658.56 835.256 1671.76 899.66 1667.27C908.95 1666.63 926.311 1664.51 932.72 1657.87C944.823 1645.31 941.329 1597.19 940.955 1578.58C938.77 1470.38 937.542 1361.54 938.369 1252.96L943.184 1243.54L950.276 1244.83ZM459.528 1030.12L447.639 1029.02L424.117 1014.75L410.209 1079.43L447.712 1093.83L459.528 1030.12ZM434.745 1195.28C444.799 1196.6 459.379 1195.28 470.137 1195.28C470.867 1195.28 474.486 1200.08 476.001 1201.18C470.007 1209.82 456.412 1207.58 446.798 1206.82C419.424 1204.67 396.742 1196.96 379.337 1175.19C373.639 1168.06 365.23 1158.92 375.759 1153.03L381.636 1157.52L414.689 1004.19L374.867 1002.08C361.108 1070.38 345.267 1139.16 337.074 1208.5C333.559 1238.24 329.16 1274.44 333.78 1302.92C334.169 1305.32 332.008 1308.2 332.254 1309.59C333.255 1315.24 342.591 1311.55 342.852 1306.39C349.657 1270.5 350.857 1232.67 358.643 1197.04C360.108 1190.34 361.445 1184.23 369.851 1185.84L353.352 1308.52C365.98 1308.6 391.192 1306.58 399.306 1318.01C404.616 1325.51 408.786 1365.27 402.974 1368.78C399.157 1371.08 390.029 1368.51 391.101 1376.95C403.663 1378.26 416.058 1382.1 424.143 1392.28C426.997 1395.87 428.268 1401.75 431.285 1404.02C434.527 1406.44 440.368 1406.14 444.307 1409.87C450.616 1415.82 448.3 1424.9 451.325 1431.16C456.25 1441.36 462.847 1440.16 464.338 1458.25C467.516 1496.79 461.473 1539.35 464.587 1578.34C465.853 1582.2 472.456 1583.9 476.106 1585.69C506.518 1600.67 545.635 1608 578.639 1615.29L629.39 1358.1C506.076 1360.72 509.117 1198.46 497.26 1111.54L494.892 1027.76L470.068 1032.4L454.725 1107.91C451.295 1112.2 415.543 1091.22 407.631 1091.46C406.596 1108.11 387.684 1159.71 391.516 1172.39C392.9 1176.98 405.24 1184.96 409.865 1187.12C414.863 1189.47 429.857 1194.63 434.745 1195.28ZM1353.75 1150.46C1352.59 1130.7 1353.29 1109.47 1342.41 1092.19C1335.95 1081.94 1320.14 1069.11 1310.19 1082.11C1301.2 1093.84 1319.11 1099.43 1325.1 1109.5C1339.04 1132.91 1318.91 1160.51 1316.46 1182.96C1314.03 1205.16 1357.92 1233.19 1377.22 1217.58C1379.9 1215.42 1389.16 1202.06 1391.08 1198.42C1400.64 1180.27 1399.39 1177.26 1416.31 1162.28C1428.77 1151.26 1440.37 1140.24 1452.77 1130.32C1473.77 1113.5 1459.63 1042.35 1457.45 1017.24C1454.32 1008.47 1465.36 968.963 1456.15 966.511C1437.61 968.39 1432.79 990.297 1422.78 1002.99C1432.96 1017.9 1444.79 1034.9 1443.4 1053.71C1439.64 1053.91 1437.84 1054.55 1435.19 1051.3C1432.41 1047.9 1426.47 1027.71 1421.72 1019.95C1416.62 1011.66 1398.56 989.378 1388.33 990.47C1381.44 991.203 1371.97 1001.27 1376.09 1008.94C1377.37 1011.32 1395.11 1024.36 1399.79 1030.08C1412.51 1045.63 1422.6 1071.35 1422.16 1091.46C1418.96 1091.5 1415.88 1092.46 1413.93 1089.08C1410.8 1083.66 1408.26 1067.92 1405.1 1060.16C1399.96 1047.51 1392.57 1035.44 1382.11 1026.54C1373.35 1019.11 1357.81 1008.76 1350.74 1023.68C1342.54 1040.98 1366.22 1051.51 1374.93 1062.02C1388.86 1078.79 1396 1102.96 1396.2 1124.51L1387.09 1124.19C1383.52 1108.71 1382.99 1095.11 1375.05 1080.78C1369.2 1070.2 1337.91 1034.75 1333.48 1060.74C1331.82 1070.36 1346.65 1079.23 1351.84 1087.47C1363.58 1106.08 1363.86 1129.15 1363.16 1150.46H1353.75ZM1431.59 966.43C1421.83 965.977 1411.87 967.03 1402.1 966.43C1361.37 963.924 1320.28 958.418 1279.52 956.87C1257.7 956.044 1231.06 952.35 1216.94 972.35C1175.7 1024.48 1131.63 1074.32 1089.53 1125.71C1060.47 1161.19 1030.7 1196.59 1004.59 1234.23C1006.86 1237.7 1009.11 1237.47 1012.68 1237.86C1033.3 1240.1 1057.89 1236.06 1078.98 1237.64L1095.27 1240.22L1219.23 1238.91L1316.55 1130.98C1326.37 1106.39 1292.05 1108.67 1297.57 1083.7C1301.13 1067.63 1321.65 1066.92 1322.77 1065.2C1323.97 1063.35 1322.46 1056.02 1325.71 1050.43C1328.97 1044.8 1337.75 1042.99 1339.18 1037.96C1340.52 1033.28 1338.96 1027.51 1340.05 1022.32C1342.37 1011.44 1355.1 1005.99 1365.43 1006.42C1365.87 973.231 1395.46 976.577 1416.15 992.364L1431.59 966.43ZM1124.88 947.537H1196.85C1198.49 947.537 1217.53 932.577 1216.88 929.871C1191.38 912.364 1165.8 910.67 1135.49 912.138C1115.54 918.23 1086.3 909.43 1071.97 926.483C1045.24 958.31 1032.76 1001.86 994.927 1026.4C973.317 1040.43 949.609 1038.86 963.956 1074.24C975.276 1102.16 1001.4 1110.16 1029.42 1108.08C1045.61 1106.87 1070.85 1102.16 1081.27 1089.15L1157.89 998.244C1158.88 992.911 1155.58 994.964 1152.05 994.724C1146.51 994.349 1133.46 996.524 1130.66 992.483C1121.02 978.523 1151.15 985.296 1156.69 985.47C1170.93 985.911 1176.72 974.03 1185.06 964.07C1187.05 961.697 1189.55 961.016 1188.58 956.978H1128.42C1124.75 954.43 1124.36 951.897 1124.88 947.537ZM1469.35 967.591C1471.17 973.804 1469.35 998.803 1469.35 1007.71C1469.35 1008.68 1463.28 1011.83 1470.51 1011.23L1559.03 909.804L1464.64 959.377C1463.19 963.537 1468.94 966.163 1469.35 967.591ZM1582.59 879.13C1576.02 876.399 1568.3 880.428 1562.1 883.391C1521.39 902.857 1483.05 932.87 1439.68 947.364C1390.12 943.07 1340.91 940.404 1291.2 938.111C1273.45 937.284 1252.59 932.577 1234.67 935.804C1232.42 936.218 1218.62 943.791 1216.08 945.551C1206.5 952.271 1187.88 976.23 1179.18 986.51C1124.85 1050.71 1062.81 1121.5 1013 1188.39C1008.84 1193.95 988.203 1220.63 992.759 1225.95C997.84 1227.1 998.02 1223.2 1000.31 1220.54C1069.75 1139.92 1132.1 1051.95 1202.79 972.35C1220.07 952.87 1229.47 943.683 1258.29 945.057C1320.82 948.043 1383.49 956.271 1446.43 956.471C1487.15 932.204 1540.03 912.31 1578.15 885.183C1580.94 883.193 1583.96 885.19 1582.59 879.13ZM998.903 862.762L995.024 868.54C994.706 870.845 996.114 871.778 997.523 873.164C1013.68 889.097 1045.46 902.578 1063.42 918.283C1068.12 919.51 1073.97 909.791 1068.21 906.284L1006.84 863.838L998.903 862.762ZM494.921 1018.34L494.803 939.177C498.831 899.284 498.356 859.063 501.968 818.933C502.96 807.888 504.926 795.724 506.69 784.734C502.791 786.142 500.854 791.057 498.656 794.385C458.967 854.34 443.199 929.283 426.342 998.363C426.04 1001.32 426.647 1003.31 428.816 1005.39C429.801 1006.34 450.411 1019.84 451.72 1020.22C464.752 1024.06 481.411 1016.32 494.921 1018.34ZM506.698 758.791C462.002 773.012 380.131 803.193 357.631 846.829C342.083 876.98 339.457 943.457 347.294 976.003C349.32 984.417 352.26 986.682 360.297 988.95C377.94 993.95 398.558 992.204 416.766 992.096C431.928 925.897 448.909 860.974 481.878 801.205C488.389 789.387 497.884 777.941 503.86 766.55C505.246 763.913 507.561 762.395 506.698 758.791ZM1311.27 928.67C1308.5 865.039 1304.15 798.568 1287.02 737.032C1269.9 675.578 1245.97 643.243 1190.18 612.081C1186.22 609.859 1156.88 594.616 1155.55 595.997C1186.76 700.872 1210.96 808.191 1219.62 917.684C1222.76 927.99 1253.69 922.657 1262.91 923.937L1311.27 928.67ZM737.91 994.71C741.842 975.55 747.125 956.15 749.479 936.671C760.011 849.566 754.529 679.278 703.539 605.606C693.655 591.316 677.767 573.243 659.153 574.955C642.412 576.488 599.323 597.032 585.79 607.815C523.878 657.146 516.984 773.923 511.442 847.278C502.834 961.27 499.102 1096.88 519.216 1209.91C528.081 1259.72 543.242 1329.12 598.746 1345.08C654.18 1361.02 760.843 1310.71 811.13 1283.82C863.309 1255.9 918.17 1220.62 954.997 1174.07C925.825 1170.27 895.754 1147.56 885.429 1119.75C883.163 1113.64 876.601 1086.12 879.681 1082.23C880.163 1081.62 886.008 1079.1 887.78 1081.99C891.318 1087.75 891.627 1104.75 894.296 1113.24C900.241 1132.14 925.851 1156.96 945.423 1161.2C976.942 1168.02 994.168 1142.8 1009.26 1119.8C970.263 1114.51 937.276 1073.72 954.997 1034.86C931.353 1040.35 909.28 1051.63 886.035 1059.07C852.891 1069.68 819.378 1077.06 786.249 1089.06C749.491 1102.36 704.011 1127.2 667.285 1135.26C652.964 1138.39 652.987 1130.68 664.13 1125.02C672.641 1120.68 730.133 1102.96 730.97 1099.4L719.244 897.137C721.512 891.817 728.752 891.524 730.5 897.164L737.91 994.71ZM742.663 1093.83C743.394 1094.76 755.531 1090.18 757.679 1088.79C767.274 1082.64 775.72 1047.26 779.223 1034.84C810.408 924.257 819.672 802.586 793.844 689.896C785.742 654.551 760.631 578.227 729.809 558.111C720.419 551.981 691.723 564.159 681.315 568.839C734.404 609.223 751.502 689.702 758.93 753.13C769.198 840.803 765.793 926.084 744.347 1011.76C738.401 1035.52 738.318 1053.3 740.284 1078.5C740.687 1083.64 743.236 1088.52 742.663 1093.83ZM1018.73 539.362C1019.12 544.277 1017.92 549.91 1018.73 554.673C1020.95 567.693 1051.58 571.932 1055.44 579.47C1061.46 591.22 1025.41 621.415 1013.94 625.432C928.267 655.545 866.479 592.987 820.934 530.677C818.065 526.756 807.608 508.172 806.418 507.441C795.2 500.565 764.807 510.533 763.868 526.549C762.958 542.04 802.762 596.825 814.568 610.19C817.692 613.724 839.058 635.553 840.854 635.953C847.285 637.375 856.662 610.853 864.163 607.815C872.819 613.186 867.396 618.571 863.398 625.902C861.513 629.34 848.782 650.16 847.338 650.409C835.301 652.438 811.842 623.058 804.035 613.642C785.832 591.689 770.614 567.679 756.859 542.744L737.932 548.806C737.108 552.423 738.434 552.589 740.441 554.549C819.996 632.143 826.671 818.422 813.166 922.497C806.131 976.724 791.917 1030.02 775.702 1082.03C794.623 1075.32 813.677 1068.52 832.859 1062.52C845.06 1058.71 869.756 1055.12 879.369 1050.04C890.845 1043.99 898.566 1012.76 900.467 1000.36C910.125 937.31 905.823 868.188 903.084 804.809C900.934 755.118 899.809 701.921 894.663 652.59C894.283 648.945 893.331 648.227 897.213 645.549C906.476 643.837 903.455 653.184 909.392 656.925C934.12 672.527 987.099 671.657 1014.52 663.76C1023.7 661.109 1037.04 649.994 1044.62 658.513C1036.68 668.316 1024.02 672.499 1012.13 675.537C977.703 684.318 942.904 682.164 910.242 667.805C902.186 665.927 907.678 678.16 907.829 682.095C911.417 776.008 923.397 874.107 914.901 967.603C912.71 991.723 909.135 1020.4 898.374 1041.9C921.56 1037.88 941.41 1024.02 965.61 1020.67C973.489 1019.58 978.663 1022.43 987.016 1018.5C1016.58 1004.55 1036.66 956.79 1056.15 931.684L1056.26 927.897L985.552 875.709C977.023 862.42 995.438 845.113 1008.62 852.65L1086.23 906.937L1117.81 902.683L1051.16 699.146C1047.3 692.132 1058 689.979 1060.91 696.523L1129.89 902.43C1141.46 904.924 1152.52 899.684 1163.77 900.297C1178.8 901.124 1193.44 907.363 1207.45 912.138C1205.08 855.997 1194.78 799.093 1183.15 744.156C1172.23 692.602 1158.4 641.572 1142.48 591.358C1137.85 584.206 1103.88 571.89 1094.2 568.839C1090.79 567.762 1090.83 567.748 1091.89 571.158C1099.15 594.354 1109.51 616.734 1116.62 640.813C1132.76 695.336 1146.37 754.649 1159.61 810.166C1162.37 821.708 1175.42 868.362 1174.55 875.539C1174.18 878.656 1171.96 882.192 1168.56 881.466L1108.35 647.882C1102.27 647.012 1104.68 648.31 1103.45 651.237C1100.93 657.215 1100.96 661.827 1092.98 663.884L1058.82 627.807C1064.24 608.188 1088.38 647.882 1093.02 647.854C1097.69 643.547 1101.43 632.212 1100.81 626.026C1099.97 617.576 1087.13 584.579 1082.83 575.508C1080.49 570.551 1078.29 564.255 1073.85 560.9C1061.63 551.622 1033.03 547.328 1018.73 539.362ZM896.024 395.441C899.262 395.399 902.465 394.82 905.468 396.601C907.674 397.899 924.6 425.112 930.167 430.883C966.263 468.313 1026.49 481.249 1069.4 447.299C1116.51 410.021 1130.47 341.995 1138.75 285.443C1141.26 268.351 1152.05 188.838 1147.27 178.373C1145.99 175.542 1139.75 171.524 1137.05 167.369C1114.98 133.28 1114.04 91.3353 1069.39 138.209C1052.54 155.882 1046.88 169.371 1022.69 181.175C987.596 198.296 954.489 194.789 918.993 202.52C891.072 208.609 899.167 256.09 876.482 270.905C856.177 284.145 857.397 262.994 845.866 258.009C829.745 251.051 811.232 261.889 808.81 278.788C804.754 307.078 840.361 320.761 860.587 330.702C860.752 336.335 856.472 338.557 855.767 344.563C851.911 377.409 857.245 415.267 853.301 450.64C850.54 475.409 846.119 505.922 832.624 526.784C855.973 560.141 890.847 603.963 931.866 615.574C957.769 622.906 998.765 625.143 1021.86 609.762C1026.1 606.945 1047.61 585.421 1042.3 581.845C1028.53 580.299 1015.55 569.833 1007.35 558.967L1006.9 478.019C971.755 475.865 937.263 456.535 914.935 429.599C911.299 425.208 892.465 398.962 896.024 395.441ZM529.123 673.839C541.602 647.482 551.326 622.713 573.999 603.107C585.257 593.373 599.242 588.016 609.644 578.421C606.144 547.356 580.991 527.723 577.745 495.457C571.307 431.421 606.599 417.463 651.358 390.263C706.804 356.561 672.947 301.984 716.897 257.609C733.296 241.041 775.527 222.471 778.113 198.489C781.109 170.696 774.302 143.124 781.538 114.613C809.024 6.29997 953.956 -17.3369 1045.27 16.1443C1063.01 22.661 1070.2 31.3177 1084.1 38.6353C1103.31 48.7417 1117.54 50.0395 1136.72 66.2485C1191.91 112.901 1200.51 181.603 1172.49 246.039C1166.82 259.073 1152.6 276.924 1149.06 286.299C1142.91 302.591 1141.51 333.504 1136 353.483C1119.7 412.782 1086 471.115 1018.9 478.198C1018.72 495.898 1013.44 511.969 1019.06 529.559C1077.02 550.2 1139.61 571.725 1193.36 601.823C1289.3 655.545 1304.71 734.091 1316.01 837.807C1319.31 868.042 1319.29 898.55 1323.26 928.457C1338.37 930.324 1354.01 929.871 1369.09 931.017C1389.65 932.577 1422.64 938.59 1442.1 935.63C1449.21 934.538 1467.98 923.616 1475.68 919.644C1497.67 908.27 1557.05 868.805 1577.02 867.425C1588.97 866.599 1598.58 875.923 1591.66 886.964C1553.27 935.443 1511.71 981.603 1470.53 1027.78C1467.57 1033.59 1473.59 1060.27 1474.09 1069.04C1475.12 1087.36 1475.84 1119.88 1463.53 1134C1459.49 1138.66 1453.68 1140.82 1450.41 1144.48C1447.33 1147.95 1446.56 1152.94 1443.46 1156.42C1435.48 1165.39 1414.41 1174.66 1406.93 1185.94C1396.65 1201.43 1390.78 1226.06 1378.34 1244.64C1344.58 1295.08 1270.44 1338.38 1212.19 1303.82C1219.19 1348.15 1227.2 1392.55 1236.42 1436.47C1247.05 1487.06 1263.66 1540.02 1270.85 1590.8C1273.82 1611.87 1273.6 1633.12 1275.86 1654.22C1279.54 1688.4 1283.93 1722.66 1287.67 1756.83H1848.04C1852.49 1756.83 1852.49 1768.63 1848.04 1768.63H5.32864C0.889801 1768.63 0.889801 1756.83 5.32864 1756.83H268.405C269.624 1749.11 266.315 1742 265.938 1734.52C261.34 1643.25 269.377 1547.95 266.309 1456.26C262.525 1445.03 279.59 1431.48 280.17 1429.48C281.826 1423.79 280.397 1414.07 284.741 1408.63C288.514 1403.9 297.174 1404.75 301.371 1401.67C306.195 1398.12 308.248 1385.48 318.562 1381.11C323.901 1378.84 341.457 1380.46 341.511 1375.78C341.59 1368.83 327.804 1377.01 324.151 1376.84C313.202 1376.28 289.648 1369.78 285.985 1358.22C278.924 1335.95 305.058 1318.54 320.386 1306.94L322.661 1245.99C328.511 1196.46 335.863 1147.16 344.618 1098.07C350.473 1065.24 359.79 1032.63 362.721 999.51C338.88 999.67 337.488 981.671 334.721 962.63C329.73 928.311 332.055 893.511 341.547 860.24H132.738L129.208 854.369L135.086 850.79C204.951 849.555 275.168 853.664 344.748 848.104C352.344 839.024 356.518 827.383 365.036 818.85C370.21 813.659 382.506 804.712 388.919 800.252C425.432 774.917 468.587 759.274 510.915 746.489L525.583 685.643H465.418C464.236 685.643 460.192 682.026 457.152 683.269C456.635 678.919 457.048 676.379 460.699 673.839H529.123Z" fill="#231F20"/>
<path d="M634.117 1756.83H754.449C749.403 1742.31 741.315 1729.16 736.724 1714.39C731.637 1698 727.877 1679.67 728.416 1662.52L632.967 1641.18L634.117 1756.83ZM622.32 1756.83L621.309 1638.68C608.992 1636.29 596.179 1628.58 584.719 1625.72C568.334 1621.67 550.144 1621.03 532.663 1616.44C509.798 1610.43 488.254 1600.16 465.443 1594C460.71 1648.28 473.05 1702.88 461.879 1756.83H622.32ZM454.801 1586.95H275.484C277.225 1643.35 271.09 1701.17 280.502 1756.53L449.878 1759.12C451.164 1758.15 454.638 1736.16 454.907 1732.16C458.075 1685.07 452.326 1634.4 454.801 1586.95ZM454.801 1573.96V1463.07C454.801 1462.19 451.338 1447.38 450.694 1445.95C449.988 1444.38 449.122 1442.91 447.772 1441.79L284.187 1441.11C280.515 1442.46 278.531 1445.12 277.883 1448.96C274.833 1467.03 278.48 1497.47 277.951 1517.46C277.802 1523.07 275.587 1528.12 275.376 1533.75C274.86 1547.5 275.979 1561.43 275.473 1575.16C295.507 1575.64 315.705 1574.52 335.758 1575.04C349.16 1575.39 364.626 1577.4 378.012 1577.61C397.983 1577.95 427.898 1579.86 446.661 1577.63C450.13 1577.22 452.701 1577.4 454.801 1573.96ZM768.604 1756.83H1042.3L1037.59 1417.06C1013.62 1416.48 989.487 1417.8 965.502 1417.19C955.983 1416.94 949.397 1409.5 947.809 1422.86C945.063 1445.82 947.29 1483.61 947.809 1508.02C948.622 1545.6 955.369 1591.56 952.743 1628.35C949.916 1668.19 935.944 1676.56 897.303 1679.07C864.893 1681.17 828.247 1677.98 796.007 1673.98C777.415 1671.67 758.805 1667.63 740.304 1664.81C739.61 1697.76 753.607 1728.42 768.604 1756.83ZM432.385 1414.71H291.999V1431.23H438.285C438.052 1424.14 441.05 1416.16 432.385 1414.71ZM1054.1 1756.83H1275.89L1264.07 1638.87C1262.75 1637.4 1233.84 1654.71 1228.66 1656.51C1211.51 1662.47 1171.8 1669.54 1162.11 1649.99C1157.71 1641.1 1155.36 1617.79 1153.51 1606.67C1149.93 1584.91 1146.94 1562.55 1144.03 1540.67C1138.02 1495.76 1133.57 1450.27 1129.6 1405.26L1047.02 1417.08L1054.1 1756.83ZM417.05 1405.27C414.579 1384.91 394.55 1391.3 380.595 1391.22C365.655 1391.11 337.351 1388.71 324.344 1391.6C318.121 1392.99 313.227 1398.74 313.234 1405.27H417.05ZM350.974 1379.31C391.78 1383.14 391.693 1366.04 350.974 1369.88V1379.31ZM327.38 1327.42C324.196 1323.79 307.639 1342.99 311.925 1351C313.387 1353.75 324.778 1362.67 325.03 1354.58C325.322 1345.2 326.778 1336.66 327.38 1327.42ZM393.455 1360.44V1326.23C393.455 1321.71 369.009 1317.86 363.971 1317.76C359.395 1317.68 336.828 1320.56 336.828 1323.87V1360.44H393.455ZM1152.99 1249.76L1129.58 1249.54C1133.35 1348.12 1142.6 1447.27 1155.82 1545.39C1160.29 1578.58 1164.39 1612.47 1171.93 1644.89C1181.4 1659.71 1223.1 1647.4 1236.67 1640.92C1246.06 1636.43 1253.44 1629.07 1261.8 1623.11C1263.37 1600.35 1257.85 1578.34 1253.51 1556.23C1246.72 1521.56 1236.65 1487.47 1229.41 1452.92C1215.25 1385.31 1203.73 1317.08 1188.4 1249.75L1164.98 1249.54L1169.58 1302.36C1167.72 1305.95 1165.4 1306.75 1161.49 1306.19C1156.29 1305.44 1156.24 1256.96 1152.99 1249.76ZM1315.99 1150.46C1310.81 1149.27 1310.74 1153.31 1308.45 1155.88C1282.49 1184.88 1256.94 1214.55 1229.74 1242.43C1227.89 1244.32 1227.11 1246.84 1225.9 1249.08L1200.37 1249.54C1201.21 1270.31 1203.06 1288.44 1223.21 1298.68C1260.42 1317.6 1310.16 1297.08 1339.64 1272C1346.83 1265.88 1370.15 1241.88 1372.59 1234.18C1374.64 1227.71 1364.45 1233.26 1359.96 1232.96C1343.35 1231.9 1321.98 1218.12 1312.59 1204.58C1299.64 1185.88 1309.59 1169.23 1315.99 1150.46ZM950.276 1244.83V1367.52H1001.02L1122.68 1352.34C1128.58 1348.5 1122.83 1332.3 1122.51 1326.24C1121.15 1300.71 1121.4 1274.72 1117.79 1249.55H1012.81C1011.8 1249.55 998.738 1243.43 996.667 1242.1C967.796 1223.6 990.012 1201.92 1004.61 1182.36C1022.25 1158.75 1042.48 1136.67 1061.17 1113.87L1020.44 1119.79C1013.86 1131.3 1007.27 1144.72 997.564 1154.1C989.225 1162.15 977.036 1166.36 969.037 1172.75C962.556 1177.92 959.355 1186.88 953.863 1192.96C895.689 1257.19 773.389 1323.12 690.195 1346.91C676.656 1350.79 657.487 1352.51 645.861 1356.84C643.046 1357.9 640.289 1358.83 639.299 1362.08C625.568 1432.14 608.713 1501.85 597.077 1572.32C595.638 1581.04 588.898 1612.24 592.711 1617.74C595.92 1622.36 682.504 1642.58 694.996 1645.22C758.183 1658.56 835.256 1671.76 899.66 1667.27C908.95 1666.63 926.311 1664.51 932.72 1657.87C944.823 1645.31 941.329 1597.19 940.955 1578.58C938.77 1470.38 937.542 1361.54 938.369 1252.96L943.184 1243.54L950.276 1244.83ZM459.528 1030.12L447.639 1029.02L424.117 1014.75L410.209 1079.43L447.712 1093.83L459.528 1030.12ZM434.745 1195.28C444.799 1196.6 459.379 1195.28 470.137 1195.28C470.867 1195.28 474.486 1200.08 476.001 1201.18C470.007 1209.82 456.412 1207.58 446.798 1206.82C419.424 1204.67 396.742 1196.96 379.337 1175.19C373.639 1168.06 365.23 1158.92 375.759 1153.03L381.636 1157.52L414.689 1004.19L374.867 1002.08C361.108 1070.38 345.267 1139.16 337.074 1208.5C333.559 1238.24 329.16 1274.44 333.78 1302.92C334.169 1305.32 332.008 1308.2 332.254 1309.59C333.255 1315.24 342.591 1311.55 342.852 1306.39C349.657 1270.5 350.857 1232.67 358.643 1197.04C360.108 1190.34 361.445 1184.23 369.851 1185.84L353.352 1308.52C365.98 1308.6 391.192 1306.58 399.306 1318.01C404.616 1325.51 408.786 1365.27 402.974 1368.78C399.157 1371.08 390.029 1368.51 391.101 1376.95C403.663 1378.26 416.058 1382.1 424.143 1392.28C426.997 1395.87 428.268 1401.75 431.285 1404.02C434.527 1406.44 440.368 1406.14 444.307 1409.87C450.616 1415.82 448.3 1424.9 451.325 1431.16C456.25 1441.36 462.847 1440.16 464.338 1458.25C467.516 1496.79 461.473 1539.35 464.587 1578.34C465.853 1582.2 472.456 1583.9 476.106 1585.69C506.518 1600.67 545.635 1608 578.639 1615.29L629.39 1358.1C506.076 1360.72 509.117 1198.46 497.26 1111.54L494.892 1027.76L470.068 1032.4L454.725 1107.91C451.295 1112.2 415.543 1091.22 407.631 1091.46C406.596 1108.11 387.684 1159.71 391.516 1172.39C392.9 1176.98 405.24 1184.96 409.865 1187.12C414.863 1189.47 429.857 1194.63 434.745 1195.28ZM1353.75 1150.46C1352.59 1130.7 1353.29 1109.47 1342.41 1092.19C1335.95 1081.94 1320.14 1069.11 1310.19 1082.11C1301.2 1093.84 1319.11 1099.43 1325.1 1109.5C1339.04 1132.91 1318.91 1160.51 1316.46 1182.96C1314.03 1205.16 1357.92 1233.19 1377.22 1217.58C1379.9 1215.42 1389.16 1202.06 1391.08 1198.42C1400.64 1180.27 1399.39 1177.26 1416.31 1162.28C1428.77 1151.26 1440.37 1140.24 1452.77 1130.32C1473.77 1113.5 1459.63 1042.35 1457.45 1017.24C1454.32 1008.47 1465.36 968.963 1456.15 966.511C1437.61 968.39 1432.79 990.297 1422.78 1002.99C1432.96 1017.9 1444.79 1034.9 1443.4 1053.71C1439.64 1053.91 1437.84 1054.55 1435.19 1051.3C1432.41 1047.9 1426.47 1027.71 1421.72 1019.95C1416.62 1011.66 1398.56 989.378 1388.33 990.47C1381.44 991.203 1371.97 1001.27 1376.09 1008.94C1377.37 1011.32 1395.11 1024.36 1399.79 1030.08C1412.51 1045.63 1422.6 1071.35 1422.16 1091.46C1418.96 1091.5 1415.88 1092.46 1413.93 1089.08C1410.8 1083.66 1408.26 1067.92 1405.1 1060.16C1399.96 1047.51 1392.57 1035.44 1382.11 1026.54C1373.35 1019.11 1357.81 1008.76 1350.74 1023.68C1342.54 1040.98 1366.22 1051.51 1374.93 1062.02C1388.86 1078.79 1396 1102.96 1396.2 1124.51L1387.09 1124.19C1383.52 1108.71 1382.99 1095.11 1375.05 1080.78C1369.2 1070.2 1337.91 1034.75 1333.48 1060.74C1331.82 1070.36 1346.65 1079.23 1351.84 1087.47C1363.58 1106.08 1363.86 1129.15 1363.16 1150.46H1353.75ZM1431.59 966.43C1421.83 965.977 1411.87 967.03 1402.1 966.43C1361.37 963.924 1320.28 958.418 1279.52 956.87C1257.7 956.044 1231.06 952.35 1216.94 972.35C1175.7 1024.48 1131.63 1074.32 1089.53 1125.71C1060.47 1161.19 1030.7 1196.59 1004.59 1234.23C1006.86 1237.7 1009.11 1237.47 1012.68 1237.86C1033.3 1240.1 1057.89 1236.06 1078.98 1237.64L1095.27 1240.22L1219.23 1238.91L1316.55 1130.98C1326.37 1106.39 1292.05 1108.67 1297.57 1083.7C1301.13 1067.63 1321.65 1066.92 1322.77 1065.2C1323.97 1063.35 1322.46 1056.02 1325.71 1050.43C1328.97 1044.8 1337.75 1042.99 1339.18 1037.96C1340.52 1033.28 1338.96 1027.51 1340.05 1022.32C1342.37 1011.44 1355.1 1005.99 1365.43 1006.42C1365.87 973.231 1395.46 976.577 1416.15 992.364L1431.59 966.43ZM1124.88 947.537H1196.85C1198.49 947.537 1217.53 932.577 1216.88 929.871C1191.38 912.364 1165.8 910.67 1135.49 912.138C1115.54 918.23 1086.3 909.43 1071.97 926.483C1045.24 958.31 1032.76 1001.86 994.927 1026.4C973.317 1040.43 949.609 1038.86 963.956 1074.24C975.276 1102.16 1001.4 1110.16 1029.42 1108.08C1045.61 1106.87 1070.85 1102.16 1081.27 1089.15L1157.89 998.244C1158.88 992.911 1155.58 994.964 1152.05 994.724C1146.51 994.349 1133.46 996.524 1130.66 992.483C1121.02 978.523 1151.15 985.296 1156.69 985.47C1170.93 985.911 1176.72 974.03 1185.06 964.07C1187.05 961.697 1189.55 961.016 1188.58 956.978H1128.42C1124.75 954.43 1124.36 951.897 1124.88 947.537ZM1469.35 967.591C1471.17 973.804 1469.35 998.803 1469.35 1007.71C1469.35 1008.68 1463.28 1011.83 1470.51 1011.23L1559.03 909.804L1464.64 959.377C1463.19 963.537 1468.94 966.163 1469.35 967.591ZM1582.59 879.13C1576.02 876.399 1568.3 880.428 1562.1 883.391C1521.39 902.857 1483.05 932.87 1439.68 947.364C1390.12 943.07 1340.91 940.404 1291.2 938.111C1273.45 937.284 1252.59 932.577 1234.67 935.804C1232.42 936.218 1218.62 943.791 1216.08 945.551C1206.5 952.271 1187.88 976.23 1179.18 986.51C1124.85 1050.71 1062.81 1121.5 1013 1188.39C1008.84 1193.95 988.203 1220.63 992.759 1225.95C997.84 1227.1 998.02 1223.2 1000.31 1220.54C1069.75 1139.92 1132.1 1051.95 1202.79 972.35C1220.07 952.87 1229.47 943.683 1258.29 945.057C1320.82 948.043 1383.49 956.271 1446.43 956.471C1487.15 932.204 1540.03 912.31 1578.15 885.183C1580.94 883.193 1583.96 885.19 1582.59 879.13ZM998.903 862.762L995.024 868.54C994.706 870.845 996.114 871.778 997.523 873.164C1013.68 889.097 1045.46 902.578 1063.42 918.283C1068.12 919.51 1073.97 909.791 1068.21 906.284L1006.84 863.838L998.903 862.762ZM494.921 1018.34L494.803 939.177C498.831 899.284 498.356 859.063 501.968 818.933C502.96 807.888 504.926 795.724 506.69 784.734C502.791 786.142 500.854 791.057 498.656 794.385C458.967 854.34 443.199 929.283 426.342 998.363C426.04 1001.32 426.647 1003.31 428.816 1005.39C429.801 1006.34 450.411 1019.84 451.72 1020.22C464.752 1024.06 481.411 1016.32 494.921 1018.34ZM506.698 758.791C462.002 773.012 380.131 803.193 357.631 846.829C342.083 876.98 339.457 943.457 347.294 976.003C349.32 984.417 352.26 986.682 360.297 988.95C377.94 993.95 398.558 992.204 416.766 992.096C431.928 925.897 448.909 860.974 481.878 801.205C488.389 789.387 497.884 777.941 503.86 766.55C505.246 763.913 507.561 762.395 506.698 758.791ZM1311.27 928.67C1308.5 865.039 1304.15 798.568 1287.02 737.032C1269.9 675.578 1245.97 643.243 1190.18 612.081C1186.22 609.859 1156.88 594.616 1155.55 595.997C1186.76 700.872 1210.96 808.191 1219.62 917.684C1222.76 927.99 1253.69 922.657 1262.91 923.937L1311.27 928.67ZM737.91 994.71C741.842 975.55 747.125 956.15 749.479 936.671C760.011 849.566 754.529 679.278 703.539 605.606C693.655 591.316 677.767 573.243 659.153 574.955C642.412 576.488 599.323 597.032 585.79 607.815C523.878 657.146 516.984 773.923 511.442 847.278C502.834 961.27 499.102 1096.88 519.216 1209.91C528.081 1259.72 543.242 1329.12 598.746 1345.08C654.18 1361.02 760.843 1310.71 811.13 1283.82C863.309 1255.9 918.17 1220.62 954.997 1174.07C925.825 1170.27 895.754 1147.56 885.429 1119.75C883.163 1113.64 876.601 1086.12 879.681 1082.23C880.163 1081.62 886.008 1079.1 887.78 1081.99C891.318 1087.75 891.627 1104.75 894.296 1113.24C900.241 1132.14 925.851 1156.96 945.423 1161.2C976.942 1168.02 994.168 1142.8 1009.26 1119.8C970.263 1114.51 937.276 1073.72 954.997 1034.86C931.353 1040.35 909.28 1051.63 886.035 1059.07C852.891 1069.68 819.378 1077.06 786.249 1089.06C749.491 1102.36 704.011 1127.2 667.285 1135.26C652.964 1138.39 652.987 1130.68 664.13 1125.02C672.641 1120.68 730.133 1102.96 730.97 1099.4L719.244 897.137C721.512 891.817 728.752 891.524 730.5 897.164L737.91 994.71ZM742.663 1093.83C743.394 1094.76 755.531 1090.18 757.679 1088.79C767.274 1082.64 775.72 1047.26 779.223 1034.84C810.408 924.257 819.672 802.586 793.844 689.896C785.742 654.551 760.631 578.227 729.809 558.111C720.419 551.981 691.723 564.159 681.315 568.839C734.404 609.223 751.502 689.702 758.93 753.13C769.198 840.803 765.793 926.084 744.347 1011.76C738.401 1035.52 738.318 1053.3 740.284 1078.5C740.687 1083.64 743.236 1088.52 742.663 1093.83ZM1018.73 539.362C1019.12 544.277 1017.92 549.91 1018.73 554.673C1020.95 567.693 1051.58 571.932 1055.44 579.47C1061.46 591.22 1025.41 621.415 1013.94 625.432C928.267 655.545 866.479 592.987 820.934 530.677C818.065 526.756 807.608 508.172 806.418 507.441C795.2 500.565 764.807 510.533 763.868 526.549C762.958 542.04 802.762 596.825 814.568 610.19C817.692 613.724 839.058 635.553 840.854 635.953C847.285 637.375 856.662 610.853 864.163 607.815C872.819 613.186 867.396 618.571 863.398 625.902C861.513 629.34 848.782 650.16 847.338 650.409C835.301 652.438 811.842 623.058 804.035 613.642C785.832 591.689 770.614 567.679 756.859 542.744L737.932 548.806C737.108 552.423 738.434 552.589 740.441 554.549C819.996 632.143 826.671 818.422 813.166 922.497C806.131 976.724 791.917 1030.02 775.702 1082.03C794.623 1075.32 813.677 1068.52 832.859 1062.52C845.06 1058.71 869.756 1055.12 879.369 1050.04C890.845 1043.99 898.566 1012.76 900.467 1000.36C910.125 937.31 905.823 868.188 903.084 804.809C900.934 755.118 899.809 701.921 894.663 652.59C894.283 648.945 893.331 648.227 897.213 645.549C906.476 643.837 903.455 653.184 909.392 656.925C934.12 672.527 987.099 671.657 1014.52 663.76C1023.7 661.109 1037.04 649.994 1044.62 658.513C1036.68 668.316 1024.02 672.499 1012.13 675.537C977.703 684.318 942.904 682.164 910.242 667.805C902.186 665.927 907.678 678.16 907.829 682.095C911.417 776.008 923.397 874.107 914.901 967.603C912.71 991.723 909.135 1020.4 898.374 1041.9C921.56 1037.88 941.41 1024.02 965.61 1020.67C973.489 1019.58 978.663 1022.43 987.016 1018.5C1016.58 1004.55 1036.66 956.79 1056.15 931.684L1056.26 927.897L985.552 875.709C977.023 862.42 995.438 845.113 1008.62 852.65L1086.23 906.937L1117.81 902.683L1051.16 699.146C1047.3 692.132 1058 689.979 1060.91 696.523L1129.89 902.43C1141.46 904.924 1152.52 899.684 1163.77 900.297C1178.8 901.124 1193.44 907.363 1207.45 912.138C1205.08 855.997 1194.78 799.093 1183.15 744.156C1172.23 692.602 1158.4 641.572 1142.48 591.358C1137.85 584.206 1103.88 571.89 1094.2 568.839C1090.79 567.762 1090.83 567.748 1091.89 571.158C1099.15 594.354 1109.51 616.734 1116.62 640.813C1132.76 695.336 1146.37 754.649 1159.61 810.166C1162.37 821.708 1175.42 868.362 1174.55 875.539C1174.18 878.656 1171.96 882.192 1168.56 881.466L1108.35 647.882C1102.27 647.012 1104.68 648.31 1103.45 651.237C1100.93 657.215 1100.96 661.827 1092.98 663.884L1058.82 627.807C1064.24 608.188 1088.38 647.882 1093.02 647.854C1097.69 643.547 1101.43 632.212 1100.81 626.026C1099.97 617.576 1087.13 584.579 1082.83 575.508C1080.49 570.551 1078.29 564.255 1073.85 560.9C1061.63 551.622 1033.03 547.328 1018.73 539.362ZM896.024 395.441C899.262 395.399 902.465 394.82 905.468 396.601C907.674 397.899 924.6 425.112 930.167 430.883C966.263 468.313 1026.49 481.249 1069.4 447.299C1116.51 410.021 1130.47 341.995 1138.75 285.443C1141.26 268.351 1152.05 188.838 1147.27 178.373C1145.99 175.542 1139.75 171.524 1137.05 167.369C1114.98 133.28 1114.04 91.3353 1069.39 138.209C1052.54 155.882 1046.88 169.371 1022.69 181.175C987.596 198.296 954.489 194.789 918.993 202.52C891.072 208.609 899.167 256.09 876.482 270.905C856.177 284.145 857.397 262.994 845.866 258.009C829.745 251.051 811.232 261.889 808.81 278.788C804.754 307.078 840.361 320.761 860.587 330.702C860.752 336.335 856.472 338.557 855.767 344.563C851.911 377.409 857.245 415.267 853.301 450.64C850.54 475.409 846.119 505.922 832.624 526.784C855.973 560.141 890.847 603.963 931.866 615.574C957.769 622.906 998.765 625.143 1021.86 609.762C1026.1 606.945 1047.61 585.421 1042.3 581.845C1028.53 580.299 1015.55 569.833 1007.35 558.967L1006.9 478.019C971.755 475.865 937.263 456.535 914.935 429.599C911.299 425.208 892.465 398.962 896.024 395.441ZM529.123 673.839C541.602 647.482 551.326 622.713 573.999 603.107C585.257 593.373 599.242 588.016 609.644 578.421C606.144 547.356 580.991 527.723 577.745 495.457C571.307 431.421 606.599 417.463 651.358 390.263C706.804 356.561 672.947 301.984 716.897 257.609C733.296 241.041 775.527 222.471 778.113 198.489C781.109 170.696 774.302 143.124 781.538 114.613C809.024 6.29997 953.956 -17.3369 1045.27 16.1443C1063.01 22.661 1070.2 31.3177 1084.1 38.6353C1103.31 48.7417 1117.54 50.0395 1136.72 66.2485C1191.91 112.901 1200.51 181.603 1172.49 246.039C1166.82 259.073 1152.6 276.924 1149.06 286.299C1142.91 302.591 1141.51 333.504 1136 353.483C1119.7 412.782 1086 471.115 1018.9 478.198C1018.72 495.898 1013.44 511.969 1019.06 529.559C1077.02 550.2 1139.61 571.725 1193.36 601.823C1289.3 655.545 1304.71 734.091 1316.01 837.807C1319.31 868.042 1319.29 898.55 1323.26 928.457C1338.37 930.324 1354.01 929.871 1369.09 931.017C1389.65 932.577 1422.64 938.59 1442.1 935.63C1449.21 934.538 1467.98 923.616 1475.68 919.644C1497.67 908.27 1557.05 868.805 1577.02 867.425C1588.97 866.599 1598.58 875.923 1591.66 886.964C1553.27 935.443 1511.71 981.603 1470.53 1027.78C1467.57 1033.59 1473.59 1060.27 1474.09 1069.04C1475.12 1087.36 1475.84 1119.88 1463.53 1134C1459.49 1138.66 1453.68 1140.82 1450.41 1144.48C1447.33 1147.95 1446.56 1152.94 1443.46 1156.42C1435.48 1165.39 1414.41 1174.66 1406.93 1185.94C1396.65 1201.43 1390.78 1226.06 1378.34 1244.64C1344.58 1295.08 1270.44 1338.38 1212.19 1303.82C1219.19 1348.15 1227.2 1392.55 1236.42 1436.47C1247.05 1487.06 1263.66 1540.02 1270.85 1590.8C1273.82 1611.87 1273.6 1633.12 1275.86 1654.22C1279.54 1688.4 1283.93 1722.66 1287.67 1756.83H1848.04C1852.49 1756.83 1852.49 1768.63 1848.04 1768.63H5.32864C0.889801 1768.63 0.889801 1756.83 5.32864 1756.83H268.405C269.624 1749.11 266.315 1742 265.938 1734.52C261.34 1643.25 269.377 1547.95 266.309 1456.26C262.525 1445.03 279.59 1431.48 280.17 1429.48C281.826 1423.79 280.397 1414.07 284.741 1408.63C288.514 1403.9 297.174 1404.75 301.371 1401.67C306.195 1398.12 308.248 1385.48 318.562 1381.11C323.901 1378.84 341.457 1380.46 341.511 1375.78C341.59 1368.83 327.804 1377.01 324.151 1376.84C313.202 1376.28 289.648 1369.78 285.985 1358.22C278.924 1335.95 305.058 1318.54 320.386 1306.94L322.661 1245.99C328.511 1196.46 335.863 1147.16 344.618 1098.07C350.473 1065.24 359.79 1032.63 362.721 999.51C338.88 999.67 337.488 981.671 334.721 962.63C329.73 928.311 332.055 893.511 341.547 860.24H132.738L129.208 854.369L135.086 850.79C204.951 849.555 275.168 853.664 344.748 848.104C352.344 839.024 356.518 827.383 365.036 818.85C370.21 813.659 382.506 804.712 388.919 800.252C425.432 774.917 468.587 759.274 510.915 746.489L525.583 685.643H465.418C464.236 685.643 460.192 682.026 457.152 683.269C456.635 678.919 457.048 676.379 460.699 673.839H529.123Z" stroke="black" stroke-width="4" mask="url(#path-10-outside-1_4_247)"/>
<path d="M1439.4 712.278C1439.64 712.028 1439.77 711.724 1439.84 711.47C1439.92 711.205 1439.97 710.912 1439.99 710.613C1440.03 710.015 1440.01 709.276 1439.93 708.44C1439.77 706.761 1439.4 704.545 1438.87 701.98C1437.81 696.843 1436.12 690.197 1434.26 683.415C1430.78 670.698 1426.71 657.433 1425.11 652.606L1424.83 651.757C1390.25 550.536 1309.73 446.019 1209.46 403.52C1206.18 402.129 1200.06 399.24 1194.08 397.167C1191.09 396.129 1188.08 395.275 1185.42 394.912C1182.82 394.556 1180.34 394.64 1178.59 395.724V395.723C1176.79 396.835 1175.63 398.343 1175.64 400.081C1175.64 401.815 1176.8 403.343 1178.64 404.5L1178.72 404.553L1178.82 404.588C1310.53 454.82 1398.65 574.867 1428.05 710.438L1428.2 711.12L1428.89 711.217L1438.54 712.577L1439.05 712.648L1439.4 712.278Z" fill="#231F20" stroke="black" stroke-width="2"/>
<path d="M464.232 1216.52L443.085 1368.32L437.055 1371.68L431.761 1364.53L457.04 1217.57L464.232 1216.52Z" fill="#231F20"/>
<path d="M1035.31 410.585C1040.39 411.283 1045.61 410.688 1051.42 408.693H1051.42C1054.64 407.594 1060.08 403.991 1064.48 399.889C1066.68 397.827 1068.68 395.588 1070.02 393.411C1071.33 391.273 1072.14 388.989 1071.58 386.937C1071.21 385.588 1070.65 384.54 1069.85 383.849C1069.02 383.134 1068.04 382.891 1067.03 382.973C1066.05 383.053 1065.04 383.436 1064.07 383.959C1063.08 384.486 1062.07 385.188 1061.06 385.972C1059.05 387.537 1056.97 389.504 1055.13 391.214C1053.24 392.968 1051.66 394.389 1050.54 395.025V395.026C1044.97 398.194 1040.18 398.867 1035.83 398.064C1031.44 397.254 1027.39 394.924 1023.31 391.883C1021.27 390.366 1019.25 388.686 1017.19 386.95C1015.14 385.219 1013.04 383.428 1010.88 381.716C1006.57 378.294 1001.93 375.127 996.67 373.246L996.138 373.055L995.701 373.413C994.249 374.599 992.959 375.667 992.257 377.045C991.512 378.507 991.488 380.163 992.088 382.381V382.384C992.149 382.605 992.266 382.787 992.341 382.896C992.43 383.024 992.537 383.155 992.65 383.284C992.877 383.542 993.18 383.847 993.537 384.185C994.253 384.865 995.242 385.73 996.411 386.714C998.752 388.686 1001.86 391.17 1005.07 393.665C1011.45 398.631 1018.31 403.721 1020.24 404.861C1025.37 407.911 1030.24 409.888 1035.31 410.585Z" fill="#231F20" stroke="black" stroke-width="2"/>
<path d="M1037.62 356.307C1043.92 356.211 1053.75 353.799 1061.84 349.561C1065.89 347.438 1069.56 344.825 1072.15 341.755C1074.74 338.673 1076.26 335.083 1075.86 331.075C1075.15 323.814 1072.48 316.169 1070.53 308.542C1068.56 300.834 1067.26 292.995 1069.04 284.964L1069.26 283.984L1068.28 283.77L1061.36 282.263L1060.89 282.161L1060.52 282.459C1058.06 284.433 1055.84 286.804 1055.38 290.42L1055.38 290.422C1055.32 290.876 1055.33 291.551 1055.37 292.329C1055.41 293.129 1055.48 294.106 1055.59 295.198C1055.79 297.385 1056.11 300.069 1056.46 302.789C1057.16 308.229 1057.99 313.856 1058.36 316.034H1058.36C1058.65 317.719 1059.21 319.395 1059.83 321.036C1060.46 322.712 1061.13 324.3 1061.7 325.966C1062.78 329.108 1063.39 332.184 1062.43 335.363C1059.57 336.361 1051.94 339.348 1045.58 342.92C1042.22 344.809 1039.11 346.919 1037.27 349.048C1036.36 350.112 1035.67 351.279 1035.53 352.506C1035.38 353.799 1035.85 355 1036.9 356.025L1037.2 356.313L1037.62 356.307Z" fill="#231F20" stroke="black" stroke-width="2"/>
<path d="M987.306 261.373C1010.11 254.467 1013.36 289.013 998.2 293.507C972.906 301 969.56 266.76 987.306 261.373Z" fill="#231F20"/>
<path d="M1093.49 275.547C1120.23 267.587 1120.04 313.92 1091.11 305.307C1080.88 302.267 1082.28 278.893 1093.49 275.547Z" fill="#231F20"/>
<path d="M1023.89 232.749C1025.12 228.42 1022.65 224.961 1019.23 222.532C1015.81 220.099 1011.3 218.581 1008.05 218.092H1008.05C1004.06 217.496 992.447 217.391 981.598 218.504C976.169 219.061 970.898 219.927 966.849 221.201C964.826 221.838 963.083 222.586 961.772 223.464C960.549 224.284 959.652 225.253 959.308 226.402L959.246 226.635C958.918 228.063 959.081 229.24 959.728 230.152C960.364 231.05 961.406 231.602 962.65 231.925C965.126 232.568 968.67 232.371 972.402 231.849C976.154 231.324 980.175 230.458 983.636 229.714C987.127 228.964 989.994 228.351 991.511 228.3H991.51C997.712 228.102 1002.67 229.044 1007.59 230.169C1012.5 231.293 1017.39 232.608 1023.37 233.111L1023.78 233.147L1023.89 232.749Z" fill="#231F20" stroke="black"/>
<path d="M1131.01 250.993C1132.78 251.77 1134.61 252.282 1136.17 251.958C1136.96 251.793 1137.68 251.41 1138.26 250.752C1138.84 250.1 1139.26 249.203 1139.52 248.04H1139.51C1139.71 247.171 1139.46 246.282 1138.97 245.429C1138.48 244.576 1137.71 243.714 1136.77 242.867C1134.88 241.171 1132.21 239.461 1129.36 237.922C1126.5 236.381 1123.45 234.998 1120.77 233.961C1118.11 232.931 1115.78 232.225 1114.39 232.064C1109.08 231.442 1101.47 231.013 1094.95 232.458C1088.44 233.903 1082.84 237.27 1081.93 244.35L1081.87 244.857L1082.37 244.911C1090.45 245.759 1096.23 244.299 1102.04 243.521C1107.84 242.744 1113.79 242.618 1122.36 246.051H1122.36C1122.7 246.187 1123.18 246.456 1123.8 246.829C1124.4 247.199 1125.1 247.649 1125.88 248.137C1127.42 249.106 1129.23 250.207 1131.01 250.993Z" fill="#231F20" stroke="black"/>
</svg>
