<svg width="5734" height="3200" viewBox="0 0 5734 3200" fill="none" xmlns="http://www.w3.org/2000/svg">
<path d="M886.491 1291.72C888.49 1294.86 892.704 1295.28 894.584 1293.75C920.464 1278.64 920.636 1245.09 937.756 1227.16C939.945 1224.79 939.945 1221.08 937.41 1218.72C935.05 1216.53 931.345 1216.7 929.157 1219.06C911.157 1238.11 908.997 1271.6 888.69 1283.65C885.823 1285.33 884.984 1288.87 886.491 1291.72Z" fill="black"/>
<path d="M927.971 1381.43C924.771 1380.59 921.571 1382.61 920.719 1385.64L920.558 1386.66C907.572 1397.28 899.478 1413.13 898.798 1429.82C898.638 1433.18 901.17 1435.9 904.37 1436.07C904.531 1436.07 904.531 1436.07 904.705 1436.07C907.905 1436.07 910.437 1433.54 910.611 1430.32C911.117 1416.67 918.197 1403.01 929.317 1394.92C932.451 1392.32 934.731 1383.21 927.971 1381.43Z" fill="black"/>
<path d="M918.195 1547.51C902.769 1561.08 880.048 1575.59 884.809 1594.06C885.475 1596.76 887.848 1598.43 890.542 1598.43C892.221 1597.37 897.634 1597.66 896.274 1591.19C893.742 1581.08 911.114 1569.51 926.114 1556.3C928.474 1554.08 928.809 1550.38 926.621 1548.02C924.434 1545.48 920.716 1545.33 918.195 1547.51Z" fill="black"/>
<path d="M833.719 1764.19C835.653 1767.22 839.631 1767.68 841.811 1766.37C856.649 1757.94 869.635 1746.15 879.583 1732.31C881.608 1729.78 880.928 1726.07 878.395 1724.05C875.703 1722.2 871.995 1722.88 870.142 1725.39C861.034 1737.88 849.4 1748.5 835.911 1756.09C833.213 1757.79 832.203 1761.31 833.719 1764.19Z" fill="black"/>
<path d="M758.862 1718.14C760.015 1720.83 762.66 1722.5 766.617 1721.52C769.652 1720.33 771.169 1716.79 769.989 1713.75C765.1 1701.1 757.512 1689.15 748.239 1679.19C746.046 1676.84 742.337 1676.66 739.808 1679.03C737.446 1681.22 737.446 1684.93 739.639 1687.28C747.903 1696.23 754.477 1706.83 758.862 1718.14Z" fill="black"/>
<path d="M761.722 1554.77C758.856 1552.92 755.314 1553.76 753.461 1556.45C751.606 1559.15 752.448 1562.86 755.148 1564.71C766.95 1572.48 776.222 1583.77 781.619 1596.91C782.967 1600.43 787.365 1601.05 789.206 1600.13C792.241 1598.78 793.759 1595.41 792.409 1592.38C786.34 1577.19 775.378 1563.87 761.722 1554.77Z" fill="black"/>
<path d="M772.512 1424.61C770.995 1421.57 767.454 1420.39 764.589 1421.73C761.721 1423.09 760.373 1426.62 761.721 1429.66L785.496 1479.91C786.949 1482.8 790.74 1484.22 793.421 1482.61C796.288 1481.25 797.635 1477.72 796.288 1474.86L772.512 1424.61Z" fill="black"/>
<path d="M794.602 1283.81C798.111 1285.57 801.307 1284.41 802.863 1281.96C804.55 1279.26 803.875 1275.72 801.009 1273.86L758.182 1245.71C755.316 1244.02 751.776 1244.69 749.922 1247.39C748.235 1250.09 748.91 1253.78 751.607 1255.64L794.602 1283.81Z" fill="black"/>
<path d="M771.337 1134.24C773.634 1137.2 777.557 1137.12 779.598 1135.43C782.128 1133.41 782.634 1129.7 780.611 1127.17L762.402 1103.38C760.547 1100.85 756.836 1100.36 754.138 1102.38C751.61 1104.4 751.103 1108.11 753.127 1110.65L771.337 1134.24Z" fill="black"/>
<path d="M863.061 1100.7C866.948 1101.66 869.534 1099.67 870.48 1096.8L890.721 1034.26C891.721 1031.05 890.04 1027.67 887.001 1026.67C883.8 1025.66 880.601 1027.51 879.589 1030.54L859.183 1093.27C858.342 1096.3 860.027 1099.67 863.061 1100.7Z" fill="black"/>
<path d="M1031.51 1895.35C1028.63 1893.85 1025.09 1894.69 1023.41 1897.37L1009.4 1920.82C1007.73 1923.69 1008.57 1927.39 1011.44 1928.91C1013.3 1930.4 1017.52 1930.06 1019.53 1926.89L1033.52 1903.45C1035.21 1900.75 1034.2 1897.05 1031.51 1895.35Z" fill="black"/>
<path d="M964.559 1937.33C961.534 1936.16 958.16 1937.67 956.972 1940.71C951.866 1954.34 929.506 1967.23 932.693 1987.92C933.187 1992.05 936.639 1993.43 939.666 1992.75C942.453 1992.14 944.893 1989.77 944.333 1986.22C942.519 1971.72 961.893 1961.14 967.933 1944.92C969.119 1941.89 967.6 1938.52 964.559 1937.33Z" fill="black"/>
<path d="M861.379 1995.17C858.176 1995.17 855.477 1997.87 855.477 2001.06L854.635 2055.19C854.434 2059.19 857.384 2061.21 860.385 2061.27C863.386 2061.29 866.437 2059.39 866.437 2055.53L867.284 2001.23C867.284 1997.87 864.752 1995.32 861.379 1995.17Z" fill="black"/>
<path d="M798.314 2065.3C795.112 2065.81 792.75 2068.67 793.256 2071.9L800.845 2133.77C801.283 2137.72 804.407 2139.27 807.335 2138.87C810.282 2138.46 813.032 2136.1 812.647 2132.25L804.891 2070.54C804.552 2067.33 801.688 2064.97 798.314 2065.3Z" fill="black"/>
<path d="M764.593 2147.09C763.244 2144.05 759.702 2142.71 756.836 2144.05C753.801 2145.4 752.621 2148.95 753.97 2151.81L770.832 2189.41C772.088 2192.13 775.385 2193.63 778.756 2192.28C781.622 2190.93 782.97 2187.39 781.622 2184.52L764.593 2147.09Z" fill="black"/>
<path d="M820.907 2236.79C817.535 2236.61 815.006 2239.15 814.838 2242.35C814.669 2245.72 817.199 2248.43 820.402 2248.59C837.965 2249.03 842.991 2250.81 856.317 2261.91C859.017 2263.84 862.858 2263.33 864.747 2260.89C866.773 2258.37 866.263 2254.67 863.735 2252.64C848.541 2240.67 841.862 2237.28 820.907 2236.79Z" fill="black"/>
<path d="M920.053 2169.01C906.506 2162.11 893.373 2169.77 854.125 2182.16C850.921 2183.17 849.234 2186.37 850.246 2189.57C851.211 2192.47 854.395 2194.37 857.665 2193.29C900.799 2179.52 907.546 2175.76 914.493 2179.47C917.519 2180.97 921.066 2179.8 922.586 2176.93C924.093 2174.07 922.919 2170.52 920.053 2169.01Z" fill="black"/>
<path d="M1001.66 2082.67C971.65 2083.69 942.65 2092.95 917.853 2109.64C914.996 2111.5 914.33 2115.04 916.18 2117.73C917.363 2119.6 919.213 2120.44 921.077 2120.44C922.246 2120.44 923.43 2120.1 924.273 2119.43C947.03 2104.25 974.683 2095.32 1002.01 2094.3C1005.21 2094.3 1007.74 2091.6 1007.74 2088.23C1007.56 2085.03 1005.21 2082.16 1001.66 2082.67Z" fill="black"/>
<path d="M1026.61 2032.94L999.976 2040.7C996.776 2041.54 994.912 2044.75 995.914 2047.95C996.596 2050.48 998.96 2052.17 1001.49 2052.17C1002.16 2052.17 1002.66 2052.17 1003.18 2052L1029.81 2044.25C1033.03 2043.23 1034.71 2040.04 1033.86 2036.82C1033.03 2033.79 1029.65 2031.94 1026.61 2032.94Z" fill="black"/>
<path d="M1094.06 1960.61L1067.42 1969.21C1064.39 1970.21 1062.69 1973.58 1063.7 1976.79C1064.39 1979.15 1066.74 1980.85 1069.27 1980.85C1069.77 1980.85 1070.45 1980.68 1071.13 1980.5L1097.6 1971.9C1100.8 1970.9 1102.5 1967.53 1101.48 1964.48C1100.46 1961.28 1097.09 1959.59 1094.06 1960.61Z" fill="black"/>
<path d="M320.135 1599.94C318.955 1596.91 315.752 1595.23 312.547 1596.24C309.512 1597.25 307.825 1600.62 308.837 1603.66L314.571 1621.03C315.413 1623.55 317.774 1625.07 320.304 1625.07C324.733 1625.07 326.988 1620.88 325.868 1617.33L320.135 1599.94Z" fill="black"/>
<path d="M379.147 1630.97C375.946 1631.82 374.09 1635.19 374.934 1638.22C377.462 1646.98 377.97 1656.27 376.789 1665.19C376.098 1669.57 379.504 1671.99 382.815 1671.94C385.448 1671.91 388.021 1670.3 388.422 1666.88C389.94 1656.27 389.265 1645.31 386.4 1635.19C385.556 1631.98 382.352 1630.13 379.147 1630.97Z" fill="black"/>
<path d="M436.308 1681.39C433.104 1681.89 430.912 1684.93 431.419 1688.14L436.476 1719.16C436.891 1722.68 439.752 1724.22 442.544 1724.03C445.708 1723.82 448.783 1721.39 448.11 1717.14L443.051 1686.28C442.547 1683.07 439.512 1680.88 436.308 1681.39Z" fill="black"/>
<path d="M486.214 1719.83C483.011 1720.18 480.649 1723.03 480.986 1726.24C482.169 1737.54 480.819 1749.34 477.109 1760.15C475.839 1763.94 478.79 1767.88 482.674 1767.88C485.203 1767.88 487.563 1766.37 488.406 1763.85C492.452 1751.54 493.969 1738.05 492.79 1725.06C492.452 1721.86 489.587 1719.5 486.214 1719.83Z" fill="black"/>
<path d="M537.475 1794.18C534.44 1793.5 531.236 1795.36 530.394 1798.58L523.65 1824.53C522.975 1827.72 524.829 1830.94 528.033 1831.61C529.727 1832.46 534.142 1831.29 535.115 1827.4L541.861 1801.44C542.533 1798.22 540.679 1795.02 537.475 1794.18Z" fill="black"/>
<path d="M488.069 1901.76C498.355 1902.78 508.305 1908.17 514.711 1916.42C516.714 1919 520.78 1919.28 522.973 1917.44C525.669 1915.42 526.007 1911.71 523.984 1909.18C515.554 1898.39 502.909 1891.3 489.251 1889.96C485.878 1889.46 483.18 1891.97 482.843 1895.19C482.506 1898.56 484.867 1901.43 488.069 1901.76Z" fill="black"/>
<path d="M443.561 1828.74C449.182 1826.5 453.959 1838.13 469.189 1841.73C472.057 1841.73 474.585 1839.7 474.922 1836.68C475.429 1833.46 473.067 1830.44 469.864 1830.1C462.687 1829.19 453.574 1812.02 439.177 1817.77C436.142 1818.96 434.626 1822.34 435.806 1825.37C436.985 1828.41 440.526 1829.92 443.561 1828.74Z" fill="black"/>
<path d="M388.76 1760.79C395.673 1761.48 402.585 1764.67 407.644 1769.57C410.095 1772.03 413.856 1771.61 415.906 1769.57C418.266 1767.21 418.266 1763.49 415.906 1761.14C408.824 1754.22 399.551 1750.01 389.771 1749C386.569 1748.67 383.702 1751.03 383.364 1754.22C383.026 1757.6 385.388 1760.47 388.76 1760.79Z" fill="black"/>
<path d="M339.693 1721.17C349.134 1723.54 358.069 1728.1 365.489 1734.17C367.312 1735.99 371.495 1736.24 373.752 1733.33C375.775 1730.79 375.438 1727.09 372.908 1725.07C364.14 1717.98 353.687 1712.58 342.726 1709.72C339.522 1708.87 336.319 1710.91 335.476 1713.94C334.634 1717.14 336.657 1720.35 339.693 1721.17Z" fill="black"/>
<path d="M230.77 1652.21C230.268 1655.42 232.626 1658.44 235.83 1658.78C256.077 1661.16 272.779 1663.23 288.268 1676.33C290.362 1678.43 294.253 1678.43 296.53 1675.82C298.723 1673.28 298.385 1669.59 295.855 1667.38C278.514 1652.36 259.579 1649.69 237.179 1646.99C233.975 1646.82 231.109 1649 230.77 1652.21Z" fill="black"/>
<path d="M5679.6 2299.87C5647.39 2291.78 5611.97 2295.66 5582.12 2310.32C5581.63 2310.67 5580.94 2310.83 5580.29 2310.83C5578.76 2310.83 5577.23 2309.99 5576.58 2308.47C5575.55 2306.29 5576.39 2303.75 5578.42 2302.74C5609.98 2287.23 5647.58 2283.19 5681.63 2291.62C5683.99 2292.12 5685.33 2294.48 5684.84 2296.67C5684.15 2299.03 5681.97 2300.38 5679.6 2299.87ZM5542.35 2465.11C5503.91 2450.62 5458.4 2458.36 5426.68 2484.67C5425.99 2485.35 5425 2485.69 5423.97 2485.69C5422.82 2485.69 5421.64 2485.18 5420.8 2484.16C5419.27 2482.31 5419.61 2479.62 5421.29 2478.1C5455.34 2449.94 5504.06 2441.68 5545.36 2457.19C5547.58 2458.03 5548.61 2460.39 5547.93 2462.59C5547.08 2464.78 5544.72 2465.96 5542.35 2465.11ZM5421.64 2658.18C5375.79 2645.36 5324.85 2650.42 5282.17 2672.01C5280.91 2672.84 5277.74 2672.35 5276.63 2670.14C5275.44 2667.95 5276.28 2665.42 5278.46 2664.42C5322.82 2641.99 5375.94 2636.76 5423.82 2650.08C5426.19 2650.75 5427.37 2652.95 5426.83 2655.31C5426.19 2657.5 5423.82 2658.85 5421.64 2658.18ZM5121.49 2892.88C5120.5 2894.83 5117.9 2895.64 5115.76 2894.06C5113.73 2892.88 5113.24 2890.18 5114.58 2888.33C5195.77 2766.77 5237.19 2490.13 5655.49 2168.36C5657.17 2167.02 5659.88 2167.35 5661.41 2169.2C5662.75 2171.06 5662.41 2173.75 5660.53 2175.1C5243.38 2495.86 5204.18 2769.78 5121.49 2892.88ZM567.489 1956.59C616.636 1944.28 644.515 1909.36 657.865 1861.32C699.897 1969.52 740.42 1960.3 748.914 1963.32C642.52 2209.34 592.613 2371.71 630.717 2505.58H596.151C632.91 2264.47 612.677 2086.92 567.489 1956.59ZM563.611 1945.28C463.624 1670.62 252.524 1612.95 249.318 1612.11C246.284 1611.44 243.082 1613.3 242.237 1616.5C241.393 1619.54 243.25 1622.91 246.452 1623.57C357.73 1655.31 487.735 1766.51 552.82 1948.32C397.252 1992.8 405.127 1801.07 345.594 1805.18C195.532 1676.35 87.6208 1675.18 43.277 1682.59C77.8426 1630.65 130.279 1602.34 168.723 1587.83C253.483 1555.36 414.08 1542.99 508.812 1575.35C616.842 1612.53 672.409 1697.92 650.445 1840.75C633.151 1937.4 565.311 1944.01 563.611 1945.28ZM632.402 1231.22C579.247 1107.52 554.612 876.787 741.83 885.575C850.922 890.455 959.682 956.388 1025.78 1057.55C1138.1 1229.28 1140.88 1515.99 974.684 1752.9C929.843 1817.2 820.327 1929.04 768.471 1947.64C899.657 1642.96 833.556 1199.7 832.883 1195.31C832.375 1192.11 829.341 1189.91 826.135 1190.41C822.933 1190.92 820.743 1193.79 821.248 1197.16C853.651 1407.9 848.121 1739.55 754.142 1951.19C709.989 1958.26 676.619 1881.87 662.416 1839.74C669.172 1799.2 668.866 1721.64 645.386 1674.67C667.487 1492.76 743.569 1492.76 632.402 1231.22ZM755.319 2323.31C786.858 2347.31 870.574 2345.41 912.469 2337.31C894.254 2400.87 886.493 2460.23 894.254 2505.58H725.476C728.005 2438.47 738.796 2377.78 755.319 2323.31ZM1351.52 1887.28C1349.84 1887.96 1347.99 1888.63 1346.3 1889.47C1268.74 1899.43 1202.31 1915.95 1163.69 1938.03C1150.2 1945.79 1136.22 1956.08 1122.39 1968.72C1112.09 1978 1101.64 1988.46 1091.36 2000.08C1020.2 2079.67 951.589 2207.82 916.003 2324.5C874.162 2333.35 786.919 2336.34 759.197 2311.34C858.511 2005.31 1139.92 1896.56 1143.47 1895.2C1146.5 1894.2 1148.19 1890.83 1147 1887.62C1145.83 1884.59 1142.46 1883.07 1139.42 1884.26C1135.87 1885.6 853.116 1994.7 750.095 2301.23C714.41 2255.82 701.755 2184.84 722.106 2118.46C745.709 2041.56 803.881 1985.92 848.565 1952.87C939.614 1885.26 1055.11 1849.01 1172.63 1849.01C1203.32 1849.01 1234.35 1851.54 1265.03 1856.6C1285.27 1869.24 1315.79 1879.54 1351.52 1887.28ZM1644.74 1718.34C1644.74 1731.83 1633.95 1742.79 1620.47 1742.79H1618.6C1614.56 1742.28 1610.35 1744.8 1609.34 1748.86C1602.42 1774.48 1590.96 1797.92 1576.12 1816.64C1575.27 1817.82 1574.6 1819.34 1574.43 1820.68C1574.2 1822.36 1564.36 1893.32 1564.99 1888.8C1490.2 2074.92 1542.35 1945.18 1511.03 2023.19C1472.34 1933.88 1475.69 1949.1 1449.5 1880.03L1444.27 1848.16C1489.11 1844.63 1506.82 1831.14 1506.82 1831.14C1483.55 1840.07 1451.51 1827.76 1438.19 1821.87C1438.03 1821.87 1438.03 1821.7 1438.03 1821.7C1421.67 1802.31 1408.52 1776.68 1400.93 1748.86C1399.92 1744.8 1395.87 1742.28 1391.66 1742.79H1390.64C1377.32 1742.95 1365.52 1731.99 1365.52 1718.34C1365.52 1707.37 1372.44 1698.78 1381.88 1695.24C1381.88 1695.24 1382.21 1695.24 1382.21 1695.07C1382.39 1695.24 1382.55 1695.24 1382.55 1695.07C1406.16 1693.04 1428.42 1683.1 1448.82 1668.93H1468.04C1470.4 1668.93 1472.26 1667.08 1472.26 1664.72C1472.26 1662.52 1470.4 1660.51 1468.04 1660.51H1460.11C1490.47 1636.56 1515.92 1604.01 1534.29 1576.54C1582.36 1587.83 1613.72 1628.64 1616.59 1686.14C1616.75 1690.18 1619.79 1693.55 1623.83 1694.05C1626.54 1694.39 1629.23 1695.24 1631.76 1696.59C1639.86 1700.8 1644.74 1709.07 1644.74 1718.34ZM1316.12 2662.9C1248.34 2635.42 1175.49 2614.01 1106.71 2606.07C1106.56 2604.19 1073.35 2162.07 1073.49 2163.98C1340.36 2163.98 1683.39 2163.98 1950.43 2163.98L1916.89 2611.3C1859.39 2621.75 1800.2 2640.3 1744.39 2662.9C1606.88 2662.9 1481.19 2662.9 1316.12 2662.9ZM992.215 2904.68C987.828 2905.7 984.974 2910.08 985.975 2914.63L992.723 2946.33C921.441 2965.51 934.627 2965.89 908.254 2965.22C879.134 2948.81 847.25 2924.98 836.93 2893.22C826.135 2860.51 821.584 2831.51 821.584 2806.05C821.584 2657.67 991.882 2580.11 1089.18 2677.39C1092.9 2680.75 1097.99 2680.38 1101.14 2677.23C1104.27 2674.1 1104.51 2667.39 1099.28 2663.91C1077.27 2641.88 1048.53 2626.6 1015.48 2620.91C1202.67 2601.92 1395.48 2724.6 1504.63 2766.59C1290.4 2838.01 1009.72 2900 992.215 2904.68ZM898.136 2522.44C906.733 2551.11 929.496 2582.3 961.027 2614.01C949.549 2617.27 940.55 2620.66 934.39 2623.44C770.347 2623.44 557.107 2623.44 393.484 2623.44L370.718 2522.44C558.972 2522.44 704.884 2522.44 898.136 2522.44ZM471.549 2814.14H648.252C652.974 2814.14 656.681 2810.43 656.681 2805.71C656.681 2801.15 652.974 2797.28 648.252 2797.28H468.347L451.821 2708.26H648.252C652.974 2708.26 656.681 2704.54 656.681 2699.82C656.681 2695.1 652.974 2691.39 648.252 2691.39H448.619L439.173 2640.3H901.002C844.514 2674.7 772.013 2749.9 820.911 2898.62C826.475 2915.64 837.434 2931.15 852.608 2945.31H822.933C789.464 2931.95 753.423 2926.87 697.655 2945.31H495.996L471.549 2814.14ZM812.142 3132.65C769.159 3112.54 730.424 3116.87 686.527 3124.89C640.667 3132.98 615.375 3137.54 602.055 3085.26C593.285 3051.54 608.463 3024.56 627.006 3006.02C626.502 3013.1 627.346 3021.19 630.548 3029.97C634.163 3040.28 650.132 3035.02 646.398 3024.23C640.281 3007.93 645.21 2992.79 655.336 2983.59C814.423 2895.82 798.187 3000.14 948.723 2980.04C936.282 3035.98 960.202 3082.02 1000.15 3118.99C941.842 3149.73 871.682 3160.41 812.142 3132.65ZM1656.37 3075.82C1656.2 3075.99 1656.2 3075.99 1656.04 3075.82C1654.35 3075.39 1595.27 3077.39 1521.66 3032.83C1510.19 3025.75 1503.61 3020.68 1503.28 3020.52C1499.56 3017.66 1494.34 3018.32 1491.47 3021.87C1488.62 3025.58 1489.28 3030.81 1492.83 3033.67C1495.35 3035.7 1532.79 3064.7 1587.75 3081.39C1432.89 3091.07 1207.48 3126.14 1053.59 3150.69C1053.15 3148.63 1003.33 2915.34 1004.19 2919.35C1799 2737.79 1796.69 2591.82 2063.74 2623.27C2029.5 2630.6 2003.86 2650.34 1988.2 2687.34C1986.35 2691.57 1988.38 2696.62 1992.75 2698.3C1996.04 2699.95 2001.68 2698.74 2003.71 2693.92C2057.16 2564.14 2298.83 2664.74 2223.42 2893.22C2181.79 3019.74 1789.56 3063.94 1656.37 3075.82ZM1627.2 3095.55C1804.88 3080.5 1936.86 3056.71 2032.71 3029.79L2006.75 3150.69C1966.6 3144.01 1740.47 3109.78 1627.2 3095.55ZM2394.8 3008.45C2399.7 3012.27 2407.86 3022.04 2412.79 3047.16C2413.72 3051.88 2418.35 3054.73 2422.68 3053.81C2427.26 3052.91 2430.23 3048.48 2429.34 3043.9C2428.18 3038.01 2426.82 3032.78 2425.32 3028.09C2444.52 3047.59 2474.88 3071.35 2463.02 3118.49C2438.68 3214.25 2357.16 3117.38 2252.75 3166.03C2193.22 3193.68 2123.39 3183.03 2064.92 3152.2C2110.28 3110.22 2129.16 3058.79 2116.18 3013.27C2160.08 3019.67 2210.04 3013.91 2252.24 2992.52C2285.8 2975.55 2346.72 2983.59 2394.8 3008.45ZM1627.24 817.946H5079.04V2945.34H2723.66C2738.58 2919.46 2787.91 2852.64 2898.3 2855.63C2898.3 2855.63 2815.76 2800.19 2709.82 2864.26C2709.82 2864.26 2766.49 2782.95 2858.87 2762C2858.87 2762 2757.86 2715.19 2686.42 2819.91C2686.42 2819.91 2714.75 2684.41 2842.86 2642.51C2842.86 2642.51 2698.74 2605.15 2629.75 2790.14C2629.75 2790.14 2661.28 2607.95 2534.9 2553.82C2534.9 2553.82 2581.71 2690.15 2571.84 2790.14C2571.84 2790.14 2547.02 2650.26 2408 2633.9C2408 2633.9 2543.51 2789.11 2547.22 2844.54C2547.22 2844.54 2455.56 2707.89 2331.63 2705.34C2331.63 2705.34 2480.94 2806.88 2500.4 2890.13C2500.4 2890.13 2401.84 2840.84 2348.88 2877.81C2348.88 2877.81 2488.1 2900.32 2516.84 2945.34H2207.59C2222.79 2931.06 2234.01 2915.57 2239.6 2898.62C2292.76 2736.72 2201.91 2630.22 2069.47 2607.26C2099.32 2575.9 2120.39 2545.2 2127.31 2517.05C2162.55 2372.71 2018.04 2056.4 1888.9 1950C1888.9 1949.84 1888.72 1949.84 1888.72 1949.84C1878.79 1941.36 1864.38 1931.2 1855.84 1927.42C1855.51 1927.08 1855.16 1926.91 1855 1926.74C1854.83 1926.74 1854.65 1926.58 1854.49 1926.58C1807.71 1899.82 1710.51 1887.02 1656.55 1882.56C1721.29 1865.7 1762.6 1839.56 1745.58 1806.19C1681.05 1679.67 1735.71 1567.28 1627.24 1499.39V817.946ZM1877.76 460.685C1923.96 460.685 1961.57 498.442 1961.57 544.799C1961.57 591.176 1923.96 628.775 1877.76 628.775C1831.39 628.775 1793.63 591.176 1793.63 544.799C1793.63 498.442 1831.39 460.685 1877.76 460.685ZM2128.66 460.685C2174.86 460.685 2212.46 498.442 2212.46 544.799C2212.46 591.176 2174.86 628.775 2128.66 628.775C2082.29 628.775 2044.68 591.176 2044.68 544.799C2044.68 498.442 2082.29 460.685 2128.66 460.685ZM2379.71 460.685C2425.91 460.685 2463.52 498.442 2463.52 544.799C2463.52 591.176 2425.91 628.775 2379.71 628.775C2333.35 628.775 2295.58 591.176 2295.58 544.799C2295.58 498.442 2333.35 460.685 2379.71 460.685ZM4781.41 486.803C4778.05 483.429 4778.05 478.186 4781.41 474.823C4784.62 471.614 4790.01 471.614 4793.22 474.823L4845.84 527.44L4898.26 474.823C4901.47 471.614 4906.86 471.614 4910.07 474.823C4913.43 478.186 4913.43 483.429 4910.07 486.803L4857.61 539.239L4910.07 591.68C4913.43 595.054 4913.43 600.442 4910.07 603.655C4907.01 607.029 4901.28 607.029 4898.26 603.655L4845.84 551.215L4793.22 603.655C4790.16 607.029 4784.43 607.029 4781.41 603.655C4778.05 600.442 4778.05 595.054 4781.41 591.68L4833.84 539.239L4781.41 486.803ZM5230.58 2447.75C5232.8 2446.74 5235.32 2447.75 5236.16 2449.94C5249.65 2479.28 5257.06 2511.82 5257.75 2544.19C5257.75 2546.55 5255.88 2548.4 5253.51 2548.4C5251.14 2548.4 5249.31 2546.55 5249.31 2544.36C5248.62 2513.16 5241.55 2481.8 5228.56 2453.49C5227.56 2451.28 5228.56 2448.76 5230.58 2447.75ZM5380.49 2259.4C5382.01 2257.9 5384.69 2257.72 5386.37 2259.4C5406.35 2278.99 5409.75 2306.79 5412.51 2332.75C5412.93 2335.75 5410.71 2337.28 5408.46 2337.31C5406.43 2337.34 5404.44 2336.16 5404.25 2333.76C5401.58 2309.26 5398.37 2282.96 5380.49 2265.48C5378.8 2263.79 5378.8 2261.1 5380.49 2259.4ZM5510.13 2171.39C5512.5 2170.88 5514.72 2172.24 5515.22 2174.6C5520.6 2196.52 5520.76 2219.61 5516.06 2241.71C5515.41 2244.23 5513.04 2245.2 5511.01 2244.83C5508.91 2244.46 5507.15 2242.74 5507.77 2239.86C5512.35 2219.11 5512.01 2197.19 5506.92 2176.62C5506.43 2174.25 5507.77 2172.07 5510.13 2171.39ZM5185.72 2127.9C5186.91 2125.87 5189.43 2125.03 5191.49 2126.2C5221.3 2141.38 5245.75 2167.51 5260.58 2199.55C5261.46 2201.58 5260.58 2204.11 5258.4 2205.11C5255.76 2206 5253.62 2204.88 5252.86 2203.1C5238.84 2172.74 5215.76 2148.12 5187.6 2133.63C5185.57 2132.62 5184.73 2130.08 5185.72 2127.9ZM5287.59 1910.55C5320.57 1909.23 5333.41 1943.02 5340.17 1974.12C5340.71 1976.59 5339.33 1978.35 5337.57 1979.02C5335.43 1979.81 5332.68 1979.03 5331.92 1975.97C5317.36 1909.1 5290.08 1920.9 5287.75 1918.99C5285.38 1918.99 5283.54 1917.12 5283.54 1914.94C5283.35 1912.57 5285.23 1910.55 5287.59 1910.55ZM5416.56 2100.75C5426.53 2089.79 5438.49 2080.68 5451.63 2073.76C5453.66 2072.59 5456.18 2073.43 5457.37 2075.46C5458.4 2077.64 5457.56 2080.18 5455.53 2081.19C5443.23 2087.59 5432.07 2096.19 5422.63 2106.48C5421.41 2108 5419 2108.47 5416.75 2106.64C5415.07 2105.14 5414.88 2102.43 5416.56 2100.75ZM5424.66 1964.17C5441.16 1945.96 5465.96 1934.67 5490.57 1933.82H5490.76C5492.94 1933.82 5494.81 1935.67 5494.97 1937.87C5494.97 1940.23 5493.13 1942.26 5490.91 1942.26C5468.33 1942.92 5445.9 1953.22 5430.89 1969.91C5429.13 1971.68 5426.34 1971.6 5425 1970.24C5423.13 1968.55 5423.13 1965.86 5424.66 1964.17ZM5730.5 2079.84C5730.5 2079.84 5664.58 2081.7 5572.88 2113.56C5573.53 2115.75 5572.53 2118.11 5570.36 2118.95C5372.73 2188.9 5210.87 2341.44 5117.94 2578.75C5117.17 2580.55 5115.3 2581.98 5112.74 2581.12L5112.7 2581.11C5112.7 2581.11 5112.7 2581.11 5112.7 2581.12H5112.55C5110.37 2580.27 5109.34 2577.75 5110.18 2575.55C5167.69 2428.7 5246.78 2324.66 5329.74 2251.15C5381.82 2011.04 5391.11 1811.24 5391.11 1809.21C5391.26 1806.86 5393.48 1805 5395.5 1805.18C5397.83 1805.34 5399.71 1807.19 5399.55 1809.55C5399.55 1811.58 5390.42 2005.99 5340.17 2241.87C5418.08 2175.6 5498.52 2135.31 5567.49 2111.03C5569.51 2110.19 5571.5 2111.2 5572.53 2113.23C5544.03 1827.26 5404.6 1680.23 5404.6 1680.23C5404.6 1680.23 5173.69 1863.12 5095.93 2228.38C5095.85 1996.1 5095.43 555.708 5095.35 279.909C5095.35 275.515 5091.84 272 5087.45 272H1618.77C1614.39 272 1610.86 275.515 1610.86 279.909C1610.75 550.015 1610.47 1253.52 1610.38 1489.92C1607.44 1488.43 1604.55 1486.92 1601.42 1485.48C1563.98 1468.28 1527.39 1463.73 1493.84 1465.76C1460.46 1463.73 1423.7 1468.28 1386.43 1485.48C1243.79 1551.24 1311.23 1670.62 1242.27 1806.19C1235.52 1819.34 1237.88 1831.14 1246.99 1841.92C1102.5 1823.21 953.603 1859.98 841.48 1943.43C795.448 1977.66 735.426 2035.15 710.807 2115.08C687.173 2191.88 707.1 2272.43 745.709 2314.55C727.837 2371.36 716.202 2434.94 713.673 2505.58H643.196C603.74 2373.06 654.323 2210.69 762.571 1961.64C823.277 1947.5 938.628 1825.22 984.47 1759.64C1154.21 1516.77 1149.95 1225.48 1035.55 1051.15C967.427 946.774 855.141 878.828 742.506 873.761C554.02 864.854 557.929 1087.87 621.443 1235.94C725.323 1476.36 674.04 1410.54 635.776 1657.3C609.976 1615.99 566.476 1582.78 512.691 1564.23C414.794 1530.82 251.718 1543.51 164.509 1576.71C11.4893 1634.87 -35.8044 1786.23 26.9227 1898.08C68.095 1970.27 139.32 1977.98 203.121 1941.58C244.259 1918.13 275.959 1879.03 301.927 1846.99C406.476 1718.96 347.627 2008.83 556.866 1959.62C600.029 2085.91 621.443 2262.27 584.348 2505.58H360.095C355.113 2505.58 350.684 2510.11 351.834 2515.87L378.643 2633.72C379.487 2637.6 382.861 2640.3 386.736 2640.3H422.146C490.383 3007.74 410.339 2577.59 478.813 2945.34H71.5186C66.8607 2945.34 63.0893 2949.11 63.0893 2953.77C63.0893 2958.43 66.8607 2962.2 71.5186 2962.2C73.2687 2962.2 590.863 2962.18 658.538 2962.18C609.834 2986.54 571.769 3034.54 585.696 3089.31C602.895 3156.93 644.881 3149.34 689.561 3141.42C723.959 3135.34 762.907 3128.43 805.062 3147.99C872.55 3179.1 951.788 3167.01 1013.98 3130.62L1031.34 3127.24L1038.76 3161.98C1039.6 3165.86 1043.13 3168.55 1047.02 3168.55C1096.45 3161.71 867.907 3193.42 1530.59 3101.62C1616.59 3108.36 1928.8 3155.52 2013.32 3168.55C2017.38 3168.55 2020.75 3165.86 2021.59 3161.98L2022.43 3158.27L2051.27 3164.01C2113.27 3200.18 2193.19 3212.4 2260 3181.2C2357.87 3135.62 2450.23 3237.43 2479.21 3122.7C2506.52 3015.22 2327.98 2935.27 2244.66 2977.53C2186.14 3007.17 2129.71 2995.43 2127.98 2995.39C2150.47 2985.29 2170.45 2974.15 2187.34 2962.03C2189.99 2962.39 2095.32 2962.26 5483.58 2962.2C5488.28 2962.2 5492.02 2958.43 5492.02 2953.77C5492.02 2949.11 5488.28 2945.34 5483.58 2945.34H5205.13C5358.59 2867.3 5539.94 2747.66 5616.7 2591.4C5761.72 2296.67 5730.5 2079.84 5730.5 2079.84Z" fill="black"/>
<path d="M5572.87 2113.2C5572.69 2113.02 5572.54 2112.86 5572.54 2112.86C5572.54 2112.86 5572.54 2113.02 5572.54 2113.2C5572.69 2113.2 5572.69 2113.2 5572.87 2113.2Z" fill="black"/>
<path d="M1877.76 611.564C1914.68 611.564 1944.69 581.386 1944.69 544.454C1944.69 507.358 1914.68 477.179 1877.76 477.179C1840.66 477.179 1810.48 507.358 1810.48 544.454C1810.48 581.386 1840.66 611.564 1877.76 611.564Z" fill="black"/>
<path d="M2379.71 611.564C2416.64 611.564 2446.66 581.386 2446.66 544.454C2446.66 507.358 2416.64 477.179 2379.71 477.179C2342.62 477.179 2312.44 507.358 2312.44 544.454C2312.44 581.386 2342.62 611.564 2379.71 611.564Z" fill="black"/>
<path d="M2128.65 611.564C2165.58 611.564 2195.59 581.386 2195.59 544.454C2195.59 507.358 2165.58 477.179 2128.65 477.179C2091.71 477.179 2061.54 507.358 2061.54 544.454C2061.54 581.386 2091.71 611.564 2128.65 611.564Z" fill="black"/>
<path d="M3080.85 956.84H4727.06V1984.15H3080.85V956.84ZM3072.44 2001H4735.47C4740.14 2001 4743.91 1997.24 4743.91 1992.57V948.4C4743.91 943.733 4740.14 939.961 4735.47 939.961H3072.44C3067.77 939.961 3064 943.733 3064 948.4V1992.57C3064 1997.24 3067.77 2001 3072.44 2001Z" fill="black"/>
<path d="M3072.52 2187.95H4735.55C4740.21 2187.95 4743.99 2184.17 4743.99 2179.51C4743.99 2174.86 4740.21 2171.08 4735.55 2171.08H3072.52C3067.85 2171.08 3064.08 2174.86 3064.08 2179.51C3064.08 2184.17 3067.85 2187.95 3072.52 2187.95Z" fill="black"/>
<path d="M3072.52 2383.52H4735.55C4740.21 2383.52 4743.99 2379.75 4743.99 2375.09C4743.99 2370.43 4740.21 2366.67 4735.55 2366.67H3072.52C3067.85 2366.67 3064.08 2370.43 3064.08 2375.09C3064.08 2379.75 3067.85 2383.52 3072.52 2383.52Z" fill="black"/>
<path d="M4735.55 2562.24H4684.97C4680.31 2562.24 4676.54 2566.02 4676.54 2570.67C4676.54 2575.33 4680.31 2579.11 4684.97 2579.11H4735.55C4740.21 2579.11 4743.99 2575.33 4743.99 2570.67C4743.99 2566.02 4740.21 2562.24 4735.55 2562.24Z" fill="black"/>
<path d="M3956.11 2562.24H3852C3847.32 2562.24 3843.54 2566.01 3843.54 2570.67C3843.54 2575.33 3847.32 2579.1 3852 2579.1H3956.11C3960.76 2579.1 3964.54 2575.33 3964.54 2570.67C3964.54 2566.01 3960.76 2562.24 3956.11 2562.24Z" fill="black"/>
<path d="M3331.34 2562.24H3227.24C3222.57 2562.24 3218.79 2566.01 3218.79 2570.67C3218.79 2575.33 3222.57 2579.11 3227.24 2579.11H3331.34C3335.99 2579.11 3339.77 2575.33 3339.77 2570.67C3339.77 2566.01 3335.99 2562.24 3331.34 2562.24Z" fill="black"/>
<path d="M3747.85 2562.24H3643.7C3639.04 2562.24 3635.28 2566.02 3635.28 2570.67C3635.28 2575.34 3639.04 2579.11 3643.7 2579.11H3747.85C3752.49 2579.11 3756.27 2575.34 3756.27 2570.67C3756.27 2566.02 3752.49 2562.24 3747.85 2562.24Z" fill="black"/>
<path d="M4164.34 2562.24H4060.23C4055.56 2562.24 4051.77 2566.02 4051.77 2570.67C4051.77 2575.34 4055.56 2579.11 4060.23 2579.11H4164.34C4168.98 2579.11 4172.77 2575.34 4172.77 2570.67C4172.77 2566.02 4168.98 2562.24 4164.34 2562.24Z" fill="black"/>
<path d="M4372.59 2562.24H4268.47C4263.8 2562.24 4260.03 2566.01 4260.03 2570.67C4260.03 2575.34 4263.8 2579.11 4268.47 2579.11H4372.59C4377.26 2579.11 4381.04 2575.34 4381.04 2570.67C4381.04 2566.01 4377.26 2562.24 4372.59 2562.24Z" fill="black"/>
<path d="M3539.6 2562.24H3435.46C3430.78 2562.24 3427.04 2566.02 3427.04 2570.67C3427.04 2575.34 3430.78 2579.11 3435.46 2579.11H3539.6C3544.25 2579.11 3548.02 2575.34 3548.02 2570.67C3548.02 2566.02 3544.25 2562.24 3539.6 2562.24Z" fill="black"/>
<path d="M4580.85 2562.24H4476.72C4472.07 2562.24 4468.29 2566.01 4468.29 2570.67C4468.29 2575.33 4472.07 2579.11 4476.72 2579.11H4580.85C4585.5 2579.11 4589.29 2575.33 4589.29 2570.67C4589.29 2566.01 4585.5 2562.24 4580.85 2562.24Z" fill="black"/>
<path d="M3072.52 2579.11H3123.09C3127.75 2579.11 3131.53 2575.33 3131.53 2570.67C3131.53 2566.01 3127.75 2562.24 3123.09 2562.24H3072.52C3067.86 2562.24 3064.09 2566.01 3064.09 2570.67C3064.09 2575.33 3067.86 2579.11 3072.52 2579.11Z" fill="black"/>
<path d="M4735.55 2757.83H4684.97C4680.31 2757.83 4676.54 2761.6 4676.54 2766.26C4676.54 2770.92 4680.31 2774.68 4684.97 2774.68H4735.55C4740.21 2774.68 4743.99 2770.92 4743.99 2766.26C4743.99 2761.6 4740.21 2757.83 4735.55 2757.83Z" fill="black"/>
<path d="M3955.33 2757.83H3851.09C3846.44 2757.83 3842.66 2761.6 3842.66 2766.26C3842.66 2770.92 3846.44 2774.68 3851.09 2774.68H3955.33C3960 2774.68 3963.78 2770.92 3963.78 2766.26C3963.78 2761.6 3960 2757.83 3955.33 2757.83Z" fill="black"/>
<path d="M4580.72 2757.83H4476.5C4471.85 2757.83 4468.07 2761.6 4468.07 2766.26C4468.07 2770.92 4471.85 2774.68 4476.5 2774.68H4580.72C4585.37 2774.68 4589.16 2770.92 4589.16 2766.26C4589.16 2761.6 4585.37 2757.83 4580.72 2757.83Z" fill="black"/>
<path d="M4163.8 2757.83H4059.58C4054.91 2757.83 4051.15 2761.6 4051.15 2766.26C4051.15 2770.92 4054.91 2774.68 4059.58 2774.68H4163.8C4168.46 2774.68 4172.25 2770.92 4172.25 2766.26C4172.25 2761.6 4168.46 2757.83 4163.8 2757.83Z" fill="black"/>
<path d="M4372.3 2757.83H4268.03C4263.39 2757.83 4259.62 2761.6 4259.62 2766.25C4259.62 2770.92 4263.39 2774.68 4268.03 2774.68H4372.3C4376.94 2774.68 4380.71 2770.92 4380.71 2766.25C4380.71 2761.6 4376.94 2757.83 4372.3 2757.83Z" fill="black"/>
<path d="M3746.9 2757.83H3696.31C3691.65 2757.83 3687.87 2761.6 3687.87 2766.26C3687.87 2770.92 3691.65 2774.68 3696.31 2774.68H3746.9C3751.53 2774.68 3755.32 2770.92 3755.32 2766.26C3755.32 2761.6 3751.53 2757.83 3746.9 2757.83Z" fill="black"/>
<path d="M1970.73 1072.1H2889.8C2894.44 1072.1 2898.22 1068.34 2898.22 1063.68C2898.22 1059.03 2894.44 1055.25 2889.8 1055.25H1970.73C1966.06 1055.25 1962.31 1059.03 1962.31 1063.68C1962.31 1068.34 1966.06 1072.1 1970.73 1072.1Z" fill="black"/>
<path d="M1970.73 1267.7H2889.8C2894.44 1267.7 2898.22 1263.92 2898.22 1259.25C2898.22 1254.59 2894.44 1250.83 2889.8 1250.83H1970.73C1966.06 1250.83 1962.31 1254.59 1962.31 1259.25C1962.31 1263.92 1966.06 1267.7 1970.73 1267.7Z" fill="black"/>
<path d="M1970.72 1463.28H2545.05C2549.7 1463.28 2553.48 1459.52 2553.48 1454.85C2553.48 1450.2 2549.7 1446.42 2545.05 1446.42H1970.72C1966.07 1446.42 1962.29 1450.2 1962.29 1454.85C1962.29 1459.52 1966.07 1463.28 1970.72 1463.28Z" fill="black"/>
<path d="M1519.97 2356.67C1517.27 2356 1514.4 2355.83 1511.53 2355.83C1508.67 2355.83 1505.8 2356 1503.11 2356.67C1480.17 2360.39 1462.31 2379.27 1460.28 2402.71C1459.95 2404.21 1459.95 2405.73 1459.95 2407.43C1459.95 2433.05 1478.49 2454.47 1503.11 2458.35C1505.8 2459.01 1508.67 2459.19 1511.53 2459.19C1514.4 2459.19 1517.27 2459.01 1519.97 2458.35C1544.59 2454.47 1563.13 2433.05 1563.13 2407.43C1563.13 2405.73 1563.13 2404.21 1562.8 2402.71C1560.77 2379.27 1542.89 2360.39 1519.97 2356.67Z" fill="black"/>
<path d="M1402.28 2222.3H1177.19C1172.63 2222.3 1168.75 2226 1168.75 2230.72C1168.75 2235.27 1172.63 2239.15 1177.19 2239.15H1402.28C1407 2239.15 1410.71 2235.27 1410.71 2230.72C1410.71 2226 1407 2222.3 1402.28 2222.3Z" fill="black"/>
<path d="M1564.98 1680.55C1556.72 1680.55 1550.15 1687.13 1550.15 1695.22C1550.15 1703.32 1556.72 1709.89 1564.98 1709.89C1573.07 1709.89 1579.64 1703.32 1579.64 1695.22C1579.64 1687.13 1573.07 1680.55 1564.98 1680.55Z" fill="black"/>
<path d="M1454.04 1680.55C1445.94 1680.55 1439.37 1687.13 1439.37 1695.22C1439.37 1703.32 1445.94 1709.89 1454.04 1709.89C1462.12 1709.89 1468.71 1703.32 1468.71 1695.22C1468.71 1687.13 1462.12 1680.55 1454.04 1680.55Z" fill="black"/>
<path d="M1505.12 1736.02C1507.48 1736.02 1509.35 1734.17 1509.35 1731.81V1705.5C1509.35 1703.14 1507.48 1701.29 1505.12 1701.29C1502.76 1701.29 1500.91 1703.14 1500.91 1705.5V1731.81C1500.91 1734.17 1502.76 1736.02 1505.12 1736.02Z" fill="black"/>
<path d="M1518.45 1772.6C1511.2 1779.86 1499.23 1779.86 1491.81 1772.6C1490.12 1770.92 1487.42 1770.92 1485.73 1772.6C1484.06 1774.29 1484.23 1776.82 1485.73 1778.51C1491.13 1783.91 1498.22 1786.43 1505.14 1786.43C1512.21 1786.43 1519.11 1783.91 1524.51 1778.51C1526.03 1776.82 1526.03 1774.29 1524.51 1772.6C1522.84 1770.92 1520.14 1770.92 1518.45 1772.6Z" fill="black"/>
<path d="M1580.5 1660.15H1550.82C1548.62 1660.15 1546.61 1662.15 1546.61 1664.36C1546.61 1666.72 1548.62 1668.57 1550.82 1668.57H1580.5C1582.85 1668.57 1584.73 1666.72 1584.73 1664.36C1584.73 1662.15 1582.85 1660.15 1580.5 1660.15Z" fill="black"/>
<path d="M1885.18 2371.33C1880.46 2371.16 1876.42 2374.36 1875.92 2378.92L1859.23 2562.2C1858.89 2566.92 1862.27 2570.97 1866.81 2571.48H1867.65C1871.86 2571.48 1875.58 2568.27 1876.09 2563.88L1892.77 2380.44C1893.12 2375.88 1889.74 2371.67 1885.18 2371.33Z" fill="black"/>
<path d="M190.799 1268.74L228.564 1259.42C233.085 1258.31 235.851 1253.73 234.729 1249.21C233.617 1244.69 229.026 1241.95 224.529 1243.06L186.764 1252.38C182.246 1253.49 179.479 1258.07 180.599 1262.59C181.7 1267.05 186.213 1269.86 190.799 1268.74Z" fill="black"/>
<path d="M727.616 125.686C731.831 123.702 733.669 118.689 731.708 114.485C722.7 95.1115 718.206 73.5705 718.708 52.2123C718.815 47.5386 715.125 43.6741 710.475 43.5696C705.6 43.3608 701.945 47.1469 701.846 51.8206C701.295 75.7637 706.326 99.8894 716.41 121.587C718.397 125.843 723.444 127.619 727.616 125.686Z" fill="black"/>
<path d="M1433.83 138.465C1435.25 141.554 1438.3 143.371 1441.5 143.371C1442.67 143.371 1443.88 143.137 1445.02 142.592C1449.25 140.645 1451.1 135.661 1449.15 131.429C1440.5 112.581 1432.06 93.2656 1424.06 73.9503C1422.29 69.6407 1417.33 67.6155 1413.05 69.3809C1408.76 71.1723 1406.7 76.105 1408.49 80.3887C1416.55 99.9117 1425.09 119.435 1433.83 138.465Z" fill="black"/>
<path d="M1389.19 31.5941C1390.47 34.967 1393.67 37.0488 1397.08 37.0488C1398.07 37.0488 1399.07 36.8645 1400.06 36.4956C1404.42 34.8618 1406.62 30.0131 1404.98 25.6389L1399.42 10.6978C1397.82 6.34983 1393 4.10999 1388.6 5.69106C1384.23 7.29847 1381.99 12.147 1383.6 16.5212L1389.19 31.5941Z" fill="black"/>
<path d="M1006.11 601.651C1019.36 597.402 1039.2 591.827 1046.24 604.987C1053.15 617.987 1040.15 656.804 1091.64 648.373C1109.62 645.426 1108.98 651.618 1105.2 662.973C1100.79 676.293 1099.3 687.807 1110.83 699.071C1130.8 718.56 1156.04 708.507 1179.53 693.907C1183.49 691.463 1184.71 686.254 1182.26 682.301C1179.79 678.349 1174.6 677.138 1170.64 679.582C1155.08 689.247 1135.99 700.053 1122.6 687.008C1116.78 681.296 1118.6 676.11 1121.2 668.296C1130.9 639.166 1113.67 627.697 1087.84 631.901C1054.88 637.27 1073.14 619.632 1061.11 597.059C1049.48 575.263 1024.28 578.141 1000.99 585.567C996.548 587.006 994.108 591.735 995.508 596.168C996.92 600.6 1001.67 603.045 1006.11 601.651Z" fill="black"/>
<path d="M5563.92 1258.44C5567.7 1261.17 5572.96 1260.31 5575.67 1256.53C5578.42 1252.77 5577.56 1247.49 5573.78 1244.77L5513.14 1201C5509.36 1198.28 5504.09 1199.1 5501.39 1202.91C5498.64 1206.67 5499.5 1211.95 5503.28 1214.67L5563.92 1258.44Z" fill="black"/>
<path d="M5444.96 454.254C5448.78 456.981 5454.02 456.144 5456.74 452.363C5459.47 448.582 5458.63 443.311 5454.85 440.584L5394.21 396.81C5390.43 394.12 5385.19 394.92 5382.43 398.737C5379.7 402.518 5380.58 407.754 5384.32 410.48L5444.96 454.254Z" fill="black"/>
<path d="M4146.72 71.2461C4166.37 71.2461 4182.31 55.2741 4182.31 35.5944C4182.31 15.9147 4166.37 -0.000138242 4146.72 -0.000138242C4127.04 -0.000138242 4111.06 15.9147 4111.06 35.5944C4111.06 55.2741 4127.04 71.2461 4146.72 71.2461Z" fill="black"/>
<path d="M1337.24 1265.35C1356.92 1265.35 1372.85 1249.38 1372.85 1229.7C1372.85 1210.02 1356.92 1194.1 1337.24 1194.1C1317.56 1194.1 1301.58 1210.02 1301.58 1229.7C1301.58 1249.38 1317.56 1265.35 1337.24 1265.35Z" fill="black"/>
<path d="M205.53 2355.77C205.53 2336.09 189.606 2320.17 169.926 2320.17C150.246 2320.17 134.274 2336.09 134.274 2355.77C134.274 2375.45 150.246 2391.43 169.926 2391.43C189.606 2391.43 205.53 2375.45 205.53 2355.77Z" fill="black"/>
<path d="M482.761 574.523C502.44 574.523 518.365 558.547 518.365 538.868C518.365 519.189 502.44 503.26 482.761 503.26C463.08 503.26 447.108 519.189 447.108 538.868C447.108 558.547 463.08 574.523 482.761 574.523Z" fill="black"/>
<g clip-path="url(#clip0_8_940)">
<path d="M3904.5 1631.18C3993.28 1631.18 4065.25 1559.21 4065.25 1470.43C4065.25 1381.65 3993.28 1309.68 3904.5 1309.68C3815.72 1309.68 3743.75 1381.65 3743.75 1470.43C3743.75 1559.21 3815.72 1631.18 3904.5 1631.18Z" fill="white"/>
<path d="M3904.5 1309.75H4182.88C4154.67 1260.87 4114.09 1220.29 4065.22 1192.07C4016.35 1163.85 3960.91 1149 3904.48 1149C3848.05 1149 3792.61 1163.86 3743.74 1192.09C3694.88 1220.31 3654.3 1260.91 3626.1 1309.79L3765.29 1550.87L3765.41 1550.84C3751.25 1526.43 3743.78 1498.71 3743.75 1470.48C3743.72 1442.26 3751.13 1414.52 3765.23 1390.07C3779.34 1365.62 3799.64 1345.33 3824.09 1331.22C3848.54 1317.12 3876.27 1309.71 3904.5 1309.75Z" fill="url(#paint0_linear_8_940)"/>
<path d="M3904.5 1597.76C3974.78 1597.76 4031.76 1540.78 4031.76 1470.5C4031.76 1400.22 3974.78 1343.24 3904.5 1343.24C3834.22 1343.24 3777.24 1400.22 3777.24 1470.5C3777.24 1540.78 3834.22 1597.76 3904.5 1597.76Z" fill="#1A73E8"/>
<path d="M4043.7 1550.91L3904.51 1792C3960.94 1792.01 4016.38 1777.16 4065.25 1748.94C4114.13 1720.73 4154.71 1680.14 4182.92 1631.27C4211.14 1582.4 4225.98 1526.96 4225.97 1470.52C4225.96 1414.09 4211.1 1358.66 4182.87 1309.79H3904.49L3904.45 1309.92C3932.68 1309.86 3960.42 1317.25 3984.88 1331.33C4009.34 1345.42 4029.65 1365.7 4043.77 1390.14C4057.89 1414.58 4065.32 1442.31 4065.31 1470.54C4065.3 1498.76 4057.84 1526.49 4043.7 1550.91Z" fill="url(#paint1_linear_8_940)"/>
<path d="M3765.3 1550.92L3626.11 1309.83C3597.88 1358.7 3583.02 1414.14 3583.02 1470.57C3583.02 1527 3597.88 1582.44 3626.1 1631.31C3654.32 1680.18 3694.9 1720.76 3743.78 1748.97C3792.66 1777.17 3848.1 1792.02 3904.53 1792L4043.72 1550.91L4043.63 1550.82C4029.57 1575.29 4009.3 1595.62 3984.87 1609.76C3960.44 1623.9 3932.72 1631.35 3904.49 1631.36C3876.27 1631.37 3848.54 1623.94 3824.1 1609.82C3799.66 1595.69 3779.38 1575.38 3765.3 1550.92Z" fill="url(#paint2_linear_8_940)"/>
</g>
<rect x="1983" y="1600" width="915" height="401" rx="41" fill="black"/>
<path d="M2157.73 1744.71V1857H2134.46V1744.71H2157.73ZM2270.33 1744.71V1857H2250.17L2200.84 1785.65H2199.91V1857H2176.65V1744.71H2197.12L2246.13 1816.05H2247.22V1744.71H2270.33ZM2350.21 1776.81C2349.28 1767.97 2342.14 1762.7 2330.82 1762.7C2319.03 1762.7 2312.52 1768.13 2312.36 1775.57C2312.21 1783.64 2320.74 1787.36 2330.35 1789.53L2340.44 1792.01C2359.67 1796.36 2374.09 1806.13 2374.09 1824.89C2374.09 1845.52 2357.96 1858.55 2330.66 1858.55C2303.52 1858.55 2286.15 1845.99 2285.53 1821.95H2308.17C2308.95 1833.27 2317.95 1839.01 2330.35 1839.01C2342.61 1839.01 2350.52 1833.27 2350.52 1824.89C2350.52 1817.29 2343.54 1813.73 2331.28 1810.62L2319.03 1807.68C2300.11 1803.02 2288.48 1793.56 2288.48 1777.12C2288.48 1756.65 2306.47 1743.16 2330.97 1743.16C2355.79 1743.16 2372.23 1756.96 2372.54 1776.81H2350.21ZM2384.95 1763.94V1744.71H2476.92V1763.94H2442.49V1857H2419.38V1763.94H2384.95ZM2496.31 1857H2471.19L2510.12 1744.71H2540.05L2578.83 1857H2553.85L2545.48 1831.1H2504.84L2496.31 1857ZM2510.74 1812.95H2539.59L2525.47 1769.99H2524.7L2510.74 1812.95ZM2591.54 1857V1744.71H2614.81V1837.77H2663.2V1857H2591.54ZM2678.25 1857V1744.71H2701.51V1837.77H2749.9V1857H2678.25Z" fill="white"/>
<defs>
<linearGradient id="paint0_linear_8_940" x1="3626.1" y1="1349.94" x2="4182.88" y2="1349.94" gradientUnits="userSpaceOnUse">
<stop stop-color="#D93025"/>
<stop offset="1" stop-color="#EA4335"/>
</linearGradient>
<linearGradient id="paint1_linear_8_940" x1="3860.59" y1="1787.7" x2="4138.98" y2="1305.51" gradientUnits="userSpaceOnUse">
<stop stop-color="#FCC934"/>
<stop offset="1" stop-color="#FBBC04"/>
</linearGradient>
<linearGradient id="paint2_linear_8_940" x1="3939.3" y1="1771.93" x2="3660.91" y2="1289.74" gradientUnits="userSpaceOnUse">
<stop stop-color="#1E8E3E"/>
<stop offset="1" stop-color="#34A853"/>
</linearGradient>
<clipPath id="clip0_8_940">
<rect width="643" height="643" fill="white" transform="translate(3583 1149)"/>
</clipPath>
</defs>
</svg>
