<svg width="522" height="93" viewBox="0 0 522 93" fill="none" xmlns="http://www.w3.org/2000/svg">
<rect x="0.5" y="0.5" width="521" height="92" fill="#212529" stroke="#F1F1F1"/>
<path d="M36.3164 53.6562C36.3164 49.4023 39.7617 47.9961 43.4179 47.7852C44.789 47.6973 47.3554 47.5742 48.164 47.5391V45.9922C48.1289 44.4102 47.039 43.4609 45.1054 43.4609C43.3476 43.4609 42.2226 44.2695 41.9414 45.5703H36.9843C37.3008 42.2656 40.1836 39.6641 45.2461 39.6641C49.3945 39.6641 53.332 41.5273 53.332 46.1328V59H48.4101V56.3633H48.2695C47.3203 58.1211 45.5273 59.3516 42.6797 59.3516C39.0234 59.3516 36.3164 57.4531 36.3164 53.6562ZM41.3086 53.5156C41.3086 54.9922 42.5039 55.7656 44.1562 55.7656C46.5117 55.7656 48.1992 54.1836 48.164 52.1797V50.7734C47.373 50.8086 45.1582 50.9316 44.2617 51.0195C42.4687 51.1953 41.3086 52.0391 41.3086 53.5156ZM67.4648 39.9102V43.8125H63.6679V59H58.4648V43.8125H55.7578V39.9102H58.4648V38.4687C58.4648 34.4609 60.8906 32.3516 64.7226 32.3516C65.9179 32.3516 66.9023 32.457 67.8164 32.668V36.6055C67.0781 36.5352 66.5156 36.5 66.2343 36.5C64.5468 36.5 63.6679 37.168 63.6679 38.75V39.9102H67.4648ZM70.5234 59V39.9102H75.5508V43.2148H75.7617C76.4648 40.8594 78.2226 39.6289 80.3672 39.6289C80.8945 39.6289 81.5625 39.6992 82.0195 39.8047V44.4453C81.5273 44.3047 80.5429 44.1641 79.8047 44.1641C77.4492 44.1641 75.7265 45.8164 75.7265 48.1367V59H70.5234ZM84.5508 59V39.9102H89.7539V59H84.5508ZM87.1523 37.4141C85.5703 37.4141 84.3047 36.2187 84.3047 34.7773C84.3047 33.3008 85.5703 32.1055 87.1523 32.1055C88.6992 32.1055 89.9648 33.3008 89.9648 34.7773C89.9648 36.2187 88.6992 37.4141 87.1523 37.4141ZM102.375 59.3867C96.539 59.3867 93.0234 55.3437 93.0234 49.5078C93.0234 43.6719 96.5742 39.6641 102.375 39.6641C107.297 39.6641 110.637 42.5469 110.848 46.9062H105.961C105.645 45.0078 104.414 43.707 102.445 43.707C99.9492 43.707 98.2969 45.8164 98.2969 49.4375C98.2969 53.1289 99.914 55.2383 102.445 55.2383C104.273 55.2383 105.645 54.1133 105.961 52.0742H110.848C110.602 56.3984 107.437 59.3867 102.375 59.3867ZM113.168 53.6562C113.168 49.4023 116.613 47.9961 120.27 47.7852C121.641 47.6973 124.207 47.5742 125.016 47.5391V45.9922C124.98 44.4102 123.891 43.4609 121.957 43.4609C120.199 43.4609 119.074 44.2695 118.793 45.5703H113.836C114.152 42.2656 117.035 39.6641 122.098 39.6641C126.246 39.6641 130.184 41.5273 130.184 46.1328V59H125.262V56.3633H125.121C124.172 58.1211 122.379 59.3516 119.531 59.3516C115.875 59.3516 113.168 57.4531 113.168 53.6562ZM118.16 53.5156C118.16 54.9922 119.355 55.7656 121.008 55.7656C123.363 55.7656 125.051 54.1836 125.016 52.1797V50.7734C124.225 50.8086 122.01 50.9316 121.113 51.0195C119.32 51.1953 118.16 52.0391 118.16 53.5156ZM139.359 33.5469V59H134.156V33.5469H139.359ZM143.402 59V39.9102H148.605V59H143.402ZM146.004 37.4141C144.422 37.4141 143.156 36.2187 143.156 34.7773C143.156 33.3008 144.422 32.1055 146.004 32.1055C147.551 32.1055 148.816 33.3008 148.816 34.7773C148.816 36.2187 147.551 37.4141 146.004 37.4141ZM152.754 59V33.5469H157.957V43.1094H158.098C158.836 41.5625 160.348 39.6641 163.547 39.6641C167.766 39.6641 171.316 42.9336 171.316 49.4727C171.316 55.8359 167.906 59.3164 163.547 59.3164C160.418 59.3164 158.836 57.5234 158.098 55.9414H157.887V59H152.754ZM157.852 49.4375C157.852 52.8828 159.328 55.168 161.895 55.168C164.566 55.168 165.973 52.8125 165.973 49.4375C165.973 46.0977 164.566 43.8125 161.895 43.8125C159.293 43.8125 157.852 45.9922 157.852 49.4375ZM174.656 59V39.9102H179.684V43.2148H179.895C180.598 40.8594 182.355 39.6289 184.5 39.6289C185.027 39.6289 185.695 39.6992 186.152 39.8047V44.4453C185.66 44.3047 184.676 44.1641 183.937 44.1641C181.582 44.1641 179.859 45.8164 179.859 48.1367V59H174.656ZM187.242 53.6562C187.242 49.4023 190.687 47.9961 194.344 47.7852C195.715 47.6973 198.281 47.5742 199.09 47.5391V45.9922C199.055 44.4102 197.965 43.4609 196.031 43.4609C194.273 43.4609 193.148 44.2695 192.867 45.5703H187.91C188.227 42.2656 191.109 39.6641 196.172 39.6641C200.32 39.6641 204.258 41.5273 204.258 46.1328V59H199.336V56.3633H199.195C198.246 58.1211 196.453 59.3516 193.605 59.3516C189.949 59.3516 187.242 57.4531 187.242 53.6562ZM192.234 53.5156C192.234 54.9922 193.43 55.7656 195.082 55.7656C197.437 55.7656 199.125 54.1836 199.09 52.1797V50.7734C198.299 50.8086 196.084 50.9316 195.187 51.0195C193.395 51.1953 192.234 52.0391 192.234 53.5156ZM208.23 59V39.9102H213.258V43.2148H213.469C214.172 40.8594 215.93 39.6289 218.074 39.6289C218.602 39.6289 219.27 39.6992 219.727 39.8047V44.4453C219.234 44.3047 218.25 44.1641 217.512 44.1641C215.156 44.1641 213.434 45.8164 213.434 48.1367V59H208.23ZM225.914 66.1719C224.895 66.1719 223.945 66.1367 223.277 66.0664V62.0234C223.945 62.0586 224.719 62.0938 225.387 62.0938C226.406 62.0938 227.25 61.9883 227.883 60.3359L228.199 59.5273L221.344 39.9102H226.793L230.801 53.9727H231.012L235.055 39.9102H240.574L233.121 61.1094C232.031 64.168 229.957 66.1719 225.914 66.1719ZM243.07 59L243.035 55.168L252.176 46.7656C254.566 44.4805 255.832 43.0742 255.832 41.0703C255.832 38.8203 254.109 37.4141 251.789 37.4141C249.398 37.4141 247.852 38.9258 247.852 41.3516H242.824C242.789 36.3594 246.48 33.1953 251.859 33.1953C257.309 33.1953 260.93 36.2891 260.93 40.7187C260.93 43.6016 259.523 45.9922 254.285 50.7383L250.418 54.5V54.6406H261.281V59H243.07ZM276.012 33.5469V59H270.703V38.5742H270.563L264.727 42.2305V37.5547L271.02 33.5469H276.012ZM294.293 55.3789C291.164 55.3789 288.668 52.918 288.668 48.2422C288.668 43.4609 291.305 41.1406 294.293 41.1406C296.438 41.1406 297.598 42.4062 298.09 43.4961H298.23V41.5273H302.027V50.4219C302.063 51.5469 302.484 52.0742 303.363 52.0742C304.98 52.0742 305.965 50.2461 306 47.3633C306 41.5273 301.922 37.6602 295.664 37.6602C289.371 37.6602 285.328 42.0898 285.328 48.2422C285.328 54.8867 288.844 58.8945 295.594 58.8594C298.125 58.8594 300.129 58.6133 302.027 58.1211V61.7773C300.129 62.3398 297.949 62.6563 295.594 62.6563C286.664 62.6563 281.566 56.9609 281.566 48.2422C281.566 39.9102 287.367 33.8633 295.664 33.8633C303.961 33.8633 309.727 39.4883 309.727 47.2578C309.727 52.5312 307.09 55.5547 302.977 55.5547C300.586 55.5195 298.758 54.4473 298.336 52.918H298.195C297.703 54.0078 296.473 55.3789 294.293 55.3789ZM295.664 51.793C297.387 51.8281 298.336 50.4219 298.336 48.2422C298.336 46.0625 297.387 44.6914 295.664 44.6914C293.977 44.6914 293.027 46.1328 293.063 48.2422C293.027 50.3516 294.012 51.793 295.664 51.793ZM321.996 66.5586C316.723 66.5586 313.488 64.2031 313.172 60.582H318.305C318.586 62.0938 320.027 62.7969 322.102 62.7969C324.527 62.7969 326.145 61.7773 326.145 59.1055V55.625H325.898C325.195 57.1719 323.508 58.7187 320.449 58.7187C316.125 58.7187 312.68 55.6953 312.68 49.332C312.68 42.8633 316.23 39.6641 320.449 39.6641C323.648 39.6641 325.195 41.5625 325.898 43.1094H326.109V39.9102H331.277V59.2109C331.277 64.0625 327.41 66.5586 321.996 66.5586ZM322.066 54.8164C324.668 54.8164 326.145 52.7773 326.145 49.4023C326.145 45.9922 324.668 43.8125 322.066 43.8125C319.43 43.8125 318.023 46.0977 318.023 49.4023C318.023 52.707 319.43 54.8164 322.066 54.8164ZM335.32 59V39.9102H340.277V43.25H340.488C341.297 41.0352 343.23 39.6641 345.797 39.6641C348.434 39.6641 350.367 41.0352 351 43.25H351.176C351.984 41.0703 354.129 39.6641 356.941 39.6641C360.492 39.6641 362.953 42.0195 362.953 46.168V59H357.75V47.1875C357.75 45.0078 356.484 43.9531 354.762 43.9531C352.793 43.9531 351.668 45.3242 351.668 47.3281V59H346.605V47.0469C346.605 45.1484 345.41 43.9531 343.652 43.9531C341.895 43.9531 340.523 45.3594 340.523 47.5391V59H335.32ZM366.047 53.6562C366.047 49.4023 369.492 47.9961 373.148 47.7852C374.52 47.6973 377.086 47.5742 377.895 47.5391V45.9922C377.859 44.4102 376.77 43.4609 374.836 43.4609C373.078 43.4609 371.953 44.2695 371.672 45.5703H366.715C367.031 42.2656 369.914 39.6641 374.977 39.6641C379.125 39.6641 383.063 41.5273 383.063 46.1328V59H378.141V56.3633H378C377.051 58.1211 375.258 59.3516 372.41 59.3516C368.754 59.3516 366.047 57.4531 366.047 53.6562ZM371.039 53.5156C371.039 54.9922 372.234 55.7656 373.887 55.7656C376.242 55.7656 377.93 54.1836 377.895 52.1797V50.7734C377.104 50.8086 374.889 50.9316 373.992 51.0195C372.199 51.1953 371.039 52.0391 371.039 53.5156ZM387.035 59V39.9102H392.238V59H387.035ZM389.637 37.4141C388.055 37.4141 386.789 36.2187 386.789 34.7773C386.789 33.3008 388.055 32.1055 389.637 32.1055C391.184 32.1055 392.449 33.3008 392.449 34.7773C392.449 36.2187 391.184 37.4141 389.637 37.4141ZM401.484 33.5469V59H396.281V33.5469H401.484ZM408.586 59.3164C406.934 59.3164 405.598 57.9805 405.633 56.3633C405.598 54.7461 406.934 53.4453 408.586 53.4453C410.133 53.4453 411.504 54.7461 411.504 56.3633C411.504 57.9805 410.133 59.3164 408.586 59.3164ZM424.266 59.3867C418.43 59.3867 414.914 55.3437 414.914 49.5078C414.914 43.6719 418.465 39.6641 424.266 39.6641C429.188 39.6641 432.527 42.5469 432.738 46.9062H427.852C427.535 45.0078 426.305 43.707 424.336 43.707C421.84 43.707 420.188 45.8164 420.188 49.4375C420.188 53.1289 421.805 55.2383 424.336 55.2383C426.164 55.2383 427.535 54.1133 427.852 52.0742H432.738C432.492 56.3984 429.328 59.3867 424.266 59.3867ZM444.551 59.3867C438.785 59.3867 435.199 55.4141 435.199 49.5078C435.199 43.6016 438.785 39.6641 444.551 39.6641C450.316 39.6641 453.938 43.6016 453.938 49.5078C453.938 55.4141 450.316 59.3867 444.551 59.3867ZM444.586 55.3437C447.258 55.3437 448.629 52.8477 448.629 49.5078C448.629 46.1328 447.258 43.6367 444.586 43.6367C441.879 43.6367 440.473 46.1328 440.473 49.5078C440.473 52.8477 441.879 55.3437 444.586 55.3437ZM457.207 59V39.9102H462.164V43.25H462.375C463.184 41.0352 465.117 39.6641 467.684 39.6641C470.32 39.6641 472.254 41.0352 472.887 43.25H473.063C473.871 41.0703 476.016 39.6641 478.828 39.6641C482.379 39.6641 484.84 42.0195 484.84 46.168V59H479.637V47.1875C479.637 45.0078 478.371 43.9531 476.648 43.9531C474.68 43.9531 473.555 45.3242 473.555 47.3281V59H468.492V47.0469C468.492 45.1484 467.297 43.9531 465.539 43.9531C463.781 43.9531 462.41 45.3594 462.41 47.5391V59H457.207Z" fill="white"/>
</svg>
