<svg width="5734" height="4868" viewBox="0 0 5734 4868" fill="none" xmlns="http://www.w3.org/2000/svg">
<g clip-path="url(#clip0_7_252)">
<path d="M1125.73 937.121C1137.73 972.064 1177.19 995.627 1203.25 992.811L1215.58 990.943C1239.98 985.138 1249 963.96 1243.28 940.138C1219.64 851.315 1209.35 815.309 1183.37 701.342C1196.4 699.244 1209.25 696.198 1222.09 693.181C1308.64 672.836 1302.5 668.956 1328.78 657.634C1330.86 666.514 1382.97 890.166 1379.65 875.942C1385.8 901.574 1422.67 933.787 1457.44 932.609L1468.9 930.942C1496.47 924.362 1503.4 901.258 1496.85 873.902C1360.17 284.785 1368.57 291.049 1341.37 242.198C1328.96 218.404 1300.49 183.979 1276.44 189.668C1259.85 193.72 1250.94 214.755 1247.96 230.387C1241.5 268.721 1241.06 269.009 1308.82 569.76C1264.63 552.374 1172.73 580.018 1157.07 583.093C1118.9 408.378 1120.61 407.344 1110.71 365.763L1102.38 330.676C1093.18 291.71 1052.29 240.704 1016.26 249.267C989.801 255.417 979.912 287.285 984.056 313.463C1010.12 444.672 1083.55 810.309 1125.73 937.121Z" fill="#040606"/>
<path d="M1527.49 845.566C1535.36 879.238 1576.02 907.753 1601.9 906.551C1671.79 901.95 1740 887.795 1789.49 879.385C1801.74 877.216 1813.28 867.047 1817.71 854.065C1830.13 807.645 1777.4 757.591 1730.89 765.826C1697.87 771.687 1665.68 777.431 1630.11 782.706C1615.27 713.223 1601.37 644.56 1587.31 574.93L1603.72 573.025C1633.24 571.472 1623.25 570.769 1672.21 562.915C1693.31 559.164 1762.59 534.723 1755.64 495.307L1752.25 485.783C1746.09 474.647 1734.8 467.555 1724.65 462.192C1655.93 430.366 1599.48 454.397 1565.69 457.855C1550.81 373.514 1539.77 308.133 1528.63 234.899C1543.15 231.675 1571.15 230.122 1655.2 203.337L1650.33 204.157C1670.22 198.589 1697.91 189.651 1692.88 161.108C1680.53 91.1556 1564.05 104.695 1494.25 117.032C1437.25 132.183 1398.18 121.633 1404.83 183.673C1426.69 330.2 1486.51 667.711 1527.49 845.566Z" fill="#040606"/>
<path d="M1771 148.726C1895.67 360.223 1965.56 453.082 1971.45 462.041C1976.73 517.4 1982.44 564.215 2006 767.346C2009.17 794.907 2043.25 829.084 2075.63 831.813L2087.27 831.457C2097.07 830.33 2106.61 827.215 2112.27 818.493C2131.95 795.263 2119.07 780.726 2101.24 602.1C2096.03 557.392 2091 513.633 2085 468.983C2083.73 461.715 2090.15 469.992 2113.91 411.192C2161.87 284.78 2130.05 375.769 2218.35 132.053C2224.59 112.71 2222.75 99.9827 2215.05 82.0637C2200.6 51.0912 2167.17 32.1933 2144.04 34.8633L2139.17 35.4271C2125.62 40.0255 2112.96 45.5436 2106.53 61.3859C2102.87 70.3158 2087.61 119.237 2005.48 334.116C1856.71 109.476 1867.1 84.0813 1818.84 68.595C1779.83 57.7368 1757.65 78.1773 1756.68 104.017L1756.85 113.096C1758.41 125.971 1763.89 137.452 1771 148.726Z" fill="#040606"/>
<path d="M2614.39 113.219L2644.07 112.383L2645.72 113.339L2663.87 114.832L2663.08 114.862C2675.94 117.639 2690.11 114.503 2690.87 136.096C2692.22 187.583 2645.82 230.768 2608.74 262.455C2607.39 215.686 2614.04 168.858 2603.79 115.519L2614.39 113.219ZM2708.48 406.733L2713.52 409.6L2721.08 415.364C2722.72 416.32 2723.59 418.32 2724.46 419.276L2727.07 422.233C2731.28 431.133 2736.22 431.73 2742.95 459.773C2761.31 555.431 2717.71 674.772 2622.2 677.281C2611.92 505.586 2611.58 437.494 2610.13 398.49C2618.55 402.253 2628.44 404.941 2635.91 404.762L2639.22 404.672C2674.27 398.311 2684.99 400.581 2702.67 404.911C2704.32 405.867 2705.98 406.822 2708.48 406.733ZM2510.56 690.421C2514.47 740.356 2529.14 791.962 2577.92 798.592C2586.83 798.354 2602.14 802.057 2612.3 792.619C2873.63 845.272 2950.06 432.984 2750.24 312.479C2891.11 153.806 2741.32 -69.3462 2559.87 20.7268C2495.8 52.8915 2496.56 102.557 2495.02 173.606C2493.64 360.771 2494.64 471.779 2510.56 690.421Z" fill="#040606"/>
<path d="M2998.44 753.376C3059.96 805.136 3129.37 819.691 3200.45 777.336C3343.14 683.846 3308.82 329.441 3312.6 165.975C3312.69 145.616 3319.56 99.0945 3305.84 71.741C3293.25 48.4354 3269.02 26.8564 3245.15 26.2314L3234.47 27.9873C3172.8 43.5243 3213.1 140.854 3197.32 433.17C3192.62 503.027 3182.44 595.505 3140.98 650.867C3126.9 667.089 3109.55 679.947 3076.84 679.292L3056.42 669.767C3053.89 667.535 3046.62 662.088 3045.23 658.487C3044.45 657.445 3043.59 656.463 3042.78 656.403C3040.7 644.914 3014.36 641.938 3015.7 448.707C3017.96 357.301 3017.07 373.106 3026.56 138.89C3027.69 93.3203 3010.31 17.4806 2967.01 16.3495L2956.25 18.0758C2918.82 30.1899 2915.7 91.1475 2913.97 129.067C2907.32 397.304 2861.99 631.937 2998.44 753.376Z" fill="#040606"/>
<path d="M3503.17 128.137L3513.66 131.924C3532.96 143.94 3548.31 147.012 3564.98 175.816C3634.93 303.854 3583.65 591.687 3452.21 675.416C3462.05 434.666 3482.62 294.76 3503.17 128.137ZM3438.49 808.882C3695.05 827.459 3828.54 180.766 3560.99 36.9832C3518.52 16.1404 3461.69 7.61235 3423.91 35.0747C3390.04 58.6906 3387.89 133.832 3381.63 175.488C3355.39 348.313 3338.96 582.384 3338.21 720.292C3337.23 773.368 3390.6 805.304 3438.49 808.882Z" fill="#040606"/>
<path d="M3904.05 163.887L3914.3 168.091L3925.93 175.464C4037.41 229.439 3996.43 612.063 3830 708.408C3840.51 582.929 3898.31 204.45 3904.05 163.887ZM3810.64 841.2C4066.72 870.511 4225.62 229.025 3965.52 75.2406C3923.77 52.4424 3867.63 41.8429 3828.88 67.661C3794 89.8374 3788.76 164.805 3780.7 206.197C3747.19 377.834 3720.99 609.695 3714.38 748.586C3711.19 801.466 3763.06 835.722 3810.64 841.2Z" fill="#040606"/>
<path d="M4236.65 507.118C4228.63 553.753 4223.89 585.656 4189.67 810.57C4185.43 838.063 4209.4 879.964 4239.86 891.02L4251.03 893.754C4260.85 895.224 4270.91 894.695 4278.64 887.785C4290.73 879.493 4295.76 868.143 4298.2 852.324C4329.57 646.259 4336.45 602.593 4344.36 543.667C4345.01 536.375 4348.92 546.225 4387.44 495.591C4443.95 418.111 4419.96 454.866 4561.66 253.888C4572.78 236.804 4574.48 224.131 4571.66 204.842C4566.1 171.674 4538.87 144.239 4515.64 140.682L4510.7 139.946C4496.47 140.829 4482.86 142.828 4472.42 156.413C4462.36 169.615 4516 96.9573 4303.23 392.764C4261.97 269.178 4227.72 138.123 4225.1 129.008C4219.6 108.543 4195.72 82.167 4167.2 77.6975C4149.35 75.0512 4130.18 85.1663 4123.8 105.543L4121.63 114.335C4119.68 127.185 4121.95 139.652 4125.77 152.414C4191.23 391.617 4233.74 498.237 4236.65 507.118Z" fill="#040606"/>
<path d="M4574.44 792.904L4562.46 789.696C4552.73 787.907 4542.68 788.135 4534.76 794.806C4522.43 802.755 4516.79 814.963 4513.92 830.719C4513.69 840.826 4497.85 874.325 4522.61 915.746C4531.46 931.587 4546.31 946.52 4563.23 949.643L4568.97 950.693C4592.73 954.923 4610.61 936.3 4615.92 913.446L4622.79 876.029C4627.5 850.081 4606.58 805.793 4574.44 792.904Z" fill="#040606"/>
<path d="M4560.94 751.808C4566.24 761.201 4584.41 771.321 4594.73 773.211L4597.93 773.821C4601.22 774.432 4604.62 774.054 4607.24 773.473C4614.86 772.833 4621.11 770.914 4627.19 764.923C4628.06 765.069 4628.23 764.051 4628.23 764.051L4631.38 760.59C4650.34 731.045 4648.91 711.445 4735.02 245.179C4740.02 217.669 4716.64 171.868 4686.57 162.069L4673.19 157.59C4652.78 153.926 4632.13 167.041 4626.32 198.913C4602.88 326.922 4579.35 454.932 4556.79 583.087C4546.67 638.106 4522.47 717.087 4560.94 751.808Z" fill="#040606"/>
<path d="M61.1595 3004.01C78.5213 2902.01 106.996 2799.4 137.207 2694.27C153.007 2637.32 162.035 2578.46 170.803 2521.51C188.076 2408.18 190.095 2420.53 217.42 2258.21C238.69 2132.02 260.653 2001.72 309.962 1891C333.614 1890.39 349.887 1891.41 373.529 1893.58C372.445 1938.16 368.559 1981.4 360.659 2021.69C358.316 2033.72 366.128 2045.44 378.196 2047.78C389.445 2050.24 401.78 2042.78 404.239 2030.29C412.378 1988.96 416.37 1944.77 417.718 1899.37C440.257 1903.02 462.642 1907.36 484.843 1912.54L470.563 2081.02C469.522 2093.26 478.639 2104.04 490.879 2105.02C491.484 2105.08 492.093 2105.12 492.701 2105.12C504.161 2105.12 513.883 2096.34 514.84 2084.75L528.533 1923.25C554.266 1929.92 537.551 1925.29 609.257 1944.42C605.525 1995.49 599.306 2046.89 589.932 2097.52C587.456 2111.28 597.97 2123.78 611.807 2123.78C622.31 2123.78 631.687 2116.32 633.685 2105.6C642.788 2056.12 648.831 2005.94 652.869 1956C668.008 1960.08 683.277 1963.98 698.468 1968.02C692.359 2014.81 684.708 2061.28 675.356 2105.98C672.559 2119.8 683.122 2132.72 697.142 2132.72C707.473 2132.72 716.762 2125.52 718.933 2115.01C728.071 2071.04 735.461 2025.38 741.613 1979.38C767.574 1986.01 775.847 1985.57 780.677 2009.21C777.546 2054.36 785.042 2038.94 763.814 2124.26C746.896 2193.72 743.593 2255.81 724.923 2393.54C674.522 2739.84 677.997 2705.96 661.55 2746.83C645.127 2757.12 656.64 2748.72 587.847 3115.56C582.627 3144.59 626.422 3152.57 631.599 3123.37L688.637 2805.12C828.031 2780.48 1196.98 2714.01 1333.3 2672.38C1333.66 2691.93 1331.35 2696.44 1348.32 2740.88C1382.61 2830.15 1418.96 2921.88 1496.33 2983.44C1503.18 2988.72 1510.08 2992.12 1518.73 2992.12C1555.69 2992.12 1544.15 2954.04 1616.87 2866.28C1644.68 2901.11 1674.35 2926.4 1727.16 2926.4C1734.74 2926.4 1741.97 2923.76 1749.43 2922.48C1750.25 2922.54 1751.08 2922.89 1751.92 2922.94C1790.72 3433.8 1811.63 4109.24 1827 4705.69C1827.35 4717.76 1837.24 4727.32 1849.23 4727.32C1849.4 4727.32 1849.58 4727.32 1849.83 4727.32C1862.07 4726.97 1871.8 4716.81 1871.44 4704.48C1856.07 4107 1835.06 3429.91 1796.08 2917.96C1819.08 2908.76 1840.92 2873.16 1852.86 2851.4C1948.26 2959.34 1946.95 2971.45 1965.29 2971.45C1978.69 2971.45 1988.87 2959.82 1987.35 2946.62C1981.4 2896.06 2019.03 2791.05 2040.83 2690.16C2111.07 2735.55 2095.11 2711.15 2200.9 2749.82L2208.71 2752.77C2208.74 2752.78 2208.76 2752.76 2208.8 2752.77C2242.14 2764.79 2481.84 2856.1 2514.96 2867.16L2500.83 3118.17C2500.14 3130.41 2509.52 3140.92 2521.84 3141.61C2522.28 3141.61 2522.63 3141.61 2523.06 3141.61C2534.78 3141.61 2544.59 3132.49 2545.28 3120.6L2559.63 2865.72C2566.53 2860.73 2572.08 2853.68 2575.4 2843.15C2593.06 2784.45 2601.08 2727.01 2609 2670.3C2646.52 2425.97 2635.54 2485.66 2632.7 2298.57C2671.84 2323.05 2697.24 2336.93 2742.63 2343.88C2736.1 2359.97 2740.72 2322.46 2746.68 2521.16C2747.2 2533.05 2757.02 2542.44 2768.91 2542.44C2769.26 2542.44 2769.52 2542.44 2769.87 2542.44C2782.11 2541.9 2791.66 2531.49 2791.14 2519.25C2790.74 2510.3 2783.16 2339.1 2783.64 2349.97C2798.99 2352.18 2814.34 2354.01 2829.75 2355.82C2822.08 2359.33 2815.96 2365.58 2815.96 2374.53V2559.18C2815.96 2571.42 2825.95 2581.41 2838.19 2581.41C2850.43 2581.41 2860.42 2571.42 2860.42 2559.18C2857.63 2372.34 2866.59 2371.02 2853.11 2358.5C2868.4 2360 2883.66 2360.71 2898.92 2361.36C2895.04 2377.96 2894.34 2338.75 2923 2523.85C2925.18 2536.86 2937.87 2544.37 2948.52 2542.09C2960.68 2540.09 2968.84 2528.62 2966.75 2516.56C2965.23 2507.56 2938.92 2352.37 2940.53 2361.87C2956.44 2361.5 2985.33 2359.57 2989.32 2359.1C3007.06 2411.92 3039.64 2629.65 3044.19 2669.09C3060.95 2791.49 3069.8 2916.16 3070.67 3044.9C3073.58 3435.57 3171.98 3548.22 2937.5 3635.48C2634.47 3749.07 2403.06 3656.13 2362.56 3655.29C2364.83 3487.43 2346.99 3319.4 2308.63 3155.58C2305.93 3143.69 2293.79 3136.14 2281.97 3139C2270 3141.79 2262.63 3153.76 2265.4 3165.65C2303.95 3330.42 2321.74 3499.45 2318.27 3668.29C2318.19 3671.89 2320.44 3674.56 2321.9 3677.61C2301.47 3715.97 2329.52 3782.56 2331.12 3804.24C2352.75 4034.8 2331.52 4273.2 2374.35 4506.99C2393.99 4611.37 2389.87 4653.43 2289.1 4682.25C1856 4812.73 1399.8 4771.68 954.974 4731.65C912.906 4726.6 899.67 4721.17 889.346 4675.67C844.792 4507.31 853.518 4313.87 849.15 4137.52C837.648 3727.17 857.447 3567.64 834.239 3534.2L1071.91 3417.76C1082.94 3412.37 1087.45 3399 1082.07 3387.99C1076.6 3377.04 1063.49 3372.44 1052.29 3377.82L810.782 3496.14C802.608 3500.14 799.713 3508.56 800.061 3517.12C748.011 3517.56 491.699 3644.59 267.51 3571.16C78.7816 3510.04 9.41914 3319.13 61.1595 3004.01ZM284.527 1207.82C283.746 1202.41 284.874 1201.95 288.345 1200.61C291.471 1199.35 296.68 1197.31 297.548 1197.17C300.152 1200.4 303.277 1203.43 306.49 1206.49C308.573 1208.49 311.786 1211.48 312.219 1212.61C312.219 1214.05 313.174 1219.54 313.435 1220.94C347.899 1397.34 373.423 1413.7 384.359 1420.69C392.259 1425.73 401.376 1427.5 412.399 1424.56C453.88 1409.2 442.557 1328.3 436.187 1284.61C435.069 1275.39 417.978 1169.41 409.969 1028.26C409.36 1017.32 412.139 1016.55 413.008 1016.27C417.26 1015.11 419.606 1014.58 422.99 1022.92L431.066 1044.48C480.26 1176.17 455.361 1128.96 485.234 1228.61C496.672 1266.56 505.357 1297.66 503.901 1329.7C503.102 1340.89 501.625 1353.85 516.141 1360.7C525.374 1365.21 537.854 1363.19 547.221 1349.89C548.87 1348.73 550.432 1347.29 551.734 1345.71C576.271 1315.28 566.686 1284.01 567.358 1264.17C567.358 1211.48 558.487 1162.63 557.551 1113.03C557.551 1066.18 541.554 984.013 552.342 971.878C559.746 970.577 558.888 970.753 558.941 970.753C585.36 970.753 593.137 1073.67 606.425 1144.86C611.346 1162.63 605.725 1188.9 611.979 1208.18C623.692 1303.5 609.939 1341.45 648.008 1349.86C659.207 1352.23 668.669 1350.49 675.7 1344.48C685.859 1335.79 685.078 1323.55 682.647 1321.65C703.259 1301.04 697.536 1135.44 703.308 1055.87C704.434 1039.27 709.038 1030.55 712.942 1027.98C716.154 1025.87 721.103 1027.1 724.75 1028.33C730.392 1030.2 732.214 1033.64 736.47 1049.93C738.461 1065.62 749.618 1063.08 740.895 1135.3C740.445 1146.38 735.433 1154.61 739.421 1238.78C750.761 1492.98 744.064 1507.56 756.783 1548.95C760.835 1561.94 775.126 1568.05 787.342 1562.58C802.358 1555.66 809.146 1545.12 818.942 1528.69C849.238 1481.89 889.346 1441.26 927.978 1403.46C940.479 1390.82 956.972 1394.38 963.31 1396.48C963.482 1396.51 963.743 1396.6 963.918 1396.65C985.125 1402.7 985.343 1417.91 973.468 1436.41C957.06 1462.66 938.133 1488.06 919.902 1512.62C901.355 1539.69 896.926 1537.14 830.226 1648.05L817.205 1670.97C797.887 1733.64 798.411 1797.33 798.454 1862.43C798.454 1873.96 799.759 1882.77 785.256 1946.25C620.502 1902.92 461.463 1850.36 346.076 1846.68C346.076 1844.84 345.556 1824.62 345.122 1815.73C344.3 1802.9 347.95 1786.05 345.99 1771.5C345.024 1754.19 337.135 1734.62 337.135 1721.76C335.383 1555.86 309.335 1385.66 284.527 1207.82ZM1586.53 2832.12C1558.92 2864.5 1535.4 2900.26 1515 2941.16C1488.6 2917.99 1464.64 2886.91 1443.72 2848.44C1414.56 2795.05 1381.71 2706.4 1378.19 2688.8C1375.48 2674.77 1377.01 2659.8 1380.51 2644.81C1381.45 2643.37 1382.93 2642.77 1383.74 2641.13C1386.87 2636.01 1387.91 2631.68 1387.82 2630.72C1390.68 2628.64 1394.59 2625.77 1394.24 2625.16C1408.21 2613.36 1421.68 2598.77 1437.48 2577.33C1464.18 2612.35 1545.83 2772.28 1549.76 2781.2L1586.53 2832.12ZM1369.93 2093.61C1327.76 2094.05 1286.15 2099.57 1265.24 2048.56C1215.89 1930.41 1275.56 1854.91 1319.91 1858C1344.48 1880.28 1367.16 1901.89 1374.45 1933.45C1382.23 1967.74 1409.31 1979.72 1443.72 1976.2C1485.92 1972.69 1487.65 1938.05 1488.52 1920.52C1495.99 1816.21 1494.43 1716.16 1483.83 1623.26C1481.38 1600.32 1483.79 1583.78 1489.84 1571.42C1490.73 1570.37 1491.29 1568.5 1492.25 1567.62C1492.75 1567.16 1493.75 1566.84 1494.32 1566.38C1544.81 1569.91 1521.99 1585.94 1663.09 1585.94C1763.99 1586.14 1862.23 1589.68 1958 1554.04C1978.99 1546.12 2009.8 1530.29 2028.05 1531.94C2041.22 1533.27 2038.37 1573.65 2066.78 1729.4C2074.68 1772.18 2079.19 1812.5 2089.77 1853.24C2094.14 1869.6 2114.02 1875.08 2126.24 1864.13C2132.97 1858.02 2137.48 1849.28 2142.18 1840.78C2172.15 1851.24 2190.96 1865.42 2201.86 1886.61C2224.04 1931.06 2202 1995.81 2158.44 2014.22C2098.63 2037.8 2104.88 2090.53 2107.23 2110.58C2118.43 2197.57 2114.08 2284.34 2094.29 2368.46C2077.54 2438.69 2024.67 2479.41 1949.67 2480.28C1928.27 2480.28 1905.84 2481.94 1884.21 2480.28C1867.59 2480.41 1859.02 2484.94 1852.79 2489.96C1849.12 2484.42 1843.86 2480.17 1836.72 2479.66C1779.23 2475.4 1723.6 2452.72 1663.79 2430.62C1652.25 2426.72 1639.48 2432.53 1635.32 2443.98C1631.15 2455.53 1637.15 2468.29 1648.69 2472.46C1711.8 2495.74 1770.76 2519.32 1833.43 2523.94C1833.95 2524.02 1834.55 2524.02 1835.07 2524.02C1835.29 2524.02 1835.41 2523.81 1835.64 2523.81C1834.43 2537.22 1843.57 2613.98 1843.96 2646.96C1840.34 2730.17 1828.9 2858.2 1748.28 2878.29C1680.46 2869.24 1623.8 2811.94 1588.17 2754.94C1572.47 2729.08 1558.49 2701.21 1544.95 2674.21C1483.44 2551.9 1466.89 2545.33 1461 2536.44C1454.92 2411.17 1444.85 2176 1445.64 2154C1446.59 2129.15 1446.07 2105.85 1429.15 2093.26C1413.08 2081.24 1391.99 2086.32 1369.93 2093.61ZM1901.31 2639.05C1910.2 2641.48 1967.11 2644.53 1995.59 2676.81L1996.72 2684.2C1954.51 2851.05 1949.31 2870.03 1945.67 2891.85L1872.56 2805.96C1875.83 2796.44 1879.25 2787.02 1881.7 2776.9C1889.24 2737.54 1890.32 2674.05 1888.9 2639.18C1891.76 2638.15 1898.04 2638.8 1901.31 2639.05ZM2528.69 2062.76C2496.91 2017.49 2471.24 1979.34 2439.89 1948.73C2415.47 1924.98 2420.95 1896.78 2439.2 1888.26C2514.08 1856.89 2575.59 2022.2 2630.02 1998.52C2649.2 1989.88 2649.55 1968.21 2649.98 1947.29C2656.18 1886.88 2654.83 1771.39 2695.72 1595.05L2697.89 1585.94C2703.19 1562.24 2705.8 1562.16 2713 1561.93C2719.43 1561.46 2726.72 1561.33 2729.42 1596.78C2734.4 1653.17 2724.38 1712.08 2720.12 1777.32C2714.91 1819.11 2714.74 1850.14 2730.8 1865.86C2738.18 1873.06 2747.99 1876.28 2758.92 1874.54C2796.59 1868.01 2796.04 1817.12 2801.03 1794.89C2817.03 1692.12 2828.86 1605.13 2854.94 1523.65C2856.51 1517.26 2858.24 1513.71 2857.2 1514.32C2860.59 1510.45 2863.71 1505.98 2866.92 1501.38C2869.96 1497.03 2875.08 1489.7 2877.26 1488.62C2890.27 1493.39 2893.4 1508.89 2888.54 1546.39C2881.42 1618.1 2867.44 1706.22 2859.46 1746.32C2857.26 1758.41 2841.17 1794.38 2855.98 1814.69C2866.92 1830.4 2880.73 1829.88 2885.84 1829.14C2906.86 1825.72 2913.8 1801.66 2918.4 1785.9C2984.46 1597.38 2977.47 1576.13 2993.32 1568.97C2999.92 1566.06 3002.6 1566.45 3002.6 1566.36C3014.03 1575.06 3008.16 1635.21 3008.43 1644.14C3006.28 1680.81 3000.87 1688.97 2987.15 1777.8C2983.95 1804.22 2980.74 1831.26 2974.91 1860.61C2958.86 1917.21 2958.16 1937.05 2971.79 1949.08C2996.67 1971.3 3030.12 1934.34 3036.55 1896.73C3043.92 1856.93 3065.98 1820.22 3082.74 1783.05C3099.42 1748.22 3132.11 1777.21 3131.08 1813.38C3121.92 1951.01 3086.4 2061.54 3073.19 2123.21C3056.95 2199.97 3049.95 2210.22 3028.91 2244.58C3015.91 2265.73 3002.66 2287.41 2995.19 2313.57C2912.32 2325.12 2827.75 2312.04 2744.26 2299.18C2683.92 2289.96 2649.16 2249.96 2625.3 2244.24C2624.83 2244.13 2624.78 2243.98 2624.28 2243.89C2611.14 2103.64 2607.59 2172.41 2528.69 2062.76ZM3345.95 3815.78C3353.8 3806.97 3361.02 3797.88 3368.76 3789.01C3368.76 3789.63 3371.24 3903.29 3372.6 3971.66C3359.2 3956.88 3345.02 3940.41 3329.28 3921.36C3304.46 3891.24 3293.78 3874.25 3345.95 3815.78ZM3306.27 2788.55C3398.51 2662.82 3405.71 2685.29 3414.79 2665.62C3415.4 2664.05 3418.45 2660.24 3420.52 2657.72C3456.75 2612.26 3493.63 2590.96 3581.65 2531.58C3607.15 2515.28 3618.97 2503.69 3674.02 2472.89C3667.26 2515.16 3665.01 2537.5 3670.99 2610.93C3671.94 2622.56 3681.65 2631.33 3693.11 2631.33C3693.71 2631.33 3694.31 2631.33 3694.94 2631.24C3707.18 2630.29 3716.29 2619.52 3715.24 2607.28C3708.94 2531 3710.77 2504 3730.08 2416.38C3748.27 2415.52 3768.46 2413.54 3787.59 2420.25C3783.02 2423.68 3779.75 2428.85 3778.87 2434.96C3767.47 2512.44 3761.84 2593.5 3781.05 2670.1C3759.03 2666.02 3737.33 2660.54 3718.72 2649.38C3708.2 2642.96 3694.59 2646.44 3688.26 2656.93C3681.89 2667.44 3685.31 2681.06 3695.79 2687.41C3727.94 2706.74 3764.1 2713.74 3798.85 2718.24C3805.99 2723.93 3813.62 2724.66 3820.37 2721.96C3821.15 2721.65 3821.32 2720.74 3822.03 2720.37C3999.9 2738.96 4164.9 2709.73 4314 2644.17C4398.32 2607.58 4476.51 2540.02 4522.94 2456.84C4528.85 2446.06 4525.05 2432.53 4514.35 2426.54C4503.42 2420.54 4490.05 2424.45 4484.07 2435.13C4469.19 2461.85 4450.9 2486.14 4429.66 2508.71C4418.26 2441.53 4401.34 2375.46 4376.23 2312.38C4371.72 2301.01 4358.53 2295.62 4347.31 2299.97C4335.95 2304.48 4330.4 2317.41 4334.9 2328.88C4362.44 2397.86 4381.26 2470.42 4391.39 2544.4C4350.06 2578.27 4336.52 2582.67 4327.51 2587.46C4319.91 2529.24 4310.03 2470.73 4297.05 2413.08C4295.64 2406.96 4291.84 2402.12 4286.88 2399.08C4303.8 2370.33 4300.46 2324.61 4299.41 2288.33C4368.66 2285.65 4437.89 2274.17 4467.92 2306.21C4497.4 2337.47 4490.01 2399.58 4525.33 2417.9C4525.96 2418.32 4526.35 2419.08 4527.02 2419.42C4527.33 2419.6 4527.69 2419.6 4527.97 2419.76C4528.18 2419.84 4528.28 2420.03 4528.49 2420.12C4528.67 2420.18 4528.85 2420.05 4528.99 2420.12C4558.53 2434.13 4591.81 2395.88 4618.19 2376.1C4815.72 2244.25 4764.93 2310.61 4959.51 2172.61C5078.26 2088.57 5096.17 2077.26 5118.99 2055.13C5130.39 2092.26 5152.06 2126.2 5182.62 2150.52C5186.7 2153.77 5191.56 2155.34 5196.45 2155.34C5217.41 2155.34 5226.62 2128.69 5210.23 2115.7C5181.95 2093.22 5162.75 2060.37 5156.42 2024.9C5162.5 2027.67 5168.48 2031.02 5174.46 2034.28C5214.91 2056.54 5250.44 2077.55 5275.17 2108.98C5282.73 2118.61 5296.69 2120.26 5306.33 2112.66C5315.97 2105.12 5317.73 2091.14 5310.06 2081.46C5274.88 2036.68 5201.58 1995.33 5166.13 1981.41C5213.65 1871.26 5218.43 1743.61 5222.65 1619.62C5226.06 1521.1 5245.76 1212.29 5239.32 1217.11C5248.29 1212.82 5275.87 1194.42 5359.9 1163.89C5359.51 1166.14 5357.96 1168.01 5358.35 1170.4C5367.64 1228.79 5370.49 1288.3 5366.86 1347.25C5365.17 1376.74 5409.35 1379.48 5411.29 1349.93C5415.12 1287.77 5412.06 1225.02 5402.25 1163.44C5401.47 1158.37 5398.31 1154.61 5394.79 1151.41C5457.37 1130.79 5522.19 1113.98 5587.37 1097.13C5606.68 1112.26 5620.12 1242.51 5624.09 1263.65C5700.7 1687.63 5680.58 1876.73 5686.84 2083.98C5692.08 2186.82 5691.17 2203.85 5653.85 2267.5C5608.47 2345.08 5621.21 2351.74 5468.66 2552.24C5254.13 2833.7 5319.48 2815.12 5023.95 3031.19C4994.72 3052.41 4956.21 3070.72 4931.94 3104.5C4901.65 3034.58 4907.88 3011 4888.78 2968.77C4876.33 2941.76 4836.23 2960.73 4848.29 2987.17C4855.08 3002.18 4858.99 3019.03 4863.07 3036.82C4875.06 3088.61 4886.53 3114.21 4912.91 3169.31C4914.42 3178.23 4911.47 3198.81 4940.06 3318.18C5057.02 3811.63 5045.09 4594.93 5025.43 4618.19C5021.17 4623.92 5011.08 4627.83 5001.55 4631.21C4665.92 4758.83 4299.83 4823.76 3936.55 4823.51H3917C3704.65 4823.51 3763.81 4811.72 3624.28 4795.47C3518.79 4783.07 3438.59 4767.64 3431.2 4661.57C3611.3 4721.6 3723.22 4729.48 3713.52 4727.49C3866.24 4726.45 4015.27 4496.89 3903.63 4369.13C3873.17 4333.53 3833.07 4314.09 3797.55 4296.81C3766.49 4282.05 3732.44 4268.43 3690.16 4253.93C3673.31 4248.37 3671.24 4244.03 3671.24 4244.03C3671.24 4243.94 3669.76 4239 3679.47 4221.81C3710.49 4167.69 3755.51 4096 3726.88 4040.8C3725.76 4038.64 3724.35 4036.72 3722.63 4035.08C3691.46 4004.88 3644.68 4005.6 3607.96 4062.94C3591.15 4091.57 3572.15 4118.87 3553.51 4145.93C3552.31 4144.12 3552.17 4141.82 3550.38 4140.37C3503.91 4103.05 3459.8 4062.15 3418.07 4018.49C3415.83 3930.28 3406.58 3478.33 3404.03 3235.63C3403.82 3206.26 3359.36 3206.37 3359.58 3236.14C3361.28 3398.64 3363.94 3560.34 3367.43 3722.14C3328.49 3770.81 3297.62 3799.37 3280.31 3828.78C3237.71 3804.43 3171.95 3769.72 3154.35 3760.92C3143.69 3755.55 3130.14 3759.88 3124.58 3770.91C3119.11 3781.85 3123.54 3795.21 3134.56 3800.68C3143.63 3805.21 3182.22 3825.22 3243.47 3859.04C3221.68 3859.03 3199.43 3857.76 3176.5 3853.99C3164.43 3851.29 3152.88 3860.15 3150.96 3872.21C3148.88 3884.28 3157.04 3895.74 3169.2 3897.75C3218.94 3906.12 3246.9 3904.08 3268.43 3902.69C3273.51 3921.46 3284.52 3936.87 3297.16 3952.25C3341.43 4005.82 3429.58 4098.27 3506.3 4161.82C3481.71 4197.37 3464.8 4226.32 3444.44 4262.29C3443.19 4260.48 3443.1 4258.13 3441.27 4256.71C3347.32 4184.23 3342.57 4162.02 3319.13 4160.25C3307.41 4159.21 3294.99 4168.77 3294.03 4181.01C3293.08 4193.25 3301.07 4204.28 3313.31 4205.23C3344.82 4235.34 3378.69 4264.52 3414 4291.95C3417.52 4294.64 3421.64 4295.57 3425.77 4295.92C3396.74 4351.13 3372.4 4405.08 3350.66 4466.03C3318.56 4454.8 3286.59 4442.61 3256.1 4428.16C3229.03 4415.67 3210.75 4455.87 3237 4468.27C3269.34 4483.64 3303.18 4496.57 3337.16 4508.37C3331.95 4524.73 3326.35 4540.77 3321.72 4557.6C3121.02 4405.16 2944.96 4222.51 2798.08 4014.16C2723.28 3908.72 2712.59 3852.02 2769.3 3724.26C2885.95 3706.32 3059.92 3660.33 3114.51 3555.96C3162.64 3459.85 3117.31 3282.21 3114.86 3032.65C3160.67 2962.39 3249.75 2865.29 3306.27 2788.55ZM3545.45 2156.38C3470.44 2078.29 3453.86 1981.2 3452.03 1859.13C3448.7 1735.45 3459.7 1612.5 3472.19 1496.17C3560.26 1527.62 3670.92 1504.97 3707.36 1495.7C3707.78 1495.61 3736.52 1485.8 3756.99 1472.38C3795.3 1491.22 3840.7 1499.17 3885.3 1494.88C3960.4 1489.54 4028.78 1449.31 4036.02 1440.39C4037.89 1443.42 4046.61 1502.8 4049.99 1528.34C4062.09 1608.37 4063.07 1600.42 4068.74 1658.46C4071.62 1687.82 4073.13 1701.28 4085.51 1715.77C4115.27 1751.61 4156.18 1722.1 4196.28 1696.88C4226.7 1677.53 4234.55 1675.84 4251.46 1657.84C4273.06 1653.2 4299.05 1643.96 4324.84 1652.61C4342.11 1657.77 4337.29 1659.17 4346.19 1663.64C4351.32 1666.25 4356.42 1671.51 4360.43 1675.53C4382.28 1697.37 4395.71 1728.81 4389.52 1759.09C4385.51 1778.21 4381.64 1783.66 4378.58 1793.33H4378.65C4378.58 1793.42 4378.58 1793.5 4378.58 1793.6C4363.56 1819.65 4338.24 1850.21 4309.99 1862.09C4272.99 1876.1 4197.93 1859.29 4225.26 1977.68C4238.91 2035.93 4254.7 2290.49 4254.77 2357.86C4252.91 2386.85 4237.64 2388.77 4203.31 2405.94C4197.26 2408.93 4191.18 2412.12 4185.16 2414.87C4132.3 2438.96 4020.16 2459.16 3962.19 2463C3958.36 2460.65 3954.32 2458.48 3948.86 2459.09C3945.14 2459.44 3942.64 2462 3939.68 2463.89C3912 2464.32 3884.67 2462.97 3857.87 2456.74C3830.68 2450.58 3833.53 2450 3837.01 2420.01C3857.97 2371.24 3853.37 2335.09 3850.66 2287.38C3850.45 2280.93 3850.24 2274.04 3849.39 2267.38C4025.79 2193.04 4104.3 2123.28 4113.2 2118.05C4123.71 2111.72 4127.09 2098.04 4120.76 2087.53C4114.39 2076.98 4100.6 2073.6 4090.26 2079.94C4080.06 2086.06 3991.18 2161.09 3821.64 2231.04C3757.1 2213.18 3670.74 2286.66 3545.45 2156.38ZM4153.58 2651.4C4145.31 2594.26 4137.29 2537.05 4129.48 2479.8C4159.52 2472.92 4186.53 2466.68 4255.02 2429.69C4268.1 2488.53 4278.23 2548.13 4285.55 2607.37C4242.6 2625.62 4198.46 2639.85 4153.58 2651.4ZM3979.75 2678.33C3980.77 2621.42 3979.01 2564.16 3974.68 2507.18C3997.61 2505.24 4040.91 2499.06 4085.9 2489.33C4093.71 2546.53 4101.8 2603.72 4110.03 2660.83C4067.05 2669.7 4023.64 2675.61 3979.75 2678.33ZM3828.6 2676.22C3810 2617.07 3809.96 2552.74 3817 2488.81C3843.17 2503.92 3900.85 2509.08 3930.29 2509.22C3934.69 2566.74 3936.52 2624.54 3935.32 2681.88C3899.8 2682.37 3864.17 2679.84 3828.6 2676.22ZM5176.99 960.904C5172.14 958.934 5166.83 953.482 5161.27 947.644C5152.94 939.061 5142.7 928.474 5127.68 922.565C5091.66 895.446 5058.74 863.367 5028.35 833.926C5014.39 817.149 5003.31 798.084 5017.16 781.975C5039.15 756.86 5123.88 880.462 5159.76 885.175C5185.05 907.686 5193.56 907.053 5217.34 923.444C5227.08 930.303 5241.12 928.087 5248.26 917.781C5255.22 907.686 5252.69 893.827 5242.52 886.898C5219.7 870.964 5210.48 869.733 5193.07 855.699C5196.8 824.816 5180.34 735.686 5163.28 680.217C5137.67 590.594 5136.3 498.614 5130 455.807C5128.1 444.622 5131.66 437.587 5144.42 431.08C5144.35 431.151 5147.03 431.256 5149.73 432.979C5153.57 436.286 5156.59 440.683 5159.97 445.959C5162.43 456.124 5175.94 528.793 5210.83 635.616C5214.53 647.013 5226.77 653.66 5238.9 649.862C5250.51 646.028 5256.87 633.47 5253.04 621.793C5233.48 561.856 5216.67 500.021 5203.13 438.009C5202.6 435.653 5200.49 434.492 5199.33 432.522C5198.73 422.885 5177.63 336.955 5206.26 322.991C5210.97 320.634 5225.11 318.313 5228.63 318.313C5246.74 316.941 5252.37 351.834 5257.72 366.184C5263.38 383.631 5268.62 415.568 5286.7 433.261L5336.19 632.275C5338.72 642.335 5347.76 649.088 5357.72 649.088C5372.32 649.088 5382.8 635.405 5379.24 621.511L5325.99 407.303C5326.98 367.978 5314.77 376.525 5326.91 337.553C5328.63 331.01 5330.39 327.212 5333.06 325.347L5345.06 323.518C5379.31 327.106 5396.44 422.005 5403.41 456.546C5413.5 507.126 5420.05 524.326 5425.78 544.832L5439.08 630.234C5440.8 641.173 5450.26 649.017 5461.02 649.017C5474.57 649.017 5485.12 636.917 5483.01 623.376L5473.09 559.57C5486.14 533.964 5489.66 500.724 5498.87 496.117C5500.63 495.061 5505.66 495.237 5513.54 498.227C5538.27 507.548 5535.17 707.547 5558.1 1060.09C5456.7 1085.1 5353.25 1112.93 5255.5 1160.16C5255.57 1123.44 5249.91 1074.52 5237.92 1042.89C5229.4 1013.59 5218.92 977.225 5176.99 960.904ZM3522.06 4219.37C3536.98 4220.59 3558.82 4216.84 3576.02 4192.64C3599.8 4158.26 3624.35 4122.84 3645.81 4086.12C3655.69 4070.76 3666.98 4060.95 3675.91 4059.9C3677.57 4059.56 3682.35 4059.21 3689.03 4064.59C3701.56 4094.85 3666.59 4154.85 3651.26 4181.53C3648.9 4190.73 3583.9 4265.69 3675.91 4296.04C3732.37 4315.41 3831.49 4353.08 3869.93 4398.21C3880.1 4409.8 3886.47 4422.25 3890.83 4434.84L3643.56 4329.03C3616.37 4317.32 3599.1 4358.44 3626 4369.83L3897.55 4486C3896.74 4497.07 3894.77 4507.4 3892.34 4516.95L3615.06 4414.61C3587.31 4404.49 3572.19 4446.11 3599.62 4456.29L3876.76 4558.57C3867.86 4576.77 3856.78 4593.71 3844.08 4608.95L3529.98 4506.29C3501.96 4497.16 3488.28 4539.35 3516.1 4548.48L3808.63 4644.08C3745.45 4694.43 3701.8 4684.77 3655.16 4674.71C3586.75 4659.33 3424.39 4623.68 3361.35 4583.27C3394.52 4457.09 3444.59 4338.86 3522.06 4219.37ZM253.795 3613.43C433.363 3672.14 616.541 3617.49 792.984 3562.73C795.805 3561.84 797.085 3561.65 798.496 3561.45C806.051 3583.25 796.241 3835.77 804.704 4138.64C809.132 4316.71 800.212 4512.4 846.114 4686.25C862.203 4756.49 895.526 4769.37 954.713 4776.36C1408.36 4817.19 1863.36 4856.89 2301.6 4724.88C2342.4 4713.25 2387.2 4695.89 2409.78 4656.04C2444.84 4596.21 2420.75 4524.05 2412.55 4467.13C2374.4 4224.69 2398.14 3887.83 2368.79 3768.13C2352.19 3701.37 2360.84 3707.88 2360.13 3698.97C2378.64 3696.72 2499.34 3752.41 2718.11 3731.11C2665.63 3859.88 2685.48 3932.36 2761.79 4039.85C2917.71 4261.05 3106.08 4453.85 3321.47 4612.99C3324.4 4615.17 3327.99 4615.76 3331.52 4616.25C3348.76 4628.09 3366.87 4637.37 3385.77 4645.05C3386.68 4669.15 3387.95 4693.81 3396.39 4718.11C3413.41 4766.12 3458.46 4804.84 3516.88 4821.76C3550.73 4831.67 3585.45 4835.65 3619.07 4839.65C3750.48 4854.91 3706.9 4867.95 3917.1 4867.95C3934.79 4866.43 4452.1 4887.73 5016.81 4672.88C5064.23 4656.19 5074.29 4634.04 5077 4587.99C5099.93 4072.8 5041.36 3552.55 4983.33 3307.94C4935.63 3107.44 4951.07 3138.72 5050.16 3067.12C5349.45 2848.56 5292.89 2857.17 5504.01 2579.16C5657.86 2376.86 5646.67 2368.62 5692.12 2289.98C5750.33 2191.46 5729.51 2182.49 5730.6 1990.05C5732.21 1551.53 5684.94 1386.14 5663.66 1226.96C5649.66 1120.98 5636.22 1065.34 5602.35 1055.52C5602.35 1055.52 5602.32 1055.52 5602.28 1055.52C5599.4 1023.69 5585.05 735.193 5584.55 726.119C5577.87 561.892 5571.54 538.607 5570.24 523.2C5568.23 503.292 5564.79 470.088 5529.26 456.651C5495.14 443.602 5468.73 453.978 5454.16 482.469C5438.58 412.227 5423.88 286.516 5351.74 279.692C5340.66 277.23 5317.02 281.204 5307.38 289.154C5296.69 296.259 5290.89 306.389 5287.23 315.675C5277.42 294.43 5260.95 273.818 5229.93 273.818C5162.89 273.818 5141.68 319.614 5147.84 387.007C5119.24 384.369 5077.8 415.041 5086.18 462.772C5091.14 498.473 5093.7 598.402 5120.65 692.844C5141.61 761.046 5144.11 802.551 5147.31 823.761C5100.91 777.754 5032.5 698.226 4983.75 752.675C4960.04 780.11 4957.05 818.133 4995.71 864.035C5009.74 877.683 5091.56 957.316 5110.23 963.542C5116.74 965.617 5122.55 971.597 5129.33 978.597C5170.7 1021.3 5175.31 986.757 5195.74 1056.86C5209.64 1093.69 5211.78 1144.27 5210.55 1183.45C5188 1202.27 5201.23 1211.69 5187.23 1440.66L5181.95 1528.63C5173.13 1683.4 5182.48 1859.82 5111.47 1993.26C5111.4 1993.52 5111.29 1993.65 5111.22 1993.91C5111.01 1994.26 5110.94 1994.67 5110.76 1995.04C5096.17 2022.38 5066.13 2043.13 5037.14 2063.18L4933.84 2136.37C4748.58 2267.4 4789.48 2208.34 4592.72 2339.64C4581.43 2348.13 4558.67 2369.24 4544.64 2376.57C4535.56 2359.84 4531.2 2308.6 4500.28 2275.74C4455.3 2227.64 4380.31 2240.45 4295.12 2243.8C4291.84 2191.26 4280.38 2019.33 4268.59 1967.69C4251.96 1895.54 4270.53 1924.47 4326.42 1903.37C4362.68 1888.17 4388.57 1858.26 4404.01 1835.52C4408.69 1828.93 4413.41 1822.28 4413.9 1819.98C4420.97 1812.76 4430.5 1779.57 4433 1768.33C4442.39 1723.2 4424.38 1676.62 4391.84 1644.1C4388.92 1641.14 4386.22 1638.46 4386.22 1639.24C4381.26 1632.64 4374.57 1628.34 4368.42 1625.09C4352.03 1612.01 4322.06 1604.62 4315.2 1605.82C4294.9 1602.51 4286.78 1606.53 4277.74 1607.97C4294.87 1555.66 4306.41 1507.77 4311.23 1463.32C4311.23 1463.32 4311.23 1463.32 4311.23 1463.27C4318.08 1399.04 4312.25 1340.92 4293.95 1290.66C4273.17 1233.54 4211.26 1207.19 4155.12 1229.74C4129.94 1240.01 4129.27 1238.78 4108.24 1202.06C4061.7 1121.23 3986.43 1028.16 3887.03 1047.04C3837.4 1056.33 3796.84 1089.85 3783.9 1132.38C3783.83 1132.87 3783.65 1133.33 3783.48 1133.78C3734.37 1095.55 3694.1 1047.54 3603.95 1043.11C3535.78 1039.45 3485.22 1094.74 3512.71 1196.36C3366.18 1137.55 3285.75 1263.72 3356.02 1388.01C3376.7 1424.21 3396.82 1453.14 3429.8 1475.29C3416.4 1597.87 3404.05 1728.12 3407.59 1860.09C3409.33 1974.55 3423.3 2093.35 3513.4 2187.2C3568.46 2244.49 3625.48 2274.01 3692.94 2280.17C3714.04 2282.08 3735.04 2279.22 3755.02 2276.7C3808.63 2270.09 3794.1 2274.22 3805.28 2272.88C3805.88 2277.74 3806.06 2284.86 3806.23 2288.77C3807.61 2312.87 3812.14 2349.06 3803.98 2380.13C3774.65 2369.13 3751.08 2371.29 3733.85 2371.76C3723.68 2372.16 3700.43 2372.36 3693.89 2380.01C3679.64 2389.5 3679.33 2408.09 3676.44 2419.25C3676.34 2419.33 3675.49 2420.54 3670.53 2423.68C3650.55 2437.45 3628.99 2445.9 3609.33 2459.18L3556.82 2494.69C3501.62 2532 3407.38 2589.44 3376.72 2643.09C3338.2 2670.52 3299.2 2723.1 3270.42 2762.24C3227.46 2820.66 3188.35 2856.6 3112.06 2961.2C3103.51 2707.96 3057.18 2440.2 3036.9 2366.46C3036.9 2365.48 3036.64 2364.52 3036.51 2363.54C3036.48 2363.34 3036.67 2363.18 3036.64 2363C3029.14 2314.98 3056.44 2289.4 3083.08 2240.24C3106.34 2197.49 3113.88 2140.24 3124.06 2099.38C3168.48 1936.09 3169.04 1867.01 3175.54 1815.17C3178.38 1726.42 3079.42 1686.35 3042.46 1764.33C3038.63 1772.76 3034.55 1781.09 3030.47 1789.42C3038.86 1722.4 3081.72 1567.13 3027.96 1529.81C3018.06 1522.95 3001.22 1516.91 2975.18 1528.38C2940.51 1544.08 2935.14 1587.25 2923.87 1625.82C2927.51 1599.3 2930.38 1574.92 2932.72 1551.48C2936.03 1525.82 2943.84 1465.7 2891.4 1446.51C2858.42 1436.06 2840 1462.1 2830.46 1476.04C2823.8 1485.52 2816.88 1491.78 2812.14 1511.62C2793.04 1571.3 2781.76 1632.81 2772.03 1693.33C2778.23 1619.32 2784.24 1513.22 2710.92 1517.53C2667.43 1518.78 2658.65 1557.55 2654.5 1576.17C2627.98 1711.41 2627.68 1653.97 2605.62 1943.3C2580.07 1917.61 2556.11 1885.61 2524.36 1863.61C2469.56 1820.51 2391.15 1838.08 2380.16 1901.24C2375.39 1929.19 2385.81 1958.1 2408.82 1980.58C2436.7 2007.73 2458.46 2040.09 2492.67 2088.8C2597 2233.2 2560.63 2084.72 2589.68 2354.13C2589.68 2374.93 2596.92 2452.09 2585.48 2525.33C2575.92 2596.68 2554.04 2758.09 2533.83 2826.65C2508.51 2818.6 2243.91 2718.09 2216.17 2708.16C2128.88 2676.13 2113.83 2685.72 2074.67 2659.1C2039.76 2635.48 2012.94 2621.4 1968.42 2608.8C1940.21 2597.34 1953.86 2600.86 1941.82 2601.05C1941.18 2600.93 1940.59 2600.63 1939.95 2600.5C1915.81 2597.29 1907.89 2592.6 1885.38 2595.37C1884.82 2590.54 1877.94 2528.18 1881.26 2524.64C1906.59 2526.48 1925.81 2524.72 1949.92 2524.72C2045.86 2523.6 2115.91 2469.08 2137.52 2378.7C2158.54 2289.29 2163.23 2197.22 2151.34 2105.16C2147.86 2075.25 2153.07 2064.1 2175.3 2055.37C2268.97 2015.78 2301.88 1847.56 2155.76 1798.29C2156.46 1793.62 2158.25 1790.16 2158.63 1785.13C2162.53 1733.55 2148.99 1673.66 2136.75 1627.22C2124.4 1580.64 2122.07 1545.38 2100.72 1511.58C2126.96 1435.9 2081.05 1391.94 2007.06 1383.93C2050.38 1365.72 2040.09 1325.45 1999.94 1322.49C1828.32 1326.18 1707.64 1355.61 1615.79 1370.38C1498.2 1389.21 1481.28 1400.81 1472.37 1403.12C1441.28 1414.08 1424.58 1428.03 1422.03 1471.17C1394.24 1472.21 1365.07 1483.1 1338.26 1502.98C1253.52 1565.72 1273.1 1675.05 1293.73 1816.58C1220.48 1839.46 1170.87 1937.73 1224.18 2065.53C1248.38 2124.77 1295.54 2141.24 1358.73 2138.41C1366.2 2138.14 1373.67 2139.14 1380.87 2136.85C1391.12 2133.33 1397.28 2131.73 1401.01 2130.98C1405.21 2177.14 1392.26 2024.77 1416.36 2533.58C1414.6 2535.09 1412.99 2536.85 1411.48 2539.05C1403.51 2536.02 1394.68 2536.08 1388.33 2542.61C1364.6 2566.73 1348.52 2594.8 1339.75 2623.75C1282.6 2653.48 783.473 2741.85 705.651 2757.02C720.287 2719.22 719.351 2734.6 744.543 2569.77C771.039 2380.21 762.453 2453.81 780.135 2311.94C811.362 2056.25 825.193 2113.34 825.193 2006.45C825.193 1949.41 828.003 1967.06 831.095 1944.73C846.793 1876.66 842.062 1863.85 842.899 1854.49C842.899 1668.51 865.319 1685.69 868.337 1670.97C944.654 1544.08 969.293 1526.96 1010.97 1460.24C1067.31 1373.24 951.896 1316.23 896.722 1371.86C860.785 1407.02 823.455 1444.78 792.463 1488.58C791.999 1479.69 780.321 1184.08 784.043 1148.52C787.451 1120.73 793.986 1081.23 781.524 1046.27L779.442 1038.67C775.014 1021.65 768.327 996.008 738.989 986.229C701.163 973.004 662.967 993.545 659.031 1052.74C655.352 1100.93 656.154 1151.41 654.695 1196.71C650.78 1179.02 656.116 1157.1 649.658 1134.91C633.017 1041.49 630.899 926.293 559.806 926.293C474.773 925.414 513.102 1041.24 513.102 1113.45C513.535 1135.61 515.36 1157.56 517.443 1179.47C508.012 1142.44 513.267 1137.3 472.649 1028.9L464.488 1006.95C453.029 978.561 429.761 965.934 401.376 973.391C389.828 976.592 363.265 988.621 365.523 1030.76C376.153 1213.66 400.817 1319.92 397.035 1363.57C387.918 1342.44 373.856 1299.42 356.666 1212.61C356.666 1188.16 339.111 1177.61 331.665 1168.71C310.483 1144.16 283.657 1154.64 270.203 1159.99C248.499 1168.64 237.127 1189.29 240.426 1213.8C264.558 1386.73 290.928 1558.97 292.686 1721.97C292.686 1744.9 300.78 1758.05 301.715 1775.45C303.074 1786.4 299.776 1803.49 300.674 1818.2C301.348 1831.02 301.364 1838.26 301.672 1847.17C298.786 1847.3 296.093 1847.17 293.207 1847.41C285.395 1848.16 278.536 1852.97 275.151 1860.09C197.957 2024.57 182.696 2228.01 146.408 2400.14C126.669 2495.98 119.39 2592.52 94.4083 2682.12C63.9368 2788.37 35.0286 2892.28 17.3192 2996.64C-38.5876 3336.93 41.0186 3544.41 253.795 3613.43Z" fill="#040606"/>
<path d="M686.292 1537.15C707.357 1516.91 677.218 1484.74 655.561 1505.02C616.953 1542.07 500.859 1562.74 437.056 1519.42C426.985 1512.53 413.095 1515.19 406.15 1525.38C399.291 1535.55 401.896 1549.33 412.053 1556.24C495.257 1612.49 633.67 1587.42 686.292 1537.15Z" fill="#040606"/>
<path d="M5286.54 1198.29C5274.28 1199.04 5264.93 1209.53 5265.61 1221.76C5268.12 1264.36 5268.64 1308.2 5267.08 1352.07C5266.66 1364.3 5276.3 1374.63 5288.53 1375.09C5288.79 1375.09 5289.05 1375.09 5289.31 1375.09C5301.21 1375.09 5311.12 1365.67 5311.54 1353.64C5313.1 1308.36 5312.58 1263.12 5310.07 1219.15C5309.36 1206.89 5297.82 1196.56 5286.54 1198.29Z" fill="#040606"/>
<path d="M5522.06 1311.04C5519.82 1262.75 5515.72 1214.73 5509.99 1168.38C5506.16 1138.63 5462.38 1145 5465.91 1173.84C5471.53 1219.07 5475.43 1265.94 5477.63 1313.14C5479.12 1342.89 5523.31 1340.38 5522.06 1311.04Z" fill="#040606"/>
<path d="M5557.32 1278.89C5556.09 1291.1 5565.03 1301.97 5577.27 1303.21C5577.96 1303.24 5578.75 1303.28 5579.44 1303.28C5590.72 1303.28 5600.46 1294.75 5601.56 1283.22C5606.61 1232.35 5605.24 1180.79 5597.43 1129.92C5595.57 1117.78 5584.05 1109.49 5572.08 1111.31C5560.01 1113.17 5551.68 1124.48 5553.47 1136.59C5560.69 1183.82 5562 1231.66 5557.32 1278.89Z" fill="#040606"/>
<path d="M4599.78 4378.07C4668.91 4430.61 4726.36 4478.95 4749.8 4478.95C4774.35 4478.95 4780.68 4444.6 4757.51 4435.89C4740.85 4429.64 4725.66 4418.09 4709.59 4405.85C4543.23 4279.16 4598.49 4331.77 4481.96 4158.44C4475.27 4148.19 4461.4 4145.16 4451.25 4152.01C4440.99 4158.69 4438.03 4172.51 4444.8 4182.75C4537.42 4318.53 4521.79 4318.92 4599.78 4378.07Z" fill="#040606"/>
<path d="M3327.98 4429.98C3351.63 4429.98 3358.89 4397.84 3337.46 4387.61C3318.7 4378.85 3300.98 4367.65 3284.93 4354.37C3275.45 4346.47 3261.4 4347.87 3253.67 4357.32C3245.86 4366.78 3247.16 4380.76 3256.62 4388.57C3271.23 4400.7 3312.87 4429.98 3327.98 4429.98Z" fill="#040606"/>
<path d="M3371.23 4367.65C3392.26 4367.65 3401.48 4341.03 3385.02 4327.99L3312.8 4271.03C3303.32 4263.56 3289.26 4265.04 3281.53 4274.68C3273.9 4284.32 3275.55 4298.29 3285.19 4305.93C3355.37 4359.29 3357.68 4367.65 3371.23 4367.65Z" fill="#040606"/>
<path d="M3449.15 4170.59C3458.03 4179.29 3472.1 4178.91 3480.57 4170.24C3489.18 4161.48 3489.01 4147.41 3480.23 4138.82C3462.61 4121.55 3444.48 4104.79 3425.99 4088.47C3416.68 4080.48 3402.72 4081.44 3394.54 4090.55C3386.49 4099.84 3387.44 4113.82 3396.64 4121.98C3414.6 4137.6 3432.07 4153.84 3449.15 4170.59Z" fill="#040606"/>
<path d="M2685.31 2520.81C2697.55 2520.81 2707.54 2510.84 2707.54 2498.6V2391.89C2707.54 2379.67 2697.55 2369.67 2685.31 2369.67C2673.07 2369.67 2663.09 2379.67 2663.09 2391.89V2498.6C2663.09 2510.84 2673.07 2520.81 2685.31 2520.81Z" fill="#040606"/>
<path d="M2743.75 2037.7C2769.53 2041.4 2796.25 2045.17 2820.13 2054.06C2869.16 2072.51 2879.06 2098.44 2890.11 2131.94C2897.48 2153.86 2905.04 2176.51 2906.78 2198.9C2908.97 2228.47 2953.34 2224.92 2951.04 2195.52C2948.29 2158.48 2926.17 2093.2 2911.98 2070.64C2876.16 2014.08 2809.19 2002.15 2750 1993.69C2738.11 1992.17 2726.55 2000.38 2724.9 2012.57C2723.16 2024.73 2731.59 2035.96 2743.75 2037.7Z" fill="#040606"/>
<path d="M1875.17 1959.02C1885.6 1959.33 1897.06 1970.8 1899.05 1978.64C1900.26 1984.2 1896.62 1991.93 1890.45 1996.56C1881.52 2003.3 1868.76 2004.87 1859.63 2004.94C1847.4 2005.08 1837.5 2015.13 1837.68 2027.44C1837.85 2039.62 1847.74 2049.39 1859.9 2049.39C1868.78 2048.11 1893.19 2050.13 1917.19 2032.08C1966.3 1994.98 1940.34 1928.45 1888.64 1916.31C1882.98 1873.95 1878.99 1830.93 1876.57 1788.22C1874.59 1757.17 1830.52 1762.63 1832.11 1790.74C1834.89 1838.43 1839.58 1886.54 1846.18 1934.1C1848.58 1949.44 1858.66 1958.59 1875.17 1959.02Z" fill="#040606"/>
<path d="M2125.73 1921.55C2133.24 1922.19 2147.61 1935.86 2145.16 1943.39C2144.91 1944.35 2144.12 1946.04 2142.21 1948.94C2139.87 1952.5 2137.61 1954.86 2131.11 1957.32C2102.18 1950.59 2092.18 1993.54 2120.51 2000.47C2149.85 2007.8 2178.87 1984.98 2187.71 1956.49C2200.36 1915.29 2156.75 1873.68 2119.98 1877.45C2107.74 1879.06 2099.24 1890.21 2100.8 1902.41C2102.36 1914.52 2113.73 1922.95 2125.73 1921.55Z" fill="#040606"/>
<path d="M1330.26 1922.59C1318.63 1918.65 1306.04 1924.67 1301.96 1936.31C1297.97 1947.9 1304.05 1960.57 1315.68 1964.6C1331.5 1970.11 1347.44 1976.94 1350.58 1993.21C1345.19 2003.45 1335.3 2015.52 1325.06 2015.7C1295.88 2016.21 1296.22 2060.14 1325.4 2060.14C1325.49 2060.14 1325.66 2060.14 1325.75 2060.14C1351.02 2059.71 1374.98 2042.39 1389.91 2013.91C1395.5 2003.58 1396.9 1994.59 1393.9 1982.23C1390.95 1970.34 1361.31 1933.48 1330.26 1922.59Z" fill="#040606"/>
<path d="M1724.9 2156.16C1791.23 2225.06 1918.63 2247.32 1972.4 2178.01C1990.56 2154.73 1955.13 2127.46 1937.32 2150.74C1909.16 2187.16 1816.35 2187.24 1757.03 2125.35C1748.43 2116.58 1734.37 2116.29 1725.59 2124.75C1716.75 2133.26 1716.39 2147.32 1724.9 2156.16Z" fill="#040606"/>
<path d="M1603.91 1798.87C1622.64 1792.26 1642.19 1789.03 1661.93 1789.19C1674.21 1789.34 1684.31 1779.52 1684.42 1767.21C1684.57 1754.84 1674.21 1744.75 1662.44 1744.76C1637.46 1744.53 1612.83 1748.62 1589.23 1756.93C1577.6 1761.02 1571.57 1773.73 1575.63 1785.29C1579.52 1796.56 1592.09 1803.02 1603.91 1798.87Z" fill="#040606"/>
<path d="M1960.07 1746.89C1977.29 1741.59 1995.02 1737.79 2013.05 1735.59C2013.83 1735.5 2014.59 1735.36 2015.35 1735.19C2042.77 1728.94 2035.36 1688.11 2007.8 1691.46C1987.16 1693.94 1966.8 1698.31 1946.84 1704.52C1918.23 1713.43 1932.9 1757.38 1960.07 1746.89Z" fill="#040606"/>
<path d="M3848.41 1606.77C3913.15 1601.71 3925.68 1608.89 3934.9 1608.89C3961.69 1608.89 3965.53 1569.79 3938.96 1564.83C3906.51 1558.68 3871.6 1560.23 3844.96 1562.5C3832.7 1563.44 3823.6 1574.17 3824.55 1586.41C3825.59 1598.65 3836.98 1607.99 3848.41 1606.77Z" fill="#040606"/>
<path d="M3641.61 1562.89C3608.88 1556.69 3574.09 1558.33 3547.51 1560.51C3535.27 1561.48 3526.17 1572.19 3527.11 1584.43C3528.08 1596.68 3539.54 1606.25 3550.99 1604.79C3614.59 1599.67 3628.45 1606.94 3637.55 1606.94C3648.04 1606.94 3657.34 1599.53 3659.43 1588.86C3661.68 1576.8 3653.68 1565.16 3641.61 1562.89Z" fill="#040606"/>
<path d="M1688.22 1956.69C1709.5 1956.69 1727.58 1936.48 1727.58 1909.88C1727.58 1884.35 1709.5 1863.07 1688.22 1863.07C1636.35 1863.07 1635.67 1956.69 1688.22 1956.69Z" fill="#040606"/>
<path d="M1994.22 1816.28C1971.9 1816.28 1954.86 1837.55 1954.86 1863.09C1954.86 1889.69 1971.9 1909.89 1994.22 1909.89C2015.5 1909.89 2033.57 1889.69 2033.57 1863.09C2033.57 1837.55 2015.5 1816.28 1994.22 1816.28Z" fill="#040606"/>
<path d="M3572.77 1671.46C3550.43 1671.46 3533.41 1692.76 3533.41 1718.29C3533.41 1744.86 3550.43 1765.09 3572.77 1765.09C3594.04 1765.09 3612.12 1744.86 3612.12 1718.29C3612.12 1692.76 3594.04 1671.46 3572.77 1671.46Z" fill="#040606"/>
<path d="M3911.54 1695.83C3889.19 1695.83 3872.18 1717.11 3872.18 1742.64C3872.18 1769.23 3889.19 1789.47 3911.54 1789.47C3932.82 1789.47 3950.9 1769.23 3950.9 1742.64C3950.9 1717.11 3932.82 1695.83 3911.54 1695.83Z" fill="#040606"/>
<path d="M3762.91 1903.54C3758.84 1891.93 3745.91 1885.77 3734.7 1889.78C3729.23 1891.56 3720.29 1885.01 3716.91 1876.9C3711.86 1864.78 3713.34 1849.19 3715.59 1831.65C3722.63 1777.79 3732.08 1724.14 3743.73 1672.11C3746.42 1660.11 3738.87 1648.27 3726.89 1645.58C3714.64 1643.15 3703.1 1650.54 3700.32 1662.47C3688.41 1715.71 3678.8 1770.73 3671.5 1825.93C3668.53 1849.1 3666.63 1871.78 3675.83 1893.9C3699.23 1950.62 3776.17 1942.16 3762.91 1903.54Z" fill="#040606"/>
<path d="M4223.35 1753.23C4234.37 1749.1 4245.5 1745.32 4256.79 1741.86L4237.41 1758.44C4216.59 1775.48 4221.57 1803.59 4250.61 1814.48L4286.89 1828.13C4314.58 1838.65 4329.81 1796.8 4302.52 1786.55L4281.94 1778.81C4313.78 1751.52 4339.02 1734.67 4333.35 1706.29C4331.08 1690.27 4316.79 1680.95 4301.14 1684.33C4269.54 1691.12 4238.21 1700.25 4207.91 1711.57C4196.36 1715.85 4190.53 1728.65 4194.79 1740.15C4199.13 1751.65 4212.07 1757.48 4223.35 1753.23Z" fill="#040606"/>
<path d="M3902.65 2009.18C3914.52 1986.34 3932.54 1962.02 3922.38 1932.2C3910.97 1935.77 3899.36 1914.22 3888.07 1932.49C3886.36 1933.86 3884.48 1935.05 3882.86 1936.52C3826.31 1988.44 3762.4 2015.43 3684.45 1995.36C3677.02 1993.45 3669.28 1992.42 3662.5 1997.94C3656.25 2004.48 3653.04 2010.78 3654.37 2021.25C3661.05 2073.87 3685.71 2093.87 3754.46 2099.9C3766.38 2109.48 3779.7 2106.48 3792.56 2103.25C3844.74 2090.2 3879.24 2054.25 3902.65 2009.18Z" fill="#040606"/>
</g>
<defs>
<clipPath id="clip0_7_252">
<rect width="5733.33" height="4867.95" fill="white"/>
</clipPath>
</defs>
</svg>
