<svg width="60" height="62" viewBox="0 0 60 62" fill="none" xmlns="http://www.w3.org/2000/svg">
<path d="M30 36.3685C33.0928 36.3685 35.6 33.8613 35.6 30.7685C35.6 27.6757 33.0928 25.1685 30 25.1685C26.9072 25.1685 24.4 27.6757 24.4 30.7685C24.4 33.8613 26.9072 36.3685 30 36.3685Z" fill="#087EA4"/>
<path d="M30 43.3685C45.464 43.3685 58 37.7272 58 30.7685C58 23.8097 45.464 18.1685 30 18.1685C14.536 18.1685 2 23.8097 2 30.7685C2 37.7272 14.536 43.3685 30 43.3685Z" stroke="#087EA4" stroke-width="2.8"/>
<path d="M19.088 37.0685C26.82 50.4607 37.9735 58.4966 43.9999 55.0172C50.0264 51.5378 48.6439 37.8607 40.9119 24.4685C33.1799 11.0763 22.0264 3.04036 15.9999 6.51976C9.97346 9.99915 11.356 23.6763 19.088 37.0685Z" stroke="#087EA4" stroke-width="2.8"/>
<path d="M19.088 24.4685C11.356 37.8607 9.97346 51.5378 15.9999 55.0172C22.0264 58.4966 33.1799 50.4607 40.9119 37.0685C48.6439 23.6763 50.0264 9.99916 43.9999 6.51976C37.9735 3.04037 26.82 11.0763 19.088 24.4685Z" stroke="#087EA4" stroke-width="2.8"/>
</svg>
