<svg width="280" height="230" viewBox="0 0 280 230" fill="none" xmlns="http://www.w3.org/2000/svg">
<path d="M61.3068 0.47334C60.4369 0.75168 58.8017 1.20398 57.6535 1.51711C56.5054 1.79545 54.9745 2.38692 54.2439 2.76964C53.5132 3.18715 52.713 3.39593 52.4694 3.32634C52.1911 3.22197 51.6692 3.4307 51.2865 3.77863C50.9386 4.12655 49.9992 4.71803 49.2685 5.06596C46.172 6.59683 43.9453 8.02332 42.0665 9.76295C41.2662 10.4936 40.466 11.0851 40.3268 11.0851C40.0833 11.0851 35.769 15.3298 32.1506 19.1222C31.5243 19.7832 30.7937 20.5487 30.5153 20.827C30.237 21.1053 29.402 21.9751 28.6365 22.7406C26.5142 24.9673 23.348 27.8551 21.6432 29.1772C20.7734 29.8383 19.9384 30.5689 19.7296 30.7777C19.1381 31.4387 14.9282 34.5353 13.8497 35.092C13.293 35.3703 12.4232 36.0314 11.9361 36.5532C11.449 37.1099 10.9271 37.5274 10.7879 37.5274C10.6488 37.5274 9.5354 38.2581 8.35245 39.1279C7.13471 39.9977 5.63863 41.0067 5.04716 41.3894C3.86421 42.1548 1.11559 45.9472 1.11559 46.817C1.11559 48.3131 2.36813 52.2795 3.09877 53.0449C3.55107 53.532 3.899 54.1583 3.899 54.4366C3.899 54.715 4.14255 55.0281 4.42089 55.1325C4.69923 55.2717 4.94278 55.5848 4.94278 55.8283C4.94278 56.6634 10.8227 62.926 12.0057 63.3783C12.3536 63.4827 12.5971 63.761 12.5971 63.9698C12.5971 64.1438 12.8059 64.3177 13.0494 64.3177C13.3278 64.3177 13.8149 64.6657 14.1976 65.0484C14.5455 65.4659 15.1718 65.953 15.5545 66.1269C17.2593 66.9272 18.5815 67.6926 18.7902 68.0057C18.9294 68.2145 20.2863 68.9451 21.8172 69.6758C23.3481 70.4064 25.0181 71.2067 25.54 71.485C26.0271 71.7633 26.6881 71.9721 27.0013 71.9721C27.3144 71.9721 27.558 72.1113 27.558 72.32C27.558 72.494 27.8711 72.6679 28.219 72.6679C28.6017 72.6679 29.0192 72.8419 29.1236 73.0159C29.2628 73.2246 29.4715 73.2942 29.6455 73.1898C29.8195 73.0855 31.1764 73.3986 32.6725 73.8857C34.1337 74.4076 35.6298 74.7207 35.9778 74.6511C36.9519 74.3728 37.0911 74.999 36.2909 76.008C35.8734 76.5299 35.5602 77.2954 35.5602 77.7825C35.5602 78.2348 35.3167 78.6871 35.0384 78.7914C34.76 78.8958 34.4121 79.5569 34.3077 80.2527C34.099 81.2617 33.3683 82.2011 30.7589 84.741C28.9497 86.5154 27.3144 87.9767 27.1752 87.9767C27.0361 87.9767 26.7577 88.2202 26.6186 88.4986C26.4446 88.7769 25.5052 89.9251 24.531 91.0036C23.522 92.117 22.3739 93.4043 21.9911 93.8914C21.5736 94.3785 20.4603 95.5963 19.5209 96.6052C18.5815 97.5794 17.816 98.5188 17.816 98.6928C17.816 98.832 17.1898 99.6322 16.4243 100.502C14.1628 103.042 14.0584 103.181 13.3278 104.573C12.9451 105.303 12.1796 106.312 11.623 106.834C11.0663 107.356 10.3356 108.365 9.9877 109.061C9.32664 110.487 8.97872 110.975 7.83056 112.158C7.37826 112.575 7.03033 113.062 7.03033 113.201C7.03033 113.375 6.64761 114.002 6.16052 114.628C5.67342 115.254 5.2907 115.88 5.2907 116.054C5.2907 116.193 4.80361 116.785 4.24693 117.342C3.65545 117.898 3.20315 118.629 3.20315 118.942C3.20315 119.255 2.89002 119.812 2.5073 120.16C2.12458 120.508 1.35914 121.552 0.802462 122.421C-0.0673528 123.848 -0.171731 124.161 0.210988 124.892C0.524121 125.483 0.872047 125.692 1.46352 125.622C2.33333 125.518 3.69025 124.544 3.37711 124.231C3.27273 124.126 3.58587 123.535 4.07296 122.908C4.56006 122.282 4.94278 121.621 4.94278 121.412C4.94278 121.204 5.08195 121.03 5.25591 121.03C5.42987 121.03 6.33448 119.812 7.23909 118.316C8.17849 116.855 9.18747 115.428 9.5354 115.184C9.88332 114.941 10.1617 114.523 10.1617 114.315C10.1617 114.071 10.6488 113.375 11.2054 112.714C11.7969 112.088 12.2492 111.392 12.2492 111.183C12.2492 110.975 12.8407 110.105 13.6061 109.235C14.3368 108.33 15.0326 107.287 15.1718 106.834C15.311 106.417 15.5545 106.069 15.7285 106.069C15.8676 106.069 16.4939 105.234 17.0506 104.225C17.6421 103.251 18.5119 101.998 18.999 101.476C19.4861 100.954 19.9036 100.398 19.9036 100.258C19.9036 100.119 20.843 99.0407 21.9911 97.9274C23.1393 96.7792 24.0787 95.7354 24.0787 95.5615C24.0787 94.97 34.1685 85.1585 34.5165 85.3672C34.6904 85.4716 34.8644 85.8195 34.8644 86.0979C34.8644 86.6198 39.0047 92.9172 39.4918 93.1608C39.631 93.1956 39.9441 93.5087 40.1877 93.787C41.1271 94.9352 42.2752 95.979 44.989 98.1709C45.8588 98.8668 46.6939 99.4582 46.7983 99.4582C46.9374 99.4582 47.3201 99.7018 47.7029 100.015C48.4683 100.676 52.7478 102.555 54.0003 102.798C55.6356 103.111 56.9577 103.285 58.3842 103.425C59.5323 103.529 60.089 103.842 61.098 104.886C61.7591 105.651 62.5245 106.66 62.768 107.217C63.0116 107.739 63.4987 108.261 63.8118 108.365C64.125 108.47 64.5077 108.817 64.612 109.165C64.7164 109.513 65.0991 110.07 65.4819 110.418C65.8646 110.766 66.1777 111.323 66.1777 111.636C66.1777 111.984 66.4213 112.436 66.6996 112.679C66.9779 112.923 67.2215 113.41 67.2215 113.758C67.2215 114.141 67.3607 114.419 67.4998 114.419C67.8825 114.419 69.4482 117.55 69.1699 117.794C69.0655 117.898 69.309 118.594 69.6918 119.36C70.0745 120.09 70.2832 120.856 70.1789 121.03C70.0745 121.169 70.1789 121.76 70.3876 122.317C70.666 123.082 71.3966 129.136 71.4314 131.293C71.4314 132.094 71.0487 142.601 70.9095 144.689C70.5268 151.334 70.7355 163.094 71.327 165.286C71.501 166.016 71.6054 166.608 71.501 166.608C71.3966 166.608 71.4662 166.817 71.7097 167.06C71.9185 167.339 72.1272 168.243 72.1968 169.148C72.3012 170.052 72.5447 170.992 72.7883 171.305C73.171 171.757 73.0319 171.827 71.8837 171.862C67.6042 172.036 65.8646 172.14 64.612 172.279C62.3505 172.523 58.6973 173.288 58.5233 173.566C58.3842 173.775 57.236 174.123 55.7399 174.401C54.6614 174.575 53.4436 175.028 51.7388 175.828C50.7994 176.315 49.3381 176.941 48.5379 177.289C47.7029 177.602 47.0418 177.985 47.0418 178.159C47.0418 178.298 46.7982 178.437 46.5199 178.437C46.2416 178.437 45.998 178.577 45.998 178.785C45.998 178.959 45.8936 179.098 45.7545 179.064C45.4065 178.959 42.7275 180.768 41.6837 181.777C41.301 182.16 40.3268 182.926 39.5614 183.482C38.1697 184.526 34.6556 188.04 33.9598 189.119C33.4031 189.989 32.4985 189.432 32.2202 188.04C32.1158 187.344 31.8722 186.788 31.7331 186.788C31.5591 186.788 31.2808 186.266 31.1068 185.674C30.898 185.048 30.1326 182.473 29.402 180.003C28.219 176.176 27.1752 172.314 26.6881 170.087C26.6533 169.809 26.4446 168.939 26.2358 168.174C26.0271 167.408 25.7835 165.599 25.6792 164.172C25.4356 160.658 24.9485 159.301 23.9047 159.301C22.4087 159.301 22.3043 159.928 22.861 164.381C23.1741 166.643 23.6264 169.148 23.8699 169.913C24.1483 170.679 24.7745 173.184 25.2964 175.48C25.8531 177.776 26.4098 179.794 26.549 180.003C26.7229 180.177 26.8621 180.734 26.8621 181.256C26.8621 181.777 27.1056 182.369 27.384 182.613C27.6623 182.856 27.9059 183.274 27.9059 183.517C27.9059 183.969 29.0192 187.414 29.7499 189.223C29.9586 189.71 30.1326 190.267 30.1674 190.476C30.3761 191.38 31.6983 194.024 32.0462 194.233C32.2549 194.372 32.4289 194.755 32.4289 195.138C32.4289 195.903 33.8206 198.617 34.2381 198.617C34.3773 198.617 34.5165 199 34.5165 199.452C34.5165 199.904 34.76 200.357 35.0384 200.496C35.3167 200.6 35.5602 200.983 35.5602 201.366C35.5602 201.748 35.769 202.201 36.0126 202.34C36.5344 202.688 38.3437 205.436 38.3437 205.924C38.3437 206.097 38.4828 206.271 38.6568 206.271C38.8308 206.271 39.3526 206.863 39.7701 207.559C40.8487 209.333 41.1271 209.646 42.4492 210.934C43.0754 211.525 43.9105 212.534 44.328 213.126C44.7107 213.752 45.1978 214.274 45.4065 214.274C45.6153 214.274 46.2068 214.726 46.6939 215.248C47.181 215.805 48.3987 216.848 49.4077 217.579C50.3819 218.344 51.2169 219.04 51.2169 219.18C51.2169 219.388 53.3392 220.85 54.1743 221.197C54.383 221.267 55.1485 221.754 55.9139 222.241C56.6793 222.728 58.1058 223.494 59.0452 223.911C60.0194 224.364 61.5851 225.129 62.5245 225.581C63.4987 226.068 64.5773 226.451 64.9252 226.451C65.2731 226.451 66.0385 226.66 66.63 226.938C69.0655 227.982 72.9623 229.026 73.4494 228.747C73.5885 228.643 74.3192 228.747 75.0846 228.921C76.4067 229.235 84.7569 230 86.8793 230C88.8277 230 94.4293 229.582 95.2643 229.374C95.7166 229.269 96.5864 229.095 97.2127 228.991C97.839 228.921 138.79 228.817 188.195 228.782C272.88 228.713 278.099 228.643 278.656 228.086C279.247 227.53 279.247 221.371 279.247 117.968C279.213 57.7071 279.108 7.98852 278.969 7.46663C278.795 6.70119 278.586 6.52723 277.821 6.63161C277.16 6.70119 276.812 6.97955 276.673 7.60581C276.534 8.09291 276.464 57.0461 276.464 116.402L276.499 224.329L274.411 223.146C273.263 222.52 271.384 221.476 270.236 220.884C269.088 220.258 268.009 219.527 267.87 219.284C267.731 219.006 267.383 218.797 267.14 218.797C266.409 218.797 262.408 216.744 262.408 216.361C262.408 216.187 262.199 216.013 261.921 216.013C261.642 216.013 260.842 215.457 260.112 214.796C259.416 214.135 258.685 213.578 258.511 213.578C258.372 213.578 258.302 210.829 258.441 207.385C258.615 201.261 258.894 185.883 258.894 181.569C258.894 180.316 258.894 179.133 258.894 178.959C258.963 178.298 258.998 170.679 258.963 169.739C258.929 167.756 258.581 135.99 258.615 135.295C258.65 134.807 258.65 134.181 258.615 133.903C258.615 133.625 258.511 127.501 258.407 120.334C258.059 90.0642 256.945 60.2122 256.11 58.7161C255.936 58.3682 255.902 57.8811 256.006 57.6028C256.11 57.2896 256.041 56.7677 255.867 56.4198C255.658 56.0719 255.449 54.6802 255.415 53.3581C255.345 52.0012 255.101 50.4355 254.858 49.844C254.614 49.2525 254.51 48.6611 254.614 48.5915C254.684 48.4871 254.51 47.8608 254.232 47.165C253.953 46.4691 253.814 45.6689 253.918 45.3558C254.058 45.0774 253.953 44.5903 253.71 44.312C253.466 44.0336 253.362 43.7901 253.501 43.7901C253.64 43.7901 253.501 43.3378 253.188 42.7463C252.909 42.1896 252.666 41.3894 252.666 40.9371C252.666 40.4848 252.179 39.1975 251.622 38.0493C251.031 36.9012 250.578 35.8226 250.578 35.6486C250.578 35.4747 250.196 34.8136 249.709 34.1874C249.221 33.5611 248.839 32.9 248.839 32.7261C248.839 32.5173 248.212 31.7867 247.447 31.056C246.682 30.3254 245.951 29.4556 245.847 29.1076C245.742 28.7597 245.429 28.4814 245.151 28.4814C244.872 28.4814 244.664 28.3422 244.664 28.203C244.664 28.0639 244.211 27.6464 243.62 27.3332C243.063 26.9853 242.402 26.533 242.159 26.2894C241.358 25.524 236.592 23.5756 235.13 23.4016C231.199 22.9841 229.703 22.9493 227.963 23.3321C226.919 23.5408 225.702 23.7148 225.284 23.68C224.867 23.6452 224.414 23.7844 224.31 23.9583C224.206 24.1671 223.823 24.3062 223.475 24.3062C223.162 24.3062 222.222 24.6194 221.422 25.0021C220.657 25.3848 219.856 25.698 219.683 25.698C219.543 25.698 218.848 26.1851 218.221 26.7417C217.56 27.3332 216.69 27.8899 216.273 27.9943C215.821 28.0987 215.403 28.4118 215.299 28.6901C215.194 28.9685 214.916 29.1772 214.638 29.1772C214.394 29.1772 213.211 30.1166 212.063 31.2996C210.88 32.4477 209.627 33.3871 209.28 33.3871C208.932 33.3523 207.888 33.3523 206.983 33.3175C205.974 33.3175 205.07 33.4915 204.722 33.8046C204.409 34.083 203.608 34.4657 203.017 34.6744C200.86 35.4051 199.051 37.0403 195.78 41.2155C193.936 43.5813 191.013 45.8776 189.831 45.8776C189.552 45.8776 189.343 46.0516 189.343 46.2604C189.343 46.4343 188.856 46.7823 188.3 46.9562C187.743 47.165 187.256 47.4781 187.256 47.6521C187.256 47.826 187.047 47.9652 186.769 47.9652C186.525 47.9652 185.238 48.6959 183.916 49.5657C182.594 50.4703 181.272 51.2705 180.993 51.4097C180.715 51.5141 179.601 52.1751 178.558 52.871C177.514 53.532 176.122 54.2975 175.531 54.541C174.905 54.8194 174.383 55.1325 174.383 55.3064C174.383 55.4804 174.209 55.6196 174 55.6196C173.791 55.6196 173.13 55.9675 172.539 56.4198C171.043 57.4636 170.207 57.9855 169.164 58.4726C168.677 58.7161 168.224 58.9945 168.12 59.0988C167.772 59.4468 164.954 61.2212 164.188 61.5343C163.319 61.917 162.101 62.6477 161.857 62.9608C161.753 63.0652 161.266 63.3783 160.779 63.6567C157.682 65.3615 153.82 68.0753 153.611 68.7364C153.437 69.2583 155.455 71.3806 156.952 72.1808C158.97 73.329 159.387 73.5726 160.048 74.164C160.396 74.4772 161.196 74.9295 161.788 75.1382C162.414 75.347 162.901 75.6601 162.901 75.8341C162.901 76.008 163.319 76.356 163.875 76.6343C164.397 76.9126 165.197 77.4693 165.65 77.852C166.102 78.2695 166.693 78.5827 166.972 78.5827C167.215 78.5827 167.424 78.7567 167.424 78.9306C167.424 79.1394 167.807 79.4525 168.294 79.6265C169.407 80.044 169.72 80.8442 169.233 81.8184C169.025 82.2359 168.885 83.0361 168.955 83.6276C169.303 86.4806 169.581 87.7679 170.034 88.6725C170.312 89.2292 170.555 89.9251 170.555 90.2034C170.555 90.4818 170.764 90.8645 171.043 91.0036C171.321 91.1428 172.121 92.0126 172.817 92.9172C173.513 93.8566 174.278 94.5873 174.557 94.5873C174.8 94.5873 175.531 95.0048 176.122 95.4919C176.714 96.0138 177.862 96.5704 178.662 96.7444C180.854 97.2315 185.864 97.4403 186.316 97.0923C186.56 96.9184 187.465 96.64 188.369 96.5356C189.239 96.3965 190.144 96.0833 190.387 95.805C190.596 95.5615 191.153 95.2483 191.605 95.1439C192.475 94.9352 194.632 96.1529 198.076 98.832C198.772 99.3539 199.572 99.8062 199.851 99.8062C200.129 99.8062 200.721 100.189 201.173 100.676C201.59 101.128 202.112 101.441 202.251 101.337C202.425 101.233 202.565 101.302 202.565 101.511C202.565 101.72 203.191 102.207 203.922 102.59C205.035 103.146 205.487 103.216 206.357 102.903C207.47 102.52 207.714 102.068 207.923 99.6322C207.992 98.8668 208.166 97.4403 208.271 96.5009C208.688 92.8476 208.862 90.8297 209.036 88.1506C209.28 84.567 209.314 84.0451 209.627 83.558C209.767 83.3493 209.801 82.6882 209.732 82.1315C209.662 81.5401 209.767 80.2179 209.906 79.2089C210.08 78.2 210.289 76.2168 210.393 74.8251C210.497 73.4334 210.741 71.1719 210.984 69.7801C211.437 66.7532 211.611 64.944 211.611 63.2044C211.576 62.4737 211.75 61.2212 211.959 60.4557C212.167 59.6555 212.341 57.8115 212.341 56.3502C212.341 54.5758 212.515 53.4624 212.863 52.9058C213.142 52.4535 213.316 51.8968 213.246 51.688C213.176 51.4445 213.35 50.7138 213.629 50.0528C213.907 49.3917 214.29 48.4523 214.498 47.9652C214.672 47.4781 214.916 46.4691 214.951 45.7037C215.02 44.9382 215.264 43.6509 215.473 42.8159C215.786 41.7025 215.786 41.1459 215.473 40.5544C215.264 40.1369 215.055 39.4758 214.986 39.0931C214.846 38.1189 214.116 36.8316 213.107 35.753L212.237 34.8136L214.464 33.0044C215.647 31.9954 216.725 31.0212 216.76 30.8821C216.83 30.7081 217.108 30.5689 217.351 30.5689C217.595 30.5689 218.291 30.1862 218.848 29.6991C219.439 29.212 220.03 28.8293 220.239 28.8293C220.413 28.8293 220.761 28.6205 220.97 28.3422C221.179 28.0986 222.083 27.6811 222.918 27.4376C223.788 27.194 224.588 26.8461 224.693 26.6722C224.797 26.533 225.041 26.4634 225.215 26.5678C225.389 26.7069 225.702 26.6721 225.945 26.533C227.024 25.8719 231.095 25.5936 233.147 26.0459C234.226 26.2546 235.896 26.6374 236.835 26.8113C239.34 27.368 245.012 31.2996 245.012 32.5173C245.012 32.7261 245.255 33.0044 245.533 33.1436C245.812 33.248 246.055 33.5611 246.055 33.8046C246.055 34.083 246.334 34.5353 246.682 34.8484C246.995 35.1615 247.517 35.927 247.83 36.5532C249.013 38.9191 249.883 41.0067 249.883 41.5286C249.883 41.8069 250.161 42.7811 250.544 43.6857C251.1 45.147 252.562 51.6532 252.875 54.2627C253.153 56.6286 253.431 59.0988 253.536 60.9776C253.605 62.1258 253.779 63.4479 253.884 63.935C253.988 64.4221 254.127 66.4749 254.232 68.4928C254.336 70.5108 254.475 73.3986 254.58 74.9294C254.927 79.9048 255.415 100.015 255.658 119.464C255.728 127.118 255.832 133.625 255.832 133.903C255.832 134.181 255.832 135.121 255.797 135.99C255.762 136.86 255.867 141.314 255.971 145.906C256.076 150.499 256.145 154.813 256.11 155.474C256.076 156.135 256.076 156.936 256.076 157.214C256.11 157.945 256.215 181.917 256.18 182.786C256.18 183.169 256.145 183.865 256.11 184.352C256.076 185.431 256.041 187.797 256.11 190.093C256.18 193.711 255.554 212.43 255.31 213.404C255.101 214.204 249.535 217.753 248.491 217.753C248.108 217.753 247.795 217.927 247.795 218.101C247.795 218.31 246.194 219.249 244.246 220.223C242.263 221.163 239.897 222.38 238.923 222.868C237.983 223.355 236.87 223.911 236.522 224.12C236.139 224.294 235.2 224.816 234.4 225.268C233.565 225.721 232.834 225.964 232.695 225.86C232.347 225.512 232.451 222.346 232.834 222.102C233.043 221.963 233.112 221.754 233.008 221.58C232.904 221.441 233.078 220.293 233.391 219.075C233.704 217.892 233.948 216.431 233.948 215.839C233.948 215.283 234.087 214.622 234.261 214.378C234.469 214.169 234.574 213.682 234.504 213.334C234.469 212.986 234.539 212.534 234.678 212.325C234.817 212.082 234.991 210.934 235.061 209.716C235.235 207.106 235.618 205.193 236 204.671C236.174 204.497 236.279 203.627 236.279 202.757C236.244 201.922 236.418 200.774 236.627 200.252C236.835 199.696 236.905 199.104 236.8 198.93C236.696 198.721 236.766 198.374 236.974 198.13C237.183 197.886 237.496 196.251 237.705 194.442C237.914 192.668 238.192 191.032 238.331 190.824C238.471 190.615 238.61 190.058 238.645 189.571C238.784 187.831 239.514 183.761 240.175 180.873C240.523 179.238 240.836 177.394 240.836 176.802C240.836 176.176 241.01 175.584 241.184 175.48C241.393 175.341 241.463 174.958 241.358 174.61C241.254 174.262 241.324 173.88 241.532 173.74C241.741 173.601 241.845 173.323 241.776 173.079C241.706 172.871 241.845 171.374 242.124 169.739C242.367 168.104 242.68 166.156 242.75 165.39C242.924 163.825 243.933 158.71 244.211 157.91C244.316 157.631 244.455 157.075 244.49 156.692C244.559 156.309 244.698 155.439 244.803 154.778C244.907 154.117 245.046 153.074 245.151 152.482C245.916 147.124 246.194 145.698 246.612 144.236C246.89 143.332 247.03 142.427 246.925 142.253C246.821 142.079 246.89 141.87 247.03 141.766C247.203 141.662 247.343 140.931 247.343 140.166C247.343 139.4 247.517 138.6 247.725 138.356C247.899 138.113 248.108 136.791 248.178 135.469C248.247 134.112 248.386 132.859 248.491 132.685C248.943 132.024 249.221 130.598 249.395 127.953C249.639 124.613 249.813 124.752 245.359 124.335C244.107 124.231 242.472 124.057 241.706 123.952C240.941 123.848 239.758 123.743 239.097 123.674C238.436 123.604 237.322 123.465 236.661 123.361C234.852 123.013 234.226 123.674 233.808 126.492C233.6 127.779 233.321 129.171 233.182 129.554C232.591 131.015 232.486 131.607 232.277 134.007C232.173 135.399 231.93 136.791 231.756 137.139C231.547 137.452 231.512 137.904 231.616 138.078C231.721 138.252 231.651 138.461 231.442 138.6C231.268 138.704 231.095 139.4 231.095 140.096C231.095 140.792 230.921 141.94 230.712 142.601C230.538 143.262 230.294 144.271 230.225 144.863C230.016 146.602 229.32 150.395 229.111 150.951C229.007 151.23 228.833 151.786 228.798 152.169C228.729 152.552 228.45 153.943 228.172 155.3C227.72 157.492 227.476 158.814 227.059 161.389C226.989 161.876 226.815 162.642 226.711 163.129C226.571 163.616 226.432 164.555 226.398 165.251C226.363 165.947 226.189 166.712 226.05 166.956C225.876 167.199 225.771 167.965 225.806 168.626C225.841 169.322 225.702 170.052 225.528 170.261C225.215 170.644 224.762 173.01 224.31 176.663C224.206 177.498 224.032 178.333 223.927 178.507C223.823 178.681 223.579 179.69 223.44 180.803C223.266 181.882 223.023 183.239 222.883 183.83C222.744 184.387 222.675 185.152 222.675 185.465C222.675 185.813 222.57 186.161 222.396 186.266C222.222 186.37 222.153 186.927 222.257 187.449C222.396 188.005 222.292 188.562 222.083 188.666C221.874 188.806 221.701 189.745 221.701 190.789C221.701 191.833 221.561 192.772 221.353 192.876C221.179 192.981 221.039 193.433 221.039 193.851C221.074 194.268 220.761 196.112 220.378 197.921C219.996 199.73 219.752 201.331 219.857 201.505C219.926 201.644 219.787 202.131 219.543 202.549C219.265 202.966 219.021 203.94 218.952 204.671C218.917 205.436 218.778 206.202 218.674 206.411C218.534 206.585 218.465 207.35 218.534 208.081C218.569 208.811 218.465 209.403 218.256 209.403C218.082 209.403 217.839 210.307 217.699 211.421C217.491 213.334 217.421 213.439 216.551 213.369C216.029 213.334 215.125 213.265 214.498 213.265L213.385 213.23L213.42 210.621C213.489 207.211 213.176 206.863 210.149 206.967C208.932 207.002 207.818 207.002 207.61 207.002C205.139 206.793 185.412 206.828 185.307 207.037C185.203 207.211 184.96 207.246 184.786 207.106C184.577 207.002 180.645 206.933 176.018 206.933C171.39 206.967 166.833 206.967 165.858 206.933C164.919 206.898 160.326 206.898 155.664 206.863C148.845 206.863 147.105 206.967 146.723 207.35C146.375 207.663 146.201 208.777 146.166 210.621L146.096 213.404L140.042 213.439C136.737 213.474 134.023 213.334 134.023 213.195C134.023 213.021 134.371 212.708 134.823 212.499C135.241 212.291 135.832 211.873 136.111 211.63C137.85 210.064 139.207 209.055 139.52 209.055C139.729 209.055 140.112 208.777 140.355 208.394C140.599 208.046 141.295 207.454 141.852 207.106C142.443 206.724 143.243 206.167 143.591 205.819C145.296 204.288 147.349 202.792 147.801 202.792C148.079 202.792 148.288 202.618 148.288 202.444C148.288 202.236 148.636 201.922 149.088 201.748C150.097 201.296 151.802 200.009 152.394 199.209C152.637 198.895 153.124 198.617 153.472 198.617C153.82 198.617 154.377 198.304 154.725 197.921C155.073 197.539 155.629 197.225 155.943 197.225C156.29 197.225 156.743 196.982 156.986 196.703C157.23 196.425 157.682 196.182 157.995 196.182C158.308 196.182 158.726 196.042 158.935 195.868C159.109 195.695 160.361 195.173 161.683 194.686C163.701 193.99 164.571 193.851 166.728 193.99C169.477 194.129 171.182 194.303 171.356 194.442C171.39 194.477 171.704 194.546 172.052 194.616C172.399 194.686 172.991 194.999 173.304 195.277C173.652 195.59 174.174 195.834 174.487 195.834C174.8 195.834 175.218 196.147 175.426 196.53C175.635 196.912 175.948 197.225 176.157 197.225C176.54 197.225 177.131 197.678 178.801 199.243C179.462 199.835 180.158 200.357 180.332 200.357C180.506 200.357 180.75 200.6 180.854 200.844C180.958 201.122 181.933 202.027 183.011 202.827C184.125 203.662 185.064 204.393 185.168 204.532C185.273 204.636 186.247 205.019 187.325 205.402C189.761 206.202 190.596 205.889 192.057 203.592C192.962 202.166 193.519 201.714 193.519 202.444C193.519 202.618 194.04 202.862 194.667 202.966C195.536 203.14 196.198 203.001 197.207 202.444C199.329 201.261 199.259 201.4 199.642 198.2C199.816 196.703 199.92 196.564 200.964 196.39C202.773 196.042 204.896 194.024 205.07 192.459C205.278 190.719 204.478 188.388 202.982 186.44C201.938 185.083 201.904 184.874 202.46 184.77C203.678 184.561 205.278 183.656 205.522 183.065C205.661 182.717 205.731 181.534 205.696 180.386C205.661 178.542 205.487 178.194 204.061 176.385C201.869 173.706 200.721 172.557 200.233 172.523C199.99 172.523 199.781 172.383 199.781 172.244C199.781 171.653 194.771 168.939 190.561 167.269C190.178 167.13 189.1 166.643 188.126 166.225C187.186 165.773 186.038 165.39 185.586 165.355C185.168 165.355 184.438 165.147 184.02 164.938C182.594 164.242 179.915 163.477 179.567 163.685C179.358 163.79 179.045 163.72 178.801 163.546C178.558 163.372 177.688 163.198 176.818 163.163C175.948 163.163 174.731 162.989 174.139 162.816C173.513 162.642 172.921 162.607 172.852 162.746C172.747 162.885 171.53 162.816 170.138 162.572C168.746 162.328 166.728 162.224 165.684 162.328C164.641 162.398 163.527 162.502 163.249 162.468C162.24 162.468 156.464 163.198 155.943 163.407C155.664 163.511 155.038 163.651 154.551 163.651C153.403 163.72 151.837 164.138 150.55 164.694C148.671 165.495 144.287 166.747 143.696 166.643C143.348 166.608 143.069 166.677 143.069 166.851C143.069 166.991 142.547 167.339 141.956 167.617C141.33 167.86 139.973 168.452 138.929 168.904C137.92 169.357 136.876 169.739 136.667 169.739C136.25 169.739 133.954 170.853 133.223 171.375C132.979 171.548 132.04 172.001 131.066 172.349C130.126 172.697 128.944 173.253 128.491 173.636C128.039 173.984 127.378 174.262 127.03 174.262C126.647 174.262 126.369 174.436 126.369 174.645C126.369 174.819 126.23 174.923 126.056 174.819C125.882 174.715 125.569 174.854 125.325 175.132C125.082 175.41 124.664 175.654 124.386 175.654C124.142 175.654 123.585 175.967 123.168 176.35C122.75 176.733 122.124 177.046 121.811 177.046C121.463 177.046 121.15 177.185 121.08 177.324C120.976 177.637 116.488 179.829 115.966 179.829C115.792 179.829 115.479 180.073 115.235 180.351C114.992 180.629 114.296 180.942 113.635 181.082C113.009 181.186 112.313 181.499 112.069 181.777C111.86 182.056 111.547 182.16 111.373 182.056C111.199 181.951 110.538 182.195 109.877 182.578C109.251 182.995 108.416 183.308 108.033 183.308C107.685 183.308 107.233 183.448 107.024 183.587C106.398 184.178 101.91 185.396 100.17 185.465C99.6482 185.5 99.1263 185.605 99.0567 185.744C98.9175 185.953 95.4731 185.883 93.142 185.57C92.3765 185.5 91.4023 185.396 90.9848 185.396C88.8277 185.361 82.3215 181.708 80.6862 179.586C80.2687 179.064 79.8164 178.437 79.6772 178.263C79.5033 178.055 79.0162 177.463 78.5291 176.941C78.042 176.419 77.6593 175.758 77.6593 175.515C77.6593 175.271 77.3461 174.715 76.9634 174.262C76.5807 173.845 76.3371 173.358 76.4415 173.219C76.5111 173.079 76.3023 172.314 75.9196 171.548C75.5369 170.748 75.2238 169.878 75.2238 169.565C75.2238 169.287 75.0846 168.765 74.9107 168.417C73.9713 166.677 73.5537 161.041 73.6581 152.169C73.7277 147.194 73.8321 139.365 73.9017 134.773C73.9365 130.18 73.9017 126.04 73.7625 125.553C73.6233 125.066 73.3798 123.5 73.171 122.073C72.8579 119.603 72.162 117.133 71.6401 116.646C71.501 116.507 71.3966 116.089 71.3966 115.741C71.3966 115.393 71.2574 115.115 71.0487 115.115C70.8747 115.115 70.7007 114.732 70.7007 114.28C70.7007 113.793 70.5268 113.306 70.318 113.167C70.1093 113.062 69.657 112.297 69.2743 111.496C68.1957 109.235 67.7434 108.539 66.2821 106.973C65.5514 106.208 64.5077 105.06 63.9858 104.468L63.0116 103.39L63.951 101.163C64.4729 99.9453 65.0991 98.6928 65.3775 98.3797C65.621 98.1013 65.8298 97.6838 65.8298 97.475C65.8298 96.8488 67.1519 94.0654 67.9173 93.0912C68.3001 92.6041 68.5784 92.0822 68.5436 91.9082C68.5088 91.7691 68.822 90.8993 69.2395 90.0294C69.9701 88.429 70.0049 88.429 71.4662 88.5682C75.4673 88.9857 80.1991 88.7073 82.6694 87.9419C84.0263 87.4896 85.3832 86.9677 85.6616 86.7589C85.9399 86.5154 87.0185 85.8891 88.0622 85.3324C91.8198 83.3145 96.0297 77.017 96.7952 72.2852C96.9691 70.9979 97.3867 69.3974 97.665 68.7016C98.3956 66.9272 98.9175 54.6454 98.4304 51.0965C98.2913 50.2267 98.1173 47.7912 98.0129 45.7037C97.9433 43.5813 97.6998 40.7631 97.491 39.441C97.3171 38.0841 97.0735 36.4489 97.0039 35.7878C96.8996 35.1267 96.83 34.5005 96.7952 34.3961C96.7256 34.2917 96.7256 34.083 96.7604 33.9438C96.7952 33.7698 96.482 32.5173 96.0993 31.1256C95.7166 29.7339 95.4035 28.203 95.4035 27.6811C95.4035 27.1592 95.2643 26.7417 95.1251 26.7417C94.9512 26.7417 94.6032 26.0807 94.3597 25.2457C93.7334 23.1581 90.5673 16.6519 90.1846 16.6519C90.0454 16.6519 89.6975 16.13 89.4887 15.4689C89.28 14.8079 88.9321 14.1816 88.6885 14.112C88.3754 14.0077 88.3754 13.8337 88.7233 13.4858C89.3844 12.7899 89.2104 10.5284 88.4102 8.89315C87.6099 7.36227 84.9309 4.47447 84.2699 4.47447C84.0611 4.47447 83.8175 4.23093 83.7132 3.95259C83.574 3.67425 83.3304 3.43069 83.1565 3.43069C82.9825 3.43069 82.3911 3.15237 81.904 2.80445C81.3821 2.45652 80.5123 2.00421 79.9208 1.79545C79.3641 1.5867 78.5639 1.27357 78.1811 1.1344C77.7984 0.995227 77.033 0.85604 76.4763 0.821248C75.9196 0.751663 75.3977 0.57772 75.2586 0.368965C74.9454 -0.187716 63.2203 -0.0833415 61.3068 0.47334ZM88.5145 19.0874C89.2452 20.5138 90.1498 22.1491 90.5325 22.7406C90.8804 23.2973 91.1936 24.1323 91.1936 24.5498C91.2284 24.9673 91.4719 25.524 91.7503 25.8023C92.0286 26.0807 92.4461 27.0897 92.6549 28.0291C92.8636 28.9337 93.2115 30.2558 93.3855 30.9516C93.5943 31.6475 93.6638 32.3781 93.5247 32.5869C93.4203 32.7608 93.5595 33.4915 93.8378 34.1874C94.1509 34.8832 94.4293 36.4489 94.5337 37.6318C94.6032 38.8148 94.7772 40.6588 94.8816 41.7025C95.0208 42.7463 95.1599 44.2424 95.2295 45.0078C95.2991 45.7733 95.3687 46.4691 95.4035 46.5735C95.5079 46.7823 95.6122 49.4265 95.821 56.1067C95.9602 59.5859 95.8558 60.6645 95.4731 61.0472C95.2295 61.3256 94.9164 61.5343 94.7772 61.5691C92.5157 61.917 91.7155 61.7779 90.6369 60.9776C90.0106 60.4906 89.4887 59.8991 89.4887 59.6555C89.4887 59.3772 89.106 58.9249 88.6537 58.6465C87.9579 58.1942 87.7143 58.1594 87.2272 58.5422C86.2182 59.2728 86.7749 61.082 88.5145 62.5433C90.3586 64.1438 91.6459 64.5961 93.9422 64.4221C95.7166 64.2829 95.7862 64.2829 95.5774 65.0832C95.3339 66.0573 94.8468 68.3885 94.3249 70.9283C94.1162 71.9721 93.7334 73.2942 93.4899 73.8857C93.2463 74.4424 92.8288 75.4861 92.6201 76.1472C92.3765 76.8083 91.9938 77.5041 91.7503 77.7129C91.5415 77.8868 90.7065 78.9654 89.9062 80.044C89.0364 81.2269 87.7839 82.4099 86.7749 83.0013C85.8703 83.5232 85.0701 84.0451 84.9657 84.1843C84.7917 84.393 83.1565 84.9845 82.9825 84.9149C82.9129 84.8801 82.3911 85.0889 81.7648 85.3324C80.1295 85.9935 71.0487 86.2371 70.2484 85.6456C70.0049 85.4716 69.309 85.2977 68.648 85.2629C67.2563 85.1585 63.4291 84.0103 61.4459 83.0709C59.6715 82.2359 59.4627 82.2359 58.7321 83.0709C58.1754 83.6972 58.1754 83.8016 58.9061 85.3672C59.3932 86.411 59.9846 87.1069 60.5761 87.3504C61.0632 87.5244 61.7591 87.9419 62.107 88.2202C62.8376 88.9161 63.951 89.5771 65.2383 90.099C66.3517 90.5513 66.3865 90.7253 65.5514 91.8387C65.2035 92.291 64.5773 93.4391 64.1249 94.4133C63.6726 95.3527 63.0812 96.6052 62.8376 97.1271C62.5593 97.6838 62.3505 98.3449 62.3505 98.6232C62.3505 98.9016 62.2114 99.1103 62.0722 99.1103C61.8982 99.1103 61.5851 99.493 61.3763 99.9801C60.9936 100.78 60.8197 100.85 59.2192 100.711C58.245 100.641 57.3404 100.502 57.236 100.363C57.1316 100.258 56.6793 100.258 56.2618 100.363C55.8095 100.467 55.3572 100.398 55.2528 100.189C55.1137 99.9801 54.5918 99.8062 54.0699 99.8062C52.6434 99.7714 48.3291 97.5446 46.5547 95.8746C45.998 95.3527 45.4065 94.9352 45.2674 94.9352C44.9195 94.9352 43.2146 93.3695 43.2146 93.0912C43.2146 92.952 42.484 92.117 41.6142 91.2124C40.7095 90.273 39.7354 88.8813 39.3874 88.1159C39.0395 87.3156 38.622 86.6198 38.448 86.5502C38.0305 86.3414 36.604 83.4884 36.604 82.8274C36.604 81.9924 37.6826 79.2785 38.0305 79.2785C38.2045 79.2785 38.3437 79.0698 38.3437 78.8262C38.3437 78.5827 38.6916 77.6781 39.1439 76.8083L39.9093 75.2426H42.484C44.9194 75.2078 45.0934 75.173 46.3459 73.9901C47.2853 73.0855 47.8072 72.1461 48.2595 70.7196C48.5727 69.5714 49.0946 67.9709 49.3729 67.1011C49.686 66.2313 50.034 64.6656 50.2079 63.6219C50.3471 62.5781 50.6602 60.6297 50.9038 59.3076L51.3213 56.8721L50.3471 56.0371C49.4425 55.2717 48.19 55.1325 46.5199 55.6196C45.998 55.7935 42.0317 55.2369 41.6489 54.9237C41.475 54.7846 40.7443 54.4714 40.0833 54.2627C38.3784 53.706 37.0911 52.4534 35.943 50.3311C34.76 48 34.7252 45.0078 35.9082 42.9899C36.3257 42.294 36.8128 41.7025 36.9519 41.7025C37.1259 41.7025 37.3695 41.3894 37.4738 40.9719C37.613 40.5892 38.1349 40.0673 38.622 39.8585C39.1439 39.615 40.0137 39.1279 40.5356 38.78C41.3706 38.2233 41.8925 38.1537 44.6759 38.3625C46.4503 38.5016 48.1204 38.78 48.3987 39.0235C48.6423 39.2671 49.5817 39.7542 50.4515 40.1717C51.9823 40.8675 52.0171 40.8675 54.1395 40.2065C55.2876 39.8237 56.5054 39.3367 56.7837 39.0931C57.0621 38.8496 57.8971 38.3973 58.6277 38.0841C61.6547 36.762 62.4897 36.3793 62.8376 36.1009C64.786 34.5353 65.7254 33.8742 68.4392 32.0998C70.1789 30.9864 71.6749 30.0818 71.8489 30.047C71.9881 30.047 73.1014 29.1424 74.3192 28.0291C75.5717 26.9505 76.6851 26.0459 76.859 26.0459C77.1026 26.0459 78.9466 24.4106 82.4606 21.1053C83.2609 20.3399 83.9219 19.5397 83.9219 19.3657C83.9219 19.1918 84.409 18.6351 84.9657 18.148C85.5572 17.6957 86.0095 17.0694 86.0095 16.7563C86.0095 15.5385 87.262 16.6867 88.5145 19.0874ZM211.332 37.5622C211.854 38.2233 212.307 39.1975 212.341 39.789C212.446 42.7811 212.341 45.1122 212.028 45.8776C211.854 46.3647 211.576 47.4085 211.437 48.2088C211.089 50.4355 210.602 50.6094 208.688 49.1482C207.783 48.4523 206.948 48 206.844 48.1044C206.705 48.2088 206.427 48 206.148 47.6173C205.87 47.2346 205.452 46.9214 205.209 46.9214C204.93 46.9214 204.548 46.7127 204.339 46.4343C204.095 46.156 203.539 45.8429 203.086 45.7385C202.599 45.5993 201.312 44.9382 200.164 44.2076L198.076 42.8855L199.016 41.7025C200.651 39.5802 202.704 37.8406 204.478 36.9708C205.87 36.2749 206.601 36.1357 208.271 36.2749C210.115 36.3793 210.463 36.5185 211.332 37.5622ZM197.485 45.7037C198.181 46.0168 198.842 46.4691 198.946 46.7475C199.051 46.991 199.746 47.4433 200.477 47.7565C201.208 48.0348 201.904 48.4523 202.043 48.6611C202.147 48.835 202.565 49.009 202.947 49.009C203.295 49.009 203.887 49.3221 204.2 49.7048C204.548 50.0876 205 50.4007 205.209 50.4007C205.418 50.4007 206.218 50.8182 206.983 51.3401C207.714 51.8968 208.653 52.4883 209.001 52.697C209.488 52.9406 209.662 53.4277 209.627 54.2627C209.558 56.6286 209.106 61.3604 208.932 61.6387C208.827 61.8127 208.688 63.0652 208.619 64.4221C208.549 65.8138 208.41 67.5534 208.305 68.3189C208.201 69.0843 208.062 70.7196 207.992 71.9721C207.888 73.2246 207.679 75.173 207.505 76.3212C207.122 78.5479 207.122 78.7219 206.948 81.9228C206.879 83.1057 206.705 84.2539 206.601 84.4626C206.461 84.6714 206.253 86.5154 206.148 88.5682C206.044 90.6209 205.87 92.6041 205.696 93.0216C205.557 93.4043 205.522 94.2741 205.592 94.97C205.696 95.6658 205.592 96.3269 205.418 96.4661C205.209 96.5704 205.139 97.2663 205.244 98.0317C205.348 98.7624 205.278 99.4582 205.104 99.5626C204.757 99.7714 201.556 97.9274 200.964 97.1619C200.581 96.6748 194.388 92.8476 193.971 92.8476C193.866 92.8476 193.24 92.3605 192.579 91.8039C191.953 91.2124 191.187 90.7601 190.909 90.7601C190.631 90.7601 190.213 90.447 189.97 90.0642C189.726 89.6815 189.309 89.3684 189.065 89.3684C188.822 89.3684 188.091 88.9857 187.465 88.4986C186.838 88.0115 186.143 87.6288 185.969 87.6288C185.76 87.6288 185.377 87.3852 185.134 87.0721C184.89 86.7589 184.368 86.3762 183.951 86.2022C182.837 85.7152 181.898 85.0541 181.585 84.567C181.446 84.3583 181.098 84.1495 180.819 84.1495C180.541 84.1495 180.193 83.9407 180.054 83.6972C179.915 83.4188 179.323 83.0013 178.732 82.723C176.888 81.7836 175.948 81.1921 175.67 80.7398C175.531 80.5311 175.183 80.3223 174.939 80.3223C174.661 80.3223 174.383 80.0788 174.243 79.8004C174.139 79.5221 173.826 79.2785 173.548 79.2785C172.956 79.2785 169.164 76.8431 169.164 76.4603C169.164 76.2864 168.955 76.1472 168.677 76.1472C168.398 76.1472 167.702 75.7645 167.146 75.2774C166.554 74.7903 165.858 74.4076 165.545 74.4076C165.232 74.4076 164.989 74.2684 164.989 74.0596C164.989 73.8857 164.328 73.3986 163.527 72.9811C162.692 72.5636 161.788 72.0069 161.509 71.7285C161.231 71.4502 160.292 70.8587 159.422 70.4064C158.552 69.9889 157.856 69.3974 157.856 69.1539C157.856 68.8756 158.691 68.2493 159.7 67.7274C160.674 67.1707 161.823 66.4401 162.205 66.0573C162.588 65.6746 163.11 65.3615 163.353 65.3615C163.632 65.3615 164.293 64.9788 164.849 64.4917C165.406 64.0046 166.833 63.1348 167.981 62.5781C169.164 62.0214 170.312 61.2908 170.555 61.0124C170.834 60.6993 171.599 60.1774 172.26 59.8295C175.461 58.1942 176.018 57.8811 177.166 56.9417C177.827 56.4198 178.558 55.9675 178.766 55.9675C179.01 55.9675 179.254 55.8631 179.323 55.6892C179.393 55.55 180.332 54.9933 181.445 54.4366C182.594 53.8799 183.707 53.2189 183.916 52.9753C184.646 52.2447 188.056 50.1571 188.995 49.8788C189.483 49.7396 190.422 49.1482 191.118 48.6263C191.814 48.0696 192.544 47.6173 192.718 47.6173C192.927 47.6173 193.345 47.3042 193.692 46.9214C194.04 46.5387 194.528 46.2256 194.736 46.2256C194.98 46.2256 195.363 45.982 195.606 45.7037C196.128 45.0774 195.954 45.0774 197.485 45.7037ZM174.035 82.9666C174.8 83.4884 175.426 84.0103 175.426 84.1495C175.426 84.2539 176.122 84.7062 176.957 85.1237C177.792 85.5412 178.662 86.1327 178.906 86.411C179.149 86.6894 179.532 86.9329 179.741 86.9329C179.949 86.9677 180.68 87.42 181.341 87.9767C182.002 88.5681 182.768 89.0204 183.081 89.0204C183.394 89.0204 184.09 89.4728 184.646 90.0642C185.168 90.6209 186.038 91.1776 186.525 91.282C187.012 91.3864 187.882 91.8734 188.439 92.3257L189.448 93.126L188.439 93.6479C187.882 93.9262 187.221 94.0654 186.978 93.9958C186.734 93.8914 186.351 93.9958 186.108 94.1697C185.099 95.0396 179.323 94.6569 178.523 93.6827C178.314 93.4043 177.862 93.1956 177.514 93.1956C176.957 93.1956 175.844 92.2562 174.313 90.4469C173.965 90.0294 173.687 89.6467 173.687 89.5423C173.687 89.438 173.374 89.0205 173.026 88.6377C172.26 87.8027 171.425 83.8712 171.773 82.7926C172.052 81.8532 172.365 81.888 174.035 82.9666ZM171.773 165.355C175.635 165.599 179.532 166.225 179.81 166.643C179.915 166.817 180.123 166.886 180.263 166.817C180.61 166.573 182.489 167.095 185.342 168.174C186.699 168.695 188.578 169.391 189.552 169.739C190.526 170.087 191.64 170.539 191.988 170.713C192.336 170.922 192.892 171.166 193.171 171.27C194.841 171.931 198.772 174.645 200.512 176.35C202.46 178.263 203.226 179.794 202.843 181.116L202.565 182.23L201.208 181.743C200.442 181.499 199.781 181.36 199.677 181.43C199.607 181.499 199.329 181.36 199.085 181.047C198.842 180.768 198.494 180.525 198.285 180.525C198.111 180.525 197.207 180.003 196.302 179.342C193.936 177.637 189.587 175.306 188.787 175.306C188.404 175.306 187.917 175.48 187.708 175.689C187.151 176.245 188.056 177.568 189.343 178.089C189.935 178.333 190.387 178.646 190.387 178.785C190.387 178.994 191.988 179.899 192.475 179.968C192.579 180.003 193.031 180.351 193.519 180.768C193.971 181.221 194.528 181.569 194.771 181.569C194.98 181.569 195.919 182.369 196.859 183.343C197.798 184.283 198.842 185.396 199.225 185.744C199.572 186.092 200.06 186.753 200.303 187.205C202.043 190.336 202.53 191.485 202.251 191.763C202.077 191.937 202.008 192.285 202.112 192.563C202.251 192.946 200.268 194.094 199.398 194.094C199.12 194.094 198.32 192.807 197.659 191.206C197.45 190.684 197.172 190.267 196.998 190.267C196.859 190.267 196.058 189.362 195.223 188.249C193.519 185.987 192.196 184.7 191.64 184.7C191.431 184.7 190.735 184.178 190.109 183.517C189.483 182.856 188.613 182.195 188.195 182.056C187.778 181.917 186.838 181.43 186.143 181.012C184.612 180.038 183.255 179.933 182.942 180.734C182.663 181.43 184.333 183.761 184.925 183.552C185.412 183.378 188.265 185.257 188.926 186.161C189.169 186.509 189.517 186.788 189.691 186.788C190.109 186.788 193.519 190.023 193.519 190.406C193.519 190.58 194.006 191.241 194.562 191.902C195.154 192.528 195.606 193.259 195.606 193.468C195.606 193.677 195.85 194.129 196.128 194.442C196.441 194.79 196.754 196.042 196.893 197.295C197.067 199.417 197.033 199.626 196.337 199.974C195.919 200.218 195.258 200.287 194.841 200.148C193.553 199.765 189.691 195.381 189.691 194.338C189.691 194.024 189.413 193.711 189.1 193.572C188.752 193.468 187.847 192.598 187.082 191.659C186.316 190.719 185.551 189.919 185.377 189.919C185.203 189.919 184.438 189.397 183.637 188.771C182.837 188.145 181.828 187.449 181.341 187.205C180.854 186.962 180.089 186.544 179.601 186.266C178.279 185.5 176.922 185.605 176.644 186.474C176.505 186.892 176.54 187.309 176.714 187.449C176.888 187.553 178.384 188.562 180.019 189.675C181.689 190.789 183.15 191.833 183.29 192.041C183.394 192.25 183.881 192.528 184.333 192.702C184.82 192.911 185.273 193.294 185.412 193.607C185.516 193.92 186.108 194.651 186.699 195.277C187.291 195.868 188.091 196.982 188.439 197.747C188.787 198.513 189.239 199.417 189.378 199.73C189.552 200.078 189.691 200.913 189.691 201.574C189.691 202.618 189.587 202.792 188.926 202.757C186.978 202.688 185.795 201.888 182.002 198.269C178.836 195.242 178.384 194.894 177.549 194.616C177.131 194.512 176.818 194.233 176.818 194.059C176.818 193.677 174.452 192.598 172.295 192.007C171.425 191.763 170.486 191.485 170.208 191.38C169.755 191.241 167.737 190.998 166.032 190.893C164.362 190.824 156.917 193.155 155.734 194.129C155.421 194.372 154.934 194.616 154.655 194.651C154.377 194.72 153.785 195.033 153.368 195.416C152.985 195.764 152.394 196.182 152.115 196.321C151.037 196.808 150.132 197.434 149.158 198.339C148.567 198.895 147.94 199.313 147.697 199.313C147.453 199.313 147.14 199.522 147.001 199.765C146.862 200.009 145.783 200.809 144.635 201.574C143.487 202.305 142.13 203.349 141.643 203.906C141.156 204.427 140.564 204.88 140.355 204.88C140.112 204.88 139.938 205.019 139.938 205.228C139.938 205.402 139.555 205.645 139.103 205.784C138.616 205.889 137.99 206.376 137.676 206.828C137.398 207.28 137.015 207.663 136.841 207.663C136.667 207.663 135.137 208.707 133.432 209.959C131.762 211.212 130.126 212.36 129.848 212.465C129.57 212.569 128.874 213.021 128.352 213.474C127.795 213.926 127.134 214.274 126.891 214.274C126.612 214.274 126.195 214.552 125.951 214.865C125.499 215.491 122.611 217.057 121.95 217.057C121.776 217.057 121.324 217.37 120.976 217.753C120.628 218.136 120.141 218.449 119.932 218.449C119.515 218.449 115.757 220.328 115.061 220.884C114.887 221.058 113.774 221.441 112.626 221.754C111.478 222.102 110.399 222.45 110.19 222.554C110.016 222.694 109.634 222.798 109.355 222.868C109.077 222.902 108.764 223.076 108.659 223.285C108.555 223.459 107.372 223.842 106.085 224.155C104.797 224.468 103.232 224.92 102.571 225.199C101.91 225.477 101.318 225.616 101.214 225.547C101.144 225.442 100.379 225.547 99.5438 225.755C98.7088 225.964 97.2475 226.208 96.2733 226.312C95.3339 226.416 94.0814 226.66 93.5595 226.869C92.2721 227.356 77.3461 226.903 76.6851 226.382C76.4415 226.173 75.5021 225.999 74.5975 225.999C73.6929 225.999 72.6839 225.86 72.3012 225.686C71.9533 225.477 71.0487 225.268 70.2832 225.164C69.483 225.094 68.5088 224.781 68.0565 224.468C67.6042 224.19 67.2215 224.05 67.2215 224.19C67.2215 224.329 67.0127 224.259 66.7344 224.05C66.4908 223.842 65.7602 223.598 65.0991 223.529C64.4729 223.459 63.8814 223.215 63.8118 223.007C63.7422 222.798 63.5335 222.624 63.3595 222.624C63.1856 222.624 62.3853 222.346 61.5503 221.963C60.7501 221.615 59.428 221.058 58.6277 220.71C57.7927 220.362 57.1316 219.945 57.1316 219.771C57.1316 219.632 56.9925 219.493 56.7837 219.493C56.2966 219.493 53.3393 217.544 51.5996 216.083C49.0598 213.926 43.8757 208.637 43.0406 207.315C42.5883 206.654 41.6837 205.471 40.9879 204.706C40.292 203.94 39.7354 203.14 39.7354 202.897C39.7354 202.688 39.3526 202.027 38.8655 201.47C38.3784 200.879 37.9957 200.183 37.9957 199.904C37.9957 199.626 37.7522 199.174 37.439 198.93C36.8824 198.478 36.2561 197.225 36.0473 196.216C36.0126 195.938 35.8038 195.625 35.595 195.521C35.4211 195.416 35.1427 194.859 35.0384 194.338C34.8992 193.816 34.6556 193.398 34.4817 193.398C33.8554 193.398 34.2033 192.702 35.8038 190.928C39.1787 187.205 40.9183 185.431 41.1619 185.57C41.2662 185.674 41.8229 185.257 42.3796 184.7C42.9363 184.143 43.5973 183.656 43.8409 183.656C44.0844 183.656 44.3628 183.448 44.4671 183.169C44.8847 182.056 53.6176 177.533 55.9139 177.22C56.2966 177.185 57.4796 176.802 58.5233 176.419C61.1328 175.445 64.0206 174.958 68.474 174.819C73.0318 174.645 73.9713 174.784 74.4931 175.793C75.5717 177.776 76.0588 178.403 79.0858 181.604C80.8602 183.517 82.5302 185.048 82.8086 185.048C83.0869 185.048 84.1655 185.5 85.2092 186.092C86.253 186.648 87.4012 187.136 87.7839 187.136C88.1666 187.136 88.8277 187.344 89.2452 187.623C90.6717 188.527 98.6044 188.875 100.866 188.145C101.492 187.936 102.153 187.901 102.362 188.005C102.571 188.145 103.093 188.005 103.51 187.727C103.928 187.483 104.937 187.17 105.737 187.066C106.537 186.927 108.207 186.37 109.425 185.779C110.643 185.187 111.756 184.7 111.93 184.7C112.243 184.7 115.096 183.448 115.931 182.926C116.209 182.752 117.149 182.299 118.019 181.917C120.698 180.664 122.02 180.003 122.194 179.829C122.298 179.725 123.168 179.272 124.107 178.82C125.082 178.368 126.091 177.881 126.369 177.707C126.647 177.533 127.273 177.22 127.761 177.011C128.213 176.837 130.788 175.584 133.501 174.227C136.18 172.905 138.581 171.827 138.859 171.827C139.103 171.827 140.355 171.34 141.643 170.748C144.913 169.252 145.052 169.183 147.94 168.313C149.367 167.895 151.037 167.339 151.593 167.095C152.185 166.851 153.437 166.573 154.377 166.434C155.351 166.295 156.812 166.016 157.682 165.773C158.552 165.529 159.909 165.39 160.709 165.46C161.475 165.564 162.205 165.495 162.31 165.321C162.484 165.042 166.519 165.042 171.773 165.355ZM155.281 209.786C155.595 209.925 155.943 209.994 156.047 209.89C156.151 209.751 156.952 209.646 157.821 209.612C159.317 209.542 159.422 209.612 159.457 210.447C159.457 210.934 159.526 211.803 159.561 212.395L159.665 213.474H154.342C151.385 213.439 148.984 213.369 148.949 213.265C148.74 211.038 148.845 210.029 149.228 209.786C149.889 209.438 154.586 209.403 155.281 209.786ZM170.59 209.751C171.843 209.751 171.843 209.786 172.052 211.386C172.156 212.325 172.156 213.126 172.086 213.195C172.017 213.265 169.755 213.369 167.076 213.404L162.205 213.439V211.943C162.205 211.108 162.17 210.342 162.136 210.203C161.996 209.786 163.806 209.577 166.693 209.646C168.155 209.681 169.894 209.716 170.59 209.751ZM184.751 209.89C184.994 210.029 185.168 210.899 185.168 211.803V213.474L179.984 213.439H174.8L174.661 211.769C174.591 210.864 174.591 209.994 174.661 209.82C174.765 209.507 184.194 209.542 184.751 209.89ZM198.877 210.968C198.807 211.734 198.772 212.604 198.772 212.882C198.737 213.3 197.972 213.404 194.319 213.474C191.848 213.543 189.448 213.474 188.926 213.369C188.021 213.195 187.952 213.056 187.952 211.351V209.542L193.449 209.577H198.946L198.877 210.968ZM205.557 209.786C205.661 209.959 205.905 210.029 206.079 209.925C206.253 209.786 207.401 209.681 208.653 209.646L210.915 209.577L210.845 211.49L210.741 213.404L206.705 213.508C203.33 213.613 202.565 213.543 202.078 213.056C201.451 212.43 201.312 209.89 201.869 209.681C202.704 209.403 205.348 209.472 205.557 209.786ZM130.614 215.735C130.753 216.118 130.718 221.754 130.579 224.885L130.544 225.929L120.454 225.999C114.887 225.999 110.364 225.929 110.364 225.79C110.364 225.442 113.322 224.12 115.2 223.668C116.035 223.424 116.94 223.041 117.218 222.763C117.497 222.485 117.984 222.276 118.297 222.276C118.575 222.276 119.167 221.963 119.584 221.58C120.002 221.197 120.698 220.815 121.115 220.71C121.533 220.641 122.089 220.328 122.403 220.049C122.681 219.736 123.342 219.388 123.864 219.284C124.386 219.145 125.534 218.518 126.404 217.892C127.273 217.266 128.422 216.57 128.909 216.396C129.431 216.187 129.848 215.874 129.848 215.665C129.848 215.178 130.44 215.213 130.614 215.735ZM257.328 217.231C257.711 217.509 258.233 217.753 258.441 217.753C258.685 217.753 259.694 218.205 260.668 218.797C261.642 219.353 262.651 219.841 262.86 219.841C263.104 219.841 263.486 220.015 263.73 220.258C263.939 220.467 264.356 220.71 264.635 220.745C264.913 220.78 265.678 221.232 266.339 221.719C266.966 222.206 267.627 222.52 267.731 222.38C267.87 222.276 267.975 222.346 267.975 222.554C267.975 222.798 268.218 222.972 268.531 222.972C268.844 222.972 269.853 223.529 270.758 224.19C271.663 224.851 272.672 225.407 272.985 225.407C273.298 225.407 273.541 225.547 273.541 225.686C273.541 225.825 265.887 225.964 256.528 225.964C241.01 225.964 239.619 225.894 240.28 225.407C240.662 225.094 241.637 224.572 242.402 224.224C245.325 222.868 247.83 221.58 248.143 221.197C248.247 221.093 248.908 220.745 249.604 220.432C250.3 220.084 250.996 219.667 251.1 219.527C251.205 219.353 251.761 219.11 252.318 218.971C252.875 218.832 253.466 218.553 253.605 218.31C253.918 217.823 255.762 216.744 256.319 216.744C256.528 216.744 256.98 216.953 257.328 217.231Z" fill="black"/>
<path d="M42.1708 45.3557C41.1966 46.5039 42.2056 47.3737 45.4761 48.2087C47.6681 48.7654 47.7377 48.7654 48.0508 47.9304C48.4683 46.8518 47.7377 46.0863 45.6501 45.5645C43.1798 44.9034 42.5884 44.8686 42.1708 45.3557Z" fill="black"/>
<path d="M158.065 97.0227C157.265 97.6142 156.638 98.2405 156.638 98.4144C156.638 98.6232 156.499 98.7624 156.291 98.7624C155.943 98.7624 152.672 100.989 151.837 101.789C151.594 102.033 151.002 102.346 150.515 102.45C150.063 102.555 149.68 102.798 149.68 102.972C149.68 103.146 149.436 103.285 149.158 103.285C148.88 103.285 148.497 103.599 148.288 103.981C148.079 104.364 147.766 104.608 147.627 104.538C147.488 104.434 146.897 104.816 146.375 105.373C145.818 105.964 145.192 106.417 144.948 106.417C144.496 106.417 143.974 108.017 144.287 108.469C144.357 108.643 144.844 108.887 145.331 108.991C146.062 109.165 146.479 108.957 147.523 107.982C148.219 107.321 148.984 106.765 149.193 106.765C149.402 106.765 149.854 106.417 150.237 106.034C150.585 105.616 151.42 105.06 152.046 104.781C152.637 104.538 153.159 104.19 153.159 104.016C153.159 103.807 153.507 103.564 153.959 103.425C154.377 103.285 155.316 102.694 156.012 102.102C156.708 101.476 157.717 100.746 158.239 100.467C159.596 99.7713 161.161 98.2057 161.161 97.6142C161.161 97.3359 160.779 96.8488 160.326 96.5704C159.526 96.0485 159.422 96.0485 158.065 97.0227Z" fill="black"/>
<path d="M184.89 107.669C184.125 108.191 184.125 107.843 184.716 113.723C184.995 116.785 185.134 118.942 185.273 121.656C185.342 123.43 185.516 124.3 185.864 124.509C186.595 124.961 187.465 124.926 187.848 124.405C188.3 123.883 188.126 118.142 187.639 116.507C187.43 115.846 187.256 114.106 187.256 112.645C187.256 108.017 186.56 106.486 184.89 107.669Z" fill="black"/>
<path d="M166.937 112.123C166.45 112.784 166.033 113.48 166.033 113.654C166.033 113.828 165.789 114.176 165.476 114.454C165.163 114.697 164.606 115.672 164.189 116.576C163.806 117.481 163.354 118.246 163.18 118.246C163.04 118.246 162.588 118.907 162.171 119.708C161.753 120.543 161.301 121.273 161.196 121.378C161.057 121.482 160.779 121.934 160.535 122.421C160.327 122.908 159.979 123.535 159.839 123.813C158.796 125.622 158.726 125.935 159.074 126.596C159.596 127.571 161.022 127.501 161.579 126.457C161.823 126.005 162.414 124.961 162.832 124.161C163.284 123.326 163.945 122.352 164.293 122.004C164.641 121.621 165.024 120.89 165.163 120.403C165.302 119.881 165.685 119.186 166.067 118.838C166.415 118.49 166.728 118.037 166.728 117.794C166.728 117.55 167.355 116.437 168.12 115.289C169.686 112.958 169.79 112.332 168.886 111.531C168.016 110.731 167.981 110.766 166.937 112.123Z" fill="black"/>
<circle cx="82.9217" cy="45.7472" r="2.47897" fill="black"/>
<path d="M188.143 60.6456L190.761 62.3386L185.023 71.2122C183.421 73.6898 180.681 74.1112 178.116 72.4522C175.814 70.9637 174.788 68.5809 176.43 66.0796L179.066 67.784C178.436 68.7969 178.665 69.792 179.613 70.4056C180.615 71.0533 181.598 70.7667 182.405 69.5192L188.143 60.6456ZM197.458 71.8277C198 70.7579 197.578 69.6378 196.296 68.8083C194.96 67.9448 193.825 68.0825 193.262 68.9146C192.653 69.817 193.347 70.8636 194.277 71.8141L195.238 72.8338C197.098 74.7348 198.017 76.8985 196.642 79.0247C195.13 81.3617 192.349 81.656 189.256 79.6562C186.181 77.6677 185.133 74.9718 186.824 72.2027L189.39 73.8617C188.648 75.2012 189.247 76.5104 190.652 77.4194C192.041 78.3171 193.357 78.2464 193.971 77.2976C194.528 76.4366 193.998 75.5211 192.837 74.272L191.665 73.0405C189.862 71.1271 189.237 69.2031 190.442 67.3405C191.942 65.021 194.969 64.8104 197.745 66.6057C200.556 68.4237 201.408 71.192 199.988 73.4639L197.458 71.8277Z" fill="black"/>
</svg>
