<svg width="257" height="230" viewBox="0 0 257 230" fill="none" xmlns="http://www.w3.org/2000/svg">
<path d="M2.38952 0.102737C1.321 0.246582 0.622354 0.575363 0.355225 1.10962C0.149741 1.47949 0.129193 1.64388 0.149741 5.23984C0.149741 6.43164 0.129193 7.74675 0.0675478 8.17827C0.026451 8.60977 0.0675478 9.0002 0.17029 9.06184C0.273032 9.12349 0.29358 10.2536 0.211387 11.5687C0.149741 12.8839 0.108645 14.3839 0.129193 14.8976C0.190838 16.2332 0.190838 29.5691 0.129193 31.0281C0.108645 31.7062 0.129193 32.4048 0.211387 32.5692C0.375774 33.0007 0.252483 38.5693 0.0675478 38.8776C-0.0351942 39.0214 -0.0146458 39.3091 0.0880962 39.494C0.190838 39.6995 0.211387 40.0899 0.129193 40.3776C0.0675478 40.6653 0.0880962 41.3845 0.190838 41.9804C0.314128 42.6996 0.314128 43.1516 0.17029 43.2955C0.0469994 43.4187 0.026451 43.727 0.129193 44.0558C0.231935 44.4667 0.252483 48.001 0.129193 50.8573C0.0880962 51.9463 0.0880962 53.0765 0.129193 53.4258C0.17029 53.8779 0.190838 56.2615 0.17029 58.0492C0.149741 58.6656 0.17029 60.515 0.190838 62.1589C0.231935 63.8028 0.190838 65.3233 0.129193 65.5288C0.0469994 65.7343 0.0880962 66.3713 0.190838 66.9056C0.314128 67.5426 0.314128 68.2823 0.190838 68.8782C0.0880962 69.433 0.0675478 70.1728 0.149741 70.5632C0.231935 70.9331 0.211387 71.5084 0.129193 71.8166C0.0469994 72.1249 0.0469994 72.4947 0.129193 72.6386C0.231935 72.7824 0.211387 73.1317 0.129193 73.3783C0.026451 73.6454 0.0059026 73.9126 0.108645 73.9537C0.190838 74.0153 0.231935 74.9605 0.211387 76.0702C0.17029 77.1798 0.129193 78.1661 0.149741 78.2894C0.149741 78.3921 0.17029 80.0154 0.211387 81.8853C0.231935 83.7552 0.211387 85.358 0.17029 85.4608C0.108645 85.5841 0.0880962 86.0361 0.108645 86.4882C0.252483 88.5841 0.231935 99.4953 0.0880962 99.9063C0.0059026 100.153 0.026451 100.42 0.129193 100.482C0.252483 100.543 0.252483 100.79 0.129193 101.098C0.026451 101.365 0.026451 101.653 0.108645 101.694C0.314128 101.817 0.252483 108.228 0.0469994 108.557C-0.0146458 108.68 0.0059026 108.845 0.129193 108.906C0.273032 108.989 0.314128 109.543 0.231935 110.407C0.17029 111.167 0.129193 112.112 0.149741 112.502C0.231935 113.838 0.211387 117.516 0.149741 118.77C0.108645 119.448 0.129193 120.27 0.231935 120.578C0.314128 120.927 0.29358 121.256 0.17029 121.379C0.026451 121.523 0.026451 121.831 0.17029 122.325C0.29358 122.736 0.314128 123.434 0.252483 123.907C0.17029 124.359 0.108645 124.873 0.129193 125.037C0.129193 125.201 0.129193 125.797 0.129193 126.373C0.129193 126.927 0.129193 127.482 0.149741 127.606C0.29358 128.859 0.273032 131.017 0.108645 131.119C0.0059026 131.181 -0.0146458 131.325 0.0469994 131.448C0.273032 131.797 0.355225 137.715 0.149741 138.599C0.026451 139.133 0.0469994 139.462 0.17029 139.544C0.273032 139.626 0.314128 139.955 0.252483 140.325C0.17029 140.674 0.129193 141.414 0.149741 141.989C0.17029 142.544 0.17029 143.613 0.149741 144.352C0.149741 145.092 0.149741 146.51 0.149741 147.537C0.17029 149.551 0.17029 155.86 0.149741 156.681C0.149741 156.969 0.149741 157.791 0.149741 158.531C0.17029 159.271 0.17029 160.606 0.17029 161.51C0.17029 162.414 0.17029 165.415 0.17029 168.189C0.17029 170.963 0.17029 173.408 0.149741 173.634C0.108645 173.86 0.149741 175.154 0.211387 176.511C0.273032 178.031 0.231935 179.059 0.108645 179.203C-0.0351942 179.387 -0.0351942 179.593 0.108645 179.881C0.396322 180.374 0.396322 181.36 0.149741 182.038C-0.0351942 182.47 0.026451 182.593 0.499064 182.901C0.93058 183.189 1.54703 183.271 3.56077 183.292C4.95806 183.312 6.12932 183.353 6.17042 183.415C6.23207 183.456 7.21839 183.456 8.38965 183.374C10.0541 183.292 18.0679 183.292 31.0545 183.374C31.2806 183.374 38.8013 183.353 47.7809 183.333L64.0963 183.292L64.4046 183.764C64.5689 184.011 64.6511 184.278 64.5689 184.36C64.5073 184.422 64.5689 184.627 64.6922 184.792C65.0005 185.141 65.8635 187.545 66.0895 188.573C66.1717 188.984 66.3978 189.559 66.5827 189.847C66.7676 190.134 66.9115 190.545 66.9115 190.771C66.9115 190.997 66.9937 191.223 67.0964 191.306C67.4046 191.47 67.9183 192.6 68.0622 193.381C68.1238 193.771 68.3293 194.162 68.4937 194.244C68.6581 194.347 68.8019 194.655 68.843 194.943C68.8636 195.23 69.1101 195.806 69.3978 196.237C70.9595 198.723 72.0486 200.593 72.0486 200.861C72.0486 201.025 72.2335 201.292 72.4595 201.436C72.7061 201.58 72.8294 201.785 72.7678 201.867C72.7061 201.97 72.891 202.34 73.1787 202.669C73.4664 202.998 73.6924 203.347 73.6924 203.429C73.6924 203.491 73.9801 203.84 74.3089 204.189C74.6582 204.518 74.9253 204.929 74.9253 205.093C74.9253 205.258 75.0075 205.381 75.1103 205.381C75.3979 205.381 76.5898 206.635 76.7747 207.148C76.8774 207.395 77.5144 208.073 78.1925 208.628C78.8706 209.203 79.3638 209.696 79.3021 209.758C79.2405 209.82 79.4665 210.046 79.7748 210.251C80.3707 210.621 81.2131 211.32 82.4255 212.47C82.7748 212.799 83.3296 213.21 83.6173 213.374C83.9255 213.539 84.3776 213.868 84.6242 214.094C84.8708 214.34 85.405 214.69 85.816 214.895C86.2064 215.121 86.8845 215.553 87.2955 215.881C87.7064 216.21 88.1379 216.477 88.2612 216.477C88.3845 216.477 88.9188 216.765 89.453 217.094C89.9873 217.443 90.5627 217.71 90.7681 217.71C90.9531 217.71 91.2202 217.854 91.364 218.018C91.5079 218.183 91.7956 218.327 92.0216 218.327C92.2476 218.327 92.6791 218.45 92.9668 218.614C93.9737 219.128 94.549 219.334 95.6587 219.56C96.2751 219.683 96.871 219.847 96.9943 219.95C97.4053 220.238 99.5629 220.834 99.7889 220.69C99.8916 220.628 100.303 220.71 100.672 220.895C101.042 221.06 101.638 221.203 101.967 221.203C102.296 221.203 103.405 221.306 104.412 221.429C106.775 221.697 112.323 221.799 112.775 221.573C112.96 221.491 113.638 221.388 114.317 221.327C116.988 221.142 118.221 220.977 118.591 220.751C119.002 220.505 120.666 220.114 121.2 220.155C121.509 220.155 121.796 220.094 121.878 219.991C121.94 219.868 122.125 219.827 122.269 219.888C122.413 219.95 122.906 219.806 123.337 219.58C123.789 219.354 124.488 219.107 124.92 219.046C125.331 218.964 125.742 218.82 125.803 218.717C125.865 218.614 126.091 218.532 126.296 218.532C126.522 218.532 127.016 218.347 127.426 218.121C127.817 217.895 128.146 217.751 128.146 217.813C128.146 217.854 128.474 217.751 128.865 217.587C129.276 217.423 129.687 217.34 129.79 217.402C129.872 217.464 130.077 217.381 130.242 217.238C130.755 216.744 131.618 216.272 132.009 216.272C132.235 216.272 132.625 216.107 132.892 215.902C133.159 215.696 133.981 215.224 134.721 214.854C135.461 214.484 136.386 213.991 136.817 213.744C138.872 212.511 139.529 212.162 139.756 212.162C139.899 212.162 140.125 212.018 140.269 211.854C140.413 211.69 140.619 211.546 140.721 211.546C140.824 211.546 141.297 211.217 141.769 210.826C142.221 210.436 142.714 210.107 142.838 210.107C142.982 210.107 143.249 209.902 143.475 209.676C143.68 209.429 144.235 209.08 144.687 208.874C145.139 208.669 145.735 208.278 146.002 207.97C146.29 207.683 146.639 207.436 146.783 207.436C146.947 207.436 147.4 207.107 147.81 206.717C148.674 205.874 149.105 206.018 149.105 207.128C149.105 207.498 149.249 208.073 149.413 208.381C149.578 208.71 149.721 209.326 149.721 209.737C149.721 210.148 149.865 210.621 150.03 210.806C150.194 210.97 150.338 211.422 150.338 211.833C150.338 212.224 150.441 212.614 150.543 212.676C150.667 212.737 150.749 213.025 150.749 213.292C150.749 213.559 150.852 213.847 150.954 213.909C151.078 213.97 151.16 214.299 151.16 214.648C151.16 215.224 151.221 215.409 151.735 216.416C151.879 216.683 151.982 217.094 151.982 217.361C151.982 217.628 152.064 217.916 152.167 218.018C152.29 218.142 152.454 218.82 152.578 219.518C152.701 220.238 152.886 220.957 153.009 221.08C153.112 221.224 153.153 221.409 153.091 221.471C153.009 221.532 153.174 222.005 153.42 222.519C153.667 223.032 153.811 223.546 153.728 223.649C153.667 223.772 153.749 224.08 153.913 224.327C154.078 224.594 154.263 225.251 154.345 225.827C154.489 226.916 154.941 228.58 155.352 229.423C155.639 230.039 156.359 230.183 157.037 229.752C157.612 229.361 157.633 229.135 157.222 228.313C157.057 228.005 156.913 227.471 156.913 227.142C156.913 226.813 156.811 226.546 156.687 226.546C156.564 226.546 156.482 226.299 156.523 225.991C156.564 225.436 156.461 225.067 156.071 224.183C155.968 223.957 155.845 223.484 155.783 223.156C155.578 222.087 155.557 222.046 155.413 221.902C155.331 221.82 155.27 221.491 155.27 221.183C155.27 220.875 155.187 220.566 155.085 220.484C154.961 220.423 154.817 219.929 154.735 219.395C154.674 218.861 154.53 218.327 154.468 218.224C154.386 218.101 154.139 217.464 153.934 216.786C153.728 216.107 153.523 215.409 153.461 215.244C153.4 215.08 153.379 214.772 153.4 214.566C153.42 214.361 153.338 214.073 153.215 213.909C153.071 213.744 153.03 213.518 153.112 213.416C153.174 213.292 153.112 212.984 152.968 212.737C152.824 212.47 152.701 212.162 152.68 212.059C152.68 211.936 152.598 211.69 152.495 211.484C152.413 211.279 152.393 211.073 152.454 211.011C152.516 210.95 152.393 210.559 152.187 210.148C151.427 208.628 151.468 208.196 152.393 207.21C152.845 206.717 153.215 206.265 153.215 206.183C153.215 206.121 153.543 205.833 153.934 205.566C154.324 205.299 154.653 204.97 154.653 204.867C154.653 204.744 155.208 204.066 155.886 203.367C156.564 202.669 157.119 202.073 157.119 202.011C157.119 201.826 158.393 200.655 158.578 200.655C158.681 200.655 158.763 200.511 158.763 200.347C158.763 200.182 159.318 199.484 159.996 198.806C160.674 198.128 161.229 197.511 161.229 197.449C161.229 197.388 161.824 196.648 162.564 195.806L163.879 194.285L163.818 193.134C163.756 192.025 163.509 191.634 162.934 191.614C162.79 191.614 162.667 191.716 162.667 191.819C162.667 191.943 162.4 192.148 162.071 192.292C161.475 192.538 159.79 193.956 159.77 194.223C159.77 194.326 159.215 194.799 158.537 195.312C157.859 195.826 157.201 196.443 157.057 196.669C156.852 197.018 155.085 198.621 153.934 199.463C153.831 199.545 153.235 200.018 152.619 200.491C152.002 200.984 151.242 201.539 150.893 201.744C150.543 201.95 150.009 202.402 149.701 202.73C149.393 203.059 149.002 203.326 148.817 203.326C148.632 203.326 148.283 203.573 148.016 203.861C147.543 204.415 146.105 205.443 145.673 205.504C145.324 205.566 143.968 206.635 143.968 206.861C143.968 206.963 143.886 207.004 143.783 206.922C143.68 206.861 143.29 207.107 142.899 207.457C142.53 207.785 141.831 208.258 141.358 208.484C140.886 208.689 140.434 208.977 140.372 209.08C140.187 209.368 138.605 210.374 138.255 210.436C138.091 210.457 137.824 210.621 137.639 210.785C137.434 210.95 137.084 211.155 136.838 211.217C136.57 211.299 136.365 211.443 136.365 211.546C136.365 211.731 134.043 212.984 133.673 212.984C133.55 212.984 133.18 213.21 132.831 213.498C132.502 213.785 131.968 214.073 131.68 214.135C131.372 214.196 130.611 214.484 129.995 214.772C129.379 215.059 128.68 215.368 128.454 215.45C128.228 215.532 127.447 215.881 126.707 216.21C125.968 216.559 124.858 216.95 124.241 217.094C123.625 217.238 122.926 217.423 122.7 217.525C121.817 217.916 120.276 218.286 120.008 218.183C119.844 218.121 119.577 218.183 119.413 218.327C119.248 218.45 118.734 218.614 118.282 218.655C117.83 218.697 117.255 218.84 117.008 218.964C116.762 219.087 115.919 219.231 115.118 219.272C114.317 219.292 113.104 219.395 112.426 219.457C111.748 219.539 110.967 219.601 110.68 219.621C110.392 219.642 110.063 219.744 109.919 219.827C109.796 219.909 109.632 219.888 109.549 219.765C109.488 219.662 109.077 219.58 108.666 219.58C106.755 219.621 103.775 219.498 103.59 219.354C103.488 219.272 103.118 219.21 102.768 219.19C101.844 219.19 98.371 218.388 98.0423 218.121C97.8779 217.977 97.6108 217.916 97.4464 217.977C97.3025 218.039 96.9121 217.916 96.5833 217.731C96.2546 217.525 95.5765 217.32 95.1039 217.238C94.6107 217.176 94.0559 216.991 93.8504 216.806C93.6655 216.621 93.1928 216.416 92.8435 216.354C92.4737 216.272 92.186 216.149 92.186 216.046C92.186 215.943 91.6723 215.717 91.0558 215.553C90.4394 215.368 89.9257 215.142 89.9257 215.039C89.9257 214.854 89.7407 214.751 87.727 213.703C87.0694 213.354 86.4324 212.943 86.3091 212.779C86.1653 212.594 85.7338 212.327 85.3228 212.162C84.9118 212.018 84.542 211.731 84.4803 211.525C84.4187 211.34 84.0077 210.929 83.5557 210.621C83.1036 210.313 82.7337 209.963 82.7337 209.881C82.7337 209.779 82.5899 209.696 82.4255 209.696C81.8296 209.696 76.9802 204.6 76.4665 203.429C76.3432 203.162 76.0144 202.751 75.7062 202.525C75.4185 202.278 74.9664 201.682 74.7198 201.189C74.4938 200.676 74.1445 200.162 73.9596 199.997C73.7746 199.854 73.4459 199.319 73.2198 198.806C72.9938 198.292 72.6034 197.614 72.3362 197.306C72.0691 196.977 71.8431 196.504 71.8431 196.237C71.8431 195.97 71.6992 195.662 71.5349 195.58C71.3705 195.477 71.0417 194.901 70.8157 194.285C70.5896 193.669 70.3019 193.114 70.1992 193.093C70.0759 193.052 69.9937 192.847 69.9937 192.641C69.9937 192.436 69.9115 192.21 69.8088 192.127C69.706 192.066 69.5417 191.737 69.48 191.388C69.3978 191.038 69.1307 190.319 68.8636 189.785C68.1238 188.347 67.7539 187.442 67.6512 186.99C67.4046 185.737 67.2608 185.244 67.0759 185.244C66.9731 185.244 66.9526 185.162 67.0142 185.038C67.0759 184.936 67.0759 184.709 66.9731 184.566C66.8909 184.442 66.8087 184.196 66.7676 184.031C66.7471 183.867 66.6443 183.682 66.521 183.62C66.4183 183.538 66.1512 182.84 65.9251 182.059C65.6991 181.257 65.4114 180.353 65.2676 180.004C65.1443 179.675 65.0005 179.079 64.9594 178.668C64.8977 178.278 64.7333 177.538 64.5689 177.024C64.4046 176.511 64.158 175.545 64.0141 174.867C63.8703 174.189 63.6854 173.531 63.5826 173.408C63.5004 173.285 63.4593 173.141 63.521 173.079C63.5826 173.038 63.521 172.668 63.3977 172.278C63.2744 171.887 63.1511 171.23 63.0895 170.819C63.0484 170.387 62.884 169.791 62.7401 169.483C62.5758 169.154 62.4936 168.784 62.5347 168.641C62.5963 168.497 62.473 168.065 62.2881 167.654C62.1031 167.264 62.0209 166.75 62.0826 166.524C62.1648 166.298 62.1237 166.01 62.0209 165.867C61.7333 165.497 61.3428 163.75 61.4867 163.401C61.5483 163.236 61.5072 163.031 61.3839 162.949C61.2607 162.887 61.1579 162.517 61.1579 162.168C61.1579 161.428 60.6648 158.88 60.4387 158.531C60.3565 158.408 60.2332 158.038 60.1305 157.729L59.9661 157.134L61.836 157.236C64.4868 157.38 68.1649 157.36 70.0965 157.195C71.0006 157.134 72.1513 157.031 72.665 156.99C73.7335 156.908 75.0692 156.64 76.3637 156.271C76.8774 156.127 77.4733 156.003 77.6994 155.983C78.2953 155.901 79.7131 155.428 79.9597 155.223C80.0624 155.12 80.309 155.038 80.4939 155.038C80.6789 155.038 81.3775 154.791 82.0351 154.483C82.7132 154.195 83.3913 153.949 83.5557 153.969C83.72 154.01 84.3776 153.681 84.994 153.291C85.6105 152.88 86.453 152.469 86.8639 152.366C87.2749 152.243 87.7681 151.976 87.9736 151.75C88.7955 150.846 89.1859 151.298 89.7202 153.805C89.9462 154.853 90.2339 155.839 90.3572 155.983C90.4805 156.127 90.5216 156.353 90.4394 156.476C90.3572 156.599 90.4805 156.99 90.7065 157.36C90.912 157.729 91.1586 158.305 91.2408 158.634C91.5901 160.175 92.4531 163.01 92.7408 163.504C92.9052 163.832 92.9874 164.079 92.9052 164.079C92.8435 164.079 92.9257 164.325 93.0696 164.634C93.2339 164.962 93.3161 165.332 93.275 165.476C93.2134 165.62 93.3778 165.969 93.6244 166.236C93.8915 166.524 94.0353 166.873 93.9737 167.038C93.8915 167.223 94.0764 167.613 94.3436 167.963C94.6312 168.291 94.8573 168.682 94.8573 168.826C94.8573 168.99 95.0833 169.483 95.3504 169.935C95.6381 170.387 96.0491 171.127 96.2957 171.579C96.871 172.709 97.1587 173.182 97.5286 173.593C99.3779 175.689 99.1724 175.483 100.631 176.798C101.268 177.374 101.905 177.846 102.029 177.846C102.172 177.846 102.522 178.031 102.809 178.257C103.097 178.483 103.467 178.668 103.611 178.668C103.755 178.668 103.981 178.853 104.104 179.079C104.248 179.326 104.618 179.531 105.131 179.613C105.584 179.696 105.953 179.819 105.953 179.922C105.953 180.024 106.262 180.107 106.652 180.107C107.042 180.107 107.412 180.189 107.495 180.292C107.679 180.62 112.303 180.394 113.248 180.024C113.7 179.86 114.317 179.716 114.604 179.696C114.912 179.696 115.262 179.572 115.385 179.429C115.508 179.264 116.002 179.038 116.474 178.894C116.967 178.73 117.543 178.545 117.769 178.442C117.995 178.36 118.385 178.216 118.652 178.155C118.899 178.072 119.104 177.949 119.104 177.867C119.104 177.6 120.707 176.613 121.139 176.613C121.365 176.613 121.673 176.449 121.817 176.244C122.207 175.73 123.646 174.641 124.365 174.312C124.92 174.065 127.18 172.339 127.632 171.805C127.94 171.456 129.522 170.243 129.666 170.243C129.831 170.243 130.303 169.874 130.776 169.36C130.961 169.154 131.351 168.764 131.639 168.497C132.173 167.963 132.235 167.921 132.954 167.141C133.201 166.873 133.673 166.463 133.981 166.236C134.29 166.01 134.68 165.517 134.865 165.147C135.05 164.757 135.42 164.367 135.687 164.264C135.954 164.161 136.242 163.873 136.344 163.606C136.447 163.339 136.981 162.641 137.536 162.065C138.071 161.49 138.995 160.462 139.55 159.784C140.125 159.127 141.173 157.935 141.893 157.154C142.612 156.394 143.269 155.551 143.372 155.284C143.475 155.038 143.66 154.832 143.804 154.832C143.947 154.832 144.399 154.339 144.79 153.743C145.53 152.654 145.653 152.49 147.071 150.99C147.502 150.517 147.872 150.044 147.872 149.962C147.893 149.757 148.838 148.668 149.002 148.668C149.228 148.668 149.906 147.763 149.927 147.476C149.927 147.353 150.071 147.229 150.235 147.229C150.4 147.229 150.667 146.962 150.852 146.633C151.016 146.305 151.448 145.832 151.776 145.585C152.126 145.339 152.639 144.763 152.927 144.332C153.215 143.88 153.667 143.428 153.934 143.325C154.222 143.222 154.448 142.976 154.448 142.811C154.448 142.626 154.612 142.421 154.797 142.359C155.331 142.154 156.687 140.839 157.037 140.181C157.201 139.873 157.468 139.626 157.612 139.626C157.776 139.626 158.516 139.051 159.276 138.332C160.037 137.633 160.9 136.934 161.208 136.77C161.496 136.626 162.051 136.174 162.441 135.804C162.831 135.414 163.263 135.106 163.386 135.106C163.53 135.106 163.756 134.962 163.9 134.797C164.188 134.448 165.914 133.462 166.242 133.462C166.366 133.462 166.777 133.195 167.167 132.866C167.557 132.537 168.174 132.208 168.544 132.147C168.893 132.065 169.304 131.88 169.448 131.715C169.592 131.551 169.838 131.407 169.982 131.407C170.147 131.407 170.27 131.304 170.27 131.201C170.27 131.078 170.455 130.996 170.701 130.996C170.927 130.996 171.359 130.811 171.647 130.585C171.934 130.359 172.325 130.174 172.51 130.174C172.695 130.154 173.208 129.927 173.66 129.66C174.112 129.373 174.626 129.085 174.791 129.023C174.955 128.941 175.571 128.674 176.147 128.427C176.722 128.181 177.688 127.852 178.304 127.688C178.921 127.544 179.722 127.256 180.092 127.051C180.462 126.845 181.181 126.578 181.695 126.475C182.208 126.352 182.784 126.126 182.948 125.962C183.113 125.797 183.503 125.653 183.832 125.653C184.161 125.653 184.489 125.551 184.551 125.427C184.633 125.304 184.818 125.263 184.962 125.325C185.106 125.366 185.455 125.304 185.743 125.14C186.503 124.749 188.907 123.968 189.215 124.03C189.359 124.051 189.811 123.927 190.202 123.742C192.421 122.756 200.188 121.564 204.277 121.605C204.627 121.605 205.408 121.585 206.024 121.544C208.325 121.441 212.497 121.729 216.606 122.263C216.956 122.304 217.88 122.427 218.682 122.53C219.463 122.633 220.326 122.818 220.552 122.962C220.798 123.085 221.333 123.188 221.723 123.188C222.113 123.188 222.874 123.331 223.408 123.516C223.922 123.681 224.477 123.784 224.62 123.722C224.785 123.66 225.011 123.763 225.134 123.927C225.278 124.092 225.627 124.215 225.915 124.215C226.203 124.215 227.025 124.441 227.723 124.729C228.422 125.016 229.141 125.201 229.305 125.14C229.449 125.078 229.716 125.16 229.86 125.345C230.004 125.51 230.333 125.653 230.6 125.653C231.134 125.653 231.216 125.695 232.901 126.537C233.477 126.845 234.114 127.092 234.299 127.092C234.586 127.092 235.716 127.523 237.401 128.243C237.751 128.407 238.08 128.633 238.121 128.756C238.162 128.859 238.408 128.982 238.696 129.023C239.292 129.085 241.265 130.071 241.47 130.38C241.532 130.482 241.819 130.585 242.107 130.585C242.374 130.585 242.6 130.667 242.6 130.791C242.6 130.893 242.826 131.037 243.114 131.119C243.381 131.181 243.71 131.366 243.854 131.53C243.977 131.695 244.306 131.818 244.573 131.818C244.84 131.818 245.066 131.9 245.066 132.023C245.066 132.126 245.436 132.311 245.888 132.434C246.34 132.558 246.874 132.825 247.059 133.03C247.614 133.585 248.888 134.304 249.052 134.14C249.114 134.058 249.32 134.202 249.504 134.448C249.669 134.695 249.998 134.9 250.203 134.9C250.429 134.9 251.272 135.332 252.094 135.866C252.895 136.421 253.84 137.017 254.189 137.243C254.539 137.448 254.868 137.695 254.929 137.777C255.032 137.941 256.265 138.599 256.47 138.599C256.532 138.599 256.573 138.085 256.573 137.469C256.573 136.565 256.491 136.297 256.224 136.195C256.018 136.113 255.34 135.66 254.703 135.167C254.087 134.674 253.429 134.284 253.244 134.284C253.059 134.284 252.874 134.14 252.792 133.976C252.731 133.811 252.546 133.667 252.402 133.667C252.237 133.667 251.888 133.503 251.621 133.277C251.354 133.071 250.902 132.825 250.614 132.743C250.326 132.66 249.874 132.393 249.587 132.188C249.299 131.962 248.806 131.654 248.456 131.489C247.593 131.058 246.689 130.544 246.093 130.112C245.826 129.927 245.374 129.763 245.128 129.763C244.861 129.763 244.655 129.681 244.655 129.578C244.655 129.352 243.093 128.51 242.95 128.653C242.806 128.797 239.785 127.318 239.497 126.969C239.374 126.804 239.189 126.742 239.086 126.804C238.984 126.866 238.614 126.722 238.285 126.475C237.956 126.229 237.586 126.085 237.463 126.167C237.36 126.229 237.052 126.105 236.806 125.879C236.559 125.633 236.107 125.448 235.799 125.448C235.141 125.448 235.018 125.181 235.223 124.256C235.306 123.907 235.306 123.557 235.203 123.496C235.121 123.455 235.141 122.92 235.223 122.345C235.326 121.688 235.306 121.133 235.182 120.907C235.079 120.681 235.038 120.126 235.1 119.633C235.347 117.907 235.367 117.434 235.182 117.311C235.079 117.249 235.079 117.044 235.203 116.818C235.326 116.592 235.347 116.242 235.244 115.955C235.141 115.687 235.1 114.372 235.162 113.016C235.264 110.283 235.244 109.359 235.141 107.304C235.1 106.543 235.141 105.865 235.244 105.804C235.347 105.742 235.367 105.495 235.285 105.269C235.223 105.043 235.182 104.324 235.203 103.687C235.223 103.05 235.244 102.208 235.223 101.817C235.182 100.03 235.182 98.7556 235.244 97.7487C235.285 97.1528 235.285 96.6185 235.223 96.5775C235.121 96.5158 235.121 95.3651 235.182 90.5157C235.203 90.002 235.182 89.0773 235.162 88.4608C235.141 87.8444 235.141 87.043 235.162 86.7142C235.182 86.3649 235.182 85.9128 235.182 85.6868C235.182 85.4608 235.182 85.0909 235.203 84.8649C235.223 84.5361 235.203 75.6181 235.182 74.1797C235.182 73.4605 235.203 65.9603 235.223 65.7549C235.223 65.6316 235.203 64.9329 235.141 64.1726C235.079 63.3918 235.1 62.7343 235.203 62.6726C235.367 62.5699 235.326 61.3164 235.121 60.3506C235.059 60.0424 235.079 59.5081 235.162 59.1794C235.264 58.8095 235.264 58.378 235.141 58.1109C235.038 57.8643 235.018 57.4944 235.1 57.2889C235.306 56.8369 235.388 54.9875 235.223 54.8642C235.141 54.8231 235.121 53.8368 235.162 52.6655C235.223 50.5285 235.203 46.1722 235.121 43.1516C235.1 42.2475 235.162 41.2817 235.244 41.0146C235.347 40.7269 235.326 40.4392 235.203 40.2748C235.1 40.1516 235.059 39.9666 235.141 39.905C235.285 39.7406 235.388 34.2131 235.244 33.9254C235.182 33.8226 235.162 32.3843 235.182 30.7404C235.244 24.8636 235.244 22.7676 235.162 20.3429C235.1 18.9867 235.141 17.6716 235.244 17.4045C235.326 17.1374 235.326 16.7675 235.223 16.5826C235.121 16.3976 235.121 15.7606 235.203 15.2058C235.285 14.6305 235.285 14.0345 235.182 13.8496C235.1 13.6647 235.079 13.2537 235.182 12.9249C235.285 12.5962 235.285 11.7742 235.182 11.0961C235.079 10.3564 235.1 9.73994 235.223 9.5139C235.367 9.24678 235.367 9.04129 235.223 8.85635C235.079 8.69197 235.079 8.36319 235.182 7.95222C235.285 7.60291 235.326 7.27414 235.264 7.21249C235.1 7.0481 235.079 3.98639 235.244 3.88365C235.326 3.82201 235.306 3.57542 235.223 3.32884C235.121 3.06171 235.121 2.71239 235.203 2.548C235.408 2.17813 235.018 0.657547 234.627 0.267136C234.422 0.0616455 210.935 0 118.837 0C55.3016 0 2.90323 0.0410919 2.38952 0.102737ZM25.5065 2.11649C25.9585 2.11649 34.2395 2.11649 43.8973 2.11649C53.555 2.13704 61.6511 2.13704 61.8771 2.13704C62.1031 2.13704 66.1306 2.13704 70.8157 2.13704C75.5007 2.13704 79.7542 2.11649 80.2679 2.11649C81.1515 2.09593 98.9875 2.11649 102.255 2.13704C103.097 2.15758 106.221 2.11649 109.2 2.07539C112.159 2.05484 114.645 2.07539 114.686 2.15758C114.748 2.23978 115.159 2.23978 115.611 2.15758C116.063 2.07539 116.495 2.07539 116.556 2.17813C116.597 2.26033 116.865 2.28087 117.111 2.17813C117.44 2.07539 140.845 2.03429 142.838 2.15758C142.961 2.15758 144.276 2.13704 145.776 2.09593C147.276 2.05484 148.55 2.09593 148.612 2.17813C148.653 2.28087 148.92 2.28087 149.167 2.19868C149.413 2.09593 157.859 2.05484 167.907 2.07539C177.976 2.11649 187.12 2.11649 188.25 2.11649C190.489 2.09593 196.88 2.09593 198.524 2.11649C199.099 2.11649 207.134 2.11649 216.401 2.09593L233.251 2.05484L233.189 3.39049C233.148 4.13023 233.086 4.89052 233.025 5.09601C232.963 5.30148 233.025 5.58916 233.148 5.75356C233.292 5.91794 233.312 6.16452 233.23 6.30836C232.984 6.69878 232.963 7.06865 233.168 7.19194C233.251 7.25359 233.271 7.52071 233.168 7.76729C233.086 8.01387 233.045 9.14404 233.086 10.2742C233.127 11.4044 233.148 12.6578 233.127 13.0482C233.107 13.4386 233.086 14.0345 233.107 14.3839C233.148 16.8086 233.168 18.4936 233.168 23.0142C233.148 29.6924 233.148 29.5691 233.045 29.6719C232.984 29.713 233.045 29.8774 233.168 30.0417C233.353 30.2267 233.333 30.3911 233.168 30.5966C233.004 30.7815 233.004 31.2541 233.127 32.1788C233.23 32.898 233.271 33.5555 233.23 33.6377C233.066 33.8843 232.984 39.7611 233.127 39.8433C233.21 39.905 233.23 40.3365 233.189 40.8297C233.086 41.816 233.086 42.0831 233.107 44.3845C233.107 45.2887 233.127 46.2955 233.107 46.6449C233.107 46.9736 233.127 47.8572 233.127 48.5969C233.148 49.3367 233.148 53.0148 233.127 56.7957C233.127 60.5561 233.168 63.6795 233.23 63.7411C233.271 63.8028 233.251 64.0493 233.168 64.2959C233.086 64.522 233.045 67.8302 233.066 71.6111C233.148 80.1182 233.148 82.8717 233.086 87.3718C233.066 89.3239 233.107 90.9266 233.168 90.9266C233.23 90.9266 233.251 91.3582 233.21 91.8924C233.045 93.9267 233.045 97.9131 233.21 97.9131C233.292 97.9131 233.271 98.098 233.148 98.3446C233.004 98.5706 232.963 98.8994 233.025 99.0638C233.086 99.2282 233.127 100.173 233.127 101.16C233.127 102.146 233.127 104.324 233.127 106.03C233.127 107.715 233.148 110.222 233.189 111.578C233.251 112.934 233.21 114.146 233.127 114.27C233.025 114.393 233.025 115.133 233.127 115.913C233.23 116.694 233.271 117.393 233.23 117.455C233.189 117.516 233.148 119.078 233.127 120.907C233.107 124.133 233.086 124.215 232.655 124.215C232.429 124.215 231.956 124.03 231.607 123.804C231.278 123.578 230.847 123.393 230.662 123.393C230.312 123.393 227.785 122.653 227.086 122.366C226.86 122.263 226.038 122.037 225.237 121.852C224.456 121.646 223.757 121.42 223.696 121.318C223.634 121.215 222.894 121.092 222.052 121.03C221.209 120.989 220.202 120.845 219.853 120.742C219.483 120.64 219.175 120.578 219.175 120.64C219.175 120.701 218.97 120.64 218.744 120.496C218.271 120.249 217.819 120.188 215.168 120.023C214.264 119.962 212.928 119.859 212.189 119.797C210.956 119.674 204.339 119.427 203.866 119.489C203.764 119.489 203.024 119.551 202.223 119.592C199.325 119.777 198.935 119.838 198.503 120.064C198.195 120.229 198.01 120.229 197.866 120.085C197.702 119.92 197.517 119.92 197.229 120.085C196.736 120.352 196.531 120.126 196.449 119.325C196.407 119.057 196.243 118.646 196.038 118.441C195.853 118.235 195.75 117.927 195.832 117.742C195.935 117.455 195.627 116.653 195.298 116.407C195.133 116.283 194.517 113.92 194.517 113.407C194.517 113.222 194.373 112.872 194.168 112.667C193.859 112.318 193.859 112.276 194.209 111.886C194.414 111.66 194.743 111.475 194.928 111.475C195.133 111.475 195.401 111.331 195.544 111.167C195.688 111.002 195.935 110.859 196.099 110.859C196.264 110.859 197.065 110.365 197.866 109.749C198.688 109.153 199.51 108.578 199.716 108.475C200.024 108.311 201.339 106.852 202.839 105.084C203.25 104.591 203.62 104.016 203.908 103.461C203.99 103.297 204.298 102.886 204.627 102.578C204.935 102.249 205.202 101.858 205.202 101.694C205.202 101.53 205.736 100.358 206.373 99.1049C207.01 97.8514 207.524 96.6802 207.524 96.4953C207.504 96.3103 207.688 95.6117 207.915 94.9336C208.141 94.2555 208.367 93.3924 208.408 93.002C208.469 92.6116 208.613 92.1595 208.736 92.0157C208.86 91.8719 208.983 91.3992 209.024 90.9677C209.045 90.5568 209.147 89.9814 209.209 89.6937C209.415 88.8923 209.517 88.2348 209.599 87.1046C209.641 86.5087 209.743 85.9128 209.846 85.769C209.928 85.6252 210.031 84.6183 210.052 83.5498C210.072 82.4607 210.113 80.9812 210.134 80.2415C210.216 77.8373 209.949 72.3509 209.723 71.2002C209.599 70.5837 209.476 69.8851 209.435 69.6591C209.415 69.433 209.271 68.8577 209.127 68.3645C209.004 67.8713 208.901 67.3165 208.921 67.1316C208.983 66.5562 208.675 65.4672 208.367 65.2206C208.202 65.0973 208.079 64.7274 208.079 64.3987C208.079 64.0904 207.997 63.7617 207.873 63.7C207.771 63.6384 207.668 63.474 207.668 63.3507C207.668 63.2069 207.771 63.2274 207.956 63.3712C208.161 63.5356 208.387 63.5562 208.634 63.4329C209.353 63.063 210.38 62.7959 210.647 62.9192C210.812 62.9808 211.1 62.8781 211.264 62.6931C211.449 62.5082 211.839 62.3233 212.147 62.2411C212.456 62.1794 212.867 62.0562 213.052 61.9329C213.257 61.8301 213.565 61.7479 213.73 61.7479C213.915 61.7479 214.1 61.6246 214.161 61.4602C214.264 61.1931 214.675 61.0082 215.476 60.8232C215.641 60.7821 215.908 60.5561 216.072 60.3301C216.216 60.0835 216.483 59.8986 216.627 59.8986C216.791 59.8986 216.915 59.8164 216.915 59.7342C216.915 59.6314 217.141 59.4465 217.408 59.3232C217.675 59.1999 217.963 58.9122 218.024 58.7068C218.107 58.4807 218.353 58.2547 218.559 58.193C218.785 58.1314 218.97 57.9465 218.97 57.7821C218.97 57.6177 219.196 57.33 219.483 57.1451C219.771 56.9601 219.997 56.6314 219.997 56.4259C219.997 56.1998 220.223 55.8505 220.49 55.6451C221.353 54.9875 222.997 50.5696 223.203 48.3915C223.244 47.775 223.387 47.1791 223.49 47.0764C223.593 46.9736 223.593 46.7476 223.47 46.501C223.367 46.2955 223.326 46.0078 223.408 45.8846C223.593 45.5969 223.531 43.9119 223.346 43.5831C223.264 43.4599 223.161 43.0489 223.141 42.6585C223.12 42.268 222.956 41.6721 222.792 41.3228C222.627 40.9735 222.422 40.3981 222.339 40.0694C222.257 39.72 222.072 39.268 221.929 39.0419C221.764 38.8159 221.641 38.446 221.641 38.22C221.641 37.994 221.394 37.583 221.127 37.3159C220.839 37.0488 220.613 36.6789 220.613 36.4939C220.613 36.2885 220.408 35.9391 220.161 35.7131C219.422 35.0145 218.661 34.172 218.168 33.4322C217.922 33.0829 217.593 32.7747 217.47 32.7747C217.326 32.7747 216.935 32.5281 216.606 32.1993C216.257 31.8911 215.538 31.4185 215.024 31.1308C214.49 30.8637 213.997 30.5144 213.956 30.3705C213.894 30.2267 213.648 30.1034 213.421 30.1034C213.175 30.1034 212.394 29.8157 211.634 29.4664C210.894 29.1171 209.867 28.8088 209.332 28.7677C208.819 28.7061 207.75 28.6239 206.949 28.5623C206.168 28.4801 205.428 28.439 205.305 28.439C205.202 28.4595 204.668 28.5006 204.154 28.5417C202.675 28.665 201.524 28.891 201.38 29.0965C201.318 29.1993 201.01 29.2815 200.661 29.2815C200.332 29.2815 200.065 29.3842 200.065 29.5075C200.065 29.6308 199.942 29.6924 199.818 29.6308C199.675 29.5897 199.325 29.6513 199.038 29.7952C197.106 30.7404 196.572 31.0486 196.572 31.2747C196.572 31.4185 196.325 31.6034 196.017 31.6651C195.688 31.7473 194.805 32.4254 194.044 33.2062C193.264 33.987 192.565 34.624 192.483 34.624C192.4 34.624 192.195 34.8706 192.031 35.1788C191.496 36.2474 190.551 37.809 190.325 38.0145C189.955 38.3433 189.585 39.3091 189.709 39.6173C189.77 39.7817 189.668 40.0283 189.483 40.1721C189.318 40.3159 189.174 40.7475 189.174 41.1379C189.174 41.5283 189.051 42.042 188.928 42.2886C188.62 42.8228 188.578 43.1927 188.496 45.6174C188.455 46.6243 188.517 47.6517 188.62 47.8572C188.784 48.186 188.743 48.2271 188.435 48.1038C188.209 48.0216 187.407 47.8572 186.606 47.775C185.825 47.6723 184.674 47.5079 184.078 47.4051C183.503 47.3024 182.065 47.2613 180.893 47.3024C179.743 47.3435 178.448 47.364 177.996 47.364C177.565 47.3435 176.537 47.4462 175.736 47.5695C174.934 47.6928 173.907 47.8161 173.455 47.8777C173.003 47.9189 171.811 48.186 170.784 48.4531C169.777 48.7408 168.359 49.0285 167.66 49.1107C166.941 49.1928 166.366 49.3367 166.366 49.4189C166.366 49.5216 166.078 49.6655 165.708 49.7271C165.338 49.8093 164.907 49.9531 164.722 50.0559C164.557 50.1381 163.818 50.3641 163.078 50.5285C162.359 50.7134 161.681 51.0011 161.578 51.1655C161.496 51.3299 161.29 51.4737 161.146 51.4737C161.023 51.4737 160.592 51.8025 160.201 52.1929C159.811 52.5833 159.4 52.9121 159.256 52.9121C159.112 52.9121 158.763 53.1998 158.496 53.5286C158.208 53.8573 157.879 54.145 157.776 54.145C157.674 54.145 157.427 54.3299 157.222 54.556C157.016 54.782 156.728 54.9669 156.605 54.9669C156.194 54.9669 153.42 58.3574 153.42 58.8711C153.42 58.9739 153.194 59.3027 152.906 59.6109C152.619 59.9191 152.393 60.289 152.393 60.4328C152.393 60.7821 151.756 62.1794 151.427 62.5082C151.304 62.6521 151.139 63.063 151.057 63.4329C150.934 64.0904 150.605 65.0151 149.989 66.433C149.824 66.8028 149.331 68.5494 148.879 70.2961C148.447 72.0632 148.016 73.6043 147.934 73.7276C147.769 73.9742 147.667 74.6112 147.646 75.5154C147.626 75.803 147.543 76.1934 147.42 76.3989C147.317 76.625 147.173 77.1181 147.132 77.5291C147.091 77.9606 146.989 78.6181 146.927 79.0086C146.845 79.399 146.804 79.9332 146.824 80.1798C146.845 80.4059 146.721 81.3305 146.536 82.2347C146.352 83.1183 146.146 84.4333 146.105 85.1731C146.043 85.9128 145.961 86.9608 145.899 87.5361C145.632 90.2074 145.55 94.5021 145.735 96.9884C145.756 97.5432 145.838 98.8994 145.899 99.9679C146.002 101.92 146.352 103.79 146.68 104.18C146.762 104.283 146.845 104.509 146.845 104.674C146.845 104.838 147.091 105.454 147.379 106.071C147.667 106.687 147.913 107.406 147.934 107.653C147.954 107.9 148.263 108.475 148.612 108.906C148.961 109.359 149.352 110.037 149.516 110.407C149.66 110.776 149.886 111.146 150.009 111.228C150.132 111.311 150.338 111.557 150.461 111.763C150.585 111.989 150.831 112.256 151.037 112.379C151.509 112.646 152.29 113.283 152.948 113.879C153.215 114.146 153.543 114.352 153.667 114.352C153.77 114.352 154.263 114.619 154.756 114.948C155.249 115.276 155.948 115.605 156.318 115.687C156.708 115.77 157.345 115.996 157.735 116.201C158.126 116.386 158.578 116.509 158.722 116.448C158.886 116.407 159.215 116.468 159.482 116.612C159.749 116.756 160.14 116.818 160.366 116.777C160.838 116.653 161.331 116.9 161.331 117.27C161.352 117.516 161.681 118.359 162.071 119.119C162.174 119.325 162.256 119.674 162.256 119.9C162.256 120.126 162.338 120.311 162.441 120.311C162.544 120.311 162.708 120.599 162.77 120.968C162.852 121.318 163.14 122.016 163.407 122.53C163.674 123.044 163.9 123.599 163.9 123.784C163.9 123.968 164.085 124.482 164.331 124.934C164.578 125.366 164.783 125.962 164.825 126.249C164.845 126.537 164.989 126.804 165.112 126.845C165.236 126.886 165.338 127.051 165.338 127.236C165.338 127.4 165.503 127.79 165.708 128.078C165.914 128.386 166.242 129.044 166.427 129.558L166.777 130.462L166.119 131.037C165.749 131.345 165.297 131.612 165.112 131.612C164.927 131.612 164.66 131.756 164.496 131.941C164.352 132.106 163.879 132.455 163.427 132.702C162.975 132.948 162.42 133.256 162.174 133.4C161.948 133.523 161.29 134.058 160.735 134.592C160.181 135.106 159.503 135.578 159.256 135.64C158.989 135.702 158.722 135.928 158.66 136.133C158.598 136.339 158.146 136.77 157.674 137.078C157.201 137.407 156.626 137.839 156.4 138.044C155.064 139.277 149.906 144.455 149.311 145.195C148.92 145.668 148.098 146.531 147.523 147.126C146.927 147.743 146.434 148.339 146.434 148.503C146.434 148.647 146.023 149.14 145.509 149.572C144.995 150.024 144.584 150.517 144.584 150.661C144.584 150.825 144.441 150.99 144.276 151.072C144.091 151.133 143.762 151.524 143.557 151.935C143.084 152.798 142.571 153.394 142.016 153.743C141.79 153.866 141.625 154.072 141.646 154.195C141.687 154.318 141.194 154.914 140.577 155.551C139.961 156.168 139.447 156.764 139.447 156.887C139.447 156.99 139.118 157.339 138.728 157.647C138.338 157.955 138.009 158.325 138.009 158.449C138.009 158.572 137.495 159.168 136.879 159.805C136.262 160.421 135.749 161.038 135.749 161.161C135.749 161.264 135.564 161.408 135.338 161.469C135.112 161.531 134.927 161.757 134.927 161.962C134.927 162.168 134.66 162.497 134.331 162.702C134.023 162.887 133.632 163.298 133.509 163.606C133.385 163.935 132.954 164.408 132.543 164.675C132.153 164.962 131.68 165.435 131.516 165.764C131.351 166.072 131.084 166.339 130.899 166.339C130.735 166.339 130.509 166.545 130.406 166.791C130.303 167.058 130.221 167.182 130.221 167.079C130.201 166.976 129.851 167.243 129.42 167.695C128.146 168.99 127.2 169.771 126.728 169.935C126.502 169.997 126.296 170.182 126.296 170.305C126.276 170.613 124.057 172.298 123.687 172.298C123.543 172.298 123.42 172.38 123.42 172.504C123.42 172.606 123.296 172.709 123.152 172.709C123.009 172.709 122.454 173.079 121.899 173.531C121.365 173.983 120.789 174.353 120.625 174.353C120.461 174.353 120.132 174.579 119.885 174.867C119.639 175.154 119.33 175.381 119.228 175.381C119.104 175.381 118.652 175.607 118.241 175.894C117.83 176.182 117.296 176.408 117.091 176.408C116.865 176.408 116.577 176.531 116.454 176.696C116.31 176.86 115.899 177.065 115.549 177.148C115.18 177.209 114.707 177.415 114.481 177.559C114.255 177.723 113.865 177.846 113.597 177.846C113.33 177.846 112.94 177.949 112.714 178.072C112.488 178.196 111.399 178.319 110.31 178.36C107.905 178.463 105.974 177.99 104.494 176.901C103.96 176.511 103.446 176.202 103.344 176.202C103.241 176.202 103.015 176.018 102.809 175.791C102.625 175.565 102.357 175.381 102.214 175.381C102.07 175.381 101.679 175.052 101.371 174.661C101.063 174.271 100.693 173.942 100.549 173.942C100.282 173.942 99.0491 172.401 98.556 171.476C98.4121 171.189 98.1656 170.88 98.0217 170.798C97.8573 170.716 97.734 170.428 97.734 170.182C97.734 169.915 97.5491 169.565 97.3231 169.36C97.097 169.175 96.9121 168.784 96.9121 168.497C96.9121 168.209 96.8299 167.983 96.7066 167.983C96.6039 167.983 96.5011 167.86 96.5011 167.695C96.5011 167.531 96.2957 167.038 96.0491 166.606C95.5148 165.723 95.1039 164.736 94.8573 163.668C94.7134 163.051 94.1381 161.305 93.6244 159.866C93.5422 159.64 93.46 159.271 93.46 159.045C93.4394 158.51 92.7408 156.373 92.2065 155.181C91.9805 154.668 91.775 153.949 91.7545 153.579C91.7339 153.188 91.6517 152.695 91.5695 152.469C91.0558 151.154 90.8709 150.62 90.8298 150.229C90.727 149.366 90.1928 147.291 89.638 145.709C89.3298 144.825 89.0626 143.818 89.0421 143.448C89.001 143.099 88.9188 142.688 88.816 142.544C88.7338 142.4 88.6927 142.154 88.7544 142.01C88.816 141.866 88.6517 141.106 88.3845 140.325C88.1174 139.544 87.8914 138.619 87.8708 138.25C87.8708 137.9 87.7681 137.345 87.6448 137.017C87.5215 136.708 87.2749 135.743 87.1311 134.9C86.9667 134.058 86.7612 132.886 86.6379 132.332C86.5146 131.756 86.3708 130.996 86.3091 130.626C86.268 130.236 86.0831 129.681 85.9393 129.393C85.7749 129.085 85.5899 128.427 85.5078 127.914C85.4256 127.4 85.2612 126.804 85.1379 126.578C85.0351 126.352 84.9324 125.879 84.9529 125.51C84.9735 125.14 84.8913 124.831 84.768 124.831C84.6447 124.831 84.6036 124.647 84.6858 124.421C84.7475 124.215 84.6653 123.763 84.5009 123.455C84.3365 123.126 84.2132 122.51 84.2337 122.099C84.2543 121.667 84.1516 121.236 84.0077 121.153C83.8639 121.071 83.6995 120.414 83.6584 119.715C83.5968 118.996 83.4529 118.235 83.3296 118.03C83.2269 117.804 83.1858 117.64 83.2474 117.64C83.3091 117.64 83.2474 117.434 83.1036 117.167C82.857 116.715 82.7954 116.468 82.6515 114.783C82.6104 114.311 82.4666 113.797 82.3433 113.674C82.22 113.55 82.1173 113.16 82.1173 112.811C82.1173 112.482 81.9529 111.783 81.768 111.27C81.583 110.756 81.4186 109.934 81.3775 109.441C81.357 108.948 81.2337 108.475 81.1104 108.393C80.9871 108.331 80.8638 108.002 80.8638 107.653C80.8433 107.324 80.6994 106.769 80.5556 106.4C80.3912 106.05 80.2268 105.352 80.1857 104.879C80.1241 104.386 79.9802 103.893 79.8158 103.769C79.672 103.667 79.5282 103.235 79.4871 102.845C79.4254 102.167 79.261 101.735 78.6857 100.687C78.2336 99.8857 77.6994 98.6323 77.6788 98.3241C77.6583 98.1597 77.3706 97.5638 77.0007 97.009C76.6514 96.4336 76.3637 95.9199 76.3637 95.8582C76.3637 95.7761 75.9528 95.0774 75.439 94.2966C74.9253 93.5363 74.5144 92.8171 74.5144 92.7144C74.5144 92.6322 74.2472 92.3034 73.8979 92.0157C73.5691 91.7486 73.2815 91.3582 73.2815 91.1732C73.2815 90.8855 71.6376 88.9334 70.5074 87.8444C70.3225 87.68 69.9732 87.3101 69.7266 87.043C69.48 86.7964 69.0485 86.3649 68.7814 86.1183C68.4937 85.8923 67.9594 85.3786 67.5485 85.0087C67.158 84.6594 66.7265 84.3512 66.5827 84.3512C66.4594 84.3512 65.8018 84.0224 65.1443 83.632C64.4868 83.221 63.5621 82.81 63.11 82.6867C62.6579 82.5634 62.1648 82.358 62.0415 82.2552C61.8977 82.1319 61.61 82.1114 61.425 82.1936C61.2196 82.2963 60.973 82.3374 60.8702 82.3169C60.7675 82.2963 60.3771 82.2552 60.0072 82.2141C59.5757 82.1936 59.1236 81.9675 58.8154 81.6182C57.4798 80.1798 55.3427 80.3237 53.6167 81.947C53.2468 82.2963 53.0002 82.6456 53.0413 82.7278C53.1029 82.81 53.0413 83.1388 52.9386 83.447C52.7536 83.9607 52.6098 84.0429 51.9317 84.084C51.4591 84.1046 50.8015 84.3512 50.3495 84.6594C49.5892 85.1731 48.4179 86.6937 48.4179 87.1663C48.4179 87.2896 48.2741 87.5567 48.0891 87.7416C47.9042 87.9266 47.7398 88.2553 47.7193 88.4814C47.6987 88.8513 47.5343 88.9129 46.322 88.9334C45.2124 88.9745 44.863 89.0567 44.5343 89.4061C44.3082 89.6526 44.0411 89.8992 43.9589 89.9198C43.7123 90.0225 42.7466 92.1184 42.5822 92.8787C42.5 93.2075 42.4178 94.2349 42.3561 95.1391C42.315 96.0432 42.2739 96.824 42.2739 96.8857C42.2534 96.9679 41.9246 96.9679 41.5342 96.9268C40.9383 96.8651 40.6301 96.9884 39.6026 97.8103C38.9246 98.3446 38.4108 98.8583 38.4519 98.9611C38.5136 99.0433 38.4725 99.1665 38.3697 99.2282C38.1643 99.3515 37.8971 100.543 37.856 101.509C37.8149 102.064 38.1026 103.4 38.5547 105.002C38.6574 105.331 38.8013 105.845 38.8835 106.132C38.9656 106.42 39.13 106.79 39.2739 106.954C39.4177 107.119 39.6848 107.591 39.8698 107.982C40.0342 108.372 40.4657 109.153 40.7945 109.728C41.1438 110.283 41.4109 110.9 41.4315 111.085C41.4315 111.249 41.7602 111.865 42.1507 112.42C42.5411 112.975 42.8698 113.53 42.8698 113.633C42.8698 113.756 43.0548 114.002 43.2808 114.208C43.5068 114.393 43.6918 114.701 43.6918 114.886C43.6918 115.092 43.9178 115.544 44.2055 115.913C44.4932 116.283 44.7192 116.674 44.7192 116.756C44.7192 117.126 45.7466 119.078 45.9521 119.078C46.0548 119.078 46.1987 119.407 46.2809 119.797C46.3425 120.188 46.6713 120.886 47.0001 121.338C47.3288 121.79 47.596 122.263 47.596 122.407C47.596 122.551 47.7809 122.982 48.0069 123.352C48.233 123.722 48.4179 124.051 48.4179 124.092C48.4179 124.133 48.0686 124.133 47.6576 124.071C46.9179 123.989 44.9658 123.968 39.0684 123.989C37.7122 123.989 36.0683 123.968 35.4313 123.927C34.7738 123.866 34.1984 123.907 34.1573 123.968C34.0957 124.071 29.7189 124.092 26.6366 123.989C26.4722 123.989 24.7667 124.03 22.8557 124.071C18.6844 124.153 18.8077 124.071 18.8077 126.681C18.8077 127.647 18.8282 128.612 18.8488 128.838C18.8488 129.064 18.8488 131.982 18.8488 135.311C18.8077 145.791 18.8077 146.448 18.9104 146.572C18.9721 146.633 18.931 146.798 18.8077 146.942C18.4789 147.353 18.931 147.969 19.6707 148.133C20.7598 148.339 22.6913 148.277 22.7735 148.031C22.8352 147.866 22.979 147.846 23.2461 147.969C23.4927 148.092 30.3353 148.154 39.7259 148.154H55.7742L56.0003 148.894C56.1236 149.305 56.2263 149.818 56.2263 150.044C56.2263 150.25 56.4112 150.784 56.6167 151.195C56.8222 151.627 56.966 152.14 56.9044 152.366C56.8428 152.592 56.9044 152.921 57.0482 153.086C57.1715 153.25 57.2332 153.476 57.151 153.579C57.0893 153.702 57.1304 153.99 57.2537 154.236C57.5825 154.853 58.0757 156.805 58.0757 157.524C58.0757 157.853 58.1989 158.387 58.3633 158.716C58.5277 159.024 58.7127 159.64 58.7538 160.093C58.8154 160.524 58.9592 161.223 59.0825 161.613C59.3086 162.332 59.514 163.647 59.5962 164.798C59.6373 165.127 59.7401 165.641 59.8634 165.928C60.0483 166.36 60.3154 167.593 60.6648 169.627C60.7264 169.915 60.8908 170.613 61.0552 171.209C61.2196 171.785 61.3634 172.524 61.3634 172.853C61.3634 173.182 61.4456 173.531 61.5278 173.654C61.6305 173.757 61.836 174.394 61.9799 175.072C62.1442 175.75 62.2881 176.449 62.3292 176.613C62.3703 176.778 62.4319 177.065 62.4525 177.23C62.5141 177.62 63.1922 179.84 63.4593 180.497C63.5621 180.764 63.5826 181.031 63.521 181.114C63.4388 181.175 58.8359 181.257 53.2879 181.278C47.7193 181.298 42.2945 181.319 41.226 181.319C40.1575 181.34 38.5547 181.319 37.6711 181.278C36.7875 181.237 36.0272 181.278 35.9656 181.381C35.9039 181.463 35.7396 181.483 35.6163 181.401C35.2669 181.196 19.8556 181.155 19.7324 181.381C19.6707 181.463 19.4652 181.463 19.2597 181.34C18.8282 181.114 13.7322 181.093 13.6089 181.319C13.5473 181.401 12.8897 181.401 12.1089 181.319C10.8144 181.175 7.40332 181.278 7.07455 181.463C6.99236 181.504 6.88961 181.463 6.82797 181.381C6.76632 181.278 5.86219 181.237 4.81423 181.278C3.76626 181.319 2.77994 181.278 2.6361 181.175C2.32787 180.97 2.14294 179.161 2.18403 176.716C2.26623 172.524 2.24568 165.908 2.14294 165.805C2.08129 165.743 2.10184 165.332 2.20458 164.88C2.30732 164.428 2.32787 163.956 2.26623 163.832C2.18403 163.709 2.14294 162.682 2.16348 161.531C2.20458 160.38 2.20458 159.332 2.20458 159.188C2.20458 159.065 2.20458 158.695 2.20458 158.366C2.20458 158.058 2.22513 157.113 2.20458 156.271C2.20458 155.428 2.20458 154.031 2.22513 153.188C2.24568 151.729 2.22513 149.983 2.18403 146.757C2.16348 145.996 2.22513 145.277 2.28677 145.154C2.36897 145.051 2.30732 144.825 2.18403 144.661C2.06074 144.496 2.01964 144.25 2.10184 144.126C2.24568 143.88 2.38952 110.078 2.24568 109.77C2.10184 109.523 2.14294 99.8652 2.28677 99.3104C2.36897 99.0022 2.32787 98.7145 2.20458 98.6323C2.06074 98.5706 2.04019 98.3652 2.14294 98.1597C2.26623 97.8925 2.28677 88.9745 2.16348 84.8649C2.16348 84.4128 2.20458 83.7963 2.24568 83.4881C2.30732 83.1799 2.26623 82.8717 2.16348 82.81C2.06074 82.7278 2.04019 82.5224 2.14294 82.3374C2.22513 82.1525 2.26623 72.0838 2.24568 60.0013C2.20458 38.0145 2.20458 36.7405 2.22513 35.2816C2.22513 33.761 2.22513 27.3294 2.20458 26.9595C2.20458 26.7746 2.20458 26.3019 2.20458 25.9321C2.20458 25.5827 2.20458 24.5759 2.20458 23.7334C2.18403 22.8909 2.20458 21.8635 2.22513 21.4731C2.22513 21.0827 2.24568 19.3155 2.22513 17.5689C2.22513 15.8223 2.20458 13.603 2.20458 12.6373C2.18403 10.6235 2.30732 2.81512 2.34842 2.36307C2.38952 2.09593 3.76626 2.05484 13.5473 2.09593C19.6707 2.11649 25.0544 2.11649 25.5065 2.11649ZM160.427 55.008C160.448 55.1519 160.448 55.3985 160.427 55.5423C160.407 55.7067 160.468 55.9327 160.571 56.056C160.694 56.1998 160.838 56.7547 160.92 57.33C161.003 57.8848 161.208 58.604 161.352 58.9122C161.516 59.2205 161.64 59.7342 161.64 60.0835C161.64 60.4123 161.722 60.741 161.845 60.8232C161.948 60.8849 161.989 61.0698 161.927 61.2137C161.866 61.3575 161.968 61.6041 162.153 61.7479C162.318 61.8918 162.461 62.2 162.461 62.4466C162.461 62.6726 162.646 63.1452 162.872 63.4945C163.098 63.8233 163.283 64.2754 163.283 64.4603C163.283 64.6452 163.427 64.9329 163.592 65.1179C163.777 65.2822 164.044 65.8165 164.208 66.2686C164.372 66.7412 164.742 67.3987 165.03 67.7481C165.318 68.0768 165.544 68.5083 165.544 68.7138C165.544 68.9193 165.729 69.2481 165.955 69.4536C166.181 69.6591 166.366 69.9056 166.366 69.9878C166.366 70.0906 166.694 70.5837 167.085 71.118C167.475 71.6317 167.804 72.1865 167.804 72.3509C167.804 72.4947 167.989 72.7413 168.215 72.8851C168.441 73.029 168.626 73.2961 168.626 73.481C168.626 73.666 168.873 73.9742 169.16 74.1591C169.448 74.3646 169.941 74.94 170.27 75.4537C170.599 75.9469 171.667 77.1592 172.674 78.1044C174.914 80.262 174.934 80.262 175.859 80.7552L176.619 81.1456L177.503 80.6525C177.996 80.3853 178.654 79.9538 178.962 79.7072C179.455 79.2962 180.051 79.0497 181.571 78.6593C182.147 78.4949 184.736 78.1455 185.167 78.1455C185.661 78.1661 187.017 78.4743 187.12 78.5771C187.181 78.6593 187.695 79.0086 188.27 79.3784C188.907 79.7689 189.442 80.3031 189.585 80.6525C189.729 81.0018 189.935 81.2689 190.037 81.2689C190.14 81.2689 190.161 81.3511 190.099 81.4744C190.037 81.5771 190.099 81.8853 190.243 82.1319C190.572 82.7278 191.003 85.358 190.777 85.5019C190.695 85.5635 190.633 85.9334 190.654 86.3238C190.674 86.7142 190.572 87.1457 190.448 87.269C190.305 87.4129 190.202 87.7622 190.202 88.0499C190.202 88.3581 190.017 88.7691 189.791 88.9745C189.565 89.18 189.442 89.4061 189.483 89.5088C189.544 89.591 189.462 89.7348 189.318 89.8376C189.174 89.9198 188.866 90.3102 188.661 90.6595C188.435 91.0294 188.147 91.3376 188.003 91.3376C187.859 91.3376 187.633 91.5225 187.489 91.7486C187.346 91.9746 187.099 92.1595 186.935 92.1595C186.791 92.1595 186.298 92.4883 185.866 92.8787C185.393 93.2897 184.839 93.5979 184.551 93.5979C184.263 93.5979 183.626 93.7829 183.113 94.0294C182.106 94.5021 180.791 94.5843 178.284 94.3377L176.743 94.1938L176.167 95.0158C175.612 95.7966 175.612 95.9199 175.777 97.1734C175.88 98.0364 175.88 98.5912 175.756 98.7145C175.612 98.8583 175.633 99.0227 175.797 99.2076C175.921 99.372 176.065 99.9679 176.106 100.502C176.229 102.105 176.743 103.667 177.256 103.975C177.38 104.037 177.462 104.283 177.462 104.489C177.462 105.064 178.571 106.585 180.133 108.167C182.126 110.201 184.284 111.66 185.311 111.681C185.62 111.681 185.928 111.783 185.989 111.907C186.072 112.03 186.257 112.071 186.4 112.009C186.544 111.968 186.75 112.009 186.852 112.112C187.099 112.359 191.003 112.502 191.147 112.276C191.209 112.174 191.394 112.091 191.537 112.091C191.866 112.091 192.524 113.468 192.38 113.859C192.339 113.982 192.421 114.29 192.585 114.537C192.75 114.763 192.914 115.276 192.955 115.687C192.996 116.078 193.14 116.55 193.305 116.735C193.469 116.92 193.695 117.516 193.818 118.03C193.962 118.544 194.188 119.283 194.332 119.653C194.599 120.29 194.579 120.352 194.209 120.578C193.983 120.722 193.346 120.886 192.77 120.968C191.27 121.153 190.613 121.338 189.668 121.77C189.215 121.975 188.517 122.16 188.106 122.16C187.695 122.16 187.263 122.304 187.12 122.468C186.976 122.653 186.688 122.736 186.503 122.674C186.298 122.612 186.01 122.694 185.846 122.859C185.681 123.023 185.126 123.27 184.633 123.393C184.14 123.537 183.585 123.701 183.421 123.763C183.256 123.825 182.928 123.866 182.681 123.886C182.455 123.907 182.126 124.01 181.962 124.133C181.613 124.4 179.784 125.037 179.332 125.037C179.147 125.037 178.469 125.304 177.832 125.633C177.195 125.962 176.619 126.188 176.558 126.126C176.517 126.064 176.023 126.249 175.469 126.537C174.934 126.804 173.886 127.318 173.147 127.667C172.407 127.996 171.112 128.612 170.229 129.023C168.482 129.845 168.4 129.866 168.544 129.496C168.605 129.332 168.503 129.085 168.318 128.941C168.153 128.797 168.01 128.51 168.01 128.284C168.01 128.058 167.825 127.626 167.619 127.318C167.393 127.01 167.146 126.496 167.064 126.147C166.982 125.818 166.838 125.448 166.736 125.304C166.633 125.16 166.592 124.975 166.653 124.873C166.715 124.749 166.633 124.564 166.468 124.421C166.304 124.277 166.16 123.989 166.16 123.784C166.16 123.455 165.564 122.201 165.133 121.646C165.051 121.523 164.907 121.071 164.825 120.619C164.742 120.167 164.578 119.674 164.475 119.53C164.311 119.345 164.455 119.098 165.051 118.564C165.482 118.174 166.057 117.804 166.304 117.722C167.331 117.434 168.133 115.544 167.557 114.804C167.331 114.537 166.119 114.455 165.873 114.701C165.667 114.907 159.77 114.804 159.503 114.578C159.379 114.475 159.009 114.372 158.66 114.331C158.331 114.29 157.9 114.146 157.735 114.023C157.571 113.879 157.016 113.674 156.502 113.53C155.619 113.304 154.982 112.913 153.852 111.907C153.585 111.681 153.297 111.516 153.215 111.578C153.009 111.701 151.365 109.728 151.365 109.338C151.365 109.174 151.201 108.906 151.016 108.763C150.42 108.331 149.516 106.646 149.516 106.009C149.516 105.763 149.393 105.454 149.228 105.331C148.858 105.023 148.817 104.9 148.16 100.79C147.852 98.8172 147.646 96.4542 147.687 94.9336C147.687 94.4815 147.708 93.0637 147.687 91.7897C147.687 90.5362 147.728 89.4883 147.79 89.4883C147.831 89.4883 148.057 89.5704 148.283 89.6937C149.249 90.1869 149.454 90.228 150.132 90.2074C152.742 90.0636 153.564 89.6115 154.612 87.6594C155.023 86.9197 155.064 86.6731 154.879 86.2827C154.489 85.4197 153.749 85.6457 152.824 86.8992C152.105 87.8649 151.9 88.0088 151.119 88.1115C150.461 88.2142 150.03 88.1321 149.454 87.8444C149.023 87.6183 148.55 87.4334 148.386 87.4334C148.18 87.4334 148.119 87.0841 148.18 85.8306C148.221 84.9676 148.263 84.2484 148.283 84.2484C148.283 84.2484 148.345 83.9196 148.386 83.5292C148.53 82.358 148.858 80.1593 148.961 79.7278C149.023 79.5017 149.126 78.8031 149.208 78.1866C149.29 77.5702 149.413 76.9743 149.475 76.8715C149.537 76.7688 149.598 76.3989 149.639 76.0496C149.783 74.5085 150.153 72.8646 150.358 72.7208C150.461 72.6591 150.543 72.3509 150.543 72.0221C150.543 71.6933 150.626 71.3851 150.728 71.3029C150.852 71.2413 150.995 70.7481 151.057 70.2139C151.139 69.6796 151.263 69.0632 151.365 68.8371C151.817 67.7686 151.961 67.2754 152.085 66.4124C152.146 66.0836 152.372 65.5905 152.598 65.3028C152.824 65.0151 153.009 64.563 153.009 64.3165C153.009 64.0699 153.194 63.6178 153.42 63.3302C153.646 63.0425 153.831 62.6521 153.831 62.4671C153.831 62.0562 154.838 60.3095 155.064 60.3095C155.146 60.3095 155.331 60.0219 155.454 59.6725C155.722 58.9122 157.324 56.8369 157.653 56.8163C157.797 56.8163 158.044 56.5903 158.229 56.3026C158.413 56.0149 158.681 55.7889 158.824 55.7889C158.948 55.7889 159.297 55.5423 159.564 55.2752C160.078 54.7204 160.386 54.6176 160.427 55.008ZM57.5619 83.1183C57.9318 83.4265 57.9729 84.7621 57.6236 85.2142C57.0071 85.9745 55.7331 85.8101 55.1372 84.8854C54.8085 84.3923 54.8085 84.3101 55.1167 83.5087C55.466 82.6662 55.466 82.6662 56.3701 82.7689C56.8428 82.81 57.3976 82.9744 57.5619 83.1183ZM62.8018 84.7621C63.3155 84.9265 63.8498 85.132 64.0141 85.2553C64.384 85.543 65.0621 85.9334 65.6375 86.18C65.884 86.3033 66.1512 86.5498 66.2128 86.7142C66.295 86.8786 66.4594 87.0224 66.6032 87.0224C66.7676 87.0224 67.2197 87.4334 67.6512 87.9471C68.0622 88.4608 68.5348 88.8718 68.6786 88.8718C68.843 88.8718 68.9663 88.9745 68.9663 89.0773C68.9663 89.2006 69.5211 89.8581 70.2198 90.5773C70.8979 91.276 71.5965 92.1184 71.7403 92.4678C71.9869 93.0637 72.1719 93.3308 73.2198 94.5843C73.4869 94.8925 73.6924 95.2418 73.6924 95.3651C73.6924 95.4884 73.8774 95.7555 74.1034 95.961C74.3294 96.1665 74.5144 96.4953 74.5144 96.7007C74.5144 96.9062 74.7404 97.3377 75.0281 97.6665C75.3158 98.0158 75.5418 98.3652 75.5212 98.4679C75.5007 98.5501 75.5829 98.8994 75.7062 99.2076C76.5487 101.221 76.8774 101.961 77.124 102.331C77.2679 102.557 77.3911 102.886 77.3911 103.071C77.3911 103.256 77.5555 103.708 77.7405 104.098C78.1925 104.961 78.6035 106.461 78.624 107.222C78.624 107.53 78.7679 108.064 78.9528 108.413C79.1172 108.742 79.1994 109.194 79.1378 109.4C79.0761 109.626 79.1583 109.934 79.3432 110.119C79.5282 110.304 79.6309 110.53 79.5487 110.653C79.4871 110.756 79.5487 111.064 79.672 111.311C79.8158 111.578 79.9597 112.009 79.9802 112.297C80.0213 112.585 80.083 113.139 80.1241 113.53C80.1652 113.92 80.309 114.455 80.4323 114.701C80.5761 114.948 80.6789 115.461 80.6789 115.831C80.6789 116.222 80.8638 117.044 81.0899 117.681C81.3159 118.318 81.5625 119.386 81.6241 120.044C81.7063 120.701 81.8501 121.359 81.9529 121.482C82.0762 121.626 82.1173 121.873 82.0556 122.057C81.9734 122.222 82.0556 122.736 82.22 123.208C82.3844 123.681 82.5282 124.318 82.5282 124.626C82.5282 124.955 82.631 125.242 82.7748 125.284C82.8981 125.325 83.0009 125.674 82.9803 126.064C82.9803 126.455 83.0419 126.866 83.1652 127.01C83.268 127.133 83.3913 127.688 83.4529 128.222C83.494 128.756 83.6995 129.434 83.8844 129.701C84.0488 129.989 84.1516 130.256 84.1105 130.318C84.0488 130.38 84.131 130.852 84.2954 131.366C84.4392 131.9 84.5831 132.558 84.5831 132.866C84.5831 133.154 84.6858 133.482 84.8297 133.626C84.9529 133.749 85.0762 134.345 85.0968 134.941C85.1379 135.537 85.179 136.071 85.1995 136.133C85.2201 136.195 85.2406 136.318 85.2201 136.421C85.1995 136.503 85.2817 136.708 85.4256 136.873C85.5489 137.037 85.6105 137.345 85.5489 137.551C85.4872 137.777 85.5899 138.167 85.7749 138.414C85.9393 138.661 86.0831 139.154 86.0626 139.503C86.0626 139.852 86.1242 140.222 86.2064 140.346C86.453 140.654 86.6996 141.722 86.6585 142.257C86.6174 142.524 86.6996 142.832 86.8023 142.976C86.905 143.12 87.0694 143.736 87.1516 144.352C87.2338 144.969 87.3777 145.585 87.4804 145.709C87.7064 145.976 88.1996 147.928 88.2407 148.606C88.2612 149.058 87.2544 150.106 86.8228 150.106C86.6996 150.106 86.3091 150.332 85.9393 150.62C85.5694 150.907 85.0557 151.133 84.8091 151.133C84.5831 151.133 84.2132 151.318 84.0283 151.544C83.8228 151.77 83.4324 151.955 83.1447 151.955C82.857 151.955 82.1584 152.181 81.583 152.449C81.0282 152.736 80.2474 153.044 79.8569 153.168C79.4665 153.27 78.7268 153.517 78.2131 153.702C77.6994 153.907 77.0624 154.051 76.7747 154.051C76.487 154.051 76.0966 154.133 75.9117 154.236C75.3774 154.524 72.4801 155.038 72.1513 154.914C71.9869 154.832 71.6787 154.853 71.4938 154.935C70.754 155.243 64.9594 155.387 62.4936 155.161C61.7127 155.099 60.8908 155.038 60.6853 155.017C60.4798 155.017 60.0894 154.832 59.8223 154.586C59.2675 154.092 59.0209 153.353 58.7948 151.442C58.7743 151.092 58.5894 150.496 58.425 150.085C58.24 149.695 58.0551 148.853 58.014 148.236C57.9524 147.62 57.7469 146.736 57.5619 146.284C57.2332 145.544 57.0071 144.229 57.0277 143.222C57.0277 142.996 56.9044 142.606 56.74 142.359C56.5756 142.113 56.4318 141.681 56.4318 141.414C56.4318 141.147 56.2468 140.572 56.0414 140.14C55.8359 139.688 55.692 139.215 55.7537 139.072C55.8153 138.928 55.7126 138.578 55.5482 138.311C55.3633 138.044 55.1578 137.469 55.0756 137.037C54.9934 136.606 54.8496 136.174 54.7468 136.113C54.6441 136.051 54.5002 135.578 54.4386 135.085C54.3769 134.592 54.2537 134.078 54.1715 133.976C54.0276 133.791 53.7194 132.804 53.6578 132.332C53.6167 132.044 53.3701 131.428 53.0413 130.688C52.6303 129.763 52.4659 129.29 52.4248 128.88C52.4043 128.653 52.281 128.427 52.1577 128.345C52.0344 128.263 51.87 127.811 51.7878 127.318C51.7057 126.845 51.5207 126.393 51.3769 126.332C51.2125 126.27 51.0892 125.982 51.0892 125.674C51.0892 125.386 50.8426 124.77 50.5755 124.318C50.2878 123.866 50.0618 123.229 50.0618 122.92C50.0618 122.612 49.9385 122.304 49.7741 122.242C49.6303 122.181 49.3426 121.605 49.1166 120.968C48.9111 120.331 48.5823 119.612 48.3768 119.366C48.1713 119.14 48.0069 118.79 48.0069 118.626C48.0069 118.441 47.8837 118.153 47.7398 118.009C47.3494 117.578 46.3631 115.667 46.3631 115.297C46.3631 115.112 46.2398 114.907 46.0754 114.845C45.911 114.783 45.5411 114.187 45.2535 113.509C44.9452 112.852 44.637 112.297 44.5548 112.297C44.411 112.297 43.8562 111.27 43.3014 110.037C42.9109 109.174 41.8835 107.345 41.5753 106.995C41.2671 106.605 41.041 106.05 40.5068 104.18C40.3013 103.502 40.0753 102.804 39.9725 102.619C39.8903 102.413 39.9109 102.187 40.0547 102.043C40.2397 101.858 40.2191 101.715 40.0342 101.406C39.8287 101.057 39.8492 100.852 40.2397 100.173C40.5068 99.7213 40.815 99.3515 40.9588 99.3515C41.0821 99.3515 41.226 99.2693 41.2671 99.1665C41.3698 98.8583 42.4794 99.1665 42.5822 99.5364C42.6438 99.7213 42.8698 100.235 43.0753 100.687C43.9384 102.495 44.7192 104.345 44.7192 104.591C44.7192 104.735 45.0891 105.311 45.5411 105.886C45.9932 106.441 46.3631 106.995 46.3631 107.119C46.3631 107.242 46.4453 107.365 46.5275 107.406C46.6302 107.427 47.1439 107.982 47.6782 108.598C49.5275 110.776 49.5892 110.817 50.2262 109.79L50.6371 109.133L50.1645 108.434C49.8974 108.064 49.507 107.612 49.2604 107.448C49.0138 107.263 48.8289 107.037 48.8289 106.913C48.8289 106.667 47.7809 105.167 46.9384 104.242C46.6302 103.893 46.4247 103.543 46.4658 103.441C46.5275 103.358 46.2603 102.598 45.8699 101.776C44.9452 99.8241 44.8836 99.5981 44.8014 98.6734C44.7808 98.2419 44.6576 97.7898 44.5548 97.646C44.411 97.4816 44.411 97.2761 44.5137 97.0912C44.6165 96.9268 44.6165 96.6596 44.5137 96.4542C44.2466 95.961 44.4521 93.4952 44.8425 92.6116C45.5617 90.9883 45.6028 90.9266 46.1576 90.9266C46.959 90.9266 47.2467 91.3992 47.3288 92.8376C47.3699 93.5363 47.4932 94.4815 47.596 94.9336C47.6987 95.3856 47.8837 96.3309 48.0069 97.009C48.2124 98.283 48.685 99.4337 49.0549 99.6597C49.1577 99.7419 49.2398 100.009 49.2398 100.297C49.2398 100.564 49.322 100.79 49.4042 100.79C49.5892 100.79 50.6782 102.352 50.6782 102.598C50.6782 102.68 50.9659 103.009 51.2947 103.317C51.644 103.646 51.9111 103.995 51.9111 104.098C51.9111 104.18 52.1783 104.406 52.507 104.591C52.8564 104.756 53.2468 105.146 53.3906 105.454C53.6988 106.071 54.6441 106.42 55.24 106.112C55.7537 105.845 55.7537 104.53 55.2605 104.345C54.829 104.18 52.9386 102.331 52.9386 102.084C52.9386 101.982 52.6714 101.673 52.3221 101.365C51.9933 101.078 51.7057 100.625 51.7057 100.399C51.7057 100.153 51.5618 99.9063 51.3974 99.8446C51.233 99.7625 51.0892 99.5364 51.0892 99.2898C51.0892 99.0638 50.9248 98.6939 50.7399 98.4679C50.5344 98.2624 50.2673 97.5638 50.144 96.9062C49.8358 95.4473 49.733 95.0569 49.4864 94.4199C49.3837 94.1322 49.322 93.5979 49.3426 93.2281C49.3837 92.8582 49.322 92.5089 49.2193 92.4678C49.1371 92.4061 49.1577 92.0773 49.2809 91.728C49.3837 91.3992 49.4453 90.9266 49.3837 90.7006C49.322 90.454 49.3837 89.9814 49.5481 89.6115C49.6919 89.2622 49.9796 88.6047 50.1645 88.1732C50.6988 86.9402 51.7467 85.995 52.507 86.0567C53.0413 86.0978 53.1851 86.2416 53.4728 86.8992C53.6372 87.3512 53.8221 88.2348 53.8632 88.8513C54.0276 91.0499 54.2126 92.6732 54.3358 92.8787C54.418 92.9815 54.4386 93.2897 54.418 93.5363C54.3769 93.7623 54.4386 94.0294 54.5413 94.0911C54.6646 94.1527 54.7057 94.3993 54.6441 94.6254C54.5824 94.8719 54.6852 95.2007 54.8496 95.4062C55.0345 95.6117 55.24 96.1665 55.3222 96.6596C55.4044 97.1528 55.6304 97.7076 55.8359 97.8925C56.0619 98.0569 56.329 98.509 56.4523 98.8789C56.5756 99.2487 56.8017 99.557 56.966 99.557C57.1304 99.557 57.2537 99.7008 57.2537 99.8652C57.2537 100.05 57.4181 100.235 57.6236 100.317C57.8085 100.379 58.1168 100.564 58.3017 100.708C59.0414 101.365 60.6853 102.023 61.5072 102.023C63.1511 102.023 64.2607 101.591 65.3909 100.482C66.8704 99.0227 67.1991 97.8514 66.7265 95.55C66.3772 93.824 66.0895 92.9815 65.8635 92.9815C65.7607 92.9815 65.6786 92.8171 65.6786 92.6116C65.6786 92.3856 65.4936 92.0568 65.2676 91.8513C65.0416 91.6458 64.9183 91.4198 64.9594 91.3171C65.021 91.2349 64.384 90.4335 63.521 89.5704C62.6785 88.6869 61.9799 87.8855 61.9799 87.7827C61.9799 87.5773 61.5894 87.2074 61.0552 86.8992C60.8291 86.7759 60.5826 86.3649 60.4798 85.9745C60.3771 85.5841 60.2127 85.1731 60.1099 85.0498C59.9867 84.8854 60.0278 84.7005 60.2127 84.495C60.5415 84.1662 60.8702 84.2073 62.8018 84.7621ZM61.0552 89.7965C61.3839 90.1458 61.7949 90.6801 61.9388 91.0088C62.0826 91.3171 62.3703 91.6253 62.5758 91.6869C62.7812 91.728 63.0895 92.0979 63.2744 92.4883C63.4593 92.8787 63.7059 93.187 63.7881 93.187C63.8909 93.187 64.0758 93.7007 64.2196 94.3171C64.3635 94.9336 64.5484 95.4884 64.6306 95.5295C64.7128 95.5911 64.8155 96.1459 64.8361 96.7829C64.8566 97.8514 64.8155 97.9953 63.9936 98.9611C63.521 99.5159 63.0278 99.9474 62.884 99.8857C62.7401 99.8241 62.3497 99.8857 62.0004 100.03C61.5072 100.215 61.3223 100.194 61.0141 99.9474C60.8086 99.7625 60.2127 99.4337 59.699 99.1871C59.1853 98.9611 58.5894 98.509 58.3633 98.1802C57.7469 97.235 57.2743 96.3309 57.377 96.2281C57.4181 96.1665 57.2126 95.5911 56.9249 94.913C56.514 93.9883 56.3701 93.2897 56.329 91.9951C56.2879 91.0499 56.2058 90.228 56.1441 90.1664C56.0825 90.1047 56.0825 89.817 56.1441 89.5499C56.2263 89.2828 56.1441 88.8718 55.9386 88.5841C55.5277 87.9471 55.7948 87.7211 57.151 87.5773C57.7058 87.5156 58.2606 87.3307 58.3633 87.1663C58.5072 86.9402 58.7538 87.1252 59.4935 88.0293C60.0072 88.6663 60.7058 89.4677 61.0552 89.7965ZM23.4105 126.188C23.616 126.249 23.8831 126.208 24.027 126.085C24.2941 125.879 25.5886 125.9 25.9791 126.147C26.1229 126.229 26.3695 126.208 26.5544 126.105C26.7599 125.982 27.2325 125.982 27.7051 126.105C28.1572 126.188 28.6093 126.208 28.7326 126.147C29.0202 125.962 30.9312 125.982 31.0956 126.147C31.1573 126.208 31.3422 126.167 31.486 126.064C31.6504 125.921 32.1436 125.921 33.0683 126.064C33.9518 126.208 34.5888 126.208 34.9382 126.064C35.2258 125.962 35.8012 125.941 36.2327 126.003C36.6642 126.064 37.1985 126.105 37.4245 126.105C37.9793 126.085 39.9109 126.064 40.9177 126.085C41.3698 126.085 42.4794 126.044 43.3836 126.023C44.2877 125.982 45.1918 126.023 45.3768 126.105C45.5617 126.188 45.9727 126.167 46.2809 126.044C46.7124 125.9 46.9795 125.9 47.3083 126.064C47.6371 126.249 47.8631 126.249 48.1713 126.085C48.7056 125.797 49.2398 126.003 49.2398 126.455C49.2398 126.66 49.3015 126.886 49.3837 126.969C49.5892 127.174 50.2673 128.982 50.2673 129.311C50.2673 129.475 50.4522 129.866 50.6988 130.195C50.9248 130.523 51.1303 131.099 51.1508 131.469C51.1714 131.838 51.3358 132.373 51.5207 132.66C51.9522 133.339 52.4248 134.88 52.2605 135.044C52.1783 135.106 52.2399 135.373 52.4043 135.619C52.8153 136.236 53.781 139.236 53.6372 139.441C53.5756 139.544 53.6988 139.914 53.8838 140.284C54.0893 140.654 54.2126 141.27 54.192 141.64C54.1715 142.01 54.2331 142.421 54.3358 142.565C54.5619 142.832 55.1989 145.133 55.1989 145.647C55.1989 146.037 56.0825 145.996 46.4658 145.996C42.0685 145.996 38.041 146.017 37.5273 146.037C37.0136 146.058 35.5957 146.058 34.3423 146.037C33.1094 146.017 31.486 146.017 30.7463 146.037C30.0066 146.058 27.4996 146.079 25.1571 146.079C20.9242 146.099 20.4721 146.037 20.8625 145.421C20.9447 145.277 20.9858 144.496 20.9447 143.695C20.9036 142.873 20.8625 141.866 20.8625 141.476C20.9858 131.345 20.9653 126.619 20.8009 126.537C20.6981 126.475 20.842 126.29 21.1091 126.147C21.5612 125.9 22.4858 125.921 23.4105 126.188Z" fill="black"/>
<path d="M18.0555 15.5346C15.7952 15.8634 15.9802 14.7949 16.0213 27.8842C16.0418 34.1309 16.0624 39.3913 16.0829 39.5557C16.0829 39.7201 16.0624 45.638 16.0418 52.7066C16.0007 59.7753 16.0213 65.9398 16.1034 66.433C16.3295 68.0357 16.1445 67.9946 22.905 68.0357C26.2133 68.0563 29.1517 68.0768 29.4394 68.0563C29.9942 68.0357 36.3847 68.0974 36.734 68.1179C36.8573 68.1179 40.5355 68.0974 44.9123 68.0563C49.2891 68.0152 52.9262 68.0563 52.9673 68.1385C53.0289 68.2207 53.4193 68.2001 53.8303 68.0974C54.8783 67.8508 56.7071 67.8713 56.8715 68.1179C56.9331 68.2207 57.0975 68.2618 57.2413 68.2207C57.3852 68.1796 57.7345 68.0974 58.0427 68.0357C58.392 67.9535 58.7414 67.6659 58.9674 67.2343C59.2962 66.6179 59.3167 65.0151 59.2756 45.3092C59.2551 33.6172 59.2345 23.8978 59.2345 23.7334C59.1729 22.9731 59.44 17.4456 59.5427 16.9319C59.7893 15.8839 58.9674 15.4524 56.8715 15.514C55.5153 15.5551 49.7823 15.5551 49.2686 15.5346C48.9398 15.4935 48.1384 15.514 47.5219 15.5757C46.9055 15.6168 46.289 15.5757 46.1863 15.4935C46.0014 15.3702 44.3369 15.3702 44.3369 15.514C44.3369 15.514 43.5561 15.5346 42.5903 15.514C41.6245 15.514 40.4327 15.514 39.919 15.514C37.4327 15.5757 35.3778 15.5551 34.1655 15.4524C33.323 15.3908 32.7887 15.4319 32.686 15.5757C32.5833 15.7401 32.4805 15.7401 32.275 15.5551C32.1312 15.4319 31.7202 15.3702 31.3915 15.4319C31.0421 15.4729 30.5901 15.5551 30.364 15.5757C30.138 15.6168 29.8503 15.5757 29.727 15.4729C29.6037 15.3908 29.1517 15.3702 28.6996 15.4319C27.6105 15.5757 26.4187 15.5962 25.3708 15.4729C24.8776 15.4113 24.1173 15.4319 23.6653 15.5346C23.1105 15.6784 22.7406 15.6373 22.4529 15.4729C22.1241 15.2675 21.9597 15.2675 21.6104 15.4729C21.2816 15.6784 21.1173 15.6784 20.8912 15.4935C20.6652 15.3086 20.5419 15.3086 20.3159 15.4935C20.1104 15.6579 19.9871 15.6784 19.8844 15.514C19.7405 15.288 19.7611 15.288 18.0555 15.5346ZM27.6927 17.5894C28.5969 17.61 30.4873 17.5894 31.9052 17.5689C33.323 17.5483 35.5011 17.5483 36.734 17.5689C37.9875 17.5894 39.5081 17.5894 40.1245 17.5689C40.741 17.5689 41.8095 17.5894 42.4876 17.6305C43.1657 17.6716 43.8438 17.61 43.9876 17.4867C44.1726 17.3634 44.378 17.3634 44.6041 17.4867C44.9945 17.7127 47.9329 17.7333 48.2822 17.5072C48.4261 17.425 48.8781 17.425 49.3096 17.5278C49.7412 17.61 51.57 17.6716 53.3782 17.6511C55.1865 17.61 56.8304 17.6305 57.0153 17.6922C57.3235 17.7744 57.3646 18.0826 57.3235 20.1374C57.2824 21.432 57.2208 22.521 57.1591 22.5827C57.0975 22.6443 57.0975 23.1375 57.1797 23.6923C57.2824 24.4937 57.2619 62.7753 57.1591 65.2823L57.1386 66.0425L37.5765 66.0014L18.0144 65.9603L18.0555 55.2341C18.0966 48.6791 18.035 44.4462 17.9117 44.3845C17.809 44.3023 17.809 44.0969 17.9528 43.8297C18.1788 43.3982 18.1994 42.453 18.0555 39.0831C18.0144 38.1173 18.0555 36.9666 18.1377 36.5145C18.2199 36.0624 18.1994 35.5487 18.0966 35.3843C17.9939 35.1994 18.0144 35.0145 18.1172 34.9528C18.2405 34.8706 18.2405 34.5624 18.1377 34.1514C17.9939 33.6377 17.9939 23.2608 18.1172 18.2881L18.1377 17.4661L22.083 17.5278C24.2612 17.5689 26.7886 17.5894 27.6927 17.5894Z" fill="black"/>
<path d="M22.7945 38V29.2134H26.2412C28.2437 29.2134 29.3845 30.4391 29.3845 32.1746C29.3845 33.9344 28.2194 35.1359 26.1927 35.1359H24.615V38H22.7945ZM24.615 33.6674H25.9014C26.9815 33.6674 27.5034 33.0606 27.5034 32.1746C27.5034 31.3008 26.9815 30.7061 25.9014 30.7061H24.615V33.6674ZM30.501 38V31.41H32.2365V32.5508H32.3093C32.5521 31.7377 33.1589 31.3129 33.8992 31.3129C34.0812 31.3129 34.3118 31.3372 34.4696 31.3736V32.9756C34.2997 32.9271 33.9599 32.8785 33.705 32.8785C32.8919 32.8785 32.2972 33.4489 32.2972 34.2499V38H30.501ZM35.3434 38V31.41H37.1396V38H35.3434ZM36.2415 30.5484C35.6954 30.5484 35.2585 30.1357 35.2585 29.6381C35.2585 29.1284 35.6954 28.7158 36.2415 28.7158C36.7755 28.7158 37.2124 29.1284 37.2124 29.6381C37.2124 30.1357 36.7755 30.5484 36.2415 30.5484ZM38.5352 38V31.41H40.2464V32.563H40.3193C40.5984 31.7984 41.2659 31.3251 42.1518 31.3251C43.062 31.3251 43.7295 31.7984 43.948 32.563H44.0087C44.2878 31.8105 45.0281 31.3251 45.999 31.3251C47.2248 31.3251 48.0743 32.1382 48.0743 33.5703V38H46.2781V33.9222C46.2781 33.1698 45.8412 32.8057 45.2466 32.8057C44.5669 32.8057 44.1786 33.279 44.1786 33.9708V38H42.431V33.8737C42.431 33.2183 42.0183 32.8057 41.4115 32.8057C40.8047 32.8057 40.3314 33.2911 40.3314 34.0436V38H38.5352ZM49.4578 38V31.41H51.254V38H49.4578ZM50.3559 30.5484C49.8098 30.5484 49.3729 30.1357 49.3729 29.6381C49.3729 29.1284 49.8098 28.7158 50.3559 28.7158C50.8899 28.7158 51.3268 29.1284 51.3268 29.6381C51.3268 30.1357 50.8899 30.5484 50.3559 30.5484ZM28.1527 48.6674V50.0994H24.1477V48.6674H28.1527ZM33.1164 46.41V47.7571H31.8785V50.9732C31.8785 51.4951 32.1334 51.6286 32.4975 51.6407C32.6795 51.6407 32.995 51.6286 33.2135 51.6043V53.0243C33.0193 53.0607 32.7038 53.085 32.2547 53.085C30.9562 53.085 30.0702 52.5024 30.0823 51.2281V47.7571H29.1721V46.41H30.0823V44.8323H31.8785V46.41H33.1164ZM34.2451 53V46.41H36.0412V53H34.2451ZM35.1432 45.5484C34.597 45.5484 34.1601 45.1357 34.1601 44.6381C34.1601 44.1284 34.597 43.7158 35.1432 43.7158C35.6772 43.7158 36.1141 44.1284 36.1141 44.6381C36.1141 45.1357 35.6772 45.5484 35.1432 45.5484ZM43.5536 46.41L41.2355 53H39.2209L36.915 46.41H38.8083L40.1918 51.1432H40.2646L41.6482 46.41H43.5536ZM47.1944 53.1335C45.1798 53.1335 43.9419 51.8228 43.9419 49.7354C43.9419 47.6965 45.192 46.3251 47.1216 46.3251C48.8571 46.3251 50.2164 47.4173 50.2164 49.6625V50.1723H45.7138C45.7138 51.1674 46.3085 51.7864 47.2308 51.7864C47.8377 51.7864 48.2746 51.5194 48.4566 51.1189H50.1678C49.9129 52.3325 48.8207 53.1335 47.1944 53.1335ZM45.7138 49.0436H48.5173C48.5173 48.2426 47.959 47.6722 47.158 47.6722C46.3328 47.6722 45.7442 48.2851 45.7138 49.0436Z" fill="black"/>
<path d="M98.0422 25.1307C97.549 25.2334 96.3983 26.4663 95.9668 27.3704C95.7408 27.8225 95.6997 28.1102 95.8641 28.3979C95.9668 28.6034 96.1518 29.0554 96.2545 29.4047L96.46 30.0212L95.3915 29.9595C94.8161 29.939 94.1997 29.9185 94.0353 29.9185C93.8709 29.9185 92.1654 29.9185 90.2338 29.8979C88.3228 29.8774 86.5762 29.8568 86.3913 29.8774C85.9803 29.8979 85.5282 29.8979 85.1584 29.8979C85.0145 29.8979 84.583 29.9595 84.2131 30.0212C83.8433 30.0828 83.4323 30.0623 83.2885 29.9595C83.1035 29.8157 81.3364 29.7746 80.2473 29.8774C79.9596 29.9185 79.6103 31.5623 79.7336 32.3021C79.8158 32.7336 79.8774 33.2267 79.8569 33.3911C79.8569 33.5555 79.8363 35.261 79.8363 37.1926C79.8363 39.1036 79.8363 41.1379 79.8158 41.7132C79.8158 42.268 79.7952 43.2544 79.7747 43.8708C79.7541 45.1243 80.124 46.2339 80.6377 46.4394C80.8227 46.501 83.0008 46.5627 85.446 46.5627C88.1995 46.5627 89.9667 46.6448 90.0489 46.7681C90.1722 46.9736 90.3571 49.0696 90.3366 49.9326C90.2544 54.0834 90.2749 75.5153 90.3777 75.5153C90.4599 75.5153 90.4188 75.8236 90.316 76.1729C90.0694 77.0565 90.0694 78.5359 90.3366 78.7003C90.4599 78.7825 90.4804 78.9675 90.3571 79.1935C90.2338 79.399 90.1516 80.2415 90.1722 81.0839C90.1927 81.9264 90.1311 82.7484 90.0694 82.9128C89.9872 83.0771 90.1311 83.447 90.3366 83.7141C90.6859 84.1251 90.9325 84.2073 92.0421 84.2073C92.7407 84.2073 93.4188 84.2484 93.5216 84.3306C93.8709 84.5361 95.7613 84.495 96.049 84.2895C96.2134 84.1457 96.4805 84.1662 96.8299 84.3306C97.1175 84.4539 97.4463 84.495 97.5696 84.4333C97.9395 84.2073 103.57 84.1662 103.837 84.3922C103.981 84.495 104.289 84.5155 104.556 84.4333C104.823 84.3511 107.72 84.2895 110.988 84.31C116.186 84.3511 119.31 84.3511 121.159 84.2895C121.447 84.2895 122.084 84.31 122.598 84.3306C123.111 84.3717 123.748 84.3511 124.036 84.2895C126.378 83.858 126.522 83.7347 126.502 82.2347C126.502 81.762 126.522 80.1798 126.563 78.7414C126.584 77.2825 126.563 76.0701 126.502 76.029C126.44 75.9879 126.42 75.3715 126.461 74.6523C126.604 71.8577 126.604 70.7481 126.481 70.6659C126.317 70.5632 126.378 69.5768 126.584 69.1042C126.666 68.9193 126.666 68.6111 126.563 68.4467C126.461 68.2618 126.44 67.3576 126.502 66.4329C126.584 65.4877 126.604 63.474 126.563 61.9534C126.481 58.378 126.481 58.7068 126.584 57.6793C126.625 57.2067 126.584 56.7752 126.502 56.7136C126.399 56.6519 126.399 56.3437 126.502 55.9944C126.584 55.6656 126.625 54.782 126.563 54.0012C126.481 52.6655 126.481 52.0696 126.584 51.1655C126.604 50.9395 126.563 50.6518 126.481 50.549C126.399 50.4258 126.42 49.912 126.522 49.3778C126.666 48.7408 126.666 48.2887 126.543 48.0421C126.399 47.7956 126.399 47.5284 126.543 47.3024C126.687 47.0353 126.666 46.8503 126.502 46.6243C126.337 46.4394 126.317 46.2544 126.44 46.0695C126.543 45.9462 126.604 45.0832 126.563 44.179C126.543 43.2749 126.522 42.2475 126.522 41.9187C126.563 41.1173 126.563 39.8022 126.522 39.1241C126.522 38.8159 126.317 38.3638 126.111 38.0967C125.721 37.6035 125.659 37.6035 122.022 37.6035C119.988 37.6035 118.262 37.5419 118.2 37.4803C118.056 37.357 118.056 37.1515 118.118 34.3158C118.18 31.624 118.077 31.0281 117.46 30.4527L116.926 29.939L112.508 29.9185C110.084 29.9185 107.741 29.9185 107.289 29.9185C106.837 29.9185 106.015 29.9595 105.44 30.0006C104.885 30.0623 103.898 30.0417 103.282 29.9801L102.152 29.8568L102.111 28.3157C102.09 26.8362 102.049 26.7335 101.392 26.1786C100.323 25.2334 99.1724 24.8841 98.0422 25.1307ZM99.6244 27.2883C100.015 27.5965 100.282 28.4595 100.056 28.7677C99.9532 28.891 99.6244 29.0965 99.3162 29.2404C98.7819 29.4664 98.6998 29.4458 98.3504 29.0349C97.9189 28.5006 98.0011 27.6992 98.5148 27.2677C98.9258 26.9595 99.1724 26.9595 99.6244 27.2883ZM102.46 32.0349C105.337 32.0144 108.358 31.9938 109.138 31.9733C110.7 31.9733 115.303 32.076 115.817 32.1171C116.084 32.1582 116.125 32.6103 116.104 35.2816C116.063 37.0076 116.043 38.4666 116.022 38.5282C116.001 38.5899 116.001 38.9803 116.022 39.4118C116.043 39.8433 116.063 41.1584 116.084 42.3297L116.125 44.4667L114.645 44.59C113.844 44.6722 113.063 44.6722 112.919 44.59C112.796 44.4873 112.2 44.4462 111.625 44.4667C108.255 44.59 101.042 44.6106 100.508 44.4873C100.179 44.4256 99.5217 44.4256 99.0696 44.5078C98.6176 44.59 98.1655 44.59 98.0833 44.4873C97.9806 44.4051 97.5901 44.4051 97.2203 44.4873C96.8299 44.5695 96.0285 44.6106 95.4326 44.5695C94.138 44.4667 93.4805 44.4462 92.8024 44.4667C91.8982 44.5078 89.4324 44.5284 89.0626 44.5078C88.8571 44.5078 88.5489 44.4873 88.3845 44.4873C88.2201 44.4873 87.8708 44.4873 87.6242 44.4873C86.9255 44.4873 83.8022 44.5284 82.7337 44.5695L81.809 44.59L81.8501 41.6105C81.8912 39.9666 81.9323 38.4049 81.9734 38.1173C82.0145 37.8296 81.9528 37.4392 81.8501 37.2337C81.7473 37.0076 81.7679 36.7611 81.8912 36.6172C82.0145 36.4528 82.0145 36.2474 81.9117 36.0624C81.7884 35.898 81.7062 34.9117 81.7062 33.9048V32.0349L88.5489 32.0555C92.2887 32.0555 95.6586 32.0144 95.9874 31.9322C96.3367 31.8705 96.7477 31.8705 96.912 31.9527C97.0764 32.0349 99.5833 32.076 102.46 32.0349ZM124.55 40.1926C124.632 40.5009 124.57 40.9529 124.447 41.1995C124.324 41.4256 124.283 41.7132 124.344 41.816C124.57 42.1653 124.632 47.2407 124.426 47.4873C124.303 47.6312 124.303 48.0627 124.426 48.6175C124.529 49.1107 124.57 51.1449 124.529 53.1176C124.488 55.0902 124.447 56.9807 124.467 57.33C124.529 58.2547 124.529 59.0561 124.488 60.3095C124.467 60.926 124.467 62.9603 124.467 64.8302C124.467 66.7001 124.447 68.6727 124.447 69.2481C124.426 69.8029 124.447 70.9741 124.447 71.8166C124.467 72.6591 124.447 74.2208 124.406 75.2688C124.385 76.3373 124.406 77.2414 124.467 77.2619C124.591 77.3441 124.529 80.5291 124.385 81.4538C124.283 82.1936 123.625 82.3579 121.262 82.2552C120.81 82.2552 120.173 82.2552 119.824 82.2758C119.495 82.2963 119.063 82.2963 118.899 82.2963C118.734 82.2758 117.995 82.2963 117.255 82.3169C116.515 82.3374 115.755 82.2758 115.57 82.2141C115.385 82.1319 115.056 82.1525 114.83 82.2758C114.625 82.399 114.173 82.4196 113.844 82.3579C113.145 82.2141 112.878 82.2141 111.933 82.3785C111.542 82.4401 111.132 82.4196 111.008 82.3579C110.885 82.2758 106.714 82.1936 101.741 82.1936C96.7477 82.173 92.5763 82.1114 92.453 82.0292C92.3092 81.9264 92.2476 81.2483 92.3092 79.9949C92.3709 78.9469 92.4119 77.94 92.3914 77.7757C92.3503 77.2003 92.3709 73.3783 92.3914 71.4673C92.4119 70.4399 92.3914 69.4947 92.3092 69.3919C92.2476 69.2892 92.2887 68.7138 92.3709 68.0974C92.4736 67.4809 92.4736 66.885 92.3914 66.7823C92.2065 66.5562 92.2681 63.8644 92.4941 63.3712C92.5558 63.1658 92.5558 62.9808 92.453 62.9192C92.3709 62.8575 92.3503 62.0972 92.4119 61.1931C92.4736 60.3095 92.4736 59.4465 92.3914 59.2821C92.3298 59.1177 92.2681 56.1998 92.2887 52.8094V46.6448L93.0489 46.5216C93.4805 46.4599 93.9325 46.4805 94.0558 46.5627C94.1997 46.6448 95.6175 46.6654 97.1997 46.6243C98.8025 46.5832 100.57 46.5421 101.124 46.5627C101.987 46.6037 108.234 46.5627 109.241 46.5216C109.405 46.5216 111.193 46.5421 113.207 46.5832C115.221 46.6448 116.906 46.6037 116.967 46.5216C117.008 46.4188 117.193 46.3983 117.337 46.4599C117.481 46.5216 117.728 46.3983 117.892 46.2133C118.118 45.9462 118.159 45.1859 118.118 42.6996L118.056 39.5351L121.241 39.5762L124.426 39.6173L124.55 40.1926Z" fill="black"/>
<path d="M101.412 69.1659C101.248 69.2686 100.693 69.2892 100.159 69.2275C99.3161 69.1043 99.1312 69.1659 98.6586 69.6385C98.1449 70.1522 98.1243 70.2344 98.412 70.6454C98.8435 71.2824 99.6449 71.344 109.241 71.3029C118.18 71.2618 118.693 71.2002 118.693 70.2961C118.693 69.3508 118.303 69.3097 110.186 69.2275C105.994 69.1864 102.378 69.1248 102.131 69.0632C101.905 69.0221 101.576 69.0632 101.412 69.1659Z" fill="black"/>
<path d="M108.728 75.577C108.543 75.6797 108.275 75.7208 108.132 75.6592C107.721 75.4948 106.632 76.0496 106.529 76.5017C106.447 76.7688 106.549 77.0565 106.817 77.303C107.186 77.6318 107.7 77.6729 112.097 77.6729C114.769 77.6729 117.543 77.6318 118.283 77.5702C119.433 77.488 119.618 77.4058 119.68 77.0359C119.721 76.8099 119.557 76.3989 119.351 76.1318C118.961 75.6592 118.858 75.6386 116.392 75.6592C114.995 75.6797 113.741 75.6181 113.577 75.5359C113.433 75.4331 112.94 75.4537 112.488 75.5564C112.015 75.6592 111.111 75.6592 110.371 75.5564C109.611 75.4537 108.912 75.4537 108.728 75.577Z" fill="black"/>
<path d="M109.673 108.66C109.549 108.783 109.447 108.989 109.447 109.091C109.447 109.215 109.282 109.523 109.077 109.79C108.769 110.18 108.727 110.489 108.851 111.331C108.933 111.927 108.912 112.482 108.83 112.585C108.727 112.687 108.727 112.955 108.83 113.201C108.953 113.55 108.953 117.29 108.83 117.64C108.81 117.701 108.81 117.824 108.83 117.948C108.912 118.42 108.892 120.311 108.789 120.434C108.727 120.496 108.727 120.825 108.81 121.194C108.892 121.564 108.933 123.927 108.892 126.475C108.871 129.023 108.851 131.469 108.851 131.921C108.953 140.448 108.953 140.633 109.344 141.065C109.549 141.291 109.837 141.455 109.981 141.393C110.125 141.332 110.289 141.352 110.371 141.435C110.453 141.517 116.474 141.578 123.748 141.578C137.68 141.599 137.66 141.599 137.29 140.715C137.187 140.51 137.146 140.243 137.187 140.14C137.29 139.791 137.372 109.749 137.249 109.359C137.207 109.153 136.961 109.009 136.673 109.009C136.427 109.009 136.16 108.865 136.077 108.701C135.954 108.352 134.906 108.29 134.577 108.619C134.433 108.763 134.228 108.783 133.981 108.639C133.55 108.413 130.509 108.434 130.283 108.66C130.2 108.722 129.995 108.722 129.81 108.639C129.522 108.496 125.166 108.475 124.858 108.598C124.796 108.619 124.673 108.639 124.57 108.619C124.467 108.598 121.118 108.557 117.132 108.516C112.221 108.475 109.816 108.516 109.673 108.66ZM135.214 124.831C135.214 132.681 135.194 139.215 135.173 139.318C135.153 139.462 131.187 139.544 123.07 139.524H110.988L111.008 125.242C111.029 117.393 111.049 110.859 111.07 110.756C111.09 110.612 115.262 110.55 123.152 110.55H135.235L135.214 124.831Z" fill="black"/>
<path d="M117.317 118.667C117.255 118.729 117.029 118.77 116.803 118.77C116.577 118.77 116.248 118.955 116.104 119.201C115.837 119.592 115.858 119.694 116.187 120.105C116.556 120.557 116.762 120.599 118.919 120.66C120.214 120.701 121.365 120.722 121.467 120.722C121.591 120.722 123.502 120.681 125.721 120.64C127.94 120.599 129.851 120.496 129.974 120.434C130.283 120.229 130.468 119.057 130.221 118.811C130.016 118.605 117.543 118.462 117.317 118.667Z" fill="black"/>
<path d="M120.111 125.469C119.721 126.229 121.056 127.4 121.961 127.071C122.187 126.969 122.885 126.989 123.461 127.092C124.735 127.338 125.207 127.215 125.844 126.516C126.255 126.064 126.276 125.941 126.009 125.571C125.762 125.181 125.515 125.14 123.029 125.119C120.584 125.099 120.296 125.119 120.111 125.469Z" fill="black"/>
<path d="M157.18 78.0223C157.057 78.1661 156.913 78.4744 156.872 78.7004C156.811 78.9264 156.687 79.2757 156.605 79.4607C156.42 79.9333 157.365 80.5292 158.043 80.3648C158.331 80.2826 158.557 80.1182 158.557 79.9538C158.557 79.81 158.701 79.5634 158.865 79.4196C159.4 78.9675 159.235 78.3922 158.454 78.0634C157.591 77.7141 157.427 77.7141 157.18 78.0223Z" fill="black"/>
<path d="M182.722 85.2758C182.27 85.6663 181.839 85.995 181.736 85.995C181.633 85.995 181.284 86.2005 180.955 86.4471C180.236 86.9608 180.154 87.7211 180.75 88.0499C181.243 88.317 182.537 88.1115 182.681 87.7417C182.722 87.5978 183.195 87.2896 183.709 87.0225C185.599 86.1183 185.948 84.721 184.325 84.5977C183.647 84.5567 183.4 84.6594 182.722 85.2758Z" fill="black"/>
<path d="M30.0477 134.017C29.9861 134.078 29.3285 134.16 28.5682 134.181C26.9243 134.263 26.4517 134.592 26.76 135.455C26.9243 135.969 27.0682 136.03 27.8696 136.051C28.3833 136.071 29.0408 136.154 29.3491 136.236C29.6573 136.318 30.0066 136.318 30.1504 136.215C30.5203 135.989 31.8149 135.989 32.3286 136.195C32.5957 136.318 32.9861 136.318 33.3765 136.174C33.7259 136.051 34.3423 136.03 34.8355 136.133C35.3081 136.215 35.7191 136.215 35.7602 136.154C35.8423 136.03 37.0136 136.03 37.0136 136.133C37.0136 136.297 38.7808 136.256 38.8835 136.113C38.9452 136.01 39.0684 135.969 39.1506 136.01C39.2328 136.071 40.0959 136.154 41.0616 136.215L42.8493 136.318L43.0754 135.599C43.5274 134.243 42.8699 133.996 38.7602 134.078C37.6712 134.099 35.4108 134.119 32.493 134.14C32.2669 134.14 31.6505 134.099 31.1162 134.037C30.582 133.976 30.1093 133.955 30.0477 134.017Z" fill="black"/>
<path d="M222.689 156.353C222.504 156.558 222.504 156.866 222.689 157.524C222.812 158.017 222.935 158.654 222.956 158.942C222.976 159.23 223.161 159.805 223.346 160.216C223.531 160.647 223.696 161.202 223.696 161.49C223.696 161.757 223.839 162.25 224.004 162.558C224.168 162.887 224.312 163.463 224.312 163.812C224.312 164.182 224.394 164.49 224.476 164.49C224.559 164.49 224.641 164.695 224.661 164.942C224.723 165.867 224.949 166.75 225.237 167.305C225.401 167.613 225.545 168.168 225.545 168.538C225.545 168.887 225.627 169.257 225.75 169.319C225.853 169.38 225.935 169.648 225.915 169.915C225.894 170.161 226.038 170.737 226.244 171.168C226.47 171.62 226.675 172.381 226.737 172.853C226.778 173.346 226.922 173.737 227.004 173.737C227.107 173.737 227.189 174.107 227.189 174.559C227.189 175.011 227.271 175.381 227.374 175.381C227.559 175.381 227.908 176.901 227.846 177.497C227.826 177.703 227.99 178.114 228.216 178.422C228.524 178.792 228.607 179.12 228.524 179.531C228.442 179.86 228.463 180.23 228.586 180.374C228.935 180.826 230.025 184.442 230.148 185.552C230.168 185.778 230.312 186.312 230.456 186.744C230.6 187.155 230.682 187.627 230.62 187.771C230.579 187.895 230.662 188.182 230.826 188.367C230.99 188.552 231.175 189.107 231.237 189.6C231.299 190.093 231.442 190.607 231.545 190.73C231.668 190.874 231.709 191.121 231.648 191.285C231.525 191.573 232.12 193.73 232.388 193.997C232.47 194.08 232.531 194.388 232.531 194.696C232.531 195.004 232.675 195.539 232.86 195.888C233.025 196.258 233.127 196.628 233.045 196.751C232.983 196.854 233.066 197.162 233.251 197.429C233.415 197.696 233.497 197.984 233.436 198.045C233.353 198.128 233.394 198.292 233.497 198.436C233.785 198.826 234.216 200.429 234.073 200.655C234.011 200.758 234.052 201.004 234.155 201.21C234.257 201.415 234.463 201.991 234.586 202.504C234.73 203.018 234.977 203.717 235.121 204.087C235.285 204.436 235.408 204.991 235.408 205.32C235.408 205.648 235.47 205.998 235.573 206.08C235.655 206.162 235.716 206.306 235.716 206.368C235.778 207.025 236.086 208.053 236.23 208.053C236.353 208.053 236.436 208.484 236.436 209.018C236.436 209.573 236.579 210.19 236.744 210.395C236.908 210.621 236.99 210.97 236.929 211.196C236.867 211.402 236.949 211.731 237.114 211.916C237.422 212.265 237.586 212.881 237.792 214.32C237.853 214.772 237.997 215.244 238.121 215.388C238.223 215.532 238.264 215.82 238.203 216.025C238.121 216.251 238.203 216.518 238.388 216.683C238.552 216.827 238.696 217.197 238.696 217.505C238.696 217.813 238.84 218.347 239.004 218.676C239.169 219.025 239.353 219.662 239.395 220.094C239.415 220.546 239.621 221.265 239.806 221.717C240.011 222.149 240.175 222.847 240.175 223.258C240.175 223.649 240.258 224.121 240.36 224.306C240.627 224.799 241.717 224.902 242.107 224.471C242.395 224.142 242.395 223.957 242.066 222.251C241.86 221.224 241.634 220.382 241.532 220.382C241.449 220.382 241.367 220.258 241.367 220.114C241.367 219.95 241.799 219.621 242.354 219.354C242.888 219.087 243.381 218.799 243.443 218.697C243.504 218.594 243.751 218.491 243.997 218.429C244.244 218.388 244.593 218.203 244.778 218.039C244.943 217.854 245.271 217.71 245.456 217.71C245.662 217.71 245.95 217.566 246.093 217.402C246.237 217.238 246.484 217.094 246.648 217.094C246.813 217.094 247.224 216.827 247.552 216.498C247.881 216.169 248.395 215.758 248.724 215.594C250.326 214.751 251.025 214.32 251.025 214.176C251.025 214.094 251.251 214.012 251.539 214.012C251.826 214.012 252.052 213.929 252.052 213.847C252.052 213.621 256.039 210.929 256.347 210.929C256.491 210.929 256.573 210.416 256.573 209.573V208.217L255.772 208.854C255.34 209.203 254.888 209.491 254.785 209.491C254.662 209.491 254.354 209.676 254.087 209.922C253.388 210.539 251.95 211.505 251.395 211.751C250.799 212.018 250.265 212.347 249.525 212.943C249.196 213.19 248.806 213.395 248.621 213.395C248.456 213.395 248.087 213.58 247.799 213.806C247.511 214.032 247.141 214.217 246.997 214.217C246.854 214.217 246.607 214.381 246.463 214.587C246.319 214.813 245.744 215.224 245.21 215.532C244.285 216.046 243.833 216.087 243.833 215.655C243.833 215.553 243.73 215.224 243.586 214.895C243.463 214.587 243.34 214.196 243.299 214.053C243.278 213.929 243.073 213.416 242.847 212.922C242.621 212.45 242.374 211.772 242.292 211.402C242.23 211.053 242.045 210.724 241.901 210.662C241.758 210.601 241.532 210.025 241.388 209.368C241.244 208.69 240.895 207.683 240.627 207.087C239.806 205.34 239.662 204.888 239.703 204.498C239.723 204.292 239.6 203.943 239.415 203.737C239.21 203.511 239.107 203.203 239.169 203.059C239.23 202.895 239.066 202.278 238.799 201.703C238.532 201.128 238.367 200.655 238.429 200.655C238.49 200.655 238.449 200.532 238.326 200.388C238.079 200.1 237.319 198.045 237.052 196.956C236.764 195.806 236.066 193.812 235.716 193.217C235.552 192.929 235.408 192.497 235.408 192.292C235.408 192.086 235.326 191.819 235.223 191.696C234.936 191.388 234.34 189.353 234.442 189.066C234.566 188.758 237.175 187.299 237.607 187.299C237.751 187.299 237.956 187.114 238.079 186.888C238.203 186.662 238.408 186.477 238.552 186.477C238.696 186.477 239.025 186.189 239.271 185.86C239.538 185.511 239.826 185.244 239.908 185.244C240.196 185.244 241.367 184.155 241.367 183.908C241.367 183.764 241.778 183.21 242.292 182.655C242.806 182.1 243.217 181.463 243.217 181.237C243.217 180.99 243.381 180.435 243.607 179.983C243.895 179.367 243.977 178.792 243.936 177.579C243.915 176.696 243.792 175.874 243.648 175.73C243.525 175.607 243.422 175.216 243.422 174.846C243.422 174.497 243.278 174.086 243.114 173.942C242.949 173.798 242.806 173.572 242.806 173.408C242.806 173.264 242.621 172.915 242.374 172.668C242.148 172.401 241.737 171.887 241.511 171.497C241.264 171.107 240.895 170.696 240.669 170.572C240.299 170.346 239.127 169.401 238.47 168.764C238.285 168.579 237.895 168.374 237.627 168.291C237.381 168.209 236.929 167.983 236.641 167.798C236.107 167.449 235.059 166.915 234.689 166.832C234.586 166.812 233.847 166.421 233.045 165.99C232.264 165.538 231.093 165.024 230.477 164.819C229.552 164.552 229.264 164.346 228.956 163.771C228.751 163.401 228.463 163.031 228.319 162.969C228.175 162.928 227.744 162.332 227.374 161.675C227.004 161.017 226.634 160.442 226.552 160.38C226.47 160.319 226.161 159.743 225.874 159.106C225.586 158.469 225.237 157.873 225.134 157.812C225.011 157.75 224.929 157.545 224.929 157.36C224.929 156.887 223.963 156.065 223.408 156.065C223.141 156.065 222.812 156.188 222.689 156.353ZM228.072 166.011C228.237 165.949 228.524 166.052 228.709 166.237C228.894 166.421 229.285 166.606 229.593 166.648C229.901 166.668 230.251 166.853 230.374 167.038C230.518 167.223 230.744 167.367 230.908 167.367C231.072 167.367 232.223 167.88 233.456 168.517C234.71 169.154 236.148 169.915 236.703 170.182C237.237 170.449 237.669 170.757 237.669 170.88C237.669 170.983 237.812 171.065 237.977 171.065C238.388 171.065 239.888 172.442 240.052 172.976C240.134 173.223 240.525 173.942 240.936 174.559C241.347 175.175 241.717 175.833 241.758 175.997C241.943 176.778 241.963 178.668 241.778 178.771C241.655 178.833 241.573 179.12 241.573 179.388C241.573 179.655 241.491 179.942 241.367 180.004C241.264 180.066 241.162 180.271 241.162 180.456C241.162 180.62 240.895 181.114 240.545 181.545C240.217 181.977 239.929 182.408 239.929 182.511C239.929 182.614 239.6 182.983 239.189 183.312C238.778 183.641 238.244 184.114 237.977 184.36C237.73 184.627 237.422 184.833 237.319 184.833C237.216 184.833 236.949 185.018 236.744 185.244C236.538 185.47 236.21 185.655 235.984 185.655C235.778 185.655 235.614 185.758 235.614 185.86C235.614 186.066 233.189 187.299 232.778 187.299C232.675 187.299 232.593 187.032 232.573 186.703C232.573 186.374 232.429 185.881 232.264 185.614C231.977 185.162 231.381 182.799 231.196 181.36C231.155 180.99 230.97 180.477 230.805 180.209C230.62 179.922 230.477 179.388 230.477 178.997C230.477 178.607 230.394 178.216 230.271 178.155C230.168 178.093 230.066 177.723 230.066 177.333C230.066 176.963 229.963 176.613 229.86 176.572C229.737 176.531 229.552 175.915 229.429 175.175C229.326 174.435 229.079 173.593 228.915 173.285C228.751 172.997 228.627 172.422 228.627 172.052C228.627 171.661 228.566 171.271 228.483 171.189C228.401 171.127 228.319 170.86 228.278 170.613C228.237 170.367 228.114 170.059 228.011 169.935C227.908 169.812 227.723 169.031 227.6 168.209C227.477 167.387 227.292 166.545 227.189 166.339C226.881 165.784 226.942 165.682 227.374 165.928C227.6 166.031 227.908 166.072 228.072 166.011Z" fill="black"/>
</svg>
