<svg width="1908" height="2051" viewBox="0 0 1908 2051" fill="none" xmlns="http://www.w3.org/2000/svg">
<path d="M703.08 184.838C707.075 182.684 709.493 180.327 710.842 177.326C712.172 174.368 712.404 170.91 712.31 166.709C711.908 148.641 698.949 137.147 682.914 130.064C667.168 123.108 648.195 120.272 634.316 119.585C629.639 94.7472 611.184 70.5792 587.741 60.7563C566.839 51.9995 537.344 50.4449 511.163 57.1821C484.99 63.9171 461.858 79.0202 454.095 103.833H454.094C453.759 104.905 453.583 106.308 453.429 107.724C453.271 109.181 453.134 110.692 452.896 112.12C452.657 113.553 452.332 114.795 451.844 115.712C451.427 116.497 450.933 116.969 450.322 117.174C436.116 111.435 417.304 111.943 400.511 117.468C383.865 122.946 368.972 133.432 362.503 147.967L362.202 148.663C361.07 151.342 358.643 159.264 357.451 166.748C356.855 170.485 356.554 174.196 356.911 177.122C357.255 179.948 358.296 182.57 360.885 183.172L360.995 183.198L361.107 183.199L702.6 184.958L702.855 184.959L703.08 184.838ZM370.054 171.652C370.786 152.178 384.159 136.316 402.427 129.997H402.428C408.353 127.94 417.106 126.269 425.685 126.084C434.31 125.899 442.52 127.221 447.547 130.923V130.924C448.049 131.293 448.646 131.906 449.33 132.718C450.005 133.522 450.724 134.469 451.477 135.472C452.959 137.446 454.593 139.669 456.158 141.174C456.938 141.925 457.779 142.576 458.651 142.907C459.573 143.256 460.579 143.257 461.49 142.615C462.327 142.024 462.938 140.987 463.404 139.621C463.878 138.232 464.248 136.366 464.511 133.947L464.641 132.632C464.91 129.616 464.941 126.949 464.912 124.475C464.878 121.627 464.768 119.105 464.838 116.535C464.978 111.476 465.819 106.358 469.429 99.1948C477.302 83.5715 495.424 73.8978 515.707 69.2075C535.957 64.5247 558.084 64.8786 573.601 69.0571L574.974 69.4419C603.588 77.7724 617.735 101.695 625.122 129.376L625.291 130.01L625.94 130.108C636.9 131.744 652.143 133.311 666.101 137.264C680.09 141.227 692.45 147.501 697.9 158.315L697.901 158.316C698.741 159.98 699.94 163.558 700.246 166.681C700.399 168.256 700.31 169.575 699.946 170.457C699.771 170.88 699.547 171.165 699.292 171.346C699.041 171.524 698.691 171.652 698.169 171.652H370.054Z" fill="#231F20" stroke="black" stroke-width="2"/>
<path d="M1672.27 886.58L1891.1 886.221H1891.25L1891.4 886.174C1900.44 883.318 1904.84 876.106 1905.87 868.025C1906.9 859.986 1904.63 851.002 1900.3 844.253L1900.29 844.252C1889.66 827.715 1870.94 819.809 1851.74 820.883C1856.27 806.489 1849.24 792.17 1838.29 780.671C1826.95 768.766 1811.19 759.61 1798.73 756.099C1779.64 750.714 1758.48 756.087 1741.92 767.7C1725.74 779.048 1713.82 796.455 1712.52 815.876C1699.41 811.299 1683.92 815.13 1671.96 823.418C1659.61 831.979 1650.72 845.5 1652.15 859.932V859.933C1652.67 865.205 1654.7 871.469 1658.04 876.603C1661.37 881.727 1666.13 885.872 1672.15 886.573L1672.21 886.58H1672.27ZM1681.55 875.261C1674.74 875.585 1670.22 872.825 1667.58 868.523C1664.89 864.157 1664.06 858.088 1664.98 851.778C1666.02 844.609 1672.76 837.11 1681.26 832.176C1689.77 827.242 1699.58 825.14 1706.51 828.201H1706.51C1708.07 828.892 1709.58 830.22 1711.08 831.91C1712.58 833.596 1713.98 835.551 1715.37 837.438C1716.74 839.293 1718.11 841.108 1719.49 842.382C1720.85 843.634 1722.46 844.591 1724.25 844.198L1724.45 844.156L1724.61 844.042C1726.63 842.637 1727.77 841.055 1728.22 839.315C1728.66 837.6 1728.4 835.869 1727.9 834.226C1727.4 832.595 1726.62 830.925 1725.94 829.367C1725.25 827.77 1724.65 826.266 1724.4 824.823C1721.8 809.969 1729.82 794.826 1742.24 783.593C1754.67 772.364 1771.25 765.279 1785.33 766.365L1786.12 766.434C1794.28 767.241 1804.04 770.965 1812.97 776.251C1822.19 781.708 1830.38 788.752 1834.92 795.777V795.778C1838.3 800.987 1840.89 806.959 1840.89 812.112C1840.89 814.662 1840.25 816.978 1838.79 818.924C1837.32 820.872 1834.97 822.537 1831.38 823.666L1830.76 823.862L1830.69 824.51C1830.24 828.53 1830.91 831.281 1832.67 832.94C1834.41 834.572 1836.94 834.87 1839.52 834.721C1842.12 834.57 1845.09 833.937 1847.9 833.409C1850.77 832.871 1853.49 832.437 1855.79 832.591H1855.79C1868.75 833.447 1883.84 839.736 1889.99 851.472L1889.99 851.475C1892.34 855.94 1894.36 861.3 1894.27 865.78C1894.22 867.995 1893.66 869.928 1892.43 871.446C1891.22 872.943 1889.28 874.143 1886.26 874.754L1681.59 875.26H1681.57L1681.55 875.261Z" fill="#231F20" stroke="black" stroke-width="2"/>
<path d="M1552.55 1932.07C1553.67 1932.25 1554.65 1931.98 1555.38 1931.25C1556.07 1930.57 1556.43 1929.61 1556.62 1928.61C1556.82 1927.59 1556.86 1926.41 1556.81 1925.18C1556.62 1920.29 1554.89 1913.92 1554.02 1911.48C1522.04 1821.3 1454.52 1768.39 1369.91 1731.11L1369.91 1731.11C1366.14 1729.45 1351.52 1723.5 1337.46 1718.05C1330.42 1715.33 1323.51 1712.72 1318.15 1710.84C1315.48 1709.9 1313.18 1709.14 1311.44 1708.63C1310.57 1708.38 1309.82 1708.18 1309.23 1708.06C1308.94 1708 1308.67 1707.96 1308.43 1707.93C1308.21 1707.91 1307.94 1707.9 1307.68 1707.96C1305.2 1708.49 1303.62 1711.06 1303.2 1713.5C1302.78 1715.99 1303.44 1718.96 1306.13 1720.34L1306.19 1720.37L1306.26 1720.4C1396.64 1751.9 1476.47 1790.12 1523.99 1876.8L1524.45 1877.67C1526.93 1882.51 1532.11 1894.48 1537.09 1905.81C1539.73 1911.84 1542.32 1917.67 1544.39 1922.1C1545.43 1924.31 1546.34 1926.19 1547.08 1927.57C1547.44 1928.26 1547.77 1928.84 1548.05 1929.29C1548.2 1929.51 1548.33 1929.71 1548.47 1929.88C1548.59 1930.03 1548.75 1930.21 1548.94 1930.35C1550.29 1931.31 1551.49 1931.89 1552.55 1932.07Z" fill="#231F20" stroke="black" stroke-width="2"/>
<path d="M1672.91 1319.71C1673.7 1320.06 1674.56 1320.06 1675.39 1319.88C1676.22 1319.71 1677.09 1319.34 1677.95 1318.87C1679.68 1317.92 1681.55 1316.47 1683.34 1314.89C1686.02 1312.53 1688.62 1309.8 1690.37 1307.94L1691.8 1306.42L1691.81 1306.42C1748.42 1247.22 1798 1157.04 1817.13 1077.08L1817.57 1075.2V1075.19C1818.38 1071.75 1820.53 1061.72 1822.36 1052.07C1823.27 1047.25 1824.1 1042.51 1824.63 1038.74C1824.9 1036.86 1825.1 1035.2 1825.19 1033.89C1825.24 1033.23 1825.26 1032.65 1825.25 1032.16C1825.24 1031.69 1825.2 1031.23 1825.1 1030.87L1825.1 1030.87C1824.52 1028.82 1823.05 1027.43 1821.32 1026.69C1819.61 1025.95 1817.61 1025.82 1815.83 1026.33H1815.83C1813.62 1026.95 1812.69 1028.78 1812.24 1030.52C1812.02 1031.39 1811.9 1032.3 1811.8 1033.13C1811.71 1033.98 1811.64 1034.71 1811.54 1035.33V1035.33C1796.54 1123.46 1762.58 1201.88 1705.56 1270.8C1702.98 1273.92 1693.66 1283.72 1684.94 1293.22C1680.6 1297.94 1676.42 1302.59 1673.33 1306.25C1671.8 1308.08 1670.52 1309.68 1669.63 1310.93C1669.18 1311.55 1668.82 1312.11 1668.57 1312.58C1668.44 1312.82 1668.33 1313.05 1668.26 1313.27C1668.19 1313.48 1668.11 1313.76 1668.14 1314.07L1668.17 1314.39L1668.38 1314.64L1672.56 1319.45L1672.71 1319.62L1672.91 1319.71Z" fill="#231F20" stroke="black" stroke-width="2"/>
<path d="M447.332 789.839C448.423 790.022 449.386 789.761 450.126 789.075C450.82 788.432 451.221 787.505 451.456 786.529C451.693 785.538 451.785 784.39 451.78 783.184C451.76 778.401 450.203 772.059 448.98 769.205V769.204C432.753 731.396 390.271 716.797 351.792 722.007H351.792C340.304 723.567 329.07 728.701 320.078 735.814L320.077 735.815C318.299 737.225 311.853 742.999 307.263 748.829C304.988 751.718 303.058 754.756 302.481 757.349C302.188 758.666 302.216 759.991 302.86 761.128C303.511 762.279 304.682 763.048 306.273 763.471L306.68 763.57C310.85 764.472 313.799 761.841 316.074 758.887C317.257 757.351 318.35 755.607 319.375 754.064C320.425 752.485 321.404 751.116 322.417 750.168H322.418C337.416 736.121 358.588 731.11 378.998 733.777C399.41 736.444 418.931 746.774 430.603 763.23V763.231C431.521 764.523 432.568 766.52 433.694 768.888C434.814 771.246 435.98 773.9 437.15 776.496C438.314 779.078 439.481 781.602 440.585 783.647C441.138 784.67 441.684 785.592 442.216 786.35C442.739 787.095 443.292 787.745 443.871 788.166L444.341 788.497C445.427 789.23 446.421 789.687 447.332 789.839Z" fill="#231F20" stroke="black" stroke-width="2"/>
<path d="M1865.6 286.133C1867.24 286.133 1868.35 285.02 1868.99 283.738C1869.64 282.453 1869.93 280.813 1869.93 279.233C1869.93 277.653 1869.64 276.013 1868.99 274.729C1868.35 273.446 1867.24 272.334 1865.6 272.334H1745.08L1744.91 272.401C1741.57 273.697 1740.62 277.236 1740.87 280.115C1741 281.584 1741.44 283.022 1742.14 284.123C1742.82 285.203 1743.88 286.133 1745.27 286.133H1865.6Z" fill="#231F20" stroke="black" stroke-width="2"/>
<path d="M1565.54 14.8L1565.74 14.0666L1567.97 6.02655L1568.11 5.4953L1567.74 5.08807L1564.33 1.32831L1564.03 1.00018H1445.62C1445.33 1.00018 1445.09 1.10995 1444.98 1.17108C1444.84 1.2437 1444.72 1.33309 1444.61 1.41815C1444.39 1.58958 1444.14 1.81564 1443.9 2.05878C1443.41 2.54877 1442.83 3.20348 1442.24 3.86737C1441.64 4.54111 1441.03 5.23056 1440.48 5.82343C1439.91 6.43193 1439.46 6.87306 1439.17 7.0871L1438.07 7.89276L1439.17 8.6994C1439.46 8.91308 1439.91 9.35423 1440.48 9.96405C1441.03 10.5582 1441.64 11.2495 1442.24 11.925C1442.83 12.5904 1443.41 13.2463 1443.9 13.7375C1444.14 13.9813 1444.38 14.2082 1444.6 14.3801C1444.71 14.4654 1444.84 14.5552 1444.98 14.6281C1445.09 14.6894 1445.33 14.8 1445.62 14.8H1565.54Z" fill="#231F20" stroke="black" stroke-width="2"/>
<path d="M420.32 404.879L420.611 404.394L424.14 398.527L424.541 397.862L423.996 397.309L420.465 393.736L420.172 393.438H297.244V404.879H420.32Z" fill="#231F20" stroke="black" stroke-width="2"/>
<path d="M306.814 534.652L307.072 534.473C309.027 533.115 310.212 531.684 310.79 529.923C311.353 528.207 311.296 526.298 311.034 524.094L310.93 523.211H187.964L187.673 523.697L184.144 529.563L183.743 530.229L184.288 530.782L187.817 534.355L188.111 534.652H306.814Z" fill="#231F20" stroke="black" stroke-width="2"/>
<path d="M276.814 946.44L277.072 946.261C279.027 944.904 280.212 943.472 280.79 941.711C281.353 939.995 281.296 938.087 281.034 935.882L280.93 935H157.964L157.673 935.485L154.144 941.351L153.743 942.017L154.288 942.57L157.817 946.143L158.111 946.44H276.814Z" fill="#231F20" stroke="black" stroke-width="2"/>
<mask id="path-11-outside-1_9_1604" maskUnits="userSpaceOnUse" x="-0.000488281" y="279.627" width="1854" height="1771" fill="black">
<rect fill="white" x="-0.000488281" y="279.627" width="1854" height="1771"/>
<path d="M634.117 2036.83H754.449C749.403 2022.31 741.315 2009.16 736.724 1994.39C731.637 1978 727.877 1959.67 728.416 1942.52L632.967 1921.18L634.117 2036.83ZM622.32 2036.83L621.309 1918.68C608.992 1916.29 596.179 1908.58 584.719 1905.72C568.334 1901.67 550.144 1901.03 532.663 1896.44C509.798 1890.43 488.254 1880.16 465.443 1874C460.71 1928.28 473.05 1982.88 461.879 2036.83H622.32ZM454.801 1866.95H275.484C277.225 1923.35 271.09 1981.17 280.502 2036.53L449.878 2039.12C451.164 2038.15 454.638 2016.16 454.907 2012.16C458.075 1965.07 452.326 1914.4 454.801 1866.95ZM454.801 1853.96V1743.07C454.801 1742.19 451.338 1727.38 450.694 1725.95C449.988 1724.38 449.122 1722.91 447.772 1721.79L284.187 1721.11C280.515 1722.46 278.531 1725.12 277.883 1728.96C274.833 1747.03 278.48 1777.47 277.951 1797.46C277.802 1803.07 275.587 1808.12 275.376 1813.75C274.86 1827.5 275.979 1841.43 275.473 1855.16C295.507 1855.64 315.705 1854.52 335.758 1855.04C349.16 1855.39 364.626 1857.4 378.012 1857.61C397.983 1857.95 427.898 1859.86 446.661 1857.63C450.13 1857.22 452.701 1857.4 454.801 1853.96ZM768.604 2036.83H1042.3L1037.59 1697.06C1013.62 1696.48 989.487 1697.8 965.502 1697.19C955.982 1696.94 949.397 1689.5 947.809 1702.86C945.063 1725.82 947.29 1763.61 947.809 1788.02C948.622 1825.6 955.369 1871.56 952.743 1908.35C949.916 1948.19 935.943 1956.56 897.303 1959.07C864.893 1961.17 828.247 1957.98 796.007 1953.98C777.415 1951.67 758.805 1947.63 740.304 1944.81C739.61 1977.76 753.607 2008.42 768.604 2036.83ZM432.385 1694.71H291.999V1711.23H438.285C438.052 1704.14 441.05 1696.16 432.385 1694.71ZM1054.1 2036.83H1275.89L1264.07 1918.87C1262.75 1917.4 1233.84 1934.71 1228.66 1936.51C1211.51 1942.47 1171.8 1949.54 1162.11 1929.99C1157.71 1921.1 1155.36 1897.79 1153.51 1886.67C1149.93 1864.91 1146.94 1842.55 1144.03 1820.67C1138.02 1775.76 1133.57 1730.27 1129.6 1685.26L1047.02 1697.08L1054.1 2036.83ZM417.05 1685.27C414.579 1664.91 394.55 1671.3 380.595 1671.22C365.655 1671.11 337.351 1668.71 324.344 1671.6C318.121 1672.99 313.227 1678.74 313.234 1685.27H417.05ZM350.974 1659.31C391.78 1663.14 391.693 1646.04 350.974 1649.88V1659.31ZM327.38 1607.42C324.196 1603.79 307.639 1622.99 311.925 1631C313.387 1633.75 324.778 1642.67 325.03 1634.58C325.322 1625.2 326.778 1616.66 327.38 1607.42ZM393.455 1640.44V1606.23C393.455 1601.71 369.009 1597.86 363.971 1597.76C359.395 1597.68 336.828 1600.56 336.828 1603.87V1640.44H393.455ZM1152.99 1529.76L1129.58 1529.54C1133.35 1628.12 1142.6 1727.27 1155.82 1825.39C1160.29 1858.58 1164.39 1892.47 1171.93 1924.89C1181.4 1939.71 1223.1 1927.4 1236.67 1920.92C1246.06 1916.43 1253.44 1909.07 1261.8 1903.11C1263.37 1880.35 1257.85 1858.34 1253.51 1836.23C1246.72 1801.56 1236.65 1767.47 1229.41 1732.92C1215.25 1665.31 1203.73 1597.08 1188.4 1529.75L1164.98 1529.54L1169.58 1582.36C1167.72 1585.95 1165.4 1586.75 1161.49 1586.19C1156.29 1585.44 1156.24 1536.96 1152.99 1529.76ZM1315.99 1430.46C1310.81 1429.27 1310.74 1433.31 1308.45 1435.88C1282.49 1464.88 1256.94 1494.55 1229.74 1522.43C1227.89 1524.32 1227.11 1526.84 1225.9 1529.08L1200.37 1529.54C1201.21 1550.31 1203.06 1568.44 1223.21 1578.68C1260.42 1597.6 1310.16 1577.08 1339.64 1552C1346.83 1545.88 1370.15 1521.88 1372.59 1514.18C1374.64 1507.71 1364.45 1513.26 1359.96 1512.96C1343.35 1511.9 1321.98 1498.12 1312.59 1484.58C1299.64 1465.88 1309.59 1449.23 1315.99 1430.46ZM950.276 1524.83V1647.52H1001.02L1122.68 1632.34C1128.58 1628.5 1122.83 1612.3 1122.51 1606.24C1121.15 1580.71 1121.4 1554.72 1117.79 1529.55H1012.81C1011.8 1529.55 998.738 1523.43 996.667 1522.1C967.796 1503.6 990.012 1481.92 1004.61 1462.36C1022.25 1438.75 1042.48 1416.67 1061.17 1393.87L1020.44 1399.79C1013.86 1411.3 1007.27 1424.72 997.564 1434.1C989.225 1442.15 977.036 1446.36 969.037 1452.75C962.556 1457.92 959.355 1466.88 953.863 1472.96C895.689 1537.19 773.389 1603.12 690.195 1626.91C676.656 1630.79 657.487 1632.51 645.861 1636.84C643.046 1637.9 640.289 1638.83 639.299 1642.08C625.568 1712.14 608.713 1781.85 597.077 1852.32C595.638 1861.04 588.898 1892.24 592.711 1897.74C595.92 1902.36 682.504 1922.58 694.996 1925.22C758.183 1938.56 835.256 1951.76 899.66 1947.27C908.95 1946.63 926.311 1944.51 932.72 1937.87C944.823 1925.31 941.329 1877.19 940.955 1858.58C938.77 1750.38 937.542 1641.54 938.369 1532.96L943.184 1523.54L950.276 1524.83ZM459.528 1310.12L447.639 1309.02L424.117 1294.75L410.209 1359.43L447.712 1373.83L459.528 1310.12ZM434.745 1475.28C444.799 1476.6 459.379 1475.28 470.137 1475.28C470.867 1475.28 474.486 1480.08 476.001 1481.18C470.007 1489.82 456.412 1487.58 446.798 1486.82C419.424 1484.67 396.742 1476.96 379.337 1455.19C373.639 1448.06 365.23 1438.92 375.759 1433.03L381.636 1437.52L414.689 1284.19L374.867 1282.08C361.108 1350.38 345.267 1419.16 337.074 1488.5C333.559 1518.24 329.16 1554.44 333.78 1582.92C334.169 1585.32 332.008 1588.2 332.254 1589.59C333.255 1595.24 342.591 1591.55 342.852 1586.39C349.657 1550.5 350.857 1512.67 358.643 1477.04C360.108 1470.34 361.445 1464.23 369.851 1465.84L353.352 1588.52C365.979 1588.6 391.192 1586.58 399.306 1598.01C404.616 1605.51 408.786 1645.27 402.974 1648.78C399.157 1651.08 390.029 1648.51 391.101 1656.95C403.663 1658.26 416.058 1662.1 424.143 1672.28C426.997 1675.87 428.268 1681.75 431.285 1684.02C434.527 1686.44 440.368 1686.14 444.307 1689.87C450.616 1695.82 448.3 1704.9 451.325 1711.16C456.25 1721.36 462.847 1720.16 464.338 1738.25C467.516 1776.79 461.473 1819.35 464.587 1858.34C465.853 1862.2 472.456 1863.9 476.106 1865.69C506.518 1880.67 545.635 1888 578.639 1895.29L629.39 1638.1C506.076 1640.72 509.117 1478.46 497.26 1391.54L494.892 1307.76L470.068 1312.4L454.725 1387.91C451.295 1392.2 415.543 1371.22 407.631 1371.46C406.596 1388.11 387.684 1439.71 391.516 1452.39C392.9 1456.98 405.24 1464.96 409.865 1467.12C414.863 1469.47 429.857 1474.63 434.745 1475.28ZM1353.75 1430.46C1352.59 1410.7 1353.29 1389.47 1342.41 1372.19C1335.95 1361.94 1320.14 1349.11 1310.19 1362.11C1301.2 1373.84 1319.11 1379.43 1325.1 1389.5C1339.04 1412.91 1318.91 1440.51 1316.46 1462.96C1314.03 1485.16 1357.92 1513.19 1377.22 1497.58C1379.9 1495.42 1389.16 1482.06 1391.08 1478.42C1400.64 1460.27 1399.39 1457.26 1416.31 1442.28C1428.77 1431.26 1440.37 1420.24 1452.77 1410.32C1473.77 1393.5 1459.63 1322.35 1457.45 1297.24C1454.32 1288.47 1465.36 1248.96 1456.15 1246.51C1437.61 1248.39 1432.79 1270.3 1422.78 1282.99C1432.96 1297.9 1444.79 1314.9 1443.4 1333.71C1439.64 1333.91 1437.84 1334.55 1435.19 1331.3C1432.41 1327.9 1426.47 1307.71 1421.72 1299.95C1416.62 1291.66 1398.56 1269.38 1388.33 1270.47C1381.44 1271.2 1371.97 1281.27 1376.09 1288.94C1377.37 1291.32 1395.11 1304.36 1399.79 1310.08C1412.51 1325.63 1422.6 1351.35 1422.16 1371.46C1418.96 1371.5 1415.88 1372.46 1413.93 1369.08C1410.8 1363.66 1408.26 1347.92 1405.1 1340.16C1399.96 1327.51 1392.57 1315.44 1382.11 1306.54C1373.35 1299.11 1357.81 1288.76 1350.74 1303.68C1342.54 1320.98 1366.22 1331.51 1374.93 1342.02C1388.86 1358.79 1396 1382.96 1396.2 1404.51L1387.09 1404.19C1383.52 1388.71 1382.99 1375.11 1375.05 1360.78C1369.2 1350.2 1337.91 1314.75 1333.48 1340.74C1331.82 1350.36 1346.65 1359.23 1351.84 1367.47C1363.58 1386.08 1363.85 1409.15 1363.16 1430.46H1353.75ZM1431.59 1246.43C1421.83 1245.98 1411.87 1247.03 1402.1 1246.43C1361.37 1243.92 1320.28 1238.42 1279.52 1236.87C1257.7 1236.04 1231.06 1232.35 1216.94 1252.35C1175.7 1304.48 1131.63 1354.32 1089.53 1405.71C1060.47 1441.19 1030.7 1476.59 1004.59 1514.23C1006.86 1517.7 1009.11 1517.47 1012.68 1517.86C1033.3 1520.1 1057.89 1516.06 1078.98 1517.64L1095.27 1520.22L1219.23 1518.91L1316.55 1410.98C1326.37 1386.39 1292.05 1388.67 1297.57 1363.7C1301.13 1347.63 1321.65 1346.92 1322.77 1345.2C1323.97 1343.35 1322.46 1336.02 1325.71 1330.43C1328.97 1324.8 1337.75 1322.99 1339.18 1317.96C1340.52 1313.28 1338.96 1307.51 1340.05 1302.32C1342.37 1291.44 1355.1 1285.99 1365.43 1286.42C1365.87 1253.23 1395.46 1256.58 1416.15 1272.36L1431.59 1246.43ZM1124.88 1227.54H1196.85C1198.49 1227.54 1217.53 1212.58 1216.88 1209.87C1191.38 1192.36 1165.8 1190.67 1135.49 1192.14C1115.54 1198.23 1086.3 1189.43 1071.97 1206.48C1045.24 1238.31 1032.76 1281.86 994.927 1306.4C973.317 1320.43 949.609 1318.86 963.956 1354.24C975.276 1382.16 1001.4 1390.16 1029.42 1388.08C1045.61 1386.87 1070.85 1382.16 1081.27 1369.15L1157.89 1278.24C1158.88 1272.91 1155.58 1274.96 1152.05 1274.72C1146.51 1274.35 1133.46 1276.52 1130.66 1272.48C1121.02 1258.52 1151.15 1265.3 1156.69 1265.47C1170.93 1265.91 1176.72 1254.03 1185.06 1244.07C1187.05 1241.7 1189.55 1241.02 1188.58 1236.98H1128.42C1124.75 1234.43 1124.36 1231.9 1124.88 1227.54ZM1469.35 1247.59C1471.17 1253.8 1469.35 1278.8 1469.35 1287.71C1469.35 1288.68 1463.28 1291.83 1470.51 1291.23L1559.03 1189.8L1464.64 1239.38C1463.19 1243.54 1468.94 1246.16 1469.35 1247.59ZM1582.59 1159.13C1576.02 1156.4 1568.3 1160.43 1562.1 1163.39C1521.39 1182.86 1483.05 1212.87 1439.68 1227.36C1390.12 1223.07 1340.91 1220.4 1291.2 1218.11C1273.45 1217.28 1252.59 1212.58 1234.67 1215.8C1232.42 1216.22 1218.62 1223.79 1216.08 1225.55C1206.5 1232.27 1187.88 1256.23 1179.18 1266.51C1124.85 1330.71 1062.81 1401.5 1013 1468.39C1008.84 1473.95 988.203 1500.63 992.759 1505.95C997.84 1507.1 998.02 1503.2 1000.31 1500.54C1069.75 1419.92 1132.1 1331.95 1202.79 1252.35C1220.07 1232.87 1229.47 1223.68 1258.29 1225.06C1320.82 1228.04 1383.49 1236.27 1446.43 1236.47C1487.15 1212.2 1540.03 1192.31 1578.15 1165.18C1580.94 1163.19 1583.96 1165.19 1582.59 1159.13ZM998.903 1142.76L995.024 1148.54C994.706 1150.84 996.114 1151.78 997.523 1153.16C1013.68 1169.1 1045.46 1182.58 1063.42 1198.28C1068.12 1199.51 1073.97 1189.79 1068.21 1186.28L1006.84 1143.84L998.903 1142.76ZM494.921 1298.34L494.803 1219.18C498.831 1179.28 498.356 1139.06 501.968 1098.93C502.96 1087.89 504.926 1075.72 506.69 1064.73C502.791 1066.14 500.854 1071.06 498.656 1074.38C458.967 1134.34 443.199 1209.28 426.342 1278.36C426.04 1281.32 426.647 1283.31 428.816 1285.39C429.801 1286.34 450.411 1299.84 451.72 1300.22C464.752 1304.06 481.411 1296.32 494.921 1298.34ZM506.698 1038.79C462.002 1053.01 380.131 1083.19 357.631 1126.83C342.083 1156.98 339.457 1223.46 347.294 1256C349.32 1264.42 352.26 1266.68 360.297 1268.95C377.94 1273.95 398.558 1272.2 416.766 1272.1C431.928 1205.9 448.909 1140.97 481.878 1081.21C488.389 1069.39 497.884 1057.94 503.86 1046.55C505.246 1043.91 507.561 1042.39 506.698 1038.79ZM1311.27 1208.67C1308.5 1145.04 1304.15 1078.57 1287.02 1017.03C1269.9 955.578 1245.97 923.243 1190.18 892.081C1186.22 889.859 1156.88 874.616 1155.55 875.997C1186.76 980.872 1210.96 1088.19 1219.62 1197.68C1222.76 1207.99 1253.69 1202.66 1262.91 1203.94L1311.27 1208.67ZM737.91 1274.71C741.842 1255.55 747.125 1236.15 749.479 1216.67C760.011 1129.57 754.529 959.278 703.539 885.606C693.654 871.316 677.767 853.243 659.153 854.955C642.412 856.488 599.323 877.032 585.79 887.815C523.878 937.146 516.984 1053.92 511.442 1127.28C502.834 1241.27 499.102 1376.88 519.216 1489.91C528.081 1539.72 543.242 1609.12 598.746 1625.08C654.18 1641.02 760.843 1590.71 811.13 1563.82C863.309 1535.9 918.17 1500.62 954.997 1454.07C925.825 1450.27 895.754 1427.56 885.429 1399.75C883.163 1393.64 876.601 1366.12 879.681 1362.23C880.163 1361.62 886.008 1359.1 887.78 1361.99C891.318 1367.75 891.627 1384.75 894.296 1393.24C900.241 1412.14 925.851 1436.96 945.423 1441.2C976.942 1448.02 994.168 1422.8 1009.26 1399.8C970.263 1394.51 937.276 1353.72 954.997 1314.86C931.353 1320.35 909.28 1331.63 886.035 1339.07C852.891 1349.68 819.378 1357.06 786.249 1369.06C749.491 1382.36 704.011 1407.2 667.285 1415.26C652.964 1418.39 652.987 1410.68 664.13 1405.02C672.641 1400.68 730.133 1382.96 730.97 1379.4L719.244 1177.14C721.512 1171.82 728.752 1171.52 730.5 1177.16L737.91 1274.71ZM742.663 1373.83C743.394 1374.76 755.531 1370.18 757.679 1368.79C767.274 1362.64 775.72 1327.26 779.223 1314.84C810.408 1204.26 819.672 1082.59 793.844 969.896C785.742 934.551 760.631 858.227 729.809 838.111C720.419 831.981 691.723 844.159 681.315 848.839C734.404 889.224 751.502 969.703 758.93 1033.13C769.198 1120.8 765.793 1206.08 744.347 1291.76C738.401 1315.52 738.318 1333.3 740.284 1358.5C740.687 1363.64 743.236 1368.52 742.663 1373.83ZM1018.73 819.362C1019.12 824.277 1017.92 829.91 1018.73 834.673C1020.95 847.693 1051.58 851.932 1055.44 859.47C1061.46 871.22 1025.41 901.415 1013.94 905.432C928.267 935.545 866.479 872.987 820.934 810.677C818.065 806.756 807.608 788.172 806.418 787.441C795.2 780.565 764.807 790.533 763.868 806.549C762.958 822.04 802.762 876.825 814.568 890.19C817.692 893.724 839.058 915.553 840.854 915.953C847.285 917.375 856.662 890.853 864.163 887.815C872.82 893.186 867.396 898.571 863.398 905.902C861.513 909.34 848.782 930.16 847.338 930.409C835.301 932.438 811.842 903.058 804.035 893.642C785.832 871.689 770.614 847.679 756.859 822.744L737.932 828.806C737.108 832.423 738.434 832.589 740.441 834.549C819.997 912.143 826.671 1098.42 813.166 1202.5C806.13 1256.72 791.917 1310.02 775.702 1362.03C794.623 1355.32 813.677 1348.52 832.859 1342.52C845.06 1338.71 869.756 1335.12 879.369 1330.04C890.845 1323.99 898.566 1292.76 900.467 1280.36C910.125 1217.31 905.823 1148.19 903.084 1084.81C900.934 1035.12 899.809 981.921 894.663 932.59C894.283 928.945 893.331 928.227 897.213 925.549C906.476 923.837 903.455 933.184 909.392 936.925C934.12 952.527 987.099 951.657 1014.52 943.76C1023.7 941.109 1037.04 929.995 1044.62 938.513C1036.68 948.316 1024.02 952.499 1012.13 955.537C977.703 964.318 942.904 962.164 910.242 947.805C902.186 945.927 907.678 958.16 907.829 962.095C911.417 1056.01 923.397 1154.11 914.901 1247.6C912.71 1271.72 909.135 1300.4 898.374 1321.9C921.56 1317.88 941.41 1304.02 965.61 1300.67C973.489 1299.58 978.663 1302.43 987.016 1298.5C1016.58 1284.55 1036.66 1236.79 1056.15 1211.68L1056.26 1207.9L985.552 1155.71C977.023 1142.42 995.438 1125.11 1008.62 1132.65L1086.23 1186.94L1117.81 1182.68L1051.16 979.146C1047.3 972.132 1058 969.979 1060.91 976.523L1129.89 1182.43C1141.46 1184.92 1152.52 1179.68 1163.77 1180.3C1178.8 1181.12 1193.44 1187.36 1207.45 1192.14C1205.08 1136 1194.78 1079.09 1183.15 1024.16C1172.23 972.602 1158.4 921.572 1142.48 871.358C1137.85 864.206 1103.88 851.89 1094.2 848.839C1090.79 847.762 1090.83 847.748 1091.89 851.158C1099.15 874.354 1109.51 896.734 1116.62 920.813C1132.76 975.336 1146.37 1034.65 1159.61 1090.17C1162.37 1101.71 1175.42 1148.36 1174.55 1155.54C1174.18 1158.66 1171.96 1162.19 1168.56 1161.47L1108.35 927.882C1102.27 927.012 1104.68 928.31 1103.45 931.237C1100.93 937.215 1100.96 941.827 1092.98 943.884L1058.82 907.807C1064.24 888.188 1088.38 927.882 1093.02 927.854C1097.69 923.547 1101.43 912.212 1100.81 906.026C1099.97 897.576 1087.13 864.578 1082.83 855.508C1080.49 850.551 1078.29 844.255 1073.85 840.9C1061.63 831.622 1033.03 827.328 1018.73 819.362ZM896.024 675.441C899.262 675.4 902.465 674.82 905.468 676.601C907.674 677.899 924.6 705.111 930.167 710.883C966.263 748.313 1026.49 761.249 1069.4 727.299C1116.51 690.021 1130.47 621.995 1138.75 565.443C1141.26 548.351 1152.05 468.838 1147.27 458.373C1145.99 455.542 1139.75 451.524 1137.05 447.369C1114.98 413.28 1114.04 371.335 1069.39 418.209C1052.54 435.881 1046.88 449.371 1022.69 461.175C987.596 478.296 954.489 474.789 918.993 482.52C891.072 488.609 899.167 536.09 876.482 550.905C856.177 564.145 857.397 542.994 845.866 538.009C829.745 531.051 811.232 541.889 808.81 558.788C804.754 587.078 840.361 600.761 860.587 610.702C860.752 616.335 856.472 618.557 855.767 624.563C851.911 657.409 857.245 695.267 853.301 730.64C850.54 755.409 846.119 785.922 832.624 806.784C855.973 840.141 890.847 883.963 931.866 895.574C957.769 902.906 998.765 905.143 1021.86 889.762C1026.1 886.945 1047.61 865.421 1042.3 861.845C1028.53 860.298 1015.55 849.833 1007.35 838.967L1006.9 758.019C971.755 755.865 937.263 736.535 914.935 709.599C911.299 705.208 892.465 678.962 896.024 675.441ZM529.123 953.839C541.602 927.482 551.326 902.713 573.999 883.107C585.257 873.373 599.242 868.016 609.644 858.421C606.144 827.356 580.991 807.723 577.745 775.457C571.307 711.421 606.599 697.463 651.358 670.263C706.804 636.561 672.947 581.984 716.897 537.609C733.296 521.041 775.527 502.471 778.113 478.489C781.109 450.696 774.302 423.124 781.538 394.613C809.024 286.3 953.956 262.663 1045.27 296.144C1063.01 302.661 1070.2 311.318 1084.1 318.635C1103.31 328.742 1117.54 330.04 1136.72 346.249C1191.91 392.901 1200.51 461.603 1172.49 526.039C1166.82 539.073 1152.6 556.924 1149.06 566.299C1142.91 582.591 1141.51 613.504 1136 633.483C1119.7 692.782 1086 751.115 1018.9 758.198C1018.72 775.898 1013.44 791.969 1019.06 809.559C1077.02 830.2 1139.61 851.725 1193.36 881.823C1289.3 935.545 1304.71 1014.09 1316.01 1117.81C1319.31 1148.04 1319.29 1178.55 1323.26 1208.46C1338.37 1210.32 1354.01 1209.87 1369.09 1211.02C1389.65 1212.58 1422.64 1218.59 1442.1 1215.63C1449.21 1214.54 1467.98 1203.62 1475.68 1199.64C1497.67 1188.27 1557.05 1148.81 1577.02 1147.42C1588.97 1146.6 1598.58 1155.92 1591.66 1166.96C1553.27 1215.44 1511.71 1261.6 1470.53 1307.78C1467.57 1313.59 1473.59 1340.27 1474.09 1349.04C1475.12 1367.36 1475.84 1399.88 1463.53 1414C1459.49 1418.66 1453.68 1420.82 1450.41 1424.48C1447.33 1427.95 1446.56 1432.94 1443.46 1436.42C1435.48 1445.39 1414.41 1454.66 1406.93 1465.94C1396.65 1481.43 1390.78 1506.06 1378.34 1524.64C1344.58 1575.08 1270.44 1618.38 1212.19 1583.82C1219.19 1628.15 1227.2 1672.55 1236.42 1716.47C1247.05 1767.06 1263.66 1820.02 1270.85 1870.8C1273.82 1891.87 1273.6 1913.12 1275.86 1934.22C1279.54 1968.4 1283.93 2002.66 1287.67 2036.83H1848.04C1852.49 2036.83 1852.49 2048.63 1848.04 2048.63H5.32864C0.889801 2048.63 0.889801 2036.83 5.32864 2036.83H268.405C269.624 2029.11 266.315 2022 265.938 2014.52C261.34 1923.25 269.377 1827.95 266.309 1736.26C262.525 1725.03 279.59 1711.48 280.17 1709.48C281.826 1703.79 280.397 1694.07 284.741 1688.63C288.514 1683.9 297.174 1684.75 301.371 1681.67C306.195 1678.12 308.248 1665.48 318.562 1661.11C323.901 1658.84 341.457 1660.46 341.511 1655.78C341.59 1648.83 327.804 1657.01 324.151 1656.84C313.202 1656.28 289.648 1649.78 285.985 1638.22C278.924 1615.95 305.058 1598.54 320.386 1586.94L322.661 1525.99C328.511 1476.46 335.863 1427.16 344.618 1378.07C350.473 1345.24 359.79 1312.63 362.721 1279.51C338.88 1279.67 337.488 1261.67 334.721 1242.63C329.73 1208.31 332.055 1173.51 341.547 1140.24H132.738L129.208 1134.37L135.086 1130.79C204.951 1129.55 275.168 1133.66 344.748 1128.1C352.344 1119.02 356.518 1107.38 365.036 1098.85C370.21 1093.66 382.506 1084.71 388.919 1080.25C425.432 1054.92 468.586 1039.27 510.915 1026.49L525.583 965.643H465.418C464.236 965.643 460.192 962.026 457.152 963.269C456.635 958.919 457.048 956.379 460.699 953.839H529.123Z"/>
</mask>
<path d="M634.117 2036.83H754.449C749.403 2022.31 741.315 2009.16 736.724 1994.39C731.637 1978 727.877 1959.67 728.416 1942.52L632.967 1921.18L634.117 2036.83ZM622.32 2036.83L621.309 1918.68C608.992 1916.29 596.179 1908.58 584.719 1905.72C568.334 1901.67 550.144 1901.03 532.663 1896.44C509.798 1890.43 488.254 1880.16 465.443 1874C460.71 1928.28 473.05 1982.88 461.879 2036.83H622.32ZM454.801 1866.95H275.484C277.225 1923.35 271.09 1981.17 280.502 2036.53L449.878 2039.12C451.164 2038.15 454.638 2016.16 454.907 2012.16C458.075 1965.07 452.326 1914.4 454.801 1866.95ZM454.801 1853.96V1743.07C454.801 1742.19 451.338 1727.38 450.694 1725.95C449.988 1724.38 449.122 1722.91 447.772 1721.79L284.187 1721.11C280.515 1722.46 278.531 1725.12 277.883 1728.96C274.833 1747.03 278.48 1777.47 277.951 1797.46C277.802 1803.07 275.587 1808.12 275.376 1813.75C274.86 1827.5 275.979 1841.43 275.473 1855.16C295.507 1855.64 315.705 1854.52 335.758 1855.04C349.16 1855.39 364.626 1857.4 378.012 1857.61C397.983 1857.95 427.898 1859.86 446.661 1857.63C450.13 1857.22 452.701 1857.4 454.801 1853.96ZM768.604 2036.83H1042.3L1037.59 1697.06C1013.62 1696.48 989.487 1697.8 965.502 1697.19C955.982 1696.94 949.397 1689.5 947.809 1702.86C945.063 1725.82 947.29 1763.61 947.809 1788.02C948.622 1825.6 955.369 1871.56 952.743 1908.35C949.916 1948.19 935.943 1956.56 897.303 1959.07C864.893 1961.17 828.247 1957.98 796.007 1953.98C777.415 1951.67 758.805 1947.63 740.304 1944.81C739.61 1977.76 753.607 2008.42 768.604 2036.83ZM432.385 1694.71H291.999V1711.23H438.285C438.052 1704.14 441.05 1696.16 432.385 1694.71ZM1054.1 2036.83H1275.89L1264.07 1918.87C1262.75 1917.4 1233.84 1934.71 1228.66 1936.51C1211.51 1942.47 1171.8 1949.54 1162.11 1929.99C1157.71 1921.1 1155.36 1897.79 1153.51 1886.67C1149.93 1864.91 1146.94 1842.55 1144.03 1820.67C1138.02 1775.76 1133.57 1730.27 1129.6 1685.26L1047.02 1697.08L1054.1 2036.83ZM417.05 1685.27C414.579 1664.91 394.55 1671.3 380.595 1671.22C365.655 1671.11 337.351 1668.71 324.344 1671.6C318.121 1672.99 313.227 1678.74 313.234 1685.27H417.05ZM350.974 1659.31C391.78 1663.14 391.693 1646.04 350.974 1649.88V1659.31ZM327.38 1607.42C324.196 1603.79 307.639 1622.99 311.925 1631C313.387 1633.75 324.778 1642.67 325.03 1634.58C325.322 1625.2 326.778 1616.66 327.38 1607.42ZM393.455 1640.44V1606.23C393.455 1601.71 369.009 1597.86 363.971 1597.76C359.395 1597.68 336.828 1600.56 336.828 1603.87V1640.44H393.455ZM1152.99 1529.76L1129.58 1529.54C1133.35 1628.12 1142.6 1727.27 1155.82 1825.39C1160.29 1858.58 1164.39 1892.47 1171.93 1924.89C1181.4 1939.71 1223.1 1927.4 1236.67 1920.92C1246.06 1916.43 1253.44 1909.07 1261.8 1903.11C1263.37 1880.35 1257.85 1858.34 1253.51 1836.23C1246.72 1801.56 1236.65 1767.47 1229.41 1732.92C1215.25 1665.31 1203.73 1597.08 1188.4 1529.75L1164.98 1529.54L1169.58 1582.36C1167.72 1585.95 1165.4 1586.75 1161.49 1586.19C1156.29 1585.44 1156.24 1536.96 1152.99 1529.76ZM1315.99 1430.46C1310.81 1429.27 1310.74 1433.31 1308.45 1435.88C1282.49 1464.88 1256.94 1494.55 1229.74 1522.43C1227.89 1524.32 1227.11 1526.84 1225.9 1529.08L1200.37 1529.54C1201.21 1550.31 1203.06 1568.44 1223.21 1578.68C1260.42 1597.6 1310.16 1577.08 1339.64 1552C1346.83 1545.88 1370.15 1521.88 1372.59 1514.18C1374.64 1507.71 1364.45 1513.26 1359.96 1512.96C1343.35 1511.9 1321.98 1498.12 1312.59 1484.58C1299.64 1465.88 1309.59 1449.23 1315.99 1430.46ZM950.276 1524.83V1647.52H1001.02L1122.68 1632.34C1128.58 1628.5 1122.83 1612.3 1122.51 1606.24C1121.15 1580.71 1121.4 1554.72 1117.79 1529.55H1012.81C1011.8 1529.55 998.738 1523.43 996.667 1522.1C967.796 1503.6 990.012 1481.92 1004.61 1462.36C1022.25 1438.75 1042.48 1416.67 1061.17 1393.87L1020.44 1399.79C1013.86 1411.3 1007.27 1424.72 997.564 1434.1C989.225 1442.15 977.036 1446.36 969.037 1452.75C962.556 1457.92 959.355 1466.88 953.863 1472.96C895.689 1537.19 773.389 1603.12 690.195 1626.91C676.656 1630.79 657.487 1632.51 645.861 1636.84C643.046 1637.9 640.289 1638.83 639.299 1642.08C625.568 1712.14 608.713 1781.85 597.077 1852.32C595.638 1861.04 588.898 1892.24 592.711 1897.74C595.92 1902.36 682.504 1922.58 694.996 1925.22C758.183 1938.56 835.256 1951.76 899.66 1947.27C908.95 1946.63 926.311 1944.51 932.72 1937.87C944.823 1925.31 941.329 1877.19 940.955 1858.58C938.77 1750.38 937.542 1641.54 938.369 1532.96L943.184 1523.54L950.276 1524.83ZM459.528 1310.12L447.639 1309.02L424.117 1294.75L410.209 1359.43L447.712 1373.83L459.528 1310.12ZM434.745 1475.28C444.799 1476.6 459.379 1475.28 470.137 1475.28C470.867 1475.28 474.486 1480.08 476.001 1481.18C470.007 1489.82 456.412 1487.58 446.798 1486.82C419.424 1484.67 396.742 1476.96 379.337 1455.19C373.639 1448.06 365.23 1438.92 375.759 1433.03L381.636 1437.52L414.689 1284.19L374.867 1282.08C361.108 1350.38 345.267 1419.16 337.074 1488.5C333.559 1518.24 329.16 1554.44 333.78 1582.92C334.169 1585.32 332.008 1588.2 332.254 1589.59C333.255 1595.24 342.591 1591.55 342.852 1586.39C349.657 1550.5 350.857 1512.67 358.643 1477.04C360.108 1470.34 361.445 1464.23 369.851 1465.84L353.352 1588.52C365.979 1588.6 391.192 1586.58 399.306 1598.01C404.616 1605.51 408.786 1645.27 402.974 1648.78C399.157 1651.08 390.029 1648.51 391.101 1656.95C403.663 1658.26 416.058 1662.1 424.143 1672.28C426.997 1675.87 428.268 1681.75 431.285 1684.02C434.527 1686.44 440.368 1686.14 444.307 1689.87C450.616 1695.82 448.3 1704.9 451.325 1711.16C456.25 1721.36 462.847 1720.16 464.338 1738.25C467.516 1776.79 461.473 1819.35 464.587 1858.34C465.853 1862.2 472.456 1863.9 476.106 1865.69C506.518 1880.67 545.635 1888 578.639 1895.29L629.39 1638.1C506.076 1640.72 509.117 1478.46 497.26 1391.54L494.892 1307.76L470.068 1312.4L454.725 1387.91C451.295 1392.2 415.543 1371.22 407.631 1371.46C406.596 1388.11 387.684 1439.71 391.516 1452.39C392.9 1456.98 405.24 1464.96 409.865 1467.12C414.863 1469.47 429.857 1474.63 434.745 1475.28ZM1353.75 1430.46C1352.59 1410.7 1353.29 1389.47 1342.41 1372.19C1335.95 1361.94 1320.14 1349.11 1310.19 1362.11C1301.2 1373.84 1319.11 1379.43 1325.1 1389.5C1339.04 1412.91 1318.91 1440.51 1316.46 1462.96C1314.03 1485.16 1357.92 1513.19 1377.22 1497.58C1379.9 1495.42 1389.16 1482.06 1391.08 1478.42C1400.64 1460.27 1399.39 1457.26 1416.31 1442.28C1428.77 1431.26 1440.37 1420.24 1452.77 1410.32C1473.77 1393.5 1459.63 1322.35 1457.45 1297.24C1454.32 1288.47 1465.36 1248.96 1456.15 1246.51C1437.61 1248.39 1432.79 1270.3 1422.78 1282.99C1432.96 1297.9 1444.79 1314.9 1443.4 1333.71C1439.64 1333.91 1437.84 1334.55 1435.19 1331.3C1432.41 1327.9 1426.47 1307.71 1421.72 1299.95C1416.62 1291.66 1398.56 1269.38 1388.33 1270.47C1381.44 1271.2 1371.97 1281.27 1376.09 1288.94C1377.37 1291.32 1395.11 1304.36 1399.79 1310.08C1412.51 1325.63 1422.6 1351.35 1422.16 1371.46C1418.96 1371.5 1415.88 1372.46 1413.93 1369.08C1410.8 1363.66 1408.26 1347.92 1405.1 1340.16C1399.96 1327.51 1392.57 1315.44 1382.11 1306.54C1373.35 1299.11 1357.81 1288.76 1350.74 1303.68C1342.54 1320.98 1366.22 1331.51 1374.93 1342.02C1388.86 1358.79 1396 1382.96 1396.2 1404.51L1387.09 1404.19C1383.52 1388.71 1382.99 1375.11 1375.05 1360.78C1369.2 1350.2 1337.91 1314.75 1333.48 1340.74C1331.82 1350.36 1346.65 1359.23 1351.84 1367.47C1363.58 1386.08 1363.85 1409.15 1363.16 1430.46H1353.75ZM1431.59 1246.43C1421.83 1245.98 1411.87 1247.03 1402.1 1246.43C1361.37 1243.92 1320.28 1238.42 1279.52 1236.87C1257.7 1236.04 1231.06 1232.35 1216.94 1252.35C1175.7 1304.48 1131.63 1354.32 1089.53 1405.71C1060.47 1441.19 1030.7 1476.59 1004.59 1514.23C1006.86 1517.7 1009.11 1517.47 1012.68 1517.86C1033.3 1520.1 1057.89 1516.06 1078.98 1517.64L1095.27 1520.22L1219.23 1518.91L1316.55 1410.98C1326.37 1386.39 1292.05 1388.67 1297.57 1363.7C1301.13 1347.63 1321.65 1346.92 1322.77 1345.2C1323.97 1343.35 1322.46 1336.02 1325.71 1330.43C1328.97 1324.8 1337.75 1322.99 1339.18 1317.96C1340.52 1313.28 1338.96 1307.51 1340.05 1302.32C1342.37 1291.44 1355.1 1285.99 1365.43 1286.42C1365.87 1253.23 1395.46 1256.58 1416.15 1272.36L1431.59 1246.43ZM1124.88 1227.54H1196.85C1198.49 1227.54 1217.53 1212.58 1216.88 1209.87C1191.38 1192.36 1165.8 1190.67 1135.49 1192.14C1115.54 1198.23 1086.3 1189.43 1071.97 1206.48C1045.24 1238.31 1032.76 1281.86 994.927 1306.4C973.317 1320.43 949.609 1318.86 963.956 1354.24C975.276 1382.16 1001.4 1390.16 1029.42 1388.08C1045.61 1386.87 1070.85 1382.16 1081.27 1369.15L1157.89 1278.24C1158.88 1272.91 1155.58 1274.96 1152.05 1274.72C1146.51 1274.35 1133.46 1276.52 1130.66 1272.48C1121.02 1258.52 1151.15 1265.3 1156.69 1265.47C1170.93 1265.91 1176.72 1254.03 1185.06 1244.07C1187.05 1241.7 1189.55 1241.02 1188.58 1236.98H1128.42C1124.75 1234.43 1124.36 1231.9 1124.88 1227.54ZM1469.35 1247.59C1471.17 1253.8 1469.35 1278.8 1469.35 1287.71C1469.35 1288.68 1463.28 1291.83 1470.51 1291.23L1559.03 1189.8L1464.64 1239.38C1463.19 1243.54 1468.94 1246.16 1469.35 1247.59ZM1582.59 1159.13C1576.02 1156.4 1568.3 1160.43 1562.1 1163.39C1521.39 1182.86 1483.05 1212.87 1439.68 1227.36C1390.12 1223.07 1340.91 1220.4 1291.2 1218.11C1273.45 1217.28 1252.59 1212.58 1234.67 1215.8C1232.42 1216.22 1218.62 1223.79 1216.08 1225.55C1206.5 1232.27 1187.88 1256.23 1179.18 1266.51C1124.85 1330.71 1062.81 1401.5 1013 1468.39C1008.84 1473.95 988.203 1500.63 992.759 1505.95C997.84 1507.1 998.02 1503.2 1000.31 1500.54C1069.75 1419.92 1132.1 1331.95 1202.79 1252.35C1220.07 1232.87 1229.47 1223.68 1258.29 1225.06C1320.82 1228.04 1383.49 1236.27 1446.43 1236.47C1487.15 1212.2 1540.03 1192.31 1578.15 1165.18C1580.94 1163.19 1583.96 1165.19 1582.59 1159.13ZM998.903 1142.76L995.024 1148.54C994.706 1150.84 996.114 1151.78 997.523 1153.16C1013.68 1169.1 1045.46 1182.58 1063.42 1198.28C1068.12 1199.51 1073.97 1189.79 1068.21 1186.28L1006.84 1143.84L998.903 1142.76ZM494.921 1298.34L494.803 1219.18C498.831 1179.28 498.356 1139.06 501.968 1098.93C502.96 1087.89 504.926 1075.72 506.69 1064.73C502.791 1066.14 500.854 1071.06 498.656 1074.38C458.967 1134.34 443.199 1209.28 426.342 1278.36C426.04 1281.32 426.647 1283.31 428.816 1285.39C429.801 1286.34 450.411 1299.84 451.72 1300.22C464.752 1304.06 481.411 1296.32 494.921 1298.34ZM506.698 1038.79C462.002 1053.01 380.131 1083.19 357.631 1126.83C342.083 1156.98 339.457 1223.46 347.294 1256C349.32 1264.42 352.26 1266.68 360.297 1268.95C377.94 1273.95 398.558 1272.2 416.766 1272.1C431.928 1205.9 448.909 1140.97 481.878 1081.21C488.389 1069.39 497.884 1057.94 503.86 1046.55C505.246 1043.91 507.561 1042.39 506.698 1038.79ZM1311.27 1208.67C1308.5 1145.04 1304.15 1078.57 1287.02 1017.03C1269.9 955.578 1245.97 923.243 1190.18 892.081C1186.22 889.859 1156.88 874.616 1155.55 875.997C1186.76 980.872 1210.96 1088.19 1219.62 1197.68C1222.76 1207.99 1253.69 1202.66 1262.91 1203.94L1311.27 1208.67ZM737.91 1274.71C741.842 1255.55 747.125 1236.15 749.479 1216.67C760.011 1129.57 754.529 959.278 703.539 885.606C693.654 871.316 677.767 853.243 659.153 854.955C642.412 856.488 599.323 877.032 585.79 887.815C523.878 937.146 516.984 1053.92 511.442 1127.28C502.834 1241.27 499.102 1376.88 519.216 1489.91C528.081 1539.72 543.242 1609.12 598.746 1625.08C654.18 1641.02 760.843 1590.71 811.13 1563.82C863.309 1535.9 918.17 1500.62 954.997 1454.07C925.825 1450.27 895.754 1427.56 885.429 1399.75C883.163 1393.64 876.601 1366.12 879.681 1362.23C880.163 1361.62 886.008 1359.1 887.78 1361.99C891.318 1367.75 891.627 1384.75 894.296 1393.24C900.241 1412.14 925.851 1436.96 945.423 1441.2C976.942 1448.02 994.168 1422.8 1009.26 1399.8C970.263 1394.51 937.276 1353.72 954.997 1314.86C931.353 1320.35 909.28 1331.63 886.035 1339.07C852.891 1349.68 819.378 1357.06 786.249 1369.06C749.491 1382.36 704.011 1407.2 667.285 1415.26C652.964 1418.39 652.987 1410.68 664.13 1405.02C672.641 1400.68 730.133 1382.96 730.97 1379.4L719.244 1177.14C721.512 1171.82 728.752 1171.52 730.5 1177.16L737.91 1274.71ZM742.663 1373.83C743.394 1374.76 755.531 1370.18 757.679 1368.79C767.274 1362.64 775.72 1327.26 779.223 1314.84C810.408 1204.26 819.672 1082.59 793.844 969.896C785.742 934.551 760.631 858.227 729.809 838.111C720.419 831.981 691.723 844.159 681.315 848.839C734.404 889.224 751.502 969.703 758.93 1033.13C769.198 1120.8 765.793 1206.08 744.347 1291.76C738.401 1315.52 738.318 1333.3 740.284 1358.5C740.687 1363.64 743.236 1368.52 742.663 1373.83ZM1018.73 819.362C1019.12 824.277 1017.92 829.91 1018.73 834.673C1020.95 847.693 1051.58 851.932 1055.44 859.47C1061.46 871.22 1025.41 901.415 1013.94 905.432C928.267 935.545 866.479 872.987 820.934 810.677C818.065 806.756 807.608 788.172 806.418 787.441C795.2 780.565 764.807 790.533 763.868 806.549C762.958 822.04 802.762 876.825 814.568 890.19C817.692 893.724 839.058 915.553 840.854 915.953C847.285 917.375 856.662 890.853 864.163 887.815C872.82 893.186 867.396 898.571 863.398 905.902C861.513 909.34 848.782 930.16 847.338 930.409C835.301 932.438 811.842 903.058 804.035 893.642C785.832 871.689 770.614 847.679 756.859 822.744L737.932 828.806C737.108 832.423 738.434 832.589 740.441 834.549C819.997 912.143 826.671 1098.42 813.166 1202.5C806.13 1256.72 791.917 1310.02 775.702 1362.03C794.623 1355.32 813.677 1348.52 832.859 1342.52C845.06 1338.71 869.756 1335.12 879.369 1330.04C890.845 1323.99 898.566 1292.76 900.467 1280.36C910.125 1217.31 905.823 1148.19 903.084 1084.81C900.934 1035.12 899.809 981.921 894.663 932.59C894.283 928.945 893.331 928.227 897.213 925.549C906.476 923.837 903.455 933.184 909.392 936.925C934.12 952.527 987.099 951.657 1014.52 943.76C1023.7 941.109 1037.04 929.995 1044.62 938.513C1036.68 948.316 1024.02 952.499 1012.13 955.537C977.703 964.318 942.904 962.164 910.242 947.805C902.186 945.927 907.678 958.16 907.829 962.095C911.417 1056.01 923.397 1154.11 914.901 1247.6C912.71 1271.72 909.135 1300.4 898.374 1321.9C921.56 1317.88 941.41 1304.02 965.61 1300.67C973.489 1299.58 978.663 1302.43 987.016 1298.5C1016.58 1284.55 1036.66 1236.79 1056.15 1211.68L1056.26 1207.9L985.552 1155.71C977.023 1142.42 995.438 1125.11 1008.62 1132.65L1086.23 1186.94L1117.81 1182.68L1051.16 979.146C1047.3 972.132 1058 969.979 1060.91 976.523L1129.89 1182.43C1141.46 1184.92 1152.52 1179.68 1163.77 1180.3C1178.8 1181.12 1193.44 1187.36 1207.45 1192.14C1205.08 1136 1194.78 1079.09 1183.15 1024.16C1172.23 972.602 1158.4 921.572 1142.48 871.358C1137.85 864.206 1103.88 851.89 1094.2 848.839C1090.79 847.762 1090.83 847.748 1091.89 851.158C1099.15 874.354 1109.51 896.734 1116.62 920.813C1132.76 975.336 1146.37 1034.65 1159.61 1090.17C1162.37 1101.71 1175.42 1148.36 1174.55 1155.54C1174.18 1158.66 1171.96 1162.19 1168.56 1161.47L1108.35 927.882C1102.27 927.012 1104.68 928.31 1103.45 931.237C1100.93 937.215 1100.96 941.827 1092.98 943.884L1058.82 907.807C1064.24 888.188 1088.38 927.882 1093.02 927.854C1097.69 923.547 1101.43 912.212 1100.81 906.026C1099.97 897.576 1087.13 864.578 1082.83 855.508C1080.49 850.551 1078.29 844.255 1073.85 840.9C1061.63 831.622 1033.03 827.328 1018.73 819.362ZM896.024 675.441C899.262 675.4 902.465 674.82 905.468 676.601C907.674 677.899 924.6 705.111 930.167 710.883C966.263 748.313 1026.49 761.249 1069.4 727.299C1116.51 690.021 1130.47 621.995 1138.75 565.443C1141.26 548.351 1152.05 468.838 1147.27 458.373C1145.99 455.542 1139.75 451.524 1137.05 447.369C1114.98 413.28 1114.04 371.335 1069.39 418.209C1052.54 435.881 1046.88 449.371 1022.69 461.175C987.596 478.296 954.489 474.789 918.993 482.52C891.072 488.609 899.167 536.09 876.482 550.905C856.177 564.145 857.397 542.994 845.866 538.009C829.745 531.051 811.232 541.889 808.81 558.788C804.754 587.078 840.361 600.761 860.587 610.702C860.752 616.335 856.472 618.557 855.767 624.563C851.911 657.409 857.245 695.267 853.301 730.64C850.54 755.409 846.119 785.922 832.624 806.784C855.973 840.141 890.847 883.963 931.866 895.574C957.769 902.906 998.765 905.143 1021.86 889.762C1026.1 886.945 1047.61 865.421 1042.3 861.845C1028.53 860.298 1015.55 849.833 1007.35 838.967L1006.9 758.019C971.755 755.865 937.263 736.535 914.935 709.599C911.299 705.208 892.465 678.962 896.024 675.441ZM529.123 953.839C541.602 927.482 551.326 902.713 573.999 883.107C585.257 873.373 599.242 868.016 609.644 858.421C606.144 827.356 580.991 807.723 577.745 775.457C571.307 711.421 606.599 697.463 651.358 670.263C706.804 636.561 672.947 581.984 716.897 537.609C733.296 521.041 775.527 502.471 778.113 478.489C781.109 450.696 774.302 423.124 781.538 394.613C809.024 286.3 953.956 262.663 1045.27 296.144C1063.01 302.661 1070.2 311.318 1084.1 318.635C1103.31 328.742 1117.54 330.04 1136.72 346.249C1191.91 392.901 1200.51 461.603 1172.49 526.039C1166.82 539.073 1152.6 556.924 1149.06 566.299C1142.91 582.591 1141.51 613.504 1136 633.483C1119.7 692.782 1086 751.115 1018.9 758.198C1018.72 775.898 1013.44 791.969 1019.06 809.559C1077.02 830.2 1139.61 851.725 1193.36 881.823C1289.3 935.545 1304.71 1014.09 1316.01 1117.81C1319.31 1148.04 1319.29 1178.55 1323.26 1208.46C1338.37 1210.32 1354.01 1209.87 1369.09 1211.02C1389.65 1212.58 1422.64 1218.59 1442.1 1215.63C1449.21 1214.54 1467.98 1203.62 1475.68 1199.64C1497.67 1188.27 1557.05 1148.81 1577.02 1147.42C1588.97 1146.6 1598.58 1155.92 1591.66 1166.96C1553.27 1215.44 1511.71 1261.6 1470.53 1307.78C1467.57 1313.59 1473.59 1340.27 1474.09 1349.04C1475.12 1367.36 1475.84 1399.88 1463.53 1414C1459.49 1418.66 1453.68 1420.82 1450.41 1424.48C1447.33 1427.95 1446.56 1432.94 1443.46 1436.42C1435.48 1445.39 1414.41 1454.66 1406.93 1465.94C1396.65 1481.43 1390.78 1506.06 1378.34 1524.64C1344.58 1575.08 1270.44 1618.38 1212.19 1583.82C1219.19 1628.15 1227.2 1672.55 1236.42 1716.47C1247.05 1767.06 1263.66 1820.02 1270.85 1870.8C1273.82 1891.87 1273.6 1913.12 1275.86 1934.22C1279.54 1968.4 1283.93 2002.66 1287.67 2036.83H1848.04C1852.49 2036.83 1852.49 2048.63 1848.04 2048.63H5.32864C0.889801 2048.63 0.889801 2036.83 5.32864 2036.83H268.405C269.624 2029.11 266.315 2022 265.938 2014.52C261.34 1923.25 269.377 1827.95 266.309 1736.26C262.525 1725.03 279.59 1711.48 280.17 1709.48C281.826 1703.79 280.397 1694.07 284.741 1688.63C288.514 1683.9 297.174 1684.75 301.371 1681.67C306.195 1678.12 308.248 1665.48 318.562 1661.11C323.901 1658.84 341.457 1660.46 341.511 1655.78C341.59 1648.83 327.804 1657.01 324.151 1656.84C313.202 1656.28 289.648 1649.78 285.985 1638.22C278.924 1615.95 305.058 1598.54 320.386 1586.94L322.661 1525.99C328.511 1476.46 335.863 1427.16 344.618 1378.07C350.473 1345.24 359.79 1312.63 362.721 1279.51C338.88 1279.67 337.488 1261.67 334.721 1242.63C329.73 1208.31 332.055 1173.51 341.547 1140.24H132.738L129.208 1134.37L135.086 1130.79C204.951 1129.55 275.168 1133.66 344.748 1128.1C352.344 1119.02 356.518 1107.38 365.036 1098.85C370.21 1093.66 382.506 1084.71 388.919 1080.25C425.432 1054.92 468.586 1039.27 510.915 1026.49L525.583 965.643H465.418C464.236 965.643 460.192 962.026 457.152 963.269C456.635 958.919 457.048 956.379 460.699 953.839H529.123Z" fill="#231F20"/>
<path d="M634.117 2036.83H754.449C749.403 2022.31 741.315 2009.16 736.724 1994.39C731.637 1978 727.877 1959.67 728.416 1942.52L632.967 1921.18L634.117 2036.83ZM622.32 2036.83L621.309 1918.68C608.992 1916.29 596.179 1908.58 584.719 1905.72C568.334 1901.67 550.144 1901.03 532.663 1896.44C509.798 1890.43 488.254 1880.16 465.443 1874C460.71 1928.28 473.05 1982.88 461.879 2036.83H622.32ZM454.801 1866.95H275.484C277.225 1923.35 271.09 1981.17 280.502 2036.53L449.878 2039.12C451.164 2038.15 454.638 2016.16 454.907 2012.16C458.075 1965.07 452.326 1914.4 454.801 1866.95ZM454.801 1853.96V1743.07C454.801 1742.19 451.338 1727.38 450.694 1725.95C449.988 1724.38 449.122 1722.91 447.772 1721.79L284.187 1721.11C280.515 1722.46 278.531 1725.12 277.883 1728.96C274.833 1747.03 278.48 1777.47 277.951 1797.46C277.802 1803.07 275.587 1808.12 275.376 1813.75C274.86 1827.5 275.979 1841.43 275.473 1855.16C295.507 1855.64 315.705 1854.52 335.758 1855.04C349.16 1855.39 364.626 1857.4 378.012 1857.61C397.983 1857.95 427.898 1859.86 446.661 1857.63C450.13 1857.22 452.701 1857.4 454.801 1853.96ZM768.604 2036.83H1042.3L1037.59 1697.06C1013.62 1696.48 989.487 1697.8 965.502 1697.19C955.982 1696.94 949.397 1689.5 947.809 1702.86C945.063 1725.82 947.29 1763.61 947.809 1788.02C948.622 1825.6 955.369 1871.56 952.743 1908.35C949.916 1948.19 935.943 1956.56 897.303 1959.07C864.893 1961.17 828.247 1957.98 796.007 1953.98C777.415 1951.67 758.805 1947.63 740.304 1944.81C739.61 1977.76 753.607 2008.42 768.604 2036.83ZM432.385 1694.71H291.999V1711.23H438.285C438.052 1704.14 441.05 1696.16 432.385 1694.71ZM1054.1 2036.83H1275.89L1264.07 1918.87C1262.75 1917.4 1233.84 1934.71 1228.66 1936.51C1211.51 1942.47 1171.8 1949.54 1162.11 1929.99C1157.71 1921.1 1155.36 1897.79 1153.51 1886.67C1149.93 1864.91 1146.94 1842.55 1144.03 1820.67C1138.02 1775.76 1133.57 1730.27 1129.6 1685.26L1047.02 1697.08L1054.1 2036.83ZM417.05 1685.27C414.579 1664.91 394.55 1671.3 380.595 1671.22C365.655 1671.11 337.351 1668.71 324.344 1671.6C318.121 1672.99 313.227 1678.74 313.234 1685.27H417.05ZM350.974 1659.31C391.78 1663.14 391.693 1646.04 350.974 1649.88V1659.31ZM327.38 1607.42C324.196 1603.79 307.639 1622.99 311.925 1631C313.387 1633.75 324.778 1642.67 325.03 1634.58C325.322 1625.2 326.778 1616.66 327.38 1607.42ZM393.455 1640.44V1606.23C393.455 1601.71 369.009 1597.86 363.971 1597.76C359.395 1597.68 336.828 1600.56 336.828 1603.87V1640.44H393.455ZM1152.99 1529.76L1129.58 1529.54C1133.35 1628.12 1142.6 1727.27 1155.82 1825.39C1160.29 1858.58 1164.39 1892.47 1171.93 1924.89C1181.4 1939.71 1223.1 1927.4 1236.67 1920.92C1246.06 1916.43 1253.44 1909.07 1261.8 1903.11C1263.37 1880.35 1257.85 1858.34 1253.51 1836.23C1246.72 1801.56 1236.65 1767.47 1229.41 1732.92C1215.25 1665.31 1203.73 1597.08 1188.4 1529.75L1164.98 1529.54L1169.58 1582.36C1167.72 1585.95 1165.4 1586.75 1161.49 1586.19C1156.29 1585.44 1156.24 1536.96 1152.99 1529.76ZM1315.99 1430.46C1310.81 1429.27 1310.74 1433.31 1308.45 1435.88C1282.49 1464.88 1256.94 1494.55 1229.74 1522.43C1227.89 1524.32 1227.11 1526.84 1225.9 1529.08L1200.37 1529.54C1201.21 1550.31 1203.06 1568.44 1223.21 1578.68C1260.42 1597.6 1310.16 1577.08 1339.64 1552C1346.83 1545.88 1370.15 1521.88 1372.59 1514.18C1374.64 1507.71 1364.45 1513.26 1359.96 1512.96C1343.35 1511.9 1321.98 1498.12 1312.59 1484.58C1299.64 1465.88 1309.59 1449.23 1315.99 1430.46ZM950.276 1524.83V1647.52H1001.02L1122.68 1632.34C1128.58 1628.5 1122.83 1612.3 1122.51 1606.24C1121.15 1580.71 1121.4 1554.72 1117.79 1529.55H1012.81C1011.8 1529.55 998.738 1523.43 996.667 1522.1C967.796 1503.6 990.012 1481.92 1004.61 1462.36C1022.25 1438.75 1042.48 1416.67 1061.17 1393.87L1020.44 1399.79C1013.86 1411.3 1007.27 1424.72 997.564 1434.1C989.225 1442.15 977.036 1446.36 969.037 1452.75C962.556 1457.92 959.355 1466.88 953.863 1472.96C895.689 1537.19 773.389 1603.12 690.195 1626.91C676.656 1630.79 657.487 1632.51 645.861 1636.84C643.046 1637.9 640.289 1638.83 639.299 1642.08C625.568 1712.14 608.713 1781.85 597.077 1852.32C595.638 1861.04 588.898 1892.24 592.711 1897.74C595.92 1902.36 682.504 1922.58 694.996 1925.22C758.183 1938.56 835.256 1951.76 899.66 1947.27C908.95 1946.63 926.311 1944.51 932.72 1937.87C944.823 1925.31 941.329 1877.19 940.955 1858.58C938.77 1750.38 937.542 1641.54 938.369 1532.96L943.184 1523.54L950.276 1524.83ZM459.528 1310.12L447.639 1309.02L424.117 1294.75L410.209 1359.43L447.712 1373.83L459.528 1310.12ZM434.745 1475.28C444.799 1476.6 459.379 1475.28 470.137 1475.28C470.867 1475.28 474.486 1480.08 476.001 1481.18C470.007 1489.82 456.412 1487.58 446.798 1486.82C419.424 1484.67 396.742 1476.96 379.337 1455.19C373.639 1448.06 365.23 1438.92 375.759 1433.03L381.636 1437.52L414.689 1284.19L374.867 1282.08C361.108 1350.38 345.267 1419.16 337.074 1488.5C333.559 1518.24 329.16 1554.44 333.78 1582.92C334.169 1585.32 332.008 1588.2 332.254 1589.59C333.255 1595.24 342.591 1591.55 342.852 1586.39C349.657 1550.5 350.857 1512.67 358.643 1477.04C360.108 1470.34 361.445 1464.23 369.851 1465.84L353.352 1588.52C365.979 1588.6 391.192 1586.58 399.306 1598.01C404.616 1605.51 408.786 1645.27 402.974 1648.78C399.157 1651.08 390.029 1648.51 391.101 1656.95C403.663 1658.26 416.058 1662.1 424.143 1672.28C426.997 1675.87 428.268 1681.75 431.285 1684.02C434.527 1686.44 440.368 1686.14 444.307 1689.87C450.616 1695.82 448.3 1704.9 451.325 1711.16C456.25 1721.36 462.847 1720.16 464.338 1738.25C467.516 1776.79 461.473 1819.35 464.587 1858.34C465.853 1862.2 472.456 1863.9 476.106 1865.69C506.518 1880.67 545.635 1888 578.639 1895.29L629.39 1638.1C506.076 1640.72 509.117 1478.46 497.26 1391.54L494.892 1307.76L470.068 1312.4L454.725 1387.91C451.295 1392.2 415.543 1371.22 407.631 1371.46C406.596 1388.11 387.684 1439.71 391.516 1452.39C392.9 1456.98 405.24 1464.96 409.865 1467.12C414.863 1469.47 429.857 1474.63 434.745 1475.28ZM1353.75 1430.46C1352.59 1410.7 1353.29 1389.47 1342.41 1372.19C1335.95 1361.94 1320.14 1349.11 1310.19 1362.11C1301.2 1373.84 1319.11 1379.43 1325.1 1389.5C1339.04 1412.91 1318.91 1440.51 1316.46 1462.96C1314.03 1485.16 1357.92 1513.19 1377.22 1497.58C1379.9 1495.42 1389.16 1482.06 1391.08 1478.42C1400.64 1460.27 1399.39 1457.26 1416.31 1442.28C1428.77 1431.26 1440.37 1420.24 1452.77 1410.32C1473.77 1393.5 1459.63 1322.35 1457.45 1297.24C1454.32 1288.47 1465.36 1248.96 1456.15 1246.51C1437.61 1248.39 1432.79 1270.3 1422.78 1282.99C1432.96 1297.9 1444.79 1314.9 1443.4 1333.71C1439.64 1333.91 1437.84 1334.55 1435.19 1331.3C1432.41 1327.9 1426.47 1307.71 1421.72 1299.95C1416.62 1291.66 1398.56 1269.38 1388.33 1270.47C1381.44 1271.2 1371.97 1281.27 1376.09 1288.94C1377.37 1291.32 1395.11 1304.36 1399.79 1310.08C1412.51 1325.63 1422.6 1351.35 1422.16 1371.46C1418.96 1371.5 1415.88 1372.46 1413.93 1369.08C1410.8 1363.66 1408.26 1347.92 1405.1 1340.16C1399.96 1327.51 1392.57 1315.44 1382.11 1306.54C1373.35 1299.11 1357.81 1288.76 1350.74 1303.68C1342.54 1320.98 1366.22 1331.51 1374.93 1342.02C1388.86 1358.79 1396 1382.96 1396.2 1404.51L1387.09 1404.19C1383.52 1388.71 1382.99 1375.11 1375.05 1360.78C1369.2 1350.2 1337.91 1314.75 1333.48 1340.74C1331.82 1350.36 1346.65 1359.23 1351.84 1367.47C1363.58 1386.08 1363.85 1409.15 1363.16 1430.46H1353.75ZM1431.59 1246.43C1421.83 1245.98 1411.87 1247.03 1402.1 1246.43C1361.37 1243.92 1320.28 1238.42 1279.52 1236.87C1257.7 1236.04 1231.06 1232.35 1216.94 1252.35C1175.7 1304.48 1131.63 1354.32 1089.53 1405.71C1060.47 1441.19 1030.7 1476.59 1004.59 1514.23C1006.86 1517.7 1009.11 1517.47 1012.68 1517.86C1033.3 1520.1 1057.89 1516.06 1078.98 1517.64L1095.27 1520.22L1219.23 1518.91L1316.55 1410.98C1326.37 1386.39 1292.05 1388.67 1297.57 1363.7C1301.13 1347.63 1321.65 1346.92 1322.77 1345.2C1323.97 1343.35 1322.46 1336.02 1325.71 1330.43C1328.97 1324.8 1337.75 1322.99 1339.18 1317.96C1340.52 1313.28 1338.96 1307.51 1340.05 1302.32C1342.37 1291.44 1355.1 1285.99 1365.43 1286.42C1365.87 1253.23 1395.46 1256.58 1416.15 1272.36L1431.59 1246.43ZM1124.88 1227.54H1196.85C1198.49 1227.54 1217.53 1212.58 1216.88 1209.87C1191.38 1192.36 1165.8 1190.67 1135.49 1192.14C1115.54 1198.23 1086.3 1189.43 1071.97 1206.48C1045.24 1238.31 1032.76 1281.86 994.927 1306.4C973.317 1320.43 949.609 1318.86 963.956 1354.24C975.276 1382.16 1001.4 1390.16 1029.42 1388.08C1045.61 1386.87 1070.85 1382.16 1081.27 1369.15L1157.89 1278.24C1158.88 1272.91 1155.58 1274.96 1152.05 1274.72C1146.51 1274.35 1133.46 1276.52 1130.66 1272.48C1121.02 1258.52 1151.15 1265.3 1156.69 1265.47C1170.93 1265.91 1176.72 1254.03 1185.06 1244.07C1187.05 1241.7 1189.55 1241.02 1188.58 1236.98H1128.42C1124.75 1234.43 1124.36 1231.9 1124.88 1227.54ZM1469.35 1247.59C1471.17 1253.8 1469.35 1278.8 1469.35 1287.71C1469.35 1288.68 1463.28 1291.83 1470.51 1291.23L1559.03 1189.8L1464.64 1239.38C1463.19 1243.54 1468.94 1246.16 1469.35 1247.59ZM1582.59 1159.13C1576.02 1156.4 1568.3 1160.43 1562.1 1163.39C1521.39 1182.86 1483.05 1212.87 1439.68 1227.36C1390.12 1223.07 1340.91 1220.4 1291.2 1218.11C1273.45 1217.28 1252.59 1212.58 1234.67 1215.8C1232.42 1216.22 1218.62 1223.79 1216.08 1225.55C1206.5 1232.27 1187.88 1256.23 1179.18 1266.51C1124.85 1330.71 1062.81 1401.5 1013 1468.39C1008.84 1473.95 988.203 1500.63 992.759 1505.95C997.84 1507.1 998.02 1503.2 1000.31 1500.54C1069.75 1419.92 1132.1 1331.95 1202.79 1252.35C1220.07 1232.87 1229.47 1223.68 1258.29 1225.06C1320.82 1228.04 1383.49 1236.27 1446.43 1236.47C1487.15 1212.2 1540.03 1192.31 1578.15 1165.18C1580.94 1163.19 1583.96 1165.19 1582.59 1159.13ZM998.903 1142.76L995.024 1148.54C994.706 1150.84 996.114 1151.78 997.523 1153.16C1013.68 1169.1 1045.46 1182.58 1063.42 1198.28C1068.12 1199.51 1073.97 1189.79 1068.21 1186.28L1006.84 1143.84L998.903 1142.76ZM494.921 1298.34L494.803 1219.18C498.831 1179.28 498.356 1139.06 501.968 1098.93C502.96 1087.89 504.926 1075.72 506.69 1064.73C502.791 1066.14 500.854 1071.06 498.656 1074.38C458.967 1134.34 443.199 1209.28 426.342 1278.36C426.04 1281.32 426.647 1283.31 428.816 1285.39C429.801 1286.34 450.411 1299.84 451.72 1300.22C464.752 1304.06 481.411 1296.32 494.921 1298.34ZM506.698 1038.79C462.002 1053.01 380.131 1083.19 357.631 1126.83C342.083 1156.98 339.457 1223.46 347.294 1256C349.32 1264.42 352.26 1266.68 360.297 1268.95C377.94 1273.95 398.558 1272.2 416.766 1272.1C431.928 1205.9 448.909 1140.97 481.878 1081.21C488.389 1069.39 497.884 1057.94 503.86 1046.55C505.246 1043.91 507.561 1042.39 506.698 1038.79ZM1311.27 1208.67C1308.5 1145.04 1304.15 1078.57 1287.02 1017.03C1269.9 955.578 1245.97 923.243 1190.18 892.081C1186.22 889.859 1156.88 874.616 1155.55 875.997C1186.76 980.872 1210.96 1088.19 1219.62 1197.68C1222.76 1207.99 1253.69 1202.66 1262.91 1203.94L1311.27 1208.67ZM737.91 1274.71C741.842 1255.55 747.125 1236.15 749.479 1216.67C760.011 1129.57 754.529 959.278 703.539 885.606C693.654 871.316 677.767 853.243 659.153 854.955C642.412 856.488 599.323 877.032 585.79 887.815C523.878 937.146 516.984 1053.92 511.442 1127.28C502.834 1241.27 499.102 1376.88 519.216 1489.91C528.081 1539.72 543.242 1609.12 598.746 1625.08C654.18 1641.02 760.843 1590.71 811.13 1563.82C863.309 1535.9 918.17 1500.62 954.997 1454.07C925.825 1450.27 895.754 1427.56 885.429 1399.75C883.163 1393.64 876.601 1366.12 879.681 1362.23C880.163 1361.62 886.008 1359.1 887.78 1361.99C891.318 1367.75 891.627 1384.75 894.296 1393.24C900.241 1412.14 925.851 1436.96 945.423 1441.2C976.942 1448.02 994.168 1422.8 1009.26 1399.8C970.263 1394.51 937.276 1353.72 954.997 1314.86C931.353 1320.35 909.28 1331.63 886.035 1339.07C852.891 1349.68 819.378 1357.06 786.249 1369.06C749.491 1382.36 704.011 1407.2 667.285 1415.26C652.964 1418.39 652.987 1410.68 664.13 1405.02C672.641 1400.68 730.133 1382.96 730.97 1379.4L719.244 1177.14C721.512 1171.82 728.752 1171.52 730.5 1177.16L737.91 1274.71ZM742.663 1373.83C743.394 1374.76 755.531 1370.18 757.679 1368.79C767.274 1362.64 775.72 1327.26 779.223 1314.84C810.408 1204.26 819.672 1082.59 793.844 969.896C785.742 934.551 760.631 858.227 729.809 838.111C720.419 831.981 691.723 844.159 681.315 848.839C734.404 889.224 751.502 969.703 758.93 1033.13C769.198 1120.8 765.793 1206.08 744.347 1291.76C738.401 1315.52 738.318 1333.3 740.284 1358.5C740.687 1363.64 743.236 1368.52 742.663 1373.83ZM1018.73 819.362C1019.12 824.277 1017.92 829.91 1018.73 834.673C1020.95 847.693 1051.58 851.932 1055.44 859.47C1061.46 871.22 1025.41 901.415 1013.94 905.432C928.267 935.545 866.479 872.987 820.934 810.677C818.065 806.756 807.608 788.172 806.418 787.441C795.2 780.565 764.807 790.533 763.868 806.549C762.958 822.04 802.762 876.825 814.568 890.19C817.692 893.724 839.058 915.553 840.854 915.953C847.285 917.375 856.662 890.853 864.163 887.815C872.82 893.186 867.396 898.571 863.398 905.902C861.513 909.34 848.782 930.16 847.338 930.409C835.301 932.438 811.842 903.058 804.035 893.642C785.832 871.689 770.614 847.679 756.859 822.744L737.932 828.806C737.108 832.423 738.434 832.589 740.441 834.549C819.997 912.143 826.671 1098.42 813.166 1202.5C806.13 1256.72 791.917 1310.02 775.702 1362.03C794.623 1355.32 813.677 1348.52 832.859 1342.52C845.06 1338.71 869.756 1335.12 879.369 1330.04C890.845 1323.99 898.566 1292.76 900.467 1280.36C910.125 1217.31 905.823 1148.19 903.084 1084.81C900.934 1035.12 899.809 981.921 894.663 932.59C894.283 928.945 893.331 928.227 897.213 925.549C906.476 923.837 903.455 933.184 909.392 936.925C934.12 952.527 987.099 951.657 1014.52 943.76C1023.7 941.109 1037.04 929.995 1044.62 938.513C1036.68 948.316 1024.02 952.499 1012.13 955.537C977.703 964.318 942.904 962.164 910.242 947.805C902.186 945.927 907.678 958.16 907.829 962.095C911.417 1056.01 923.397 1154.11 914.901 1247.6C912.71 1271.72 909.135 1300.4 898.374 1321.9C921.56 1317.88 941.41 1304.02 965.61 1300.67C973.489 1299.58 978.663 1302.43 987.016 1298.5C1016.58 1284.55 1036.66 1236.79 1056.15 1211.68L1056.26 1207.9L985.552 1155.71C977.023 1142.42 995.438 1125.11 1008.62 1132.65L1086.23 1186.94L1117.81 1182.68L1051.16 979.146C1047.3 972.132 1058 969.979 1060.91 976.523L1129.89 1182.43C1141.46 1184.92 1152.52 1179.68 1163.77 1180.3C1178.8 1181.12 1193.44 1187.36 1207.45 1192.14C1205.08 1136 1194.78 1079.09 1183.15 1024.16C1172.23 972.602 1158.4 921.572 1142.48 871.358C1137.85 864.206 1103.88 851.89 1094.2 848.839C1090.79 847.762 1090.83 847.748 1091.89 851.158C1099.15 874.354 1109.51 896.734 1116.62 920.813C1132.76 975.336 1146.37 1034.65 1159.61 1090.17C1162.37 1101.71 1175.42 1148.36 1174.55 1155.54C1174.18 1158.66 1171.96 1162.19 1168.56 1161.47L1108.35 927.882C1102.27 927.012 1104.68 928.31 1103.45 931.237C1100.93 937.215 1100.96 941.827 1092.98 943.884L1058.82 907.807C1064.24 888.188 1088.38 927.882 1093.02 927.854C1097.69 923.547 1101.43 912.212 1100.81 906.026C1099.97 897.576 1087.13 864.578 1082.83 855.508C1080.49 850.551 1078.29 844.255 1073.85 840.9C1061.63 831.622 1033.03 827.328 1018.73 819.362ZM896.024 675.441C899.262 675.4 902.465 674.82 905.468 676.601C907.674 677.899 924.6 705.111 930.167 710.883C966.263 748.313 1026.49 761.249 1069.4 727.299C1116.51 690.021 1130.47 621.995 1138.75 565.443C1141.26 548.351 1152.05 468.838 1147.27 458.373C1145.99 455.542 1139.75 451.524 1137.05 447.369C1114.98 413.28 1114.04 371.335 1069.39 418.209C1052.54 435.881 1046.88 449.371 1022.69 461.175C987.596 478.296 954.489 474.789 918.993 482.52C891.072 488.609 899.167 536.09 876.482 550.905C856.177 564.145 857.397 542.994 845.866 538.009C829.745 531.051 811.232 541.889 808.81 558.788C804.754 587.078 840.361 600.761 860.587 610.702C860.752 616.335 856.472 618.557 855.767 624.563C851.911 657.409 857.245 695.267 853.301 730.64C850.54 755.409 846.119 785.922 832.624 806.784C855.973 840.141 890.847 883.963 931.866 895.574C957.769 902.906 998.765 905.143 1021.86 889.762C1026.1 886.945 1047.61 865.421 1042.3 861.845C1028.53 860.298 1015.55 849.833 1007.35 838.967L1006.9 758.019C971.755 755.865 937.263 736.535 914.935 709.599C911.299 705.208 892.465 678.962 896.024 675.441ZM529.123 953.839C541.602 927.482 551.326 902.713 573.999 883.107C585.257 873.373 599.242 868.016 609.644 858.421C606.144 827.356 580.991 807.723 577.745 775.457C571.307 711.421 606.599 697.463 651.358 670.263C706.804 636.561 672.947 581.984 716.897 537.609C733.296 521.041 775.527 502.471 778.113 478.489C781.109 450.696 774.302 423.124 781.538 394.613C809.024 286.3 953.956 262.663 1045.27 296.144C1063.01 302.661 1070.2 311.318 1084.1 318.635C1103.31 328.742 1117.54 330.04 1136.72 346.249C1191.91 392.901 1200.51 461.603 1172.49 526.039C1166.82 539.073 1152.6 556.924 1149.06 566.299C1142.91 582.591 1141.51 613.504 1136 633.483C1119.7 692.782 1086 751.115 1018.9 758.198C1018.72 775.898 1013.44 791.969 1019.06 809.559C1077.02 830.2 1139.61 851.725 1193.36 881.823C1289.3 935.545 1304.71 1014.09 1316.01 1117.81C1319.31 1148.04 1319.29 1178.55 1323.26 1208.46C1338.37 1210.32 1354.01 1209.87 1369.09 1211.02C1389.65 1212.58 1422.64 1218.59 1442.1 1215.63C1449.21 1214.54 1467.98 1203.62 1475.68 1199.64C1497.67 1188.27 1557.05 1148.81 1577.02 1147.42C1588.97 1146.6 1598.58 1155.92 1591.66 1166.96C1553.27 1215.44 1511.71 1261.6 1470.53 1307.78C1467.57 1313.59 1473.59 1340.27 1474.09 1349.04C1475.12 1367.36 1475.84 1399.88 1463.53 1414C1459.49 1418.66 1453.68 1420.82 1450.41 1424.48C1447.33 1427.95 1446.56 1432.94 1443.46 1436.42C1435.48 1445.39 1414.41 1454.66 1406.93 1465.94C1396.65 1481.43 1390.78 1506.06 1378.34 1524.64C1344.58 1575.08 1270.44 1618.38 1212.19 1583.82C1219.19 1628.15 1227.2 1672.55 1236.42 1716.47C1247.05 1767.06 1263.66 1820.02 1270.85 1870.8C1273.82 1891.87 1273.6 1913.12 1275.86 1934.22C1279.54 1968.4 1283.93 2002.66 1287.67 2036.83H1848.04C1852.49 2036.83 1852.49 2048.63 1848.04 2048.63H5.32864C0.889801 2048.63 0.889801 2036.83 5.32864 2036.83H268.405C269.624 2029.11 266.315 2022 265.938 2014.52C261.34 1923.25 269.377 1827.95 266.309 1736.26C262.525 1725.03 279.59 1711.48 280.17 1709.48C281.826 1703.79 280.397 1694.07 284.741 1688.63C288.514 1683.9 297.174 1684.75 301.371 1681.67C306.195 1678.12 308.248 1665.48 318.562 1661.11C323.901 1658.84 341.457 1660.46 341.511 1655.78C341.59 1648.83 327.804 1657.01 324.151 1656.84C313.202 1656.28 289.648 1649.78 285.985 1638.22C278.924 1615.95 305.058 1598.54 320.386 1586.94L322.661 1525.99C328.511 1476.46 335.863 1427.16 344.618 1378.07C350.473 1345.24 359.79 1312.63 362.721 1279.51C338.88 1279.67 337.488 1261.67 334.721 1242.63C329.73 1208.31 332.055 1173.51 341.547 1140.24H132.738L129.208 1134.37L135.086 1130.79C204.951 1129.55 275.168 1133.66 344.748 1128.1C352.344 1119.02 356.518 1107.38 365.036 1098.85C370.21 1093.66 382.506 1084.71 388.919 1080.25C425.432 1054.92 468.586 1039.27 510.915 1026.49L525.583 965.643H465.418C464.236 965.643 460.192 962.026 457.152 963.269C456.635 958.919 457.048 956.379 460.699 953.839H529.123Z" stroke="black" stroke-width="4" mask="url(#path-11-outside-1_9_1604)"/>
<path d="M1365.58 196.461C1365.35 196.719 1365.24 197.027 1365.17 197.284C1365.1 197.552 1365.07 197.845 1365.06 198.145C1365.03 198.744 1365.08 199.482 1365.19 200.314C1365.41 201.987 1365.86 204.189 1366.48 206.733C1367.72 211.831 1369.64 218.414 1371.73 225.127C1375.65 237.715 1380.18 250.83 1381.95 255.598L1382.26 256.438C1420.34 356.392 1504.45 458.042 1606.14 497.023C1609.46 498.299 1615.68 500.973 1621.73 502.837C1624.76 503.77 1627.8 504.519 1630.46 504.789C1633.08 505.054 1635.55 504.883 1637.26 503.74L1637.26 503.741C1639.02 502.566 1640.13 501.019 1640.06 499.282C1640 497.549 1638.78 496.063 1636.91 494.97L1636.82 494.921L1636.73 494.889C1503.35 449.274 1411.09 332.369 1376.99 197.904L1376.82 197.228L1376.13 197.155L1366.44 196.132L1365.93 196.078L1365.58 196.461Z" fill="#231F20" stroke="black" stroke-width="2"/>
<path d="M464.232 1496.52L443.085 1648.32L437.055 1651.68L431.761 1644.53L457.04 1497.57L464.232 1496.52Z" fill="#231F20"/>
<path d="M1035.31 690.585C1040.39 691.283 1045.61 690.688 1051.42 688.693H1051.42C1054.64 687.594 1060.08 683.991 1064.48 679.889C1066.68 677.827 1068.68 675.588 1070.02 673.411C1071.33 671.273 1072.14 668.989 1071.58 666.937C1071.21 665.588 1070.65 664.54 1069.85 663.849C1069.02 663.134 1068.04 662.891 1067.03 662.973C1066.05 663.053 1065.04 663.436 1064.07 663.959C1063.08 664.486 1062.07 665.188 1061.06 665.972C1059.05 667.537 1056.97 669.504 1055.13 671.214C1053.24 672.968 1051.66 674.389 1050.54 675.025V675.026C1044.97 678.194 1040.18 678.867 1035.83 678.064C1031.44 677.254 1027.39 674.924 1023.31 671.883C1021.27 670.366 1019.25 668.686 1017.19 666.95C1015.14 665.219 1013.04 663.428 1010.88 661.716C1006.57 658.294 1001.93 655.127 996.67 653.246L996.138 653.055L995.701 653.413C994.249 654.599 992.959 655.667 992.257 657.045C991.512 658.507 991.488 660.163 992.088 662.381V662.384C992.149 662.605 992.266 662.787 992.341 662.896C992.43 663.024 992.537 663.155 992.65 663.284C992.877 663.542 993.18 663.847 993.537 664.185C994.253 664.865 995.242 665.73 996.411 666.714C998.752 668.686 1001.86 671.17 1005.07 673.665C1011.45 678.631 1018.31 683.721 1020.24 684.861C1025.37 687.911 1030.24 689.888 1035.31 690.585Z" fill="#231F20" stroke="black" stroke-width="2"/>
<path d="M1037.62 636.307C1043.92 636.211 1053.75 633.799 1061.84 629.561C1065.89 627.438 1069.56 624.825 1072.15 621.755C1074.74 618.673 1076.26 615.083 1075.86 611.075C1075.15 603.814 1072.48 596.169 1070.53 588.542C1068.56 580.834 1067.26 572.995 1069.04 564.964L1069.26 563.984L1068.28 563.77L1061.36 562.263L1060.89 562.161L1060.52 562.459C1058.06 564.433 1055.84 566.804 1055.38 570.42L1055.38 570.422C1055.32 570.876 1055.33 571.551 1055.37 572.329C1055.41 573.129 1055.48 574.106 1055.59 575.198C1055.79 577.385 1056.11 580.069 1056.46 582.789C1057.16 588.229 1057.99 593.856 1058.36 596.034H1058.36C1058.65 597.719 1059.21 599.395 1059.83 601.036C1060.46 602.712 1061.13 604.3 1061.7 605.966C1062.78 609.108 1063.39 612.184 1062.43 615.363C1059.57 616.361 1051.94 619.348 1045.58 622.92C1042.22 624.809 1039.11 626.919 1037.27 629.048C1036.36 630.112 1035.67 631.279 1035.53 632.506C1035.38 633.799 1035.85 635 1036.9 636.025L1037.2 636.313L1037.62 636.307Z" fill="#231F20" stroke="black" stroke-width="2"/>
<path d="M987.306 541.373C1010.11 534.467 1013.36 569.013 998.2 573.507C972.906 581 969.56 546.76 987.306 541.373Z" fill="#231F20"/>
<path d="M1093.49 555.547C1120.23 547.587 1120.04 593.92 1091.11 585.307C1080.88 582.267 1082.28 558.893 1093.49 555.547Z" fill="#231F20"/>
<path d="M1023.89 512.749C1025.12 508.42 1022.65 504.961 1019.23 502.532C1015.81 500.099 1011.3 498.581 1008.05 498.092H1008.05C1004.06 497.496 992.447 497.391 981.598 498.504C976.169 499.061 970.898 499.927 966.849 501.201C964.826 501.838 963.083 502.586 961.772 503.464C960.549 504.284 959.652 505.253 959.308 506.402L959.246 506.635C958.918 508.063 959.081 509.24 959.728 510.152C960.364 511.05 961.406 511.602 962.65 511.925C965.126 512.568 968.67 512.371 972.402 511.849C976.154 511.324 980.175 510.458 983.636 509.714C987.127 508.964 989.994 508.351 991.511 508.3H991.51C997.712 508.102 1002.67 509.044 1007.59 510.169C1012.5 511.293 1017.39 512.608 1023.37 513.111L1023.78 513.147L1023.89 512.749Z" fill="#231F20" stroke="black"/>
<path d="M1131.01 530.993C1132.78 531.77 1134.61 532.282 1136.17 531.958C1136.96 531.793 1137.68 531.41 1138.26 530.752C1138.84 530.1 1139.26 529.203 1139.52 528.04H1139.51C1139.71 527.171 1139.46 526.282 1138.97 525.429C1138.48 524.576 1137.71 523.714 1136.77 522.867C1134.88 521.171 1132.21 519.461 1129.36 517.922C1126.5 516.381 1123.45 514.998 1120.77 513.961C1118.11 512.931 1115.78 512.225 1114.39 512.064C1109.08 511.442 1101.47 511.013 1094.95 512.458C1088.44 513.903 1082.84 517.27 1081.93 524.35L1081.87 524.857L1082.37 524.911C1090.45 525.759 1096.23 524.299 1102.04 523.521C1107.84 522.744 1113.79 522.618 1122.36 526.051H1122.36C1122.7 526.187 1123.18 526.456 1123.8 526.829C1124.4 527.199 1125.1 527.649 1125.88 528.137C1127.42 529.106 1129.23 530.207 1131.01 530.993Z" fill="#231F20" stroke="black"/>
</svg>
