<svg width="1327" height="1115" viewBox="0 0 1327 1115" fill="none" xmlns="http://www.w3.org/2000/svg">
<path d="M965.911 907.547C942.099 914.293 932.752 927.227 921.981 935.946C910.476 945.346 896.722 953.627 881.901 953.627L739.008 920.119C757.367 917.613 769.14 913.999 793.13 908.346C803.522 905.894 815.206 902.547 822.327 893.972C832.297 881.88 829.003 865.147 826.377 849.653C873.333 853.359 922.003 857.053 968.247 860.493C968.581 873.174 970.673 893.532 965.911 907.547ZM1025.95 919.266C1033.52 922.453 1037.77 926.041 1039.35 930.587C1040.62 934.212 1038.5 939.133 1035.99 940.268C1035.63 940.252 1033.94 939.653 1033.34 939.52C1025.11 937.706 1017.38 934.426 1008.62 933.12C997.578 931.493 987.987 934.001 981.644 940.212C980.109 941.705 980.064 944.173 981.578 945.707C983.069 947.253 985.539 947.267 987.074 945.773C998.469 934.613 1017.21 943.693 1030.65 946.853C1032.09 948.346 1034.81 948.493 1036.86 948.092C1047.56 948.893 1067.03 958.614 1067.55 969.094C1067.66 971.081 1066.52 973.6 1064.54 974.733C1061.34 973.506 1062.83 975.467 1050.97 970.079C1038.86 964.547 1027 961.574 1012.15 964.227C1010.02 964.6 1008.62 966.612 1008.99 968.733C1009.37 970.854 1011.38 972.227 1013.51 971.88C1029.6 969 1061.51 977.359 1066.97 990.279C1067.41 991.268 1067.68 992.333 1067.75 993.399C1067.99 996.386 1063.9 1001.29 1061.22 1001.97C1058.71 1002.59 1055.64 1000.95 1052.92 999.239C1049.1 995.507 1027.6 982.933 1011.8 985.268C1009.68 985.586 1008.22 987.573 1008.53 989.692C1008.86 991.813 1010.86 993.239 1012.93 992.961C1024.48 991.241 1042.69 1000.72 1048.27 1005.4C1050.21 1007.01 1055.55 1010.28 1058.75 1014.95C1063.76 1022.48 1062.18 1031.43 1052.72 1033.21C1039.33 1035.8 1006.5 1017.51 987.497 1030.23C981.199 1034.39 975.792 1040.49 969.405 1042.81C959.947 1046.19 949.131 1047 938.471 1048.2C907.382 1051.93 940.741 1049.32 569.164 1043.73C552.807 1040.6 536.74 1032.17 522.631 1019.31C519.426 1012.79 513.084 1009.09 508.521 1003.65C499.954 993.453 494.012 981.467 491.853 973.92L639.888 872.346C660.762 909.319 659.093 909.372 662.12 910.093C890.046 963.479 880.455 961.36 881.3 961.387C910.03 962.146 934.043 934.84 943.189 927.587C966.245 909.199 998.758 907.826 1025.95 919.266ZM524.567 1031.05C536.161 1040.11 548.757 1046.56 561.709 1049.99H523.743C524.144 1042 524.433 1035.15 524.567 1031.05ZM512.305 1099.83L456.669 1101.45C451.907 1084.72 456.336 1109.68 435.016 925.4C430.988 889.92 426.76 853.759 426.96 818.026C427.205 773.667 426.07 732.519 388.616 703.68C374.507 692.826 358.618 686.373 341.526 682.358C341.905 666.132 333.938 656.278 323.367 644.305C310.816 630.078 298.109 613.893 289.786 596.466C294.592 585.479 297.975 573.704 299.911 561.558C341.526 563.065 381.628 567.945 418.904 592.371C419.95 593.065 421.285 593.186 422.42 592.758C451.083 601.4 476.431 620.638 499.954 639.666C574.082 699.652 626.313 755.679 659.049 849.747L485.288 969.013C484.064 969.866 483.419 971.359 483.664 972.839C485.266 982.693 495.08 1002.43 508.944 1015.05C513.061 1018.8 516.578 1022 516.956 1027.56C517.156 1030 516.711 1040 515.999 1051.89C515.287 1053.07 515.175 1054.21 515.776 1055.52C514.73 1072.83 513.217 1092.88 512.305 1099.83ZM47.0153 865.467C47.9055 869.506 48.1058 873.812 49.2853 877.854C52.2673 888.213 61.3914 895.372 70.9607 898.679C80.5745 902.053 90.856 902.267 100.87 903.239C128.844 905.894 156.105 914.386 184.012 917.493C211.963 920.546 242.05 917.493 264.616 899.52C274.653 891.48 283.043 880.186 285.223 866.92C289.029 843.6 273.362 821.066 274.697 797.438C275.921 776.56 289.674 760.225 304.051 745.266C326.794 751.546 347.313 763.358 360.509 782.92C377.89 808.706 377.734 840.68 377.6 871.814C377.333 913.36 381.161 939.44 399.587 1102.23L22.4912 1105.87C9.62834 995.24 7.09145 877.053 10.2293 818.119C21.2896 835.653 42.2752 845.294 47.0153 865.467ZM142.552 139.076C140.839 135.224 141.061 130.811 143.086 128.357C145.29 125.691 148.895 125.357 154.569 125.143C168.323 124.598 172.328 121.785 177.825 109.543C179.583 105.691 181.23 102.037 183.967 100.717C187.172 99.1971 191.333 101.478 193.648 104.425C198.722 110.945 198.788 119.331 213.788 176.423C215.39 182.279 214.812 184.037 217.415 185.145C218.617 185.663 219.974 185.543 221.065 184.838C223.446 183.291 224.848 183.224 225.048 183.398C225.271 183.919 225.827 184.224 225.627 186.892C225.427 189.705 228.186 191.81 230.879 190.811C257.361 180.892 284.756 164.664 294.926 165.65C297.997 165.917 301.803 167.824 302.915 171.358C305.252 179.065 294.125 188.717 295.238 200.291C296.15 210.025 305.363 216.599 304.696 223.478C304.273 227.503 300.267 230.372 296.707 231.024C288.94 232.464 281.618 228.024 228.876 213.677C217.549 210.65 218.083 208.372 215.279 208.372C214.455 208.372 213.61 208.639 212.92 209.17C209.671 211.665 208.002 211.545 207.824 211.385C207.334 211.038 206.533 208.251 208.358 202.743C209.226 200.131 207.2 198.37 205.109 196.239C181.564 170.931 147.782 151.158 142.552 139.076ZM419.171 817.986C418.993 854.026 423.199 890.28 427.294 926.279C448.747 1111.79 444.163 1084.52 448.658 1101.68C443.384 1101.88 448.324 1101.71 407.376 1102.16C389.306 941.892 385.078 913.865 385.367 871.64C385.523 839.532 385.679 806.347 366.963 778.574C353.566 758.732 333.092 745.96 310.215 738.946C323.412 725.466 337.009 709.225 340.681 690.147C370.924 697.426 390.552 712.012 402.08 729.078C419.549 755 419.349 787.012 419.171 817.986ZM320.029 333.878C329.687 332.785 338.856 327.918 345.888 320.81C347.29 319.411 362.334 297.025 358.862 295.786C379.091 302.771 402.436 299.771 421.374 284.358C431.366 310.01 435.239 333.504 435.75 361.358C434.994 363.398 435.484 369.531 435.728 371.69C435.684 373.651 435.684 375.625 435.595 377.572C435.528 379.105 436.396 380.465 437.687 381.146C441.47 393.145 450.127 400.945 447.3 408.318C445.075 414.091 436.218 414.852 430.098 414.879C427.939 414.892 426.226 416.639 426.226 418.784C426.226 420.825 427.828 422.452 429.853 422.599C417.547 487.478 385.234 523.572 323.79 500.172C321.787 499.411 319.539 500.413 318.783 502.424C318.004 504.425 319.028 506.666 321.03 507.438C336.964 513.505 354.545 517.159 371.325 514.039C375.219 539.333 374.084 547.371 375.776 564.306C358.195 559.025 339.524 555.305 300.935 553.825C302.693 537.786 302.092 521.305 299.244 505.386C301.002 502.079 302.76 498.759 304.362 495.385C312.418 478.599 317.136 457.411 307.656 441.492C303.539 434.558 296.751 428.438 296.885 420.197C296.929 418.704 297.196 417.198 297.441 415.704C307.856 414.478 316.824 409.119 322.188 402.305C324.992 402.038 326.616 398.878 325.125 396.412C324.658 395.891 323.857 393.266 321.03 393.266C321.008 393.266 321.008 393.266 321.008 393.266C319.628 393.266 318.36 393.998 317.67 395.17C313.62 402.038 305.252 406.798 297.085 407.971C295.639 404.624 292.234 402.545 289.162 400.558C274.63 391.158 264.015 373.065 263.926 352.411C269.401 336.664 286.18 332.372 300.735 338.798C302.359 339.517 304.162 338.972 305.252 337.652C308.746 340.412 312.707 347.144 316.513 348.065C317.27 337.744 313.82 334.637 320.029 333.878ZM621.862 747.026C626.535 694.894 650.725 431.945 666.704 375.798C667.883 371.706 672.112 368.011 679.077 367.891C711.346 366.091 923.739 351.586 1087.48 348.504C1205.7 345.998 1215.96 351.931 1217.94 352.091C1219.87 352.612 1220.52 352.932 1221.28 354.586C1223.46 359.079 1222.43 364.558 1221.7 370.37C1214.73 438.239 1185.63 722.48 1173.7 788.88C1172.76 794.065 1167.09 797.719 1160.7 797.412C1078.34 792.08 714.15 768.225 632.099 757.639C625.89 756.827 621.394 752.174 621.862 747.026ZM619.214 330.171C620.816 324.238 626.335 319.477 634.636 319.357C669.018 316.758 772.01 310.505 772.545 310.465C772.456 315.051 767.871 327.411 777.886 333.317C779.488 334.252 779.377 334.105 780.356 334.412C781.869 334.877 781.736 334.81 782.893 334.904C785.497 335.158 764.956 335.932 1030.16 322.571C1037.99 322.159 1045 314.984 1046.11 306.212L1047.29 296.745C1083.57 295.385 1240.75 290.037 1276.36 298.919C1279.36 299.771 1280.74 299.825 1282.01 302.838C1284.46 308.226 1283.72 314.172 1282.97 320.466C1274.58 407.958 1239.57 773.359 1225.37 858.226C1224.13 865.48 1217.12 870.505 1209.13 869.987C1193.9 868.934 836.191 844.239 659.071 827.773C649.59 804.226 638.597 783.147 627.047 764.387C647.788 771.319 1152.93 805.212 1161.66 805.212C1171.41 805.212 1179.75 799.001 1181.35 790.266C1193.41 722.798 1221.92 444.532 1229.71 368.666C1230.4 363.265 1231.18 357.158 1228.31 351.252C1227.37 349.238 1226.11 347.665 1224.53 346.558C1222.77 345.306 1219.74 344.424 1218.81 344.318C1158.14 330.264 693.342 358.505 677.163 360.225C668.618 360.759 661.43 366.144 659.227 373.651C643.537 428.732 620.994 670.025 614.251 744.959C600.743 725.64 587.123 709.479 575.061 696.986C587.857 556.918 605.839 380.345 619.214 330.171ZM815.339 29.7042C815.918 24.7705 819.857 20.4242 823.907 20.2106L1069.37 7.78381C1069.46 7.77051 1069.57 7.77051 1069.66 7.77051C1073.31 7.77051 1074.93 11.478 1074.49 15.2234V15.2367L1038.39 305.237C1037.77 310.224 1033.81 314.599 1029.76 314.811C769.963 327.411 783.471 328.704 780.779 325.851C779.488 324.451 778.909 322.237 779.198 319.798C779.265 319.266 780.934 305.851 780.845 306.704L815.339 29.7042ZM819.768 857.307C826.155 895.719 811.178 895.84 774.013 904.973C732.954 915.094 725.566 913.267 715.952 914.72L665.591 902.921L646.319 867.919L665.88 854.48C667.327 853.492 667.928 851.678 667.371 850.025C665.791 845.358 664.033 840.627 662.231 835.88C706.227 839.933 760.839 844.479 818.366 849.026C818.455 849.56 819.59 856.174 819.768 857.307ZM1319.33 314.212C1314.63 311.426 1293.6 298.97 1287.46 296.798C1286.73 295.77 1285.93 294.878 1285.01 294.197C1267.74 280.504 1070.06 288.144 1048.27 288.945L1082.19 16.1959C1083.32 7.26306 1077.72 -0.323364 1068.97 0.010498L823.507 12.4504C815.651 12.8644 808.663 20.0237 807.617 28.7584L773.524 302.624C759.081 303.503 646.786 310.411 632.366 311.704C622.485 312.385 614.162 318.986 611.714 328.159C598.406 378.077 580.714 550.413 567.94 689.679C546.687 668.133 524.277 649.346 504.85 633.626C480.014 613.546 453.153 593.212 422.042 584.56C421.641 584.453 421.285 584.44 420.885 584.413C409.713 577.345 397.229 571.492 383.854 566.866C381.806 549.385 383.186 539.825 378.891 512.078C397.985 505.932 411.894 490.839 421.352 473.612C430.409 457.079 434.949 437.838 437.82 422.145C444.073 421.252 451.64 418.691 454.555 411.091C458.183 401.611 451.707 392.998 447.501 384.865C445.364 380.745 444.096 376.172 443.495 371.385C444.162 338.251 439.645 308.41 427.561 278.743C448.257 257.451 453.287 225.465 446.7 197.131C442.872 180.211 436.463 172.812 428.028 167.638C428.874 177.997 426.649 192.558 420.885 200.491C417.28 205.465 411.583 208.73 405.641 209.25C412.539 223.024 414.698 224.597 410.381 226.504C402.903 229.718 395.337 232.931 387.459 234.798C363.113 240.651 336.096 232.878 317.959 214.745C328.864 221.065 341.883 222.158 354.189 220.184C366.429 218.21 378.068 213.397 389.484 208.265C385.923 200.438 382.363 192.664 378.78 184.851C384.143 187.33 389.595 189.504 395.181 191.318C411.694 196.77 404.305 169.745 403.615 158.932C403.526 158.878 403.393 158.878 403.282 158.878C387.637 157.61 373.061 165.69 361.867 176.504C360.554 177.745 357.327 182.664 355.725 182.984C352.298 183.545 348.002 176.61 345.354 174.743C332.669 165.65 317.091 160.425 301.135 159.317C295.282 156.824 289.251 157.717 283.221 159.851C263.993 162.343 248.148 169.879 232.125 180.198C230.033 176.025 225.983 174.797 221.71 175.998C221.399 174.703 224.247 186.157 206.845 116.945C205.443 111.263 203.818 104.825 199.79 99.6511C194.738 93.1707 186.838 90.7294 180.629 93.7181C175.31 96.2507 172.885 101.623 170.748 106.358C166.498 115.796 165.029 116.958 154.28 117.37C148.361 117.597 141.684 117.864 137.078 123.412C132.627 128.851 133.027 136.771 135.431 142.183C141.729 156.731 174.977 175.558 198.944 201.052C152.856 230.492 124.059 284.943 124.794 338.852C125.038 356.677 127.598 376.57 117.338 390.611C111.441 398.638 102.361 403.104 95.1731 409.838C83.423 420.878 77.2587 438.439 79.2838 455.079C82.3104 479.892 102.028 501.973 97.688 526.532C93.0592 552.492 64.9965 564.411 50.3311 585.652C38.8924 602.238 36.311 625.345 43.7661 644.359C49.1516 658.065 61.1021 671.999 48.1056 695.532C39.2262 703.386 32.1272 712.546 26.1853 722.798C20.1767 729.238 14.4129 735.505 10.4962 741.932C-0.341599 759.693 -2.9675 783.425 3.46394 803.572C-0.586308 849.386 -0.252495 979.72 15.2586 1111.17C15.5034 1113.13 17.1503 1114.61 19.1309 1114.61C19.7318 1114.61 403.393 1111.51 404.127 1111.51C405.196 1111.49 406.152 1110.72 406.887 1109.92C457.804 1109.37 453.91 1109.67 455.067 1109.29C516.911 1107 516.266 1108.56 518.402 1106.17C520.472 1103.84 522.23 1079 523.365 1057.76H1257.55C1259.69 1057.76 1261.45 1056.01 1261.45 1053.87C1261.45 1051.72 1259.69 1049.99 1257.55 1049.99H1138.89C1133.82 1007.77 1112.59 997.014 1074.93 989.601C1074.02 986.227 1072.15 983.16 1069.82 980.572C1073.35 977.839 1075.53 973.146 1075.31 968.706C1074.64 955.28 1057.2 945.026 1045.14 941.721C1047.47 937.72 1048.25 932.505 1046.69 928.039C1043.62 919.146 1035.1 914.68 1028.96 912.092C1011.33 904.679 992.282 902.44 974.523 905.547C978.15 890.521 976.37 872.813 976.036 861.065C999.937 862.839 1204.94 877.8 1210.28 877.8C1215.18 877.8 1219.7 876.307 1223.46 873.826C1224.37 873.732 1225.28 873.679 1226.2 873.572C1260.91 869.066 1261.62 869.253 1264.45 867.799C1269.81 865.027 1269.86 859.973 1273.02 837.066C1285.57 746.599 1306.55 531.72 1315.52 439.852C1327.23 318.732 1327.92 323.744 1324.71 318.719C1323.42 316.678 1321.35 315.412 1319.33 314.212Z" fill="#040606"/>
<path d="M887.392 800.907C877.917 800.907 870.231 808.947 870.231 818.879C870.231 828.8 877.917 836.854 887.392 836.854C896.847 836.854 904.532 828.8 904.532 818.879C904.532 808.947 896.847 800.907 887.392 800.907Z" fill="#040606"/>
<path d="M405.727 372.304C410.642 372.665 415.124 365.317 415.74 355.892C416.357 346.451 412.858 338.517 407.959 338.157C403.044 337.784 398.562 345.13 397.962 354.571C397.346 363.998 400.828 371.93 405.727 372.304Z" fill="#040606"/>
<path d="M362.86 330.51C378.591 317.417 400.808 313.963 419.498 321.737C421.487 322.549 423.744 321.616 424.58 319.63C425.399 317.656 424.463 315.376 422.474 314.55C401.159 305.683 375.799 309.603 357.878 324.537C356.24 325.909 356.006 328.363 357.394 330.017C358.764 331.67 361.205 331.884 362.86 330.51Z" fill="#040606"/>
<path d="M291.613 351.18C284.384 351.38 277.92 357.86 277.236 365.633C276.344 375.621 284.878 383.793 288.763 383.793C292.807 383.793 294.16 378.38 290.626 376.487C286.995 374.527 284.623 370.26 284.973 366.313C285.324 362.487 288.524 359.046 291.836 358.953C293.985 358.9 295.673 357.114 295.625 354.967C295.545 352.82 293.826 351.113 291.613 351.18Z" fill="#040606"/>
<path d="M421.158 435.868C414.102 436.76 406.462 433.321 402.181 427.255C400.944 425.508 398.536 425.082 396.781 426.321C395.009 427.561 394.607 429.974 395.828 431.735C401.747 440.121 412.012 444.881 422.161 443.589C424.301 443.308 425.789 441.362 425.522 439.242C425.238 437.108 423.248 435.588 421.158 435.868Z" fill="#040606"/>
<g clip-path="url(#clip0_10_2)">
<path d="M900 605.479C926.786 605.479 948.5 583.764 948.5 556.979C948.5 530.193 926.786 508.479 900 508.479C873.214 508.479 851.5 530.193 851.5 556.979C851.5 583.764 873.214 605.479 900 605.479Z" fill="white"/>
<path d="M900 508.5H983.99C975.479 493.754 963.236 481.508 948.491 472.994C933.746 464.48 917.02 459.999 899.993 460C882.967 460.001 866.241 464.485 851.497 473.001C836.754 481.517 824.512 493.764 816.003 508.512L857.998 581.25L858.036 581.24C853.764 573.874 851.509 565.511 851.5 556.995C851.49 548.479 853.726 540.111 857.981 532.734C862.237 525.358 868.362 519.234 875.739 514.979C883.116 510.724 891.484 508.49 900 508.5Z" fill="url(#paint0_linear_10_2)"/>
<path d="M900 595.395C921.206 595.395 938.396 578.205 938.396 556.999C938.396 535.794 921.206 518.604 900 518.604C878.795 518.604 861.604 535.794 861.604 556.999C861.604 578.205 878.795 595.395 900 595.395Z" fill="#1A73E8"/>
<path d="M941.998 581.261L900.003 653.999C917.029 654.002 933.756 649.521 948.501 641.008C963.247 632.496 975.491 620.251 984.003 605.505C992.515 590.759 996.995 574.032 996.992 557.006C996.989 539.98 992.503 523.254 983.986 508.512H899.995L899.985 508.549C908.501 508.533 916.871 510.762 924.251 515.011C931.631 519.261 937.76 525.381 942.02 532.755C946.281 540.128 948.522 548.495 948.518 557.011C948.514 565.527 946.265 573.891 941.998 581.261Z" fill="url(#paint1_linear_10_2)"/>
<path d="M858.001 581.262L816.006 508.523C807.491 523.267 803.007 539.994 803.007 557.02C803.006 574.046 807.488 590.773 816.003 605.517C824.517 620.262 836.763 632.505 851.51 641.015C866.256 649.526 882.984 654.004 900.01 653.999L942.005 581.261L941.978 581.233C937.735 588.617 931.619 594.75 924.249 599.017C916.879 603.283 908.514 605.531 899.998 605.534C891.482 605.537 883.116 603.294 875.743 599.033C868.37 594.772 862.25 588.642 858.001 581.262Z" fill="url(#paint2_linear_10_2)"/>
</g>
<path d="M851.91 129.811C850.843 126.183 847.909 123.943 843.696 123.943C837.722 123.943 833.668 128.53 833.668 136.638C833.668 144.799 837.615 149.439 843.749 149.439C849.269 149.439 852.55 146.319 852.657 141.438H844.282V135.411H860.391V140.212C860.391 150.346 853.457 156.533 843.696 156.533C832.868 156.533 825.507 148.959 825.507 136.745C825.507 124.21 833.348 116.849 843.536 116.849C852.23 116.849 858.951 122.183 860.017 129.811H851.91ZM879.113 156.587C870.365 156.587 864.924 150.559 864.924 141.598C864.924 132.637 870.365 126.664 879.113 126.664C887.86 126.664 893.354 132.637 893.354 141.598C893.354 150.559 887.86 156.587 879.113 156.587ZM879.166 150.453C883.22 150.453 885.3 146.666 885.3 141.598C885.3 136.478 883.22 132.691 879.166 132.691C875.059 132.691 872.925 136.478 872.925 141.598C872.925 146.666 875.059 150.453 879.166 150.453ZM911.329 156.587C902.582 156.587 897.141 150.559 897.141 141.598C897.141 132.637 902.582 126.664 911.329 126.664C920.077 126.664 925.571 132.637 925.571 141.598C925.571 150.559 920.077 156.587 911.329 156.587ZM911.383 150.453C915.437 150.453 917.517 146.666 917.517 141.598C917.517 136.478 915.437 132.691 911.383 132.691C907.276 132.691 905.142 136.478 905.142 141.598C905.142 146.666 907.276 150.453 911.383 150.453ZM943.546 167.468C935.545 167.468 930.638 163.894 930.158 158.4H937.946C938.372 160.694 940.559 161.761 943.706 161.761C947.387 161.761 949.84 160.214 949.84 156.16V150.879H949.467C948.4 153.226 945.84 155.573 941.199 155.573C934.639 155.573 929.411 150.986 929.411 141.332C929.411 131.517 934.799 126.664 941.199 126.664C946.053 126.664 948.4 129.544 949.467 131.891H949.787V127.037H957.628V156.32C957.628 163.681 951.76 167.468 943.546 167.468ZM943.653 149.653C947.6 149.653 949.84 146.559 949.84 141.438C949.84 136.265 947.6 132.958 943.653 132.958C939.653 132.958 937.519 136.425 937.519 141.438C937.519 146.452 939.653 149.653 943.653 149.653ZM971.656 117.383V156H963.762V117.383H971.656ZM990.911 156.587C982.057 156.587 976.616 150.826 976.616 141.652C976.616 132.691 982.11 126.664 990.591 126.664C998.219 126.664 1004.19 131.464 1004.19 141.332V143.572H984.404C984.404 147.946 987.018 150.666 991.071 150.666C993.738 150.666 995.659 149.493 996.459 147.732H1003.98C1002.86 153.066 998.059 156.587 990.911 156.587ZM984.404 138.611H996.725C996.725 135.091 994.272 132.584 990.751 132.584C987.124 132.584 984.537 135.278 984.404 138.611ZM852.07 195.824C851.43 191.557 848.123 188.943 843.642 188.943C837.615 188.943 833.668 193.584 833.668 201.691C833.668 210.012 837.668 214.439 843.589 214.439C848.016 214.439 851.27 211.986 852.07 207.825L860.177 207.879C859.271 215.026 853.297 221.533 843.482 221.533C833.134 221.533 825.507 214.279 825.507 201.691C825.507 189.103 833.294 181.849 843.482 181.849C852.39 181.849 859.111 186.97 860.177 195.824H852.07ZM873.512 204.252V221H865.618V182.383H873.299V197.104H873.619C874.952 193.744 877.886 191.664 882.26 191.664C888.287 191.664 892.287 195.717 892.287 202.545V221H884.393V203.932C884.393 200.358 882.473 198.224 879.166 198.224C875.859 198.224 873.512 200.411 873.512 204.252ZM898.368 221V192.037H905.996V197.051H906.316C907.382 193.477 910.049 191.61 913.303 191.61C914.103 191.61 915.117 191.717 915.81 191.877V198.918C915.063 198.704 913.57 198.491 912.45 198.491C908.876 198.491 906.262 200.998 906.262 204.518V221H898.368ZM931.758 221.587C923.011 221.587 917.57 215.559 917.57 206.598C917.57 197.637 923.011 191.664 931.758 191.664C940.506 191.664 946 197.637 946 206.598C946 215.559 940.506 221.587 931.758 221.587ZM931.812 215.453C935.865 215.453 937.946 211.666 937.946 206.598C937.946 201.478 935.865 197.691 931.812 197.691C927.705 197.691 925.571 201.478 925.571 206.598C925.571 211.666 927.705 215.453 931.812 215.453ZM950.96 221V192.037H958.481V197.104H958.801C960.028 193.744 962.962 191.664 966.855 191.664C970.856 191.664 973.789 193.744 974.75 197.104H975.016C976.243 193.797 979.497 191.664 983.764 191.664C989.151 191.664 992.885 195.237 992.885 201.531V221H984.991V203.078C984.991 199.771 983.07 198.171 980.457 198.171C977.47 198.171 975.763 200.251 975.763 203.291V221H968.082V202.865C968.082 199.984 966.269 198.171 963.602 198.171C960.935 198.171 958.855 200.304 958.855 203.611V221H950.96ZM1012.09 221.587C1003.23 221.587 997.792 215.826 997.792 206.652C997.792 197.691 1003.29 191.664 1011.77 191.664C1019.39 191.664 1025.37 196.464 1025.37 206.332V208.572H1005.58C1005.58 212.946 1008.19 215.666 1012.25 215.666C1014.91 215.666 1016.83 214.493 1017.63 212.732H1025.15C1024.03 218.066 1019.23 221.587 1012.09 221.587ZM1005.58 203.611H1017.9C1017.9 200.091 1015.45 197.584 1011.93 197.584C1008.3 197.584 1005.71 200.278 1005.58 203.611Z" fill="#040606"/>
<defs>
<linearGradient id="paint0_linear_10_2" x1="816.003" y1="520.625" x2="983.99" y2="520.625" gradientUnits="userSpaceOnUse">
<stop stop-color="#D93025"/>
<stop offset="1" stop-color="#EA4335"/>
</linearGradient>
<linearGradient id="paint1_linear_10_2" x1="886.751" y1="652.702" x2="970.745" y2="507.221" gradientUnits="userSpaceOnUse">
<stop stop-color="#FCC934"/>
<stop offset="1" stop-color="#FBBC04"/>
</linearGradient>
<linearGradient id="paint2_linear_10_2" x1="910.501" y1="647.943" x2="826.507" y2="502.461" gradientUnits="userSpaceOnUse">
<stop stop-color="#1E8E3E"/>
<stop offset="1" stop-color="#34A853"/>
</linearGradient>
<clipPath id="clip0_10_2">
<rect width="238" height="194" fill="white" transform="translate(781 460)"/>
</clipPath>
</defs>
</svg>
