<svg width="1327" height="1115" viewBox="0 0 1327 1115" fill="none" xmlns="http://www.w3.org/2000/svg">
<path d="M965.911 907.547C942.099 914.293 932.752 927.227 921.981 935.946C910.476 945.346 896.722 953.627 881.901 953.627L739.008 920.119C757.367 917.613 769.14 913.999 793.13 908.346C803.522 905.894 815.206 902.547 822.327 893.972C832.297 881.88 829.003 865.147 826.377 849.653C873.333 853.359 922.003 857.053 968.247 860.493C968.581 873.174 970.673 893.532 965.911 907.547ZM1025.95 919.266C1033.52 922.453 1037.77 926.041 1039.35 930.587C1040.62 934.212 1038.5 939.133 1035.99 940.268C1035.63 940.252 1033.94 939.653 1033.34 939.52C1025.11 937.706 1017.38 934.426 1008.62 933.12C997.578 931.493 987.987 934.001 981.644 940.212C980.109 941.705 980.064 944.173 981.578 945.707C983.069 947.253 985.539 947.267 987.074 945.773C998.469 934.613 1017.21 943.693 1030.65 946.853C1032.09 948.346 1034.81 948.493 1036.86 948.092C1047.56 948.893 1067.03 958.614 1067.55 969.094C1067.66 971.081 1066.52 973.6 1064.54 974.733C1061.34 973.506 1062.83 975.467 1050.97 970.079C1038.86 964.547 1027 961.574 1012.15 964.226C1010.02 964.6 1008.62 966.612 1008.99 968.733C1009.37 970.854 1011.38 972.227 1013.51 971.88C1029.6 969 1061.51 977.359 1066.97 990.279C1067.41 991.268 1067.68 992.333 1067.75 993.399C1067.99 996.386 1063.9 1001.29 1061.22 1001.97C1058.71 1002.59 1055.64 1000.95 1052.92 999.239C1049.1 995.507 1027.6 982.933 1011.8 985.268C1009.68 985.586 1008.22 987.573 1008.53 989.692C1008.86 991.813 1010.86 993.239 1012.93 992.961C1024.48 991.241 1042.69 1000.72 1048.27 1005.4C1050.21 1007.01 1055.55 1010.28 1058.75 1014.95C1063.76 1022.48 1062.18 1031.43 1052.72 1033.21C1039.33 1035.8 1006.5 1017.51 987.497 1030.23C981.199 1034.39 975.791 1040.49 969.405 1042.81C959.947 1046.19 949.131 1047 938.471 1048.2C907.382 1051.93 940.741 1049.32 569.164 1043.73C552.807 1040.6 536.74 1032.17 522.631 1019.31C519.426 1012.79 513.084 1009.09 508.521 1003.65C499.954 993.453 494.012 981.467 491.853 973.92L639.888 872.346C660.762 909.319 659.093 909.372 662.12 910.093C890.046 963.479 880.455 961.36 881.3 961.387C910.03 962.146 934.043 934.84 943.189 927.587C966.244 909.199 998.758 907.826 1025.95 919.266ZM524.567 1031.05C536.161 1040.11 548.757 1046.56 561.709 1049.99H523.743C524.144 1042 524.433 1035.15 524.567 1031.05ZM512.305 1099.83L456.669 1101.45C451.907 1084.72 456.336 1109.68 435.016 925.4C430.988 889.92 426.76 853.759 426.96 818.026C427.205 773.667 426.07 732.519 388.616 703.68C374.507 692.826 358.618 686.373 341.526 682.358C341.905 666.132 333.938 656.278 323.367 644.305C310.816 630.078 298.109 613.893 289.786 596.466C294.592 585.479 297.975 573.704 299.911 561.558C341.526 563.065 381.628 567.945 418.904 592.371C419.95 593.065 421.285 593.186 422.42 592.758C451.083 601.4 476.431 620.638 499.954 639.666C574.082 699.652 626.313 755.679 659.049 849.747L485.288 969.013C484.064 969.866 483.419 971.359 483.664 972.839C485.266 982.693 495.08 1002.43 508.944 1015.05C513.061 1018.8 516.578 1022 516.956 1027.56C517.156 1030 516.711 1040 515.999 1051.89C515.287 1053.07 515.175 1054.21 515.776 1055.52C514.73 1072.83 513.217 1092.88 512.305 1099.83ZM47.0153 865.467C47.9055 869.506 48.1058 873.812 49.2853 877.854C52.2673 888.213 61.3914 895.372 70.9607 898.679C80.5745 902.053 90.856 902.267 100.87 903.239C128.844 905.894 156.105 914.386 184.012 917.493C211.963 920.546 242.05 917.493 264.616 899.52C274.653 891.48 283.043 880.186 285.223 866.92C289.029 843.6 273.362 821.066 274.697 797.438C275.921 776.56 289.674 760.225 304.051 745.266C326.794 751.546 347.313 763.358 360.509 782.92C377.89 808.706 377.734 840.68 377.6 871.814C377.333 913.36 381.161 939.44 399.587 1102.23L22.4912 1105.87C9.62834 995.24 7.09145 877.053 10.2293 818.119C21.2896 835.653 42.2752 845.294 47.0153 865.467ZM142.552 139.076C140.839 135.224 141.061 130.811 143.086 128.357C145.29 125.691 148.895 125.357 154.569 125.143C168.323 124.598 172.328 121.785 177.825 109.543C179.583 105.691 181.23 102.037 183.967 100.717C187.172 99.1971 191.333 101.478 193.648 104.425C198.722 110.945 198.788 119.33 213.788 176.423C215.39 182.279 214.812 184.037 217.415 185.145C218.617 185.663 219.974 185.543 221.065 184.838C223.446 183.291 224.848 183.224 225.048 183.398C225.271 183.919 225.827 184.224 225.627 186.892C225.427 189.705 228.186 191.81 230.879 190.811C257.361 180.892 284.756 164.664 294.926 165.65C297.997 165.917 301.803 167.824 302.915 171.358C305.252 179.065 294.125 188.717 295.238 200.291C296.15 210.025 305.363 216.599 304.696 223.478C304.273 227.503 300.267 230.372 296.707 231.024C288.94 232.464 281.618 228.024 228.876 213.677C217.549 210.65 218.083 208.372 215.279 208.372C214.455 208.372 213.61 208.639 212.92 209.17C209.671 211.665 208.002 211.545 207.824 211.385C207.334 211.038 206.533 208.251 208.358 202.743C209.226 200.131 207.2 198.37 205.109 196.239C181.564 170.931 147.782 151.158 142.552 139.076ZM419.171 817.986C418.993 854.026 423.199 890.28 427.294 926.279C448.747 1111.79 444.163 1084.52 448.658 1101.68C443.384 1101.88 448.324 1101.71 407.376 1102.16C389.306 941.892 385.078 913.865 385.367 871.64C385.523 839.532 385.679 806.347 366.963 778.574C353.566 758.732 333.092 745.96 310.215 738.946C323.412 725.466 337.009 709.225 340.681 690.147C370.924 697.426 390.552 712.012 402.08 729.078C419.55 755 419.349 787.012 419.171 817.986ZM320.029 333.878C329.687 332.785 338.856 327.918 345.888 320.811C347.29 319.411 362.334 297.025 358.862 295.786C379.091 302.771 402.436 299.771 421.374 284.358C431.366 310.011 435.239 333.504 435.75 361.358C434.994 363.398 435.484 369.532 435.728 371.69C435.684 373.651 435.684 375.625 435.595 377.572C435.528 379.105 436.396 380.465 437.687 381.146C441.47 393.145 450.127 400.945 447.3 408.318C445.075 414.091 436.218 414.852 430.098 414.879C427.939 414.892 426.226 416.639 426.226 418.784C426.226 420.825 427.828 422.452 429.853 422.599C417.547 487.478 385.234 523.572 323.79 500.172C321.787 499.411 319.539 500.413 318.783 502.424C318.004 504.425 319.028 506.666 321.03 507.438C336.964 513.505 354.545 517.159 371.325 514.039C375.219 539.333 374.084 547.371 375.776 564.306C358.195 559.025 339.524 555.304 300.935 553.825C302.693 537.786 302.092 521.305 299.244 505.386C301.002 502.079 302.76 498.759 304.362 495.385C312.418 478.599 317.136 457.411 307.656 441.492C303.539 434.558 296.751 428.438 296.885 420.197C296.929 418.704 297.196 417.198 297.441 415.704C307.856 414.478 316.824 409.119 322.188 402.305C324.992 402.038 326.616 398.878 325.125 396.412C324.658 395.891 323.857 393.265 321.03 393.265C321.008 393.265 321.008 393.265 321.008 393.265C319.628 393.265 318.36 393.998 317.67 395.17C313.62 402.038 305.252 406.798 297.085 407.971C295.639 404.624 292.234 402.545 289.162 400.558C274.63 391.158 264.015 373.065 263.926 352.411C269.401 336.664 286.18 332.371 300.735 338.798C302.359 339.517 304.162 338.972 305.252 337.652C308.746 340.412 312.707 347.144 316.513 348.065C317.27 337.744 313.82 334.637 320.029 333.878ZM621.862 747.026C626.535 694.894 650.725 431.945 666.704 375.798C667.883 371.706 672.112 368.011 679.077 367.891C711.346 366.091 923.739 351.586 1087.48 348.504C1205.7 345.998 1215.96 351.931 1217.94 352.091C1219.87 352.612 1220.52 352.932 1221.28 354.586C1223.46 359.079 1222.43 364.558 1221.7 370.37C1214.73 438.239 1185.63 722.48 1173.7 788.88C1172.76 794.065 1167.09 797.719 1160.7 797.412C1078.34 792.08 714.15 768.225 632.099 757.639C625.89 756.827 621.394 752.174 621.862 747.026ZM619.214 330.171C620.816 324.238 626.335 319.477 634.636 319.357C669.018 316.758 772.01 310.505 772.545 310.465C772.456 315.051 767.871 327.411 777.886 333.317C779.488 334.252 779.377 334.105 780.356 334.412C781.869 334.877 781.736 334.81 782.893 334.904C785.496 335.158 764.956 335.932 1030.16 322.571C1037.99 322.159 1045 314.984 1046.11 306.212L1047.29 296.745C1083.57 295.385 1240.75 290.037 1276.36 298.919C1279.36 299.771 1280.74 299.825 1282.01 302.838C1284.46 308.226 1283.72 314.172 1282.97 320.466C1274.58 407.958 1239.57 773.36 1225.37 858.226C1224.13 865.48 1217.12 870.505 1209.13 869.987C1193.9 868.934 836.191 844.239 659.071 827.773C649.59 804.226 638.597 783.147 627.047 764.387C647.788 771.319 1152.93 805.212 1161.66 805.212C1171.41 805.212 1179.75 799.001 1181.35 790.266C1193.41 722.798 1221.92 444.532 1229.71 368.666C1230.4 363.265 1231.18 357.158 1228.31 351.252C1227.37 349.238 1226.11 347.665 1224.53 346.559C1222.77 345.306 1219.74 344.424 1218.81 344.318C1158.14 330.264 693.342 358.505 677.163 360.225C668.618 360.759 661.43 366.144 659.227 373.651C643.537 428.732 620.994 670.025 614.251 744.959C600.743 725.64 587.123 709.479 575.061 696.986C587.857 556.918 605.839 380.345 619.214 330.171ZM815.339 29.7042C815.918 24.7705 819.857 20.4242 823.907 20.2106L1069.37 7.7838C1069.46 7.77045 1069.57 7.7705 1069.66 7.7705C1073.31 7.7705 1074.93 11.478 1074.49 15.2234V15.2367L1038.39 305.237C1037.77 310.224 1033.81 314.599 1029.76 314.811C769.963 327.411 783.471 328.704 780.779 325.851C779.488 324.451 778.909 322.237 779.198 319.798C779.265 319.266 780.934 305.851 780.845 306.704L815.339 29.7042ZM819.768 857.307C826.155 895.719 811.178 895.84 774.013 904.973C732.954 915.094 725.566 913.267 715.952 914.72L665.591 902.921L646.319 867.919L665.88 854.48C667.327 853.492 667.928 851.678 667.371 850.025C665.791 845.358 664.033 840.627 662.231 835.88C706.227 839.933 760.839 844.479 818.366 849.026C818.455 849.56 819.59 856.174 819.768 857.307ZM1319.33 314.212C1314.63 311.426 1293.6 298.97 1287.46 296.798C1286.73 295.77 1285.93 294.878 1285.01 294.197C1267.74 280.504 1070.06 288.144 1048.27 288.945L1082.19 16.1959C1083.32 7.2631 1077.72 -0.323325 1068.97 0.0104872L823.507 12.4504C815.651 12.8644 808.663 20.0237 807.617 28.7584L773.524 302.624C759.081 303.503 646.786 310.411 632.366 311.704C622.485 312.385 614.162 318.986 611.714 328.159C598.406 378.077 580.714 550.413 567.94 689.679C546.687 668.133 524.277 649.346 504.85 633.626C480.014 613.546 453.153 593.212 422.042 584.56C421.641 584.453 421.285 584.44 420.885 584.413C409.713 577.345 397.229 571.492 383.854 566.866C381.806 549.385 383.186 539.825 378.891 512.078C397.985 505.932 411.894 490.839 421.352 473.612C430.409 457.079 434.949 437.838 437.82 422.145C444.073 421.252 451.64 418.691 454.555 411.091C458.183 401.611 451.707 392.998 447.501 384.865C445.364 380.745 444.096 376.172 443.495 371.385C444.162 338.251 439.645 308.41 427.561 278.743C448.257 257.451 453.287 225.465 446.7 197.131C442.872 180.211 436.463 172.812 428.028 167.638C428.874 177.997 426.649 192.558 420.885 200.491C417.28 205.465 411.583 208.73 405.641 209.251C412.539 223.024 414.698 224.597 410.381 226.504C402.903 229.718 395.337 232.931 387.459 234.798C363.113 240.651 336.096 232.878 317.959 214.745C328.864 221.065 341.883 222.158 354.189 220.184C366.429 218.21 378.068 213.397 389.484 208.265C385.923 200.438 382.363 192.664 378.78 184.851C384.143 187.33 389.595 189.504 395.181 191.318C411.694 196.77 404.305 169.745 403.615 158.932C403.526 158.878 403.393 158.878 403.282 158.878C387.637 157.61 373.061 165.69 361.867 176.504C360.554 177.745 357.327 182.663 355.725 182.984C352.298 183.545 348.002 176.61 345.354 174.743C332.669 165.65 317.091 160.425 301.135 159.317C295.282 156.824 289.251 157.717 283.221 159.851C263.993 162.343 248.148 169.879 232.125 180.198C230.033 176.025 225.983 174.797 221.71 175.998C221.399 174.703 224.247 186.157 206.845 116.945C205.443 111.263 203.818 104.825 199.79 99.6511C194.738 93.1707 186.838 90.7294 180.629 93.7181C175.31 96.2507 172.885 101.623 170.748 106.358C166.498 115.796 165.029 116.958 154.28 117.37C148.361 117.597 141.684 117.864 137.078 123.412C132.627 128.851 133.027 136.771 135.431 142.183C141.729 156.731 174.977 175.558 198.944 201.052C152.856 230.492 124.059 284.943 124.794 338.852C125.038 356.677 127.598 376.57 117.338 390.611C111.441 398.638 102.361 403.104 95.1731 409.838C83.423 420.878 77.2587 438.439 79.2838 455.079C82.3104 479.892 102.028 501.973 97.688 526.532C93.0592 552.492 64.9965 564.411 50.3311 585.652C38.8924 602.238 36.311 625.345 43.7661 644.359C49.1516 658.065 61.1021 671.999 48.1056 695.532C39.2262 703.386 32.1272 712.546 26.1853 722.798C20.1767 729.238 14.4129 735.505 10.4962 741.932C-0.341599 759.693 -2.9675 783.425 3.46394 803.572C-0.586308 849.386 -0.252495 979.72 15.2586 1111.17C15.5034 1113.13 17.1503 1114.61 19.1309 1114.61C19.7318 1114.61 403.393 1111.51 404.127 1111.51C405.196 1111.49 406.152 1110.72 406.887 1109.92C457.804 1109.37 453.91 1109.67 455.067 1109.29C516.911 1107 516.266 1108.56 518.402 1106.17C520.472 1103.84 522.23 1079 523.365 1057.76H1257.55C1259.69 1057.76 1261.45 1056.01 1261.45 1053.87C1261.45 1051.72 1259.69 1049.99 1257.55 1049.99H1138.89C1133.82 1007.77 1112.59 997.014 1074.93 989.601C1074.02 986.227 1072.15 983.16 1069.82 980.572C1073.35 977.839 1075.53 973.146 1075.31 968.706C1074.64 955.28 1057.2 945.026 1045.14 941.721C1047.47 937.72 1048.25 932.505 1046.69 928.039C1043.62 919.146 1035.1 914.68 1028.96 912.092C1011.33 904.679 992.282 902.44 974.523 905.547C978.15 890.521 976.37 872.813 976.036 861.065C999.937 862.839 1204.94 877.8 1210.28 877.8C1215.18 877.8 1219.7 876.307 1223.46 873.826C1224.37 873.732 1225.28 873.679 1226.2 873.572C1260.91 869.066 1261.62 869.253 1264.45 867.799C1269.81 865.027 1269.86 859.973 1273.02 837.066C1285.57 746.599 1306.55 531.72 1315.52 439.852C1327.23 318.732 1327.92 323.744 1324.71 318.719C1323.42 316.678 1321.35 315.412 1319.33 314.212Z" fill="#040606"/>
<path d="M887.392 800.907C877.917 800.907 870.231 808.947 870.231 818.879C870.231 828.8 877.917 836.854 887.392 836.854C896.847 836.854 904.532 828.8 904.532 818.879C904.532 808.947 896.847 800.907 887.392 800.907Z" fill="#040606"/>
<path d="M405.727 372.304C410.642 372.665 415.124 365.317 415.74 355.892C416.357 346.451 412.858 338.517 407.959 338.157C403.044 337.784 398.562 345.13 397.962 354.571C397.346 363.998 400.828 371.93 405.727 372.304Z" fill="#040606"/>
<path d="M362.86 330.51C378.591 317.417 400.808 313.963 419.498 321.737C421.487 322.549 423.744 321.616 424.58 319.63C425.399 317.656 424.463 315.376 422.474 314.55C401.159 305.683 375.799 309.603 357.878 324.537C356.24 325.909 356.006 328.363 357.394 330.017C358.764 331.67 361.205 331.884 362.86 330.51Z" fill="#040606"/>
<path d="M291.613 351.18C284.384 351.38 277.92 357.86 277.236 365.633C276.344 375.621 284.878 383.793 288.763 383.793C292.807 383.793 294.16 378.38 290.626 376.487C286.995 374.527 284.623 370.26 284.973 366.313C285.324 362.487 288.524 359.046 291.836 358.953C293.985 358.9 295.673 357.114 295.625 354.967C295.545 352.82 293.826 351.113 291.613 351.18Z" fill="#040606"/>
<path d="M421.158 435.868C414.102 436.76 406.462 433.321 402.181 427.255C400.944 425.508 398.536 425.082 396.781 426.321C395.009 427.561 394.607 429.974 395.828 431.735C401.747 440.121 412.012 444.881 422.161 443.589C424.301 443.308 425.789 441.362 425.522 439.242C425.238 437.108 423.248 435.588 421.158 435.868Z" fill="#040606"/>
<path d="M851.028 86.3825L860.415 115.826H860.789L870.23 86.3825H879.084L865.749 125H855.455L842.067 86.3825H851.028ZM883.298 125V96.0369H891.192V125H883.298ZM887.245 92.2498C884.845 92.2498 882.924 90.4363 882.924 88.2494C882.924 86.0092 884.845 84.1956 887.245 84.1956C889.592 84.1956 891.512 86.0092 891.512 88.2494C891.512 90.4363 889.592 92.2498 887.245 92.2498ZM913.861 104.624C913.541 102.598 911.728 101.264 909.114 101.264C906.554 101.264 904.58 102.491 904.633 104.251C904.58 105.531 905.647 106.545 908.367 107.131L913.541 108.198C919.142 109.372 921.862 111.879 921.915 116.039C921.862 121.746 916.741 125.587 909.061 125.587C901.22 125.587 896.633 122.066 895.993 116.412H903.94C904.313 118.706 906.18 119.879 909.061 119.879C911.941 119.879 913.861 118.706 913.861 116.839C913.861 115.346 912.634 114.439 909.914 113.852L905.114 112.892C899.62 111.825 896.739 108.945 896.793 104.678C896.739 99.1306 901.54 95.6635 909.007 95.6635C916.315 95.6635 920.849 99.1306 921.275 104.624H913.861ZM945.331 112.679V96.0369H953.225V125H945.651V119.773H945.331C943.998 123.133 940.904 125.373 936.53 125.373C930.716 125.373 926.769 121.266 926.769 114.492V96.0369H934.663V113.105C934.663 116.519 936.637 118.706 939.731 118.706C942.611 118.706 945.331 116.626 945.331 112.679ZM957.973 116.892C957.973 110.438 963.2 108.305 968.747 107.985C970.827 107.851 974.721 107.665 975.948 107.611V105.265C975.894 102.864 974.241 101.424 971.307 101.424C968.64 101.424 966.933 102.651 966.507 104.624H958.986C959.466 99.6106 963.84 95.6635 971.521 95.6635C977.815 95.6635 983.789 98.4905 983.789 105.478V125H976.321V121H976.108C974.668 123.667 971.947 125.533 967.627 125.533C962.08 125.533 957.973 122.653 957.973 116.892ZM965.547 116.679C965.547 118.919 967.36 120.093 969.867 120.093C973.441 120.093 976.001 117.693 975.948 114.652V112.519C974.748 112.572 971.387 112.759 970.027 112.892C967.307 113.159 965.547 114.439 965.547 116.679ZM997.71 86.3825V125H989.816V86.3825H997.71ZM865.216 162.424C864.896 159.383 862.442 157.57 858.549 157.57C854.495 157.57 852.255 159.437 852.201 161.997C852.148 164.771 855.082 166.051 858.389 166.798L861.856 167.651C868.47 169.144 873.43 172.505 873.43 178.959C873.43 186.053 867.883 190.533 858.495 190.533C849.161 190.533 843.187 186.213 842.974 177.945H850.761C851.028 181.839 854.121 183.813 858.389 183.813C862.602 183.813 865.323 181.839 865.323 178.959C865.323 176.345 862.922 175.118 858.709 174.052L854.495 173.038C847.987 171.438 843.987 168.184 843.987 162.53C843.987 155.49 850.174 150.849 858.602 150.849C867.136 150.849 872.79 155.596 872.897 162.424H865.216ZM893.752 161.037V166.958H888.312V181.092C888.312 183.386 889.432 183.973 891.032 184.026C891.832 184.026 893.219 183.973 894.179 183.866V190.107C893.326 190.267 891.939 190.373 889.965 190.373C884.258 190.373 880.364 187.813 880.418 182.212V166.958H876.417V161.037H880.418V154.103H888.312V161.037H893.752ZM917.275 177.679V161.037H925.169V190H917.595V184.773H917.275C915.941 188.133 912.848 190.373 908.474 190.373C902.66 190.373 898.713 186.266 898.713 179.492V161.037H906.607V178.105C906.607 181.519 908.581 183.706 911.674 183.706C914.555 183.706 917.275 181.626 917.275 177.679ZM941.971 190.48C935.357 190.48 930.183 185.199 930.183 175.545C930.183 165.624 935.57 160.664 941.971 160.664C946.825 160.664 949.118 163.544 950.185 165.891H950.452V151.383H958.346V190H950.558V185.36H950.185C949.065 187.76 946.665 190.48 941.971 190.48ZM944.424 184.186C948.372 184.186 950.612 180.719 950.612 175.492C950.612 170.265 948.372 166.958 944.424 166.958C940.424 166.958 938.29 170.425 938.29 175.492C938.29 180.612 940.424 184.186 944.424 184.186ZM964.693 190V161.037H972.587V190H964.693ZM968.64 157.25C966.24 157.25 964.32 155.436 964.32 153.249C964.32 151.009 966.24 149.196 968.64 149.196C970.987 149.196 972.907 151.009 972.907 153.249C972.907 155.436 970.987 157.25 968.64 157.25ZM991.736 190.587C982.989 190.587 977.548 184.559 977.548 175.598C977.548 166.637 982.989 160.664 991.736 160.664C1000.48 160.664 1005.98 166.637 1005.98 175.598C1005.98 184.559 1000.48 190.587 991.736 190.587ZM991.789 184.453C995.843 184.453 997.923 180.666 997.923 175.598C997.923 170.478 995.843 166.691 991.789 166.691C987.682 166.691 985.549 170.478 985.549 175.598C985.549 180.666 987.682 184.453 991.789 184.453ZM870.07 229.824C869.43 225.557 866.123 222.943 861.642 222.943C855.615 222.943 851.668 227.584 851.668 235.691C851.668 244.012 855.668 248.439 861.589 248.439C866.016 248.439 869.27 245.986 870.07 241.825L878.177 241.879C877.271 249.026 871.297 255.533 861.482 255.533C851.134 255.533 843.507 248.279 843.507 235.691C843.507 223.103 851.294 215.849 861.482 215.849C870.39 215.849 877.111 220.97 878.177 229.824H870.07ZM896.633 255.587C887.885 255.587 882.444 249.559 882.444 240.598C882.444 231.637 887.885 225.664 896.633 225.664C905.38 225.664 910.874 231.637 910.874 240.598C910.874 249.559 905.38 255.587 896.633 255.587ZM896.686 249.453C900.74 249.453 902.82 245.666 902.82 240.598C902.82 235.478 900.74 231.691 896.686 231.691C892.579 231.691 890.445 235.478 890.445 240.598C890.445 245.666 892.579 249.453 896.686 249.453ZM926.502 255.48C919.888 255.48 914.715 250.199 914.715 240.545C914.715 230.624 920.102 225.664 926.502 225.664C931.356 225.664 933.65 228.544 934.717 230.891H934.983V216.383H942.878V255H935.09V250.36H934.717C933.597 252.76 931.196 255.48 926.502 255.48ZM928.956 249.186C932.903 249.186 935.143 245.719 935.143 240.492C935.143 235.265 932.903 231.958 928.956 231.958C924.956 231.958 922.822 235.425 922.822 240.492C922.822 245.612 924.956 249.186 928.956 249.186ZM962.346 255.587C953.492 255.587 948.051 249.826 948.051 240.652C948.051 231.691 953.545 225.664 962.026 225.664C969.654 225.664 975.628 230.464 975.628 240.332V242.572H955.839C955.839 246.946 958.453 249.666 962.506 249.666C965.173 249.666 967.094 248.493 967.894 246.732H975.414C974.294 252.066 969.494 255.587 962.346 255.587ZM955.839 237.611H968.16C968.16 234.091 965.707 231.584 962.186 231.584C958.559 231.584 955.972 234.278 955.839 237.611Z" fill="#040606"/>
<mask id="mask0_11_37" style="mask-type:alpha" maskUnits="userSpaceOnUse" x="787" y="444" width="241" height="241">
<path fill-rule="evenodd" clip-rule="evenodd" d="M957.898 683.354C961.693 684.833 966.022 684.738 969.853 682.894L1019.47 659.019C1024.68 656.51 1028 651.234 1028 645.445V483.556C1028 477.767 1024.68 472.49 1019.47 469.981L969.853 446.105C964.825 443.686 958.94 444.279 954.528 447.487C953.897 447.945 953.297 448.457 952.733 449.021L857.746 535.68L816.371 504.273C812.519 501.349 807.132 501.589 803.555 504.843L790.285 516.914C785.909 520.894 785.904 527.778 790.274 531.765L826.156 564.5L790.274 597.235C785.904 601.222 785.909 608.106 790.285 612.086L803.555 624.157C807.132 627.411 812.519 627.651 816.371 624.727L857.746 593.32L952.733 679.979C954.236 681.482 956 682.615 957.898 683.354ZM967.787 509.79L895.713 564.5L967.787 619.21V509.79Z" fill="white"/>
</mask>
<g mask="url(#mask0_11_37)">
<path d="M1019.47 470.018L969.815 446.11C964.067 443.342 957.198 444.51 952.687 449.02L790.13 597.235C785.757 601.221 785.762 608.105 790.14 612.086L803.419 624.157C806.998 627.411 812.389 627.65 816.242 624.727L1012 476.221C1018.57 471.239 1028 475.923 1028 484.166V483.59C1028 477.803 1024.69 472.529 1019.47 470.018Z" fill="#0065A9"/>
<g filter="url(#filter0_d_11_37)">
<path d="M1019.47 658.98L969.815 682.889C964.067 685.657 957.198 684.489 952.687 679.978L790.13 531.764C785.757 527.777 785.762 520.893 790.14 516.913L803.419 504.842C806.998 501.588 812.389 501.348 816.242 504.272L1012 652.778C1018.57 657.76 1028 653.076 1028 644.833V645.409C1028 651.195 1024.69 656.47 1019.47 658.98Z" fill="#007ACC"/>
</g>
<g filter="url(#filter1_d_11_37)">
<path d="M969.817 682.894C964.068 685.66 957.199 684.49 952.688 679.979C958.246 685.537 967.75 681.601 967.75 673.74V455.26C967.75 447.399 958.246 443.462 952.688 449.021C957.199 444.509 964.068 443.34 969.817 446.105L1019.47 469.981C1024.68 472.49 1028 477.767 1028 483.556V645.445C1028 651.234 1024.68 656.51 1019.47 659.019L969.817 682.894Z" fill="#1F9CF0"/>
</g>
<g style="mix-blend-mode:overlay" opacity="0.25">
<path fill-rule="evenodd" clip-rule="evenodd" d="M957.751 683.354C961.547 684.833 965.875 684.738 969.706 682.894L1019.32 659.019C1024.54 656.51 1027.85 651.234 1027.85 645.445V483.556C1027.85 477.767 1024.54 472.49 1019.32 469.981L969.706 446.105C964.678 443.686 958.794 444.279 954.381 447.487C953.751 447.945 953.15 448.457 952.587 449.021L857.599 535.68L816.225 504.273C812.373 501.349 806.986 501.589 803.409 504.843L790.138 516.914C785.763 520.894 785.758 527.778 790.128 531.764L826.009 564.5L790.128 597.235C785.758 601.222 785.763 608.106 790.138 612.086L803.409 624.157C806.986 627.411 812.373 627.65 816.225 624.727L857.599 593.32L952.587 679.979C954.089 681.482 955.854 682.615 957.751 683.354ZM967.64 509.79L895.566 564.5L967.64 619.21V509.79Z" fill="url(#paint0_linear_11_37)"/>
</g>
</g>
<defs>
<filter id="filter0_d_11_37" x="778.52" y="493.897" width="257.813" height="198.811" filterUnits="userSpaceOnUse" color-interpolation-filters="sRGB">
<feFlood flood-opacity="0" result="BackgroundImageFix"/>
<feColorMatrix in="SourceAlpha" type="matrix" values="0 0 0 0 0 0 0 0 0 0 0 0 0 0 0 0 0 0 127 0" result="hardAlpha"/>
<feOffset/>
<feGaussianBlur stdDeviation="4.16667"/>
<feColorMatrix type="matrix" values="0 0 0 0 0 0 0 0 0 0 0 0 0 0 0 0 0 0 0.25 0"/>
<feBlend mode="overlay" in2="BackgroundImageFix" result="effect1_dropShadow_11_37"/>
<feBlend mode="normal" in="SourceGraphic" in2="effect1_dropShadow_11_37" result="shape"/>
</filter>
<filter id="filter1_d_11_37" x="944.354" y="436.288" width="91.9792" height="256.424" filterUnits="userSpaceOnUse" color-interpolation-filters="sRGB">
<feFlood flood-opacity="0" result="BackgroundImageFix"/>
<feColorMatrix in="SourceAlpha" type="matrix" values="0 0 0 0 0 0 0 0 0 0 0 0 0 0 0 0 0 0 127 0" result="hardAlpha"/>
<feOffset/>
<feGaussianBlur stdDeviation="4.16667"/>
<feColorMatrix type="matrix" values="0 0 0 0 0 0 0 0 0 0 0 0 0 0 0 0 0 0 0.25 0"/>
<feBlend mode="overlay" in2="BackgroundImageFix" result="effect1_dropShadow_11_37"/>
<feBlend mode="normal" in="SourceGraphic" in2="effect1_dropShadow_11_37" result="shape"/>
</filter>
<linearGradient id="paint0_linear_11_37" x1="907.353" y1="444.621" x2="907.353" y2="684.379" gradientUnits="userSpaceOnUse">
<stop stop-color="white"/>
<stop offset="1" stop-color="white" stop-opacity="0"/>
</linearGradient>
</defs>
</svg>
